<?xml version="1.0" encoding="utf-8"?>
<!-- Generator: Adobe Illustrator 25.0.1, SVG Export Plug-In . SVG Version: 6.00 Build 0)  -->
<svg version="1.2" baseProfile="tiny" xmlns="http://www.w3.org/2000/svg" xmlns:xlink="http://www.w3.org/1999/xlink" x="0px"
	 y="0px" viewBox="0 0 56.69 85.04" overflow="visible" xml:space="preserve">
<g id="_x32_0">
</g>
<g id="Button_Outline">
</g>
<g id="Grove_Outline">
	<g id="POLYLINE_64_">
		<g>
			<path d="M15.37,0.49h4.68v1.42h16.58V0.49h4.68v11.77H15.37V0.49z M40.89,0.92h-3.82v1.42H19.63V0.92h-3.82v10.91h25.08V0.92z"/>
		</g>
	</g>
</g>
<g id="Ebene_7">
	<path d="M23.71,22.53l1.15-0.21c0.03-0.01,0.06-0.03,0.07-0.06l0.35-0.82c0.01-0.03,0.01-0.07-0.01-0.09l-0.67-0.98
		c-0.02-0.02-0.01-0.06,0.01-0.08l0.84-0.84c0.02-0.02,0.06-0.02,0.08-0.01l0.99,0.68c0.02,0.02,0.06,0.02,0.09,0.01l0.8-0.33
		c0.03-0.01,0.05-0.04,0.06-0.07l0.22-1.19c0.01-0.03,0.03-0.05,0.06-0.05h1.18c0.03,0,0.06,0.02,0.06,0.05l0.22,1.19
		c0.01,0.03,0.03,0.06,0.06,0.07l0.8,0.33c0.03,0.01,0.07,0.01,0.09-0.01l0.99-0.68c0.02-0.02,0.06-0.01,0.08,0.01l0.84,0.84
		c0.02,0.02,0.02,0.06,0.01,0.08l-0.67,0.98c-0.02,0.02-0.02,0.06-0.01,0.09l0.35,0.82c0.01,0.03,0.04,0.05,0.07,0.06l1.15,0.21
		c0.03,0.01,0.05,0.03,0.05,0.06l0,1.18c0,0.03-0.02,0.06-0.05,0.06l-1.12,0.21c-0.03,0.01-0.06,0.03-0.07,0.06l-0.35,0.88
		c-0.01,0.03-0.01,0.07,0.01,0.09l0.64,0.93c0.02,0.02,0.01,0.06-0.01,0.08l-0.84,0.84c-0.02,0.02-0.06,0.02-0.08,0.01l-0.91-0.63
		c-0.02-0.02-0.06-0.02-0.09,0l-0.4,0.21c-0.03,0.01-0.06,0-0.07-0.02l-0.83-2c-0.01-0.03,0-0.06,0.02-0.07l0.1-0.06
		c0.02-0.01,0.04-0.03,0.06-0.05c0.36-0.23,0.6-0.64,0.6-1.1c0-0.72-0.59-1.31-1.31-1.31c-0.72,0-1.31,0.59-1.31,1.31
		c0,0.46,0.24,0.87,0.6,1.1c0.02,0.02,0.04,0.04,0.06,0.05l0.1,0.06c0.02,0.01,0.04,0.05,0.02,0.07l-0.83,2
		c-0.01,0.03-0.04,0.04-0.07,0.02l-0.4-0.21c-0.02-0.01-0.06-0.01-0.09,0l-0.91,0.63c-0.02,0.02-0.06,0.01-0.08-0.01l-0.84-0.84
		c-0.02-0.02-0.02-0.06-0.01-0.08l0.64-0.93c0.02-0.02,0.02-0.06,0.01-0.09L24.9,24.1c-0.01-0.03-0.04-0.05-0.07-0.06l-1.12-0.21
		c-0.03-0.01-0.05-0.03-0.05-0.06l0-1.18C23.66,22.56,23.68,22.53,23.71,22.53"/>
	<g>
		<path d="M45.5,70.24c0.15-0.06,0.28-0.12,0.39-0.18l0.22,0.6c-0.09,0.06-0.23,0.12-0.41,0.18c-0.18,0.07-0.43,0.1-0.74,0.1
			c-0.46,0-0.8-0.1-1.03-0.29c-0.23-0.19-0.34-0.46-0.34-0.81c0-0.2,0.03-0.37,0.1-0.51c0.07-0.13,0.16-0.25,0.26-0.34
			c0.11-0.09,0.22-0.16,0.35-0.22s0.25-0.1,0.36-0.15c0.08-0.03,0.15-0.06,0.23-0.09c0.08-0.03,0.15-0.07,0.21-0.11
			c0.06-0.04,0.11-0.09,0.15-0.14s0.06-0.12,0.06-0.19c0-0.28-0.2-0.43-0.59-0.43c-0.16,0-0.3,0.02-0.42,0.06s-0.23,0.09-0.33,0.14
			l-0.22-0.57c0.12-0.06,0.26-0.12,0.43-0.17c0.17-0.05,0.37-0.08,0.6-0.08c0.4,0,0.71,0.1,0.93,0.29c0.23,0.2,0.34,0.47,0.34,0.82
			c0,0.18-0.03,0.32-0.1,0.44c-0.06,0.12-0.15,0.22-0.24,0.3c-0.1,0.08-0.21,0.15-0.33,0.2s-0.24,0.1-0.35,0.14
			c-0.08,0.03-0.17,0.07-0.25,0.11s-0.16,0.08-0.23,0.13s-0.12,0.1-0.17,0.16c-0.04,0.06-0.07,0.13-0.07,0.2
			c0,0.06,0.01,0.12,0.03,0.18c0.02,0.06,0.05,0.11,0.1,0.16c0.05,0.05,0.11,0.08,0.2,0.11s0.19,0.04,0.31,0.04
			C45.17,70.33,45.35,70.3,45.5,70.24z"/>
		<path d="M40.59,70.87v-0.61h1.64v-1.04h-1.31V68.6h1.31v-0.83h-1.51v-0.61h2.25v3.71H40.59z"/>
		<path d="M37.62,70.87v-3.71h0.67v2.29c0.06-0.14,0.14-0.31,0.23-0.5c0.09-0.19,0.19-0.39,0.29-0.59c0.11-0.2,0.21-0.41,0.33-0.62
			s0.22-0.4,0.34-0.57h0.59v3.71H39.4V68.4c-0.23,0.41-0.44,0.82-0.64,1.23s-0.38,0.82-0.55,1.23H37.62z"/>
		<path d="M36.5,70.24c0.15-0.06,0.28-0.12,0.39-0.18l0.22,0.6c-0.09,0.06-0.23,0.12-0.41,0.18c-0.18,0.07-0.43,0.1-0.74,0.1
			c-0.46,0-0.8-0.1-1.03-0.29c-0.23-0.19-0.34-0.46-0.34-0.81c0-0.2,0.03-0.37,0.1-0.51c0.07-0.13,0.16-0.25,0.26-0.34
			c0.11-0.09,0.22-0.16,0.35-0.22s0.25-0.1,0.36-0.15c0.08-0.03,0.15-0.06,0.23-0.09c0.08-0.03,0.15-0.07,0.21-0.11
			c0.06-0.04,0.11-0.09,0.15-0.14s0.06-0.12,0.06-0.19c0-0.28-0.2-0.43-0.59-0.43c-0.16,0-0.3,0.02-0.42,0.06s-0.23,0.09-0.33,0.14
			l-0.22-0.57c0.12-0.06,0.26-0.12,0.43-0.17c0.17-0.05,0.37-0.08,0.6-0.08c0.4,0,0.71,0.1,0.93,0.29c0.23,0.2,0.34,0.47,0.34,0.82
			c0,0.18-0.03,0.32-0.1,0.44c-0.06,0.12-0.15,0.22-0.24,0.3c-0.1,0.08-0.21,0.15-0.33,0.2s-0.24,0.1-0.35,0.14
			c-0.08,0.03-0.17,0.07-0.25,0.11s-0.16,0.08-0.23,0.13s-0.12,0.1-0.17,0.16c-0.04,0.06-0.07,0.13-0.07,0.2
			c0,0.06,0.01,0.12,0.03,0.18c0.02,0.06,0.05,0.11,0.1,0.16c0.05,0.05,0.11,0.08,0.2,0.11s0.19,0.04,0.31,0.04
			C36.17,70.33,36.35,70.3,36.5,70.24z"/>
		<path d="M33.84,70.46c-0.23,0.33-0.56,0.49-1,0.49c-0.42,0-0.75-0.16-0.98-0.49c-0.23-0.33-0.35-0.81-0.35-1.45
			c0-0.64,0.11-1.12,0.34-1.45c0.23-0.33,0.56-0.49,1-0.49c0.42,0,0.75,0.16,0.98,0.49c0.24,0.33,0.35,0.81,0.35,1.45
			C34.18,69.65,34.07,70.13,33.84,70.46z M33.41,68.5c-0.01-0.16-0.04-0.29-0.08-0.41s-0.1-0.21-0.18-0.28
			c-0.08-0.07-0.18-0.1-0.31-0.1s-0.23,0.03-0.31,0.1c-0.08,0.07-0.14,0.16-0.18,0.28s-0.07,0.25-0.08,0.41
			c-0.01,0.16-0.02,0.33-0.02,0.51s0.01,0.35,0.02,0.5c0.01,0.16,0.04,0.29,0.08,0.41s0.1,0.21,0.18,0.28
			c0.08,0.07,0.18,0.1,0.3,0.1c0.13,0,0.23-0.03,0.31-0.1c0.08-0.07,0.14-0.16,0.18-0.28s0.07-0.25,0.08-0.41
			c0.01-0.16,0.02-0.33,0.02-0.51S33.43,68.66,33.41,68.5z"/>
		<path d="M30.27,67.12c0.08,0,0.16,0.01,0.25,0.01s0.18,0.02,0.26,0.03s0.16,0.03,0.24,0.04v3.66h-0.74V69.5H29.9
			c-0.14,0.23-0.27,0.45-0.39,0.67s-0.23,0.45-0.32,0.69h-0.77c0.05-0.12,0.1-0.25,0.17-0.39c0.07-0.14,0.13-0.28,0.21-0.41
			c0.07-0.14,0.15-0.27,0.22-0.4s0.15-0.24,0.22-0.34c-0.2-0.09-0.35-0.23-0.44-0.4s-0.13-0.37-0.13-0.59c0-0.21,0.03-0.39,0.1-0.54
			c0.07-0.15,0.16-0.28,0.29-0.38c0.12-0.1,0.27-0.17,0.44-0.22c0.17-0.05,0.36-0.07,0.58-0.07C30.12,67.11,30.19,67.11,30.27,67.12
			z M29.58,68.74c0.11,0.1,0.29,0.15,0.55,0.15h0.16v-1.12c-0.04-0.01-0.08-0.01-0.12-0.01s-0.07,0-0.1,0
			c-0.2,0-0.35,0.05-0.47,0.14c-0.12,0.09-0.18,0.24-0.18,0.43C29.41,68.5,29.46,68.64,29.58,68.74z"/>
		<path d="M22.67,69.25c0.09-0.16,0.26-0.28,0.51-0.37c-0.14-0.08-0.26-0.19-0.34-0.32c-0.09-0.14-0.13-0.29-0.13-0.47
			c0-0.12,0.02-0.23,0.05-0.35s0.1-0.22,0.2-0.32c0.1-0.09,0.24-0.17,0.41-0.23c0.18-0.06,0.4-0.09,0.68-0.09
			c0.16,0,0.33,0.01,0.5,0.03c0.17,0.02,0.32,0.04,0.46,0.06v3.61c-0.17,0.04-0.35,0.06-0.52,0.08c-0.18,0.02-0.35,0.03-0.51,0.03
			c-0.2,0-0.39-0.02-0.57-0.06c-0.18-0.04-0.33-0.1-0.46-0.19s-0.23-0.21-0.31-0.36c-0.08-0.15-0.11-0.34-0.11-0.56
			C22.53,69.57,22.58,69.41,22.67,69.25z M24.28,68.63v-0.85c-0.05-0.01-0.1-0.01-0.16-0.02c-0.06,0-0.12-0.01-0.17-0.01
			c-0.07,0-0.13,0-0.2,0.01c-0.06,0.01-0.12,0.03-0.17,0.06s-0.09,0.07-0.11,0.13s-0.04,0.12-0.04,0.21c0,0.14,0.05,0.26,0.14,0.34
			c0.1,0.08,0.24,0.12,0.43,0.12H24.28z M23.89,69.24c-0.19,0-0.34,0.04-0.46,0.12c-0.11,0.08-0.17,0.21-0.17,0.39
			c0,0.11,0.02,0.2,0.06,0.27c0.04,0.07,0.09,0.12,0.15,0.16c0.06,0.04,0.13,0.06,0.21,0.08s0.16,0.02,0.25,0.02
			c0.06,0,0.12,0,0.18-0.01c0.06,0,0.12-0.01,0.17-0.02v-1.01H23.89z"/>
		<path d="M21.84,70.46c-0.23,0.33-0.56,0.49-1,0.49c-0.42,0-0.75-0.16-0.98-0.49c-0.23-0.33-0.35-0.81-0.35-1.45
			c0-0.64,0.11-1.12,0.34-1.45c0.23-0.33,0.56-0.49,1-0.49c0.42,0,0.75,0.16,0.98,0.49c0.24,0.33,0.35,0.81,0.35,1.45
			C22.18,69.65,22.07,70.13,21.84,70.46z M21.41,68.5c-0.01-0.16-0.04-0.29-0.08-0.41s-0.1-0.21-0.18-0.28
			c-0.08-0.07-0.18-0.1-0.31-0.1s-0.23,0.03-0.31,0.1c-0.08,0.07-0.14,0.16-0.18,0.28s-0.07,0.25-0.08,0.41
			c-0.01,0.16-0.02,0.33-0.02,0.51s0.01,0.35,0.02,0.5c0.01,0.16,0.04,0.29,0.08,0.41s0.1,0.21,0.18,0.28
			c0.08,0.07,0.18,0.1,0.3,0.1c0.13,0,0.23-0.03,0.31-0.1c0.08-0.07,0.14-0.16,0.18-0.28s0.07-0.25,0.08-0.41
			c0.01-0.16,0.02-0.33,0.02-0.51S21.43,68.66,21.41,68.5z"/>
		<path d="M16.4,70.87c0.16-0.71,0.33-1.37,0.51-1.98c0.17-0.61,0.35-1.19,0.53-1.73h0.8c0.17,0.54,0.34,1.11,0.52,1.71
			c0.18,0.6,0.36,1.27,0.53,2h-0.77l-0.17-0.86h-0.99l-0.17,0.86H16.4z M17.74,68.27c-0.03,0.13-0.07,0.25-0.1,0.37
			c-0.03,0.12-0.06,0.25-0.08,0.37c-0.02,0.12-0.05,0.25-0.07,0.38h0.73c-0.02-0.13-0.05-0.26-0.08-0.38
			c-0.03-0.12-0.05-0.25-0.08-0.37c-0.03-0.12-0.06-0.25-0.1-0.37s-0.07-0.26-0.11-0.4C17.81,68.01,17.78,68.14,17.74,68.27z"/>
		<path d="M15.27,67.12c0.08,0,0.16,0.01,0.25,0.01s0.18,0.02,0.26,0.03s0.16,0.03,0.24,0.04v3.66h-0.74V69.5H14.9
			c-0.14,0.23-0.27,0.45-0.39,0.67s-0.23,0.45-0.32,0.69h-0.77c0.05-0.12,0.1-0.25,0.17-0.39c0.07-0.14,0.13-0.28,0.21-0.41
			c0.07-0.14,0.15-0.27,0.22-0.4s0.15-0.24,0.22-0.34c-0.2-0.09-0.35-0.23-0.44-0.4s-0.13-0.37-0.13-0.59c0-0.21,0.03-0.39,0.1-0.54
			c0.07-0.15,0.16-0.28,0.29-0.38c0.12-0.1,0.27-0.17,0.44-0.22c0.17-0.05,0.36-0.07,0.58-0.07C15.12,67.11,15.19,67.11,15.27,67.12
			z M14.58,68.74c0.11,0.1,0.29,0.15,0.55,0.15h0.16v-1.12c-0.04-0.01-0.08-0.01-0.12-0.01s-0.07,0-0.1,0
			c-0.2,0-0.35,0.05-0.47,0.14c-0.12,0.09-0.18,0.24-0.18,0.43C14.41,68.5,14.46,68.64,14.58,68.74z"/>
		<path d="M10.63,68.14c0.08-0.24,0.19-0.43,0.33-0.59c0.14-0.15,0.31-0.27,0.51-0.34s0.42-0.11,0.67-0.11
			c0.13,0,0.27,0.01,0.41,0.02c0.15,0.01,0.31,0.04,0.47,0.07v3.62c-0.14,0.03-0.28,0.05-0.4,0.07c-0.13,0.01-0.26,0.02-0.39,0.02
			c-0.25,0-0.48-0.04-0.69-0.11c-0.21-0.07-0.39-0.18-0.54-0.33c-0.15-0.15-0.27-0.35-0.36-0.59s-0.13-0.54-0.13-0.88
			C10.51,68.67,10.55,68.38,10.63,68.14z M12.28,67.77c-0.03-0.01-0.07-0.01-0.11-0.01s-0.08,0-0.11,0c-0.16,0-0.3,0.04-0.4,0.11
			c-0.1,0.07-0.19,0.16-0.25,0.28c-0.06,0.12-0.1,0.25-0.13,0.4c-0.02,0.15-0.04,0.31-0.04,0.47c0,0.18,0.01,0.35,0.04,0.51
			c0.03,0.15,0.08,0.29,0.15,0.4c0.07,0.11,0.16,0.2,0.28,0.26c0.11,0.06,0.25,0.1,0.42,0.1c0.02,0,0.04,0,0.07,0s0.05,0,0.07-0.01
			V67.77z"/>
	</g>
	<g>
		<path d="M7.92,22.03c-0.09,0.06-0.23,0.08-0.4,0.08c-0.17,0-0.31-0.03-0.41-0.1c-0.11-0.07-0.16-0.17-0.16-0.3
			c0-0.04,0-0.08,0.01-0.12c0-0.04,0.01-0.08,0.01-0.11h1.03c0.02,0.03,0.04,0.07,0.05,0.13c0.01,0.05,0.02,0.11,0.02,0.16
			C8.06,21.89,8.01,21.98,7.92,22.03z"/>
		<path d="M7.08,58.99c0.09-0.05,0.23-0.08,0.4-0.08c0.17,0,0.31,0.03,0.41,0.09c0.11,0.06,0.16,0.16,0.16,0.3c0,0.04,0,0.08,0,0.11
			s-0.01,0.07-0.01,0.11H7.02C7,59.49,6.98,59.44,6.97,59.4c-0.01-0.05-0.02-0.1-0.02-0.15C6.94,59.13,6.99,59.05,7.08,58.99z"/>
		<path d="M7.5,45.08c0.17,0,0.3,0.03,0.41,0.09c0.1,0.06,0.16,0.16,0.16,0.29c0,0.13-0.05,0.22-0.16,0.29
			c-0.1,0.06-0.24,0.1-0.41,0.1s-0.3-0.03-0.41-0.09s-0.15-0.15-0.15-0.29c0-0.13,0.05-0.22,0.15-0.29S7.33,45.08,7.5,45.08z"/>
		<path d="M7.84,29.9h-0.9c-0.01-0.04-0.01-0.07-0.02-0.1c0-0.03,0-0.06,0-0.09c0-0.28,0.17-0.43,0.52-0.43
			c0.15,0,0.27,0.03,0.35,0.08c0.08,0.06,0.12,0.14,0.12,0.26c0,0.05-0.01,0.1-0.02,0.15S7.87,29.87,7.84,29.9z"/>
		<path d="M7.5,39.91c-0.17,0-0.3-0.03-0.41-0.09c-0.1-0.06-0.15-0.15-0.15-0.29c0-0.13,0.05-0.22,0.15-0.29s0.24-0.1,0.41-0.1
			s0.3,0.03,0.41,0.09c0.1,0.06,0.16,0.15,0.16,0.29c0,0.13-0.05,0.22-0.16,0.29C7.8,39.88,7.67,39.91,7.5,39.91z"/>
		<path d="M4.25,13.46l0,48.19h5.67l0-48.19H4.25z M8.44,16.57H7.38c-0.13,0-0.25-0.01-0.35-0.04c-0.11-0.02-0.2-0.06-0.27-0.12
			c-0.08-0.06-0.13-0.13-0.18-0.22c-0.04-0.09-0.06-0.21-0.06-0.34c0-0.04,0.01-0.09,0.02-0.15c0.01-0.06,0.03-0.1,0.04-0.14H5.66
			l0.08-0.49h2.69v0.49H6.99c-0.01,0.03-0.02,0.06-0.03,0.1s-0.02,0.09-0.02,0.13c0,0.11,0.04,0.19,0.12,0.23s0.2,0.06,0.38,0.06h1
			V16.57z M8.48,18.08c0,0.1-0.01,0.2-0.02,0.3c-0.02,0.1-0.04,0.2-0.08,0.29L7.95,18.6c0.02-0.04,0.04-0.09,0.05-0.12
			c0.01-0.04,0.02-0.07,0.03-0.11c0.01-0.04,0.01-0.07,0.01-0.11c0-0.04,0-0.08,0-0.12c0-0.04,0-0.08-0.01-0.11
			c-0.01-0.03-0.02-0.06-0.05-0.09c-0.02-0.02-0.06-0.04-0.1-0.06s-0.1-0.02-0.17-0.02H6.97v0.78H6.56v-0.78H6.01l0.08-0.49h0.47
			v-0.42h0.41v0.42h0.77c0.16,0,0.29,0.02,0.38,0.05c0.1,0.03,0.17,0.08,0.23,0.14c0.05,0.06,0.09,0.13,0.11,0.22
			C8.47,17.86,8.48,17.96,8.48,18.08z M8.48,20.05c0,0.1-0.01,0.2-0.02,0.3c-0.02,0.1-0.04,0.2-0.08,0.29l-0.42-0.07
			c0.02-0.04,0.04-0.09,0.05-0.12c0.01-0.04,0.02-0.07,0.03-0.11c0.01-0.04,0.01-0.07,0.01-0.11c0-0.04,0-0.08,0-0.12
			c0-0.04,0-0.08-0.01-0.11c-0.01-0.03-0.02-0.06-0.05-0.09c-0.02-0.02-0.06-0.04-0.1-0.06s-0.1-0.02-0.17-0.02H6.97v0.78H6.56
			v-0.78H6.01l0.08-0.49h0.47v-0.42h0.41v0.42h0.77c0.16,0,0.29,0.02,0.38,0.05c0.1,0.03,0.17,0.08,0.23,0.14
			c0.05,0.06,0.09,0.13,0.11,0.22C8.47,19.84,8.48,19.94,8.48,20.05z M9.1,21.49H8.39c0.06,0.13,0.09,0.26,0.09,0.38
			c0,0.12-0.02,0.23-0.07,0.32s-0.12,0.17-0.2,0.23c-0.09,0.06-0.19,0.11-0.31,0.14c-0.12,0.03-0.25,0.05-0.4,0.05
			c-0.3,0-0.54-0.08-0.72-0.23s-0.26-0.37-0.26-0.66c0-0.13,0.01-0.25,0.03-0.39s0.04-0.24,0.07-0.33H9.1V21.49z M6.58,23.59
			c0.02-0.04,0.04-0.08,0.07-0.11c0.03-0.03,0.07-0.06,0.11-0.08c0.04-0.02,0.09-0.03,0.15-0.03c0.06,0,0.11,0.01,0.15,0.03
			c0.04,0.02,0.08,0.05,0.11,0.08c0.03,0.03,0.05,0.07,0.07,0.11c0.02,0.04,0.02,0.09,0.02,0.13c0,0.09-0.03,0.17-0.09,0.25
			s-0.15,0.11-0.27,0.11c-0.11,0-0.2-0.04-0.26-0.11s-0.09-0.15-0.09-0.25C6.56,23.68,6.57,23.63,6.58,23.59z M7.8,23.59
			c0.02-0.04,0.04-0.08,0.07-0.11c0.03-0.03,0.07-0.06,0.11-0.08c0.04-0.02,0.09-0.03,0.15-0.03c0.06,0,0.11,0.01,0.15,0.03
			c0.04,0.02,0.08,0.05,0.11,0.08c0.03,0.03,0.05,0.07,0.07,0.11c0.02,0.04,0.02,0.09,0.02,0.13c0,0.09-0.03,0.17-0.09,0.25
			s-0.15,0.11-0.27,0.11c-0.11,0-0.2-0.04-0.26-0.11s-0.09-0.15-0.09-0.25C7.77,23.68,7.78,23.63,7.8,23.59z M8.7,29.48
			c0-0.13-0.01-0.23-0.04-0.32S8.6,29,8.57,28.92l0.42-0.09c0.03,0.1,0.06,0.2,0.08,0.31c0.02,0.11,0.04,0.22,0.04,0.33
			c0,0.32-0.07,0.56-0.22,0.71c-0.15,0.15-0.37,0.22-0.68,0.22H6.62c-0.07-0.24-0.1-0.46-0.1-0.66c0-0.29,0.08-0.52,0.23-0.69
			c0.15-0.17,0.38-0.25,0.69-0.25c0.27,0,0.49,0.06,0.64,0.19c0.16,0.12,0.23,0.31,0.23,0.55c0,0.07-0.01,0.13-0.02,0.18
			c-0.01,0.06-0.03,0.12-0.06,0.19h0.08c0.05,0,0.1-0.01,0.15-0.02c0.05-0.01,0.09-0.04,0.12-0.07c0.04-0.03,0.06-0.08,0.08-0.13
			C8.69,29.63,8.7,29.56,8.7,29.48z M5.7,31.45c0-0.08,0.03-0.16,0.08-0.22c0.06-0.06,0.13-0.09,0.23-0.09
			c0.1,0,0.17,0.03,0.23,0.09c0.06,0.06,0.08,0.13,0.08,0.22c0,0.08-0.03,0.16-0.08,0.22c-0.06,0.06-0.13,0.09-0.23,0.09
			c-0.1,0-0.18-0.03-0.23-0.09C5.73,31.61,5.7,31.54,5.7,31.45z M5.79,37.17c0.06-0.06,0.13-0.09,0.23-0.09
			c0.1,0,0.17,0.03,0.23,0.09c0.06,0.06,0.08,0.13,0.08,0.22c0,0.08-0.03,0.16-0.08,0.22c-0.06,0.06-0.13,0.09-0.23,0.09
			c-0.1,0-0.18-0.03-0.23-0.09c-0.06-0.06-0.08-0.13-0.08-0.22C5.7,37.3,5.73,37.23,5.79,37.17z M6.56,33.18v-0.42h0.41v0.42h0.77
			c0.16,0,0.29,0.02,0.38,0.05c0.1,0.03,0.17,0.08,0.23,0.14c0.05,0.06,0.09,0.13,0.11,0.22c0.02,0.09,0.03,0.19,0.03,0.3
			c0,0.1-0.01,0.2-0.02,0.3c-0.02,0.1-0.04,0.2-0.08,0.29l-0.42-0.07c0.02-0.04,0.04-0.09,0.05-0.12c0.01-0.04,0.02-0.07,0.03-0.11
			c0.01-0.04,0.01-0.07,0.01-0.11c0-0.04,0-0.08,0-0.12c0-0.04,0-0.08-0.01-0.11c-0.01-0.03-0.02-0.06-0.05-0.09
			c-0.02-0.02-0.06-0.04-0.1-0.06s-0.1-0.02-0.17-0.02H6.97v0.78H6.56v-0.78H6.01l0.08-0.49H6.56z M8.48,37.89
			c0,0.07-0.01,0.15-0.03,0.24c-0.02,0.09-0.05,0.18-0.1,0.28l-0.4-0.06C8,38.27,8.03,38.2,8.04,38.14
			c0.01-0.06,0.02-0.12,0.02-0.16c0-0.09-0.03-0.16-0.08-0.2s-0.14-0.06-0.25-0.06H6.56v-1h0.41v0.51h0.69
			c0.13,0,0.25,0.01,0.35,0.03c0.1,0.02,0.19,0.06,0.26,0.11c0.07,0.05,0.12,0.12,0.16,0.21C8.46,37.66,8.48,37.76,8.48,37.89z
			 M8.39,35.83c-0.06,0.07-0.15,0.11-0.27,0.11c-0.11,0-0.2-0.04-0.26-0.11s-0.09-0.15-0.09-0.25c0-0.05,0.01-0.09,0.02-0.13
			c0.02-0.04,0.04-0.08,0.07-0.11c0.03-0.03,0.07-0.06,0.11-0.08c0.04-0.02,0.09-0.03,0.15-0.03c0.06,0,0.11,0.01,0.15,0.03
			c0.04,0.02,0.08,0.05,0.11,0.08c0.03,0.03,0.05,0.07,0.07,0.11c0.02,0.04,0.02,0.09,0.02,0.13C8.48,35.68,8.45,35.76,8.39,35.83z
			 M8.49,39.54c0,0.13-0.02,0.25-0.07,0.36c-0.05,0.11-0.12,0.2-0.2,0.27c-0.09,0.08-0.19,0.14-0.31,0.18
			c-0.12,0.04-0.26,0.06-0.41,0.06c-0.15,0-0.28-0.02-0.4-0.06c-0.12-0.04-0.23-0.1-0.31-0.18C6.7,40.09,6.63,40,6.58,39.89
			c-0.05-0.11-0.07-0.23-0.07-0.35c0-0.13,0.02-0.24,0.07-0.35c0.05-0.11,0.11-0.2,0.2-0.28c0.09-0.08,0.19-0.14,0.31-0.18
			c0.12-0.04,0.25-0.06,0.4-0.06c0.15,0,0.29,0.02,0.41,0.06c0.12,0.04,0.23,0.1,0.31,0.18c0.09,0.08,0.16,0.17,0.2,0.28
			C8.47,39.29,8.49,39.41,8.49,39.54z M8.06,32.05c0-0.09-0.03-0.16-0.08-0.2s-0.14-0.06-0.25-0.06H6.56v-1h0.41v0.51h0.69
			c0.13,0,0.25,0.01,0.35,0.03c0.1,0.02,0.19,0.06,0.26,0.11c0.07,0.05,0.12,0.12,0.16,0.21c0.04,0.09,0.06,0.19,0.06,0.32
			c0,0.07-0.01,0.15-0.03,0.24c-0.02,0.09-0.05,0.18-0.1,0.28l-0.4-0.06c0.04-0.08,0.06-0.15,0.07-0.21
			C8.05,32.15,8.06,32.09,8.06,32.05z M6.99,49.67c0,0.03,0,0.06,0,0.11c0,0.04,0.01,0.08,0.01,0.13S7.03,50,7.03,50.04
			c0.01,0.04,0.02,0.08,0.02,0.11L6.6,50.24c-0.02-0.04-0.03-0.1-0.04-0.15s-0.02-0.11-0.02-0.17c-0.01-0.05-0.01-0.11-0.01-0.16
			s0-0.09,0-0.11c0-0.18,0.01-0.34,0.04-0.48s0.07-0.27,0.12-0.4h1.76v0.49h-1.4c-0.02,0.07-0.03,0.14-0.04,0.2
			C7,49.54,6.99,49.6,6.99,49.67z M6.51,47.4c0-0.12,0.01-0.23,0.03-0.34c0.02-0.11,0.04-0.2,0.06-0.26l0.4,0.07
			c-0.02,0.05-0.03,0.12-0.05,0.21c-0.01,0.08-0.02,0.17-0.02,0.27c0,0.14,0.03,0.24,0.09,0.3c0.06,0.06,0.14,0.09,0.23,0.09h0.06
			c-0.02-0.1-0.03-0.21-0.03-0.34c0-0.1,0.01-0.2,0.03-0.29c0.02-0.09,0.05-0.17,0.1-0.25c0.05-0.07,0.11-0.13,0.18-0.17
			c0.07-0.04,0.17-0.06,0.28-0.06c0.12,0,0.21,0.02,0.29,0.06c0.08,0.04,0.14,0.09,0.19,0.16c0.05,0.07,0.08,0.15,0.11,0.25
			c0.02,0.1,0.03,0.2,0.03,0.32c0,0.17-0.01,0.33-0.03,0.47c-0.02,0.14-0.04,0.24-0.06,0.32H7.28c-0.12,0-0.22-0.01-0.32-0.04
			c-0.09-0.03-0.17-0.07-0.24-0.13s-0.12-0.14-0.15-0.24S6.51,47.55,6.51,47.4z M6.51,45.47c0-0.13,0.02-0.24,0.07-0.35
			c0.05-0.11,0.11-0.2,0.2-0.28c0.09-0.08,0.19-0.14,0.31-0.18c0.12-0.04,0.25-0.07,0.4-0.07c0.15,0,0.29,0.02,0.41,0.06
			s0.23,0.1,0.31,0.18s0.16,0.17,0.2,0.28c0.05,0.11,0.07,0.23,0.07,0.36s-0.02,0.25-0.07,0.36c-0.05,0.11-0.12,0.2-0.2,0.27
			c-0.09,0.08-0.19,0.14-0.31,0.18c-0.12,0.04-0.26,0.06-0.41,0.06c-0.15,0-0.28-0.02-0.4-0.06c-0.12-0.04-0.23-0.1-0.31-0.18
			c-0.09-0.08-0.15-0.17-0.2-0.28C6.53,45.71,6.51,45.6,6.51,45.47z M8.07,53.28c0-0.11-0.02-0.21-0.05-0.32
			c-0.03-0.1-0.07-0.2-0.1-0.29l0.41-0.08c0.03,0.07,0.06,0.16,0.1,0.27s0.06,0.25,0.06,0.41c0,0.16-0.01,0.29-0.04,0.4
			s-0.07,0.2-0.12,0.26s-0.11,0.12-0.18,0.14S8,54.13,7.92,54.13c-0.1,0-0.18-0.02-0.25-0.06c-0.07-0.04-0.12-0.09-0.17-0.15
			c-0.04-0.06-0.08-0.13-0.11-0.21c-0.03-0.08-0.06-0.15-0.08-0.22c-0.02-0.05-0.03-0.1-0.05-0.14c-0.02-0.04-0.04-0.08-0.05-0.11
			c-0.02-0.03-0.04-0.06-0.06-0.08c-0.02-0.02-0.05-0.03-0.08-0.03c-0.03,0-0.07,0.02-0.1,0.07c-0.03,0.04-0.05,0.13-0.05,0.25
			c0,0.12,0.01,0.23,0.05,0.32c0.03,0.09,0.05,0.17,0.07,0.21l-0.42,0.08c-0.03-0.08-0.06-0.17-0.08-0.27
			c-0.02-0.1-0.03-0.22-0.03-0.34c0-0.14,0.01-0.26,0.05-0.36c0.03-0.1,0.07-0.18,0.13-0.25s0.12-0.11,0.19-0.14
			c0.07-0.03,0.15-0.05,0.23-0.05c0.1,0,0.18,0.02,0.25,0.06c0.07,0.04,0.12,0.09,0.16,0.15c0.04,0.06,0.08,0.13,0.11,0.2
			c0.03,0.07,0.05,0.15,0.07,0.22c0.02,0.05,0.03,0.1,0.05,0.14s0.03,0.09,0.05,0.12c0.02,0.04,0.04,0.06,0.06,0.08
			c0.02,0.02,0.05,0.03,0.09,0.03c0.05,0,0.09-0.03,0.11-0.1C8.06,53.49,8.07,53.4,8.07,53.28z M8.06,57.74
			c0-0.09-0.03-0.16-0.08-0.2s-0.14-0.06-0.25-0.06H6.56v-1h0.41v0.51h0.69c0.13,0,0.25,0.01,0.35,0.03
			c0.1,0.02,0.19,0.06,0.26,0.11c0.07,0.05,0.12,0.12,0.16,0.21s0.06,0.19,0.06,0.32c0,0.07-0.01,0.15-0.03,0.24
			c-0.02,0.09-0.05,0.18-0.1,0.28l-0.4-0.06C8,58.04,8.03,57.96,8.04,57.9C8.05,57.84,8.06,57.79,8.06,57.74z M7.17,55.89V54.8h0.48
			v1.08H7.17z M5.66,60.01l0.08-0.49H6.6c-0.03-0.05-0.05-0.1-0.06-0.17c-0.01-0.06-0.02-0.13-0.02-0.19c0-0.25,0.09-0.43,0.27-0.56
			c0.18-0.12,0.42-0.19,0.73-0.19c0.3,0,0.54,0.07,0.71,0.22c0.17,0.15,0.26,0.37,0.26,0.66c0,0.12-0.01,0.25-0.03,0.38
			c-0.02,0.13-0.04,0.24-0.07,0.33H5.66z M6.25,57.36c-0.06,0.06-0.13,0.09-0.23,0.09c-0.1,0-0.18-0.03-0.23-0.09
			C5.73,57.3,5.7,57.23,5.7,57.15c0-0.08,0.03-0.16,0.08-0.22c0.06-0.06,0.13-0.09,0.23-0.09c0.1,0,0.17,0.03,0.23,0.09
			c0.06,0.06,0.08,0.13,0.08,0.22C6.33,57.23,6.3,57.3,6.25,57.36z M5.66,52.1l0.08-0.49H6.6c-0.03-0.05-0.05-0.1-0.06-0.17
			s-0.02-0.13-0.02-0.19c0-0.25,0.09-0.43,0.27-0.56c0.18-0.12,0.42-0.19,0.73-0.19c0.3,0,0.54,0.07,0.71,0.22
			c0.17,0.15,0.26,0.37,0.26,0.66c0,0.12-0.01,0.25-0.03,0.38s-0.04,0.24-0.07,0.33H5.66z M5.66,43.23l0.08-0.49h2.64
			c0.03,0.09,0.05,0.2,0.07,0.33s0.03,0.26,0.03,0.39c0,0.14-0.02,0.27-0.07,0.38c-0.05,0.11-0.11,0.2-0.2,0.28
			c-0.09,0.08-0.19,0.13-0.31,0.17c-0.12,0.04-0.26,0.06-0.41,0.06c-0.15,0-0.28-0.02-0.4-0.05c-0.12-0.03-0.22-0.08-0.31-0.14
			c-0.09-0.06-0.15-0.14-0.2-0.23c-0.05-0.09-0.07-0.2-0.07-0.32c0-0.06,0.01-0.13,0.02-0.19c0.01-0.06,0.03-0.13,0.07-0.2H5.66z
			 M5.64,41.81l3.46-1.11v0.51l-3.46,1.1V41.81z M5.64,27.98l3.46-1.11v0.51l-3.46,1.1V27.98z M5.64,26L9.1,24.9v0.51l-3.46,1.1V26z
			"/>
		<path d="M7.67,47.22c0.02-0.04,0.04-0.06,0.07-0.08c0.03-0.02,0.07-0.03,0.12-0.03c0.08,0,0.15,0.03,0.18,0.09
			c0.04,0.06,0.05,0.15,0.05,0.25c0,0.05,0,0.1,0,0.15c0,0.05,0,0.09-0.01,0.13H7.64c-0.01-0.03-0.01-0.07-0.01-0.12
			c0-0.04-0.01-0.08-0.01-0.12c0-0.05,0-0.1,0.01-0.15S7.65,47.25,7.67,47.22z"/>
		<path d="M7.08,51.09c0.09-0.05,0.23-0.08,0.4-0.08c0.17,0,0.31,0.03,0.41,0.09c0.11,0.06,0.16,0.16,0.16,0.3c0,0.04,0,0.08,0,0.11
			s-0.01,0.07-0.01,0.11H7.02C7,51.58,6.98,51.54,6.97,51.49c-0.01-0.05-0.02-0.1-0.02-0.15C6.94,51.22,6.99,51.14,7.08,51.09z"/>
		<path d="M7.02,43.23h1.02c0.01,0.04,0.01,0.08,0.02,0.12s0,0.08,0,0.1c0,0.13-0.04,0.23-0.13,0.3c-0.09,0.07-0.23,0.11-0.44,0.11
			c-0.18,0-0.31-0.03-0.4-0.08c-0.09-0.06-0.14-0.14-0.14-0.26c0-0.05,0.01-0.1,0.02-0.16C6.98,43.31,7,43.27,7.02,43.23z"/>
	</g>
	<g>
		<path d="M42.83,63.85c-0.09,0.03-0.16,0.06-0.22,0.1l-0.13-0.39c0.02-0.01,0.05-0.03,0.08-0.05c0.04-0.02,0.08-0.04,0.14-0.06
			c0.06-0.02,0.12-0.04,0.2-0.05c0.08-0.01,0.16-0.02,0.26-0.02c0.15,0,0.29,0.03,0.42,0.08s0.24,0.14,0.34,0.25
			s0.17,0.24,0.23,0.41c0.06,0.16,0.08,0.35,0.08,0.56c0,0.21-0.02,0.4-0.07,0.56s-0.12,0.3-0.2,0.4c-0.09,0.11-0.19,0.19-0.32,0.24
			c-0.12,0.05-0.26,0.08-0.42,0.08c-0.18,0-0.33-0.01-0.45-0.04c-0.12-0.03-0.21-0.05-0.27-0.07v-1.24h0.49v0.9
			c0.03,0,0.06,0.01,0.1,0.01s0.07,0,0.1,0c0.18,0,0.32-0.07,0.41-0.21c0.09-0.14,0.14-0.36,0.14-0.65c0-0.13-0.01-0.25-0.03-0.35
			c-0.02-0.11-0.06-0.2-0.11-0.27c-0.05-0.08-0.12-0.14-0.2-0.18c-0.08-0.04-0.18-0.06-0.3-0.06C43.01,63.8,42.92,63.82,42.83,63.85
			z"/>
		<path d="M41.63,63.41c0.05,0,0.11,0.01,0.17,0.01s0.12,0.01,0.17,0.02c0.06,0.01,0.11,0.02,0.16,0.03v2.44h-0.49v-0.91h-0.26
			c-0.09,0.15-0.18,0.3-0.26,0.45c-0.08,0.15-0.15,0.3-0.21,0.46h-0.52c0.03-0.08,0.07-0.17,0.11-0.26s0.09-0.18,0.14-0.28
			c0.05-0.09,0.1-0.18,0.15-0.26s0.1-0.16,0.14-0.23c-0.14-0.06-0.23-0.15-0.29-0.27s-0.09-0.25-0.09-0.39
			c0-0.14,0.02-0.26,0.07-0.36s0.11-0.19,0.19-0.25c0.08-0.07,0.18-0.12,0.3-0.15c0.12-0.03,0.24-0.05,0.38-0.05
			C41.53,63.4,41.58,63.4,41.63,63.41z M41.17,64.49c0.07,0.07,0.2,0.1,0.36,0.1h0.11v-0.74c-0.03-0.01-0.05-0.01-0.08-0.01
			c-0.03,0-0.05,0-0.07,0c-0.13,0-0.24,0.03-0.32,0.09s-0.12,0.16-0.12,0.29C41.05,64.33,41.09,64.42,41.17,64.49z"/>
		<path d="M40.01,65.63c-0.15,0.22-0.38,0.33-0.67,0.33c-0.28,0-0.5-0.11-0.66-0.33c-0.15-0.22-0.23-0.54-0.23-0.97
			c0-0.43,0.08-0.75,0.23-0.97c0.15-0.22,0.37-0.33,0.66-0.33c0.28,0,0.5,0.11,0.66,0.33c0.16,0.22,0.24,0.54,0.24,0.97
			C40.24,65.09,40.16,65.41,40.01,65.63z M39.72,64.33c-0.01-0.1-0.03-0.2-0.06-0.27c-0.03-0.08-0.07-0.14-0.12-0.19
			c-0.05-0.05-0.12-0.07-0.2-0.07s-0.15,0.02-0.2,0.07c-0.05,0.04-0.09,0.11-0.12,0.18c-0.03,0.08-0.05,0.17-0.06,0.27
			c-0.01,0.1-0.01,0.22-0.01,0.34c0,0.12,0,0.23,0.01,0.34c0.01,0.1,0.03,0.2,0.06,0.27c0.03,0.08,0.07,0.14,0.12,0.19
			c0.05,0.04,0.12,0.07,0.2,0.07c0.08,0,0.15-0.02,0.2-0.07c0.05-0.05,0.09-0.11,0.12-0.18c0.03-0.08,0.05-0.17,0.06-0.27
			c0.01-0.11,0.01-0.22,0.01-0.34C39.74,64.55,39.73,64.43,39.72,64.33z"/>
		<path d="M37.09,65.91c-0.08-0.21-0.15-0.43-0.22-0.65c-0.07-0.23-0.14-0.45-0.2-0.66c-0.06-0.22-0.11-0.42-0.16-0.62
			c-0.05-0.2-0.09-0.38-0.12-0.54h0.52c0.02,0.13,0.05,0.28,0.08,0.45c0.03,0.17,0.07,0.35,0.1,0.53c0.04,0.18,0.08,0.36,0.12,0.53
			s0.08,0.33,0.13,0.47c0.04-0.14,0.09-0.29,0.13-0.47s0.09-0.35,0.12-0.53c0.04-0.18,0.07-0.35,0.11-0.52
			c0.03-0.17,0.06-0.32,0.07-0.45h0.52c-0.02,0.13-0.06,0.3-0.11,0.5c-0.05,0.21-0.11,0.42-0.17,0.65c-0.06,0.23-0.13,0.46-0.2,0.69
			c-0.07,0.23-0.14,0.44-0.2,0.62H37.09z"/>
		<path d="M34.51,65.91V65.5h1.1v-0.7h-0.88v-0.41h0.88v-0.56h-1.01v-0.41h1.5v2.48H34.51z"/>
		<path d="M30.75,65.9c-0.12-0.04-0.21-0.08-0.28-0.12l0.12-0.39c0.05,0.03,0.12,0.06,0.2,0.09s0.19,0.04,0.32,0.04
			c0.22,0,0.38-0.08,0.48-0.23s0.15-0.37,0.15-0.65c0-0.16-0.02-0.3-0.05-0.41s-0.08-0.2-0.14-0.26c-0.06-0.07-0.12-0.11-0.2-0.14
			s-0.15-0.04-0.23-0.04c-0.11,0-0.21,0.01-0.3,0.04c-0.09,0.03-0.16,0.06-0.22,0.1l-0.13-0.39c0.02-0.01,0.05-0.03,0.08-0.05
			s0.08-0.04,0.13-0.06c0.05-0.02,0.12-0.04,0.19-0.05s0.15-0.02,0.24-0.02c0.16,0,0.31,0.03,0.45,0.09
			c0.14,0.06,0.26,0.14,0.36,0.25c0.1,0.11,0.18,0.25,0.23,0.41c0.06,0.16,0.08,0.34,0.08,0.55c0,0.41-0.09,0.73-0.28,0.96
			c-0.18,0.22-0.45,0.34-0.8,0.34C31.01,65.96,30.87,65.94,30.75,65.9z"/>
		<path d="M30.01,65.63c-0.15,0.22-0.38,0.33-0.67,0.33c-0.28,0-0.5-0.11-0.66-0.33c-0.15-0.22-0.23-0.54-0.23-0.97
			c0-0.43,0.08-0.75,0.23-0.97c0.15-0.22,0.37-0.33,0.66-0.33c0.28,0,0.5,0.11,0.66,0.33c0.16,0.22,0.24,0.54,0.24,0.97
			C30.24,65.09,30.16,65.41,30.01,65.63z M29.72,64.33c-0.01-0.1-0.03-0.2-0.06-0.27c-0.03-0.08-0.07-0.14-0.12-0.19
			c-0.05-0.05-0.12-0.07-0.2-0.07s-0.15,0.02-0.2,0.07c-0.05,0.04-0.09,0.11-0.12,0.18c-0.03,0.08-0.05,0.17-0.06,0.27
			c-0.01,0.1-0.01,0.22-0.01,0.34c0,0.12,0,0.23,0.01,0.34c0.01,0.1,0.03,0.2,0.06,0.27c0.03,0.08,0.07,0.14,0.12,0.19
			c0.05,0.04,0.12,0.07,0.2,0.07c0.08,0,0.15-0.02,0.2-0.07c0.05-0.05,0.09-0.11,0.12-0.18c0.03-0.08,0.05-0.17,0.06-0.27
			c0.01-0.11,0.01-0.22,0.01-0.34C29.74,64.55,29.73,64.43,29.72,64.33z"/>
		<path d="M28.11,63.43c0.02,0.17,0.04,0.36,0.05,0.56c0.01,0.2,0.03,0.41,0.04,0.63c0.01,0.22,0.02,0.43,0.03,0.65
			c0.01,0.22,0.02,0.43,0.03,0.63H27.8l0.02-1.92l-0.29,1.05h-0.36l-0.3-1.05l0.02,1.92h-0.45c0.01-0.21,0.01-0.42,0.02-0.63
			s0.02-0.41,0.03-0.61c0.01-0.2,0.03-0.41,0.04-0.61c0.02-0.21,0.04-0.42,0.05-0.63h0.41c0.02,0.06,0.04,0.13,0.07,0.21
			c0.03,0.09,0.06,0.18,0.09,0.27c0.03,0.1,0.07,0.2,0.1,0.3c0.03,0.11,0.07,0.21,0.1,0.31c0.03-0.09,0.06-0.18,0.09-0.29
			c0.03-0.1,0.06-0.21,0.1-0.31c0.03-0.1,0.06-0.2,0.09-0.28s0.05-0.16,0.07-0.22H28.11z"/>
		<path d="M25.61,63.41c0.06,0,0.12,0.01,0.18,0.01c0.06,0,0.12,0.01,0.18,0.02s0.11,0.02,0.16,0.03v2.44h-0.49v-0.84h-0.18
			c-0.32,0-0.57-0.07-0.74-0.2c-0.17-0.13-0.26-0.35-0.26-0.64c0-0.29,0.09-0.5,0.26-0.63c0.17-0.13,0.42-0.19,0.73-0.19
			C25.5,63.4,25.55,63.4,25.61,63.41z M25.08,63.92c-0.08,0.06-0.12,0.16-0.12,0.31c0,0.15,0.04,0.26,0.12,0.32s0.2,0.09,0.36,0.09
			h0.2v-0.8c-0.03-0.01-0.07-0.01-0.12-0.01c-0.05,0-0.09,0-0.12,0C25.26,63.83,25.16,63.86,25.08,63.92z"/>
		<path d="M22.38,65.91c0.11-0.47,0.22-0.92,0.34-1.32c0.12-0.41,0.23-0.79,0.35-1.15h0.54c0.11,0.36,0.23,0.74,0.35,1.14
			c0.12,0.4,0.24,0.85,0.36,1.33H23.8l-0.11-0.57h-0.66l-0.12,0.57H22.38z M23.28,64.18c-0.02,0.08-0.04,0.17-0.06,0.25
			c-0.02,0.08-0.04,0.16-0.05,0.25c-0.02,0.08-0.03,0.17-0.05,0.26h0.48c-0.02-0.09-0.03-0.17-0.05-0.26
			c-0.02-0.08-0.04-0.17-0.06-0.25c-0.02-0.08-0.04-0.16-0.06-0.25s-0.05-0.17-0.07-0.27C23.32,64,23.3,64.09,23.28,64.18z"/>
		<path d="M22.25,63.43v0.41H21.6v2.07h-0.5v-2.07h-0.65v-0.41H22.25z"/>
		<path d="M18.56,65.91V65.5h0.54v-1.66h-0.54v-0.41h1.57v0.41h-0.54v1.66h0.54v0.41H18.56z"/>
		<path d="M16.56,64.83c0.06-0.1,0.17-0.19,0.34-0.25c-0.1-0.05-0.17-0.13-0.23-0.22c-0.06-0.09-0.09-0.19-0.09-0.31
			c0-0.08,0.01-0.15,0.04-0.23c0.02-0.08,0.07-0.15,0.14-0.21c0.07-0.06,0.16-0.11,0.28-0.15c0.12-0.04,0.27-0.06,0.46-0.06
			c0.11,0,0.22,0.01,0.33,0.02c0.11,0.01,0.21,0.03,0.31,0.04v2.4c-0.12,0.02-0.23,0.04-0.35,0.05c-0.12,0.01-0.23,0.02-0.34,0.02
			c-0.14,0-0.26-0.01-0.38-0.04c-0.12-0.03-0.22-0.07-0.31-0.13s-0.16-0.14-0.21-0.24c-0.05-0.1-0.08-0.22-0.08-0.37
			C16.47,65.04,16.5,64.93,16.56,64.83z M17.64,64.41v-0.57c-0.03,0-0.07-0.01-0.11-0.01c-0.04,0-0.08,0-0.12,0
			c-0.05,0-0.09,0-0.13,0.01c-0.04,0.01-0.08,0.02-0.11,0.04c-0.03,0.02-0.06,0.05-0.08,0.08c-0.02,0.04-0.03,0.08-0.03,0.14
			c0,0.1,0.03,0.17,0.1,0.23c0.06,0.05,0.16,0.08,0.28,0.08H17.64z M17.38,64.82c-0.13,0-0.23,0.03-0.31,0.08
			c-0.08,0.05-0.11,0.14-0.11,0.26c0,0.07,0.01,0.13,0.04,0.18c0.03,0.05,0.06,0.08,0.1,0.11s0.09,0.04,0.14,0.05
			c0.05,0.01,0.11,0.01,0.16,0.01c0.04,0,0.08,0,0.12,0c0.04,0,0.08-0.01,0.11-0.01v-0.67H17.38z"/>
		<path d="M14.51,65.5h1.06v-2.07h0.5v2.48h-1.56V65.5z"/>
		<path d="M12.51,65.91V65.5h1.1v-0.7h-0.88v-0.41h0.88v-0.56H12.6v-0.41h1.5v2.48H12.51z"/>
	</g>
	<g>
		<path d="M29.83,45.42c-0.09,0.03-0.16,0.06-0.22,0.1l-0.13-0.39c0.02-0.01,0.05-0.03,0.08-0.05s0.08-0.04,0.14-0.06
			c0.06-0.02,0.12-0.04,0.2-0.05c0.08-0.01,0.16-0.02,0.26-0.02c0.15,0,0.29,0.03,0.42,0.08c0.13,0.05,0.24,0.14,0.34,0.25
			c0.1,0.11,0.17,0.24,0.23,0.41s0.08,0.35,0.08,0.56c0,0.21-0.02,0.4-0.07,0.56c-0.05,0.16-0.12,0.3-0.2,0.4
			c-0.09,0.11-0.19,0.19-0.32,0.24c-0.12,0.05-0.26,0.08-0.42,0.08c-0.18,0-0.33-0.01-0.45-0.04c-0.12-0.03-0.21-0.05-0.27-0.07
			v-1.24h0.49v0.9c0.03,0,0.06,0.01,0.1,0.01c0.03,0,0.07,0,0.1,0c0.18,0,0.32-0.07,0.41-0.21c0.09-0.14,0.14-0.36,0.14-0.65
			c0-0.13-0.01-0.25-0.03-0.35c-0.02-0.11-0.06-0.2-0.11-0.27c-0.05-0.08-0.12-0.14-0.2-0.18c-0.08-0.04-0.18-0.06-0.3-0.06
			C30.01,45.38,29.92,45.39,29.83,45.42z"/>
		<path d="M27.53,47.48V45h0.44v1.52c0.04-0.1,0.09-0.21,0.15-0.34c0.06-0.13,0.12-0.26,0.2-0.4c0.07-0.14,0.14-0.27,0.22-0.41
			c0.07-0.14,0.15-0.26,0.22-0.38h0.4v2.48h-0.44v-1.64c-0.15,0.27-0.29,0.55-0.43,0.82c-0.13,0.27-0.25,0.55-0.37,0.82H27.53z"/>
		<path d="M25.53,45.67c0.05-0.16,0.12-0.29,0.22-0.39c0.09-0.1,0.21-0.18,0.34-0.23s0.28-0.07,0.45-0.07c0.08,0,0.18,0,0.28,0.01
			c0.1,0.01,0.2,0.02,0.32,0.05v2.42c-0.1,0.02-0.19,0.04-0.27,0.05c-0.08,0.01-0.17,0.01-0.26,0.01c-0.17,0-0.32-0.02-0.46-0.07
			c-0.14-0.05-0.26-0.12-0.36-0.22s-0.18-0.23-0.24-0.39c-0.06-0.16-0.09-0.36-0.09-0.59C25.45,46.02,25.48,45.82,25.53,45.67z
			 M26.64,45.42c-0.02-0.01-0.04-0.01-0.07-0.01c-0.03,0-0.05,0-0.07,0c-0.11,0-0.2,0.02-0.27,0.07c-0.07,0.05-0.12,0.11-0.16,0.19
			c-0.04,0.08-0.07,0.17-0.08,0.27c-0.02,0.1-0.02,0.21-0.02,0.31c0,0.12,0.01,0.24,0.03,0.34c0.02,0.1,0.05,0.19,0.1,0.27
			c0.05,0.08,0.11,0.13,0.18,0.18c0.08,0.04,0.17,0.06,0.28,0.06c0.01,0,0.03,0,0.04,0c0.02,0,0.03,0,0.04,0V45.42z"/>
	</g>
	<g>
		<path d="M23.52,47.06c0.1-0.04,0.19-0.08,0.26-0.12l0.14,0.4c-0.06,0.04-0.15,0.08-0.28,0.12c-0.12,0.04-0.29,0.07-0.49,0.07
			c-0.31,0-0.54-0.06-0.69-0.19s-0.23-0.31-0.23-0.54c0-0.14,0.02-0.25,0.07-0.34c0.05-0.09,0.1-0.16,0.17-0.22
			c0.07-0.06,0.15-0.11,0.23-0.14s0.17-0.07,0.24-0.1c0.05-0.02,0.1-0.04,0.15-0.06c0.05-0.02,0.1-0.05,0.14-0.07
			c0.04-0.03,0.08-0.06,0.1-0.1c0.03-0.04,0.04-0.08,0.04-0.13c0-0.19-0.13-0.28-0.39-0.28c-0.11,0-0.2,0.01-0.28,0.04
			c-0.08,0.03-0.16,0.06-0.22,0.1l-0.14-0.38c0.08-0.04,0.17-0.08,0.29-0.12c0.11-0.04,0.25-0.05,0.4-0.05
			c0.26,0,0.47,0.07,0.62,0.2c0.15,0.13,0.23,0.31,0.23,0.54c0,0.12-0.02,0.22-0.06,0.29c-0.04,0.08-0.1,0.15-0.16,0.2
			c-0.07,0.05-0.14,0.1-0.22,0.13c-0.08,0.04-0.16,0.07-0.23,0.09c-0.06,0.02-0.11,0.04-0.17,0.07s-0.11,0.05-0.15,0.08
			c-0.04,0.03-0.08,0.07-0.11,0.11s-0.04,0.08-0.04,0.14c0,0.04,0.01,0.08,0.02,0.12c0.01,0.04,0.03,0.07,0.07,0.1
			c0.03,0.03,0.08,0.05,0.13,0.07s0.12,0.03,0.21,0.03C23.3,47.12,23.42,47.1,23.52,47.06z"/>
		<path d="M20.29,47.48v-0.41h0.54v-1.66h-0.54V45h1.57v0.41h-0.54v1.66h0.54v0.41H20.29z"/>
		<path d="M18.57,45.42c-0.08,0.03-0.16,0.06-0.22,0.1l-0.13-0.39c0.02-0.01,0.05-0.03,0.08-0.05s0.08-0.04,0.14-0.06
			c0.06-0.02,0.12-0.04,0.2-0.05s0.16-0.02,0.26-0.02c0.15,0,0.29,0.03,0.42,0.08s0.24,0.14,0.34,0.25s0.17,0.24,0.23,0.41
			c0.06,0.16,0.08,0.35,0.08,0.56c0,0.21-0.02,0.4-0.07,0.56s-0.12,0.3-0.2,0.4c-0.09,0.11-0.19,0.19-0.32,0.24
			c-0.12,0.05-0.26,0.08-0.42,0.08c-0.18,0-0.33-0.01-0.45-0.04c-0.12-0.03-0.22-0.05-0.27-0.07v-1.24h0.49v0.9
			c0.03,0,0.06,0.01,0.1,0.01c0.04,0,0.07,0,0.1,0c0.18,0,0.32-0.07,0.41-0.21c0.09-0.14,0.14-0.36,0.14-0.65
			c0-0.13-0.01-0.25-0.03-0.35s-0.06-0.2-0.11-0.27s-0.12-0.14-0.2-0.18c-0.08-0.04-0.18-0.06-0.3-0.06
			C18.74,45.38,18.66,45.39,18.57,45.42z"/>
	</g>
	<g>
		<path d="M37.36,47.48c-0.08-0.21-0.15-0.43-0.22-0.65s-0.14-0.45-0.2-0.66c-0.06-0.22-0.11-0.42-0.16-0.62
			c-0.05-0.2-0.09-0.38-0.12-0.54h0.52c0.02,0.13,0.05,0.28,0.08,0.45c0.03,0.17,0.07,0.35,0.1,0.53c0.04,0.18,0.08,0.36,0.12,0.53
			c0.04,0.17,0.09,0.33,0.13,0.47c0.04-0.14,0.09-0.3,0.13-0.47c0.04-0.17,0.09-0.35,0.12-0.53c0.04-0.18,0.07-0.35,0.11-0.52
			c0.03-0.17,0.06-0.32,0.07-0.45h0.52c-0.02,0.13-0.06,0.3-0.11,0.5c-0.05,0.21-0.11,0.42-0.17,0.65c-0.06,0.23-0.13,0.46-0.2,0.69
			c-0.07,0.23-0.14,0.44-0.2,0.62H37.36z"/>
		<path d="M35.02,47.48c-0.12-0.04-0.21-0.08-0.28-0.12l0.12-0.39c0.05,0.03,0.12,0.06,0.2,0.09s0.19,0.04,0.32,0.04
			c0.22,0,0.38-0.08,0.48-0.23c0.1-0.15,0.15-0.37,0.15-0.65c0-0.16-0.02-0.3-0.05-0.41c-0.04-0.11-0.08-0.2-0.14-0.26
			s-0.12-0.11-0.2-0.14c-0.07-0.03-0.15-0.04-0.23-0.04c-0.11,0-0.21,0.01-0.3,0.04c-0.09,0.03-0.16,0.06-0.22,0.1l-0.13-0.39
			c0.02-0.01,0.05-0.03,0.08-0.05c0.04-0.02,0.08-0.04,0.13-0.06c0.05-0.02,0.12-0.04,0.19-0.05s0.15-0.02,0.24-0.02
			c0.16,0,0.31,0.03,0.45,0.09c0.14,0.06,0.26,0.14,0.36,0.25c0.1,0.11,0.18,0.25,0.23,0.41c0.06,0.16,0.08,0.34,0.08,0.55
			c0,0.41-0.09,0.73-0.28,0.96s-0.45,0.34-0.8,0.34C35.27,47.53,35.14,47.51,35.02,47.48z"/>
		<path d="M33.02,47.48c-0.12-0.04-0.21-0.08-0.28-0.12l0.12-0.39c0.05,0.03,0.12,0.06,0.2,0.09s0.19,0.04,0.32,0.04
			c0.22,0,0.38-0.08,0.48-0.23c0.1-0.15,0.15-0.37,0.15-0.65c0-0.16-0.02-0.3-0.05-0.41s-0.08-0.2-0.14-0.26
			c-0.06-0.07-0.12-0.11-0.2-0.14c-0.07-0.03-0.15-0.04-0.23-0.04c-0.11,0-0.21,0.01-0.3,0.04c-0.09,0.03-0.16,0.06-0.22,0.1
			l-0.13-0.39c0.02-0.01,0.05-0.03,0.08-0.05c0.04-0.02,0.08-0.04,0.13-0.06c0.05-0.02,0.12-0.04,0.19-0.05
			c0.07-0.01,0.15-0.02,0.24-0.02c0.16,0,0.31,0.03,0.45,0.09c0.14,0.06,0.26,0.14,0.36,0.25c0.1,0.11,0.18,0.25,0.23,0.41
			s0.08,0.34,0.08,0.55c0,0.41-0.09,0.73-0.28,0.96c-0.18,0.22-0.45,0.34-0.8,0.34C33.27,47.53,33.14,47.51,33.02,47.48z"/>
	</g>
	<g>
		<path d="M37.38,58.81L37.38,58.81l0.89,0.89l-0.54,0.54l-0.89-0.89l0,0l-0.52-0.52l0,0l-0.89-0.89l0.54-0.54l0.89,0.89l0,0
			L37.38,58.81z"/>
	</g>
	<g>
		<path d="M14.7,58.81L14.7,58.81l0.89,0.89l-0.54,0.54l-0.89-0.89l0,0l-0.52-0.52l0,0l-0.89-0.89l0.54-0.54l0.89,0.89l0,0
			L14.7,58.81z"/>
	</g>
	<g>
		<path d="M43.05,58.81L43.05,58.81l0.89,0.89l-0.54,0.54l-0.89-0.89l0,0l-0.52-0.52l0,0l-0.89-0.89l0.54-0.54l0.89,0.89l0,0
			L43.05,58.81z"/>
	</g>
	<g>
		<path d="M37.38,53.14L37.38,53.14l0.89,0.89l-0.54,0.54l-0.89-0.89l0,0l-0.52-0.52l0,0l-0.89-0.89l0.54-0.54l0.89,0.89l0,0
			L37.38,53.14z"/>
	</g>
	<g>
		<path d="M43.05,53.14L43.05,53.14l0.89,0.89l-0.54,0.54l-0.89-0.89l0,0l-0.52-0.52l0,0l-0.89-0.89l0.54-0.54l0.89,0.89l0,0
			L43.05,53.14z"/>
	</g>
	<g>
		<path d="M14.7,53.14L14.7,53.14l0.89,0.89l-0.54,0.54l-0.89-0.89l0,0l-0.52-0.52l0,0l-0.89-0.89l0.54-0.54l0.89,0.89l0,0
			L14.7,53.14z"/>
	</g>
	<g>
		<path d="M20.37,53.14L20.37,53.14l0.89,0.89l-0.54,0.54l-0.89-0.89l0,0l-0.52-0.52l0,0l-0.89-0.89l0.54-0.54l0.89,0.89l0,0
			L20.37,53.14z"/>
	</g>
	<path d="M22.68,55.98h-5.67v5.67h5.67V55.98z M20.72,57.4l0.54,0.54l-0.89,0.89l-0.52,0.52l-0.89,0.89l-0.54-0.54l0.89-0.89
		l0.52-0.52L20.72,57.4z"/>
	<g>
		<path d="M55.28,38.32c-0.47-0.11-0.91-0.22-1.32-0.34s-0.79-0.23-1.15-0.35V37.1c0.36-0.11,0.74-0.23,1.14-0.35
			c0.4-0.12,0.85-0.24,1.33-0.36v0.51l-0.57,0.11v0.66l0.57,0.12V38.32z M53.55,37.43c0.08,0.02,0.17,0.04,0.25,0.06
			c0.08,0.02,0.16,0.04,0.25,0.05c0.08,0.02,0.17,0.03,0.26,0.05v-0.48c-0.09,0.02-0.17,0.03-0.26,0.05s-0.17,0.04-0.25,0.06
			c-0.08,0.02-0.16,0.04-0.25,0.06s-0.17,0.05-0.27,0.07C53.37,37.38,53.46,37.4,53.55,37.43z"/>
		<path d="M52.8,40.11v-1.32h0.41v0.83h1.21c0.18,0,0.31-0.04,0.38-0.12c0.07-0.08,0.1-0.18,0.1-0.31c0-0.09-0.02-0.17-0.06-0.25
			s-0.08-0.16-0.12-0.22l0.39-0.19c0.06,0.08,0.11,0.17,0.16,0.28c0.04,0.11,0.06,0.25,0.06,0.42c0,0.16-0.02,0.3-0.07,0.41
			c-0.05,0.11-0.11,0.2-0.19,0.27s-0.17,0.12-0.28,0.15c-0.11,0.03-0.22,0.05-0.34,0.05H52.8z"/>
		<path d="M54.2,42.14c-0.1-0.06-0.19-0.17-0.25-0.34c-0.05,0.1-0.13,0.17-0.22,0.23c-0.09,0.06-0.2,0.09-0.31,0.09
			c-0.08,0-0.15-0.01-0.23-0.04c-0.08-0.02-0.15-0.07-0.21-0.14s-0.11-0.16-0.15-0.28c-0.04-0.12-0.06-0.27-0.06-0.46
			c0-0.11,0.01-0.22,0.02-0.33c0.01-0.11,0.03-0.21,0.04-0.31h2.4c0.02,0.12,0.04,0.23,0.05,0.35c0.01,0.12,0.02,0.23,0.02,0.34
			c0,0.14-0.01,0.26-0.04,0.38c-0.03,0.12-0.07,0.22-0.13,0.31c-0.06,0.09-0.14,0.16-0.24,0.21c-0.1,0.05-0.22,0.08-0.38,0.08
			C54.41,42.23,54.3,42.2,54.2,42.14z M54.19,41.33c0,0.13,0.03,0.23,0.08,0.31c0.05,0.08,0.14,0.11,0.26,0.11
			c0.07,0,0.13-0.01,0.18-0.04c0.05-0.03,0.08-0.06,0.11-0.1s0.04-0.09,0.05-0.14c0.01-0.05,0.01-0.11,0.01-0.16
			c0-0.04,0-0.08,0-0.12c0-0.04-0.01-0.08-0.01-0.11h-0.67V41.33z M53.78,41.06h-0.57c0,0.03-0.01,0.07-0.01,0.11
			c0,0.04,0,0.08,0,0.12c0,0.05,0,0.09,0.01,0.13c0.01,0.04,0.02,0.08,0.04,0.11s0.05,0.06,0.08,0.08s0.08,0.03,0.14,0.03
			c0.1,0,0.17-0.03,0.23-0.1c0.05-0.06,0.08-0.16,0.08-0.28V41.06z"/>
		<path d="M53.14,44.03c-0.09-0.04-0.16-0.1-0.22-0.17s-0.1-0.16-0.13-0.25c-0.03-0.09-0.04-0.19-0.04-0.29
			c0-0.14,0.03-0.28,0.08-0.42s0.14-0.26,0.25-0.37l0.34,0.24c-0.09,0.08-0.15,0.17-0.19,0.25s-0.06,0.17-0.06,0.24
			c0,0.09,0.03,0.17,0.08,0.23c0.05,0.06,0.13,0.09,0.23,0.09c0.07,0,0.14-0.03,0.21-0.07c0.07-0.05,0.14-0.11,0.22-0.19
			s0.15-0.16,0.23-0.24c0.08-0.09,0.17-0.17,0.26-0.24c0.09-0.08,0.2-0.14,0.31-0.19c0.11-0.05,0.23-0.07,0.37-0.07
			c0.02,0,0.04,0,0.08,0c0.04,0,0.07,0,0.1,0.01v1.62h-0.41v-1.06c-0.04,0-0.08,0.01-0.13,0.04c-0.05,0.03-0.1,0.06-0.14,0.1
			s-0.09,0.08-0.14,0.13c-0.04,0.05-0.08,0.09-0.11,0.12c-0.06,0.07-0.13,0.14-0.2,0.2c-0.07,0.07-0.14,0.13-0.22,0.18
			c-0.07,0.05-0.15,0.1-0.23,0.13c-0.08,0.03-0.16,0.05-0.25,0.05C53.33,44.09,53.23,44.07,53.14,44.03z"/>
		<path d="M53.06,45.99c-0.21-0.15-0.32-0.36-0.32-0.64c0-0.27,0.11-0.49,0.32-0.64c0.21-0.15,0.54-0.22,0.97-0.22
			c0.44,0,0.76,0.07,0.98,0.22c0.21,0.15,0.32,0.36,0.32,0.64s-0.11,0.49-0.32,0.64s-0.54,0.22-0.98,0.22
			C53.6,46.21,53.27,46.14,53.06,45.99z M54.68,45.66c0.15-0.07,0.22-0.17,0.22-0.31c0-0.13-0.07-0.24-0.22-0.31
			c-0.15-0.07-0.36-0.11-0.65-0.11c-0.28,0-0.5,0.04-0.64,0.11c-0.15,0.07-0.22,0.17-0.22,0.31c0,0.14,0.07,0.24,0.22,0.31
			c0.15,0.07,0.36,0.11,0.64,0.11C54.32,45.77,54.53,45.74,54.68,45.66z M53.8,45.52c-0.05-0.04-0.08-0.09-0.08-0.16
			c0-0.07,0.03-0.12,0.08-0.16c0.05-0.04,0.12-0.06,0.19-0.06s0.13,0.02,0.19,0.06c0.05,0.04,0.08,0.09,0.08,0.16
			c0,0.06-0.03,0.12-0.08,0.16c-0.05,0.04-0.11,0.06-0.19,0.06S53.86,45.56,53.8,45.52z"/>
		<path d="M53.06,47.99c-0.21-0.15-0.32-0.36-0.32-0.64c0-0.27,0.11-0.49,0.32-0.64c0.21-0.15,0.54-0.22,0.97-0.22
			c0.44,0,0.76,0.07,0.98,0.22c0.21,0.15,0.32,0.36,0.32,0.64s-0.11,0.49-0.32,0.64s-0.54,0.22-0.98,0.22
			C53.6,48.21,53.27,48.14,53.06,47.99z M54.68,47.66c0.15-0.07,0.22-0.17,0.22-0.31c0-0.13-0.07-0.24-0.22-0.31
			c-0.15-0.07-0.36-0.11-0.65-0.11c-0.28,0-0.5,0.04-0.64,0.11c-0.15,0.07-0.22,0.17-0.22,0.31c0,0.14,0.07,0.24,0.22,0.31
			c0.15,0.07,0.36,0.11,0.64,0.11C54.32,47.77,54.53,47.74,54.68,47.66z M53.8,47.52c-0.05-0.04-0.08-0.09-0.08-0.16
			c0-0.07,0.03-0.12,0.08-0.16c0.05-0.04,0.12-0.06,0.19-0.06s0.13,0.02,0.19,0.06c0.05,0.04,0.08,0.09,0.08,0.16
			c0,0.06-0.03,0.12-0.08,0.16c-0.05,0.04-0.11,0.06-0.19,0.06S53.86,47.56,53.8,47.52z"/>
		<path d="M53.71,49.25c0.01-0.05,0.03-0.1,0.05-0.15c-0.1,0.03-0.19,0.08-0.26,0.14s-0.13,0.14-0.17,0.22
			c-0.04,0.08-0.08,0.18-0.09,0.28c-0.02,0.1-0.03,0.21-0.03,0.31l-0.42-0.03c0-0.22,0.03-0.43,0.1-0.61
			c0.06-0.18,0.16-0.34,0.28-0.47s0.28-0.23,0.46-0.3s0.4-0.11,0.64-0.11c0.37,0,0.63,0.07,0.81,0.22c0.17,0.14,0.26,0.36,0.26,0.63
			c0,0.14-0.03,0.25-0.08,0.35c-0.05,0.1-0.12,0.18-0.2,0.24c-0.08,0.06-0.17,0.11-0.27,0.14c-0.1,0.03-0.2,0.05-0.29,0.05
			c-0.11,0-0.21-0.01-0.3-0.04c-0.1-0.03-0.18-0.07-0.25-0.14c-0.07-0.06-0.13-0.15-0.17-0.25c-0.04-0.1-0.06-0.22-0.06-0.37
			C53.69,49.34,53.7,49.3,53.71,49.25z M54.2,49.61c0.07,0.06,0.17,0.08,0.29,0.08c0.04,0,0.09-0.01,0.14-0.02
			c0.05-0.01,0.09-0.03,0.13-0.06c0.04-0.03,0.07-0.06,0.1-0.1c0.03-0.04,0.04-0.09,0.04-0.14c0-0.07-0.02-0.13-0.05-0.17
			c-0.03-0.05-0.08-0.08-0.13-0.11c-0.06-0.03-0.12-0.05-0.19-0.06c-0.07-0.01-0.14-0.02-0.22-0.02c-0.03,0-0.05,0-0.08,0
			c-0.02,0-0.05,0-0.07,0.01c-0.02,0.04-0.03,0.08-0.04,0.13c-0.01,0.05-0.02,0.11-0.02,0.16C54.1,49.46,54.13,49.55,54.2,49.61z"/>
		<path d="M53.14,52.03c-0.09-0.04-0.16-0.1-0.22-0.17s-0.1-0.16-0.13-0.25c-0.03-0.09-0.04-0.19-0.04-0.29
			c0-0.14,0.03-0.28,0.08-0.42s0.14-0.26,0.25-0.37l0.34,0.24c-0.09,0.08-0.15,0.17-0.19,0.25s-0.06,0.17-0.06,0.24
			c0,0.09,0.03,0.17,0.08,0.23c0.05,0.06,0.13,0.09,0.23,0.09c0.07,0,0.14-0.03,0.21-0.07c0.07-0.05,0.14-0.11,0.22-0.19
			s0.15-0.16,0.23-0.24c0.08-0.09,0.17-0.17,0.26-0.24c0.09-0.08,0.2-0.14,0.31-0.19c0.11-0.05,0.23-0.07,0.37-0.07
			c0.02,0,0.04,0,0.08,0c0.04,0,0.07,0,0.1,0.01v1.62h-0.41v-1.06c-0.04,0-0.08,0.01-0.13,0.04c-0.05,0.03-0.1,0.06-0.14,0.1
			s-0.09,0.08-0.14,0.13c-0.04,0.05-0.08,0.09-0.11,0.12c-0.06,0.07-0.13,0.14-0.2,0.2c-0.07,0.07-0.14,0.13-0.22,0.18
			c-0.07,0.05-0.15,0.1-0.23,0.13c-0.08,0.03-0.16,0.05-0.25,0.05C53.33,52.09,53.23,52.07,53.14,52.03z"/>
		<path d="M52.8,53.55c0.11-0.11,0.23-0.21,0.36-0.32s0.27-0.21,0.41-0.3c0.14-0.1,0.27-0.18,0.41-0.26
			c0.13-0.08,0.25-0.15,0.35-0.2h0.36v1.03h0.58v0.49h-0.58v0.27h-0.4v-0.27H52.8V53.55z M54.29,53.49v-0.56
			c-0.08,0.03-0.15,0.07-0.23,0.12c-0.08,0.04-0.15,0.09-0.23,0.14c-0.08,0.05-0.15,0.1-0.22,0.15c-0.07,0.05-0.13,0.1-0.2,0.15
			H54.29z"/>
	</g>
	<g>
		<path d="M31.09,82.91c-0.08-0.21-0.15-0.43-0.22-0.65c-0.07-0.23-0.14-0.45-0.2-0.66c-0.06-0.22-0.11-0.42-0.16-0.62
			s-0.09-0.38-0.12-0.54h0.52c0.02,0.13,0.05,0.28,0.08,0.45c0.03,0.17,0.07,0.35,0.1,0.53c0.04,0.18,0.08,0.36,0.12,0.53
			s0.08,0.33,0.13,0.47c0.04-0.14,0.09-0.29,0.13-0.47s0.09-0.35,0.12-0.53c0.04-0.18,0.07-0.35,0.11-0.52
			c0.03-0.17,0.06-0.32,0.07-0.45h0.52c-0.02,0.13-0.06,0.3-0.11,0.5s-0.11,0.42-0.17,0.65c-0.06,0.23-0.13,0.46-0.2,0.69
			c-0.07,0.23-0.14,0.44-0.2,0.62H31.09z"/>
		<path d="M30.01,82.5v0.41h-1.5V82.5H29v-2.07h0.34c0.05,0.05,0.11,0.11,0.17,0.16s0.14,0.1,0.21,0.14
			c0.08,0.05,0.15,0.09,0.22,0.12c0.08,0.04,0.14,0.07,0.21,0.09l-0.16,0.41c-0.07-0.02-0.15-0.06-0.24-0.1
			c-0.1-0.04-0.18-0.09-0.26-0.14v1.38H30.01z"/>
		<path d="M27.09,82.34c0.07-0.06,0.15-0.09,0.25-0.09c0.05,0,0.09,0.01,0.14,0.02c0.04,0.02,0.08,0.04,0.11,0.07
			c0.03,0.03,0.06,0.07,0.08,0.11c0.02,0.04,0.03,0.09,0.03,0.15c0,0.06-0.01,0.11-0.03,0.15c-0.02,0.04-0.05,0.08-0.08,0.11
			s-0.07,0.05-0.11,0.07c-0.04,0.02-0.09,0.02-0.14,0.02c-0.09,0-0.18-0.03-0.25-0.09s-0.11-0.15-0.11-0.27
			C26.99,82.49,27.02,82.4,27.09,82.34z"/>
		<path d="M26.01,82.5v0.41h-1.5V82.5H25v-2.07h0.34c0.05,0.05,0.11,0.11,0.17,0.16s0.14,0.1,0.21,0.14
			c0.08,0.05,0.15,0.09,0.22,0.12c0.08,0.04,0.14,0.07,0.21,0.09l-0.16,0.41c-0.07-0.02-0.15-0.06-0.24-0.1
			c-0.1-0.04-0.18-0.09-0.26-0.14v1.38H26.01z"/>
	</g>
	<g>
		<path d="M39.7,14.24c-0.09,0.03-0.16,0.06-0.22,0.1l-0.13-0.39c0.02-0.01,0.05-0.03,0.08-0.05c0.04-0.02,0.08-0.04,0.14-0.06
			c0.06-0.02,0.12-0.04,0.2-0.05c0.08-0.01,0.16-0.02,0.26-0.02c0.15,0,0.29,0.03,0.42,0.08c0.13,0.05,0.24,0.14,0.34,0.25
			c0.1,0.11,0.17,0.24,0.23,0.41s0.08,0.35,0.08,0.56c0,0.21-0.02,0.4-0.07,0.56c-0.05,0.16-0.12,0.3-0.2,0.4
			c-0.09,0.11-0.19,0.19-0.32,0.24c-0.12,0.05-0.26,0.08-0.42,0.08c-0.18,0-0.33-0.01-0.45-0.04c-0.12-0.03-0.21-0.05-0.27-0.07V15
			h0.49v0.9c0.03,0.01,0.06,0.01,0.1,0.01c0.03,0,0.07,0,0.1,0c0.18,0,0.32-0.07,0.41-0.21c0.09-0.14,0.14-0.36,0.14-0.65
			c0-0.13-0.01-0.24-0.03-0.35c-0.02-0.11-0.06-0.2-0.11-0.27c-0.05-0.08-0.12-0.14-0.2-0.18c-0.08-0.04-0.18-0.06-0.3-0.06
			C39.87,14.2,39.78,14.21,39.7,14.24z"/>
		<path d="M37.58,16.3v-2.48h0.44v1.52c0.04-0.1,0.09-0.21,0.15-0.34c0.06-0.13,0.12-0.26,0.2-0.4c0.07-0.14,0.14-0.27,0.22-0.41
			s0.15-0.26,0.22-0.38h0.4v2.48h-0.44v-1.64c-0.15,0.27-0.29,0.55-0.43,0.82s-0.25,0.55-0.37,0.82H37.58z"/>
		<path d="M35.76,14.49c0.05-0.16,0.12-0.29,0.22-0.39c0.09-0.1,0.21-0.18,0.34-0.23c0.13-0.05,0.28-0.07,0.45-0.07
			c0.09,0,0.18,0,0.28,0.01c0.1,0.01,0.2,0.02,0.32,0.05v2.42c-0.1,0.02-0.19,0.04-0.27,0.05s-0.17,0.01-0.26,0.01
			c-0.17,0-0.32-0.02-0.46-0.07c-0.14-0.05-0.26-0.12-0.36-0.22c-0.1-0.1-0.18-0.23-0.24-0.39c-0.06-0.16-0.09-0.36-0.09-0.59
			C35.68,14.84,35.71,14.64,35.76,14.49z M36.86,14.24c-0.02-0.01-0.05-0.01-0.07-0.01s-0.05,0-0.07,0c-0.11,0-0.2,0.02-0.27,0.07
			c-0.07,0.05-0.12,0.11-0.16,0.19s-0.07,0.17-0.08,0.27c-0.02,0.1-0.02,0.21-0.02,0.31c0,0.12,0.01,0.24,0.03,0.34
			c0.02,0.1,0.05,0.19,0.1,0.27c0.05,0.07,0.11,0.13,0.18,0.18s0.17,0.06,0.28,0.06c0.01,0,0.03,0,0.04,0c0.02,0,0.03,0,0.04,0
			V14.24z"/>
		<path d="M32.68,16.3c-0.08-0.21-0.15-0.43-0.22-0.65c-0.07-0.23-0.14-0.45-0.2-0.66c-0.06-0.22-0.11-0.42-0.16-0.62
			s-0.09-0.38-0.12-0.54h0.52c0.02,0.13,0.05,0.28,0.08,0.45c0.03,0.17,0.07,0.35,0.1,0.53c0.04,0.18,0.08,0.36,0.12,0.53
			c0.04,0.17,0.08,0.33,0.13,0.47c0.04-0.14,0.09-0.3,0.13-0.47c0.04-0.17,0.08-0.35,0.12-0.53c0.04-0.18,0.07-0.35,0.11-0.52
			c0.03-0.17,0.06-0.32,0.07-0.45h0.52c-0.02,0.13-0.06,0.3-0.11,0.5c-0.05,0.21-0.11,0.42-0.17,0.65c-0.06,0.23-0.13,0.46-0.2,0.69
			s-0.14,0.44-0.2,0.62H32.68z"/>
		<path d="M30.52,16.3c-0.12-0.04-0.21-0.08-0.28-0.12l0.12-0.39c0.05,0.03,0.12,0.06,0.2,0.09s0.19,0.04,0.32,0.04
			c0.22,0,0.38-0.08,0.48-0.23c0.1-0.15,0.15-0.37,0.15-0.65c0-0.16-0.02-0.3-0.05-0.41c-0.04-0.11-0.08-0.2-0.14-0.26
			s-0.12-0.11-0.2-0.14c-0.07-0.03-0.15-0.04-0.23-0.04c-0.11,0-0.21,0.01-0.3,0.04c-0.09,0.03-0.16,0.06-0.22,0.1l-0.13-0.39
			c0.02-0.01,0.05-0.03,0.08-0.05c0.04-0.02,0.08-0.04,0.13-0.06c0.05-0.02,0.12-0.04,0.19-0.05s0.15-0.02,0.24-0.02
			c0.16,0,0.31,0.03,0.45,0.09c0.14,0.06,0.26,0.14,0.36,0.25s0.18,0.25,0.23,0.41c0.06,0.16,0.08,0.34,0.08,0.55
			c0,0.41-0.09,0.73-0.28,0.96c-0.18,0.22-0.45,0.34-0.8,0.34C30.77,16.35,30.64,16.33,30.52,16.3z"/>
		<path d="M28.7,16.3c-0.12-0.04-0.21-0.08-0.28-0.12l0.12-0.39c0.05,0.03,0.12,0.06,0.2,0.09s0.19,0.04,0.32,0.04
			c0.22,0,0.38-0.08,0.48-0.23c0.1-0.15,0.15-0.37,0.15-0.65c0-0.16-0.02-0.3-0.05-0.41s-0.08-0.2-0.14-0.26
			c-0.06-0.07-0.12-0.11-0.2-0.14c-0.07-0.03-0.15-0.04-0.23-0.04c-0.11,0-0.21,0.01-0.3,0.04c-0.09,0.03-0.16,0.06-0.22,0.1
			l-0.13-0.39c0.02-0.01,0.05-0.03,0.08-0.05c0.04-0.02,0.08-0.04,0.13-0.06c0.05-0.02,0.12-0.04,0.19-0.05
			c0.07-0.01,0.15-0.02,0.24-0.02c0.16,0,0.31,0.03,0.45,0.09s0.26,0.14,0.36,0.25c0.1,0.11,0.18,0.25,0.23,0.41
			c0.06,0.16,0.08,0.34,0.08,0.55c0,0.41-0.09,0.73-0.28,0.96c-0.18,0.22-0.45,0.34-0.8,0.34C28.95,16.35,28.82,16.33,28.7,16.3z"/>
		<path d="M24.84,16.3v-2.48h0.44v1.52c0.04-0.1,0.09-0.21,0.15-0.34c0.06-0.13,0.12-0.26,0.2-0.4c0.07-0.14,0.14-0.27,0.22-0.41
			c0.07-0.14,0.15-0.26,0.22-0.38h0.4v2.48h-0.44v-1.64c-0.15,0.27-0.29,0.55-0.43,0.82s-0.25,0.55-0.37,0.82H24.84z"/>
		<path d="M23.24,16.3c-0.12-0.04-0.21-0.08-0.28-0.12l0.12-0.39c0.05,0.03,0.12,0.06,0.2,0.09s0.19,0.04,0.32,0.04
			c0.22,0,0.38-0.08,0.48-0.23c0.1-0.15,0.15-0.37,0.15-0.65c0-0.16-0.02-0.3-0.05-0.41s-0.08-0.2-0.14-0.26s-0.12-0.11-0.2-0.14
			c-0.07-0.03-0.15-0.04-0.23-0.04c-0.11,0-0.21,0.01-0.3,0.04c-0.09,0.03-0.16,0.06-0.22,0.1l-0.13-0.39
			c0.02-0.01,0.05-0.03,0.08-0.05c0.04-0.02,0.08-0.04,0.13-0.06c0.05-0.02,0.12-0.04,0.19-0.05s0.15-0.02,0.24-0.02
			c0.16,0,0.31,0.03,0.45,0.09c0.14,0.06,0.26,0.14,0.36,0.25c0.1,0.11,0.18,0.25,0.23,0.41c0.06,0.16,0.08,0.34,0.08,0.55
			c0,0.41-0.09,0.73-0.28,0.96c-0.18,0.22-0.45,0.34-0.8,0.34C23.49,16.35,23.36,16.33,23.24,16.3z"/>
		<path d="M20.63,15.88c0.1-0.04,0.19-0.08,0.26-0.12l0.14,0.4c-0.06,0.04-0.15,0.08-0.28,0.12c-0.12,0.04-0.29,0.07-0.49,0.07
			c-0.31,0-0.54-0.06-0.69-0.19c-0.15-0.13-0.23-0.31-0.23-0.54c0-0.14,0.02-0.25,0.07-0.34c0.04-0.09,0.1-0.16,0.17-0.22
			c0.07-0.06,0.15-0.11,0.23-0.14s0.17-0.07,0.24-0.1c0.05-0.02,0.1-0.04,0.15-0.06c0.05-0.02,0.1-0.05,0.14-0.07
			c0.04-0.03,0.08-0.06,0.1-0.1c0.03-0.04,0.04-0.08,0.04-0.13c0-0.19-0.13-0.28-0.39-0.28c-0.11,0-0.2,0.01-0.28,0.04
			c-0.08,0.03-0.16,0.06-0.22,0.1l-0.14-0.38c0.08-0.04,0.17-0.08,0.29-0.12c0.11-0.03,0.25-0.05,0.4-0.05
			c0.26,0,0.47,0.07,0.62,0.2c0.15,0.13,0.23,0.31,0.23,0.54c0,0.12-0.02,0.22-0.06,0.29c-0.04,0.08-0.1,0.15-0.16,0.2
			s-0.14,0.1-0.22,0.13s-0.16,0.07-0.23,0.09c-0.06,0.02-0.11,0.04-0.17,0.07s-0.11,0.05-0.15,0.08c-0.04,0.03-0.08,0.07-0.11,0.11
			s-0.04,0.09-0.04,0.14c0,0.04,0.01,0.08,0.02,0.12s0.03,0.07,0.07,0.1s0.08,0.05,0.13,0.07c0.05,0.02,0.12,0.03,0.21,0.03
			C20.41,15.94,20.53,15.92,20.63,15.88z"/>
		<path d="M17.58,16.3v-0.41h0.54v-1.66h-0.54v-0.41h1.57v0.41h-0.54v1.66h0.54v0.41H17.58z"/>
		<path d="M16.04,14.24c-0.09,0.03-0.16,0.06-0.22,0.1l-0.13-0.39c0.02-0.01,0.05-0.03,0.08-0.05c0.04-0.02,0.08-0.04,0.14-0.06
			c0.06-0.02,0.12-0.04,0.2-0.05c0.08-0.01,0.16-0.02,0.26-0.02c0.15,0,0.29,0.03,0.42,0.08s0.24,0.14,0.34,0.25
			s0.17,0.24,0.23,0.41c0.06,0.16,0.08,0.35,0.08,0.56c0,0.21-0.02,0.4-0.07,0.56c-0.05,0.16-0.12,0.3-0.2,0.4s-0.19,0.19-0.32,0.24
			c-0.12,0.05-0.26,0.08-0.42,0.08c-0.18,0-0.33-0.01-0.45-0.04c-0.12-0.03-0.21-0.05-0.27-0.07V15h0.49v0.9
			c0.03,0.01,0.06,0.01,0.1,0.01c0.03,0,0.07,0,0.1,0c0.18,0,0.32-0.07,0.41-0.21c0.09-0.14,0.14-0.36,0.14-0.65
			c0-0.13-0.01-0.24-0.03-0.35c-0.02-0.11-0.06-0.2-0.11-0.27s-0.12-0.14-0.2-0.18c-0.08-0.04-0.18-0.06-0.3-0.06
			C16.21,14.2,16.13,14.21,16.04,14.24z"/>
	</g>
</g>
<g id="Pads">
</g>
<g id="Bottom" display="none">
</g>
<g id="Top" display="none">
</g>
</svg>
