<?xml version="1.0" encoding="utf-8"?>
<!-- Generator: Adobe Illustrator 25.0.1, SVG Export Plug-In . SVG Version: 6.00 Build 0)  -->
<svg version="1.2" baseProfile="tiny" xmlns="http://www.w3.org/2000/svg" xmlns:xlink="http://www.w3.org/1999/xlink" x="0px"
	 y="0px" viewBox="0 0 56.69 85.04" overflow="visible" xml:space="preserve">
<g id="_x32_0">
</g>
<g id="Button_Outline">
	<g>
		<g>
			<path d="M29.27,76.05v-0.43h0.43v0.43C29.27,76.05,29.7,76.05,29.27,76.05z M28.13,76.05v-0.43h0.43v0.43
				C28.13,76.05,28.56,76.05,28.13,76.05z M27,76.05v-0.43h0.43v0.43C27,76.05,27.43,76.05,27,76.05z"/>
		</g>
	</g>
	<g>
		<path d="M10.85,37.07l-0.44-0.03v-0.41l0.44,0.03V37.07z M10.85,35.93l-0.44-0.03v-1.53l0.44,0.02V35.93z M10.85,33.66l-0.44-0.02
			V32.1l0.44,0.03V33.66z M22.18,31.4l-0.43-0.03v-0.4l0.43,0.02V31.4z M21.05,31.4l-1.57-0.03v-0.4l1.57,0.02V31.4z M18.78,31.4
			l-1.56-0.03v-0.4l1.56,0.02V31.4z M16.51,31.4l-0.43-0.03v-0.4l0.43,0.02V31.4z M15.38,31.4l-1.57-0.03v-0.4l1.57,0.02V31.4z
			 M13.11,31.4l-1.57-0.03v-0.4l1.57,0.02V31.4z M10.85,31.4l-0.44-0.03v-0.4l0.44,0.02V31.4z"/>
	</g>
	<g>
		<path d="M46.28,33.66l-0.43-0.02V32.1l0.43,0.03V33.66z M46.28,31.4l-0.43-0.03v-0.4l0.43,0.02V31.4z M45.14,31.4l-1.56-0.03v-0.4
			l1.56,0.02V31.4z M42.88,31.4l-1.57-0.03v-0.4l1.57,0.02V31.4z M40.61,31.4l-0.44-0.03v-0.4l0.44,0.02V31.4z M39.47,31.4
			l-1.56-0.03v-0.4l1.56,0.02V31.4z M37.21,31.4l-1.57-0.03v-0.4l1.57,0.02V31.4z M34.94,31.4l-0.43-0.03v-0.4l0.43,0.02V31.4z"/>
	</g>
	<g>
		<path d="M16.51,59.74h-0.43v-0.43h0.43V59.74z M15.38,59.74h-1.57v-0.43h1.57V59.74z M13.11,59.74h-1.57v-0.43h1.57V59.74z
			 M10.85,59.74h-0.44v-0.43h0.44V59.74z M10.85,58.61h-0.44v-1.57h0.44V58.61z M10.85,56.34h-0.44v-1.56h0.44V56.34z M10.85,54.07
			h-0.44v-0.43h0.44V54.07z"/>
	</g>
	<g>
		<path d="M46.28,59.74h-0.44v-0.43h0.44V59.74z M45.14,59.74h-1.56v-0.43h1.56V59.74z M42.88,59.74h-1.57v-0.43h1.57V59.74z
			 M40.61,59.74h-0.44v-0.43h0.44V59.74z M46.28,58.61h-0.43v-1.57h0.43V58.61z"/>
	</g>
	<g>
		<path d="M25.4,49.58l-0.11-0.36l0.02-0.03l0.18-0.06c0.36-0.11,0.75-0.21,1.13-0.28l0.21-0.01l0.05,0.4l-0.19,0.04
			c-0.36,0.06-0.72,0.16-1.07,0.26l-0.18,0.06L25.4,49.58z"/>
		<polygon points="27.6,49.14 27.57,49.11 27.55,48.74 27.58,48.72 27.96,48.69 27.99,48.71 28,49.09 27.98,49.12 		"/>
		<polygon points="28.71,49.12 28.69,49.09 28.71,48.71 28.74,48.69 29.11,48.71 29.14,48.74 29.12,49.11 29.09,49.14 		"/>
		<polygon points="29.81,49.23 29.78,49.2 29.85,48.83 29.88,48.8 30.25,48.87 30.28,48.9 30.21,49.28 30.18,49.3 		"/>
		<path d="M20.95,52.93l-0.3-0.23l0-0.04l0.11-0.15c0.23-0.3,0.48-0.61,0.75-0.89l0.17-0.13l0.27,0.3l-0.13,0.14
			c-0.26,0.26-0.49,0.55-0.71,0.84l-0.11,0.15L20.95,52.93z"/>
		<polygon points="22.47,51.29 22.43,51.29 22.2,50.99 22.21,50.96 22.49,50.72 22.53,50.72 22.77,51.01 22.77,51.05 		"/>
		<polygon points="23.36,50.62 23.32,50.61 23.11,50.3 23.12,50.26 23.44,50.05 23.48,50.06 23.69,50.38 23.68,50.42 		"/>
		<polygon points="24.31,50.07 24.27,50.06 24.11,49.72 24.12,49.68 24.46,49.51 24.5,49.53 24.66,49.87 24.65,49.91 		"/>
		<path d="M19.32,58.27l-0.38,0l-0.02-0.03l0-0.19c0-0.38,0.03-0.77,0.08-1.16l0.06-0.21l0.4,0.08l-0.02,0.19
			c-0.05,0.36-0.07,0.73-0.08,1.1l0,0.19L19.32,58.27z"/>
		<polygon points="19.58,56.04 19.55,56.07 19.19,55.97 19.18,55.94 19.26,55.57 19.3,55.55 19.66,55.65 19.68,55.68 		"/>
		<polygon points="19.91,54.98 19.87,55 19.52,54.86 19.5,54.83 19.64,54.47 19.68,54.46 20.03,54.59 20.05,54.63 		"/>
		<polygon points="20.36,53.98 20.32,53.99 19.98,53.81 19.97,53.77 20.15,53.44 20.19,53.43 20.52,53.61 20.53,53.65 		"/>
		<path d="M21.14,63.55l-0.31,0.22l-0.04-0.01l-0.11-0.15c-0.22-0.31-0.43-0.64-0.62-0.98l-0.07-0.2l0.37-0.17l0.1,0.17
			c0.17,0.32,0.37,0.64,0.58,0.94l0.11,0.15L21.14,63.55z"/>
		<polygon points="20.04,61.59 20.03,61.63 19.68,61.76 19.65,61.74 19.51,61.39 19.52,61.36 19.87,61.22 19.91,61.24 		"/>
		<polygon points="19.68,60.54 19.66,60.57 19.3,60.67 19.26,60.65 19.17,60.29 19.19,60.25 19.55,60.15 19.59,60.17 		"/>
		<polygon points="19.45,59.46 19.43,59.5 19.05,59.55 19.02,59.52 18.97,59.15 18.99,59.12 19.37,59.07 19.4,59.09 		"/>
		<path d="M25.71,66.74l-0.12,0.36l-0.04,0.01l-0.18-0.05c-0.36-0.12-0.73-0.27-1.08-0.43l-0.18-0.12l0.2-0.35l0.17,0.08
			c0.33,0.16,0.67,0.3,1.02,0.42l0.18,0.06L25.71,66.74z"/>
		<polygon points="23.67,65.81 23.69,65.84 23.48,66.16 23.45,66.16 23.12,65.96 23.11,65.93 23.32,65.61 23.36,65.6 		"/>
		<polygon points="22.77,65.17 22.77,65.21 22.53,65.5 22.49,65.5 22.2,65.27 22.19,65.23 22.43,64.93 22.47,64.93 		"/>
		<polygon points="21.95,64.43 21.95,64.48 21.67,64.74 21.63,64.74 21.37,64.46 21.37,64.42 21.64,64.16 21.69,64.16 		"/>
		<path d="M31.29,66.65l0.11,0.36l-0.02,0.03L31.2,67.1c-0.36,0.11-0.75,0.21-1.13,0.28l-0.21,0.01l-0.05-0.4L30,66.95
			c0.36-0.06,0.72-0.16,1.07-0.26l0.18-0.06L31.29,66.65z"/>
		<polygon points="29.09,67.08 29.12,67.11 29.14,67.48 29.11,67.5 28.74,67.53 28.7,67.51 28.69,67.13 28.71,67.1 		"/>
		<polygon points="27.98,67.1 28.01,67.13 27.99,67.51 27.96,67.53 27.58,67.51 27.55,67.48 27.57,67.11 27.6,67.08 		"/>
		<polygon points="26.89,66.99 26.91,67.02 26.84,67.39 26.81,67.42 26.44,67.35 26.42,67.32 26.48,66.94 26.52,66.92 		"/>
		<path d="M35.74,63.29l0.3,0.23l0,0.04l-0.11,0.15c-0.23,0.3-0.48,0.61-0.75,0.89l-0.17,0.13l-0.27-0.3l0.13-0.14
			c0.26-0.26,0.49-0.55,0.71-0.84l0.11-0.15L35.74,63.29z"/>
		<polygon points="34.22,64.93 34.26,64.93 34.5,65.23 34.49,65.26 34.2,65.5 34.16,65.5 33.93,65.21 33.93,65.17 		"/>
		<polygon points="33.33,65.6 33.37,65.61 33.58,65.92 33.57,65.96 33.25,66.17 33.21,66.16 33.01,65.84 33.02,65.8 		"/>
		<polygon points="32.38,66.15 32.42,66.16 32.59,66.5 32.57,66.54 32.23,66.71 32.2,66.69 32.03,66.35 32.04,66.32 		"/>
		<path d="M37.37,57.95l0.38,0l0.02,0.03l0,0.19c0,0.38-0.03,0.77-0.08,1.16l-0.06,0.21l-0.4-0.08l0.02-0.19
			c0.05-0.36,0.07-0.73,0.08-1.1l0-0.19L37.37,57.95z"/>
		<polygon points="37.11,60.18 37.14,60.15 37.51,60.25 37.52,60.28 37.43,60.65 37.4,60.67 37.03,60.57 37.01,60.54 		"/>
		<polygon points="36.78,61.24 36.82,61.22 37.17,61.36 37.19,61.39 37.05,61.75 37.02,61.76 36.66,61.63 36.65,61.59 		"/>
		<polygon points="36.34,62.24 36.38,62.23 36.71,62.41 36.72,62.45 36.54,62.78 36.51,62.79 36.17,62.61 36.16,62.57 		"/>
		<path d="M35.55,52.67l0.31-0.22l0.04,0.01l0.11,0.15c0.22,0.31,0.43,0.64,0.62,0.98l0.07,0.2l-0.37,0.17l-0.1-0.17
			c-0.17-0.32-0.37-0.64-0.58-0.94l-0.11-0.15L35.55,52.67z"/>
		<polygon points="36.65,54.63 36.66,54.59 37.02,54.46 37.04,54.48 37.19,54.83 37.18,54.86 36.82,55 36.78,54.98 		"/>
		<polygon points="37.01,55.68 37.03,55.65 37.39,55.55 37.43,55.57 37.53,55.93 37.51,55.97 37.14,56.07 37.11,56.05 		"/>
		<polygon points="37.24,56.76 37.27,56.72 37.64,56.67 37.67,56.7 37.72,57.07 37.7,57.1 37.33,57.15 37.29,57.13 		"/>
		<path d="M30.98,49.48l0.12-0.36l0.04-0.01l0.18,0.05c0.36,0.12,0.73,0.27,1.08,0.43l0.18,0.12l-0.2,0.35l-0.17-0.08
			c-0.33-0.16-0.67-0.3-1.02-0.42l-0.18-0.06L30.98,49.48z"/>
		<polygon points="33.02,50.41 33.01,50.38 33.22,50.06 33.25,50.06 33.57,50.26 33.58,50.29 33.37,50.61 33.33,50.62 		"/>
		<polygon points="33.93,51.05 33.92,51.01 34.16,50.72 34.2,50.72 34.5,50.95 34.5,50.99 34.26,51.29 34.22,51.29 		"/>
		<polygon points="34.75,51.79 34.75,51.75 35.02,51.48 35.06,51.48 35.32,51.76 35.32,51.8 35.05,52.06 35.01,52.06 		"/>
	</g>
	<g>
		<path d="M13.8,40.48v-0.17v-0.14h-0.13h-0.17l-0.12,0.12l-1.36,1.36l0.3,0.31l1.35-1.35c0.03,0,0.07,0,0.13,0V40.48z"/>
		<path d="M16.77,40.61v-0.43h0.43v0.43C16.77,40.61,17.2,40.61,16.77,40.61z M15.63,40.61v-0.43h0.43v0.43
			C15.63,40.61,16.06,40.61,15.63,40.61z M14.5,40.61v-0.43h0.43v0.43C14.5,40.61,14.93,40.61,14.5,40.61z"/>
	</g>
	<g>
		<path d="M42.9,40.48v-0.17v-0.14h0.13h0.17l0.12,0.12l1.36,1.36l-0.3,0.31l-1.35-1.35c-0.03,0-0.07,0-0.13,0V40.48z"/>
		<path d="M39.5,40.61v-0.43h0.43v0.43C39.5,40.61,39.93,40.61,39.5,40.61z M40.64,40.61v-0.43h0.43v0.43
			C40.64,40.61,41.07,40.61,40.64,40.61z M41.77,40.61v-0.43h0.43v0.43C41.77,40.61,42.2,40.61,41.77,40.61z"/>
	</g>
	<g>
		<path d="M13.8,75.74v0.17v0.14h-0.13h-0.17l-0.12-0.12l-1.36-1.36l0.3-0.31l1.35,1.35c0.03,0,0.07,0,0.13,0V75.74z"/>
		<path d="M17.2,75.61v0.43h-0.43v-0.43C17.2,75.61,16.77,75.61,17.2,75.61z M16.06,75.61v0.43h-0.43v-0.43
			C16.06,75.61,15.63,75.61,16.06,75.61z M14.93,75.61v0.43H14.5v-0.43C14.93,75.61,14.5,75.61,14.93,75.61z"/>
	</g>
	<g>
		<path d="M42.9,75.74v0.17v0.14h0.13h0.17l0.12-0.12l1.36-1.36l-0.3-0.31l-1.35,1.35c-0.03,0-0.07,0-0.13,0V75.74z"/>
		<path d="M39.93,75.61v0.43H39.5v-0.43C39.93,75.61,39.5,75.61,39.93,75.61z M41.07,75.61v0.43h-0.43v-0.43
			C41.07,75.61,40.64,75.61,41.07,75.61z M42.2,75.61v0.43h-0.43v-0.43C42.2,75.61,41.77,75.61,42.2,75.61z"/>
	</g>
	<g>
		<path d="M31.76,40.61v-0.43h0.43v0.43C31.76,40.61,32.19,40.61,31.76,40.61z"/>
	</g>
	<g>
		<path d="M24.5,40.61v-0.43h0.43v0.43C24.5,40.61,24.93,40.61,24.5,40.61z"/>
	</g>
</g>
<g id="Grove_Outline">
	<g id="POLYLINE_7_">
		<g>
			<path d="M41.32,12.97h-4.68v-1.42H20.06v1.42h-4.68V1.2h25.94V12.97z M37.07,12.54h3.82V1.63H15.81v10.91h3.82v-1.42h17.44V12.54
				z"/>
		</g>
	</g>
</g>
<g id="Ebene_7">
	<g>
		<path d="M6.93,23.67c0.08,0,0.15-0.01,0.21-0.03c0.05-0.02,0.1-0.04,0.13-0.07c0.03-0.03,0.05-0.07,0.07-0.1s0.02-0.08,0.02-0.12
			c0-0.05-0.01-0.1-0.04-0.14s-0.07-0.08-0.11-0.11c-0.05-0.03-0.1-0.06-0.15-0.08s-0.11-0.05-0.17-0.07
			c-0.07-0.03-0.15-0.06-0.23-0.09c-0.08-0.03-0.15-0.08-0.22-0.13s-0.12-0.12-0.16-0.2c-0.04-0.08-0.06-0.18-0.06-0.29
			c0-0.23,0.08-0.41,0.23-0.54c0.15-0.13,0.36-0.2,0.62-0.2c0.15,0,0.29,0.02,0.4,0.05s0.21,0.07,0.29,0.12l-0.14,0.38
			c-0.07-0.04-0.14-0.07-0.22-0.1c-0.08-0.03-0.18-0.04-0.28-0.04c-0.26,0-0.39,0.09-0.39,0.28c0,0.05,0.01,0.09,0.04,0.13
			c0.03,0.04,0.06,0.07,0.1,0.1c0.04,0.03,0.09,0.05,0.14,0.07c0.05,0.02,0.1,0.04,0.15,0.06c0.08,0.03,0.16,0.06,0.24,0.1
			s0.16,0.08,0.23,0.14c0.07,0.06,0.13,0.13,0.17,0.22c0.04,0.09,0.07,0.2,0.07,0.34c0,0.23-0.08,0.41-0.23,0.54
			c-0.15,0.13-0.38,0.19-0.69,0.19c-0.21,0-0.37-0.02-0.49-0.07c-0.12-0.04-0.21-0.08-0.28-0.12l0.14-0.4
			c0.07,0.04,0.16,0.08,0.26,0.12C6.66,23.65,6.78,23.67,6.93,23.67z"/>
		<path d="M8.21,24.03v-0.41h0.54v-1.66H8.21v-0.41h1.57v0.41H9.25v1.66h0.54v0.41H8.21z"/>
		<path d="M11.25,21.93c-0.12,0-0.22,0.02-0.3,0.06c-0.08,0.04-0.15,0.1-0.2,0.18s-0.09,0.17-0.11,0.27s-0.03,0.22-0.03,0.35
			c0,0.3,0.05,0.51,0.14,0.65c0.09,0.14,0.23,0.21,0.41,0.21c0.03,0,0.06,0,0.1,0c0.03,0,0.07-0.01,0.1-0.01v-0.9h0.49v1.24
			c-0.06,0.02-0.15,0.05-0.27,0.07c-0.12,0.03-0.27,0.04-0.45,0.04c-0.16,0-0.29-0.03-0.42-0.08c-0.12-0.05-0.23-0.14-0.32-0.24
			s-0.16-0.24-0.2-0.4c-0.05-0.16-0.07-0.35-0.07-0.56c0-0.21,0.03-0.4,0.08-0.56c0.06-0.16,0.13-0.3,0.23-0.41s0.21-0.19,0.34-0.25
			s0.27-0.08,0.42-0.08c0.1,0,0.18,0.01,0.26,0.02s0.14,0.03,0.2,0.05c0.06,0.02,0.1,0.04,0.14,0.06c0.04,0.02,0.06,0.04,0.08,0.05
			l-0.13,0.39c-0.06-0.04-0.13-0.07-0.22-0.1C11.42,21.94,11.34,21.93,11.25,21.93z"/>
	</g>
	<g>
		<path d="M15.23,82.01c0-0.08-0.01-0.15-0.03-0.21s-0.04-0.1-0.07-0.13c-0.03-0.03-0.07-0.05-0.1-0.07
			c-0.04-0.01-0.08-0.02-0.12-0.02c-0.05,0-0.1,0.02-0.14,0.04s-0.08,0.07-0.11,0.11c-0.03,0.04-0.06,0.1-0.08,0.15
			c-0.03,0.06-0.05,0.11-0.07,0.17c-0.03,0.07-0.06,0.15-0.09,0.23c-0.03,0.08-0.08,0.15-0.13,0.22c-0.05,0.07-0.12,0.12-0.2,0.16
			c-0.08,0.04-0.18,0.06-0.29,0.06c-0.23,0-0.41-0.08-0.54-0.23c-0.13-0.15-0.2-0.36-0.2-0.62c0-0.15,0.02-0.29,0.05-0.4
			c0.03-0.11,0.07-0.21,0.12-0.29l0.38,0.14c-0.04,0.07-0.07,0.14-0.1,0.22c-0.03,0.08-0.04,0.18-0.04,0.28
			c0,0.26,0.09,0.39,0.28,0.39c0.05,0,0.09-0.01,0.13-0.04s0.07-0.06,0.1-0.1c0.03-0.04,0.05-0.09,0.07-0.14
			c0.02-0.05,0.04-0.1,0.06-0.15c0.03-0.08,0.06-0.16,0.1-0.24s0.08-0.16,0.14-0.23c0.06-0.07,0.13-0.13,0.22-0.17
			c0.09-0.04,0.2-0.07,0.34-0.07c0.23,0,0.41,0.08,0.54,0.23s0.19,0.38,0.19,0.69c0,0.21-0.02,0.37-0.07,0.49s-0.08,0.21-0.12,0.28
			l-0.4-0.14c0.04-0.07,0.08-0.16,0.12-0.26C15.21,82.27,15.23,82.15,15.23,82.01z"/>
		<path d="M15.59,80.72h-0.41v-0.54h-1.66v0.54h-0.41v-1.57h0.41v0.54h1.66v-0.54h0.41V80.72z"/>
		<path d="M13.49,77.69c0,0.12,0.02,0.22,0.06,0.3c0.04,0.08,0.1,0.15,0.18,0.2s0.17,0.09,0.27,0.11c0.11,0.02,0.22,0.03,0.35,0.03
			c0.3,0,0.51-0.05,0.65-0.14c0.14-0.09,0.21-0.23,0.21-0.41c0-0.03,0-0.06,0-0.1s-0.01-0.07-0.01-0.1h-0.9v-0.49h1.24
			c0.02,0.06,0.04,0.15,0.07,0.27c0.03,0.12,0.04,0.27,0.04,0.45c0,0.15-0.03,0.29-0.08,0.42c-0.05,0.12-0.14,0.23-0.24,0.32
			c-0.11,0.09-0.24,0.16-0.4,0.2c-0.16,0.05-0.35,0.07-0.56,0.07c-0.21,0-0.4-0.03-0.56-0.08c-0.16-0.06-0.3-0.13-0.41-0.23
			c-0.11-0.1-0.19-0.21-0.25-0.34c-0.05-0.13-0.08-0.27-0.08-0.42c0-0.1,0.01-0.18,0.02-0.26c0.01-0.08,0.03-0.14,0.05-0.2
			c0.02-0.06,0.04-0.1,0.06-0.14c0.02-0.04,0.04-0.06,0.05-0.08l0.39,0.13c-0.04,0.06-0.07,0.13-0.1,0.22S13.49,77.6,13.49,77.69z"
			/>
	</g>
	<g>
		<path d="M52.47,36.01c0.18-0.06,0.39-0.13,0.62-0.2c0.23-0.07,0.46-0.14,0.69-0.2s0.45-0.12,0.65-0.17s0.37-0.09,0.5-0.11v0.52
			c-0.13,0.02-0.28,0.04-0.45,0.07c-0.17,0.03-0.34,0.07-0.52,0.11c-0.18,0.04-0.36,0.08-0.53,0.12c-0.17,0.04-0.33,0.09-0.47,0.13
			c0.14,0.04,0.29,0.09,0.47,0.13c0.17,0.04,0.35,0.08,0.53,0.12c0.18,0.04,0.36,0.07,0.53,0.1c0.17,0.03,0.32,0.06,0.45,0.08v0.52
			c-0.16-0.03-0.34-0.07-0.54-0.12c-0.2-0.05-0.41-0.1-0.62-0.16s-0.44-0.13-0.66-0.2c-0.22-0.07-0.44-0.15-0.65-0.22V36.01z"/>
		<path d="M52.42,38.45c0-0.35,0.11-0.62,0.34-0.8c0.22-0.18,0.54-0.28,0.96-0.28c0.21,0,0.39,0.03,0.55,0.08
			c0.16,0.06,0.29,0.13,0.41,0.23c0.11,0.1,0.19,0.22,0.25,0.36c0.06,0.14,0.09,0.29,0.09,0.45c0,0.09-0.01,0.17-0.02,0.24
			c-0.01,0.07-0.03,0.13-0.05,0.19c-0.02,0.05-0.04,0.1-0.06,0.13c-0.02,0.04-0.04,0.06-0.05,0.08l-0.39-0.13
			c0.04-0.06,0.07-0.14,0.1-0.22c0.03-0.09,0.04-0.19,0.04-0.3c0-0.08-0.01-0.15-0.04-0.23c-0.03-0.07-0.07-0.14-0.14-0.2
			c-0.06-0.06-0.15-0.1-0.26-0.14c-0.11-0.04-0.25-0.05-0.41-0.05c-0.28,0-0.5,0.05-0.65,0.15c-0.15,0.1-0.23,0.26-0.23,0.48
			c0,0.13,0.01,0.23,0.04,0.32s0.06,0.15,0.09,0.2l-0.39,0.12c-0.04-0.07-0.08-0.16-0.12-0.28C52.44,38.74,52.42,38.61,52.42,38.45z
			"/>
		<path d="M52.42,40.45c0-0.35,0.11-0.62,0.34-0.8c0.22-0.18,0.54-0.28,0.96-0.28c0.21,0,0.39,0.03,0.55,0.08
			c0.16,0.06,0.29,0.13,0.41,0.23c0.11,0.1,0.19,0.22,0.25,0.36c0.06,0.14,0.09,0.29,0.09,0.45c0,0.09-0.01,0.17-0.02,0.24
			c-0.01,0.07-0.03,0.13-0.05,0.19c-0.02,0.05-0.04,0.1-0.06,0.13c-0.02,0.04-0.04,0.06-0.05,0.08l-0.39-0.13
			c0.04-0.06,0.07-0.14,0.1-0.22c0.03-0.09,0.04-0.19,0.04-0.3c0-0.08-0.01-0.15-0.04-0.23c-0.03-0.07-0.07-0.14-0.14-0.2
			c-0.06-0.06-0.15-0.1-0.26-0.14c-0.11-0.04-0.25-0.05-0.41-0.05c-0.28,0-0.5,0.05-0.65,0.15c-0.15,0.1-0.23,0.26-0.23,0.48
			c0,0.13,0.01,0.23,0.04,0.32s0.06,0.15,0.09,0.2l-0.39,0.12c-0.04-0.07-0.08-0.16-0.12-0.28C52.44,40.74,52.42,40.61,52.42,40.45z
			"/>
	</g>
	<g>
		<path d="M52.83,43.28c0,0.08,0.01,0.15,0.03,0.21s0.04,0.1,0.07,0.13c0.03,0.03,0.06,0.05,0.1,0.07c0.04,0.01,0.08,0.02,0.12,0.02
			c0.05,0,0.1-0.01,0.14-0.04s0.08-0.07,0.11-0.11c0.03-0.04,0.06-0.1,0.08-0.15c0.03-0.06,0.05-0.11,0.07-0.17
			c0.03-0.08,0.06-0.15,0.09-0.23c0.04-0.08,0.08-0.15,0.13-0.22c0.05-0.07,0.12-0.12,0.2-0.16c0.08-0.04,0.18-0.06,0.29-0.06
			c0.23,0,0.41,0.08,0.54,0.23s0.2,0.36,0.2,0.62c0,0.15-0.02,0.28-0.05,0.4s-0.07,0.21-0.12,0.29l-0.38-0.14
			c0.04-0.07,0.07-0.14,0.1-0.22c0.03-0.08,0.04-0.17,0.04-0.28c0-0.26-0.09-0.39-0.28-0.39c-0.05,0-0.09,0.01-0.12,0.04
			c-0.04,0.03-0.07,0.06-0.1,0.1c-0.03,0.04-0.05,0.09-0.07,0.14c-0.02,0.05-0.04,0.1-0.06,0.15c-0.03,0.08-0.06,0.16-0.1,0.24
			c-0.04,0.08-0.08,0.16-0.14,0.23s-0.13,0.13-0.22,0.17c-0.09,0.05-0.2,0.07-0.34,0.07c-0.23,0-0.41-0.08-0.54-0.23
			c-0.13-0.15-0.19-0.38-0.19-0.69c0-0.21,0.02-0.37,0.07-0.49c0.04-0.12,0.08-0.21,0.12-0.28l0.4,0.14
			c-0.04,0.07-0.08,0.16-0.12,0.26C52.85,43.02,52.83,43.14,52.83,43.28z"/>
		<path d="M52.47,44.57h0.41v0.54h1.66v-0.54h0.41v1.57h-0.41v-0.54h-1.66v0.54h-0.41V44.57z"/>
		<path d="M54.58,47.6c0-0.12-0.02-0.22-0.06-0.3c-0.04-0.08-0.1-0.15-0.18-0.2c-0.08-0.05-0.17-0.09-0.27-0.11
			c-0.11-0.02-0.22-0.03-0.35-0.03c-0.3,0-0.51,0.05-0.65,0.14c-0.14,0.09-0.21,0.23-0.21,0.41c0,0.03,0,0.06,0,0.1
			c0,0.04,0.01,0.07,0.01,0.1h0.9v0.49h-1.24c-0.02-0.06-0.04-0.15-0.07-0.27c-0.03-0.12-0.04-0.27-0.04-0.45
			c0-0.15,0.03-0.29,0.08-0.42c0.05-0.12,0.14-0.23,0.24-0.32c0.11-0.09,0.24-0.16,0.4-0.2c0.16-0.05,0.35-0.07,0.56-0.07
			c0.21,0,0.4,0.03,0.56,0.08c0.16,0.06,0.3,0.13,0.41,0.23c0.11,0.1,0.19,0.21,0.25,0.34c0.05,0.13,0.08,0.27,0.08,0.42
			c0,0.1-0.01,0.18-0.02,0.26c-0.01,0.08-0.03,0.14-0.05,0.2c-0.02,0.06-0.04,0.1-0.06,0.14s-0.04,0.06-0.05,0.08l-0.39-0.13
			c0.04-0.06,0.07-0.13,0.1-0.22C54.56,47.78,54.58,47.69,54.58,47.6z"/>
	</g>
	<g>
		<path d="M54.58,50.69c0-0.12-0.02-0.22-0.06-0.3c-0.04-0.08-0.1-0.15-0.18-0.2s-0.17-0.09-0.27-0.11s-0.22-0.03-0.35-0.03
			c-0.3,0-0.51,0.05-0.65,0.14c-0.14,0.09-0.21,0.23-0.21,0.41c0,0.03,0,0.06,0,0.1c0,0.03,0.01,0.07,0.01,0.1h0.9v0.49h-1.24
			c-0.02-0.06-0.04-0.15-0.07-0.27c-0.03-0.12-0.04-0.27-0.04-0.45c0-0.16,0.03-0.29,0.08-0.42c0.05-0.12,0.14-0.23,0.24-0.32
			s0.24-0.16,0.4-0.2c0.16-0.05,0.35-0.07,0.56-0.07c0.21,0,0.4,0.03,0.56,0.08c0.16,0.06,0.3,0.13,0.41,0.23s0.19,0.21,0.25,0.34
			s0.08,0.27,0.08,0.42c0,0.1-0.01,0.18-0.02,0.26c-0.01,0.08-0.03,0.14-0.05,0.2c-0.02,0.06-0.04,0.1-0.06,0.14
			s-0.04,0.06-0.05,0.08l-0.39-0.13c0.04-0.06,0.07-0.13,0.1-0.22S54.58,50.78,54.58,50.69z"/>
		<path d="M52.47,52.86c0.28-0.11,0.55-0.23,0.82-0.37s0.55-0.27,0.82-0.43h-1.64v-0.44h2.48v0.4c-0.12,0.07-0.25,0.15-0.38,0.22
			c-0.14,0.07-0.27,0.15-0.41,0.22c-0.14,0.07-0.27,0.14-0.4,0.2c-0.13,0.06-0.24,0.11-0.34,0.15h1.52v0.44h-2.48V52.86z"/>
		<path d="M53.71,55.33c-0.23,0-0.42-0.03-0.59-0.09c-0.16-0.06-0.29-0.14-0.39-0.24c-0.1-0.1-0.17-0.22-0.22-0.36
			c-0.05-0.14-0.07-0.29-0.07-0.46c0-0.09,0-0.17,0.01-0.26s0.03-0.17,0.05-0.27h2.42c0.02,0.11,0.04,0.22,0.05,0.32
			s0.01,0.19,0.01,0.28c0,0.16-0.02,0.31-0.07,0.45c-0.05,0.13-0.12,0.25-0.22,0.34c-0.1,0.09-0.23,0.17-0.39,0.22
			C54.13,55.31,53.94,55.33,53.71,55.33z M52.87,54.15c0,0.01,0,0.03,0,0.04c0,0.02,0,0.03,0,0.04c0,0.11,0.02,0.21,0.06,0.28
			c0.04,0.08,0.1,0.14,0.18,0.18c0.07,0.05,0.16,0.08,0.27,0.1c0.1,0.02,0.21,0.03,0.34,0.03c0.11,0,0.21-0.01,0.31-0.02
			s0.19-0.04,0.27-0.08s0.14-0.09,0.19-0.16s0.07-0.16,0.07-0.27c0-0.02,0-0.05,0-0.07s0-0.05-0.01-0.07H52.87z"/>
	</g>
	<g>
		<path d="M26.59,45.38c-0.12,0-0.22,0.02-0.3,0.06c-0.08,0.04-0.15,0.1-0.2,0.18s-0.09,0.17-0.11,0.27s-0.03,0.22-0.03,0.35
			c0,0.3,0.05,0.51,0.14,0.65c0.09,0.14,0.23,0.21,0.41,0.21c0.03,0,0.06,0,0.1,0c0.03,0,0.07-0.01,0.1-0.01v-0.9h0.49v1.24
			c-0.06,0.02-0.15,0.04-0.27,0.07c-0.12,0.03-0.27,0.04-0.45,0.04c-0.16,0-0.29-0.03-0.42-0.08c-0.12-0.05-0.23-0.14-0.32-0.24
			c-0.09-0.11-0.16-0.24-0.2-0.4s-0.07-0.35-0.07-0.56c0-0.21,0.03-0.4,0.08-0.56c0.06-0.16,0.13-0.3,0.23-0.41s0.21-0.19,0.34-0.25
			s0.27-0.08,0.42-0.08c0.1,0,0.18,0.01,0.26,0.02s0.14,0.03,0.2,0.05c0.06,0.02,0.1,0.04,0.14,0.06s0.06,0.04,0.08,0.05l-0.13,0.39
			c-0.06-0.04-0.13-0.07-0.22-0.1S26.68,45.38,26.59,45.38z"/>
		<path d="M28.77,47.48c-0.11-0.27-0.23-0.55-0.37-0.82s-0.27-0.55-0.43-0.82v1.64h-0.44V45h0.4c0.07,0.12,0.15,0.25,0.22,0.38
			c0.07,0.14,0.15,0.27,0.22,0.41c0.07,0.14,0.14,0.27,0.2,0.4c0.06,0.13,0.11,0.24,0.15,0.34V45h0.44v2.48H28.77z"/>
		<path d="M31.24,46.24c0,0.23-0.03,0.42-0.09,0.59c-0.06,0.16-0.14,0.29-0.24,0.39c-0.1,0.1-0.22,0.18-0.36,0.22
			c-0.14,0.05-0.29,0.07-0.46,0.07c-0.09,0-0.17,0-0.26-0.01c-0.08-0.01-0.17-0.03-0.27-0.05v-2.42c0.11-0.02,0.22-0.04,0.32-0.05
			c0.1-0.01,0.19-0.01,0.28-0.01c0.16,0,0.31,0.02,0.45,0.07s0.25,0.12,0.34,0.23c0.09,0.1,0.17,0.23,0.22,0.39
			C31.21,45.82,31.24,46.02,31.24,46.24z M30.05,47.08c0.01,0,0.03,0,0.04,0c0.02,0,0.03,0,0.04,0c0.11,0,0.21-0.02,0.28-0.06
			c0.08-0.04,0.14-0.1,0.18-0.18c0.05-0.07,0.08-0.16,0.1-0.27c0.02-0.1,0.03-0.22,0.03-0.34c0-0.11-0.01-0.21-0.02-0.31
			s-0.04-0.19-0.08-0.27s-0.09-0.14-0.16-0.19c-0.07-0.05-0.16-0.07-0.27-0.07c-0.02,0-0.05,0-0.07,0c-0.03,0-0.05,0-0.07,0.01
			V47.08z"/>
	</g>
	<g>
		<path d="M33.35,47.48c-0.06-0.18-0.13-0.39-0.2-0.62c-0.07-0.23-0.14-0.46-0.2-0.69c-0.06-0.23-0.12-0.45-0.17-0.65
			s-0.09-0.37-0.11-0.5h0.52c0.02,0.13,0.04,0.28,0.07,0.45c0.03,0.17,0.07,0.34,0.11,0.52c0.04,0.18,0.08,0.36,0.12,0.53
			s0.09,0.33,0.13,0.47c0.04-0.14,0.09-0.29,0.13-0.47c0.04-0.17,0.08-0.35,0.12-0.53c0.04-0.18,0.07-0.35,0.1-0.53
			c0.03-0.17,0.06-0.32,0.08-0.45h0.52c-0.03,0.16-0.07,0.34-0.12,0.54s-0.1,0.4-0.16,0.62c-0.06,0.22-0.13,0.44-0.2,0.66
			c-0.07,0.22-0.15,0.44-0.22,0.65H33.35z"/>
		<path d="M35.79,47.53c-0.35,0-0.62-0.11-0.8-0.34c-0.18-0.22-0.28-0.54-0.28-0.96c0-0.21,0.03-0.39,0.08-0.55
			c0.06-0.16,0.13-0.29,0.23-0.41c0.1-0.11,0.22-0.2,0.36-0.25c0.14-0.06,0.29-0.09,0.45-0.09c0.09,0,0.17,0.01,0.24,0.02
			c0.07,0.01,0.13,0.03,0.19,0.05c0.05,0.02,0.1,0.04,0.13,0.06s0.06,0.04,0.08,0.05l-0.13,0.39c-0.06-0.04-0.14-0.07-0.22-0.1
			c-0.09-0.03-0.19-0.04-0.3-0.04c-0.08,0-0.15,0.01-0.23,0.04s-0.14,0.07-0.2,0.14c-0.06,0.07-0.1,0.15-0.14,0.26
			s-0.05,0.25-0.05,0.41c0,0.28,0.05,0.5,0.15,0.65c0.1,0.15,0.26,0.23,0.48,0.23c0.13,0,0.23-0.01,0.32-0.04s0.15-0.06,0.2-0.09
			l0.12,0.39c-0.07,0.04-0.16,0.08-0.28,0.12C36.09,47.51,35.95,47.53,35.79,47.53z"/>
		<path d="M37.79,47.53c-0.35,0-0.62-0.11-0.8-0.34c-0.18-0.22-0.28-0.54-0.28-0.96c0-0.21,0.03-0.39,0.08-0.55
			c0.06-0.16,0.13-0.29,0.23-0.41c0.1-0.11,0.22-0.2,0.36-0.25c0.14-0.06,0.29-0.09,0.45-0.09c0.09,0,0.17,0.01,0.24,0.02
			s0.13,0.03,0.19,0.05c0.05,0.02,0.1,0.04,0.13,0.06c0.04,0.02,0.06,0.04,0.08,0.05l-0.13,0.39c-0.06-0.04-0.13-0.07-0.22-0.1
			s-0.19-0.04-0.3-0.04c-0.08,0-0.15,0.01-0.23,0.04c-0.07,0.03-0.14,0.07-0.2,0.14s-0.1,0.15-0.14,0.26
			c-0.04,0.11-0.05,0.25-0.05,0.41c0,0.28,0.05,0.5,0.15,0.65c0.1,0.15,0.26,0.23,0.48,0.23c0.13,0,0.23-0.01,0.32-0.04
			s0.15-0.06,0.2-0.09l0.12,0.39c-0.07,0.04-0.16,0.08-0.28,0.12C38.08,47.51,37.95,47.53,37.79,47.53z"/>
	</g>
	<g>
		<path d="M19.01,47.12c0.08,0,0.15-0.01,0.21-0.03c0.05-0.02,0.1-0.04,0.13-0.07c0.03-0.03,0.05-0.07,0.07-0.1
			c0.01-0.04,0.02-0.08,0.02-0.12c0-0.05-0.01-0.1-0.04-0.14s-0.07-0.08-0.11-0.11c-0.04-0.03-0.1-0.06-0.15-0.08
			c-0.06-0.03-0.11-0.05-0.17-0.07c-0.08-0.03-0.15-0.06-0.23-0.09c-0.08-0.04-0.15-0.08-0.22-0.13c-0.07-0.05-0.12-0.12-0.16-0.2
			c-0.04-0.08-0.06-0.18-0.06-0.29c0-0.23,0.08-0.41,0.23-0.54s0.36-0.2,0.62-0.2c0.15,0,0.28,0.02,0.4,0.05
			c0.11,0.04,0.21,0.07,0.29,0.12l-0.14,0.38c-0.07-0.04-0.14-0.07-0.22-0.1c-0.08-0.03-0.17-0.04-0.28-0.04
			c-0.26,0-0.39,0.09-0.39,0.28c0,0.05,0.01,0.09,0.04,0.13s0.06,0.07,0.1,0.1c0.04,0.03,0.09,0.05,0.14,0.07s0.1,0.04,0.15,0.06
			c0.08,0.03,0.16,0.06,0.24,0.1s0.16,0.08,0.23,0.14c0.07,0.06,0.13,0.13,0.17,0.22c0.05,0.09,0.07,0.2,0.07,0.34
			c0,0.23-0.08,0.41-0.23,0.54c-0.15,0.13-0.38,0.19-0.69,0.19c-0.21,0-0.37-0.02-0.49-0.07c-0.12-0.04-0.21-0.08-0.28-0.12
			l0.14-0.4c0.07,0.04,0.16,0.08,0.26,0.12C18.75,47.1,18.87,47.12,19.01,47.12z"/>
		<path d="M20.3,47.48v-0.41h0.54v-1.66H20.3V45h1.57v0.41h-0.54v1.66h0.54v0.41H20.3z"/>
		<path d="M23.33,45.38c-0.12,0-0.22,0.02-0.3,0.06s-0.15,0.1-0.2,0.18c-0.05,0.08-0.09,0.17-0.11,0.27
			c-0.02,0.11-0.03,0.22-0.03,0.35c0,0.3,0.05,0.51,0.14,0.65c0.09,0.14,0.23,0.21,0.41,0.21c0.03,0,0.06,0,0.1,0
			c0.04,0,0.07-0.01,0.1-0.01v-0.9h0.49v1.24c-0.06,0.02-0.15,0.05-0.27,0.07s-0.27,0.04-0.45,0.04c-0.15,0-0.29-0.03-0.42-0.08
			s-0.23-0.14-0.32-0.24c-0.09-0.11-0.16-0.24-0.2-0.4c-0.05-0.16-0.07-0.35-0.07-0.56c0-0.21,0.03-0.4,0.08-0.56
			s0.13-0.3,0.23-0.41c0.1-0.11,0.21-0.19,0.34-0.25c0.13-0.05,0.27-0.08,0.42-0.08c0.1,0,0.18,0.01,0.26,0.02
			c0.08,0.01,0.14,0.03,0.2,0.05c0.06,0.02,0.1,0.04,0.14,0.06c0.04,0.02,0.06,0.04,0.08,0.05l-0.13,0.39
			c-0.06-0.04-0.13-0.07-0.22-0.1C23.51,45.39,23.42,45.38,23.33,45.38z"/>
	</g>
	<g>
		<path d="M43.94,82.19c-0.18,0.06-0.39,0.13-0.62,0.21c-0.23,0.07-0.46,0.14-0.69,0.2c-0.23,0.06-0.45,0.12-0.65,0.17
			c-0.21,0.05-0.37,0.09-0.5,0.11v-0.52c0.13-0.02,0.28-0.04,0.45-0.07c0.17-0.03,0.34-0.07,0.52-0.11
			c0.18-0.04,0.36-0.08,0.53-0.12c0.17-0.04,0.33-0.09,0.47-0.13c-0.14-0.04-0.29-0.08-0.47-0.13c-0.17-0.04-0.35-0.08-0.53-0.12
			c-0.18-0.04-0.36-0.07-0.53-0.1c-0.17-0.03-0.32-0.06-0.45-0.08v-0.52c0.16,0.03,0.34,0.07,0.54,0.12c0.2,0.05,0.41,0.1,0.62,0.16
			c0.22,0.06,0.44,0.13,0.66,0.2c0.23,0.07,0.44,0.15,0.65,0.22V82.19z"/>
		<path d="M43.99,79.75c0,0.35-0.11,0.62-0.34,0.8c-0.22,0.18-0.54,0.28-0.96,0.28c-0.21,0-0.39-0.03-0.55-0.08
			c-0.16-0.06-0.29-0.13-0.41-0.23c-0.11-0.1-0.19-0.22-0.25-0.36c-0.06-0.14-0.09-0.29-0.09-0.45c0-0.09,0.01-0.17,0.02-0.24
			c0.01-0.07,0.03-0.13,0.05-0.19s0.04-0.1,0.06-0.13c0.02-0.04,0.04-0.06,0.05-0.08l0.39,0.13c-0.04,0.06-0.07,0.14-0.1,0.22
			c-0.03,0.09-0.04,0.19-0.04,0.3c0,0.08,0.01,0.15,0.04,0.23c0.03,0.07,0.08,0.14,0.14,0.2c0.07,0.06,0.15,0.1,0.26,0.14
			c0.11,0.04,0.25,0.05,0.41,0.05c0.28,0,0.5-0.05,0.65-0.15c0.15-0.1,0.23-0.26,0.23-0.48c0-0.13-0.01-0.23-0.04-0.32
			s-0.06-0.15-0.09-0.2l0.39-0.12c0.04,0.07,0.08,0.16,0.12,0.28C43.97,79.46,43.99,79.6,43.99,79.75z"/>
		<path d="M43.99,77.75c0,0.35-0.11,0.62-0.34,0.8s-0.54,0.28-0.96,0.28c-0.21,0-0.39-0.03-0.55-0.08
			c-0.16-0.06-0.29-0.13-0.41-0.23c-0.11-0.1-0.19-0.22-0.25-0.36c-0.06-0.14-0.09-0.29-0.09-0.45c0-0.09,0.01-0.17,0.02-0.24
			s0.03-0.13,0.05-0.19c0.02-0.05,0.04-0.1,0.06-0.13c0.02-0.04,0.04-0.06,0.05-0.08l0.39,0.13c-0.04,0.06-0.07,0.13-0.1,0.22
			c-0.03,0.09-0.04,0.19-0.04,0.3c0,0.08,0.01,0.15,0.04,0.23c0.03,0.07,0.08,0.14,0.14,0.2c0.07,0.06,0.15,0.1,0.26,0.14
			s0.25,0.05,0.41,0.05c0.28,0,0.5-0.05,0.65-0.15c0.15-0.1,0.23-0.26,0.23-0.48c0-0.13-0.01-0.23-0.04-0.32s-0.06-0.15-0.09-0.2
			l0.39-0.12c0.04,0.07,0.08,0.16,0.12,0.28S43.99,77.6,43.99,77.75z"/>
	</g>
	<g>
		<path d="M16.52,15.94c0.08,0,0.15-0.01,0.21-0.03c0.05-0.02,0.1-0.04,0.13-0.07s0.05-0.07,0.07-0.1c0.01-0.04,0.02-0.08,0.02-0.12
			c0-0.05-0.01-0.1-0.04-0.14s-0.07-0.08-0.11-0.11c-0.04-0.03-0.1-0.06-0.15-0.08c-0.06-0.03-0.11-0.05-0.17-0.07
			c-0.08-0.03-0.15-0.06-0.23-0.09s-0.15-0.08-0.22-0.13s-0.12-0.12-0.16-0.2s-0.06-0.18-0.06-0.29c0-0.23,0.08-0.41,0.23-0.54
			c0.15-0.13,0.36-0.2,0.62-0.2c0.15,0,0.28,0.02,0.4,0.05s0.21,0.07,0.29,0.12l-0.14,0.38c-0.07-0.04-0.14-0.07-0.22-0.1
			c-0.08-0.03-0.17-0.04-0.28-0.04c-0.26,0-0.39,0.09-0.39,0.28c0,0.05,0.01,0.09,0.04,0.13s0.06,0.07,0.1,0.1
			c0.04,0.03,0.09,0.05,0.14,0.07c0.05,0.02,0.1,0.04,0.15,0.06c0.08,0.03,0.16,0.06,0.24,0.1s0.16,0.08,0.23,0.14
			s0.13,0.13,0.17,0.22c0.05,0.09,0.07,0.2,0.07,0.34c0,0.23-0.08,0.41-0.23,0.54c-0.15,0.13-0.38,0.19-0.69,0.19
			c-0.21,0-0.37-0.02-0.49-0.07c-0.12-0.04-0.21-0.08-0.28-0.12l0.14-0.4c0.07,0.04,0.16,0.08,0.26,0.12
			C16.25,15.92,16.37,15.94,16.52,15.94z"/>
		<path d="M17.63,16.3v-0.41h0.54v-1.66h-0.54v-0.41h1.57v0.41h-0.54v1.66h0.54v0.41H17.63z"/>
		<path d="M20.48,14.2c-0.12,0-0.22,0.02-0.3,0.06c-0.08,0.04-0.15,0.1-0.2,0.18s-0.09,0.17-0.11,0.27s-0.03,0.22-0.03,0.35
			c0,0.3,0.05,0.51,0.14,0.65c0.09,0.14,0.23,0.21,0.41,0.21c0.03,0,0.06,0,0.1,0c0.03,0,0.07-0.01,0.1-0.01V15h0.49v1.24
			c-0.06,0.02-0.15,0.05-0.27,0.07c-0.12,0.03-0.27,0.04-0.45,0.04c-0.16,0-0.29-0.03-0.42-0.08c-0.12-0.05-0.23-0.14-0.32-0.24
			s-0.16-0.24-0.2-0.4c-0.05-0.16-0.07-0.35-0.07-0.56c0-0.21,0.03-0.4,0.08-0.56c0.06-0.16,0.13-0.3,0.23-0.41s0.21-0.19,0.34-0.25
			s0.27-0.08,0.42-0.08c0.1,0,0.18,0.01,0.26,0.02s0.14,0.03,0.2,0.05c0.06,0.02,0.1,0.04,0.14,0.06c0.04,0.02,0.06,0.04,0.08,0.05
			l-0.13,0.39c-0.06-0.04-0.13-0.07-0.22-0.1C20.66,14.21,20.57,14.2,20.48,14.2z"/>
		<path d="M24.29,16.3c-0.11-0.27-0.23-0.55-0.37-0.82s-0.27-0.55-0.43-0.82v1.64h-0.44v-2.48h0.4c0.07,0.12,0.15,0.24,0.22,0.38
			s0.15,0.27,0.22,0.41c0.07,0.14,0.14,0.27,0.2,0.4c0.06,0.13,0.11,0.24,0.15,0.34v-1.52h0.44v2.48H24.29z"/>
		<path d="M25.87,16.35c-0.35,0-0.62-0.11-0.8-0.34c-0.18-0.22-0.28-0.54-0.28-0.96c0-0.21,0.03-0.39,0.08-0.55
			c0.06-0.16,0.13-0.29,0.23-0.41c0.1-0.11,0.22-0.19,0.36-0.25s0.29-0.09,0.45-0.09c0.09,0,0.17,0.01,0.24,0.02
			c0.07,0.01,0.13,0.03,0.19,0.05c0.05,0.02,0.1,0.04,0.13,0.06c0.04,0.02,0.06,0.04,0.08,0.05l-0.13,0.39
			c-0.06-0.04-0.14-0.07-0.22-0.1c-0.09-0.03-0.19-0.04-0.3-0.04c-0.08,0-0.15,0.01-0.23,0.04c-0.07,0.03-0.14,0.07-0.2,0.14
			c-0.06,0.07-0.1,0.15-0.14,0.26s-0.05,0.25-0.05,0.41c0,0.28,0.05,0.5,0.15,0.65c0.1,0.15,0.26,0.23,0.48,0.23
			c0.13,0,0.23-0.01,0.32-0.04s0.15-0.06,0.2-0.09l0.12,0.39c-0.07,0.04-0.16,0.08-0.28,0.12C26.16,16.33,26.03,16.35,25.87,16.35z"
			/>
		<path d="M29.07,16.3c-0.06-0.18-0.13-0.39-0.2-0.62c-0.07-0.23-0.14-0.46-0.2-0.69c-0.06-0.23-0.12-0.45-0.17-0.65
			c-0.05-0.21-0.09-0.37-0.11-0.5h0.52c0.02,0.13,0.04,0.28,0.07,0.45s0.07,0.34,0.11,0.52c0.04,0.18,0.08,0.36,0.12,0.53
			c0.04,0.17,0.09,0.33,0.13,0.47c0.04-0.14,0.09-0.29,0.13-0.47c0.04-0.17,0.08-0.35,0.12-0.53c0.04-0.18,0.07-0.35,0.1-0.53
			c0.03-0.17,0.06-0.32,0.08-0.45h0.52c-0.03,0.16-0.07,0.34-0.12,0.54s-0.1,0.4-0.16,0.62c-0.06,0.22-0.12,0.44-0.2,0.66
			c-0.07,0.23-0.15,0.44-0.22,0.65H29.07z"/>
		<path d="M31.33,16.35c-0.35,0-0.62-0.11-0.8-0.34c-0.18-0.22-0.28-0.54-0.28-0.96c0-0.21,0.03-0.39,0.08-0.55
			c0.06-0.16,0.13-0.29,0.23-0.41c0.1-0.11,0.22-0.19,0.36-0.25c0.14-0.06,0.29-0.09,0.45-0.09c0.09,0,0.17,0.01,0.24,0.02
			s0.13,0.03,0.19,0.05c0.05,0.02,0.1,0.04,0.13,0.06c0.04,0.02,0.06,0.04,0.08,0.05l-0.13,0.39c-0.06-0.04-0.14-0.07-0.22-0.1
			c-0.09-0.03-0.19-0.04-0.3-0.04c-0.08,0-0.15,0.01-0.23,0.04c-0.07,0.03-0.14,0.07-0.2,0.14s-0.1,0.15-0.14,0.26
			s-0.05,0.25-0.05,0.41c0,0.28,0.05,0.5,0.15,0.65c0.1,0.15,0.26,0.23,0.48,0.23c0.13,0,0.23-0.01,0.32-0.04s0.15-0.06,0.2-0.09
			l0.12,0.39c-0.07,0.04-0.16,0.08-0.28,0.12C31.62,16.33,31.49,16.35,31.33,16.35z"/>
		<path d="M33.15,16.35c-0.35,0-0.62-0.11-0.8-0.34c-0.18-0.22-0.28-0.54-0.28-0.96c0-0.21,0.03-0.39,0.08-0.55
			c0.06-0.16,0.13-0.29,0.23-0.41c0.1-0.11,0.22-0.19,0.36-0.25c0.14-0.06,0.29-0.09,0.45-0.09c0.09,0,0.17,0.01,0.24,0.02
			s0.13,0.03,0.19,0.05c0.05,0.02,0.1,0.04,0.13,0.06c0.04,0.02,0.06,0.04,0.08,0.05l-0.13,0.39c-0.06-0.04-0.14-0.07-0.22-0.1
			c-0.09-0.03-0.19-0.04-0.3-0.04c-0.08,0-0.15,0.01-0.23,0.04c-0.07,0.03-0.14,0.07-0.2,0.14s-0.1,0.15-0.14,0.26
			s-0.05,0.25-0.05,0.41c0,0.28,0.05,0.5,0.15,0.65c0.1,0.15,0.26,0.23,0.48,0.23c0.13,0,0.23-0.01,0.32-0.04s0.15-0.06,0.2-0.09
			l0.12,0.39c-0.07,0.04-0.16,0.08-0.28,0.12C33.44,16.33,33.31,16.35,33.15,16.35z"/>
		<path d="M36.86,14.2c-0.12,0-0.22,0.02-0.3,0.06c-0.08,0.04-0.15,0.1-0.2,0.18s-0.09,0.17-0.11,0.27
			c-0.02,0.11-0.03,0.22-0.03,0.35c0,0.3,0.05,0.51,0.14,0.65c0.09,0.14,0.23,0.21,0.41,0.21c0.03,0,0.06,0,0.1,0
			c0.03,0,0.07-0.01,0.1-0.01V15h0.49v1.24c-0.06,0.02-0.15,0.05-0.27,0.07c-0.12,0.03-0.27,0.04-0.45,0.04
			c-0.16,0-0.29-0.03-0.42-0.08c-0.12-0.05-0.23-0.14-0.32-0.24s-0.16-0.24-0.2-0.4c-0.05-0.16-0.07-0.35-0.07-0.56
			c0-0.21,0.03-0.4,0.08-0.56c0.06-0.16,0.13-0.3,0.23-0.41s0.21-0.19,0.34-0.25s0.27-0.08,0.42-0.08c0.1,0,0.18,0.01,0.26,0.02
			c0.08,0.01,0.14,0.03,0.2,0.05c0.06,0.02,0.1,0.04,0.14,0.06c0.04,0.02,0.06,0.04,0.08,0.05l-0.13,0.39
			c-0.06-0.04-0.13-0.07-0.22-0.1C37.04,14.21,36.95,14.2,36.86,14.2z"/>
		<path d="M38.85,16.3c-0.11-0.27-0.23-0.55-0.37-0.82s-0.27-0.55-0.43-0.82v1.64h-0.44v-2.48h0.4c0.07,0.12,0.15,0.24,0.22,0.38
			c0.08,0.14,0.15,0.27,0.22,0.41c0.07,0.14,0.14,0.27,0.2,0.4c0.06,0.13,0.11,0.24,0.15,0.34v-1.52h0.44v2.48H38.85z"/>
		<path d="M41.14,15.06c0,0.23-0.03,0.42-0.09,0.59c-0.06,0.16-0.14,0.29-0.24,0.39c-0.1,0.1-0.22,0.18-0.36,0.22
			c-0.14,0.05-0.29,0.07-0.46,0.07c-0.09,0-0.17,0-0.26-0.01s-0.17-0.02-0.27-0.05v-2.42c0.11-0.02,0.22-0.04,0.32-0.05
			c0.1-0.01,0.19-0.01,0.28-0.01c0.16,0,0.31,0.02,0.45,0.07c0.13,0.05,0.25,0.12,0.34,0.23c0.09,0.1,0.17,0.23,0.22,0.39
			C41.11,14.64,41.14,14.84,41.14,15.06z M39.96,15.9c0.01,0,0.03,0,0.04,0s0.03,0,0.04,0c0.11,0,0.21-0.02,0.28-0.06
			s0.14-0.1,0.18-0.18s0.08-0.16,0.1-0.27c0.02-0.1,0.03-0.22,0.03-0.34c0-0.11-0.01-0.21-0.02-0.31c-0.02-0.1-0.04-0.19-0.08-0.27
			s-0.09-0.14-0.16-0.19c-0.07-0.05-0.16-0.07-0.27-0.07c-0.02,0-0.04,0-0.07,0c-0.03,0-0.05,0-0.07,0.01V15.9z"/>
	</g>
	<g>
		<path d="M45.67,21.2c-0.06-0.18-0.13-0.39-0.2-0.62c-0.07-0.23-0.14-0.46-0.2-0.69c-0.06-0.23-0.12-0.45-0.17-0.65
			c-0.05-0.21-0.09-0.37-0.11-0.5h0.52c0.02,0.13,0.04,0.28,0.07,0.45s0.07,0.34,0.11,0.52c0.04,0.18,0.08,0.36,0.12,0.53
			c0.04,0.17,0.09,0.33,0.13,0.47c0.04-0.14,0.08-0.29,0.13-0.47c0.04-0.17,0.08-0.35,0.12-0.53c0.04-0.18,0.07-0.35,0.1-0.53
			c0.03-0.17,0.06-0.32,0.08-0.45h0.52c-0.03,0.16-0.07,0.34-0.12,0.54c-0.05,0.2-0.1,0.4-0.16,0.62c-0.06,0.22-0.13,0.44-0.2,0.66
			c-0.07,0.23-0.15,0.44-0.22,0.65H45.67z"/>
		<path d="M48.11,21.25c-0.35,0-0.62-0.11-0.8-0.34c-0.18-0.22-0.28-0.54-0.28-0.96c0-0.21,0.03-0.39,0.08-0.55
			c0.06-0.16,0.13-0.29,0.23-0.41s0.22-0.19,0.36-0.25c0.14-0.06,0.29-0.09,0.45-0.09c0.09,0,0.17,0.01,0.24,0.02
			s0.13,0.03,0.19,0.05c0.05,0.02,0.1,0.04,0.13,0.06c0.04,0.02,0.06,0.04,0.08,0.05l-0.13,0.39c-0.06-0.04-0.13-0.07-0.22-0.1
			c-0.09-0.03-0.19-0.04-0.3-0.04c-0.08,0-0.15,0.01-0.23,0.04c-0.07,0.03-0.14,0.07-0.2,0.14s-0.1,0.15-0.14,0.26
			c-0.04,0.11-0.05,0.25-0.05,0.41c0,0.28,0.05,0.5,0.15,0.65c0.1,0.15,0.26,0.23,0.48,0.23c0.13,0,0.23-0.01,0.32-0.04
			s0.15-0.06,0.2-0.09l0.12,0.39c-0.07,0.04-0.16,0.08-0.28,0.12C48.4,21.23,48.26,21.25,48.11,21.25z"/>
		<path d="M50.11,21.25c-0.35,0-0.62-0.11-0.8-0.34c-0.18-0.22-0.28-0.54-0.28-0.96c0-0.21,0.03-0.39,0.08-0.55
			c0.06-0.16,0.13-0.29,0.23-0.41c0.1-0.11,0.22-0.19,0.36-0.25s0.29-0.09,0.45-0.09c0.09,0,0.17,0.01,0.24,0.02
			c0.07,0.01,0.13,0.03,0.19,0.05c0.05,0.02,0.1,0.04,0.13,0.06c0.04,0.02,0.06,0.04,0.08,0.05l-0.13,0.39
			c-0.06-0.04-0.14-0.07-0.22-0.1c-0.09-0.03-0.19-0.04-0.3-0.04c-0.08,0-0.15,0.01-0.23,0.04c-0.07,0.03-0.14,0.07-0.2,0.14
			c-0.06,0.07-0.1,0.15-0.14,0.26s-0.05,0.25-0.05,0.41c0,0.28,0.05,0.5,0.15,0.65c0.1,0.15,0.26,0.23,0.48,0.23
			c0.13,0,0.23-0.01,0.32-0.04s0.15-0.06,0.2-0.09l0.12,0.39c-0.07,0.04-0.16,0.08-0.28,0.12C50.4,21.23,50.26,21.25,50.11,21.25z"
			/>
	</g>
	<g>
		<path d="M46.17,24.76c-0.12,0-0.22,0.02-0.3,0.06c-0.08,0.04-0.15,0.1-0.2,0.18s-0.09,0.17-0.11,0.27s-0.03,0.22-0.03,0.35
			c0,0.3,0.05,0.51,0.14,0.65c0.09,0.14,0.23,0.21,0.41,0.21c0.03,0,0.06,0,0.1,0c0.03,0,0.07-0.01,0.1-0.01v-0.9h0.49v1.24
			c-0.06,0.02-0.15,0.05-0.27,0.07c-0.12,0.03-0.27,0.04-0.45,0.04c-0.16,0-0.29-0.03-0.42-0.08c-0.12-0.05-0.23-0.14-0.32-0.24
			s-0.16-0.24-0.2-0.4c-0.05-0.16-0.07-0.35-0.07-0.56c0-0.21,0.03-0.4,0.08-0.56c0.06-0.16,0.13-0.3,0.23-0.41s0.21-0.19,0.34-0.25
			s0.27-0.08,0.42-0.08c0.1,0,0.18,0.01,0.26,0.02s0.14,0.03,0.2,0.05c0.06,0.02,0.1,0.04,0.14,0.06c0.04,0.02,0.06,0.04,0.08,0.05
			l-0.13,0.39c-0.06-0.04-0.13-0.07-0.22-0.1C46.35,24.78,46.26,24.76,46.17,24.76z"/>
		<path d="M48.34,26.86c-0.11-0.27-0.23-0.55-0.37-0.82s-0.27-0.55-0.43-0.82v1.64h-0.44v-2.48h0.4c0.07,0.12,0.15,0.24,0.22,0.38
			s0.15,0.27,0.22,0.41c0.07,0.14,0.14,0.27,0.2,0.4c0.06,0.13,0.11,0.24,0.15,0.34v-1.52h0.44v2.48H48.34z"/>
		<path d="M50.81,25.63c0,0.23-0.03,0.42-0.09,0.59c-0.06,0.16-0.14,0.29-0.24,0.39c-0.1,0.1-0.22,0.18-0.36,0.22
			c-0.14,0.05-0.29,0.07-0.46,0.07c-0.09,0-0.17,0-0.26-0.01s-0.17-0.02-0.27-0.05v-2.42c0.11-0.02,0.22-0.04,0.32-0.05
			c0.1-0.01,0.19-0.01,0.28-0.01c0.16,0,0.31,0.02,0.45,0.07c0.13,0.05,0.25,0.12,0.34,0.23c0.09,0.1,0.17,0.23,0.22,0.39
			C50.79,25.21,50.81,25.4,50.81,25.63z M49.63,26.46c0.01,0,0.03,0,0.04,0c0.02,0,0.03,0,0.04,0c0.11,0,0.21-0.02,0.28-0.06
			s0.14-0.1,0.18-0.18c0.05-0.07,0.08-0.16,0.1-0.27c0.02-0.1,0.03-0.22,0.03-0.34c0-0.11-0.01-0.21-0.02-0.31
			c-0.02-0.1-0.04-0.19-0.08-0.27s-0.09-0.14-0.16-0.19c-0.07-0.05-0.16-0.07-0.27-0.07c-0.02,0-0.05,0-0.07,0s-0.05,0-0.07,0.01
			V26.46z"/>
	</g>
	<g>
		<g>
			<path d="M30.09,25.44c-0.01,0.21-0.05,0.42-0.11,0.62c-0.06,0.2-0.15,0.37-0.27,0.52c-0.12,0.15-0.27,0.26-0.45,0.35
				c-0.18,0.08-0.4,0.12-0.65,0.11c-0.08,0-0.18-0.01-0.29-0.03c-0.11-0.02-0.21-0.04-0.3-0.06l0.71-2.38
				c0.12-0.02,0.22-0.03,0.3-0.03c0.08,0,0.17,0,0.25,0c0.27,0.01,0.47,0.1,0.62,0.26C30.04,24.94,30.11,25.16,30.09,25.44z
				 M28.62,26.6c0.01,0,0.03,0,0.04,0.01c0.02,0,0.03,0,0.04,0c0.15,0.01,0.28-0.02,0.39-0.1c0.11-0.07,0.2-0.17,0.27-0.29
				c0.07-0.12,0.12-0.25,0.16-0.39s0.06-0.28,0.07-0.41c0-0.06,0-0.12-0.01-0.18s-0.02-0.11-0.05-0.15
				c-0.02-0.04-0.06-0.08-0.11-0.1c-0.05-0.02-0.11-0.04-0.18-0.04c-0.05,0-0.1,0-0.14,0L28.62,26.6z"/>
			<path d="M31.49,24.61c0.22,0.01,0.38,0.09,0.5,0.24c0.11,0.15,0.17,0.33,0.15,0.57c-0.01,0.1-0.02,0.22-0.04,0.35
				c-0.02,0.13-0.06,0.26-0.1,0.39c-0.04,0.13-0.1,0.26-0.17,0.38c-0.07,0.12-0.15,0.24-0.24,0.33c-0.09,0.1-0.2,0.17-0.32,0.22
				c-0.12,0.05-0.26,0.08-0.41,0.07c-0.22-0.01-0.38-0.09-0.5-0.24c-0.12-0.15-0.17-0.33-0.16-0.57c0-0.1,0.02-0.22,0.04-0.35
				c0.02-0.13,0.06-0.26,0.1-0.39s0.1-0.26,0.17-0.39c0.07-0.12,0.15-0.23,0.24-0.33c0.09-0.1,0.2-0.17,0.32-0.22
				C31.2,24.63,31.34,24.61,31.49,24.61z M30.93,26.74c0.11,0.01,0.21-0.04,0.29-0.12c0.08-0.09,0.16-0.2,0.22-0.33
				c0.06-0.13,0.11-0.28,0.14-0.43c0.03-0.15,0.06-0.29,0.06-0.42c0.01-0.1-0.01-0.19-0.04-0.27s-0.1-0.12-0.2-0.12
				c-0.11-0.01-0.21,0.04-0.29,0.12s-0.16,0.2-0.22,0.33c-0.06,0.13-0.11,0.28-0.14,0.44c-0.03,0.16-0.06,0.29-0.06,0.42
				c-0.01,0.1,0.01,0.19,0.04,0.27S30.83,26.74,30.93,26.74z"/>
			<path d="M33.18,27.24c0-0.06-0.01-0.13-0.01-0.22c0-0.09-0.01-0.19-0.01-0.3s0-0.21-0.01-0.32c0-0.11,0-0.21,0-0.31L32.5,27.2
				l-0.46-0.02c0.07-0.4,0.16-0.8,0.26-1.21s0.21-0.82,0.33-1.24l0.45,0.02l-0.59,1.92l0.6-1.04l0.35,0.02c0,0.18,0,0.35,0,0.54
				c0,0.18,0.01,0.35,0.01,0.51L34,24.8l0.45,0.02c-0.07,0.2-0.13,0.41-0.21,0.62c-0.07,0.22-0.14,0.43-0.21,0.64
				c-0.07,0.21-0.15,0.42-0.22,0.62c-0.07,0.2-0.14,0.38-0.21,0.55L33.18,27.24z"/>
			<path d="M35.23,27.34c-0.03-0.28-0.07-0.56-0.12-0.85c-0.05-0.29-0.11-0.61-0.17-0.94l-0.52,1.75l-0.44-0.02l0.72-2.44l0.42,0.02
				c0.03,0.12,0.06,0.25,0.1,0.39s0.07,0.28,0.09,0.42c0.03,0.14,0.05,0.29,0.08,0.42c0.02,0.14,0.04,0.27,0.05,0.38l0.46-1.58
				l0.44,0.02l-0.72,2.44L35.23,27.34z"/>
		</g>
		<g>
			<path d="M31.18,21.28c-0.23,0.01-0.41-0.03-0.52-0.14c-0.12-0.11-0.18-0.26-0.19-0.46c-0.01-0.11,0-0.23,0.03-0.37l0.28-1.54
				l0.49-0.03l-0.28,1.54c-0.01,0.06-0.02,0.12-0.03,0.18s-0.01,0.11-0.01,0.15c0,0.08,0.03,0.14,0.07,0.19
				c0.04,0.04,0.11,0.06,0.21,0.06c0.06,0,0.11-0.02,0.15-0.03c0.04-0.02,0.08-0.05,0.11-0.09c0.03-0.04,0.06-0.1,0.08-0.17
				c0.02-0.07,0.04-0.16,0.06-0.26l0.29-1.58l0.49-0.03l-0.29,1.61c-0.03,0.15-0.06,0.28-0.09,0.4c-0.04,0.12-0.09,0.22-0.16,0.3
				c-0.07,0.08-0.16,0.15-0.26,0.2C31.48,21.24,31.35,21.27,31.18,21.28z"/>
			<path d="M33.47,18.59c0.15-0.01,0.27,0,0.38,0.03c0.11,0.03,0.2,0.07,0.27,0.13c0.07,0.06,0.12,0.13,0.16,0.21
				c0.04,0.08,0.06,0.17,0.06,0.27c0.01,0.17-0.01,0.32-0.07,0.44c-0.06,0.13-0.14,0.23-0.24,0.32c-0.11,0.09-0.24,0.15-0.39,0.2
				s-0.32,0.08-0.51,0.09l-0.1,0.01l-0.16,0.85l-0.49,0.03l0.45-2.47c0.12-0.03,0.24-0.05,0.35-0.07
				C33.29,18.61,33.39,18.6,33.47,18.59z M33.43,19.02c-0.04,0-0.07,0-0.09,0.01c-0.02,0-0.05,0.01-0.09,0.01l-0.15,0.81l0.12-0.01
				c0.22-0.01,0.38-0.06,0.48-0.16c0.11-0.09,0.15-0.21,0.14-0.37c0-0.1-0.04-0.18-0.1-0.23C33.69,19.04,33.59,19.01,33.43,19.02z"
				/>
		</g>
		<g>
			<path d="M21.11,21.14c0.15,0,0.27,0.02,0.38,0.05c0.11,0.03,0.19,0.08,0.26,0.14c0.07,0.06,0.12,0.13,0.15,0.22
				c0.03,0.08,0.05,0.18,0.05,0.27c0,0.17-0.03,0.31-0.09,0.44c-0.06,0.12-0.15,0.23-0.26,0.31c-0.11,0.08-0.25,0.14-0.4,0.18
				c-0.16,0.04-0.33,0.06-0.51,0.06h-0.1l-0.2,0.84h-0.49l0.59-2.44c0.13-0.02,0.24-0.04,0.35-0.05S21.02,21.14,21.11,21.14z
				 M21.04,21.56c-0.04,0-0.07,0-0.09,0c-0.02,0-0.05,0-0.09,0.01l-0.19,0.8h0.12c0.22,0,0.38-0.04,0.49-0.13
				c0.11-0.08,0.17-0.2,0.17-0.36c0-0.1-0.03-0.18-0.08-0.24S21.2,21.56,21.04,21.56z"/>
			<path d="M22.67,23.69c-0.23,0-0.41-0.06-0.52-0.17c-0.11-0.11-0.16-0.27-0.16-0.47c0-0.11,0.02-0.23,0.05-0.37l0.37-1.52h0.49
				l-0.36,1.52c-0.01,0.06-0.03,0.12-0.04,0.17s-0.02,0.1-0.02,0.15c0,0.08,0.02,0.14,0.06,0.19s0.11,0.07,0.2,0.07
				c0.06,0,0.11-0.01,0.15-0.03c0.04-0.02,0.08-0.05,0.11-0.09c0.03-0.04,0.06-0.1,0.09-0.17c0.02-0.07,0.05-0.16,0.07-0.26
				l0.38-1.56h0.49l-0.38,1.6c-0.04,0.15-0.07,0.28-0.12,0.39s-0.1,0.21-0.17,0.29c-0.07,0.08-0.16,0.14-0.27,0.18
				C22.97,23.67,22.83,23.69,22.67,23.69z"/>
			<path d="M25.43,23.64H23.9l0.59-2.48h0.49l-0.5,2.07h1.04L25.43,23.64z"/>
			<path d="M27.43,23.64H25.9l0.59-2.48h0.49l-0.5,2.07h1.04L27.43,23.64z"/>
		</g>
		<path d="M40.06,19.46h-2.64l-0.07-1.24c-0.01-0.25-0.13-0.48-0.31-0.64c-0.19-0.17-0.43-0.24-0.68-0.23l-1.08,0.06
			c-0.06,0-0.11,0.03-0.15,0.07l-0.28,0.31l-13.48,0.8l-0.31-0.28c-0.04-0.04-0.1-0.06-0.16-0.05l-1.08,0.06
			c-0.51,0.03-0.91,0.47-0.88,0.99l0.18,2.98h-2.5v0.77h2.53l-0.21,3.5c-0.03,0.51,0.36,0.96,0.88,0.99l1.08,0.06
			c0.05,0,0.11-0.02,0.16-0.05l0.31-0.28l13.48,0.8l0.28,0.31c0.04,0.04,0.09,0.07,0.15,0.07l1.08,0.06c0.02,0,0.04,0,0.06,0
			c0.49,0,0.91-0.38,0.93-0.88l0.11-1.76h2.56v-0.77H37.5l0.09-1.5c0.04-0.12,0.07-0.25,0.06-0.38l-0.18-3.02h2.59V19.46z
			 M19.86,18.76l0.99-0.06l0.31,0.28c0.04,0.04,0.09,0.05,0.16,0.05l13.66-0.81c0.06,0,0.11-0.03,0.15-0.07l0.28-0.31l0.99-0.06
			c0.15-0.01,0.27,0.04,0.37,0.13c0.1,0.09,0.16,0.21,0.17,0.35l0.3,5.03c0,0.07-0.01,0.15-0.04,0.21c0,0,0,0,0,0.01
			c-0.03,0.08-0.09,0.15-0.16,0.2c-0.01,0.01-0.02,0.02-0.04,0.03c-0.07,0.05-0.15,0.08-0.24,0.09l-0.99,0.06l-0.31-0.28
			c-0.04-0.04-0.1-0.06-0.16-0.05l0,0c0,0,0,0,0,0l-13.66,0.81c-0.06,0-0.11,0.03-0.15,0.07l-0.28,0.31l-0.99,0.06
			c-0.13,0.01-0.26-0.04-0.37-0.13c-0.1-0.09-0.16-0.21-0.17-0.35l-0.08-1.4c0,0,0,0,0,0l-0.22-3.64
			C19.37,19.01,19.58,18.77,19.86,18.76z M36.92,27.63c-0.02,0.28-0.26,0.5-0.53,0.47l-0.99-0.06l-0.28-0.31
			c-0.04-0.04-0.09-0.07-0.15-0.07l-13.66-0.81c-0.06,0-0.11,0.02-0.16,0.05l-0.31,0.28l-0.99-0.06c-0.28-0.02-0.49-0.26-0.47-0.53
			l0.1-1.68c0.03,0.03,0.05,0.06,0.08,0.08c0.09,0.08,0.2,0.14,0.31,0.18c0.02,0.01,0.05,0.01,0.07,0.01
			c0.08,0.02,0.15,0.04,0.23,0.04c0.02,0,0.04,0,0.06,0l1.08-0.06c0.06,0,0.11-0.03,0.15-0.07l0.28-0.31l13.48-0.8l0.31,0.28
			c0.04,0.04,0.09,0.05,0.16,0.05l1.08-0.06c0.13-0.01,0.25-0.04,0.36-0.09L36.92,27.63z"/>
	</g>
	<g>
		<path d="M34.94,83.13h-1.57V82.7h1.57V83.13z M32.67,83.13h-1.57V82.7h1.57V83.13z M30.41,83.13h-1.57V82.7h1.57V83.13z
			 M28.14,83.13h-1.57V82.7h1.57V83.13z M25.87,83.13H24.3V82.7h1.57V83.13z M23.6,83.13h-1.57V82.7h1.57V83.13z"/>
	</g>
	<g>
		<path d="M17.41,74.25h-0.43v-1.57h0.43V74.25z M39.72,74.23h-0.43v-1.57h0.43V74.23z M17.41,71.99h-0.43v-1.57h0.43V71.99z
			 M39.72,71.96h-0.43V70.4h0.43V71.96z M17.41,69.72h-0.43v-1.2h0.8v0.43h-0.37V69.72z M39.72,69.69h-0.43v-0.74h-0.4v-0.43h0.83
			V69.69z M38.19,68.96h-1.57v-0.43h1.57V68.96z M35.92,68.96h-1.57v-0.43h1.57V68.96z M33.65,68.96h-1.57v-0.43h1.57V68.96z
			 M31.38,68.96h-1.57v-0.43h1.57V68.96z M29.12,68.96h-1.57v-0.43h1.57V68.96z M26.85,68.96h-1.57v-0.43h1.57V68.96z M24.58,68.96
			h-1.57v-0.43h1.57V68.96z M22.31,68.96h-1.57v-0.43h1.57V68.96z M20.04,68.96h-1.57v-0.43h1.57V68.96z"/>
	</g>
</g>
<g id="Pads">
</g>
<g id="Bottom" display="none">
</g>
<g id="Top" display="none">
</g>
</svg>
