G04 EAGLE Gerber RS-274X export*
G75*
%MOMM*%
%FSLAX34Y34*%
%LPD*%
%INTop Copper*%
%IPPOS*%
%AMOC8*
5,1,8,0,0,1.08239X$1,22.5*%
G01*
%ADD10R,0.500000X0.500000*%
%ADD11C,1.879600*%
%ADD12C,0.756400*%
%ADD13C,0.254000*%
%ADD14C,0.406400*%

G36*
X175022Y5084D02*
X175022Y5084D01*
X175060Y5083D01*
X178057Y5319D01*
X178062Y5320D01*
X178068Y5320D01*
X178232Y5354D01*
X183933Y7206D01*
X183965Y7222D01*
X183999Y7231D01*
X184145Y7314D01*
X188994Y10837D01*
X189019Y10863D01*
X189050Y10882D01*
X189163Y11006D01*
X192686Y15855D01*
X192702Y15887D01*
X192725Y15914D01*
X192794Y16067D01*
X194646Y21768D01*
X194647Y21773D01*
X194650Y21779D01*
X194681Y21943D01*
X194917Y24940D01*
X194915Y24962D01*
X194919Y25000D01*
X194919Y170055D01*
X194904Y170151D01*
X194894Y170248D01*
X194884Y170272D01*
X194880Y170298D01*
X194834Y170384D01*
X194794Y170473D01*
X194777Y170492D01*
X194764Y170515D01*
X194694Y170582D01*
X194628Y170654D01*
X194605Y170667D01*
X194586Y170685D01*
X194498Y170726D01*
X194412Y170773D01*
X194387Y170777D01*
X194363Y170788D01*
X194266Y170799D01*
X194170Y170816D01*
X194144Y170813D01*
X194119Y170815D01*
X194023Y170795D01*
X193927Y170781D01*
X193904Y170769D01*
X193878Y170763D01*
X193795Y170713D01*
X193708Y170669D01*
X193689Y170650D01*
X193667Y170637D01*
X193604Y170563D01*
X193536Y170494D01*
X193520Y170465D01*
X193507Y170450D01*
X193495Y170419D01*
X193455Y170347D01*
X190964Y164333D01*
X185667Y159036D01*
X178746Y156169D01*
X171254Y156169D01*
X164333Y159036D01*
X159036Y164333D01*
X156169Y171254D01*
X156169Y178746D01*
X159036Y185667D01*
X164333Y190964D01*
X170347Y193455D01*
X170429Y193506D01*
X170515Y193552D01*
X170533Y193571D01*
X170556Y193584D01*
X170618Y193659D01*
X170685Y193730D01*
X170696Y193754D01*
X170712Y193774D01*
X170747Y193865D01*
X170788Y193953D01*
X170791Y193979D01*
X170801Y194003D01*
X170805Y194101D01*
X170815Y194197D01*
X170810Y194223D01*
X170811Y194249D01*
X170784Y194343D01*
X170763Y194438D01*
X170750Y194460D01*
X170743Y194485D01*
X170687Y194565D01*
X170637Y194649D01*
X170617Y194666D01*
X170602Y194687D01*
X170524Y194746D01*
X170450Y194809D01*
X170426Y194819D01*
X170405Y194834D01*
X170312Y194864D01*
X170222Y194901D01*
X170190Y194904D01*
X170171Y194910D01*
X170138Y194910D01*
X170055Y194919D01*
X29945Y194919D01*
X29849Y194904D01*
X29752Y194894D01*
X29728Y194884D01*
X29702Y194880D01*
X29616Y194834D01*
X29527Y194794D01*
X29508Y194777D01*
X29485Y194764D01*
X29418Y194694D01*
X29346Y194628D01*
X29333Y194605D01*
X29315Y194586D01*
X29274Y194498D01*
X29227Y194412D01*
X29223Y194387D01*
X29212Y194363D01*
X29201Y194266D01*
X29184Y194170D01*
X29187Y194144D01*
X29185Y194119D01*
X29205Y194023D01*
X29219Y193927D01*
X29231Y193904D01*
X29237Y193878D01*
X29287Y193795D01*
X29331Y193708D01*
X29350Y193689D01*
X29363Y193667D01*
X29437Y193604D01*
X29506Y193536D01*
X29535Y193520D01*
X29550Y193507D01*
X29581Y193495D01*
X29653Y193455D01*
X35667Y190964D01*
X40964Y185667D01*
X43831Y178746D01*
X43831Y171254D01*
X40964Y164333D01*
X35667Y159036D01*
X28746Y156169D01*
X21254Y156169D01*
X14333Y159036D01*
X9036Y164333D01*
X6545Y170347D01*
X6494Y170429D01*
X6448Y170515D01*
X6429Y170533D01*
X6416Y170556D01*
X6341Y170618D01*
X6270Y170685D01*
X6246Y170696D01*
X6226Y170712D01*
X6135Y170747D01*
X6047Y170788D01*
X6021Y170791D01*
X5997Y170801D01*
X5899Y170805D01*
X5803Y170815D01*
X5777Y170810D01*
X5751Y170811D01*
X5657Y170784D01*
X5562Y170763D01*
X5540Y170750D01*
X5515Y170743D01*
X5435Y170687D01*
X5351Y170637D01*
X5334Y170617D01*
X5313Y170602D01*
X5254Y170524D01*
X5191Y170450D01*
X5181Y170426D01*
X5166Y170405D01*
X5136Y170312D01*
X5099Y170222D01*
X5096Y170190D01*
X5090Y170171D01*
X5090Y170138D01*
X5081Y170055D01*
X5081Y25000D01*
X5084Y24978D01*
X5083Y24940D01*
X5319Y21943D01*
X5320Y21938D01*
X5320Y21932D01*
X5354Y21768D01*
X7206Y16067D01*
X7222Y16035D01*
X7231Y16001D01*
X7314Y15855D01*
X10837Y11006D01*
X10863Y10981D01*
X10882Y10950D01*
X11006Y10837D01*
X15855Y7314D01*
X15887Y7298D01*
X15914Y7275D01*
X16067Y7206D01*
X21768Y5354D01*
X21773Y5353D01*
X21779Y5350D01*
X21943Y5319D01*
X24940Y5083D01*
X24962Y5085D01*
X25000Y5081D01*
X175000Y5081D01*
X175022Y5084D01*
G37*
%LPC*%
G36*
X108742Y36177D02*
X108742Y36177D01*
X106418Y37140D01*
X104640Y38918D01*
X103677Y41242D01*
X103677Y43758D01*
X104640Y46082D01*
X106418Y47860D01*
X108742Y48823D01*
X111258Y48823D01*
X113582Y47860D01*
X114908Y46534D01*
X114982Y46481D01*
X115051Y46421D01*
X115082Y46409D01*
X115108Y46390D01*
X115195Y46363D01*
X115280Y46329D01*
X115321Y46325D01*
X115343Y46318D01*
X115375Y46319D01*
X115446Y46311D01*
X138106Y46311D01*
X138196Y46325D01*
X138287Y46333D01*
X138317Y46345D01*
X138349Y46350D01*
X138430Y46393D01*
X138514Y46429D01*
X138546Y46455D01*
X138566Y46466D01*
X138589Y46489D01*
X138644Y46534D01*
X148466Y56356D01*
X148519Y56429D01*
X148579Y56499D01*
X148591Y56529D01*
X148610Y56555D01*
X148637Y56642D01*
X148671Y56727D01*
X148675Y56768D01*
X148682Y56790D01*
X148681Y56823D01*
X148689Y56894D01*
X148689Y83106D01*
X148675Y83196D01*
X148667Y83287D01*
X148655Y83317D01*
X148650Y83349D01*
X148607Y83430D01*
X148571Y83514D01*
X148545Y83546D01*
X148534Y83566D01*
X148511Y83589D01*
X148466Y83644D01*
X143644Y88466D01*
X143571Y88519D01*
X143501Y88579D01*
X143471Y88591D01*
X143445Y88610D01*
X143358Y88637D01*
X143273Y88671D01*
X143232Y88675D01*
X143210Y88682D01*
X143177Y88681D01*
X143106Y88689D01*
X130354Y88689D01*
X130264Y88675D01*
X130173Y88667D01*
X130144Y88655D01*
X130112Y88650D01*
X130031Y88607D01*
X129947Y88571D01*
X129915Y88545D01*
X129894Y88534D01*
X129872Y88511D01*
X129816Y88466D01*
X128490Y87140D01*
X126166Y86177D01*
X126090Y86177D01*
X126019Y86166D01*
X125947Y86164D01*
X125898Y86146D01*
X125847Y86138D01*
X125784Y86104D01*
X125716Y86079D01*
X125676Y86047D01*
X125630Y86022D01*
X125580Y85970D01*
X125524Y85926D01*
X125496Y85882D01*
X125460Y85844D01*
X125430Y85779D01*
X125391Y85719D01*
X125379Y85668D01*
X125357Y85621D01*
X125349Y85550D01*
X125331Y85480D01*
X125335Y85428D01*
X125330Y85377D01*
X125345Y85306D01*
X125350Y85235D01*
X125371Y85187D01*
X125382Y85136D01*
X125419Y85075D01*
X125447Y85009D01*
X125491Y84953D01*
X125508Y84925D01*
X125526Y84910D01*
X125551Y84878D01*
X128896Y81534D01*
X128970Y81481D01*
X129039Y81421D01*
X129069Y81409D01*
X129095Y81390D01*
X129182Y81363D01*
X129267Y81329D01*
X129308Y81325D01*
X129330Y81318D01*
X129363Y81319D01*
X129434Y81311D01*
X134554Y81311D01*
X134644Y81325D01*
X134735Y81333D01*
X134764Y81345D01*
X134796Y81350D01*
X134877Y81393D01*
X134961Y81429D01*
X134993Y81455D01*
X135014Y81466D01*
X135036Y81489D01*
X135092Y81534D01*
X136418Y82860D01*
X138742Y83823D01*
X141258Y83823D01*
X143582Y82860D01*
X145360Y81082D01*
X146323Y78758D01*
X146323Y76242D01*
X145360Y73918D01*
X143582Y72140D01*
X141258Y71177D01*
X138742Y71177D01*
X136418Y72140D01*
X135092Y73466D01*
X135018Y73519D01*
X134949Y73579D01*
X134918Y73591D01*
X134892Y73610D01*
X134805Y73637D01*
X134720Y73671D01*
X134679Y73675D01*
X134657Y73682D01*
X134625Y73681D01*
X134554Y73689D01*
X125962Y73689D01*
X123506Y76144D01*
X120122Y79529D01*
X120064Y79570D01*
X120012Y79620D01*
X119965Y79642D01*
X119923Y79672D01*
X119854Y79693D01*
X119789Y79723D01*
X119737Y79729D01*
X119687Y79744D01*
X119616Y79743D01*
X119545Y79750D01*
X119494Y79739D01*
X119442Y79738D01*
X119374Y79713D01*
X119304Y79698D01*
X119259Y79672D01*
X119211Y79654D01*
X119155Y79609D01*
X119093Y79572D01*
X119059Y79532D01*
X119019Y79500D01*
X118980Y79440D01*
X118933Y79385D01*
X118914Y79337D01*
X118886Y79293D01*
X118868Y79224D01*
X118841Y79157D01*
X118833Y79086D01*
X118825Y79054D01*
X118827Y79031D01*
X118823Y78990D01*
X118823Y78742D01*
X117860Y76418D01*
X116082Y74640D01*
X113758Y73677D01*
X111242Y73677D01*
X108918Y74640D01*
X108662Y74896D01*
X108646Y74908D01*
X108633Y74923D01*
X108571Y74964D01*
X108522Y75005D01*
X108495Y75016D01*
X108462Y75040D01*
X108443Y75046D01*
X108426Y75056D01*
X108343Y75077D01*
X108294Y75097D01*
X108265Y75100D01*
X108227Y75112D01*
X108207Y75112D01*
X108188Y75117D01*
X108148Y75113D01*
X108127Y75116D01*
X108120Y75116D01*
X108074Y75108D01*
X107981Y75106D01*
X107963Y75099D01*
X107943Y75097D01*
X107902Y75080D01*
X107877Y75076D01*
X107828Y75050D01*
X107750Y75021D01*
X107735Y75009D01*
X107716Y75001D01*
X107678Y74970D01*
X107660Y74961D01*
X107641Y74941D01*
X107585Y74896D01*
X107275Y74586D01*
X98748Y66059D01*
X85592Y66059D01*
X83136Y68514D01*
X80093Y71558D01*
X80056Y71585D01*
X80024Y71619D01*
X79956Y71656D01*
X79893Y71702D01*
X79849Y71715D01*
X79809Y71737D01*
X79732Y71751D01*
X79658Y71774D01*
X79612Y71773D01*
X79567Y71781D01*
X79490Y71770D01*
X79412Y71768D01*
X79369Y71752D01*
X79324Y71745D01*
X79254Y71710D01*
X79181Y71683D01*
X79145Y71654D01*
X79104Y71634D01*
X79050Y71578D01*
X78989Y71529D01*
X78964Y71491D01*
X78932Y71458D01*
X78866Y71338D01*
X78856Y71322D01*
X78855Y71318D01*
X78851Y71311D01*
X77860Y68918D01*
X76082Y67140D01*
X73758Y66177D01*
X71242Y66177D01*
X68918Y67140D01*
X67140Y68918D01*
X66454Y70575D01*
X66419Y70631D01*
X66393Y70691D01*
X66341Y70756D01*
X66324Y70784D01*
X66309Y70797D01*
X66289Y70822D01*
X65966Y71144D01*
X48689Y88422D01*
X48689Y144078D01*
X70624Y166014D01*
X70677Y166087D01*
X70737Y166157D01*
X70749Y166187D01*
X70768Y166213D01*
X70795Y166300D01*
X70829Y166385D01*
X70833Y166426D01*
X70840Y166448D01*
X70839Y166481D01*
X70847Y166552D01*
X70847Y168628D01*
X71810Y170952D01*
X73588Y172730D01*
X75912Y173693D01*
X78428Y173693D01*
X80752Y172730D01*
X82530Y170952D01*
X83493Y168628D01*
X83493Y166112D01*
X82530Y163788D01*
X80752Y162010D01*
X80623Y161957D01*
X80562Y161919D01*
X80497Y161890D01*
X80458Y161854D01*
X80414Y161827D01*
X80368Y161772D01*
X80316Y161723D01*
X80290Y161678D01*
X80257Y161638D01*
X80232Y161571D01*
X80197Y161508D01*
X80188Y161456D01*
X80169Y161408D01*
X80166Y161336D01*
X80153Y161266D01*
X80161Y161214D01*
X80159Y161162D01*
X80179Y161093D01*
X80189Y161022D01*
X80213Y160976D01*
X80227Y160926D01*
X80268Y160867D01*
X80301Y160803D01*
X80338Y160767D01*
X80367Y160724D01*
X80425Y160681D01*
X80476Y160631D01*
X80539Y160596D01*
X80565Y160577D01*
X80587Y160570D01*
X80623Y160550D01*
X81082Y160360D01*
X82860Y158582D01*
X83823Y156258D01*
X83823Y153742D01*
X82860Y151418D01*
X81534Y150092D01*
X81481Y150018D01*
X81421Y149949D01*
X81409Y149918D01*
X81390Y149892D01*
X81363Y149805D01*
X81329Y149720D01*
X81325Y149679D01*
X81318Y149657D01*
X81319Y149625D01*
X81311Y149554D01*
X81311Y138422D01*
X78856Y135966D01*
X78855Y135966D01*
X66534Y123645D01*
X66481Y123571D01*
X66421Y123501D01*
X66409Y123471D01*
X66390Y123445D01*
X66363Y123358D01*
X66329Y123273D01*
X66325Y123232D01*
X66318Y123210D01*
X66319Y123178D01*
X66311Y123106D01*
X66311Y96434D01*
X66316Y96402D01*
X66315Y96391D01*
X66326Y96341D01*
X66333Y96253D01*
X66345Y96223D01*
X66350Y96191D01*
X66364Y96166D01*
X66367Y96151D01*
X66398Y96099D01*
X66429Y96026D01*
X66455Y95994D01*
X66466Y95974D01*
X66483Y95957D01*
X66493Y95940D01*
X66509Y95926D01*
X66534Y95895D01*
X70048Y92381D01*
X70106Y92340D01*
X70158Y92290D01*
X70205Y92268D01*
X70247Y92238D01*
X70316Y92217D01*
X70381Y92187D01*
X70433Y92181D01*
X70483Y92166D01*
X70554Y92167D01*
X70625Y92160D01*
X70676Y92171D01*
X70728Y92172D01*
X70796Y92197D01*
X70866Y92212D01*
X70910Y92238D01*
X70959Y92256D01*
X71015Y92301D01*
X71077Y92338D01*
X71111Y92378D01*
X71151Y92410D01*
X71190Y92470D01*
X71237Y92525D01*
X71256Y92573D01*
X71284Y92617D01*
X71302Y92686D01*
X71329Y92753D01*
X71337Y92824D01*
X71345Y92856D01*
X71343Y92879D01*
X71347Y92920D01*
X71347Y121564D01*
X76856Y127073D01*
X95316Y127073D01*
X95406Y127087D01*
X95497Y127095D01*
X95527Y127107D01*
X95558Y127112D01*
X95639Y127155D01*
X95723Y127191D01*
X95755Y127217D01*
X95776Y127228D01*
X95798Y127251D01*
X95854Y127296D01*
X96418Y127860D01*
X98742Y128823D01*
X99541Y128823D01*
X99631Y128837D01*
X99722Y128845D01*
X99751Y128857D01*
X99783Y128862D01*
X99864Y128905D01*
X99948Y128941D01*
X99980Y128967D01*
X100001Y128978D01*
X100023Y129001D01*
X100079Y129046D01*
X108106Y137073D01*
X147816Y137073D01*
X147906Y137087D01*
X147997Y137095D01*
X148027Y137107D01*
X148058Y137112D01*
X148139Y137155D01*
X148223Y137191D01*
X148255Y137217D01*
X148276Y137228D01*
X148298Y137251D01*
X148354Y137296D01*
X148918Y137860D01*
X151242Y138823D01*
X153758Y138823D01*
X156082Y137860D01*
X157860Y136082D01*
X158823Y133758D01*
X158823Y131242D01*
X157860Y128918D01*
X156082Y127140D01*
X153758Y126177D01*
X151242Y126177D01*
X148918Y127140D01*
X148354Y127704D01*
X148280Y127758D01*
X148211Y127817D01*
X148181Y127829D01*
X148154Y127848D01*
X148067Y127875D01*
X147982Y127909D01*
X147942Y127913D01*
X147919Y127920D01*
X147887Y127919D01*
X147816Y127927D01*
X112209Y127927D01*
X112119Y127913D01*
X112028Y127905D01*
X111999Y127893D01*
X111967Y127888D01*
X111886Y127845D01*
X111802Y127809D01*
X111770Y127783D01*
X111749Y127772D01*
X111727Y127749D01*
X111671Y127704D01*
X106546Y122579D01*
X106493Y122505D01*
X106433Y122435D01*
X106421Y122405D01*
X106402Y122379D01*
X106375Y122292D01*
X106341Y122207D01*
X106337Y122166D01*
X106330Y122144D01*
X106331Y122112D01*
X106323Y122041D01*
X106323Y121242D01*
X105360Y118918D01*
X103582Y117140D01*
X101258Y116177D01*
X98742Y116177D01*
X96418Y117140D01*
X95854Y117704D01*
X95780Y117758D01*
X95711Y117817D01*
X95681Y117829D01*
X95654Y117848D01*
X95567Y117875D01*
X95482Y117909D01*
X95442Y117913D01*
X95419Y117920D01*
X95387Y117919D01*
X95316Y117927D01*
X81254Y117927D01*
X81234Y117924D01*
X81215Y117926D01*
X81113Y117904D01*
X81011Y117888D01*
X80994Y117878D01*
X80974Y117874D01*
X80885Y117821D01*
X80794Y117772D01*
X80780Y117758D01*
X80763Y117748D01*
X80696Y117669D01*
X80624Y117594D01*
X80616Y117576D01*
X80603Y117561D01*
X80564Y117465D01*
X80521Y117371D01*
X80519Y117351D01*
X80511Y117333D01*
X80493Y117166D01*
X80493Y113672D01*
X80496Y113652D01*
X80494Y113633D01*
X80516Y113531D01*
X80532Y113429D01*
X80542Y113412D01*
X80546Y113392D01*
X80599Y113303D01*
X80648Y113212D01*
X80662Y113198D01*
X80672Y113181D01*
X80751Y113114D01*
X80826Y113042D01*
X80844Y113034D01*
X80859Y113021D01*
X80955Y112982D01*
X81049Y112939D01*
X81069Y112937D01*
X81087Y112929D01*
X81254Y112911D01*
X87222Y112911D01*
X87273Y112860D01*
X87309Y112834D01*
X87338Y112802D01*
X87408Y112763D01*
X87473Y112717D01*
X87515Y112704D01*
X87553Y112682D01*
X87631Y112668D01*
X87708Y112644D01*
X87752Y112645D01*
X87795Y112637D01*
X87874Y112648D01*
X87954Y112651D01*
X87995Y112666D01*
X88038Y112672D01*
X88172Y112730D01*
X88185Y112735D01*
X88187Y112737D01*
X88836Y112911D01*
X90421Y112911D01*
X90421Y108358D01*
X90424Y108339D01*
X90422Y108319D01*
X90444Y108217D01*
X90460Y108115D01*
X90470Y108098D01*
X90474Y108078D01*
X90527Y107989D01*
X90576Y107898D01*
X90590Y107884D01*
X90600Y107867D01*
X90604Y107864D01*
X90552Y107810D01*
X90544Y107792D01*
X90531Y107777D01*
X90492Y107680D01*
X90449Y107587D01*
X90447Y107567D01*
X90439Y107549D01*
X90421Y107382D01*
X90421Y102829D01*
X89472Y102829D01*
X89452Y102826D01*
X89433Y102828D01*
X89331Y102806D01*
X89229Y102790D01*
X89212Y102780D01*
X89192Y102776D01*
X89103Y102723D01*
X89012Y102674D01*
X88998Y102660D01*
X88981Y102650D01*
X88914Y102571D01*
X88842Y102496D01*
X88834Y102478D01*
X88821Y102463D01*
X88782Y102367D01*
X88739Y102273D01*
X88737Y102253D01*
X88729Y102235D01*
X88711Y102068D01*
X88711Y101119D01*
X84158Y101119D01*
X84139Y101116D01*
X84119Y101118D01*
X84017Y101096D01*
X83915Y101080D01*
X83898Y101070D01*
X83878Y101066D01*
X83789Y101013D01*
X83698Y100964D01*
X83684Y100950D01*
X83667Y100940D01*
X83600Y100861D01*
X83529Y100786D01*
X83520Y100768D01*
X83507Y100753D01*
X83469Y100657D01*
X83425Y100563D01*
X83423Y100543D01*
X83415Y100525D01*
X83397Y100358D01*
X83397Y99382D01*
X83400Y99362D01*
X83398Y99342D01*
X83420Y99241D01*
X83437Y99139D01*
X83446Y99122D01*
X83450Y99102D01*
X83503Y99013D01*
X83552Y98922D01*
X83566Y98908D01*
X83576Y98891D01*
X83655Y98824D01*
X83730Y98752D01*
X83748Y98744D01*
X83763Y98731D01*
X83860Y98692D01*
X83953Y98649D01*
X83973Y98647D01*
X83991Y98639D01*
X84158Y98621D01*
X88711Y98621D01*
X88711Y97672D01*
X88714Y97652D01*
X88712Y97633D01*
X88734Y97531D01*
X88750Y97429D01*
X88760Y97412D01*
X88764Y97392D01*
X88817Y97303D01*
X88866Y97212D01*
X88880Y97198D01*
X88890Y97181D01*
X88969Y97114D01*
X89044Y97042D01*
X89062Y97034D01*
X89077Y97021D01*
X89173Y96982D01*
X89267Y96939D01*
X89287Y96937D01*
X89305Y96929D01*
X89472Y96911D01*
X95258Y96911D01*
X95331Y96858D01*
X95351Y96852D01*
X95367Y96841D01*
X95468Y96816D01*
X95567Y96786D01*
X95587Y96786D01*
X95606Y96781D01*
X95709Y96789D01*
X95812Y96792D01*
X95831Y96799D01*
X95851Y96800D01*
X95946Y96841D01*
X96043Y96876D01*
X96059Y96889D01*
X96077Y96897D01*
X96095Y96911D01*
X103258Y96911D01*
X103331Y96858D01*
X103351Y96852D01*
X103367Y96841D01*
X103468Y96816D01*
X103567Y96786D01*
X103587Y96786D01*
X103606Y96781D01*
X103709Y96789D01*
X103812Y96792D01*
X103831Y96799D01*
X103851Y96800D01*
X103946Y96841D01*
X104043Y96876D01*
X104059Y96889D01*
X104077Y96897D01*
X104095Y96911D01*
X109868Y96911D01*
X109888Y96914D01*
X109907Y96912D01*
X110009Y96934D01*
X110111Y96950D01*
X110128Y96960D01*
X110148Y96964D01*
X110237Y97017D01*
X110328Y97066D01*
X110342Y97080D01*
X110359Y97090D01*
X110426Y97169D01*
X110498Y97244D01*
X110506Y97262D01*
X110519Y97277D01*
X110558Y97373D01*
X110601Y97467D01*
X110603Y97487D01*
X110611Y97505D01*
X110629Y97672D01*
X110629Y98621D01*
X115182Y98621D01*
X115201Y98624D01*
X115221Y98622D01*
X115323Y98644D01*
X115425Y98660D01*
X115442Y98670D01*
X115462Y98674D01*
X115551Y98727D01*
X115642Y98776D01*
X115656Y98790D01*
X115673Y98800D01*
X115676Y98804D01*
X115730Y98752D01*
X115748Y98744D01*
X115763Y98731D01*
X115860Y98692D01*
X115953Y98649D01*
X115973Y98647D01*
X115991Y98639D01*
X116158Y98621D01*
X120726Y98621D01*
X120738Y98578D01*
X120750Y98502D01*
X120772Y98461D01*
X120785Y98417D01*
X120829Y98353D01*
X120866Y98284D01*
X120899Y98253D01*
X120925Y98215D01*
X120987Y98169D01*
X121044Y98115D01*
X121086Y98096D01*
X121122Y98068D01*
X121196Y98044D01*
X121267Y98011D01*
X121313Y98006D01*
X121356Y97992D01*
X121434Y97993D01*
X121511Y97984D01*
X121556Y97994D01*
X121602Y97994D01*
X121734Y98032D01*
X121752Y98036D01*
X121756Y98039D01*
X121763Y98041D01*
X123650Y98823D01*
X126166Y98823D01*
X128490Y97860D01*
X129816Y96534D01*
X129890Y96481D01*
X129959Y96421D01*
X129990Y96409D01*
X130016Y96390D01*
X130103Y96363D01*
X130188Y96329D01*
X130229Y96325D01*
X130251Y96318D01*
X130283Y96319D01*
X130354Y96311D01*
X146578Y96311D01*
X156311Y86578D01*
X156311Y53422D01*
X141578Y38689D01*
X115446Y38689D01*
X115356Y38675D01*
X115265Y38667D01*
X115236Y38655D01*
X115204Y38650D01*
X115123Y38607D01*
X115039Y38571D01*
X115007Y38545D01*
X114986Y38534D01*
X114964Y38511D01*
X114908Y38466D01*
X113582Y37140D01*
X111258Y36177D01*
X108742Y36177D01*
G37*
%LPD*%
%LPC*%
G36*
X115610Y100988D02*
X115610Y100988D01*
X115592Y100996D01*
X115577Y101009D01*
X115480Y101048D01*
X115387Y101091D01*
X115367Y101093D01*
X115349Y101101D01*
X115182Y101119D01*
X110629Y101119D01*
X110629Y102068D01*
X110626Y102088D01*
X110628Y102107D01*
X110606Y102208D01*
X110590Y102311D01*
X110580Y102328D01*
X110576Y102348D01*
X110523Y102437D01*
X110474Y102528D01*
X110460Y102542D01*
X110450Y102559D01*
X110371Y102626D01*
X110296Y102697D01*
X110278Y102706D01*
X110263Y102719D01*
X110167Y102758D01*
X110073Y102801D01*
X110053Y102803D01*
X110035Y102811D01*
X109868Y102829D01*
X108919Y102829D01*
X108919Y107382D01*
X108916Y107401D01*
X108918Y107421D01*
X108896Y107523D01*
X108880Y107625D01*
X108870Y107642D01*
X108866Y107662D01*
X108813Y107751D01*
X108764Y107842D01*
X108750Y107856D01*
X108740Y107873D01*
X108736Y107876D01*
X108788Y107930D01*
X108796Y107948D01*
X108809Y107963D01*
X108848Y108060D01*
X108891Y108153D01*
X108893Y108173D01*
X108901Y108191D01*
X108919Y108358D01*
X108919Y112911D01*
X110505Y112911D01*
X111155Y112736D01*
X111189Y112724D01*
X111226Y112700D01*
X111303Y112680D01*
X111378Y112652D01*
X111422Y112651D01*
X111464Y112640D01*
X111544Y112646D01*
X111624Y112643D01*
X111666Y112656D01*
X111710Y112659D01*
X111783Y112690D01*
X111860Y112713D01*
X111896Y112738D01*
X111936Y112755D01*
X112050Y112846D01*
X112061Y112854D01*
X112063Y112857D01*
X112067Y112860D01*
X112118Y112911D01*
X114476Y112911D01*
X114566Y112925D01*
X114657Y112933D01*
X114687Y112945D01*
X114719Y112950D01*
X114800Y112993D01*
X114884Y113029D01*
X114916Y113055D01*
X114936Y113066D01*
X114959Y113089D01*
X115015Y113134D01*
X116266Y114385D01*
X116266Y114386D01*
X118722Y116841D01*
X165947Y116841D01*
X166062Y116860D01*
X166178Y116877D01*
X166184Y116879D01*
X166190Y116880D01*
X166293Y116935D01*
X166398Y116988D01*
X166402Y116993D01*
X166408Y116996D01*
X166487Y117080D01*
X166570Y117164D01*
X166573Y117170D01*
X166577Y117174D01*
X166585Y117191D01*
X166651Y117311D01*
X167679Y119793D01*
X171037Y123151D01*
X175425Y124969D01*
X180175Y124969D01*
X184563Y123151D01*
X187921Y119793D01*
X189739Y115405D01*
X189739Y110655D01*
X187921Y106267D01*
X184563Y102909D01*
X180175Y101091D01*
X175425Y101091D01*
X171037Y102909D01*
X167679Y106267D01*
X166651Y108749D01*
X166589Y108849D01*
X166529Y108949D01*
X166524Y108953D01*
X166521Y108958D01*
X166431Y109033D01*
X166342Y109109D01*
X166336Y109111D01*
X166332Y109115D01*
X166224Y109157D01*
X166114Y109201D01*
X166107Y109202D01*
X166102Y109203D01*
X166084Y109204D01*
X165947Y109219D01*
X122194Y109219D01*
X122104Y109205D01*
X122013Y109197D01*
X121983Y109185D01*
X121951Y109180D01*
X121870Y109137D01*
X121786Y109101D01*
X121754Y109075D01*
X121734Y109064D01*
X121711Y109041D01*
X121655Y108996D01*
X120934Y108275D01*
X120881Y108201D01*
X120821Y108131D01*
X120809Y108101D01*
X120790Y108075D01*
X120763Y107988D01*
X120729Y107903D01*
X120725Y107862D01*
X120718Y107840D01*
X120719Y107808D01*
X120711Y107736D01*
X120711Y104318D01*
X120660Y104267D01*
X120634Y104231D01*
X120602Y104202D01*
X120563Y104132D01*
X120517Y104067D01*
X120504Y104025D01*
X120482Y103987D01*
X120468Y103909D01*
X120444Y103832D01*
X120445Y103788D01*
X120437Y103745D01*
X120448Y103666D01*
X120451Y103586D01*
X120466Y103545D01*
X120472Y103502D01*
X120530Y103368D01*
X120535Y103355D01*
X120537Y103353D01*
X120711Y102704D01*
X120711Y101119D01*
X116158Y101119D01*
X116139Y101116D01*
X116119Y101118D01*
X116017Y101096D01*
X115915Y101080D01*
X115898Y101070D01*
X115878Y101066D01*
X115789Y101013D01*
X115698Y100964D01*
X115684Y100950D01*
X115667Y100940D01*
X115664Y100936D01*
X115610Y100988D01*
G37*
%LPD*%
%LPC*%
G36*
X175425Y75691D02*
X175425Y75691D01*
X171037Y77509D01*
X167679Y80867D01*
X165861Y85255D01*
X165861Y90005D01*
X167679Y94393D01*
X171037Y97751D01*
X175425Y99569D01*
X180175Y99569D01*
X184563Y97751D01*
X187921Y94393D01*
X189739Y90005D01*
X189739Y85255D01*
X187921Y80867D01*
X184563Y77509D01*
X180175Y75691D01*
X175425Y75691D01*
G37*
%LPD*%
G36*
X69896Y78332D02*
X69896Y78332D01*
X70013Y78333D01*
X70020Y78335D01*
X70025Y78336D01*
X70042Y78342D01*
X70174Y78380D01*
X71311Y78851D01*
X71350Y78875D01*
X71393Y78891D01*
X71454Y78940D01*
X71520Y78981D01*
X71549Y79016D01*
X71585Y79045D01*
X71627Y79110D01*
X71677Y79170D01*
X71693Y79213D01*
X71718Y79252D01*
X71737Y79327D01*
X71765Y79400D01*
X71767Y79446D01*
X71778Y79490D01*
X71772Y79568D01*
X71776Y79646D01*
X71763Y79690D01*
X71759Y79736D01*
X71729Y79807D01*
X71707Y79882D01*
X71681Y79920D01*
X71663Y79962D01*
X71577Y80068D01*
X71567Y80084D01*
X71563Y80087D01*
X71558Y80093D01*
X61145Y90506D01*
X61144Y90506D01*
X58689Y92962D01*
X58689Y126578D01*
X61144Y129034D01*
X61145Y129034D01*
X73466Y141355D01*
X73519Y141429D01*
X73579Y141499D01*
X73591Y141529D01*
X73610Y141555D01*
X73637Y141642D01*
X73671Y141727D01*
X73675Y141768D01*
X73682Y141790D01*
X73681Y141822D01*
X73689Y141894D01*
X73689Y149554D01*
X73675Y149644D01*
X73667Y149735D01*
X73655Y149764D01*
X73650Y149796D01*
X73607Y149877D01*
X73571Y149961D01*
X73545Y149993D01*
X73534Y150014D01*
X73511Y150036D01*
X73466Y150092D01*
X72140Y151418D01*
X71177Y153742D01*
X71177Y153950D01*
X71166Y154021D01*
X71164Y154093D01*
X71146Y154142D01*
X71138Y154193D01*
X71104Y154256D01*
X71079Y154324D01*
X71047Y154364D01*
X71022Y154410D01*
X70970Y154460D01*
X70926Y154516D01*
X70882Y154544D01*
X70844Y154580D01*
X70779Y154610D01*
X70719Y154649D01*
X70668Y154661D01*
X70621Y154683D01*
X70550Y154691D01*
X70480Y154709D01*
X70428Y154705D01*
X70377Y154710D01*
X70306Y154695D01*
X70235Y154690D01*
X70187Y154669D01*
X70136Y154658D01*
X70075Y154621D01*
X70009Y154593D01*
X69953Y154549D01*
X69925Y154532D01*
X69910Y154514D01*
X69878Y154489D01*
X56534Y141144D01*
X56481Y141071D01*
X56421Y141001D01*
X56409Y140971D01*
X56390Y140945D01*
X56363Y140858D01*
X56329Y140773D01*
X56325Y140732D01*
X56318Y140710D01*
X56319Y140677D01*
X56311Y140606D01*
X56311Y91894D01*
X56325Y91804D01*
X56333Y91713D01*
X56345Y91683D01*
X56350Y91651D01*
X56393Y91570D01*
X56429Y91486D01*
X56455Y91454D01*
X56466Y91434D01*
X56489Y91411D01*
X56534Y91356D01*
X69344Y78545D01*
X69438Y78478D01*
X69533Y78407D01*
X69539Y78405D01*
X69544Y78402D01*
X69655Y78367D01*
X69767Y78331D01*
X69773Y78331D01*
X69779Y78329D01*
X69896Y78332D01*
G37*
%LPC*%
G36*
X100919Y109119D02*
X100919Y109119D01*
X100919Y112911D01*
X102505Y112911D01*
X103151Y112738D01*
X103289Y112658D01*
X103353Y112634D01*
X103412Y112601D01*
X103467Y112590D01*
X103519Y112571D01*
X103587Y112568D01*
X103653Y112556D01*
X103709Y112564D01*
X103765Y112561D01*
X103830Y112581D01*
X103897Y112590D01*
X103970Y112622D01*
X104001Y112631D01*
X104018Y112643D01*
X104051Y112657D01*
X104189Y112738D01*
X104836Y112911D01*
X106421Y112911D01*
X106421Y109119D01*
X100919Y109119D01*
G37*
%LPD*%
%LPC*%
G36*
X92919Y109119D02*
X92919Y109119D01*
X92919Y112911D01*
X94505Y112911D01*
X95151Y112738D01*
X95289Y112658D01*
X95353Y112634D01*
X95412Y112601D01*
X95467Y112590D01*
X95519Y112571D01*
X95587Y112568D01*
X95654Y112556D01*
X95709Y112564D01*
X95765Y112561D01*
X95830Y112581D01*
X95897Y112590D01*
X95970Y112622D01*
X96001Y112631D01*
X96018Y112643D01*
X96051Y112658D01*
X96189Y112738D01*
X96836Y112911D01*
X98421Y112911D01*
X98421Y109119D01*
X92919Y109119D01*
G37*
%LPD*%
%LPC*%
G36*
X92919Y102829D02*
X92919Y102829D01*
X92919Y106621D01*
X98421Y106621D01*
X98421Y102829D01*
X96836Y102829D01*
X96189Y103002D01*
X96051Y103083D01*
X95987Y103106D01*
X95928Y103139D01*
X95873Y103150D01*
X95821Y103169D01*
X95753Y103172D01*
X95686Y103184D01*
X95631Y103176D01*
X95575Y103178D01*
X95510Y103159D01*
X95443Y103150D01*
X95370Y103118D01*
X95339Y103109D01*
X95322Y103097D01*
X95289Y103082D01*
X95151Y103002D01*
X94504Y102829D01*
X92919Y102829D01*
G37*
%LPD*%
%LPC*%
G36*
X100919Y102829D02*
X100919Y102829D01*
X100919Y106621D01*
X106421Y106621D01*
X106421Y102829D01*
X104836Y102829D01*
X104189Y103002D01*
X104051Y103083D01*
X103987Y103106D01*
X103928Y103139D01*
X103873Y103150D01*
X103821Y103169D01*
X103753Y103172D01*
X103686Y103184D01*
X103631Y103176D01*
X103575Y103178D01*
X103510Y103159D01*
X103443Y103150D01*
X103370Y103118D01*
X103339Y103109D01*
X103322Y103097D01*
X103289Y103082D01*
X103151Y103002D01*
X102504Y102829D01*
X100919Y102829D01*
G37*
%LPD*%
D10*
X83670Y107870D03*
X91670Y107870D03*
X99670Y107870D03*
X107670Y107870D03*
X115670Y107870D03*
X115670Y99870D03*
X115670Y91870D03*
X107670Y91870D03*
X99670Y91870D03*
X91670Y91870D03*
X83670Y91870D03*
X83670Y99870D03*
D11*
X177800Y87630D03*
X177800Y113030D03*
D12*
X112500Y80000D03*
D13*
X99670Y87370D02*
X99670Y91870D01*
X99670Y87370D02*
X105920Y81120D01*
X107040Y80000D01*
X112500Y80000D01*
X62500Y125000D02*
X77500Y140000D01*
X62500Y94540D02*
X87170Y69870D01*
X97170Y69870D01*
X105920Y78620D01*
X107170Y79870D01*
X62500Y94540D02*
X62500Y125000D01*
X105920Y81120D02*
X105920Y78620D01*
D12*
X77500Y155000D03*
D13*
X77500Y140000D01*
D12*
X92500Y80000D03*
D13*
X91670Y80000D02*
X91670Y91870D01*
X91670Y80000D02*
X92500Y80000D01*
D12*
X110000Y42500D03*
D13*
X140000Y42500D01*
X152500Y55000D01*
X152500Y85000D01*
X145000Y92500D01*
D12*
X124908Y92500D03*
D13*
X145000Y92500D01*
X77500Y167500D02*
X52500Y142500D01*
X77300Y167500D02*
X77500Y167500D01*
X77300Y167500D02*
X77170Y167370D01*
D12*
X77170Y167370D03*
X72500Y72500D03*
D13*
X70000Y72500D02*
X52500Y90000D01*
X70000Y72500D02*
X72500Y72500D01*
X52500Y90000D02*
X52500Y142500D01*
D12*
X67500Y145000D03*
X112500Y142500D03*
X122500Y160000D03*
X115000Y122500D03*
X130000Y57500D03*
X145000Y27500D03*
X62500Y165000D03*
X147500Y162500D03*
X62500Y42500D03*
X97500Y42500D03*
D13*
X127540Y77500D02*
X115670Y89370D01*
X115670Y91870D01*
X127540Y77500D02*
X140000Y77500D01*
D12*
X140000Y77500D03*
D13*
X115670Y107870D02*
X115670Y108400D01*
X120300Y113030D01*
X177800Y113030D01*
D14*
X83670Y107870D02*
X83170Y107370D01*
X83670Y91870D02*
X78920Y91870D01*
X78750Y107370D02*
X77170Y107370D01*
X78750Y107370D02*
X83170Y107370D01*
X75920Y94870D02*
X78920Y91870D01*
D12*
X100000Y122500D03*
X152500Y132500D03*
D14*
X75920Y102500D02*
X75920Y94870D01*
X75920Y102500D02*
X75920Y111250D01*
X75920Y119670D01*
X78750Y122500D01*
X100000Y122500D01*
X110000Y132500D01*
X152500Y132500D01*
D13*
X75920Y111250D02*
X75920Y110200D01*
X78750Y107370D01*
X75920Y104540D01*
X75920Y102500D01*
M02*
