G04 EAGLE Gerber RS-274X export*
G75*
%MOMM*%
%FSLAX34Y34*%
%LPD*%
%INSoldermask Top*%
%IPPOS*%
%AMOC8*
5,1,8,0,0,1.08239X$1,22.5*%
G01*
%ADD10C,2.953200*%
%ADD11R,0.703200X0.703200*%
%ADD12C,2.082800*%

G36*
X37254Y13988D02*
X37254Y13988D01*
X37255Y13988D01*
X37291Y13992D01*
X37326Y13998D01*
X37361Y14006D01*
X37394Y14016D01*
X37426Y14028D01*
X37427Y14029D01*
X37458Y14043D01*
X37488Y14059D01*
X37489Y14059D01*
X37518Y14076D01*
X37518Y14077D01*
X37546Y14096D01*
X37574Y14117D01*
X37600Y14139D01*
X37625Y14163D01*
X37626Y14163D01*
X37650Y14188D01*
X37673Y14214D01*
X37695Y14240D01*
X50331Y20939D01*
X50369Y20961D01*
X50405Y20985D01*
X50439Y21011D01*
X50471Y21040D01*
X50501Y21070D01*
X50529Y21103D01*
X50554Y21137D01*
X50577Y21173D01*
X50578Y21173D01*
X50598Y21210D01*
X50616Y21249D01*
X50632Y21288D01*
X50632Y21289D01*
X50645Y21329D01*
X50645Y21330D01*
X50655Y21371D01*
X50662Y21414D01*
X50667Y21457D01*
X50667Y21458D01*
X50668Y21501D01*
X50668Y21502D01*
X50668Y26091D01*
X50668Y26119D01*
X50666Y26147D01*
X50666Y26148D01*
X50662Y26175D01*
X50657Y26202D01*
X50656Y26202D01*
X50657Y26202D01*
X50650Y26229D01*
X50642Y26255D01*
X50633Y26281D01*
X50632Y26281D01*
X50622Y26306D01*
X50610Y26331D01*
X50598Y26355D01*
X50597Y26355D01*
X50598Y26355D01*
X50584Y26379D01*
X50569Y26402D01*
X50554Y26425D01*
X50538Y26447D01*
X50521Y26469D01*
X50520Y26469D01*
X50503Y26490D01*
X50494Y26501D01*
X50486Y26510D01*
X50477Y26519D01*
X50469Y26528D01*
X50460Y26536D01*
X50451Y26545D01*
X50442Y26553D01*
X50432Y26562D01*
X50427Y26566D01*
X50422Y26571D01*
X50417Y26576D01*
X50412Y26582D01*
X50389Y26609D01*
X50385Y26614D01*
X50380Y26619D01*
X50380Y26620D01*
X50375Y26625D01*
X50369Y26629D01*
X50369Y26630D01*
X50364Y26634D01*
X50358Y26638D01*
X50358Y26639D01*
X50352Y26642D01*
X50351Y26642D01*
X50351Y26643D01*
X43850Y30414D01*
X47788Y40742D01*
X47796Y40765D01*
X47803Y40788D01*
X47829Y40857D01*
X47830Y40857D01*
X47831Y40862D01*
X47831Y40863D01*
X47832Y40868D01*
X47833Y40873D01*
X47833Y40878D01*
X47833Y40883D01*
X47832Y40883D01*
X47833Y40884D01*
X47832Y40888D01*
X47832Y40889D01*
X47831Y40894D01*
X47828Y40908D01*
X47827Y40913D01*
X47826Y40918D01*
X47826Y40923D01*
X47826Y40927D01*
X47826Y40932D01*
X47827Y40936D01*
X47875Y41132D01*
X47897Y41230D01*
X47908Y41287D01*
X47908Y41288D01*
X47905Y41291D01*
X47904Y41292D01*
X46619Y41292D01*
X46616Y41289D01*
X46615Y41289D01*
X46607Y41260D01*
X46584Y41183D01*
X46559Y41106D01*
X46487Y40917D01*
X46329Y40620D01*
X46127Y40334D01*
X45881Y40058D01*
X45595Y39795D01*
X45270Y39545D01*
X44909Y39310D01*
X44515Y39092D01*
X44089Y38891D01*
X43635Y38709D01*
X43153Y38547D01*
X42648Y38406D01*
X42120Y38288D01*
X41573Y38194D01*
X41009Y38125D01*
X40429Y38083D01*
X39837Y38069D01*
X39242Y38083D01*
X38659Y38126D01*
X38091Y38195D01*
X37541Y38290D01*
X37010Y38410D01*
X36502Y38552D01*
X36018Y38716D01*
X35562Y38900D01*
X35134Y39103D01*
X34739Y39323D01*
X34378Y39561D01*
X34054Y39813D01*
X33768Y40079D01*
X33524Y40357D01*
X33324Y40646D01*
X33170Y40946D01*
X33119Y41085D01*
X33092Y41165D01*
X33068Y41244D01*
X33057Y41285D01*
X33056Y41289D01*
X33052Y41291D01*
X33051Y41292D01*
X31770Y41292D01*
X31769Y41291D01*
X31766Y41288D01*
X31766Y41287D01*
X31776Y41236D01*
X31797Y41139D01*
X31844Y40946D01*
X31845Y40942D01*
X31845Y40937D01*
X31845Y40932D01*
X31845Y40927D01*
X31844Y40922D01*
X31843Y40917D01*
X31840Y40902D01*
X31839Y40897D01*
X31839Y40892D01*
X31838Y40887D01*
X31838Y40882D01*
X31838Y40881D01*
X31838Y40876D01*
X31839Y40876D01*
X31838Y40876D01*
X31840Y40871D01*
X31840Y40870D01*
X31841Y40865D01*
X31871Y40784D01*
X31877Y40765D01*
X33457Y36443D01*
X29122Y38957D01*
X29121Y38957D01*
X29120Y38957D01*
X29119Y38956D01*
X29116Y38956D01*
X29117Y38954D01*
X29115Y38953D01*
X29115Y37487D01*
X29117Y37485D01*
X29118Y37483D01*
X34140Y34570D01*
X37823Y24488D01*
X37841Y24442D01*
X37842Y24442D01*
X37841Y24442D01*
X37863Y24399D01*
X37888Y24358D01*
X37889Y24358D01*
X37889Y24357D01*
X37916Y24319D01*
X37916Y24318D01*
X37947Y24282D01*
X37980Y24248D01*
X37980Y24247D01*
X38015Y24216D01*
X38016Y24216D01*
X38053Y24187D01*
X38054Y24187D01*
X38093Y24161D01*
X38135Y24138D01*
X38178Y24118D01*
X38178Y24119D01*
X38178Y24118D01*
X38223Y24102D01*
X38269Y24088D01*
X38269Y24089D01*
X38269Y24088D01*
X38317Y24079D01*
X38365Y24073D01*
X38366Y24073D01*
X38415Y24070D01*
X40982Y24040D01*
X41031Y24042D01*
X41080Y24048D01*
X41127Y24057D01*
X41173Y24069D01*
X41173Y24070D01*
X41174Y24069D01*
X41218Y24085D01*
X41219Y24085D01*
X41262Y24104D01*
X41262Y24105D01*
X41304Y24127D01*
X41344Y24152D01*
X41382Y24180D01*
X41417Y24211D01*
X41418Y24211D01*
X41451Y24245D01*
X41482Y24281D01*
X41510Y24320D01*
X41511Y24320D01*
X41536Y24361D01*
X41558Y24404D01*
X41559Y24404D01*
X41578Y24449D01*
X43390Y29205D01*
X48758Y26091D01*
X37216Y19422D01*
X29122Y24060D01*
X29121Y24059D01*
X29120Y24060D01*
X29119Y24059D01*
X29116Y24058D01*
X29117Y24057D01*
X29115Y24056D01*
X29115Y18324D01*
X29117Y18322D01*
X29118Y18320D01*
X36747Y14066D01*
X36765Y14057D01*
X36784Y14048D01*
X36802Y14040D01*
X36821Y14032D01*
X36840Y14025D01*
X36859Y14018D01*
X36878Y14012D01*
X36879Y14012D01*
X36898Y14007D01*
X36918Y14002D01*
X36937Y13998D01*
X36938Y13998D01*
X36957Y13995D01*
X36977Y13992D01*
X36997Y13990D01*
X37017Y13988D01*
X37037Y13987D01*
X37057Y13987D01*
X37058Y13987D01*
X37064Y13987D01*
X37070Y13987D01*
X37071Y13988D01*
X37077Y13989D01*
X37084Y13990D01*
X37090Y13991D01*
X37090Y13992D01*
X37096Y13993D01*
X37097Y13993D01*
X37134Y14005D01*
X37140Y14007D01*
X37146Y14009D01*
X37152Y14010D01*
X37157Y14011D01*
X37161Y14011D01*
X37164Y14010D01*
X37168Y14009D01*
X37171Y14007D01*
X37174Y14005D01*
X37178Y14003D01*
X37188Y13997D01*
X37192Y13995D01*
X37192Y13994D01*
X37195Y13993D01*
X37199Y13991D01*
X37203Y13989D01*
X37204Y13989D01*
X37207Y13988D01*
X37208Y13988D01*
X37212Y13987D01*
X37217Y13987D01*
X37254Y13988D01*
G37*
G36*
X173086Y30549D02*
X173086Y30549D01*
X173099Y30551D01*
X173100Y30551D01*
X173113Y30553D01*
X173113Y30554D01*
X173126Y30557D01*
X173126Y30558D01*
X173126Y30557D01*
X173138Y30562D01*
X173150Y30568D01*
X173151Y30568D01*
X173162Y30575D01*
X173173Y30583D01*
X173183Y30592D01*
X175234Y32643D01*
X175243Y32653D01*
X175251Y32664D01*
X175258Y32675D01*
X175258Y32676D01*
X175264Y32687D01*
X175264Y32688D01*
X175269Y32700D01*
X175273Y32713D01*
X175276Y32726D01*
X175275Y32727D01*
X175276Y32727D01*
X175277Y32740D01*
X175278Y32753D01*
X175278Y32754D01*
X175278Y32767D01*
X175276Y32781D01*
X175274Y32794D01*
X175270Y32807D01*
X175265Y32820D01*
X175259Y32832D01*
X175252Y32843D01*
X173691Y35118D01*
X173684Y35130D01*
X173678Y35142D01*
X173672Y35154D01*
X173668Y35167D01*
X173664Y35181D01*
X173661Y35195D01*
X173659Y35209D01*
X173657Y35224D01*
X173656Y35238D01*
X173657Y35253D01*
X173658Y35268D01*
X173659Y35282D01*
X173662Y35295D01*
X173666Y35309D01*
X173670Y35321D01*
X173675Y35333D01*
X173675Y35334D01*
X174533Y37477D01*
X174538Y37490D01*
X174543Y37502D01*
X174550Y37514D01*
X174557Y37525D01*
X174566Y37537D01*
X174575Y37548D01*
X174585Y37558D01*
X174596Y37568D01*
X174607Y37578D01*
X174618Y37586D01*
X174631Y37594D01*
X174643Y37601D01*
X174655Y37607D01*
X174668Y37612D01*
X174681Y37616D01*
X174693Y37619D01*
X177442Y38131D01*
X177455Y38134D01*
X177468Y38138D01*
X177480Y38143D01*
X177480Y38144D01*
X177492Y38150D01*
X177503Y38158D01*
X177513Y38166D01*
X177514Y38166D01*
X177523Y38176D01*
X177524Y38176D01*
X177532Y38186D01*
X177533Y38186D01*
X177541Y38196D01*
X177541Y38197D01*
X177548Y38208D01*
X177555Y38220D01*
X177560Y38232D01*
X177560Y38233D01*
X177564Y38245D01*
X177565Y38246D01*
X177568Y38258D01*
X177568Y38259D01*
X177570Y38272D01*
X177569Y38272D01*
X177570Y38272D01*
X177570Y38285D01*
X177571Y41186D01*
X177570Y41199D01*
X177568Y41212D01*
X177568Y41213D01*
X177565Y41225D01*
X177565Y41226D01*
X177561Y41238D01*
X177560Y41238D01*
X177561Y41239D01*
X177555Y41251D01*
X177549Y41263D01*
X177541Y41274D01*
X177533Y41285D01*
X177524Y41295D01*
X177514Y41304D01*
X177514Y41305D01*
X177504Y41313D01*
X177503Y41313D01*
X177493Y41321D01*
X177492Y41321D01*
X177481Y41327D01*
X177480Y41327D01*
X177469Y41333D01*
X177468Y41333D01*
X177456Y41337D01*
X177455Y41337D01*
X177443Y41340D01*
X174625Y41864D01*
X174612Y41867D01*
X174599Y41871D01*
X174587Y41876D01*
X174574Y41883D01*
X174562Y41889D01*
X174549Y41897D01*
X174538Y41906D01*
X174526Y41915D01*
X174515Y41925D01*
X174505Y41936D01*
X174495Y41946D01*
X174487Y41958D01*
X174479Y41969D01*
X174472Y41981D01*
X174466Y41993D01*
X174461Y42005D01*
X173597Y44021D01*
X173592Y44032D01*
X173587Y44045D01*
X173583Y44058D01*
X173580Y44072D01*
X173578Y44086D01*
X173577Y44100D01*
X173577Y44115D01*
X173577Y44129D01*
X173579Y44144D01*
X173581Y44158D01*
X173584Y44172D01*
X173587Y44186D01*
X173592Y44199D01*
X173597Y44212D01*
X173603Y44223D01*
X173610Y44234D01*
X175252Y46628D01*
X175259Y46639D01*
X175265Y46651D01*
X175270Y46664D01*
X175274Y46676D01*
X175274Y46677D01*
X175276Y46690D01*
X175278Y46703D01*
X175278Y46704D01*
X175278Y46717D01*
X175277Y46731D01*
X175276Y46744D01*
X175275Y46744D01*
X175273Y46757D01*
X175273Y46758D01*
X175269Y46770D01*
X175269Y46771D01*
X175264Y46783D01*
X175258Y46795D01*
X175251Y46807D01*
X175243Y46817D01*
X175243Y46818D01*
X175234Y46827D01*
X175234Y46828D01*
X173183Y48878D01*
X173173Y48887D01*
X173173Y48888D01*
X173162Y48895D01*
X173162Y48896D01*
X173151Y48902D01*
X173150Y48903D01*
X173139Y48908D01*
X173138Y48909D01*
X173126Y48913D01*
X173113Y48917D01*
X173100Y48920D01*
X173086Y48922D01*
X173073Y48923D01*
X173072Y48923D01*
X173059Y48922D01*
X173046Y48921D01*
X173045Y48921D01*
X173032Y48918D01*
X173019Y48915D01*
X173019Y48914D01*
X173019Y48915D01*
X173007Y48910D01*
X172995Y48904D01*
X172994Y48904D01*
X172983Y48897D01*
X170548Y47226D01*
X170537Y47219D01*
X170525Y47213D01*
X170513Y47207D01*
X170500Y47203D01*
X170486Y47199D01*
X170472Y47196D01*
X170457Y47194D01*
X170443Y47192D01*
X170428Y47192D01*
X170413Y47192D01*
X170399Y47193D01*
X170385Y47195D01*
X170371Y47197D01*
X170358Y47201D01*
X170345Y47205D01*
X170333Y47210D01*
X170333Y47211D01*
X168380Y48010D01*
X168367Y48015D01*
X168355Y48021D01*
X168344Y48027D01*
X168332Y48035D01*
X168321Y48044D01*
X168320Y48044D01*
X168310Y48053D01*
X168299Y48063D01*
X168289Y48074D01*
X168280Y48085D01*
X168271Y48097D01*
X168263Y48109D01*
X168257Y48121D01*
X168250Y48134D01*
X168245Y48147D01*
X168241Y48159D01*
X168238Y48172D01*
X167696Y51087D01*
X167693Y51100D01*
X167692Y51100D01*
X167693Y51100D01*
X167688Y51112D01*
X167688Y51113D01*
X167683Y51125D01*
X167676Y51136D01*
X167676Y51137D01*
X167669Y51148D01*
X167668Y51148D01*
X167660Y51158D01*
X167660Y51159D01*
X167651Y51168D01*
X167641Y51177D01*
X167640Y51177D01*
X167630Y51186D01*
X167618Y51193D01*
X167607Y51199D01*
X167606Y51199D01*
X167606Y51200D01*
X167594Y51205D01*
X167581Y51209D01*
X167568Y51212D01*
X167555Y51214D01*
X167554Y51214D01*
X167541Y51215D01*
X164641Y51215D01*
X164640Y51215D01*
X164627Y51214D01*
X164614Y51212D01*
X164601Y51209D01*
X164588Y51205D01*
X164576Y51200D01*
X164576Y51199D01*
X164575Y51199D01*
X164564Y51193D01*
X164553Y51186D01*
X164552Y51186D01*
X164542Y51177D01*
X164541Y51177D01*
X164532Y51168D01*
X164531Y51168D01*
X164522Y51159D01*
X164522Y51158D01*
X164514Y51148D01*
X164513Y51148D01*
X164506Y51137D01*
X164506Y51136D01*
X164499Y51125D01*
X164494Y51113D01*
X164494Y51112D01*
X164490Y51100D01*
X164489Y51100D01*
X164486Y51087D01*
X163944Y48172D01*
X163941Y48159D01*
X163937Y48147D01*
X163932Y48134D01*
X163926Y48121D01*
X163919Y48109D01*
X163911Y48097D01*
X163902Y48085D01*
X163893Y48074D01*
X163883Y48063D01*
X163873Y48053D01*
X163862Y48044D01*
X163850Y48035D01*
X163839Y48027D01*
X163827Y48021D01*
X163815Y48015D01*
X163803Y48010D01*
X161849Y47211D01*
X161849Y47210D01*
X161837Y47205D01*
X161824Y47201D01*
X161811Y47197D01*
X161797Y47195D01*
X161783Y47193D01*
X161769Y47192D01*
X161754Y47192D01*
X161739Y47192D01*
X161725Y47194D01*
X161710Y47196D01*
X161696Y47199D01*
X161682Y47203D01*
X161669Y47207D01*
X161657Y47213D01*
X161645Y47219D01*
X161634Y47226D01*
X159199Y48897D01*
X159188Y48904D01*
X159187Y48904D01*
X159176Y48910D01*
X159175Y48910D01*
X159163Y48915D01*
X159163Y48914D01*
X159163Y48915D01*
X159150Y48918D01*
X159137Y48921D01*
X159136Y48921D01*
X159123Y48922D01*
X159110Y48923D01*
X159109Y48923D01*
X159096Y48922D01*
X159082Y48920D01*
X159069Y48917D01*
X159056Y48914D01*
X159056Y48913D01*
X159044Y48909D01*
X159043Y48908D01*
X159031Y48903D01*
X159031Y48902D01*
X159020Y48896D01*
X159020Y48895D01*
X159009Y48888D01*
X159009Y48887D01*
X158999Y48879D01*
X158999Y48878D01*
X156948Y46828D01*
X156948Y46827D01*
X156939Y46818D01*
X156939Y46817D01*
X156931Y46807D01*
X156924Y46795D01*
X156918Y46783D01*
X156913Y46771D01*
X156913Y46770D01*
X156909Y46758D01*
X156909Y46757D01*
X156906Y46744D01*
X156904Y46731D01*
X156905Y46731D01*
X156904Y46731D01*
X156904Y46717D01*
X156904Y46704D01*
X156904Y46703D01*
X156906Y46690D01*
X156908Y46677D01*
X156912Y46664D01*
X156912Y46663D01*
X156917Y46651D01*
X156922Y46639D01*
X156923Y46639D01*
X156930Y46628D01*
X158571Y44235D01*
X158578Y44223D01*
X158584Y44212D01*
X158590Y44199D01*
X158594Y44186D01*
X158598Y44172D01*
X158601Y44158D01*
X158603Y44144D01*
X158604Y44129D01*
X158605Y44115D01*
X158605Y44100D01*
X158603Y44086D01*
X158601Y44072D01*
X158599Y44058D01*
X158595Y44045D01*
X158590Y44033D01*
X158585Y44021D01*
X157721Y42006D01*
X157721Y42005D01*
X157716Y41993D01*
X157710Y41981D01*
X157703Y41969D01*
X157695Y41958D01*
X157686Y41946D01*
X157677Y41936D01*
X157667Y41925D01*
X157656Y41915D01*
X157644Y41906D01*
X157632Y41897D01*
X157620Y41890D01*
X157608Y41883D01*
X157595Y41876D01*
X157583Y41871D01*
X157570Y41867D01*
X157557Y41864D01*
X154739Y41340D01*
X154726Y41337D01*
X154714Y41333D01*
X154713Y41333D01*
X154701Y41327D01*
X154689Y41321D01*
X154678Y41313D01*
X154668Y41305D01*
X154668Y41304D01*
X154667Y41304D01*
X154658Y41295D01*
X154657Y41295D01*
X154649Y41285D01*
X154648Y41285D01*
X154640Y41274D01*
X154633Y41263D01*
X154626Y41251D01*
X154627Y41251D01*
X154626Y41251D01*
X154621Y41239D01*
X154621Y41238D01*
X154617Y41226D01*
X154617Y41225D01*
X154614Y41213D01*
X154613Y41212D01*
X154612Y41199D01*
X154611Y41186D01*
X154611Y38286D01*
X154611Y38285D01*
X154612Y38272D01*
X154614Y38259D01*
X154614Y38258D01*
X154617Y38246D01*
X154617Y38245D01*
X154621Y38233D01*
X154621Y38232D01*
X154627Y38220D01*
X154633Y38208D01*
X154640Y38197D01*
X154641Y38197D01*
X154649Y38186D01*
X154658Y38176D01*
X154668Y38167D01*
X154668Y38166D01*
X154678Y38158D01*
X154689Y38150D01*
X154690Y38150D01*
X154701Y38144D01*
X154713Y38138D01*
X154714Y38138D01*
X154726Y38134D01*
X154727Y38134D01*
X154739Y38131D01*
X157488Y37619D01*
X157501Y37616D01*
X157514Y37612D01*
X157526Y37607D01*
X157539Y37601D01*
X157551Y37594D01*
X157563Y37586D01*
X157575Y37578D01*
X157586Y37568D01*
X157596Y37558D01*
X157606Y37548D01*
X157616Y37537D01*
X157624Y37526D01*
X157632Y37514D01*
X157638Y37502D01*
X157644Y37490D01*
X157648Y37477D01*
X158506Y35334D01*
X158512Y35321D01*
X158516Y35309D01*
X158519Y35296D01*
X158522Y35282D01*
X158524Y35268D01*
X158525Y35253D01*
X158525Y35239D01*
X158524Y35224D01*
X158523Y35209D01*
X158521Y35195D01*
X158517Y35181D01*
X158514Y35167D01*
X158509Y35154D01*
X158504Y35142D01*
X158497Y35130D01*
X158490Y35119D01*
X156929Y32844D01*
X156929Y32843D01*
X156922Y32832D01*
X156916Y32820D01*
X156912Y32808D01*
X156912Y32807D01*
X156911Y32807D01*
X156908Y32794D01*
X156905Y32781D01*
X156904Y32768D01*
X156904Y32767D01*
X156903Y32754D01*
X156904Y32754D01*
X156903Y32754D01*
X156904Y32740D01*
X156906Y32727D01*
X156909Y32714D01*
X156909Y32713D01*
X156913Y32701D01*
X156913Y32700D01*
X156918Y32688D01*
X156924Y32676D01*
X156931Y32664D01*
X156939Y32653D01*
X156948Y32643D01*
X158999Y30593D01*
X158999Y30592D01*
X159009Y30584D01*
X159009Y30583D01*
X159020Y30576D01*
X159020Y30575D01*
X159031Y30569D01*
X159031Y30568D01*
X159043Y30563D01*
X159043Y30562D01*
X159056Y30558D01*
X159069Y30554D01*
X159082Y30551D01*
X159095Y30549D01*
X159096Y30549D01*
X159109Y30548D01*
X159109Y30549D01*
X159109Y30548D01*
X159123Y30549D01*
X159136Y30550D01*
X159149Y30553D01*
X159150Y30553D01*
X159162Y30556D01*
X159163Y30557D01*
X159163Y30556D01*
X159175Y30561D01*
X159187Y30567D01*
X159188Y30567D01*
X159199Y30574D01*
X161434Y32108D01*
X161445Y32115D01*
X161457Y32121D01*
X161469Y32126D01*
X161482Y32130D01*
X161495Y32134D01*
X161510Y32136D01*
X161523Y32138D01*
X161538Y32139D01*
X161552Y32139D01*
X161566Y32138D01*
X161580Y32137D01*
X161594Y32134D01*
X161607Y32131D01*
X161620Y32126D01*
X161632Y32121D01*
X162630Y31589D01*
X162642Y31584D01*
X162642Y31583D01*
X162654Y31579D01*
X162654Y31580D01*
X162654Y31579D01*
X162666Y31577D01*
X162667Y31577D01*
X162679Y31575D01*
X162691Y31575D01*
X162692Y31575D01*
X162704Y31576D01*
X162704Y31577D01*
X162704Y31576D01*
X162715Y31579D01*
X162716Y31579D01*
X162727Y31582D01*
X162727Y31583D01*
X162727Y31582D01*
X162738Y31587D01*
X162739Y31587D01*
X162749Y31593D01*
X162759Y31600D01*
X162768Y31608D01*
X162769Y31608D01*
X162777Y31617D01*
X162777Y31618D01*
X162785Y31627D01*
X162785Y31628D01*
X162792Y31638D01*
X162791Y31639D01*
X162792Y31639D01*
X162797Y31651D01*
X164830Y36561D01*
X164830Y36562D01*
X164834Y36574D01*
X164838Y36587D01*
X164837Y36587D01*
X164838Y36587D01*
X164840Y36600D01*
X164839Y36600D01*
X164840Y36601D01*
X164840Y36614D01*
X164840Y36627D01*
X164839Y36640D01*
X164839Y36641D01*
X164836Y36654D01*
X164833Y36666D01*
X164832Y36667D01*
X164828Y36679D01*
X164822Y36691D01*
X164822Y36692D01*
X164816Y36703D01*
X164815Y36703D01*
X164808Y36714D01*
X164799Y36724D01*
X164799Y36725D01*
X164790Y36734D01*
X164780Y36742D01*
X164779Y36742D01*
X164779Y36743D01*
X164769Y36750D01*
X164768Y36750D01*
X164513Y36907D01*
X164495Y36919D01*
X164475Y36932D01*
X164455Y36947D01*
X164435Y36963D01*
X164415Y36979D01*
X164395Y36995D01*
X164366Y37020D01*
X164366Y37021D01*
X164203Y37132D01*
X164047Y37254D01*
X163899Y37384D01*
X163760Y37523D01*
X163629Y37670D01*
X163508Y37826D01*
X163396Y37988D01*
X163293Y38158D01*
X163202Y38335D01*
X163121Y38517D01*
X163051Y38705D01*
X162994Y38899D01*
X162948Y39098D01*
X162915Y39301D01*
X162894Y39508D01*
X162888Y39719D01*
X162904Y40047D01*
X162953Y40364D01*
X163032Y40671D01*
X163139Y40966D01*
X163274Y41246D01*
X163435Y41510D01*
X163619Y41756D01*
X163826Y41984D01*
X164053Y42191D01*
X164300Y42375D01*
X164564Y42535D01*
X164844Y42670D01*
X165138Y42778D01*
X165445Y42857D01*
X165763Y42906D01*
X166091Y42922D01*
X166418Y42906D01*
X166736Y42857D01*
X167043Y42778D01*
X167338Y42670D01*
X167618Y42535D01*
X167882Y42375D01*
X168128Y42191D01*
X168356Y41984D01*
X168562Y41756D01*
X168747Y41510D01*
X168907Y41246D01*
X169042Y40966D01*
X169150Y40671D01*
X169229Y40364D01*
X169277Y40047D01*
X169294Y39719D01*
X169287Y39508D01*
X169267Y39301D01*
X169234Y39098D01*
X169188Y38899D01*
X169130Y38705D01*
X169060Y38517D01*
X168980Y38335D01*
X168888Y38158D01*
X168786Y37988D01*
X168674Y37826D01*
X168552Y37670D01*
X168421Y37523D01*
X168282Y37384D01*
X168134Y37253D01*
X167978Y37132D01*
X167815Y37021D01*
X167815Y37020D01*
X167796Y37004D01*
X167777Y36987D01*
X167757Y36971D01*
X167736Y36955D01*
X167716Y36940D01*
X167716Y36939D01*
X167696Y36925D01*
X167678Y36913D01*
X167660Y36901D01*
X167413Y36750D01*
X167402Y36743D01*
X167402Y36742D01*
X167392Y36734D01*
X167383Y36725D01*
X167383Y36724D01*
X167382Y36724D01*
X167374Y36714D01*
X167367Y36703D01*
X167366Y36703D01*
X167360Y36692D01*
X167360Y36691D01*
X167354Y36679D01*
X167349Y36667D01*
X167350Y36667D01*
X167349Y36666D01*
X167346Y36654D01*
X167343Y36641D01*
X167343Y36640D01*
X167342Y36627D01*
X167341Y36614D01*
X167342Y36601D01*
X167342Y36600D01*
X167344Y36587D01*
X167347Y36574D01*
X167348Y36574D01*
X167347Y36574D01*
X167352Y36562D01*
X167352Y36561D01*
X169384Y31650D01*
X169390Y31639D01*
X169390Y31638D01*
X169396Y31628D01*
X169397Y31627D01*
X169404Y31617D01*
X169413Y31608D01*
X169422Y31600D01*
X169432Y31593D01*
X169443Y31587D01*
X169454Y31582D01*
X169466Y31579D01*
X169478Y31576D01*
X169490Y31575D01*
X169502Y31575D01*
X169503Y31575D01*
X169515Y31576D01*
X169515Y31577D01*
X169527Y31579D01*
X169528Y31579D01*
X169540Y31583D01*
X169552Y31589D01*
X170549Y32121D01*
X170561Y32126D01*
X170574Y32130D01*
X170587Y32134D01*
X170601Y32136D01*
X170615Y32138D01*
X170630Y32139D01*
X170644Y32139D01*
X170658Y32138D01*
X170672Y32136D01*
X170686Y32134D01*
X170700Y32130D01*
X170712Y32126D01*
X170725Y32121D01*
X170736Y32115D01*
X170748Y32108D01*
X172983Y30574D01*
X172994Y30567D01*
X173006Y30561D01*
X173007Y30561D01*
X173019Y30556D01*
X173032Y30553D01*
X173032Y30552D01*
X173045Y30550D01*
X173059Y30549D01*
X173072Y30548D01*
X173073Y30548D01*
X173086Y30549D01*
G37*
G36*
X29110Y18326D02*
X29110Y18326D01*
X29113Y18327D01*
X29113Y18328D01*
X29114Y18329D01*
X29114Y24062D01*
X29112Y24064D01*
X29112Y24065D01*
X14715Y32314D01*
X21663Y36391D01*
X22357Y33862D01*
X22373Y33811D01*
X22393Y33762D01*
X22417Y33716D01*
X22417Y33715D01*
X22444Y33672D01*
X22444Y33671D01*
X22475Y33630D01*
X22509Y33592D01*
X22509Y33591D01*
X22545Y33556D01*
X22546Y33556D01*
X22585Y33523D01*
X22627Y33494D01*
X22671Y33468D01*
X22717Y33445D01*
X22765Y33427D01*
X22815Y33412D01*
X22866Y33401D01*
X22918Y33395D01*
X22919Y33395D01*
X22972Y33392D01*
X22972Y33393D01*
X22972Y33392D01*
X24014Y33392D01*
X24014Y33393D01*
X24014Y33392D01*
X24068Y33395D01*
X24121Y33401D01*
X24121Y33402D01*
X24121Y33401D01*
X24173Y33413D01*
X24223Y33428D01*
X24272Y33447D01*
X24318Y33470D01*
X24319Y33470D01*
X24363Y33496D01*
X24363Y33497D01*
X24405Y33527D01*
X24445Y33560D01*
X24482Y33597D01*
X24516Y33636D01*
X24546Y33678D01*
X24546Y33679D01*
X24573Y33724D01*
X24597Y33771D01*
X24616Y33821D01*
X24632Y33873D01*
X25908Y38883D01*
X26304Y39115D01*
X29107Y37489D01*
X29108Y37489D01*
X29109Y37489D01*
X29110Y37490D01*
X29113Y37490D01*
X29113Y37492D01*
X29114Y37493D01*
X29114Y38959D01*
X29112Y38961D01*
X29112Y38963D01*
X26623Y40406D01*
X26605Y40416D01*
X26586Y40426D01*
X26568Y40434D01*
X26567Y40434D01*
X26549Y40442D01*
X26530Y40450D01*
X26511Y40457D01*
X26510Y40457D01*
X26491Y40463D01*
X26472Y40468D01*
X26471Y40468D01*
X26452Y40473D01*
X26432Y40477D01*
X26412Y40481D01*
X26392Y40484D01*
X26373Y40486D01*
X26372Y40486D01*
X26353Y40488D01*
X26352Y40488D01*
X26333Y40489D01*
X26318Y40490D01*
X28816Y50296D01*
X28831Y50330D01*
X28844Y50365D01*
X28857Y50400D01*
X28869Y50436D01*
X28880Y50471D01*
X28891Y50507D01*
X28901Y50542D01*
X28910Y50578D01*
X28926Y50650D01*
X28941Y50723D01*
X28953Y50796D01*
X28952Y50796D01*
X28953Y50796D01*
X28962Y50869D01*
X28983Y50951D01*
X28983Y50952D01*
X28984Y50952D01*
X28983Y50952D01*
X28984Y50952D01*
X28984Y50954D01*
X28984Y50957D01*
X28983Y50957D01*
X28984Y50958D01*
X28984Y50959D01*
X28983Y50960D01*
X28983Y50961D01*
X28983Y50962D01*
X28981Y50968D01*
X28981Y50969D01*
X28980Y50969D01*
X28981Y50969D01*
X28980Y50971D01*
X28980Y50972D01*
X28980Y50973D01*
X28980Y50975D01*
X28981Y50983D01*
X28982Y50991D01*
X28984Y50999D01*
X28985Y51008D01*
X28996Y51057D01*
X28998Y51065D01*
X28999Y51074D01*
X29001Y51082D01*
X29002Y51091D01*
X29002Y51099D01*
X29002Y51108D01*
X28999Y51146D01*
X28995Y51150D01*
X27721Y51150D01*
X27719Y51147D01*
X27717Y51147D01*
X27597Y50676D01*
X27501Y50524D01*
X27378Y50373D01*
X27229Y50226D01*
X27055Y50083D01*
X26856Y49945D01*
X26634Y49814D01*
X26390Y49690D01*
X26124Y49574D01*
X25837Y49468D01*
X25531Y49373D01*
X25205Y49289D01*
X24862Y49219D01*
X24502Y49162D01*
X24125Y49120D01*
X23733Y49094D01*
X23326Y49085D01*
X22926Y49094D01*
X22539Y49119D01*
X22168Y49160D01*
X21812Y49215D01*
X21473Y49284D01*
X21152Y49365D01*
X20848Y49458D01*
X20564Y49561D01*
X20300Y49674D01*
X20057Y49795D01*
X19835Y49923D01*
X19636Y50058D01*
X19460Y50198D01*
X19308Y50343D01*
X19182Y50490D01*
X19081Y50640D01*
X18940Y51147D01*
X18937Y51149D01*
X18936Y51150D01*
X17659Y51150D01*
X17655Y51146D01*
X17652Y51108D01*
X17652Y51099D01*
X17652Y51098D01*
X17653Y51089D01*
X17654Y51080D01*
X17655Y51071D01*
X17655Y51070D01*
X17657Y51061D01*
X17661Y51043D01*
X17669Y51007D01*
X17671Y50998D01*
X17673Y50989D01*
X17674Y50981D01*
X17675Y50971D01*
X17676Y50962D01*
X17676Y50961D01*
X17676Y50959D01*
X17676Y50958D01*
X17676Y50957D01*
X17676Y50956D01*
X17674Y50951D01*
X17674Y50950D01*
X17673Y50949D01*
X17674Y50948D01*
X17673Y50947D01*
X17673Y50946D01*
X17673Y50945D01*
X17673Y50944D01*
X17673Y50942D01*
X17673Y50941D01*
X17674Y50941D01*
X17690Y50882D01*
X17695Y50841D01*
X17701Y50800D01*
X17707Y50760D01*
X17707Y50759D01*
X17714Y50719D01*
X17722Y50678D01*
X17731Y50638D01*
X17741Y50598D01*
X17752Y50558D01*
X17763Y50519D01*
X17763Y50518D01*
X17775Y50479D01*
X17788Y50439D01*
X17801Y50401D01*
X17801Y50400D01*
X17816Y50361D01*
X17831Y50323D01*
X17831Y50322D01*
X17847Y50284D01*
X17864Y50246D01*
X21314Y37665D01*
X13121Y32857D01*
X13115Y32854D01*
X13115Y32853D01*
X13109Y32850D01*
X13109Y32849D01*
X13104Y32845D01*
X13099Y32841D01*
X13094Y32836D01*
X13090Y32831D01*
X13086Y32826D01*
X13064Y32800D01*
X13060Y32796D01*
X13056Y32791D01*
X13051Y32787D01*
X13036Y32773D01*
X13026Y32765D01*
X13017Y32756D01*
X13008Y32747D01*
X13000Y32738D01*
X12991Y32729D01*
X12974Y32709D01*
X12957Y32689D01*
X12941Y32668D01*
X12926Y32647D01*
X12925Y32647D01*
X12911Y32626D01*
X12911Y32625D01*
X12897Y32604D01*
X12885Y32581D01*
X12873Y32559D01*
X12862Y32536D01*
X12862Y32535D01*
X12852Y32512D01*
X12843Y32488D01*
X12835Y32463D01*
X12828Y32438D01*
X12823Y32413D01*
X12823Y32412D01*
X12819Y32387D01*
X12815Y32361D01*
X12815Y32360D01*
X12814Y32334D01*
X12814Y32333D01*
X12813Y32333D01*
X12813Y32332D01*
X12813Y32331D01*
X12813Y32330D01*
X12812Y32330D01*
X12812Y32329D01*
X12810Y32326D01*
X12809Y32325D01*
X12808Y32324D01*
X12808Y32323D01*
X12807Y32322D01*
X12808Y32321D01*
X12807Y32321D01*
X12807Y32320D01*
X12807Y32319D01*
X12806Y32318D01*
X12807Y32318D01*
X12806Y32318D01*
X12806Y32316D01*
X12741Y27834D01*
X12742Y27791D01*
X12742Y27790D01*
X12745Y27747D01*
X12746Y27747D01*
X12745Y27747D01*
X12752Y27705D01*
X12761Y27663D01*
X12762Y27663D01*
X12774Y27623D01*
X12774Y27622D01*
X12789Y27583D01*
X12806Y27544D01*
X12826Y27507D01*
X12848Y27471D01*
X12849Y27471D01*
X12848Y27471D01*
X12873Y27436D01*
X12900Y27404D01*
X12901Y27404D01*
X12901Y27403D01*
X12930Y27372D01*
X12961Y27343D01*
X12995Y27316D01*
X13030Y27291D01*
X13068Y27268D01*
X29107Y18326D01*
X29108Y18326D01*
X29109Y18325D01*
X29110Y18326D01*
G37*
G36*
X156402Y16183D02*
X156402Y16183D01*
X156404Y16184D01*
X156806Y17319D01*
X157193Y18492D01*
X157559Y19674D01*
X157892Y20835D01*
X158457Y23030D01*
X158874Y24918D01*
X158873Y24919D01*
X158871Y24923D01*
X158871Y24922D01*
X158870Y24923D01*
X157048Y24923D01*
X157044Y24920D01*
X157043Y24919D01*
X157015Y24767D01*
X157015Y24766D01*
X156953Y24435D01*
X156892Y24104D01*
X156892Y24103D01*
X156817Y23700D01*
X156816Y23700D01*
X156755Y23368D01*
X156693Y23037D01*
X156618Y22633D01*
X156556Y22302D01*
X156556Y22301D01*
X156492Y21957D01*
X156084Y20072D01*
X155859Y19160D01*
X155634Y18338D01*
X155525Y17978D01*
X155415Y18343D01*
X155186Y19174D01*
X154736Y21024D01*
X154532Y21972D01*
X154180Y23782D01*
X154053Y24567D01*
X154006Y24919D01*
X154002Y24923D01*
X152166Y24923D01*
X152165Y24923D01*
X152165Y24922D01*
X152162Y24919D01*
X152162Y24918D01*
X152325Y24130D01*
X152325Y24129D01*
X152558Y23140D01*
X153164Y20835D01*
X153884Y18385D01*
X154604Y16184D01*
X154607Y16182D01*
X154608Y16181D01*
X156400Y16181D01*
X156402Y16183D01*
G37*
G36*
X165561Y16185D02*
X165561Y16185D01*
X165561Y17625D01*
X165557Y17629D01*
X161809Y17629D01*
X161810Y17652D01*
X161812Y17679D01*
X161812Y17681D01*
X161812Y17685D01*
X161813Y17693D01*
X161814Y17702D01*
X161815Y17706D01*
X161818Y17733D01*
X161824Y17761D01*
X161830Y17789D01*
X161837Y17817D01*
X161846Y17846D01*
X161855Y17875D01*
X161866Y17905D01*
X161879Y17934D01*
X161892Y17965D01*
X161906Y17995D01*
X161922Y18026D01*
X161939Y18057D01*
X161994Y18151D01*
X162034Y18215D01*
X162075Y18278D01*
X162119Y18341D01*
X162165Y18403D01*
X162213Y18466D01*
X162263Y18528D01*
X162315Y18590D01*
X162506Y18802D01*
X162619Y18922D01*
X162736Y19040D01*
X163508Y19772D01*
X163866Y20129D01*
X164039Y20314D01*
X164205Y20502D01*
X164284Y20597D01*
X164362Y20693D01*
X164362Y20694D01*
X164436Y20790D01*
X164509Y20888D01*
X164579Y20987D01*
X164647Y21087D01*
X164711Y21187D01*
X164771Y21288D01*
X164827Y21390D01*
X164880Y21492D01*
X164929Y21595D01*
X164975Y21699D01*
X165016Y21803D01*
X165017Y21803D01*
X165036Y21856D01*
X165054Y21909D01*
X165071Y21962D01*
X165086Y22015D01*
X165100Y22069D01*
X165103Y22079D01*
X165108Y22101D01*
X165111Y22113D01*
X165113Y22123D01*
X165125Y22177D01*
X165135Y22231D01*
X165135Y22232D01*
X165136Y22237D01*
X165137Y22241D01*
X165137Y22245D01*
X165139Y22258D01*
X165140Y22262D01*
X165141Y22266D01*
X165141Y22271D01*
X165142Y22275D01*
X165144Y22286D01*
X165144Y22288D01*
X165146Y22300D01*
X165147Y22309D01*
X165149Y22322D01*
X165150Y22334D01*
X165151Y22334D01*
X165150Y22334D01*
X165151Y22341D01*
X165152Y22343D01*
X165152Y22347D01*
X165153Y22351D01*
X165153Y22356D01*
X165153Y22360D01*
X165154Y22364D01*
X165154Y22368D01*
X165155Y22373D01*
X165155Y22377D01*
X165156Y22381D01*
X165156Y22385D01*
X165157Y22390D01*
X165157Y22394D01*
X165157Y22396D01*
X165158Y22398D01*
X165158Y22402D01*
X165158Y22407D01*
X165159Y22415D01*
X165159Y22419D01*
X165160Y22424D01*
X165160Y22428D01*
X165161Y22432D01*
X165161Y22436D01*
X165161Y22441D01*
X165162Y22445D01*
X165162Y22449D01*
X165162Y22451D01*
X165162Y22452D01*
X165163Y22466D01*
X165166Y22507D01*
X165166Y22508D01*
X165168Y22564D01*
X165168Y22621D01*
X165167Y22698D01*
X165165Y22774D01*
X165160Y22848D01*
X165154Y22922D01*
X165146Y22994D01*
X165146Y22995D01*
X165136Y23066D01*
X165125Y23136D01*
X165112Y23205D01*
X165111Y23205D01*
X165096Y23273D01*
X165079Y23339D01*
X165079Y23340D01*
X165061Y23405D01*
X165040Y23469D01*
X165018Y23532D01*
X164994Y23594D01*
X164968Y23655D01*
X164941Y23714D01*
X164940Y23715D01*
X164941Y23715D01*
X164912Y23773D01*
X164881Y23831D01*
X164850Y23887D01*
X164818Y23942D01*
X164817Y23942D01*
X164818Y23942D01*
X164784Y23996D01*
X164749Y24048D01*
X164713Y24100D01*
X164676Y24149D01*
X164637Y24198D01*
X164598Y24245D01*
X164557Y24291D01*
X164515Y24336D01*
X164514Y24336D01*
X164471Y24379D01*
X164426Y24421D01*
X164380Y24462D01*
X164333Y24501D01*
X164333Y24502D01*
X164285Y24540D01*
X164236Y24577D01*
X164235Y24577D01*
X164185Y24612D01*
X164185Y24613D01*
X164134Y24647D01*
X164083Y24680D01*
X164083Y24681D01*
X164030Y24713D01*
X163976Y24744D01*
X163976Y24743D01*
X163976Y24744D01*
X163922Y24773D01*
X163867Y24802D01*
X163811Y24829D01*
X163754Y24855D01*
X163696Y24880D01*
X163637Y24904D01*
X163578Y24926D01*
X163518Y24947D01*
X163457Y24967D01*
X163394Y24986D01*
X163332Y25004D01*
X163269Y25020D01*
X163206Y25035D01*
X163143Y25049D01*
X163079Y25062D01*
X163016Y25074D01*
X163016Y25073D01*
X163015Y25074D01*
X162951Y25084D01*
X162887Y25093D01*
X162822Y25101D01*
X162757Y25107D01*
X162691Y25113D01*
X162625Y25117D01*
X162559Y25120D01*
X162492Y25122D01*
X162425Y25123D01*
X162333Y25121D01*
X162242Y25118D01*
X162241Y25118D01*
X162149Y25112D01*
X162057Y25105D01*
X161965Y25095D01*
X161873Y25082D01*
X161781Y25068D01*
X161689Y25051D01*
X161688Y25051D01*
X161596Y25032D01*
X161504Y25011D01*
X161411Y24988D01*
X161319Y24963D01*
X161319Y24962D01*
X161227Y24935D01*
X161134Y24905D01*
X161042Y24874D01*
X160949Y24840D01*
X160857Y24803D01*
X160767Y24764D01*
X160678Y24723D01*
X160678Y24722D01*
X160678Y24723D01*
X160590Y24679D01*
X160503Y24632D01*
X160418Y24584D01*
X160334Y24533D01*
X160252Y24479D01*
X160171Y24424D01*
X160171Y24423D01*
X160091Y24365D01*
X160013Y24304D01*
X160012Y24304D01*
X159936Y24241D01*
X159935Y24241D01*
X159860Y24176D01*
X159786Y24107D01*
X159713Y24037D01*
X159642Y23964D01*
X159642Y23959D01*
X159642Y23958D01*
X160503Y22746D01*
X160503Y22745D01*
X160504Y22745D01*
X160508Y22744D01*
X160509Y22745D01*
X160564Y22802D01*
X160619Y22857D01*
X160674Y22910D01*
X160729Y22961D01*
X160785Y23009D01*
X160840Y23056D01*
X160895Y23100D01*
X160951Y23143D01*
X161006Y23183D01*
X161062Y23221D01*
X161117Y23257D01*
X161173Y23291D01*
X161229Y23323D01*
X161285Y23353D01*
X161341Y23380D01*
X161397Y23406D01*
X161453Y23430D01*
X161509Y23452D01*
X161564Y23473D01*
X161619Y23492D01*
X161674Y23510D01*
X161729Y23526D01*
X161783Y23541D01*
X161837Y23554D01*
X161891Y23566D01*
X161944Y23577D01*
X161997Y23585D01*
X162050Y23592D01*
X162102Y23598D01*
X162154Y23602D01*
X162205Y23604D01*
X162256Y23605D01*
X162317Y23604D01*
X162376Y23601D01*
X162434Y23595D01*
X162491Y23587D01*
X162547Y23577D01*
X162601Y23565D01*
X162654Y23550D01*
X162706Y23533D01*
X162756Y23514D01*
X162805Y23492D01*
X162853Y23469D01*
X162899Y23443D01*
X162944Y23415D01*
X162988Y23384D01*
X163029Y23352D01*
X163070Y23317D01*
X163110Y23280D01*
X163146Y23241D01*
X163180Y23200D01*
X163212Y23158D01*
X163212Y23157D01*
X163241Y23113D01*
X163268Y23066D01*
X163292Y23017D01*
X163314Y22967D01*
X163333Y22914D01*
X163350Y22860D01*
X163364Y22804D01*
X163375Y22746D01*
X163384Y22685D01*
X163391Y22623D01*
X163395Y22559D01*
X163396Y22493D01*
X163395Y22446D01*
X163392Y22398D01*
X163391Y22395D01*
X163391Y22391D01*
X163390Y22378D01*
X163389Y22374D01*
X163389Y22370D01*
X163389Y22369D01*
X163388Y22365D01*
X163388Y22361D01*
X163387Y22357D01*
X163387Y22351D01*
X163383Y22327D01*
X163382Y22323D01*
X163382Y22319D01*
X163382Y22318D01*
X163381Y22314D01*
X163380Y22310D01*
X163380Y22306D01*
X163379Y22304D01*
X163379Y22302D01*
X163379Y22301D01*
X163378Y22297D01*
X163377Y22293D01*
X163375Y22280D01*
X163374Y22276D01*
X163373Y22272D01*
X163372Y22268D01*
X163372Y22267D01*
X163371Y22263D01*
X163370Y22259D01*
X163370Y22257D01*
X163359Y22210D01*
X163345Y22163D01*
X163330Y22117D01*
X163312Y22070D01*
X163293Y22024D01*
X163272Y21978D01*
X163248Y21932D01*
X163223Y21886D01*
X163195Y21840D01*
X163166Y21794D01*
X163135Y21748D01*
X163067Y21656D01*
X162995Y21563D01*
X162918Y21469D01*
X162838Y21374D01*
X162753Y21279D01*
X162752Y21279D01*
X162663Y21182D01*
X162569Y21085D01*
X161496Y20052D01*
X161274Y19829D01*
X161274Y19828D01*
X161166Y19713D01*
X161059Y19596D01*
X160955Y19476D01*
X160954Y19476D01*
X160852Y19354D01*
X160751Y19230D01*
X160653Y19103D01*
X160652Y19103D01*
X160558Y18973D01*
X160469Y18841D01*
X160469Y18840D01*
X160384Y18705D01*
X160383Y18705D01*
X160303Y18566D01*
X160302Y18566D01*
X160226Y18425D01*
X160154Y18281D01*
X160086Y18133D01*
X160054Y18059D01*
X160025Y17984D01*
X159997Y17908D01*
X159972Y17831D01*
X159948Y17753D01*
X159927Y17674D01*
X159907Y17594D01*
X159890Y17513D01*
X159874Y17432D01*
X159874Y17431D01*
X159874Y17427D01*
X159871Y17410D01*
X159870Y17406D01*
X159870Y17405D01*
X159869Y17401D01*
X159869Y17397D01*
X159868Y17393D01*
X159865Y17376D01*
X159865Y17372D01*
X159865Y17371D01*
X159864Y17367D01*
X159863Y17363D01*
X159862Y17359D01*
X159861Y17349D01*
X159860Y17342D01*
X159858Y17329D01*
X159857Y17321D01*
X159857Y17320D01*
X159855Y17308D01*
X159853Y17295D01*
X159852Y17282D01*
X159850Y17270D01*
X159850Y17269D01*
X159849Y17266D01*
X159850Y17266D01*
X159849Y17266D01*
X159849Y17265D01*
X159849Y17261D01*
X159848Y17257D01*
X159848Y17253D01*
X159848Y17252D01*
X159848Y17248D01*
X159847Y17244D01*
X159847Y17240D01*
X159846Y17236D01*
X159846Y17235D01*
X159846Y17231D01*
X159845Y17227D01*
X159845Y17223D01*
X159844Y17219D01*
X159844Y17218D01*
X159844Y17214D01*
X159843Y17210D01*
X159843Y17206D01*
X159842Y17202D01*
X159842Y17201D01*
X159842Y17197D01*
X159840Y17182D01*
X159840Y17181D01*
X159840Y17180D01*
X159840Y17176D01*
X159839Y17172D01*
X159839Y17168D01*
X159839Y17167D01*
X159839Y17163D01*
X159838Y17159D01*
X159838Y17155D01*
X159838Y17151D01*
X159838Y17150D01*
X159837Y17146D01*
X159837Y17142D01*
X159836Y17138D01*
X159836Y17134D01*
X159836Y17133D01*
X159836Y17129D01*
X159835Y17125D01*
X159835Y17121D01*
X159835Y17117D01*
X159835Y17116D01*
X159834Y17112D01*
X159834Y17104D01*
X159833Y17104D01*
X159834Y17104D01*
X159833Y17100D01*
X159833Y17099D01*
X159833Y17097D01*
X159833Y17096D01*
X159828Y17014D01*
X159828Y17011D01*
X159824Y16924D01*
X159825Y16924D01*
X159824Y16924D01*
X159823Y16719D01*
X159817Y16540D01*
X159816Y16488D01*
X159817Y16439D01*
X159817Y16438D01*
X159819Y16391D01*
X159820Y16368D01*
X159821Y16368D01*
X159820Y16368D01*
X159823Y16345D01*
X159825Y16324D01*
X159825Y16323D01*
X159828Y16302D01*
X159831Y16281D01*
X159835Y16261D01*
X159839Y16241D01*
X159844Y16221D01*
X159849Y16202D01*
X159855Y16184D01*
X159858Y16182D01*
X159859Y16181D01*
X165557Y16181D01*
X165561Y16185D01*
G37*
G36*
X33049Y41293D02*
X33049Y41293D01*
X33050Y41294D01*
X33053Y41297D01*
X33052Y41298D01*
X33053Y41298D01*
X33046Y41324D01*
X33037Y41365D01*
X33028Y41405D01*
X33020Y41445D01*
X33013Y41486D01*
X33007Y41526D01*
X33002Y41567D01*
X32998Y41608D01*
X32995Y41649D01*
X32993Y41690D01*
X32993Y41731D01*
X33029Y42099D01*
X33134Y42457D01*
X33306Y42805D01*
X33540Y43139D01*
X33832Y43459D01*
X34179Y43761D01*
X34578Y44044D01*
X35023Y44306D01*
X35512Y44544D01*
X36041Y44757D01*
X36605Y44943D01*
X37203Y45100D01*
X37828Y45225D01*
X38478Y45318D01*
X39149Y45374D01*
X39837Y45394D01*
X40526Y45374D01*
X41197Y45318D01*
X41847Y45225D01*
X42472Y45100D01*
X43069Y44943D01*
X43634Y44757D01*
X44162Y44544D01*
X44651Y44306D01*
X45096Y44044D01*
X45495Y43761D01*
X45842Y43459D01*
X46134Y43139D01*
X46368Y42805D01*
X46539Y42457D01*
X46645Y42099D01*
X46681Y41731D01*
X46680Y41691D01*
X46679Y41652D01*
X46675Y41612D01*
X46672Y41573D01*
X46666Y41533D01*
X46667Y41533D01*
X46661Y41494D01*
X46654Y41455D01*
X46646Y41416D01*
X46637Y41377D01*
X46628Y41338D01*
X46618Y41299D01*
X46618Y41298D01*
X46617Y41298D01*
X46618Y41297D01*
X46620Y41293D01*
X46621Y41294D01*
X46622Y41293D01*
X47906Y41293D01*
X47909Y41296D01*
X47910Y41297D01*
X47916Y41329D01*
X47925Y41378D01*
X47932Y41428D01*
X47939Y41478D01*
X47945Y41528D01*
X47949Y41579D01*
X47952Y41629D01*
X47955Y41680D01*
X47955Y41731D01*
X47955Y41732D01*
X47914Y42243D01*
X47914Y42244D01*
X47793Y42738D01*
X47793Y42739D01*
X47596Y43215D01*
X47596Y43216D01*
X47327Y43671D01*
X47326Y43671D01*
X47326Y43672D01*
X46989Y44104D01*
X46587Y44511D01*
X46586Y44511D01*
X46124Y44890D01*
X46123Y44890D01*
X45603Y45238D01*
X45603Y45239D01*
X45029Y45555D01*
X44406Y45836D01*
X44406Y45837D01*
X43737Y46081D01*
X43026Y46286D01*
X42277Y46450D01*
X41493Y46570D01*
X41493Y46569D01*
X41493Y46570D01*
X40679Y46643D01*
X39838Y46668D01*
X39837Y46668D01*
X38996Y46643D01*
X38182Y46570D01*
X38182Y46569D01*
X38182Y46570D01*
X37398Y46450D01*
X36649Y46286D01*
X36648Y46286D01*
X35938Y46081D01*
X35937Y46081D01*
X35269Y45837D01*
X35268Y45836D01*
X34645Y45555D01*
X34071Y45239D01*
X34071Y45238D01*
X33551Y44890D01*
X33087Y44511D01*
X33087Y44510D01*
X33087Y44511D01*
X32685Y44104D01*
X32347Y43672D01*
X32347Y43671D01*
X32078Y43216D01*
X32078Y43215D01*
X32077Y43215D01*
X31880Y42739D01*
X31881Y42739D01*
X31880Y42738D01*
X31759Y42244D01*
X31760Y42243D01*
X31759Y42243D01*
X31718Y41732D01*
X31718Y41731D01*
X31719Y41681D01*
X31721Y41631D01*
X31721Y41630D01*
X31724Y41581D01*
X31729Y41531D01*
X31734Y41481D01*
X31741Y41432D01*
X31757Y41334D01*
X31764Y41297D01*
X31768Y41294D01*
X31768Y41293D01*
X33049Y41293D01*
X33049Y41293D01*
G37*
G36*
X176860Y16003D02*
X176860Y16003D01*
X176861Y16003D01*
X177038Y16016D01*
X177209Y16038D01*
X177210Y16038D01*
X177375Y16069D01*
X177376Y16069D01*
X177536Y16109D01*
X177691Y16157D01*
X177841Y16215D01*
X177985Y16281D01*
X178123Y16356D01*
X178256Y16440D01*
X178384Y16533D01*
X178505Y16635D01*
X178506Y16635D01*
X178622Y16745D01*
X178733Y16865D01*
X178838Y16993D01*
X178938Y17130D01*
X179032Y17276D01*
X179120Y17431D01*
X179201Y17595D01*
X179277Y17768D01*
X179277Y17769D01*
X179347Y17951D01*
X179411Y18143D01*
X179468Y18345D01*
X179520Y18555D01*
X179565Y18775D01*
X179605Y19004D01*
X179638Y19243D01*
X179665Y19491D01*
X179686Y19747D01*
X179686Y19748D01*
X179702Y20014D01*
X179711Y20289D01*
X179711Y20290D01*
X179714Y20574D01*
X179712Y20671D01*
X179709Y20675D01*
X179708Y20675D01*
X178144Y20675D01*
X178139Y20671D01*
X178140Y20671D01*
X178139Y20671D01*
X178141Y20574D01*
X178135Y20208D01*
X178128Y20034D01*
X178118Y19865D01*
X178105Y19702D01*
X178088Y19545D01*
X178070Y19393D01*
X178064Y19356D01*
X178048Y19247D01*
X178023Y19106D01*
X177995Y18972D01*
X177964Y18842D01*
X177930Y18719D01*
X177894Y18601D01*
X177854Y18489D01*
X177811Y18382D01*
X177766Y18282D01*
X177718Y18187D01*
X177668Y18099D01*
X177615Y18017D01*
X177614Y18017D01*
X177558Y17941D01*
X177500Y17871D01*
X177439Y17807D01*
X177375Y17749D01*
X177308Y17697D01*
X177238Y17651D01*
X177166Y17612D01*
X177091Y17578D01*
X177014Y17551D01*
X176934Y17530D01*
X176851Y17514D01*
X176766Y17505D01*
X176678Y17502D01*
X176591Y17505D01*
X176507Y17514D01*
X176425Y17530D01*
X176346Y17551D01*
X176269Y17578D01*
X176195Y17612D01*
X176124Y17652D01*
X176055Y17697D01*
X175988Y17749D01*
X175925Y17807D01*
X175864Y17871D01*
X175805Y17941D01*
X175749Y18017D01*
X175696Y18099D01*
X175645Y18187D01*
X175596Y18282D01*
X175550Y18383D01*
X175507Y18489D01*
X175466Y18601D01*
X175429Y18719D01*
X175395Y18842D01*
X175364Y18972D01*
X175335Y19106D01*
X175310Y19247D01*
X175287Y19393D01*
X175268Y19545D01*
X175252Y19702D01*
X175238Y19865D01*
X175228Y20034D01*
X175220Y20208D01*
X175214Y20574D01*
X175216Y20671D01*
X175212Y20675D01*
X173644Y20675D01*
X173639Y20671D01*
X173640Y20671D01*
X173639Y20671D01*
X173638Y20574D01*
X173641Y20290D01*
X173641Y20289D01*
X173650Y20014D01*
X173666Y19748D01*
X173666Y19747D01*
X173687Y19491D01*
X173714Y19243D01*
X173747Y19004D01*
X173748Y19004D01*
X173787Y18775D01*
X173833Y18555D01*
X173884Y18345D01*
X173942Y18143D01*
X174006Y17951D01*
X174076Y17769D01*
X174076Y17768D01*
X174152Y17595D01*
X174235Y17431D01*
X174323Y17276D01*
X174418Y17130D01*
X174517Y16993D01*
X174518Y16993D01*
X174623Y16865D01*
X174733Y16745D01*
X174734Y16745D01*
X174850Y16635D01*
X174971Y16533D01*
X174972Y16533D01*
X175099Y16440D01*
X175232Y16356D01*
X175370Y16281D01*
X175371Y16281D01*
X175514Y16215D01*
X175515Y16215D01*
X175664Y16157D01*
X175819Y16109D01*
X175980Y16069D01*
X176146Y16038D01*
X176317Y16016D01*
X176318Y16016D01*
X176495Y16003D01*
X176678Y15998D01*
X176860Y16003D01*
G37*
G36*
X18933Y51151D02*
X18933Y51151D01*
X18934Y51152D01*
X18937Y51155D01*
X18937Y51156D01*
X18968Y51333D01*
X19038Y51511D01*
X19145Y51687D01*
X19288Y51861D01*
X19467Y52030D01*
X19678Y52193D01*
X19922Y52349D01*
X20197Y52495D01*
X20500Y52630D01*
X20832Y52752D01*
X21189Y52860D01*
X21572Y52952D01*
X21979Y53027D01*
X22407Y53082D01*
X22857Y53116D01*
X23326Y53128D01*
X23797Y53116D01*
X24247Y53082D01*
X24677Y53026D01*
X25084Y52952D01*
X25468Y52859D01*
X25826Y52751D01*
X26158Y52628D01*
X26462Y52493D01*
X26737Y52346D01*
X26981Y52190D01*
X27192Y52026D01*
X27370Y51857D01*
X27513Y51682D01*
X27620Y51505D01*
X27689Y51327D01*
X27718Y51155D01*
X27721Y51152D01*
X27722Y51151D01*
X28994Y51151D01*
X28999Y51155D01*
X28998Y51155D01*
X28999Y51156D01*
X28974Y51449D01*
X28973Y51450D01*
X28974Y51450D01*
X28889Y51780D01*
X28889Y51781D01*
X28751Y52098D01*
X28751Y52099D01*
X28563Y52402D01*
X28563Y52403D01*
X28327Y52691D01*
X28326Y52691D01*
X28045Y52962D01*
X28045Y52963D01*
X27721Y53216D01*
X27358Y53448D01*
X27357Y53448D01*
X27357Y53449D01*
X26956Y53659D01*
X26956Y53660D01*
X26521Y53847D01*
X26520Y53847D01*
X26520Y53848D01*
X26053Y54011D01*
X26053Y54010D01*
X26053Y54011D01*
X25556Y54148D01*
X25555Y54148D01*
X25032Y54257D01*
X24484Y54337D01*
X24263Y54356D01*
X24165Y54364D01*
X24066Y54373D01*
X23968Y54381D01*
X23915Y54386D01*
X23914Y54386D01*
X23326Y54402D01*
X22739Y54386D01*
X22738Y54386D01*
X22169Y54337D01*
X21622Y54257D01*
X21621Y54257D01*
X21098Y54148D01*
X20601Y54011D01*
X20601Y54010D01*
X20601Y54011D01*
X20134Y53848D01*
X20133Y53847D01*
X19698Y53660D01*
X19698Y53659D01*
X19297Y53449D01*
X19297Y53448D01*
X18933Y53216D01*
X18933Y53215D01*
X18933Y53216D01*
X18609Y52963D01*
X18609Y52962D01*
X18328Y52691D01*
X18327Y52691D01*
X18091Y52403D01*
X18091Y52402D01*
X17903Y52099D01*
X17903Y52098D01*
X17765Y51781D01*
X17765Y51780D01*
X17680Y51450D01*
X17681Y51450D01*
X17680Y51449D01*
X17656Y51156D01*
X17659Y51151D01*
X17659Y51152D01*
X17660Y51151D01*
X18933Y51151D01*
X18933Y51151D01*
G37*
G36*
X175216Y20680D02*
X175216Y20680D01*
X175216Y20681D01*
X175220Y20936D01*
X175228Y21109D01*
X175238Y21277D01*
X175252Y21439D01*
X175268Y21595D01*
X175287Y21745D01*
X175310Y21890D01*
X175335Y22030D01*
X175364Y22164D01*
X175395Y22292D01*
X175429Y22415D01*
X175466Y22532D01*
X175507Y22644D01*
X175550Y22750D01*
X175596Y22849D01*
X175645Y22944D01*
X175696Y23033D01*
X175749Y23116D01*
X175805Y23193D01*
X175864Y23263D01*
X175925Y23327D01*
X175988Y23385D01*
X176055Y23437D01*
X176124Y23483D01*
X176195Y23523D01*
X176269Y23556D01*
X176346Y23584D01*
X176425Y23605D01*
X176507Y23621D01*
X176591Y23630D01*
X176678Y23633D01*
X176766Y23630D01*
X176851Y23621D01*
X176934Y23605D01*
X177014Y23584D01*
X177091Y23556D01*
X177166Y23523D01*
X177238Y23483D01*
X177308Y23437D01*
X177374Y23385D01*
X177439Y23327D01*
X177500Y23263D01*
X177558Y23192D01*
X177614Y23116D01*
X177668Y23033D01*
X177718Y22945D01*
X177766Y22850D01*
X177812Y22749D01*
X177854Y22644D01*
X177894Y22532D01*
X177930Y22415D01*
X177964Y22292D01*
X177995Y22164D01*
X178023Y22030D01*
X178048Y21890D01*
X178070Y21746D01*
X178070Y21745D01*
X178088Y21595D01*
X178105Y21439D01*
X178118Y21277D01*
X178128Y21109D01*
X178135Y20936D01*
X178139Y20681D01*
X178143Y20677D01*
X178144Y20677D01*
X179708Y20677D01*
X179712Y20680D01*
X179712Y20681D01*
X179711Y20857D01*
X179702Y21131D01*
X179686Y21395D01*
X179686Y21396D01*
X179665Y21651D01*
X179638Y21897D01*
X179605Y22134D01*
X179565Y22362D01*
X179520Y22580D01*
X179468Y22790D01*
X179411Y22990D01*
X179347Y23181D01*
X179277Y23362D01*
X179277Y23363D01*
X179201Y23535D01*
X179120Y23699D01*
X179032Y23853D01*
X178938Y23998D01*
X178838Y24134D01*
X178733Y24261D01*
X178622Y24379D01*
X178622Y24380D01*
X178506Y24489D01*
X178505Y24489D01*
X178384Y24590D01*
X178384Y24591D01*
X178256Y24683D01*
X178123Y24766D01*
X177985Y24841D01*
X177841Y24907D01*
X177691Y24964D01*
X177536Y25013D01*
X177536Y25012D01*
X177536Y25013D01*
X177376Y25052D01*
X177375Y25052D01*
X177210Y25083D01*
X177209Y25083D01*
X177038Y25105D01*
X176861Y25118D01*
X176860Y25118D01*
X176678Y25123D01*
X176678Y25122D01*
X176678Y25123D01*
X176499Y25118D01*
X176498Y25118D01*
X176325Y25105D01*
X176324Y25105D01*
X176156Y25083D01*
X175992Y25052D01*
X175834Y25012D01*
X175833Y25012D01*
X175680Y24964D01*
X175532Y24906D01*
X175389Y24840D01*
X175251Y24765D01*
X175119Y24681D01*
X175118Y24681D01*
X174991Y24588D01*
X174869Y24486D01*
X174752Y24376D01*
X174640Y24257D01*
X174640Y24256D01*
X174533Y24128D01*
X174432Y23991D01*
X174431Y23991D01*
X174336Y23845D01*
X174335Y23845D01*
X174246Y23691D01*
X174162Y23527D01*
X174085Y23354D01*
X174014Y23172D01*
X173949Y22981D01*
X173890Y22781D01*
X173837Y22572D01*
X173790Y22354D01*
X173750Y22126D01*
X173716Y21890D01*
X173688Y21645D01*
X173666Y21391D01*
X173651Y21128D01*
X173641Y20855D01*
X173639Y20681D01*
X173643Y20677D01*
X173644Y20677D01*
X175212Y20677D01*
X175216Y20680D01*
G37*
G36*
X33907Y51835D02*
X33907Y51835D01*
X35554Y52448D01*
X35557Y52453D01*
X33817Y57142D01*
X33812Y57145D01*
X33812Y57144D01*
X32165Y56531D01*
X32162Y56526D01*
X33902Y51837D01*
X33907Y51834D01*
X33907Y51835D01*
G37*
G36*
X45771Y51837D02*
X45771Y51837D01*
X47511Y56526D01*
X47509Y56531D01*
X45862Y57144D01*
X45857Y57142D01*
X44117Y52453D01*
X44119Y52448D01*
X45766Y51835D01*
X45771Y51837D01*
G37*
G36*
X24209Y69019D02*
X24209Y69019D01*
X24209Y74018D01*
X24205Y74022D01*
X22448Y74022D01*
X22443Y74019D01*
X22444Y74018D01*
X22443Y74018D01*
X22443Y69019D01*
X22447Y69015D01*
X22448Y69015D01*
X24205Y69015D01*
X24209Y69019D01*
G37*
G36*
X40721Y60396D02*
X40721Y60396D01*
X40721Y65395D01*
X40717Y65399D01*
X38960Y65399D01*
X38956Y65395D01*
X38956Y60396D01*
X38959Y60392D01*
X38960Y60392D01*
X40717Y60392D01*
X40721Y60396D01*
G37*
G36*
X169698Y16027D02*
X169698Y16027D01*
X169758Y16031D01*
X169818Y16037D01*
X169818Y16038D01*
X169877Y16047D01*
X169935Y16058D01*
X169992Y16072D01*
X170048Y16089D01*
X170103Y16108D01*
X170157Y16130D01*
X170158Y16130D01*
X170211Y16154D01*
X170264Y16180D01*
X170264Y16181D01*
X170315Y16210D01*
X170366Y16241D01*
X170416Y16275D01*
X170465Y16312D01*
X170514Y16351D01*
X170560Y16393D01*
X170604Y16437D01*
X170644Y16484D01*
X170682Y16533D01*
X170716Y16584D01*
X170748Y16638D01*
X170776Y16694D01*
X170802Y16752D01*
X170802Y16753D01*
X170824Y16813D01*
X170844Y16876D01*
X170860Y16941D01*
X170861Y16943D01*
X170861Y16948D01*
X170862Y16952D01*
X170863Y16956D01*
X170864Y16960D01*
X170869Y16986D01*
X170870Y16990D01*
X170871Y16994D01*
X170872Y16999D01*
X170872Y17003D01*
X170873Y17007D01*
X170874Y17009D01*
X170873Y17009D01*
X170874Y17009D01*
X170874Y17011D01*
X170875Y17016D01*
X170875Y17020D01*
X170876Y17024D01*
X170877Y17028D01*
X170877Y17033D01*
X170878Y17037D01*
X170878Y17041D01*
X170879Y17041D01*
X170878Y17041D01*
X170879Y17045D01*
X170880Y17050D01*
X170880Y17054D01*
X170881Y17058D01*
X170882Y17062D01*
X170882Y17067D01*
X170883Y17071D01*
X170884Y17075D01*
X170884Y17078D01*
X170884Y17079D01*
X170888Y17118D01*
X170889Y17122D01*
X170889Y17126D01*
X170889Y17130D01*
X170890Y17130D01*
X170889Y17130D01*
X170890Y17135D01*
X170890Y17139D01*
X170891Y17143D01*
X170891Y17147D01*
X170892Y17150D01*
X170891Y17151D01*
X170892Y17151D01*
X170892Y17160D01*
X170896Y17225D01*
X170898Y17301D01*
X170897Y17301D01*
X170898Y17302D01*
X170896Y17374D01*
X170892Y17445D01*
X170891Y17445D01*
X170892Y17445D01*
X170884Y17514D01*
X170874Y17580D01*
X170873Y17581D01*
X170874Y17581D01*
X170860Y17645D01*
X170844Y17708D01*
X170843Y17708D01*
X170844Y17708D01*
X170824Y17768D01*
X170824Y17769D01*
X170802Y17827D01*
X170776Y17884D01*
X170748Y17938D01*
X170716Y17990D01*
X170716Y17991D01*
X170682Y18041D01*
X170644Y18089D01*
X170604Y18135D01*
X170560Y18179D01*
X170514Y18221D01*
X170465Y18260D01*
X170465Y18261D01*
X170416Y18297D01*
X170416Y18298D01*
X170366Y18332D01*
X170315Y18364D01*
X170264Y18393D01*
X170211Y18419D01*
X170158Y18443D01*
X170157Y18444D01*
X170103Y18465D01*
X170048Y18484D01*
X169992Y18501D01*
X169992Y18500D01*
X169992Y18501D01*
X169935Y18514D01*
X169877Y18526D01*
X169818Y18535D01*
X169818Y18534D01*
X169818Y18535D01*
X169758Y18541D01*
X169698Y18545D01*
X169636Y18546D01*
X169604Y18546D01*
X169573Y18545D01*
X169541Y18543D01*
X169510Y18541D01*
X169479Y18538D01*
X169449Y18534D01*
X169418Y18530D01*
X169388Y18525D01*
X169358Y18520D01*
X169328Y18513D01*
X169299Y18507D01*
X169270Y18499D01*
X169269Y18499D01*
X169241Y18491D01*
X169240Y18491D01*
X169212Y18482D01*
X169184Y18473D01*
X169183Y18473D01*
X169156Y18463D01*
X169155Y18463D01*
X169127Y18452D01*
X169099Y18440D01*
X169072Y18428D01*
X169045Y18415D01*
X169018Y18402D01*
X168992Y18388D01*
X168966Y18374D01*
X168940Y18359D01*
X168915Y18344D01*
X168915Y18343D01*
X168891Y18328D01*
X168866Y18311D01*
X168843Y18294D01*
X168842Y18294D01*
X168819Y18277D01*
X168796Y18259D01*
X168773Y18240D01*
X168751Y18221D01*
X168729Y18201D01*
X168708Y18181D01*
X168687Y18160D01*
X168667Y18138D01*
X168648Y18116D01*
X168629Y18093D01*
X168610Y18069D01*
X168593Y18045D01*
X168592Y18045D01*
X168575Y18020D01*
X168558Y17995D01*
X168542Y17969D01*
X168526Y17942D01*
X168511Y17915D01*
X168496Y17888D01*
X168496Y17887D01*
X168481Y17859D01*
X168468Y17830D01*
X168455Y17801D01*
X168443Y17771D01*
X168432Y17741D01*
X168432Y17740D01*
X168422Y17710D01*
X168412Y17678D01*
X168403Y17647D01*
X168403Y17646D01*
X168395Y17614D01*
X168388Y17581D01*
X168382Y17548D01*
X168381Y17544D01*
X168380Y17535D01*
X168379Y17535D01*
X168380Y17535D01*
X168379Y17531D01*
X168377Y17523D01*
X168377Y17522D01*
X168377Y17518D01*
X168376Y17514D01*
X168375Y17510D01*
X168374Y17497D01*
X168372Y17484D01*
X168371Y17480D01*
X168371Y17476D01*
X168370Y17472D01*
X168370Y17471D01*
X168369Y17463D01*
X168369Y17459D01*
X168368Y17455D01*
X168368Y17454D01*
X168368Y17450D01*
X168367Y17445D01*
X168364Y17410D01*
X168362Y17374D01*
X168361Y17338D01*
X168360Y17301D01*
X168361Y17263D01*
X168362Y17225D01*
X168364Y17187D01*
X168367Y17151D01*
X168367Y17150D01*
X168371Y17114D01*
X168376Y17079D01*
X168382Y17044D01*
X168382Y17043D01*
X168388Y17009D01*
X168395Y16975D01*
X168403Y16942D01*
X168412Y16909D01*
X168422Y16877D01*
X168432Y16846D01*
X168443Y16815D01*
X168455Y16785D01*
X168468Y16755D01*
X168481Y16726D01*
X168496Y16698D01*
X168511Y16670D01*
X168526Y16643D01*
X168542Y16617D01*
X168542Y16616D01*
X168558Y16590D01*
X168575Y16565D01*
X168592Y16540D01*
X168610Y16515D01*
X168629Y16491D01*
X168648Y16468D01*
X168667Y16445D01*
X168687Y16422D01*
X168708Y16400D01*
X168729Y16379D01*
X168751Y16358D01*
X168773Y16338D01*
X168796Y16319D01*
X168819Y16300D01*
X168842Y16282D01*
X168866Y16264D01*
X168890Y16248D01*
X168891Y16248D01*
X168915Y16231D01*
X168940Y16216D01*
X168966Y16201D01*
X168966Y16200D01*
X168992Y16186D01*
X169018Y16172D01*
X169045Y16159D01*
X169072Y16146D01*
X169099Y16134D01*
X169127Y16123D01*
X169183Y16102D01*
X169184Y16102D01*
X169212Y16092D01*
X169240Y16083D01*
X169241Y16083D01*
X169269Y16074D01*
X169270Y16074D01*
X169299Y16066D01*
X169328Y16059D01*
X169358Y16053D01*
X169388Y16047D01*
X169418Y16042D01*
X169449Y16038D01*
X169479Y16034D01*
X169510Y16031D01*
X169541Y16029D01*
X169573Y16027D01*
X169604Y16026D01*
X169636Y16026D01*
X169698Y16027D01*
G37*
G36*
X24209Y61519D02*
X24209Y61519D01*
X24209Y64020D01*
X24205Y64025D01*
X24205Y64024D01*
X24205Y64025D01*
X22448Y64025D01*
X22443Y64021D01*
X22444Y64021D01*
X22443Y64020D01*
X22443Y61519D01*
X22447Y61515D01*
X22448Y61515D01*
X24205Y61515D01*
X24209Y61519D01*
G37*
G36*
X40721Y70393D02*
X40721Y70393D01*
X40721Y70394D01*
X40721Y72895D01*
X40717Y72899D01*
X38960Y72899D01*
X38956Y72895D01*
X38956Y70394D01*
X38959Y70390D01*
X38960Y70390D01*
X40717Y70390D01*
X40721Y70393D01*
G37*
G36*
X24209Y79016D02*
X24209Y79016D01*
X24209Y79017D01*
X24209Y81516D01*
X24205Y81521D01*
X24205Y81520D01*
X24205Y81521D01*
X22448Y81521D01*
X22443Y81517D01*
X22444Y81517D01*
X22443Y81516D01*
X22443Y79017D01*
X22447Y79013D01*
X22448Y79013D01*
X24205Y79013D01*
X24209Y79016D01*
G37*
G36*
X40721Y52899D02*
X40721Y52899D01*
X40721Y52900D01*
X40721Y55397D01*
X40717Y55402D01*
X40717Y55401D01*
X40717Y55402D01*
X38960Y55402D01*
X38956Y55398D01*
X38956Y55397D01*
X38956Y52900D01*
X38959Y52895D01*
X38960Y52896D01*
X38960Y52895D01*
X40717Y52895D01*
X40721Y52899D01*
G37*
G36*
X177470Y20680D02*
X177470Y20680D01*
X177470Y20681D01*
X177471Y20715D01*
X177471Y20716D01*
X177470Y20763D01*
X177467Y20810D01*
X177463Y20856D01*
X177457Y20901D01*
X177450Y20945D01*
X177440Y20989D01*
X177429Y21031D01*
X177429Y21032D01*
X177416Y21073D01*
X177416Y21074D01*
X177402Y21114D01*
X177402Y21115D01*
X177386Y21155D01*
X177368Y21194D01*
X177348Y21233D01*
X177327Y21271D01*
X177304Y21308D01*
X177279Y21344D01*
X177253Y21379D01*
X177253Y21380D01*
X177225Y21414D01*
X177224Y21414D01*
X177195Y21446D01*
X177195Y21447D01*
X177166Y21476D01*
X177165Y21476D01*
X177165Y21477D01*
X177135Y21504D01*
X177134Y21504D01*
X177103Y21530D01*
X177070Y21553D01*
X177037Y21574D01*
X177036Y21574D01*
X177002Y21593D01*
X176967Y21610D01*
X176930Y21624D01*
X176893Y21636D01*
X176855Y21646D01*
X176815Y21654D01*
X176775Y21659D01*
X176734Y21663D01*
X176692Y21664D01*
X176691Y21664D01*
X176646Y21663D01*
X176602Y21659D01*
X176601Y21659D01*
X176559Y21654D01*
X176558Y21654D01*
X176517Y21646D01*
X176476Y21636D01*
X176437Y21624D01*
X176399Y21610D01*
X176398Y21610D01*
X176362Y21593D01*
X176361Y21593D01*
X176326Y21574D01*
X176325Y21574D01*
X176291Y21553D01*
X176258Y21530D01*
X176257Y21530D01*
X176226Y21504D01*
X176225Y21504D01*
X176195Y21477D01*
X176195Y21476D01*
X176194Y21476D01*
X176165Y21447D01*
X176165Y21446D01*
X176137Y21414D01*
X176136Y21414D01*
X176109Y21380D01*
X176109Y21379D01*
X176084Y21344D01*
X176083Y21344D01*
X176060Y21308D01*
X176059Y21308D01*
X176037Y21271D01*
X176017Y21233D01*
X175998Y21194D01*
X175997Y21194D01*
X175980Y21155D01*
X175965Y21115D01*
X175965Y21114D01*
X175951Y21073D01*
X175938Y21032D01*
X175938Y21031D01*
X175928Y20989D01*
X175919Y20945D01*
X175911Y20901D01*
X175906Y20856D01*
X175901Y20810D01*
X175902Y20810D01*
X175901Y20810D01*
X175899Y20763D01*
X175898Y20716D01*
X175898Y20715D01*
X175899Y20681D01*
X175903Y20677D01*
X177466Y20677D01*
X177470Y20680D01*
G37*
G36*
X176734Y19782D02*
X176734Y19782D01*
X176775Y19785D01*
X176815Y19791D01*
X176855Y19798D01*
X176893Y19808D01*
X176930Y19819D01*
X176930Y19820D01*
X176930Y19819D01*
X176967Y19833D01*
X176967Y19834D01*
X177002Y19850D01*
X177036Y19868D01*
X177037Y19868D01*
X177070Y19888D01*
X177070Y19889D01*
X177103Y19911D01*
X177134Y19936D01*
X177165Y19963D01*
X177166Y19963D01*
X177195Y19993D01*
X177224Y20024D01*
X177225Y20024D01*
X177253Y20058D01*
X177279Y20093D01*
X177304Y20129D01*
X177327Y20165D01*
X177348Y20202D01*
X177368Y20240D01*
X177368Y20241D01*
X177386Y20279D01*
X177386Y20280D01*
X177402Y20319D01*
X177416Y20360D01*
X177429Y20401D01*
X177440Y20444D01*
X177450Y20487D01*
X177457Y20531D01*
X177463Y20576D01*
X177467Y20621D01*
X177470Y20668D01*
X177470Y20671D01*
X177466Y20675D01*
X175903Y20675D01*
X175899Y20671D01*
X175899Y20668D01*
X175901Y20621D01*
X175902Y20621D01*
X175901Y20621D01*
X175906Y20576D01*
X175911Y20531D01*
X175919Y20487D01*
X175928Y20444D01*
X175938Y20401D01*
X175951Y20360D01*
X175965Y20319D01*
X175980Y20280D01*
X175980Y20279D01*
X175997Y20241D01*
X175998Y20241D01*
X176017Y20202D01*
X176037Y20165D01*
X176059Y20129D01*
X176060Y20129D01*
X176083Y20093D01*
X176084Y20093D01*
X176109Y20058D01*
X176137Y20024D01*
X176165Y19993D01*
X176195Y19963D01*
X176226Y19936D01*
X176257Y19911D01*
X176258Y19911D01*
X176291Y19889D01*
X176291Y19888D01*
X176326Y19868D01*
X176361Y19850D01*
X176362Y19850D01*
X176398Y19834D01*
X176399Y19834D01*
X176399Y19833D01*
X176437Y19819D01*
X176476Y19808D01*
X176517Y19798D01*
X176558Y19791D01*
X176559Y19791D01*
X176602Y19785D01*
X176646Y19782D01*
X176691Y19781D01*
X176692Y19781D01*
X176734Y19782D01*
G37*
D10*
X25000Y175000D03*
X175000Y175000D03*
D11*
X83670Y107870D03*
X91670Y107870D03*
X99670Y107870D03*
X107670Y107870D03*
X115670Y107870D03*
X115670Y99870D03*
X115670Y91870D03*
X107670Y91870D03*
X99670Y91870D03*
X91670Y91870D03*
X83670Y91870D03*
X83670Y99870D03*
D12*
X177800Y87630D03*
X177800Y113030D03*
M02*
