G04 This is an RS-274x file exported by *
G04 gerbv version 2.8.2 *
G04 More information is available about gerbv at *
G04 https://gerbv.github.io/ *
G04 --End of header info--*
%MOIN*%
%FSLAX36Y36*%
%IPPOS*%
G04 --Define apertures--*
%ADD10C,0.0139*%
G04 --Start main section--*
G54D10*
G36*
G01X0088299Y0319699D02*
G01X0093999Y0319699D01*
G01X0093999Y0312199D01*
G01X0117099Y0312199D01*
G01X0117099Y0319699D01*
G01X0122799Y0319699D01*
G01X0122799Y0297899D01*
G01X0117099Y0297899D01*
G01X0117099Y0305399D01*
G01X0093999Y0305399D01*
G01X0093999Y0297899D01*
G01X0088299Y0297899D01*
G01X0088299Y0319699D01*
G01X0088299Y0319699D01*
G37*
G36*
G01X0088299Y0275299D02*
G01X0090299Y0275999D01*
G01X0092199Y0276799D01*
G01X0094099Y0277699D01*
G01X0095999Y0278499D01*
G01X0097799Y0279399D01*
G01X0099699Y0280399D01*
G01X0101599Y0281399D01*
G01X0103499Y0282299D01*
G01X0105399Y0283299D01*
G01X0107299Y0284299D01*
G01X0109199Y0285299D01*
G01X0111099Y0286399D01*
G01X0088299Y0286399D01*
G01X0088299Y0292499D01*
G01X0122799Y0292499D01*
G01X0122799Y0286899D01*
G01X0121899Y0286499D01*
G01X0121099Y0285899D01*
G01X0120199Y0285399D01*
G01X0119299Y0284899D01*
G01X0118399Y0284399D01*
G01X0117499Y0283899D01*
G01X0116499Y0283299D01*
G01X0115599Y0282799D01*
G01X0114699Y0282299D01*
G01X0113699Y0281799D01*
G01X0112799Y0281299D01*
G01X0111799Y0280799D01*
G01X0110799Y0280299D01*
G01X0109899Y0279899D01*
G01X0108999Y0279399D01*
G01X0108099Y0278899D01*
G01X0107199Y0278499D01*
G01X0106299Y0278099D01*
G01X0105299Y0277599D01*
G01X0104499Y0277299D01*
G01X0103699Y0276899D01*
G01X0102999Y0276599D01*
G01X0102199Y0276199D01*
G01X0101499Y0275999D01*
G01X0122599Y0275999D01*
G01X0122599Y0269899D01*
G01X0088299Y0269899D01*
G01X0088299Y0275299D01*
G01X0088299Y0275299D01*
G37*
G36*
G01X1074399Y0256699D02*
G01X1071599Y0256699D01*
G01X1069099Y0256899D01*
G01X1066999Y0257499D01*
G01X1064899Y0257999D01*
G01X1063099Y0258799D01*
G01X1061699Y0259899D01*
G01X1060199Y0260899D01*
G01X1059099Y0262199D01*
G01X1058399Y0263599D01*
G01X1057699Y0265099D01*
G01X1057399Y0266699D01*
G01X1057399Y0268599D01*
G01X1057399Y0270599D01*
G01X1057699Y0272299D01*
G01X1058399Y0273699D01*
G01X1059099Y0275199D01*
G01X1060199Y0276399D01*
G01X1061699Y0277399D01*
G01X1063099Y0278399D01*
G01X1064899Y0279199D01*
G01X1066999Y0279699D01*
G01X1069099Y0280199D01*
G01X1071599Y0280399D01*
G01X1074399Y0280399D01*
G01X1077299Y0280399D01*
G01X1079699Y0280199D01*
G01X1081899Y0279699D01*
G01X1083999Y0279199D01*
G01X1085799Y0278399D01*
G01X1087199Y0277399D01*
G01X1088699Y0276299D01*
G01X1089699Y0275099D01*
G01X1090499Y0273599D01*
G01X1091199Y0272199D01*
G01X1091499Y0270599D01*
G01X1091499Y0268699D01*
G01X1091499Y0266799D01*
G01X1091199Y0265099D01*
G01X1090499Y0263599D01*
G01X1089699Y0262199D01*
G01X1088699Y0260899D01*
G01X1087199Y0259899D01*
G01X1085799Y0258799D01*
G01X1083999Y0257999D01*
G01X1081799Y0257499D01*
G01X1079699Y0256899D01*
G01X1077199Y0256699D01*
G01X1074399Y0256699D01*
G01X1074399Y0256699D01*
G37*
%LPC*%
G36*
G01X1074399Y0263299D02*
G01X1075299Y0263299D01*
G01X1075999Y0263299D01*
G01X1076799Y0263299D01*
G01X1077499Y0263399D01*
G01X1078199Y0263399D01*
G01X1078899Y0263499D01*
G01X1079599Y0263499D01*
G01X1080199Y0263599D01*
G01X1080799Y0263799D01*
G01X1081499Y0263899D01*
G01X1081999Y0263999D01*
G01X1082499Y0264199D01*
G01X1082999Y0264399D01*
G01X1083399Y0264599D01*
G01X1083799Y0264799D01*
G01X1084299Y0265099D01*
G01X1084599Y0265299D01*
G01X1084999Y0265699D01*
G01X1085299Y0265999D01*
G01X1085499Y0266399D01*
G01X1085599Y0266899D01*
G01X1085799Y0267299D01*
G01X1085799Y0267799D01*
G01X1085799Y0268499D01*
G01X1085799Y0268999D01*
G01X1085799Y0269499D01*
G01X1085599Y0269899D01*
G01X1085499Y0270399D01*
G01X1085299Y0270799D01*
G01X1084999Y0271099D01*
G01X1084699Y0271499D01*
G01X1084399Y0271799D01*
G01X1083999Y0271999D01*
G01X1083499Y0272299D01*
G01X1082999Y0272499D01*
G01X1082499Y0272599D01*
G01X1081999Y0272799D01*
G01X1081499Y0272999D01*
G01X1080799Y0273099D01*
G01X1080199Y0273199D01*
G01X1079599Y0273299D01*
G01X1078899Y0273299D01*
G01X1078199Y0273399D01*
G01X1077499Y0273399D01*
G01X1076699Y0273499D01*
G01X1075999Y0273499D01*
G01X1075199Y0273499D01*
G01X1074399Y0273499D01*
G01X1073699Y0273499D01*
G01X1072899Y0273499D01*
G01X1072199Y0273499D01*
G01X1071399Y0273399D01*
G01X1070699Y0273399D01*
G01X1069999Y0273299D01*
G01X1069299Y0273299D01*
G01X1068599Y0273199D01*
G01X1067999Y0272999D01*
G01X1067399Y0272899D01*
G01X1066899Y0272799D01*
G01X1066399Y0272599D01*
G01X1065899Y0272499D01*
G01X1065399Y0272299D01*
G01X1064999Y0271999D01*
G01X1064599Y0271799D01*
G01X1064199Y0271499D01*
G01X1063899Y0271099D01*
G01X1063599Y0270799D01*
G01X1063399Y0270399D01*
G01X1063199Y0269899D01*
G01X1062999Y0269499D01*
G01X1062899Y0268999D01*
G01X1062899Y0268499D01*
G01X1062899Y0267899D01*
G01X1062999Y0267399D01*
G01X1063099Y0266899D01*
G01X1063299Y0266499D01*
G01X1063499Y0265999D01*
G01X1063899Y0265699D01*
G01X1064199Y0265299D01*
G01X1064499Y0265099D01*
G01X1064899Y0264799D01*
G01X1065299Y0264599D01*
G01X1065799Y0264399D01*
G01X1066399Y0264199D01*
G01X1066899Y0263999D01*
G01X1067499Y0263799D01*
G01X1068099Y0263699D01*
G01X1068699Y0263599D01*
G01X1069299Y0263499D01*
G01X1069999Y0263499D01*
G01X1070699Y0263499D01*
G01X1071399Y0263399D01*
G01X1072099Y0263399D01*
G01X1072799Y0263399D01*
G01X1073599Y0263299D01*
G01X1074399Y0263299D01*
G01X1074399Y0263299D01*
G37*
%LPD*%
G36*
G01X1091499Y0294999D02*
G01X1091499Y0293999D01*
G01X1091499Y0292999D01*
G01X1091299Y0292099D01*
G01X1091199Y0291199D01*
G01X1090999Y0290399D01*
G01X1090699Y0289699D01*
G01X1090399Y0288999D01*
G01X1090099Y0288399D01*
G01X1089599Y0287799D01*
G01X1089199Y0287299D01*
G01X1088699Y0286699D01*
G01X1088199Y0286199D01*
G01X1087599Y0285799D01*
G01X1086999Y0285499D01*
G01X1086399Y0285199D01*
G01X1085699Y0284899D01*
G01X1084999Y0284699D01*
G01X1084199Y0284399D01*
G01X1083399Y0284199D01*
G01X1082599Y0284099D01*
G01X1081699Y0283999D01*
G01X1080799Y0283899D01*
G01X1079899Y0283899D01*
G01X1078899Y0283899D01*
G01X1057899Y0283899D01*
G01X1057899Y0290399D01*
G01X1078499Y0290399D01*
G01X1079199Y0290399D01*
G01X1079799Y0290399D01*
G01X1080399Y0290399D01*
G01X1080899Y0290499D01*
G01X1081499Y0290499D01*
G01X1081899Y0290599D01*
G01X1082399Y0290599D01*
G01X1082799Y0290699D01*
G01X1083199Y0290799D01*
G01X1083599Y0290999D01*
G01X1083899Y0291099D01*
G01X1084199Y0291199D01*
G01X1084399Y0291399D01*
G01X1084699Y0291599D01*
G01X1084899Y0291799D01*
G01X1085099Y0292099D01*
G01X1085299Y0292399D01*
G01X1085399Y0292599D01*
G01X1085499Y0292899D01*
G01X1085699Y0293299D01*
G01X1085699Y0293599D01*
G01X1085799Y0293999D01*
G01X1085799Y0294399D01*
G01X1085799Y0294899D01*
G01X1085799Y0295299D01*
G01X1085799Y0295799D01*
G01X1085699Y0296099D01*
G01X1085699Y0296499D01*
G01X1085499Y0296799D01*
G01X1085399Y0297099D01*
G01X1085299Y0297399D01*
G01X1085099Y0297599D01*
G01X1084899Y0297899D01*
G01X1084699Y0298099D01*
G01X1084399Y0298299D01*
G01X1084199Y0298499D01*
G01X1083899Y0298599D01*
G01X1083499Y0298699D01*
G01X1083199Y0298899D01*
G01X1082799Y0298999D01*
G01X1082399Y0299099D01*
G01X1081899Y0299199D01*
G01X1081499Y0299199D01*
G01X1080899Y0299299D01*
G01X1080399Y0299299D01*
G01X1079799Y0299299D01*
G01X1079199Y0299299D01*
G01X1078499Y0299299D01*
G01X1057999Y0299299D01*
G01X1057999Y0305799D01*
G01X1078999Y0305799D01*
G01X1079999Y0305799D01*
G01X1080899Y0305799D01*
G01X1081799Y0305699D01*
G01X1082599Y0305599D01*
G01X1083499Y0305499D01*
G01X1084299Y0305299D01*
G01X1085099Y0305099D01*
G01X1085799Y0304799D01*
G01X1086499Y0304499D01*
G01X1087099Y0304199D01*
G01X1087799Y0303899D01*
G01X1088299Y0303499D01*
G01X1088899Y0303099D01*
G01X1089399Y0302499D01*
G01X1089799Y0301899D01*
G01X1090199Y0301399D01*
G01X1090499Y0300699D01*
G01X1090799Y0299999D01*
G01X1091099Y0299299D01*
G01X1091299Y0298599D01*
G01X1091399Y0297799D01*
G01X1091499Y0296899D01*
G01X1091499Y0295999D01*
G01X1091499Y0294999D01*
G01X1091499Y0294999D01*
G37*
G36*
G01X1057999Y0333499D02*
G01X1063499Y0333499D01*
G01X1063499Y0324899D01*
G01X1090799Y0324899D01*
G01X1090799Y0318299D01*
G01X1063499Y0318299D01*
G01X1063499Y0309699D01*
G01X1057999Y0309699D01*
G01X1057999Y0333499D01*
G01X1057999Y0333499D01*
G37*
G36*
G01X0642199Y0473999D02*
G01X0654199Y0473999D01*
G01X0668299Y0488199D01*
G01X0654199Y0502399D01*
G01X0642199Y0502399D01*
G01X0652899Y0491699D01*
G01X0512799Y0491699D01*
G01X0512799Y0484699D01*
G01X0652899Y0484699D01*
G01X0642199Y0473999D01*
G37*
G36*
G01X0642199Y0120999D02*
G01X0652899Y0110299D01*
G01X0512799Y0110299D01*
G01X0512799Y0103299D01*
G01X0652899Y0103299D01*
G01X0642199Y0092599D01*
G01X0654199Y0092599D01*
G01X0668299Y0106799D01*
G01X0654199Y0120999D01*
G01X0642199Y0120999D01*
G37*
M02*
