G04 This is an RS-274x file exported by *
G04 gerbv version 2.8.2 *
G04 More information is available about gerbv at *
G04 https://gerbv.github.io/ *
G04 --End of header info--*
%MOIN*%
%FSLAX36Y36*%
%IPPOS*%
G04 --Define apertures--*
%ADD10C,0.0139*%
G04 --Start main section--*
G54D10*
G36*
G01X0716050Y0921899D02*
G01X0716050Y0921899D01*
G01X0728350Y0909599D01*
G01X0720850Y0902099D01*
G01X0708550Y0914399D01*
G01X0708550Y0914399D01*
G01X0701250Y0921699D01*
G01X0701250Y0921699D01*
G01X0688950Y0933999D01*
G01X0696450Y0941499D01*
G01X0708750Y0929199D01*
G01X0708750Y0929199D01*
G01X0716050Y0921899D01*
G01X0716050Y0921899D01*
G37*
G36*
G01X0637250Y0921899D02*
G01X0637250Y0921899D01*
G01X0649650Y0909599D01*
G01X0642150Y0902099D01*
G01X0629750Y0914399D01*
G01X0629750Y0914399D01*
G01X0622550Y0921699D01*
G01X0622550Y0921699D01*
G01X0610150Y0933999D01*
G01X0617650Y0941499D01*
G01X0630050Y0929199D01*
G01X0630050Y0929199D01*
G01X0637250Y0921899D01*
G01X0637250Y0921899D01*
G37*
G36*
G01X0558550Y0921899D02*
G01X0558550Y0921899D01*
G01X0570850Y0909599D01*
G01X0563350Y0902099D01*
G01X0551050Y0914399D01*
G01X0551050Y0914399D01*
G01X0543750Y0921699D01*
G01X0543750Y0921699D01*
G01X0531450Y0933999D01*
G01X0538950Y0941499D01*
G01X0551250Y0929199D01*
G01X0551250Y0929199D01*
G01X0558550Y0921899D01*
G01X0558550Y0921899D01*
G37*
G36*
G01X0637250Y0843199D02*
G01X0637250Y0843199D01*
G01X0649650Y0830799D01*
G01X0642150Y0823299D01*
G01X0629750Y0835699D01*
G01X0629750Y0835699D01*
G01X0622550Y0842899D01*
G01X0622550Y0842899D01*
G01X0610150Y0855299D01*
G01X0617650Y0862799D01*
G01X0630050Y0850399D01*
G01X0630050Y0850399D01*
G01X0637250Y0843199D01*
G01X0637250Y0843199D01*
G37*
G36*
G01X0558550Y0843199D02*
G01X0558550Y0843199D01*
G01X0570850Y0830799D01*
G01X0563350Y0823299D01*
G01X0551050Y0835699D01*
G01X0551050Y0835699D01*
G01X0543750Y0842899D01*
G01X0543750Y0842899D01*
G01X0531450Y0855299D01*
G01X0538950Y0862799D01*
G01X0551250Y0850399D01*
G01X0551250Y0850399D01*
G01X0558550Y0843199D01*
G01X0558550Y0843199D01*
G37*
G36*
G01X0401050Y0921899D02*
G01X0401050Y0921899D01*
G01X0413350Y0909599D01*
G01X0405850Y0902099D01*
G01X0393550Y0914399D01*
G01X0393550Y0914399D01*
G01X0386250Y0921699D01*
G01X0386250Y0921699D01*
G01X0373950Y0933999D01*
G01X0381450Y0941499D01*
G01X0393750Y0929199D01*
G01X0393750Y0929199D01*
G01X0401050Y0921899D01*
G01X0401050Y0921899D01*
G37*
G36*
G01X0322250Y0921899D02*
G01X0322250Y0921899D01*
G01X0334650Y0909599D01*
G01X0327150Y0902099D01*
G01X0314750Y0914399D01*
G01X0314750Y0914399D01*
G01X0307550Y0921699D01*
G01X0307550Y0921699D01*
G01X0295350Y0933899D01*
G01X0302850Y0941399D01*
G01X0315150Y0928999D01*
G01X0315150Y0928999D01*
G01X0322250Y0921899D01*
G01X0322250Y0921899D01*
G37*
G36*
G01X0794750Y0921899D02*
G01X0794750Y0921899D01*
G01X0807150Y0909599D01*
G01X0799650Y0902099D01*
G01X0787250Y0914399D01*
G01X0787250Y0914399D01*
G01X0780050Y0921699D01*
G01X0780050Y0921699D01*
G01X0767650Y0933899D01*
G01X0775150Y0941399D01*
G01X0787550Y0928999D01*
G01X0787550Y0928999D01*
G01X0794750Y0921899D01*
G01X0794750Y0921899D01*
G37*
G36*
G01X0873550Y0921899D02*
G01X0873550Y0921899D01*
G01X0885850Y0909599D01*
G01X0878350Y0902099D01*
G01X0866050Y0914399D01*
G01X0866050Y0914399D01*
G01X0858750Y0921699D01*
G01X0858750Y0921699D01*
G01X0846450Y0933999D01*
G01X0853950Y0941499D01*
G01X0866250Y0929199D01*
G01X0866250Y0929199D01*
G01X0873550Y0921899D01*
G01X0873550Y0921899D01*
G37*
G36*
G01X0716050Y1000699D02*
G01X0716050Y1000699D01*
G01X0728350Y0988299D01*
G01X0720850Y0980799D01*
G01X0708550Y0993199D01*
G01X0708550Y0993199D01*
G01X0701250Y1000399D01*
G01X0701250Y1000399D01*
G01X0688950Y1012799D01*
G01X0696450Y1020299D01*
G01X0708750Y1007899D01*
G01X0708750Y1007899D01*
G01X0716050Y1000699D01*
G01X0716050Y1000699D01*
G37*
G36*
G01X0794750Y1000699D02*
G01X0794750Y1000699D01*
G01X0807150Y0988299D01*
G01X0799650Y0980799D01*
G01X0787250Y0993199D01*
G01X0787250Y0993199D01*
G01X0780050Y1000399D01*
G01X0780050Y1000399D01*
G01X0767650Y1012799D01*
G01X0775150Y1020299D01*
G01X0787550Y1007899D01*
G01X0787550Y1007899D01*
G01X0794750Y1000699D01*
G01X0794750Y1000699D01*
G37*
G36*
G01X0401050Y1000699D02*
G01X0401050Y1000699D01*
G01X0413350Y0988299D01*
G01X0405850Y0980799D01*
G01X0393550Y0993199D01*
G01X0393550Y0993199D01*
G01X0386250Y1000399D01*
G01X0386250Y1000399D01*
G01X0373950Y1012799D01*
G01X0381450Y1020299D01*
G01X0393750Y1007899D01*
G01X0393750Y1007899D01*
G01X0401050Y1000699D01*
G01X0401050Y1000699D01*
G37*
G36*
G01X0479750Y1000699D02*
G01X0479750Y1000699D01*
G01X0492150Y0988299D01*
G01X0484650Y0980799D01*
G01X0472250Y0993199D01*
G01X0472250Y0993199D01*
G01X0465050Y1000399D01*
G01X0465050Y1000399D01*
G01X0452650Y1012799D01*
G01X0460150Y1020299D01*
G01X0472550Y1007899D01*
G01X0472550Y1007899D01*
G01X0479750Y1000699D01*
G01X0479750Y1000699D01*
G37*
G36*
G01X0636150Y1016399D02*
G01X0636550Y1016399D01*
G01X0636850Y1016399D01*
G01X0637250Y1016299D01*
G01X0637650Y1016299D01*
G01X0638150Y1016299D01*
G01X0638550Y1016299D01*
G01X0638950Y1016299D01*
G01X0639350Y1016199D01*
G01X0639750Y1016199D01*
G01X0640150Y1016099D01*
G01X0640550Y1015999D01*
G01X0640850Y1015999D01*
G01X0641250Y1015899D01*
G01X0641650Y1015799D01*
G01X0642050Y1015799D01*
G01X0642450Y1015699D01*
G01X0642750Y1015599D01*
G01X0643150Y1015599D01*
G01X0643150Y0981699D01*
G01X0636250Y0981699D01*
G01X0636250Y0994299D01*
G01X0632650Y0994299D01*
G01X0632050Y0993299D01*
G01X0631450Y0992199D01*
G01X0630850Y0991199D01*
G01X0630250Y0990099D01*
G01X0629650Y0989099D01*
G01X0629050Y0988099D01*
G01X0628550Y0986999D01*
G01X0627950Y0985999D01*
G01X0627550Y0984899D01*
G01X0627050Y0983899D01*
G01X0626550Y0982799D01*
G01X0626150Y0981699D01*
G01X0618950Y0981699D01*
G01X0619150Y0982199D01*
G01X0619350Y0982799D01*
G01X0619650Y0983399D01*
G01X0619950Y0983999D01*
G01X0620150Y0984699D01*
G01X0620450Y0985299D01*
G01X0620750Y0985899D01*
G01X0621050Y0986499D01*
G01X0621350Y0987199D01*
G01X0621750Y0987799D01*
G01X0622050Y0988499D01*
G01X0622450Y0989199D01*
G01X0622750Y0989899D01*
G01X0623150Y0990499D01*
G01X0623450Y0991099D01*
G01X0623750Y0991699D01*
G01X0624150Y0992199D01*
G01X0624450Y0992799D01*
G01X0624850Y0993299D01*
G01X0625150Y0993899D01*
G01X0625550Y0994399D01*
G01X0625850Y0994999D01*
G01X0626150Y0995499D01*
G01X0626450Y0995999D01*
G01X0625450Y0996399D01*
G01X0624650Y0996899D01*
G01X0624050Y0997499D01*
G01X0623350Y0998199D01*
G01X0622850Y0998899D01*
G01X0622450Y0999699D01*
G01X0621950Y1000599D01*
G01X0621650Y1001399D01*
G01X0621450Y1002299D01*
G01X0621250Y1003199D01*
G01X0621150Y1004199D01*
G01X0621150Y1005099D01*
G01X0621150Y1006099D01*
G01X0621250Y1006999D01*
G01X0621350Y1007799D01*
G01X0621550Y1008699D01*
G01X0621750Y1009399D01*
G01X0622150Y1010099D01*
G01X0622450Y1010799D01*
G01X0622850Y1011499D01*
G01X0623250Y1012099D01*
G01X0623750Y1012699D01*
G01X0624250Y1013199D01*
G01X0624750Y1013599D01*
G01X0625350Y1014099D01*
G01X0625950Y1014499D01*
G01X0626650Y1014899D01*
G01X0627350Y1015199D01*
G01X0628150Y1015499D01*
G01X0628950Y1015699D01*
G01X0629750Y1015899D01*
G01X0630650Y1016099D01*
G01X0631450Y1016199D01*
G01X0632350Y1016299D01*
G01X0633250Y1016399D01*
G01X0634250Y1016399D01*
G01X0634450Y1016499D01*
G01X0634850Y1016499D01*
G01X0635150Y1016499D01*
G01X0635450Y1016499D01*
G01X0635850Y1016499D01*
G01X0636150Y1016399D01*
G01X0636150Y1016399D01*
G37*
%LPC*%
G36*
G01X0629750Y1001399D02*
G01X0630250Y1000899D01*
G01X0630950Y1000599D01*
G01X0631750Y1000299D01*
G01X0632650Y1000099D01*
G01X0633650Y0999999D01*
G01X0634750Y0999999D01*
G01X0636250Y0999999D01*
G01X0636250Y1010299D01*
G01X0636050Y1010299D01*
G01X0635950Y1010299D01*
G01X0635750Y1010299D01*
G01X0635550Y1010399D01*
G01X0635350Y1010399D01*
G01X0635150Y1010399D01*
G01X0634950Y1010399D01*
G01X0634850Y1010399D01*
G01X0634650Y1010399D01*
G01X0634450Y1010399D01*
G01X0634350Y1010399D01*
G01X0634250Y1010399D01*
G01X0633350Y1010399D01*
G01X0632450Y1010299D01*
G01X0631750Y1010099D01*
G01X0630950Y1009899D01*
G01X0630350Y1009599D01*
G01X0629750Y1009199D01*
G01X0629250Y1008799D01*
G01X0628750Y1008199D01*
G01X0628550Y1007499D01*
G01X0628250Y1006799D01*
G01X0628150Y1005999D01*
G01X0628150Y1005099D01*
G01X0628150Y1004399D01*
G01X0628250Y1003699D01*
G01X0628550Y1003099D01*
G01X0628750Y1002399D01*
G01X0629250Y1001899D01*
G01X0629750Y1001399D01*
G01X0629750Y1001399D01*
G37*
%LPD*%
G36*
G01X0597250Y1010299D02*
G01X0596650Y1010099D01*
G01X0596050Y1009899D01*
G01X0595550Y1009599D01*
G01X0595050Y1009399D01*
G01X0594650Y1009199D01*
G01X0594250Y1008899D01*
G01X0592550Y1014399D01*
G01X0592650Y1014499D01*
G01X0592850Y1014599D01*
G01X0593050Y1014699D01*
G01X0593250Y1014899D01*
G01X0593450Y1014999D01*
G01X0593650Y1015099D01*
G01X0593950Y1015299D01*
G01X0594250Y1015399D01*
G01X0594550Y1015599D01*
G01X0594850Y1015699D01*
G01X0595150Y1015799D01*
G01X0595650Y1015999D01*
G01X0596050Y1016099D01*
G01X0596450Y1016299D01*
G01X0596850Y1016399D01*
G01X0597350Y1016499D01*
G01X0597850Y1016599D01*
G01X0598350Y1016699D01*
G01X0598950Y1016699D01*
G01X0599450Y1016799D01*
G01X0600050Y1016899D01*
G01X0600650Y1016899D01*
G01X0601250Y1016899D01*
G01X0601950Y1016899D01*
G01X0603050Y1016899D01*
G01X0604050Y1016799D01*
G01X0605050Y1016699D01*
G01X0605950Y1016499D01*
G01X0606950Y1016199D01*
G01X0607850Y1015799D01*
G01X0608750Y1015499D01*
G01X0609550Y1014999D01*
G01X0610350Y1014399D01*
G01X0611150Y1013799D01*
G01X0611850Y1013099D01*
G01X0612550Y1012399D01*
G01X0613250Y1011599D01*
G01X0613850Y1010699D01*
G01X0614350Y1009799D01*
G01X0614850Y1008799D01*
G01X0615350Y1007799D01*
G01X0615750Y1006699D01*
G01X0616150Y1005599D01*
G01X0616450Y1004299D01*
G01X0616650Y1002999D01*
G01X0616750Y1001699D01*
G01X0616850Y1000299D01*
G01X0616850Y0998899D01*
G01X0616850Y0997399D01*
G01X0616750Y0995999D01*
G01X0616650Y0994699D01*
G01X0616450Y0993399D01*
G01X0616250Y0992199D01*
G01X0615850Y0991099D01*
G01X0615550Y0989999D01*
G01X0615150Y0988999D01*
G01X0614650Y0987999D01*
G01X0614150Y0987099D01*
G01X0613650Y0986299D01*
G01X0613150Y0985599D01*
G01X0612450Y0984799D01*
G01X0611850Y0984099D01*
G01X0611050Y0983599D01*
G01X0610350Y0982999D01*
G01X0609550Y0982599D01*
G01X0608650Y0982199D01*
G01X0607750Y0981899D01*
G01X0606850Y0981599D01*
G01X0605850Y0981399D01*
G01X0604950Y0981199D01*
G01X0603950Y0981099D01*
G01X0602850Y0981099D01*
G01X0601550Y0981099D01*
G01X0600450Y0981099D01*
G01X0599350Y0981199D01*
G01X0598350Y0981299D01*
G01X0597450Y0981499D01*
G01X0596550Y0981699D01*
G01X0595750Y0981899D01*
G01X0595050Y0981999D01*
G01X0594350Y0982199D01*
G01X0593750Y0982399D01*
G01X0593250Y0982499D01*
G01X0592850Y0982599D01*
G01X0592850Y0999899D01*
G01X0599650Y0999899D01*
G01X0599650Y0987399D01*
G01X0599850Y0987299D01*
G01X0600050Y0987299D01*
G01X0600250Y0987199D01*
G01X0600450Y0987199D01*
G01X0600750Y0987199D01*
G01X0601050Y0987199D01*
G01X0601250Y0987199D01*
G01X0601450Y0987199D01*
G01X0601750Y0987199D01*
G01X0601950Y0987199D01*
G01X0602150Y0987199D01*
G01X0602450Y0987199D01*
G01X0603650Y0987199D01*
G01X0604750Y0987499D01*
G01X0605750Y0987999D01*
G01X0606650Y0988399D01*
G01X0607450Y0989199D01*
G01X0608150Y0990099D01*
G01X0608750Y0991099D01*
G01X0609250Y0992399D01*
G01X0609550Y0993899D01*
G01X0609850Y0995399D01*
G01X0610050Y0997199D01*
G01X0610050Y0999199D01*
G01X0610050Y1000099D01*
G01X0610050Y1000899D01*
G01X0609950Y1001699D01*
G01X0609850Y1002499D01*
G01X0609750Y1003299D01*
G01X0609650Y1003999D01*
G01X0609450Y1004799D01*
G01X0609250Y1005499D01*
G01X0609050Y1006099D01*
G01X0608750Y1006699D01*
G01X0608450Y1007299D01*
G01X0608150Y1007799D01*
G01X0607750Y1008299D01*
G01X0607350Y1008699D01*
G01X0606850Y1009099D01*
G01X0606350Y1009499D01*
G01X0605850Y1009899D01*
G01X0605350Y1010299D01*
G01X0604750Y1010599D01*
G01X0604150Y1010799D01*
G01X0603450Y1010999D01*
G01X0602750Y1011099D01*
G01X0601950Y1011099D01*
G01X0601150Y1011099D01*
G01X0600450Y1010999D01*
G01X0599850Y1010899D01*
G01X0599150Y1010799D01*
G01X0598550Y1010699D01*
G01X0597850Y1010499D01*
G01X0597250Y1010299D01*
G01X0597250Y1010299D01*
G37*
G36*
G01X0565750Y0996699D02*
G01X0566150Y0997399D01*
G01X0566750Y0997999D01*
G01X0567550Y0998599D01*
G01X0568350Y0999199D01*
G01X0569250Y0999699D01*
G01X0570450Y1000099D01*
G01X0569750Y1000499D01*
G01X0569150Y1000899D01*
G01X0568650Y1001399D01*
G01X0568150Y1001899D01*
G01X0567650Y1002499D01*
G01X0567250Y1003199D01*
G01X0566850Y1003899D01*
G01X0566550Y1004499D01*
G01X0566350Y1005199D01*
G01X0566150Y1005899D01*
G01X0566050Y1006699D01*
G01X0566050Y1007499D01*
G01X0566050Y1008099D01*
G01X0566050Y1008599D01*
G01X0566150Y1009099D01*
G01X0566250Y1009599D01*
G01X0566350Y1010099D01*
G01X0566550Y1010699D01*
G01X0566750Y1011299D01*
G01X0566950Y1011799D01*
G01X0567250Y1012299D01*
G01X0567650Y1012699D01*
G01X0568050Y1013199D01*
G01X0568550Y1013599D01*
G01X0569050Y1013999D01*
G01X0569550Y1014399D01*
G01X0570250Y1014799D01*
G01X0570850Y1015099D01*
G01X0571550Y1015399D01*
G01X0572450Y1015699D01*
G01X0573250Y1015999D01*
G01X0574150Y1016199D01*
G01X0575250Y1016299D01*
G01X0576250Y1016499D01*
G01X0577450Y1016499D01*
G01X0578750Y1016499D01*
G01X0579550Y1016499D01*
G01X0580350Y1016499D01*
G01X0581050Y1016399D01*
G01X0581850Y1016399D01*
G01X0582650Y1016299D01*
G01X0583350Y1016299D01*
G01X0584150Y1016199D01*
G01X0584850Y1016099D01*
G01X0585550Y1015999D01*
G01X0586250Y1015899D01*
G01X0586950Y1015799D01*
G01X0587650Y1015699D01*
G01X0587650Y0982399D01*
G01X0586850Y0982199D01*
G01X0586050Y0982099D01*
G01X0585250Y0981999D01*
G01X0584450Y0981799D01*
G01X0583650Y0981699D01*
G01X0582850Y0981699D01*
G01X0581950Y0981599D01*
G01X0581150Y0981499D01*
G01X0580450Y0981499D01*
G01X0579650Y0981399D01*
G01X0578850Y0981399D01*
G01X0578150Y0981399D01*
G01X0577150Y0981399D01*
G01X0576250Y0981399D01*
G01X0575350Y0981499D01*
G01X0574450Y0981599D01*
G01X0573650Y0981699D01*
G01X0572850Y0981899D01*
G01X0571950Y0982199D01*
G01X0571250Y0982399D01*
G01X0570550Y0982699D01*
G01X0569850Y0982999D01*
G01X0569150Y0983299D01*
G01X0568550Y0983799D01*
G01X0567850Y0984199D01*
G01X0567350Y0984699D01*
G01X0566850Y0985199D01*
G01X0566350Y0985799D01*
G01X0565950Y0986399D01*
G01X0565650Y0987099D01*
G01X0565250Y0987799D01*
G01X0564950Y0988499D01*
G01X0564750Y0989399D01*
G01X0564550Y0990199D01*
G01X0564450Y0991199D01*
G01X0564450Y0992199D01*
G01X0564450Y0992999D01*
G01X0564550Y0993799D01*
G01X0564850Y0994499D01*
G01X0565050Y0995199D01*
G01X0565350Y0995999D01*
G01X0565750Y0996699D01*
G01X0565750Y0996699D01*
G37*
%LPC*%
G36*
G01X0580750Y1002499D02*
G01X0580750Y1010299D01*
G01X0580550Y1010299D01*
G01X0580250Y1010299D01*
G01X0580050Y1010299D01*
G01X0579750Y1010399D01*
G01X0579450Y1010399D01*
G01X0579250Y1010399D01*
G01X0578950Y1010399D01*
G01X0578650Y1010399D01*
G01X0578350Y1010399D01*
G01X0578150Y1010399D01*
G01X0577850Y1010399D01*
G01X0577550Y1010399D01*
G01X0577150Y1010399D01*
G01X0576850Y1010399D01*
G01X0576550Y1010399D01*
G01X0576250Y1010399D01*
G01X0576050Y1010299D01*
G01X0575750Y1010299D01*
G01X0575450Y1010199D01*
G01X0575150Y1010099D01*
G01X0574950Y1010099D01*
G01X0574650Y1009999D01*
G01X0574450Y1009899D01*
G01X0574250Y1009699D01*
G01X0574050Y1009599D01*
G01X0573750Y1009399D01*
G01X0573650Y1009199D01*
G01X0573450Y1008999D01*
G01X0573250Y1008799D01*
G01X0573150Y1008599D01*
G01X0572950Y1008399D01*
G01X0572850Y1008099D01*
G01X0572750Y1007799D01*
G01X0572750Y1007499D01*
G01X0572650Y1007099D01*
G01X0572650Y1006699D01*
G01X0572650Y1005999D01*
G01X0572750Y1005399D01*
G01X0573050Y1004899D01*
G01X0573250Y1004299D01*
G01X0573550Y1003899D01*
G01X0574050Y1003499D01*
G01X0574450Y1003099D01*
G01X0575050Y1002799D01*
G01X0575750Y1002699D01*
G01X0576350Y1002499D01*
G01X0577150Y1002399D01*
G01X0577950Y1002399D01*
G01X0580750Y1002399D01*
G01X0580750Y1002499D01*
G37*
G36*
G01X0576950Y0996799D02*
G01X0576050Y0996799D01*
G01X0575250Y0996699D01*
G01X0574550Y0996499D01*
G01X0573850Y0996299D01*
G01X0573250Y0995999D01*
G01X0572650Y0995699D01*
G01X0572150Y0995299D01*
G01X0571750Y0994899D01*
G01X0571550Y0994299D01*
G01X0571250Y0993599D01*
G01X0571150Y0992899D01*
G01X0571150Y0992099D01*
G01X0571150Y0991599D01*
G01X0571150Y0991099D01*
G01X0571250Y0990699D01*
G01X0571350Y0990299D01*
G01X0571550Y0989899D01*
G01X0571750Y0989599D01*
G01X0571950Y0989199D01*
G01X0572150Y0988999D01*
G01X0572350Y0988699D01*
G01X0572550Y0988499D01*
G01X0572850Y0988299D01*
G01X0573150Y0988099D01*
G01X0573350Y0987799D01*
G01X0573650Y0987699D01*
G01X0574050Y0987599D01*
G01X0574350Y0987499D01*
G01X0574650Y0987399D01*
G01X0575050Y0987399D01*
G01X0575350Y0987299D01*
G01X0575750Y0987299D01*
G01X0576150Y0987199D01*
G01X0576550Y0987199D01*
G01X0576950Y0987199D01*
G01X0577250Y0987199D01*
G01X0577550Y0987199D01*
G01X0577850Y0987199D01*
G01X0578150Y0987199D01*
G01X0578350Y0987199D01*
G01X0578650Y0987199D01*
G01X0578950Y0987199D01*
G01X0579250Y0987199D01*
G01X0579450Y0987299D01*
G01X0579750Y0987299D01*
G01X0580050Y0987299D01*
G01X0580250Y0987399D01*
G01X0580450Y0987399D01*
G01X0580450Y0996699D01*
G01X0576950Y0996699D01*
G01X0576950Y0996799D01*
G37*
%LPD*%
G36*
G01X0551250Y1003899D02*
G01X0551350Y1003499D01*
G01X0551450Y1003199D01*
G01X0551650Y1002699D01*
G01X0551750Y1002299D01*
G01X0551950Y1001699D01*
G01X0552150Y1001099D01*
G01X0552250Y1000599D01*
G01X0552450Y0999999D01*
G01X0552650Y0999299D01*
G01X0552850Y0998699D01*
G01X0553050Y0998099D01*
G01X0553250Y0997399D01*
G01X0553450Y0996699D01*
G01X0553650Y0995999D01*
G01X0553850Y0995299D01*
G01X0554050Y0994599D01*
G01X0554250Y0993899D01*
G01X0554450Y0993199D01*
G01X0554650Y0992499D01*
G01X0554950Y0991799D01*
G01X0555050Y0991199D01*
G01X0555250Y0990599D01*
G01X0555450Y0989899D01*
G01X0555650Y0989299D01*
G01X0555650Y0990299D01*
G01X0555650Y0991299D01*
G01X0555650Y0992299D01*
G01X0555650Y0993399D01*
G01X0555650Y0994399D01*
G01X0555650Y0995599D01*
G01X0555650Y0996699D01*
G01X0555650Y0997799D01*
G01X0555550Y0998899D01*
G01X0555550Y0999999D01*
G01X0555550Y1001199D01*
G01X0555450Y1002399D01*
G01X0555450Y1003499D01*
G01X0555450Y1004699D01*
G01X0555450Y1005799D01*
G01X0555450Y1006999D01*
G01X0555350Y1008099D01*
G01X0555350Y1009299D01*
G01X0555250Y1010499D01*
G01X0555250Y1011599D01*
G01X0555250Y1012799D01*
G01X0555250Y1013899D01*
G01X0555250Y1014999D01*
G01X0555150Y1016099D01*
G01X0561550Y1016099D01*
G01X0561550Y1014699D01*
G01X0561450Y1013299D01*
G01X0561450Y1011899D01*
G01X0561350Y1010399D01*
G01X0561350Y1008999D01*
G01X0561250Y1007499D01*
G01X0561250Y1005999D01*
G01X0561150Y1004499D01*
G01X0561050Y1003099D01*
G01X0561050Y1001599D01*
G01X0560950Y1000099D01*
G01X0560850Y0998599D01*
G01X0560850Y0997199D01*
G01X0560750Y0995699D01*
G01X0560650Y0994199D01*
G01X0560450Y0992799D01*
G01X0560350Y0991299D01*
G01X0560350Y0989899D01*
G01X0560150Y0988399D01*
G01X0560050Y0986999D01*
G01X0559950Y0985699D01*
G01X0559750Y0984299D01*
G01X0559650Y0982999D01*
G01X0559450Y0981699D01*
G01X0553750Y0981699D01*
G01X0553450Y0982799D01*
G01X0553050Y0984099D01*
G01X0552650Y0985299D01*
G01X0552250Y0986599D01*
G01X0551750Y0987899D01*
G01X0551250Y0989299D01*
G01X0550850Y0990699D01*
G01X0550450Y0991999D01*
G01X0550050Y0993299D01*
G01X0549650Y0994499D01*
G01X0549250Y0995799D01*
G01X0548750Y0996899D01*
G01X0548350Y0995699D01*
G01X0547950Y0994399D01*
G01X0547550Y0993199D01*
G01X0547150Y0991899D01*
G01X0546750Y0990599D01*
G01X0546250Y0989299D01*
G01X0545850Y0987999D01*
G01X0545450Y0986699D01*
G01X0545050Y0985499D01*
G01X0544650Y0984199D01*
G01X0544250Y0982999D01*
G01X0543750Y0981799D01*
G01X0538150Y0981799D01*
G01X0537950Y0983099D01*
G01X0537850Y0984399D01*
G01X0537750Y0985699D01*
G01X0537550Y0987099D01*
G01X0537450Y0988499D01*
G01X0537450Y0989899D01*
G01X0537350Y0991299D01*
G01X0537250Y0992699D01*
G01X0537150Y0994099D01*
G01X0537050Y0995599D01*
G01X0536950Y0997099D01*
G01X0536850Y0998599D01*
G01X0536750Y1000099D01*
G01X0536750Y1001599D01*
G01X0536650Y1003099D01*
G01X0536550Y1004599D01*
G01X0536550Y1005999D01*
G01X0536450Y1007499D01*
G01X0536350Y1008999D01*
G01X0536250Y1010399D01*
G01X0536250Y1011899D01*
G01X0536150Y1013299D01*
G01X0536150Y1014699D01*
G01X0536150Y1016099D01*
G01X0543150Y1016099D01*
G01X0543150Y1014999D01*
G01X0543150Y1013899D01*
G01X0543050Y1012799D01*
G01X0543050Y1011599D01*
G01X0543050Y1010499D01*
G01X0542950Y1009299D01*
G01X0542850Y1008099D01*
G01X0542850Y1006899D01*
G01X0542850Y1005799D01*
G01X0542750Y1004599D01*
G01X0542750Y1003499D01*
G01X0542650Y1002399D01*
G01X0542650Y1001199D01*
G01X0542550Y0999999D01*
G01X0542550Y0998899D01*
G01X0542550Y0997799D01*
G01X0542450Y0996699D01*
G01X0542450Y0995599D01*
G01X0542350Y0994399D01*
G01X0542350Y0993399D01*
G01X0542250Y0992299D01*
G01X0542250Y0991299D01*
G01X0542250Y0990299D01*
G01X0542250Y0989299D01*
G01X0542450Y0990099D01*
G01X0542650Y0990799D01*
G01X0542850Y0991599D01*
G01X0543150Y0992299D01*
G01X0543350Y0993099D01*
G01X0543550Y0993799D01*
G01X0543750Y0994399D01*
G01X0543950Y0995099D01*
G01X0544150Y0995799D01*
G01X0544350Y0996499D01*
G01X0544450Y0997199D01*
G01X0544650Y0997799D01*
G01X0544750Y0998399D01*
G01X0544950Y0998999D01*
G01X0545150Y0999599D01*
G01X0545250Y1000099D01*
G01X0545450Y1000699D01*
G01X0545650Y1001299D01*
G01X0545750Y1001699D01*
G01X0545850Y1002199D01*
G01X0546050Y1002699D01*
G01X0546150Y1003099D01*
G01X0546250Y1003499D01*
G01X0546250Y1003899D01*
G01X0551250Y1003899D01*
G01X0551250Y1003899D01*
G37*
G36*
G01X0731550Y1053999D02*
G01X0730350Y1054399D01*
G01X0729250Y1054799D01*
G01X0728250Y1055199D01*
G01X0727250Y1055599D01*
G01X0726450Y1055999D01*
G01X0725750Y1056499D01*
G01X0728350Y1064599D01*
G01X0728950Y1064299D01*
G01X0729550Y1063999D01*
G01X0730250Y1063699D01*
G01X0730950Y1063399D01*
G01X0731750Y1063099D01*
G01X0732550Y1062799D01*
G01X0733350Y1062499D01*
G01X0734350Y1062299D01*
G01X0735550Y1062099D01*
G01X0736650Y1061899D01*
G01X0737850Y1061799D01*
G01X0739250Y1061799D01*
G01X0741550Y1061799D01*
G01X0743450Y1062199D01*
G01X0745150Y1062999D01*
G01X0746850Y1063799D01*
G01X0748150Y1064899D01*
G01X0749250Y1066499D01*
G01X0750250Y1068099D01*
G01X0751050Y1069999D01*
G01X0751550Y1072299D01*
G01X0752050Y1074499D01*
G01X0752250Y1077199D01*
G01X0752250Y1080099D01*
G01X0752250Y1081799D01*
G01X0752150Y1083399D01*
G01X0751950Y1084799D01*
G01X0751750Y1086199D01*
G01X0751550Y1087499D01*
G01X0751150Y1088599D01*
G01X0750850Y1089699D01*
G01X0750350Y1090699D01*
G01X0749950Y1091599D01*
G01X0749450Y1092499D01*
G01X0748850Y1093299D01*
G01X0748250Y1093999D01*
G01X0747650Y1094699D01*
G01X0746950Y1095299D01*
G01X0746350Y1095799D01*
G01X0745650Y1096299D01*
G01X0744950Y1096699D01*
G01X0744250Y1096899D01*
G01X0743450Y1097199D01*
G01X0742650Y1097399D01*
G01X0741750Y1097599D01*
G01X0740950Y1097699D01*
G01X0740050Y1097799D01*
G01X0739250Y1097799D01*
G01X0738050Y1097799D01*
G01X0736950Y1097699D01*
G01X0735850Y1097599D01*
G01X0734850Y1097399D01*
G01X0733850Y1097199D01*
G01X0732950Y1096899D01*
G01X0732050Y1096699D01*
G01X0731250Y1096399D01*
G01X0730450Y1095999D01*
G01X0729650Y1095699D01*
G01X0729050Y1095299D01*
G01X0728350Y1094899D01*
G01X0725750Y1103099D01*
G01X0725950Y1103199D01*
G01X0726150Y1103299D01*
G01X0726450Y1103499D01*
G01X0726750Y1103599D01*
G01X0727050Y1103799D01*
G01X0727450Y1103999D01*
G01X0727750Y1104199D01*
G01X0728150Y1104399D01*
G01X0728650Y1104699D01*
G01X0729150Y1104899D01*
G01X0729650Y1105099D01*
G01X0730150Y1105299D01*
G01X0730750Y1105499D01*
G01X0731350Y1105699D01*
G01X0731950Y1105799D01*
G01X0732650Y1105999D01*
G01X0733350Y1106199D01*
G01X0734050Y1106399D01*
G01X0734850Y1106499D01*
G01X0735650Y1106599D01*
G01X0736450Y1106699D01*
G01X0737250Y1106799D01*
G01X0738150Y1106799D01*
G01X0739050Y1106799D01*
G01X0740750Y1106799D01*
G01X0742350Y1106699D01*
G01X0743950Y1106399D01*
G01X0745450Y1106099D01*
G01X0746950Y1105599D01*
G01X0748350Y1104999D01*
G01X0749750Y1104399D01*
G01X0751050Y1103599D01*
G01X0752350Y1102799D01*
G01X0753550Y1101899D01*
G01X0754650Y1100899D01*
G01X0755750Y1099699D01*
G01X0756750Y1098499D01*
G01X0757750Y1097299D01*
G01X0758550Y1095899D01*
G01X0759350Y1094399D01*
G01X0760050Y1092899D01*
G01X0760650Y1091299D01*
G01X0761150Y1089599D01*
G01X0761650Y1087799D01*
G01X0761950Y1085899D01*
G01X0762250Y1083999D01*
G01X0762450Y1081999D01*
G01X0762450Y1079899D01*
G01X0762450Y1075599D01*
G01X0761950Y1071699D01*
G01X0760950Y1068399D01*
G01X0760050Y1065099D01*
G01X0758550Y1062299D01*
G01X0756750Y1059999D01*
G01X0754750Y1057599D01*
G01X0752450Y1055899D01*
G01X0749650Y1054799D01*
G01X0746850Y1053599D01*
G01X0743650Y1053099D01*
G01X0740050Y1053099D01*
G01X0738450Y1052899D01*
G01X0736950Y1052999D01*
G01X0735550Y1053099D01*
G01X0734150Y1053299D01*
G01X0732850Y1053599D01*
G01X0731550Y1053999D01*
G01X0731550Y1053999D01*
G37*
G36*
G01X0695450Y1105599D02*
G01X0695450Y1085299D01*
G01X0709050Y1085299D01*
G01X0709050Y1105599D01*
G01X0719350Y1105599D01*
G01X0719350Y1053999D01*
G01X0709050Y1053999D01*
G01X0709050Y1076699D01*
G01X0695450Y1076699D01*
G01X0695450Y1053899D01*
G01X0685150Y1053899D01*
G01X0685150Y1105599D01*
G01X0695450Y1105599D01*
G01X0695450Y1105599D01*
G37*
G36*
G01X0640450Y1053899D02*
G01X0641550Y1058799D01*
G01X0642750Y1063599D01*
G01X0643850Y1068199D01*
G01X0645050Y1072699D01*
G01X0646250Y1077199D01*
G01X0647550Y1081399D01*
G01X0648750Y1085599D01*
G01X0649950Y1089799D01*
G01X0651150Y1093799D01*
G01X0652450Y1097799D01*
G01X0653650Y1101699D01*
G01X0654950Y1105399D01*
G01X0666050Y1105399D01*
G01X0667150Y1101699D01*
G01X0668350Y1097799D01*
G01X0669550Y1093899D01*
G01X0670750Y1089899D01*
G01X0671950Y1085799D01*
G01X0673250Y1081699D01*
G01X0674450Y1077499D01*
G01X0675750Y1073099D01*
G01X0676950Y1068499D01*
G01X0678250Y1063799D01*
G01X0679450Y1058999D01*
G01X0680650Y1053899D01*
G01X0669950Y1053899D01*
G01X0667650Y1065799D01*
G01X0653950Y1065799D01*
G01X0651550Y1053899D01*
G01X0640450Y1053899D01*
G01X0640450Y1053899D01*
G37*
%LPC*%
G36*
G01X0659050Y1089999D02*
G01X0658850Y1089099D01*
G01X0658650Y1088199D01*
G01X0658350Y1087399D01*
G01X0658150Y1086499D01*
G01X0657850Y1085699D01*
G01X0657650Y1084899D01*
G01X0657450Y1083999D01*
G01X0657250Y1083199D01*
G01X0657050Y1082299D01*
G01X0656850Y1081399D01*
G01X0656750Y1080599D01*
G01X0656550Y1079699D01*
G01X0656450Y1078899D01*
G01X0656250Y1077999D01*
G01X0656050Y1077099D01*
G01X0655950Y1076299D01*
G01X0655750Y1075299D01*
G01X0655650Y1074399D01*
G01X0665750Y1074399D01*
G01X0665650Y1075299D01*
G01X0665450Y1076299D01*
G01X0665250Y1077099D01*
G01X0665050Y1077999D01*
G01X0664850Y1078899D01*
G01X0664650Y1079699D01*
G01X0664450Y1080599D01*
G01X0664250Y1081399D01*
G01X0664050Y1082299D01*
G01X0663850Y1083199D01*
G01X0663750Y1083999D01*
G01X0663550Y1084899D01*
G01X0663350Y1085699D01*
G01X0663150Y1086599D01*
G01X0662850Y1087399D01*
G01X0662650Y1088299D01*
G01X0662450Y1089199D01*
G01X0662150Y1089999D01*
G01X0661850Y1090799D01*
G01X0661650Y1091699D01*
G01X0661350Y1092699D01*
G01X0661150Y1093599D01*
G01X0660850Y1094599D01*
G01X0660650Y1095599D01*
G01X0660350Y1094599D01*
G01X0660050Y1093599D01*
G01X0659850Y1092699D01*
G01X0659550Y1091699D01*
G01X0659350Y1090799D01*
G01X0659050Y1089999D01*
G01X0659050Y1089999D01*
G37*
%LPD*%
G36*
G01X0602550Y1053899D02*
G01X0602550Y1062399D01*
G01X0613650Y1062399D01*
G01X0613650Y1096899D01*
G01X0602550Y1096899D01*
G01X0602550Y1105599D01*
G01X0635350Y1105599D01*
G01X0635350Y1097099D01*
G01X0624050Y1097099D01*
G01X0624050Y1062499D01*
G01X0635350Y1062499D01*
G01X0635350Y1053999D01*
G01X0602550Y1053999D01*
G01X0602550Y1053899D01*
G37*
G36*
G01X0490150Y0721299D02*
G01X0490350Y0720599D01*
G01X0490650Y0720099D01*
G01X0490850Y0719599D01*
G01X0491050Y0719099D01*
G01X0491250Y0718599D01*
G01X0491550Y0718199D01*
G01X0486150Y0716399D01*
G01X0486050Y0716499D01*
G01X0485950Y0716699D01*
G01X0485850Y0716899D01*
G01X0485750Y0717099D01*
G01X0485650Y0717299D01*
G01X0485450Y0717499D01*
G01X0485350Y0717799D01*
G01X0485150Y0718099D01*
G01X0485050Y0718399D01*
G01X0484950Y0718699D01*
G01X0484750Y0718999D01*
G01X0484650Y0719399D01*
G01X0484450Y0719899D01*
G01X0484350Y0720299D01*
G01X0484250Y0720699D01*
G01X0484150Y0721199D01*
G01X0484050Y0721699D01*
G01X0483950Y0722199D01*
G01X0483850Y0722799D01*
G01X0483750Y0723299D01*
G01X0483750Y0723899D01*
G01X0483650Y0724499D01*
G01X0483650Y0725099D01*
G01X0483650Y0725799D01*
G01X0483650Y0726899D01*
G01X0483750Y0727899D01*
G01X0483950Y0728899D01*
G01X0484150Y0729799D01*
G01X0484450Y0730799D01*
G01X0484750Y0731699D01*
G01X0485150Y0732599D01*
G01X0485650Y0733399D01*
G01X0486150Y0734199D01*
G01X0486750Y0734999D01*
G01X0487450Y0735699D01*
G01X0488250Y0736399D01*
G01X0489050Y0737099D01*
G01X0489850Y0737699D01*
G01X0490750Y0738199D01*
G01X0491750Y0738699D01*
G01X0492750Y0739199D01*
G01X0493950Y0739599D01*
G01X0495150Y0739999D01*
G01X0496350Y0740299D01*
G01X0497650Y0740499D01*
G01X0498850Y0740599D01*
G01X0500250Y0740699D01*
G01X0501750Y0740699D01*
G01X0503150Y0740699D01*
G01X0504550Y0740599D01*
G01X0505850Y0740499D01*
G01X0507150Y0740299D01*
G01X0508350Y0740099D01*
G01X0509450Y0739699D01*
G01X0510650Y0739399D01*
G01X0511650Y0738999D01*
G01X0512550Y0738499D01*
G01X0513550Y0737999D01*
G01X0514350Y0737499D01*
G01X0515050Y0736899D01*
G01X0515850Y0736299D01*
G01X0516450Y0735699D01*
G01X0517050Y0734899D01*
G01X0517550Y0734199D01*
G01X0518050Y0733399D01*
G01X0518350Y0732499D01*
G01X0518750Y0731699D01*
G01X0519050Y0730799D01*
G01X0519150Y0729799D01*
G01X0519350Y0728799D01*
G01X0519450Y0727799D01*
G01X0519450Y0726699D01*
G01X0519450Y0725399D01*
G01X0519450Y0724299D01*
G01X0519350Y0723199D01*
G01X0519250Y0722199D01*
G01X0519150Y0721299D01*
G01X0518950Y0720399D01*
G01X0518750Y0719599D01*
G01X0518550Y0718899D01*
G01X0518350Y0718199D01*
G01X0518250Y0717599D01*
G01X0518150Y0717099D01*
G01X0517950Y0716699D01*
G01X0500750Y0716699D01*
G01X0500750Y0723499D01*
G01X0513250Y0723499D01*
G01X0513350Y0723699D01*
G01X0513350Y0723899D01*
G01X0513350Y0724099D01*
G01X0513350Y0724299D01*
G01X0513350Y0724599D01*
G01X0513350Y0724899D01*
G01X0513350Y0725099D01*
G01X0513350Y0725299D01*
G01X0513350Y0725599D01*
G01X0513350Y0725799D01*
G01X0513350Y0725999D01*
G01X0513350Y0726299D01*
G01X0513350Y0727499D01*
G01X0513150Y0728599D01*
G01X0512650Y0729599D01*
G01X0512150Y0730499D01*
G01X0511450Y0731299D01*
G01X0510450Y0731899D01*
G01X0509450Y0732599D01*
G01X0508250Y0733099D01*
G01X0506750Y0733399D01*
G01X0505250Y0733699D01*
G01X0503450Y0733899D01*
G01X0501450Y0733899D01*
G01X0500550Y0733899D01*
G01X0499650Y0733899D01*
G01X0498850Y0733799D01*
G01X0498150Y0733699D01*
G01X0497350Y0733599D01*
G01X0496550Y0733499D01*
G01X0495850Y0733299D01*
G01X0495150Y0733099D01*
G01X0494450Y0732899D01*
G01X0493850Y0732599D01*
G01X0493350Y0732299D01*
G01X0492850Y0731899D01*
G01X0492250Y0731599D01*
G01X0491750Y0731199D01*
G01X0491350Y0730699D01*
G01X0490950Y0730199D01*
G01X0490650Y0729699D01*
G01X0490350Y0729199D01*
G01X0490050Y0728599D01*
G01X0489850Y0727999D01*
G01X0489650Y0727299D01*
G01X0489550Y0726599D01*
G01X0489450Y0725799D01*
G01X0489450Y0724999D01*
G01X0489550Y0724299D01*
G01X0489650Y0723599D01*
G01X0489750Y0722999D01*
G01X0489850Y0722399D01*
G01X0489950Y0721799D01*
G01X0490150Y0721299D01*
G01X0490150Y0721299D01*
G37*
G36*
G01X0518750Y0689299D02*
G01X0484350Y0689299D01*
G01X0484350Y0695399D01*
G01X0505450Y0695399D01*
G01X0504750Y0695699D01*
G01X0504050Y0695999D01*
G01X0503250Y0696399D01*
G01X0502450Y0696699D01*
G01X0501650Y0697099D01*
G01X0500750Y0697499D01*
G01X0499850Y0697899D01*
G01X0498950Y0698299D01*
G01X0498050Y0698799D01*
G01X0497050Y0699199D01*
G01X0496150Y0699699D01*
G01X0495150Y0700299D01*
G01X0494250Y0700799D01*
G01X0493250Y0701299D01*
G01X0492350Y0701799D01*
G01X0491350Y0702299D01*
G01X0490450Y0702799D01*
G01X0489450Y0703299D01*
G01X0488550Y0703799D01*
G01X0487650Y0704299D01*
G01X0486750Y0704899D01*
G01X0485850Y0705399D01*
G01X0485050Y0705899D01*
G01X0484250Y0706399D01*
G01X0484250Y0711899D01*
G01X0518650Y0711899D01*
G01X0518650Y0705799D01*
G01X0495850Y0705799D01*
G01X0497750Y0704799D01*
G01X0499650Y0703799D01*
G01X0501550Y0702799D01*
G01X0503450Y0701799D01*
G01X0505350Y0700799D01*
G01X0507250Y0699899D01*
G01X0509150Y0698999D01*
G01X0511050Y0698099D01*
G01X0512950Y0697199D01*
G01X0514850Y0696399D01*
G01X0516750Y0695599D01*
G01X0518650Y0694699D01*
G01X0518650Y0689299D01*
G01X0518750Y0689299D01*
G37*
G36*
G01X0493650Y0661499D02*
G01X0492550Y0661899D01*
G01X0491550Y0662299D01*
G01X0490650Y0662799D01*
G01X0489750Y0663299D01*
G01X0488950Y0663899D01*
G01X0488250Y0664599D01*
G01X0487550Y0665199D01*
G01X0486950Y0665899D01*
G01X0486350Y0666699D01*
G01X0485850Y0667499D01*
G01X0485350Y0668399D01*
G01X0485050Y0669299D01*
G01X0484650Y0670199D01*
G01X0484450Y0671199D01*
G01X0484250Y0672199D01*
G01X0484150Y0673299D01*
G01X0484050Y0674399D01*
G01X0484050Y0675599D01*
G01X0484050Y0676099D01*
G01X0484050Y0676699D01*
G01X0484050Y0677399D01*
G01X0484150Y0678099D01*
G01X0484150Y0678799D01*
G01X0484250Y0679399D01*
G01X0484250Y0680099D01*
G01X0484350Y0680799D01*
G01X0484450Y0681599D01*
G01X0484550Y0682299D01*
G01X0484650Y0683099D01*
G01X0484950Y0683899D01*
G01X0518550Y0683899D01*
G01X0518650Y0683199D01*
G01X0518750Y0682499D01*
G01X0518950Y0681899D01*
G01X0519050Y0681299D01*
G01X0519150Y0680699D01*
G01X0519250Y0680099D01*
G01X0519250Y0679599D01*
G01X0519350Y0678999D01*
G01X0519350Y0678399D01*
G01X0519350Y0677799D01*
G01X0519350Y0677199D01*
G01X0519350Y0676499D01*
G01X0519350Y0675299D01*
G01X0519250Y0674199D01*
G01X0519150Y0673199D01*
G01X0518950Y0672099D01*
G01X0518750Y0671099D01*
G01X0518350Y0670099D01*
G01X0518050Y0669199D01*
G01X0517650Y0668299D01*
G01X0517150Y0667399D01*
G01X0516650Y0666599D01*
G01X0516050Y0665799D01*
G01X0515350Y0665099D01*
G01X0514650Y0664399D01*
G01X0513850Y0663799D01*
G01X0512950Y0663299D01*
G01X0512050Y0662699D01*
G01X0511050Y0662199D01*
G01X0509950Y0661799D01*
G01X0508750Y0661399D01*
G01X0507550Y0661099D01*
G01X0506150Y0660899D01*
G01X0504850Y0660699D01*
G01X0503350Y0660599D01*
G01X0501750Y0660599D01*
G01X0500150Y0660499D01*
G01X0498650Y0660599D01*
G01X0497350Y0660699D01*
G01X0495950Y0660899D01*
G01X0494750Y0661199D01*
G01X0493650Y0661499D01*
G01X0493650Y0661499D01*
G37*
%LPC*%
G36*
G01X0490150Y0676799D02*
G01X0490150Y0676699D01*
G01X0490050Y0676499D01*
G01X0490050Y0676399D01*
G01X0490050Y0676199D01*
G01X0490050Y0675999D01*
G01X0490050Y0675799D01*
G01X0490050Y0675599D01*
G01X0490050Y0675499D01*
G01X0490050Y0675299D01*
G01X0490050Y0675099D01*
G01X0490050Y0674999D01*
G01X0490050Y0674899D01*
G01X0490050Y0674099D01*
G01X0490150Y0673399D01*
G01X0490250Y0672799D01*
G01X0490450Y0672199D01*
G01X0490650Y0671599D01*
G01X0491050Y0671099D01*
G01X0491350Y0670599D01*
G01X0491750Y0670199D01*
G01X0492150Y0669799D01*
G01X0492650Y0669499D01*
G01X0493150Y0669199D01*
G01X0493650Y0668899D01*
G01X0494250Y0668599D01*
G01X0494850Y0668399D01*
G01X0495450Y0668199D01*
G01X0496050Y0667999D01*
G01X0496750Y0667799D01*
G01X0497450Y0667799D01*
G01X0498150Y0667599D01*
G01X0498850Y0667599D01*
G01X0499550Y0667499D01*
G01X0500250Y0667499D01*
G01X0501050Y0667499D01*
G01X0501750Y0667499D01*
G01X0502550Y0667499D01*
G01X0503350Y0667499D01*
G01X0504150Y0667599D01*
G01X0504950Y0667699D01*
G01X0505750Y0667799D01*
G01X0506450Y0667899D01*
G01X0507150Y0668099D01*
G01X0507750Y0668199D01*
G01X0508450Y0668499D01*
G01X0509050Y0668699D01*
G01X0509650Y0668999D01*
G01X0510150Y0669299D01*
G01X0510750Y0669699D01*
G01X0511150Y0669999D01*
G01X0511550Y0670499D01*
G01X0511950Y0670899D01*
G01X0512350Y0671299D01*
G01X0512650Y0671799D01*
G01X0512950Y0672399D01*
G01X0513150Y0672999D01*
G01X0513350Y0673599D01*
G01X0513450Y0674199D01*
G01X0513550Y0674899D01*
G01X0513550Y0675699D01*
G01X0513550Y0675799D01*
G01X0513550Y0675899D01*
G01X0513550Y0675999D01*
G01X0513550Y0676099D01*
G01X0513550Y0676199D01*
G01X0513550Y0676299D01*
G01X0513550Y0676399D01*
G01X0513550Y0676499D01*
G01X0513550Y0676599D01*
G01X0513550Y0676699D01*
G01X0513550Y0676699D01*
G01X0513550Y0676799D01*
G01X0490150Y0676799D01*
G01X0490150Y0676799D01*
G37*
%LPD*%
G36*
G01X0699650Y0724899D02*
G01X0698150Y0724299D01*
G01X0696650Y0723799D01*
G01X0695150Y0723299D01*
G01X0693650Y0722799D01*
G01X0692150Y0722299D01*
G01X0690650Y0721799D01*
G01X0689050Y0721299D01*
G01X0687450Y0720799D01*
G01X0685950Y0720399D01*
G01X0684350Y0719899D01*
G01X0682850Y0719399D01*
G01X0681450Y0718999D01*
G01X0679950Y0718599D01*
G01X0678450Y0718199D01*
G01X0677050Y0717899D01*
G01X0675650Y0717499D01*
G01X0674250Y0717199D01*
G01X0672850Y0716799D01*
G01X0671450Y0716499D01*
G01X0670150Y0716099D01*
G01X0668850Y0715899D01*
G01X0667650Y0715599D01*
G01X0666450Y0715299D01*
G01X0665350Y0715099D01*
G01X0665350Y0722399D01*
G01X0666250Y0722499D01*
G01X0667150Y0722699D01*
G01X0668250Y0722899D01*
G01X0669250Y0723099D01*
G01X0670350Y0723299D01*
G01X0671550Y0723499D01*
G01X0672750Y0723699D01*
G01X0673950Y0723899D01*
G01X0675250Y0724199D01*
G01X0676450Y0724399D01*
G01X0677650Y0724699D01*
G01X0678950Y0724899D01*
G01X0680150Y0725099D01*
G01X0681450Y0725399D01*
G01X0682650Y0725699D01*
G01X0683850Y0725999D01*
G01X0685150Y0726299D01*
G01X0686250Y0726499D01*
G01X0687450Y0726799D01*
G01X0688650Y0727099D01*
G01X0689750Y0727399D01*
G01X0690850Y0727699D01*
G01X0691850Y0727999D01*
G01X0692850Y0728299D01*
G01X0691850Y0728599D01*
G01X0690850Y0728899D01*
G01X0689750Y0729199D01*
G01X0688650Y0729499D01*
G01X0687450Y0729899D01*
G01X0686250Y0730099D01*
G01X0685150Y0730399D01*
G01X0683850Y0730699D01*
G01X0682650Y0730999D01*
G01X0681450Y0731299D01*
G01X0680150Y0731499D01*
G01X0678950Y0731799D01*
G01X0677650Y0732099D01*
G01X0676450Y0732299D01*
G01X0675250Y0732599D01*
G01X0674050Y0732799D01*
G01X0672850Y0733099D01*
G01X0671750Y0733299D01*
G01X0670550Y0733499D01*
G01X0669450Y0733799D01*
G01X0668350Y0733899D01*
G01X0667350Y0734099D01*
G01X0666350Y0734199D01*
G01X0665450Y0734299D01*
G01X0665450Y0741499D01*
G01X0666350Y0741399D01*
G01X0667450Y0741199D01*
G01X0668550Y0740899D01*
G01X0669750Y0740699D01*
G01X0671050Y0740299D01*
G01X0672450Y0739999D01*
G01X0673850Y0739699D01*
G01X0675350Y0739299D01*
G01X0676850Y0738899D01*
G01X0678350Y0738499D01*
G01X0679850Y0738099D01*
G01X0681450Y0737599D01*
G01X0683050Y0737199D01*
G01X0684650Y0736799D01*
G01X0686250Y0736299D01*
G01X0687850Y0735799D01*
G01X0689450Y0735299D01*
G01X0691050Y0734899D01*
G01X0692650Y0734399D01*
G01X0694150Y0733899D01*
G01X0695550Y0733399D01*
G01X0697050Y0732999D01*
G01X0698350Y0732499D01*
G01X0699650Y0732099D01*
G01X0699650Y0724899D01*
G01X0699650Y0724899D01*
G37*
G36*
G01X0699650Y0692399D02*
G01X0699350Y0691499D01*
G01X0699050Y0690799D01*
G01X0698750Y0690199D01*
G01X0698550Y0689499D01*
G01X0698250Y0688999D01*
G01X0697950Y0688499D01*
G01X0692550Y0690099D01*
G01X0692750Y0690499D01*
G01X0692950Y0690899D01*
G01X0693150Y0691399D01*
G01X0693350Y0691799D01*
G01X0693550Y0692399D01*
G01X0693750Y0692899D01*
G01X0694050Y0693499D01*
G01X0694150Y0694099D01*
G01X0694250Y0694899D01*
G01X0694350Y0695599D01*
G01X0694350Y0696499D01*
G01X0694350Y0697399D01*
G01X0694350Y0698899D01*
G01X0694050Y0700199D01*
G01X0693550Y0701299D01*
G01X0692950Y0702399D01*
G01X0692150Y0703299D01*
G01X0691150Y0703999D01*
G01X0690150Y0704699D01*
G01X0688850Y0705199D01*
G01X0687350Y0705599D01*
G01X0685850Y0705899D01*
G01X0684050Y0706099D01*
G01X0682150Y0706099D01*
G01X0681050Y0706099D01*
G01X0679950Y0705999D01*
G01X0679050Y0705899D01*
G01X0678050Y0705799D01*
G01X0677150Y0705599D01*
G01X0676450Y0705399D01*
G01X0675650Y0705199D01*
G01X0674950Y0704899D01*
G01X0674350Y0704599D01*
G01X0673750Y0704299D01*
G01X0673250Y0703899D01*
G01X0672850Y0703499D01*
G01X0672350Y0703099D01*
G01X0671950Y0702599D01*
G01X0671650Y0702199D01*
G01X0671350Y0701699D01*
G01X0671050Y0701299D01*
G01X0670850Y0700699D01*
G01X0670650Y0700199D01*
G01X0670550Y0699699D01*
G01X0670450Y0699199D01*
G01X0670350Y0698599D01*
G01X0670350Y0698099D01*
G01X0670350Y0697499D01*
G01X0670350Y0696699D01*
G01X0670350Y0695999D01*
G01X0670450Y0695299D01*
G01X0670550Y0694599D01*
G01X0670650Y0693999D01*
G01X0670850Y0693299D01*
G01X0671050Y0692699D01*
G01X0671250Y0692199D01*
G01X0671550Y0691699D01*
G01X0671750Y0691099D01*
G01X0671950Y0690699D01*
G01X0672250Y0690299D01*
G01X0666850Y0688499D01*
G01X0666750Y0688599D01*
G01X0666650Y0688799D01*
G01X0666550Y0688999D01*
G01X0666450Y0689199D01*
G01X0666250Y0689399D01*
G01X0666150Y0689599D01*
G01X0666050Y0689899D01*
G01X0665850Y0690099D01*
G01X0665750Y0690399D01*
G01X0665650Y0690699D01*
G01X0665450Y0690999D01*
G01X0665350Y0691399D01*
G01X0665150Y0691699D01*
G01X0665050Y0692199D01*
G01X0664950Y0692599D01*
G01X0664850Y0693099D01*
G01X0664650Y0693499D01*
G01X0664650Y0693999D01*
G01X0664550Y0694499D01*
G01X0664450Y0694999D01*
G01X0664450Y0695599D01*
G01X0664350Y0696099D01*
G01X0664350Y0696699D01*
G01X0664350Y0697399D01*
G01X0664350Y0698499D01*
G01X0664450Y0699499D01*
G01X0664650Y0700599D01*
G01X0664850Y0701599D01*
G01X0665150Y0702599D01*
G01X0665650Y0703599D01*
G01X0666050Y0704599D01*
G01X0666550Y0705499D01*
G01X0667050Y0706299D01*
G01X0667650Y0707199D01*
G01X0668350Y0707899D01*
G01X0669050Y0708599D01*
G01X0669850Y0709299D01*
G01X0670750Y0709899D01*
G01X0671650Y0710499D01*
G01X0672650Y0710999D01*
G01X0673650Y0711499D01*
G01X0674750Y0711799D01*
G01X0675850Y0712199D01*
G01X0677050Y0712499D01*
G01X0678350Y0712699D01*
G01X0679550Y0712799D01*
G01X0680950Y0712899D01*
G01X0682450Y0712899D01*
G01X0685250Y0712899D01*
G01X0687750Y0712599D01*
G01X0690050Y0711999D01*
G01X0692250Y0711299D01*
G01X0694150Y0710299D01*
G01X0695750Y0708999D01*
G01X0697250Y0707799D01*
G01X0698450Y0706199D01*
G01X0699250Y0704399D01*
G01X0700050Y0702499D01*
G01X0700450Y0700299D01*
G01X0700450Y0697899D01*
G01X0700350Y0696899D01*
G01X0700350Y0695899D01*
G01X0700250Y0694999D01*
G01X0700050Y0694099D01*
G01X0699950Y0693199D01*
G01X0699650Y0692399D01*
G01X0699650Y0692399D01*
G37*
G36*
G01X0699650Y0664599D02*
G01X0699350Y0663799D01*
G01X0699050Y0662999D01*
G01X0698750Y0662399D01*
G01X0698550Y0661699D01*
G01X0698250Y0661199D01*
G01X0697950Y0660699D01*
G01X0692550Y0662399D01*
G01X0692750Y0662699D01*
G01X0692950Y0663099D01*
G01X0693150Y0663599D01*
G01X0693350Y0664099D01*
G01X0693550Y0664599D01*
G01X0693750Y0665099D01*
G01X0694050Y0665699D01*
G01X0694150Y0666399D01*
G01X0694250Y0667099D01*
G01X0694350Y0667799D01*
G01X0694350Y0668699D01*
G01X0694350Y0669599D01*
G01X0694350Y0671099D01*
G01X0694050Y0672399D01*
G01X0693550Y0673499D01*
G01X0692950Y0674699D01*
G01X0692150Y0675599D01*
G01X0691150Y0676299D01*
G01X0690150Y0676899D01*
G01X0688850Y0677499D01*
G01X0687350Y0677799D01*
G01X0685850Y0678199D01*
G01X0684050Y0678299D01*
G01X0682150Y0678299D01*
G01X0681050Y0678299D01*
G01X0679950Y0678299D01*
G01X0679050Y0678099D01*
G01X0678050Y0677999D01*
G01X0677150Y0677799D01*
G01X0676450Y0677599D01*
G01X0675650Y0677399D01*
G01X0674950Y0677099D01*
G01X0674350Y0676799D01*
G01X0673750Y0676499D01*
G01X0673250Y0676099D01*
G01X0672850Y0675699D01*
G01X0672450Y0675299D01*
G01X0672050Y0674899D01*
G01X0671650Y0674399D01*
G01X0671350Y0673999D01*
G01X0671050Y0673499D01*
G01X0670850Y0672899D01*
G01X0670650Y0672399D01*
G01X0670550Y0671899D01*
G01X0670450Y0671399D01*
G01X0670350Y0670799D01*
G01X0670350Y0670299D01*
G01X0670350Y0669699D01*
G01X0670350Y0668999D01*
G01X0670350Y0668199D01*
G01X0670450Y0667499D01*
G01X0670550Y0666799D01*
G01X0670650Y0666199D01*
G01X0670850Y0665599D01*
G01X0671050Y0664899D01*
G01X0671250Y0664399D01*
G01X0671550Y0663899D01*
G01X0671750Y0663399D01*
G01X0671950Y0662899D01*
G01X0672250Y0662499D01*
G01X0666850Y0660699D01*
G01X0666750Y0660799D01*
G01X0666650Y0660999D01*
G01X0666550Y0661199D01*
G01X0666450Y0661399D01*
G01X0666250Y0661599D01*
G01X0666150Y0661799D01*
G01X0666050Y0662099D01*
G01X0665850Y0662399D01*
G01X0665750Y0662699D01*
G01X0665650Y0662999D01*
G01X0665450Y0663299D01*
G01X0665350Y0663599D01*
G01X0665150Y0663999D01*
G01X0665050Y0664399D01*
G01X0664950Y0664799D01*
G01X0664850Y0665299D01*
G01X0664650Y0665799D01*
G01X0664650Y0666299D01*
G01X0664550Y0666699D01*
G01X0664450Y0667299D01*
G01X0664450Y0667799D01*
G01X0664350Y0668399D01*
G01X0664350Y0668999D01*
G01X0664350Y0669599D01*
G01X0664350Y0670699D01*
G01X0664450Y0671799D01*
G01X0664650Y0672799D01*
G01X0664850Y0673899D01*
G01X0665150Y0674899D01*
G01X0665650Y0675799D01*
G01X0666050Y0676799D01*
G01X0666550Y0677699D01*
G01X0667050Y0678499D01*
G01X0667650Y0679399D01*
G01X0668350Y0680099D01*
G01X0669050Y0680799D01*
G01X0669850Y0681499D01*
G01X0670750Y0682199D01*
G01X0671650Y0682699D01*
G01X0672650Y0683199D01*
G01X0673650Y0683699D01*
G01X0674750Y0683999D01*
G01X0675850Y0684399D01*
G01X0677050Y0684699D01*
G01X0678350Y0684899D01*
G01X0679550Y0685099D01*
G01X0680950Y0685099D01*
G01X0682450Y0685099D01*
G01X0685250Y0685099D01*
G01X0687750Y0684799D01*
G01X0690050Y0684199D01*
G01X0692250Y0683499D01*
G01X0694150Y0682599D01*
G01X0695750Y0681299D01*
G01X0697250Y0679999D01*
G01X0698450Y0678399D01*
G01X0699250Y0676599D01*
G01X0700050Y0674699D01*
G01X0700450Y0672599D01*
G01X0700450Y0670099D01*
G01X0700350Y0669099D01*
G01X0700350Y0668099D01*
G01X0700250Y0667199D01*
G01X0700050Y0666299D01*
G01X0699950Y0665399D01*
G01X0699650Y0664599D01*
G01X0699650Y0664599D01*
G37*
G36*
G01X0959050Y0896399D02*
G01X0955850Y0897199D01*
G01X0952650Y0897899D01*
G01X0949550Y0898699D01*
G01X0946450Y0899499D01*
G01X0943550Y0900299D01*
G01X0940750Y0901099D01*
G01X0937950Y0901899D01*
G01X0935250Y0902699D01*
G01X0932550Y0903499D01*
G01X0929850Y0904299D01*
G01X0927250Y0905099D01*
G01X0924750Y0905999D01*
G01X0924750Y0913499D01*
G01X0927250Y0914199D01*
G01X0929850Y0914999D01*
G01X0932450Y0915899D01*
G01X0935150Y0916699D01*
G01X0937850Y0917499D01*
G01X0940650Y0918299D01*
G01X0943350Y0919199D01*
G01X0946350Y0919999D01*
G01X0949450Y0920799D01*
G01X0952550Y0921699D01*
G01X0955750Y0922499D01*
G01X0959050Y0923299D01*
G01X0959050Y0916299D01*
G01X0951050Y0914399D01*
G01X0951050Y0905299D01*
G01X0958950Y0903599D01*
G01X0958950Y0896399D01*
G01X0959050Y0896399D01*
G37*
%LPC*%
G36*
G01X0935050Y0908799D02*
G01X0935650Y0908599D01*
G01X0936150Y0908499D01*
G01X0936750Y0908299D01*
G01X0937350Y0908199D01*
G01X0937950Y0908099D01*
G01X0938550Y0907899D01*
G01X0939050Y0907799D01*
G01X0939650Y0907599D01*
G01X0940250Y0907499D01*
G01X0940750Y0907399D01*
G01X0941350Y0907299D01*
G01X0941950Y0907199D01*
G01X0942550Y0907099D01*
G01X0943150Y0906999D01*
G01X0943750Y0906899D01*
G01X0944350Y0906799D01*
G01X0944950Y0906699D01*
G01X0945650Y0906499D01*
G01X0945650Y0913199D01*
G01X0944950Y0913099D01*
G01X0944350Y0912999D01*
G01X0943750Y0912799D01*
G01X0943250Y0912699D01*
G01X0942650Y0912599D01*
G01X0941950Y0912499D01*
G01X0941350Y0912399D01*
G01X0940850Y0912199D01*
G01X0940250Y0912099D01*
G01X0939650Y0911899D01*
G01X0939150Y0911799D01*
G01X0938550Y0911699D01*
G01X0937950Y0911499D01*
G01X0937450Y0911399D01*
G01X0936850Y0911299D01*
G01X0936250Y0911099D01*
G01X0935650Y0910999D01*
G01X0935050Y0910799D01*
G01X0934450Y0910699D01*
G01X0933850Y0910499D01*
G01X0933250Y0910299D01*
G01X0932650Y0910199D01*
G01X0931950Y0909999D01*
G01X0931250Y0909899D01*
G01X0931950Y0909699D01*
G01X0932550Y0909399D01*
G01X0933150Y0909299D01*
G01X0933750Y0909099D01*
G01X0934450Y0908899D01*
G01X0935050Y0908799D01*
G01X0935050Y0908799D01*
G37*
%LPD*%
G36*
G01X0924650Y0871499D02*
G01X0924650Y0889899D01*
G01X0930350Y0889899D01*
G01X0930350Y0878299D01*
G01X0947150Y0878299D01*
G01X0948350Y0878299D01*
G01X0949450Y0878499D01*
G01X0950350Y0878799D01*
G01X0951250Y0878999D01*
G01X0951950Y0879399D01*
G01X0952450Y0879999D01*
G01X0952850Y0880599D01*
G01X0953250Y0881199D01*
G01X0953450Y0881899D01*
G01X0953650Y0882599D01*
G01X0953750Y0883399D01*
G01X0953750Y0884299D01*
G01X0953750Y0884899D01*
G01X0953750Y0885499D01*
G01X0953550Y0886099D01*
G01X0953450Y0886699D01*
G01X0953250Y0887199D01*
G01X0952950Y0887799D01*
G01X0952650Y0888299D01*
G01X0952450Y0888899D01*
G01X0952150Y0889399D01*
G01X0951850Y0889899D01*
G01X0951550Y0890399D01*
G01X0951250Y0890799D01*
G01X0956750Y0893499D01*
G01X0957150Y0892899D01*
G01X0957550Y0892299D01*
G01X0957850Y0891699D01*
G01X0958250Y0890999D01*
G01X0958550Y0890299D01*
G01X0958950Y0889599D01*
G01X0959250Y0888799D01*
G01X0959450Y0887999D01*
G01X0959550Y0886999D01*
G01X0959650Y0885999D01*
G01X0959750Y0884899D01*
G01X0959750Y0883799D01*
G01X0959750Y0882599D01*
G01X0959650Y0881599D01*
G01X0959550Y0880599D01*
G01X0959350Y0879699D01*
G01X0959150Y0878799D01*
G01X0958750Y0878099D01*
G01X0958450Y0877299D01*
G01X0958050Y0876599D01*
G01X0957650Y0875999D01*
G01X0957150Y0875299D01*
G01X0956750Y0874799D01*
G01X0956150Y0874299D01*
G01X0955650Y0873799D01*
G01X0955050Y0873399D01*
G01X0954350Y0873099D01*
G01X0953750Y0872699D01*
G01X0953050Y0872399D01*
G01X0952250Y0872199D01*
G01X0951550Y0871999D01*
G01X0950750Y0871799D01*
G01X0949950Y0871699D01*
G01X0949150Y0871599D01*
G01X0948350Y0871499D01*
G01X0947550Y0871499D01*
G01X0924650Y0871499D01*
G01X0924650Y0871499D01*
G37*
G36*
G01X0944050Y0843199D02*
G01X0943350Y0843599D01*
G01X0942750Y0844199D01*
G01X0942150Y0844999D01*
G01X0941550Y0845799D01*
G01X0941050Y0846699D01*
G01X0940650Y0847899D01*
G01X0940250Y0847199D01*
G01X0939850Y0846599D01*
G01X0939250Y0846099D01*
G01X0938750Y0845599D01*
G01X0938150Y0845099D01*
G01X0937550Y0844699D01*
G01X0936950Y0844299D01*
G01X0936250Y0843999D01*
G01X0935550Y0843799D01*
G01X0934850Y0843599D01*
G01X0934050Y0843499D01*
G01X0933250Y0843499D01*
G01X0932650Y0843499D01*
G01X0932150Y0843499D01*
G01X0931650Y0843599D01*
G01X0931150Y0843699D01*
G01X0930650Y0843799D01*
G01X0930050Y0843999D01*
G01X0929450Y0844199D01*
G01X0928950Y0844399D01*
G01X0928450Y0844699D01*
G01X0927950Y0845099D01*
G01X0927550Y0845499D01*
G01X0927150Y0845999D01*
G01X0926750Y0846499D01*
G01X0926350Y0846999D01*
G01X0925950Y0847699D01*
G01X0925650Y0848299D01*
G01X0925350Y0848999D01*
G01X0925050Y0849899D01*
G01X0924750Y0850699D01*
G01X0924550Y0851599D01*
G01X0924450Y0852699D01*
G01X0924250Y0853799D01*
G01X0924250Y0854899D01*
G01X0924250Y0856299D01*
G01X0924250Y0856999D01*
G01X0924250Y0857799D01*
G01X0924250Y0858499D01*
G01X0924350Y0859299D01*
G01X0924450Y0860099D01*
G01X0924450Y0860799D01*
G01X0924550Y0861599D01*
G01X0924650Y0862299D01*
G01X0924750Y0862999D01*
G01X0924850Y0863799D01*
G01X0924950Y0864399D01*
G01X0925050Y0865099D01*
G01X0958350Y0865099D01*
G01X0958550Y0864299D01*
G01X0958650Y0863499D01*
G01X0958750Y0862699D01*
G01X0958850Y0861899D01*
G01X0959050Y0861099D01*
G01X0959050Y0860299D01*
G01X0959150Y0859399D01*
G01X0959250Y0858599D01*
G01X0959250Y0857899D01*
G01X0959350Y0857099D01*
G01X0959350Y0856299D01*
G01X0959350Y0855599D01*
G01X0959350Y0854599D01*
G01X0959350Y0853699D01*
G01X0959250Y0852799D01*
G01X0959150Y0851899D01*
G01X0959050Y0851099D01*
G01X0958750Y0850299D01*
G01X0958550Y0849399D01*
G01X0958350Y0848699D01*
G01X0958050Y0847999D01*
G01X0957750Y0847299D01*
G01X0957450Y0846599D01*
G01X0956950Y0845999D01*
G01X0956550Y0845299D01*
G01X0956050Y0844799D01*
G01X0955550Y0844299D01*
G01X0954950Y0843799D01*
G01X0954350Y0843399D01*
G01X0953650Y0843099D01*
G01X0952950Y0842699D01*
G01X0952150Y0842399D01*
G01X0951350Y0842199D01*
G01X0950450Y0841999D01*
G01X0949550Y0841899D01*
G01X0948550Y0841899D01*
G01X0947750Y0841899D01*
G01X0946950Y0841999D01*
G01X0946250Y0842299D01*
G01X0945450Y0842499D01*
G01X0944750Y0842799D01*
G01X0944050Y0843199D01*
G01X0944050Y0843199D01*
G37*
%LPC*%
G36*
G01X0943950Y0854599D02*
G01X0943950Y0853699D01*
G01X0944050Y0852899D01*
G01X0944250Y0852199D01*
G01X0944450Y0851499D01*
G01X0944650Y0850799D01*
G01X0945050Y0850299D01*
G01X0945350Y0849699D01*
G01X0945850Y0849299D01*
G01X0946450Y0849099D01*
G01X0947050Y0848899D01*
G01X0947850Y0848799D01*
G01X0948650Y0848799D01*
G01X0949150Y0848799D01*
G01X0949550Y0848799D01*
G01X0950050Y0848899D01*
G01X0950450Y0848999D01*
G01X0950850Y0849099D01*
G01X0951150Y0849299D01*
G01X0951550Y0849499D01*
G01X0951750Y0849699D01*
G01X0952050Y0849899D01*
G01X0952250Y0850199D01*
G01X0952450Y0850399D01*
G01X0952650Y0850699D01*
G01X0952850Y0850999D01*
G01X0953050Y0851299D01*
G01X0953150Y0851599D01*
G01X0953250Y0851899D01*
G01X0953350Y0852299D01*
G01X0953350Y0852599D01*
G01X0953450Y0852999D01*
G01X0953450Y0853399D01*
G01X0953550Y0853799D01*
G01X0953550Y0854099D01*
G01X0953550Y0854499D01*
G01X0953550Y0854899D01*
G01X0953550Y0855099D01*
G01X0953550Y0855399D01*
G01X0953550Y0855699D01*
G01X0953550Y0855999D01*
G01X0953550Y0856299D01*
G01X0953550Y0856499D01*
G01X0953550Y0856799D01*
G01X0953450Y0857099D01*
G01X0953450Y0857299D01*
G01X0953450Y0857599D01*
G01X0953350Y0857799D01*
G01X0953350Y0858099D01*
G01X0944050Y0858099D01*
G01X0944050Y0854599D01*
G01X0943950Y0854599D01*
G37*
G36*
G01X0938250Y0858199D02*
G01X0930350Y0858199D01*
G01X0930350Y0857999D01*
G01X0930250Y0857699D01*
G01X0930250Y0857499D01*
G01X0930250Y0857199D01*
G01X0930150Y0856899D01*
G01X0930150Y0856699D01*
G01X0930150Y0856399D01*
G01X0930150Y0856099D01*
G01X0930150Y0855799D01*
G01X0930150Y0855599D01*
G01X0930150Y0855299D01*
G01X0930150Y0854999D01*
G01X0930150Y0854699D01*
G01X0930150Y0854299D01*
G01X0930250Y0853999D01*
G01X0930250Y0853799D01*
G01X0930250Y0853499D01*
G01X0930350Y0853199D01*
G01X0930350Y0852899D01*
G01X0930450Y0852599D01*
G01X0930550Y0852399D01*
G01X0930650Y0852099D01*
G01X0930750Y0851899D01*
G01X0930850Y0851699D01*
G01X0931050Y0851499D01*
G01X0931150Y0851299D01*
G01X0931350Y0851099D01*
G01X0931550Y0850899D01*
G01X0931750Y0850699D01*
G01X0931950Y0850599D01*
G01X0932150Y0850399D01*
G01X0932450Y0850299D01*
G01X0932850Y0850199D01*
G01X0933150Y0850199D01*
G01X0933550Y0850099D01*
G01X0933950Y0850099D01*
G01X0934650Y0850099D01*
G01X0935250Y0850199D01*
G01X0935750Y0850499D01*
G01X0936250Y0850699D01*
G01X0936750Y0850999D01*
G01X0937150Y0851499D01*
G01X0937450Y0851899D01*
G01X0937750Y0852499D01*
G01X0937950Y0853199D01*
G01X0938150Y0853799D01*
G01X0938250Y0854599D01*
G01X0938250Y0855399D01*
G01X0938250Y0858199D01*
G01X0938250Y0858199D01*
G37*
%LPD*%
G36*
G01X0929350Y0817099D02*
G01X0928750Y0817399D01*
G01X0928150Y0817699D01*
G01X0927650Y0818099D01*
G01X0927150Y0818499D01*
G01X0926750Y0818999D01*
G01X0926250Y0819399D01*
G01X0925850Y0819899D01*
G01X0925550Y0820499D01*
G01X0925250Y0821099D01*
G01X0924950Y0821699D01*
G01X0924650Y0822299D01*
G01X0924450Y0822899D01*
G01X0924250Y0823499D01*
G01X0924150Y0824199D01*
G01X0924050Y0824899D01*
G01X0923950Y0825599D01*
G01X0923950Y0826299D01*
G01X0923950Y0826899D01*
G01X0923950Y0827899D01*
G01X0924050Y0828899D01*
G01X0924250Y0829899D01*
G01X0924450Y0830799D01*
G01X0924650Y0831799D01*
G01X0925050Y0832799D01*
G01X0925350Y0833799D01*
G01X0925850Y0834699D01*
G01X0926450Y0835499D01*
G01X0927050Y0836399D01*
G01X0927750Y0837199D01*
G01X0928550Y0837899D01*
G01X0933250Y0834599D01*
G01X0932650Y0833999D01*
G01X0932050Y0833399D01*
G01X0931650Y0832799D01*
G01X0931250Y0832299D01*
G01X0930850Y0831699D01*
G01X0930650Y0831099D01*
G01X0930350Y0830599D01*
G01X0930150Y0829999D01*
G01X0929950Y0829399D01*
G01X0929850Y0828799D01*
G01X0929750Y0828299D01*
G01X0929750Y0827799D01*
G01X0929750Y0827199D01*
G01X0929850Y0826599D01*
G01X0930050Y0825999D01*
G01X0930250Y0825499D01*
G01X0930550Y0824999D01*
G01X0930850Y0824599D01*
G01X0931250Y0824199D01*
G01X0931650Y0823899D01*
G01X0932250Y0823599D01*
G01X0932750Y0823399D01*
G01X0933350Y0823299D01*
G01X0934050Y0823299D01*
G01X0934550Y0823299D01*
G01X0935050Y0823399D01*
G01X0935550Y0823599D01*
G01X0936050Y0823799D01*
G01X0936550Y0823999D01*
G01X0936950Y0824299D01*
G01X0937450Y0824699D01*
G01X0937950Y0824999D01*
G01X0938450Y0825499D01*
G01X0938950Y0825899D01*
G01X0939450Y0826399D01*
G01X0940050Y0826899D01*
G01X0940650Y0827499D01*
G01X0941150Y0828099D01*
G01X0941650Y0828599D01*
G01X0942150Y0829199D01*
G01X0942650Y0829699D01*
G01X0943250Y0830299D01*
G01X0943750Y0830899D01*
G01X0944350Y0831499D01*
G01X0944950Y0831999D01*
G01X0945650Y0832599D01*
G01X0946250Y0833099D01*
G01X0946850Y0833599D01*
G01X0947450Y0834199D01*
G01X0948150Y0834699D01*
G01X0948850Y0835099D01*
G01X0949650Y0835499D01*
G01X0950350Y0835899D01*
G01X0951150Y0836299D01*
G01X0951950Y0836599D01*
G01X0952750Y0836799D01*
G01X0953550Y0836999D01*
G01X0954450Y0837199D01*
G01X0955350Y0837199D01*
G01X0956250Y0837199D01*
G01X0956450Y0837199D01*
G01X0956550Y0837199D01*
G01X0956750Y0837199D01*
G01X0956950Y0837199D01*
G01X0957150Y0837199D01*
G01X0957450Y0837199D01*
G01X0957650Y0837199D01*
G01X0957950Y0837199D01*
G01X0958150Y0837199D01*
G01X0958350Y0837199D01*
G01X0958550Y0837199D01*
G01X0958750Y0837099D01*
G01X0958750Y0814599D01*
G01X0953150Y0814599D01*
G01X0953150Y0829299D01*
G01X0952850Y0829299D01*
G01X0952550Y0829299D01*
G01X0952250Y0829199D01*
G01X0951950Y0829099D01*
G01X0951650Y0828999D01*
G01X0951250Y0828799D01*
G01X0950950Y0828499D01*
G01X0950650Y0828299D01*
G01X0950250Y0828099D01*
G01X0949950Y0827899D01*
G01X0949650Y0827599D01*
G01X0949350Y0827399D01*
G01X0949050Y0827099D01*
G01X0948650Y0826799D01*
G01X0948350Y0826499D01*
G01X0948050Y0826199D01*
G01X0947750Y0825899D01*
G01X0947450Y0825599D01*
G01X0947150Y0825199D01*
G01X0946850Y0824899D01*
G01X0946550Y0824599D01*
G01X0946350Y0824299D01*
G01X0946050Y0824099D01*
G01X0945850Y0823899D01*
G01X0945450Y0823399D01*
G01X0945050Y0822899D01*
G01X0944550Y0822399D01*
G01X0944050Y0821999D01*
G01X0943550Y0821499D01*
G01X0943150Y0821099D01*
G01X0942650Y0820699D01*
G01X0942150Y0820199D01*
G01X0941650Y0819799D01*
G01X0941150Y0819399D01*
G01X0940650Y0818999D01*
G01X0940050Y0818599D01*
G01X0939550Y0818299D01*
G01X0939050Y0817899D01*
G01X0938550Y0817599D01*
G01X0937950Y0817299D01*
G01X0937450Y0816999D01*
G01X0936850Y0816799D01*
G01X0936250Y0816599D01*
G01X0935750Y0816399D01*
G01X0935150Y0816299D01*
G01X0934550Y0816199D01*
G01X0934050Y0816099D01*
G01X0933350Y0816099D01*
G01X0932650Y0816099D01*
G01X0931950Y0816199D01*
G01X0931350Y0816399D01*
G01X0930650Y0816599D01*
G01X0929950Y0816799D01*
G01X0929350Y0817099D01*
G01X0929350Y0817099D01*
G37*
G36*
G01X0929350Y0789299D02*
G01X0928750Y0789599D01*
G01X0928150Y0789899D01*
G01X0927650Y0790299D01*
G01X0927150Y0790699D01*
G01X0926750Y0791199D01*
G01X0926250Y0791699D01*
G01X0925850Y0792199D01*
G01X0925550Y0792699D01*
G01X0925250Y0793299D01*
G01X0924950Y0793899D01*
G01X0924650Y0794499D01*
G01X0924450Y0795099D01*
G01X0924250Y0795799D01*
G01X0924150Y0796399D01*
G01X0924050Y0797099D01*
G01X0923950Y0797799D01*
G01X0923950Y0798499D01*
G01X0923950Y0799199D01*
G01X0923950Y0800099D01*
G01X0924050Y0801099D01*
G01X0924250Y0802099D01*
G01X0924450Y0803099D01*
G01X0924650Y0803999D01*
G01X0925050Y0804999D01*
G01X0925350Y0805999D01*
G01X0925850Y0806899D01*
G01X0926450Y0807699D01*
G01X0927050Y0808599D01*
G01X0927750Y0809399D01*
G01X0928550Y0810099D01*
G01X0933250Y0806799D01*
G01X0932650Y0806299D01*
G01X0932050Y0805699D01*
G01X0931650Y0805099D01*
G01X0931250Y0804499D01*
G01X0930850Y0803899D01*
G01X0930650Y0803299D01*
G01X0930350Y0802799D01*
G01X0930150Y0802199D01*
G01X0929950Y0801599D01*
G01X0929850Y0800999D01*
G01X0929750Y0800499D01*
G01X0929750Y0799999D01*
G01X0929750Y0799399D01*
G01X0929850Y0798799D01*
G01X0930050Y0798199D01*
G01X0930250Y0797699D01*
G01X0930550Y0797199D01*
G01X0930850Y0796799D01*
G01X0931250Y0796399D01*
G01X0931650Y0796099D01*
G01X0932250Y0795899D01*
G01X0932750Y0795699D01*
G01X0933350Y0795599D01*
G01X0934050Y0795599D01*
G01X0934550Y0795599D01*
G01X0935050Y0795699D01*
G01X0935550Y0795799D01*
G01X0936050Y0795999D01*
G01X0936550Y0796299D01*
G01X0936950Y0796499D01*
G01X0937450Y0796899D01*
G01X0937950Y0797299D01*
G01X0938450Y0797699D01*
G01X0938950Y0798099D01*
G01X0939450Y0798599D01*
G01X0940050Y0799199D01*
G01X0940650Y0799699D01*
G01X0941150Y0800299D01*
G01X0941650Y0800799D01*
G01X0942150Y0801399D01*
G01X0942650Y0801899D01*
G01X0943250Y0802499D01*
G01X0943750Y0803099D01*
G01X0944350Y0803699D01*
G01X0944950Y0804299D01*
G01X0945650Y0804799D01*
G01X0946250Y0805299D01*
G01X0946850Y0805799D01*
G01X0947450Y0806399D01*
G01X0948150Y0806899D01*
G01X0948850Y0807299D01*
G01X0949650Y0807699D01*
G01X0950350Y0808099D01*
G01X0951150Y0808499D01*
G01X0951950Y0808799D01*
G01X0952750Y0809099D01*
G01X0953550Y0809199D01*
G01X0954450Y0809399D01*
G01X0955350Y0809399D01*
G01X0956250Y0809399D01*
G01X0956450Y0809399D01*
G01X0956550Y0809399D01*
G01X0956750Y0809399D01*
G01X0956950Y0809399D01*
G01X0957150Y0809399D01*
G01X0957450Y0809399D01*
G01X0957650Y0809399D01*
G01X0957950Y0809399D01*
G01X0958150Y0809399D01*
G01X0958350Y0809399D01*
G01X0958550Y0809399D01*
G01X0958750Y0809299D01*
G01X0958750Y0786799D01*
G01X0953150Y0786799D01*
G01X0953150Y0801499D01*
G01X0952850Y0801499D01*
G01X0952550Y0801499D01*
G01X0952250Y0801399D01*
G01X0951950Y0801299D01*
G01X0951650Y0801199D01*
G01X0951250Y0800999D01*
G01X0950950Y0800799D01*
G01X0950650Y0800599D01*
G01X0950250Y0800299D01*
G01X0949950Y0800099D01*
G01X0949650Y0799899D01*
G01X0949350Y0799599D01*
G01X0949050Y0799299D01*
G01X0948650Y0798999D01*
G01X0948350Y0798699D01*
G01X0948050Y0798399D01*
G01X0947750Y0798099D01*
G01X0947450Y0797799D01*
G01X0947150Y0797399D01*
G01X0946850Y0797099D01*
G01X0946550Y0796799D01*
G01X0946350Y0796599D01*
G01X0946050Y0796299D01*
G01X0945850Y0796099D01*
G01X0945450Y0795599D01*
G01X0945050Y0795099D01*
G01X0944550Y0794699D01*
G01X0944050Y0794199D01*
G01X0943550Y0793799D01*
G01X0943150Y0793299D01*
G01X0942650Y0792899D01*
G01X0942150Y0792499D01*
G01X0941650Y0791999D01*
G01X0941150Y0791599D01*
G01X0940650Y0791199D01*
G01X0940050Y0790799D01*
G01X0939550Y0790499D01*
G01X0939050Y0790099D01*
G01X0938550Y0789799D01*
G01X0937950Y0789499D01*
G01X0937450Y0789199D01*
G01X0936850Y0788999D01*
G01X0936250Y0788799D01*
G01X0935750Y0788599D01*
G01X0935150Y0788499D01*
G01X0934550Y0788399D01*
G01X0934050Y0788299D01*
G01X0933350Y0788299D01*
G01X0932650Y0788299D01*
G01X0931950Y0788399D01*
G01X0931350Y0788599D01*
G01X0930650Y0788799D01*
G01X0929950Y0788999D01*
G01X0929350Y0789299D01*
G01X0929350Y0789299D01*
G37*
G36*
G01X0928250Y0761899D02*
G01X0926750Y0762999D01*
G01X0925650Y0764199D01*
G01X0924950Y0765699D01*
G01X0924150Y0767199D01*
G01X0923750Y0768899D01*
G01X0923750Y0770799D01*
G01X0923750Y0772699D01*
G01X0924150Y0774399D01*
G01X0924950Y0775899D01*
G01X0925650Y0777399D01*
G01X0926750Y0778699D01*
G01X0928250Y0779699D01*
G01X0929650Y0780799D01*
G01X0931550Y0781499D01*
G01X0933850Y0781999D01*
G01X0936050Y0782499D01*
G01X0938750Y0782799D01*
G01X0941750Y0782799D01*
G01X0944750Y0782799D01*
G01X0947450Y0782499D01*
G01X0949650Y0781999D01*
G01X0951950Y0781499D01*
G01X0953750Y0780799D01*
G01X0955350Y0779699D01*
G01X0956750Y0778699D01*
G01X0957850Y0777399D01*
G01X0958650Y0775999D01*
G01X0959350Y0774499D01*
G01X0959750Y0772799D01*
G01X0959750Y0770799D01*
G01X0959750Y0768899D01*
G01X0959350Y0767199D01*
G01X0958650Y0765699D01*
G01X0957850Y0764199D01*
G01X0956750Y0762999D01*
G01X0955350Y0761899D01*
G01X0953850Y0760899D01*
G01X0951950Y0760099D01*
G01X0949750Y0759599D01*
G01X0947450Y0759099D01*
G01X0944750Y0758899D01*
G01X0941750Y0758899D01*
G01X0938750Y0758899D01*
G01X0936050Y0759199D01*
G01X0933850Y0759699D01*
G01X0931550Y0760199D01*
G01X0929650Y0760999D01*
G01X0928250Y0761899D01*
G01X0928250Y0761899D01*
G37*
%LPC*%
G36*
G01X0950750Y0766499D02*
G01X0951750Y0766999D01*
G01X0952550Y0767599D01*
G01X0953050Y0768299D01*
G01X0953550Y0768999D01*
G01X0953750Y0769899D01*
G01X0953750Y0770799D01*
G01X0953750Y0771699D01*
G01X0953550Y0772599D01*
G01X0953050Y0773299D01*
G01X0952550Y0773999D01*
G01X0951750Y0774699D01*
G01X0950750Y0775099D01*
G01X0949650Y0775599D01*
G01X0948450Y0775999D01*
G01X0946950Y0776299D01*
G01X0945450Y0776499D01*
G01X0943750Y0776699D01*
G01X0941750Y0776699D01*
G01X0939750Y0776699D01*
G01X0938050Y0776499D01*
G01X0936550Y0776299D01*
G01X0935050Y0775999D01*
G01X0933750Y0775599D01*
G01X0932650Y0775099D01*
G01X0931650Y0774699D01*
G01X0930850Y0774099D01*
G01X0930350Y0773399D01*
G01X0929850Y0772599D01*
G01X0929650Y0771799D01*
G01X0929650Y0770799D01*
G01X0929650Y0769899D01*
G01X0929850Y0768999D01*
G01X0930350Y0768299D01*
G01X0930850Y0767599D01*
G01X0931650Y0766999D01*
G01X0932650Y0766499D01*
G01X0933750Y0765999D01*
G01X0934950Y0765699D01*
G01X0936450Y0765399D01*
G01X0937950Y0765099D01*
G01X0939650Y0764999D01*
G01X0941750Y0764999D01*
G01X0943750Y0765099D01*
G01X0945450Y0765199D01*
G01X0946950Y0765499D01*
G01X0948450Y0765699D01*
G01X0949650Y0765999D01*
G01X0950750Y0766499D01*
G01X0950750Y0766499D01*
G37*
%LPD*%
G36*
G01X0938550Y0768599D02*
G01X0938150Y0768899D01*
G01X0937850Y0769199D01*
G01X0937750Y0769599D01*
G01X0937550Y0769899D01*
G01X0937450Y0770299D01*
G01X0937450Y0770799D01*
G01X0937450Y0771299D01*
G01X0937550Y0771699D01*
G01X0937750Y0772099D01*
G01X0937850Y0772499D01*
G01X0938150Y0772799D01*
G01X0938550Y0773099D01*
G01X0938850Y0773299D01*
G01X0939250Y0773499D01*
G01X0939750Y0773699D01*
G01X0940150Y0773799D01*
G01X0940650Y0773899D01*
G01X0941150Y0773899D01*
G01X0941650Y0773899D01*
G01X0942050Y0773799D01*
G01X0942550Y0773699D01*
G01X0942950Y0773499D01*
G01X0943350Y0773299D01*
G01X0943750Y0773099D01*
G01X0944150Y0772799D01*
G01X0944450Y0772499D01*
G01X0944650Y0772099D01*
G01X0944850Y0771699D01*
G01X0944950Y0771299D01*
G01X0944950Y0770799D01*
G01X0944950Y0770399D01*
G01X0944850Y0769999D01*
G01X0944650Y0769599D01*
G01X0944450Y0769199D01*
G01X0944150Y0768899D01*
G01X0943750Y0768599D01*
G01X0943450Y0768299D01*
G01X0943050Y0768099D01*
G01X0942650Y0767999D01*
G01X0942150Y0767799D01*
G01X0941750Y0767799D01*
G01X0941150Y0767799D01*
G01X0940650Y0767799D01*
G01X0940250Y0767799D01*
G01X0939750Y0767999D01*
G01X0939350Y0768099D01*
G01X0938950Y0768299D01*
G01X0938550Y0768599D01*
G01X0938550Y0768599D01*
G37*
G36*
G01X0950750Y0739399D02*
G01X0951050Y0739499D01*
G01X0951250Y0739699D01*
G01X0951550Y0739799D01*
G01X0951850Y0739999D01*
G01X0952050Y0740199D01*
G01X0952250Y0740399D01*
G01X0952450Y0740699D01*
G01X0952650Y0740999D01*
G01X0952850Y0741299D01*
G01X0953050Y0741599D01*
G01X0953250Y0741999D01*
G01X0953350Y0742499D01*
G01X0953550Y0742999D01*
G01X0953650Y0743499D01*
G01X0953650Y0743999D01*
G01X0953750Y0744499D01*
G01X0953750Y0745099D01*
G01X0953750Y0745799D01*
G01X0953750Y0746799D01*
G01X0953750Y0747699D01*
G01X0953650Y0748499D01*
G01X0953550Y0749199D01*
G01X0953450Y0749899D01*
G01X0953250Y0750599D01*
G01X0953050Y0751199D01*
G01X0952850Y0751799D01*
G01X0952650Y0752299D01*
G01X0952550Y0752799D01*
G01X0952350Y0753299D01*
G01X0952150Y0753599D01*
G01X0957850Y0754999D01*
G01X0957850Y0754799D01*
G01X0957950Y0754499D01*
G01X0958150Y0754299D01*
G01X0958250Y0753999D01*
G01X0958350Y0753799D01*
G01X0958350Y0753499D01*
G01X0958550Y0753099D01*
G01X0958650Y0752799D01*
G01X0958750Y0752399D01*
G01X0958750Y0751999D01*
G01X0958850Y0751599D01*
G01X0958950Y0751099D01*
G01X0959050Y0750699D01*
G01X0959050Y0750299D01*
G01X0959150Y0749799D01*
G01X0959250Y0749399D01*
G01X0959250Y0748999D01*
G01X0959350Y0748499D01*
G01X0959450Y0747999D01*
G01X0959450Y0747499D01*
G01X0959450Y0747099D01*
G01X0959450Y0746599D01*
G01X0959450Y0746199D01*
G01X0959450Y0745699D01*
G01X0959450Y0744599D01*
G01X0959450Y0743499D01*
G01X0959250Y0742499D01*
G01X0959150Y0741499D01*
G01X0958950Y0740599D01*
G01X0958650Y0739699D01*
G01X0958350Y0738899D01*
G01X0958050Y0738099D01*
G01X0957650Y0737399D01*
G01X0957250Y0736699D01*
G01X0956750Y0735999D01*
G01X0956250Y0735399D01*
G01X0955850Y0734899D01*
G01X0955250Y0734399D01*
G01X0954650Y0733999D01*
G01X0954050Y0733499D01*
G01X0953450Y0733199D01*
G01X0952850Y0732899D01*
G01X0952150Y0732599D01*
G01X0951450Y0732399D01*
G01X0950750Y0732299D01*
G01X0949950Y0732199D01*
G01X0949250Y0732099D01*
G01X0948350Y0732099D01*
G01X0946650Y0732099D01*
G01X0945050Y0732399D01*
G01X0943750Y0732899D01*
G01X0942350Y0733499D01*
G01X0941250Y0734299D01*
G01X0940350Y0735399D01*
G01X0939350Y0736499D01*
G01X0938550Y0737999D01*
G01X0938050Y0739699D01*
G01X0937450Y0741399D01*
G01X0937150Y0743399D01*
G01X0936950Y0745699D01*
G01X0936550Y0745599D01*
G01X0936150Y0745599D01*
G01X0935650Y0745599D01*
G01X0935050Y0745499D01*
G01X0934450Y0745499D01*
G01X0933750Y0745399D01*
G01X0933150Y0745299D01*
G01X0932450Y0745299D01*
G01X0931850Y0745299D01*
G01X0931250Y0745199D01*
G01X0930650Y0745199D01*
G01X0930050Y0745099D01*
G01X0930050Y0733299D01*
G01X0924650Y0733299D01*
G01X0924650Y0750799D01*
G01X0926050Y0750899D01*
G01X0927450Y0750999D01*
G01X0928850Y0751099D01*
G01X0930350Y0751099D01*
G01X0931750Y0751299D01*
G01X0933250Y0751399D01*
G01X0934650Y0751499D01*
G01X0936150Y0751699D01*
G01X0937750Y0751799D01*
G01X0939250Y0751899D01*
G01X0940850Y0752099D01*
G01X0942450Y0752199D01*
G01X0942450Y0750799D01*
G01X0942450Y0749499D01*
G01X0942550Y0748399D01*
G01X0942550Y0747299D01*
G01X0942650Y0746299D01*
G01X0942850Y0745399D01*
G01X0942950Y0744599D01*
G01X0943150Y0743799D01*
G01X0943350Y0743099D01*
G01X0943550Y0742499D01*
G01X0943850Y0741899D01*
G01X0944250Y0741399D01*
G01X0944450Y0740899D01*
G01X0944850Y0740499D01*
G01X0945150Y0740199D01*
G01X0945450Y0739899D01*
G01X0945850Y0739699D01*
G01X0946250Y0739399D01*
G01X0946750Y0739299D01*
G01X0947150Y0739199D01*
G01X0947550Y0739099D01*
G01X0947950Y0739099D01*
G01X0948450Y0738999D01*
G01X0948950Y0738999D01*
G01X0949250Y0739099D01*
G01X0949550Y0739099D01*
G01X0949850Y0739199D01*
G01X0950150Y0739199D01*
G01X0950450Y0739299D01*
G01X0950750Y0739399D01*
G01X0950750Y0739399D01*
G37*
G36*
G01X0953350Y0724599D02*
G01X0959050Y0724599D01*
G01X0959050Y0703799D01*
G01X0953350Y0703799D01*
G01X0953350Y0710599D01*
G01X0924650Y0710599D01*
G01X0924650Y0715299D01*
G01X0924950Y0715599D01*
G01X0925350Y0715999D01*
G01X0925650Y0716399D01*
G01X0926050Y0716799D01*
G01X0926450Y0717199D01*
G01X0926850Y0717599D01*
G01X0927250Y0718099D01*
G01X0927650Y0718499D01*
G01X0927950Y0718999D01*
G01X0928250Y0719499D01*
G01X0928550Y0720099D01*
G01X0928750Y0720599D01*
G01X0929150Y0721099D01*
G01X0929450Y0721599D01*
G01X0929750Y0722099D01*
G01X0930050Y0722599D01*
G01X0930250Y0723099D01*
G01X0930450Y0723599D01*
G01X0930750Y0724199D01*
G01X0930950Y0724699D01*
G01X0931150Y0725099D01*
G01X0931350Y0725599D01*
G01X0931550Y0725999D01*
G01X0931750Y0726499D01*
G01X0937450Y0724299D01*
G01X0937250Y0723799D01*
G01X0937050Y0723299D01*
G01X0936850Y0722699D01*
G01X0936550Y0722199D01*
G01X0936250Y0721599D01*
G01X0936050Y0720999D01*
G01X0935750Y0720299D01*
G01X0935450Y0719699D01*
G01X0935050Y0719099D01*
G01X0934750Y0718499D01*
G01X0934450Y0717899D01*
G01X0934050Y0717399D01*
G01X0953250Y0717399D01*
G01X0953250Y0724599D01*
G01X0953350Y0724599D01*
G37*
G36*
G01X0928250Y0678599D02*
G01X0926750Y0679699D01*
G01X0925650Y0680899D01*
G01X0924950Y0682399D01*
G01X0924150Y0683899D01*
G01X0923750Y0685599D01*
G01X0923750Y0687499D01*
G01X0923750Y0689399D01*
G01X0924150Y0691099D01*
G01X0924950Y0692599D01*
G01X0925650Y0694099D01*
G01X0926750Y0695299D01*
G01X0928250Y0696399D01*
G01X0929650Y0697399D01*
G01X0931550Y0698199D01*
G01X0933850Y0698699D01*
G01X0936050Y0699199D01*
G01X0938750Y0699399D01*
G01X0941750Y0699399D01*
G01X0944750Y0699399D01*
G01X0947450Y0699199D01*
G01X0949650Y0698699D01*
G01X0951950Y0698199D01*
G01X0953750Y0697399D01*
G01X0955350Y0696399D01*
G01X0956750Y0695299D01*
G01X0957850Y0694099D01*
G01X0958650Y0692599D01*
G01X0959350Y0691099D01*
G01X0959750Y0689399D01*
G01X0959750Y0687499D01*
G01X0959750Y0685599D01*
G01X0959350Y0683899D01*
G01X0958650Y0682399D01*
G01X0957850Y0680899D01*
G01X0956750Y0679699D01*
G01X0955350Y0678599D01*
G01X0953850Y0677599D01*
G01X0951950Y0676799D01*
G01X0949750Y0676299D01*
G01X0947450Y0675799D01*
G01X0944750Y0675599D01*
G01X0941750Y0675599D01*
G01X0938750Y0675599D01*
G01X0936050Y0675799D01*
G01X0933850Y0676399D01*
G01X0931550Y0676899D01*
G01X0929650Y0677599D01*
G01X0928250Y0678599D01*
G01X0928250Y0678599D01*
G37*
%LPC*%
G36*
G01X0950750Y0683199D02*
G01X0951750Y0683699D01*
G01X0952550Y0684299D01*
G01X0953050Y0684999D01*
G01X0953550Y0685699D01*
G01X0953750Y0686499D01*
G01X0953750Y0687499D01*
G01X0953750Y0688399D01*
G01X0953550Y0689199D01*
G01X0953050Y0689999D01*
G01X0952550Y0690699D01*
G01X0951750Y0691299D01*
G01X0950750Y0691799D01*
G01X0949650Y0692299D01*
G01X0948450Y0692699D01*
G01X0946950Y0692899D01*
G01X0945450Y0693199D01*
G01X0943750Y0693299D01*
G01X0941750Y0693299D01*
G01X0939750Y0693299D01*
G01X0938050Y0693199D01*
G01X0936550Y0692899D01*
G01X0935050Y0692699D01*
G01X0933750Y0692299D01*
G01X0932650Y0691799D01*
G01X0931650Y0691299D01*
G01X0930850Y0690699D01*
G01X0930350Y0689999D01*
G01X0929850Y0689299D01*
G01X0929650Y0688499D01*
G01X0929650Y0687499D01*
G01X0929650Y0686499D01*
G01X0929850Y0685699D01*
G01X0930350Y0684999D01*
G01X0930850Y0684299D01*
G01X0931650Y0683699D01*
G01X0932650Y0683199D01*
G01X0933750Y0682699D01*
G01X0934950Y0682299D01*
G01X0936450Y0682099D01*
G01X0937950Y0681799D01*
G01X0939650Y0681699D01*
G01X0941750Y0681699D01*
G01X0943750Y0681699D01*
G01X0945450Y0681899D01*
G01X0946950Y0682099D01*
G01X0948450Y0682399D01*
G01X0949650Y0682699D01*
G01X0950750Y0683199D01*
G01X0950750Y0683199D01*
G37*
%LPD*%
G36*
G01X0938550Y0685299D02*
G01X0938150Y0685599D01*
G01X0937850Y0685899D01*
G01X0937750Y0686199D01*
G01X0937550Y0686599D01*
G01X0937450Y0686999D01*
G01X0937450Y0687499D01*
G01X0937450Y0687999D01*
G01X0937550Y0688399D01*
G01X0937750Y0688799D01*
G01X0937850Y0689099D01*
G01X0938150Y0689399D01*
G01X0938550Y0689699D01*
G01X0938850Y0689999D01*
G01X0939250Y0690199D01*
G01X0939750Y0690299D01*
G01X0940150Y0690499D01*
G01X0940650Y0690599D01*
G01X0941150Y0690599D01*
G01X0941650Y0690599D01*
G01X0942050Y0690499D01*
G01X0942550Y0690299D01*
G01X0942950Y0690199D01*
G01X0943350Y0689999D01*
G01X0943750Y0689699D01*
G01X0944150Y0689399D01*
G01X0944450Y0689099D01*
G01X0944650Y0688799D01*
G01X0944850Y0688399D01*
G01X0944950Y0687999D01*
G01X0944950Y0687499D01*
G01X0944950Y0687099D01*
G01X0944850Y0686699D01*
G01X0944650Y0686299D01*
G01X0944450Y0685899D01*
G01X0944150Y0685599D01*
G01X0943750Y0685299D01*
G01X0943450Y0684999D01*
G01X0943050Y0684799D01*
G01X0942650Y0684699D01*
G01X0942150Y0684499D01*
G01X0941750Y0684399D01*
G01X0941150Y0684399D01*
G01X0940650Y0684399D01*
G01X0940250Y0684499D01*
G01X0939750Y0684699D01*
G01X0939350Y0684799D01*
G01X0938950Y0684999D01*
G01X0938550Y0685299D01*
G01X0938550Y0685299D01*
G37*
G36*
G01X0889950Y0022899D02*
G01X0888850Y0021399D01*
G01X0887550Y0020199D01*
G01X0885950Y0019499D01*
G01X0884450Y0018699D01*
G01X0882650Y0018299D01*
G01X0880650Y0018299D01*
G01X0878650Y0018299D01*
G01X0876950Y0018699D01*
G01X0875350Y0019499D01*
G01X0873850Y0020199D01*
G01X0872550Y0021399D01*
G01X0871450Y0022899D01*
G01X0870350Y0024399D01*
G01X0869550Y0026299D01*
G01X0869050Y0028599D01*
G01X0868550Y0030799D01*
G01X0868250Y0033399D01*
G01X0868250Y0036399D01*
G01X0868250Y0039399D01*
G01X0868550Y0041999D01*
G01X0869050Y0044199D01*
G01X0869550Y0046499D01*
G01X0870350Y0048299D01*
G01X0871450Y0049899D01*
G01X0872450Y0051399D01*
G01X0873750Y0052499D01*
G01X0875250Y0053299D01*
G01X0876850Y0054099D01*
G01X0878550Y0054399D01*
G01X0880650Y0054399D01*
G01X0882550Y0054399D01*
G01X0884250Y0054099D01*
G01X0885850Y0053299D01*
G01X0887350Y0052499D01*
G01X0888650Y0051399D01*
G01X0889750Y0049899D01*
G01X0890850Y0048299D01*
G01X0891750Y0046499D01*
G01X0892250Y0044199D01*
G01X0892850Y0041999D01*
G01X0893150Y0039399D01*
G01X0893150Y0036399D01*
G01X0893150Y0033399D01*
G01X0892850Y0030799D01*
G01X0892250Y0028599D01*
G01X0891750Y0026299D01*
G01X0890950Y0024399D01*
G01X0889950Y0022899D01*
G01X0889950Y0022899D01*
G37*
%LPC*%
G36*
G01X0886050Y0041099D02*
G01X0885950Y0041799D01*
G01X0885850Y0042499D01*
G01X0885750Y0043099D01*
G01X0885550Y0043799D01*
G01X0885350Y0044399D01*
G01X0885150Y0044899D01*
G01X0884950Y0045399D01*
G01X0884750Y0045899D01*
G01X0884450Y0046299D01*
G01X0884150Y0046799D01*
G01X0883850Y0047199D01*
G01X0883550Y0047499D01*
G01X0883150Y0047799D01*
G01X0882750Y0048099D01*
G01X0882250Y0048199D01*
G01X0881850Y0048399D01*
G01X0881250Y0048499D01*
G01X0880750Y0048499D01*
G01X0880150Y0048499D01*
G01X0879650Y0048399D01*
G01X0879150Y0048199D01*
G01X0878750Y0048099D01*
G01X0878350Y0047799D01*
G01X0877950Y0047499D01*
G01X0877650Y0047199D01*
G01X0877350Y0046799D01*
G01X0877050Y0046399D01*
G01X0876750Y0045999D01*
G01X0876550Y0045499D01*
G01X0876250Y0044999D01*
G01X0876050Y0044399D01*
G01X0875950Y0043899D01*
G01X0875750Y0043199D01*
G01X0875650Y0042599D01*
G01X0875550Y0041899D01*
G01X0875450Y0041299D01*
G01X0875350Y0040599D01*
G01X0875350Y0039799D01*
G01X0875350Y0038999D01*
G01X0875350Y0038199D01*
G01X0875350Y0037399D01*
G01X0875350Y0036499D01*
G01X0875350Y0035699D01*
G01X0875350Y0034899D01*
G01X0875350Y0034099D01*
G01X0875350Y0033299D01*
G01X0875350Y0032599D01*
G01X0875450Y0031799D01*
G01X0875550Y0031099D01*
G01X0875650Y0030399D01*
G01X0875750Y0029799D01*
G01X0875950Y0029099D01*
G01X0876050Y0028499D01*
G01X0876250Y0028099D01*
G01X0876550Y0027499D01*
G01X0876750Y0026999D01*
G01X0877050Y0026599D01*
G01X0877350Y0026099D01*
G01X0877650Y0025799D01*
G01X0877950Y0025399D01*
G01X0878350Y0025099D01*
G01X0878750Y0024899D01*
G01X0879150Y0024699D01*
G01X0879650Y0024499D01*
G01X0880150Y0024399D01*
G01X0880750Y0024399D01*
G01X0881250Y0024399D01*
G01X0881850Y0024499D01*
G01X0882250Y0024699D01*
G01X0882750Y0024799D01*
G01X0883150Y0025099D01*
G01X0883550Y0025399D01*
G01X0883850Y0025799D01*
G01X0884150Y0026099D01*
G01X0884450Y0026599D01*
G01X0884750Y0026999D01*
G01X0884950Y0027399D01*
G01X0885150Y0027899D01*
G01X0885350Y0028499D01*
G01X0885550Y0029099D01*
G01X0885750Y0029699D01*
G01X0885850Y0030299D01*
G01X0885950Y0030999D01*
G01X0886050Y0031699D01*
G01X0886050Y0032399D01*
G01X0886150Y0033199D01*
G01X0886150Y0033999D01*
G01X0886150Y0034799D01*
G01X0886150Y0035599D01*
G01X0886150Y0036399D01*
G01X0886150Y0037199D01*
G01X0886150Y0037999D01*
G01X0886150Y0038799D01*
G01X0886150Y0039599D01*
G01X0886050Y0040299D01*
G01X0886050Y0041099D01*
G01X0886050Y0041099D01*
G37*
%LPD*%
G36*
G01X0847450Y0019299D02*
G01X0846650Y0019599D01*
G01X0845950Y0019999D01*
G01X0845350Y0020399D01*
G01X0844750Y0020899D01*
G01X0844250Y0021399D01*
G01X0843750Y0021899D01*
G01X0843350Y0022499D01*
G01X0842950Y0023099D01*
G01X0842650Y0023799D01*
G01X0842350Y0024499D01*
G01X0842050Y0025299D01*
G01X0841850Y0026099D01*
G01X0841650Y0026899D01*
G01X0841550Y0027799D01*
G01X0841450Y0028699D01*
G01X0841350Y0029599D01*
G01X0841250Y0030599D01*
G01X0841250Y0031499D01*
G01X0841250Y0053499D01*
G01X0848150Y0053499D01*
G01X0848150Y0032099D01*
G01X0848150Y0031399D01*
G01X0848150Y0030699D01*
G01X0848150Y0030099D01*
G01X0848150Y0029499D01*
G01X0848250Y0028999D01*
G01X0848350Y0028499D01*
G01X0848450Y0027999D01*
G01X0848550Y0027499D01*
G01X0848650Y0027099D01*
G01X0848850Y0026699D01*
G01X0849050Y0026399D01*
G01X0849250Y0026099D01*
G01X0849450Y0025799D01*
G01X0849650Y0025599D01*
G01X0849850Y0025299D01*
G01X0850150Y0025099D01*
G01X0850350Y0024899D01*
G01X0850750Y0024899D01*
G01X0851050Y0024799D01*
G01X0851450Y0024699D01*
G01X0851850Y0024599D01*
G01X0852150Y0024499D01*
G01X0852650Y0024399D01*
G01X0853150Y0024399D01*
G01X0853550Y0024399D01*
G01X0854050Y0024499D01*
G01X0854450Y0024499D01*
G01X0854850Y0024599D01*
G01X0855150Y0024699D01*
G01X0855450Y0024899D01*
G01X0855850Y0024999D01*
G01X0856050Y0025199D01*
G01X0856350Y0025399D01*
G01X0856550Y0025599D01*
G01X0856750Y0025799D01*
G01X0856950Y0026099D01*
G01X0857150Y0026399D01*
G01X0857350Y0026699D01*
G01X0857450Y0027099D01*
G01X0857550Y0027499D01*
G01X0857650Y0027999D01*
G01X0857650Y0028499D01*
G01X0857750Y0028999D01*
G01X0857850Y0029499D01*
G01X0857850Y0030099D01*
G01X0857950Y0030699D01*
G01X0857950Y0031399D01*
G01X0857950Y0032099D01*
G01X0857950Y0053599D01*
G01X0864950Y0053599D01*
G01X0864950Y0031699D01*
G01X0864950Y0030699D01*
G01X0864850Y0029799D01*
G01X0864750Y0028899D01*
G01X0864650Y0027999D01*
G01X0864550Y0027099D01*
G01X0864350Y0026299D01*
G01X0864150Y0025399D01*
G01X0863850Y0024699D01*
G01X0863550Y0023999D01*
G01X0863250Y0023299D01*
G01X0862850Y0022599D01*
G01X0862450Y0022099D01*
G01X0861950Y0021499D01*
G01X0861450Y0020999D01*
G01X0860850Y0020599D01*
G01X0860250Y0020099D01*
G01X0859550Y0019699D01*
G01X0858750Y0019399D01*
G01X0858050Y0019199D01*
G01X0857150Y0018899D01*
G01X0856250Y0018799D01*
G01X0855350Y0018599D01*
G01X0854350Y0018499D01*
G01X0853250Y0018499D01*
G01X0851950Y0018499D01*
G01X0850950Y0018499D01*
G01X0849950Y0018699D01*
G01X0849050Y0018799D01*
G01X0848150Y0018999D01*
G01X0847450Y0019299D01*
G01X0847450Y0019299D01*
G37*
G36*
G01X0837650Y0053599D02*
G01X0837650Y0047899D01*
G01X0828650Y0047899D01*
G01X0828650Y0019199D01*
G01X0821750Y0019199D01*
G01X0821750Y0047899D01*
G01X0812650Y0047899D01*
G01X0812650Y0053599D01*
G01X0837650Y0053599D01*
G01X0837650Y0053599D01*
G37*
G36*
G01X0331050Y0019199D02*
G01X0331050Y0024899D01*
G01X0338550Y0024899D01*
G01X0338550Y0047899D01*
G01X0331050Y0047899D01*
G01X0331050Y0053599D01*
G01X0352850Y0053599D01*
G01X0352850Y0047899D01*
G01X0345450Y0047899D01*
G01X0345450Y0024899D01*
G01X0352950Y0024899D01*
G01X0352950Y0019199D01*
G01X0331050Y0019199D01*
G01X0331050Y0019199D01*
G37*
G36*
G01X0302950Y0019199D02*
G01X0302950Y0053599D01*
G01X0309050Y0053599D01*
G01X0309050Y0032499D01*
G01X0309350Y0033199D01*
G01X0309650Y0033899D01*
G01X0310050Y0034699D01*
G01X0310350Y0035499D01*
G01X0310750Y0036299D01*
G01X0311150Y0037199D01*
G01X0311550Y0038099D01*
G01X0311950Y0038999D01*
G01X0312450Y0039899D01*
G01X0312850Y0040899D01*
G01X0313350Y0041799D01*
G01X0313950Y0042799D01*
G01X0314450Y0043799D01*
G01X0314950Y0044699D01*
G01X0315450Y0045599D01*
G01X0315950Y0046599D01*
G01X0316450Y0047499D01*
G01X0316950Y0048499D01*
G01X0317450Y0049399D01*
G01X0317950Y0050299D01*
G01X0318550Y0051199D01*
G01X0319050Y0052099D01*
G01X0319550Y0052899D01*
G01X0320050Y0053799D01*
G01X0325650Y0053799D01*
G01X0325650Y0019299D01*
G01X0319450Y0019299D01*
G01X0319450Y0042099D01*
G01X0318450Y0040199D01*
G01X0317450Y0038299D01*
G01X0316450Y0036399D01*
G01X0315450Y0034499D01*
G01X0314450Y0032599D01*
G01X0313550Y0030699D01*
G01X0312550Y0028799D01*
G01X0311650Y0026899D01*
G01X0310850Y0024999D01*
G01X0310050Y0023099D01*
G01X0309250Y0021199D01*
G01X0308350Y0019299D01*
G01X0302950Y0019299D01*
G01X0302950Y0019199D01*
G37*
G36*
G01X0407550Y0032499D02*
G01X0407550Y0025599D01*
G01X0511750Y0025599D01*
G01X0511750Y0032499D01*
G01X0407550Y0032499D01*
G37*
G36*
G01X0747450Y0043199D02*
G01X0758150Y0032499D01*
G01X0669350Y0032499D01*
G01X0669350Y0025599D01*
G01X0758150Y0025599D01*
G01X0747450Y0014899D01*
G01X0759350Y0014899D01*
G01X0773550Y0028999D01*
G01X0759350Y0043199D01*
G01X0747450Y0043199D01*
G37*
G36*
G01X0511850Y0961099D02*
G01X0433150Y0961099D01*
G01X0433150Y0882399D01*
G01X0511850Y0882399D01*
G01X0511850Y0961099D01*
G01X0511850Y0961099D01*
G37*
%LPC*%
G36*
G01X0484650Y0941399D02*
G01X0492150Y0933899D01*
G01X0479750Y0921499D01*
G01X0472550Y0914299D01*
G01X0460150Y0901899D01*
G01X0452650Y0909399D01*
G01X0465050Y0921799D01*
G01X0472250Y0928999D01*
G01X0484650Y0941399D01*
G01X0484650Y0941399D01*
G37*
M02*
