%TF.GenerationSoftware,KiCad,Pcbnew,9.0.0*%
%TF.CreationDate,2025-03-06T15:51:14+01:00*%
%TF.ProjectId,motor_board,6d6f746f-725f-4626-9f61-72642e6b6963,0.1*%
%TF.SameCoordinates,Original*%
%TF.FileFunction,Other,User*%
%FSLAX46Y46*%
G04 Gerber Fmt 4.6, Leading zero omitted, Abs format (unit mm)*
G04 Created by KiCad (PCBNEW 9.0.0) date 2025-03-06 15:51:14*
%MOMM*%
%LPD*%
G01*
G04 APERTURE LIST*
%ADD10C,0.152400*%
%ADD11C,0.050000*%
G04 APERTURE END LIST*
D10*
%TO.C,U10*%
X142824000Y-86234000D02*
X142249000Y-86234000D01*
X142824000Y-84006000D02*
X142824000Y-86234000D01*
X142824000Y-84006000D02*
X142249000Y-84006000D01*
X142249000Y-86474000D02*
X140391000Y-86474000D01*
X142249000Y-86234000D02*
X142249000Y-86474000D01*
X142249000Y-83766000D02*
X142249000Y-84006000D01*
X140391000Y-86474000D02*
X140391000Y-86234000D01*
X140391000Y-84006000D02*
X140391000Y-83766000D01*
X140391000Y-83766000D02*
X142249000Y-83766000D01*
X139816000Y-86234000D02*
X140391000Y-86234000D01*
X139816000Y-86234000D02*
X139816000Y-84006000D01*
X139816000Y-84006000D02*
X140391000Y-84006000D01*
%TO.C,U9*%
X135184000Y-86224000D02*
X134609000Y-86224000D01*
X135184000Y-83996000D02*
X135184000Y-86224000D01*
X135184000Y-83996000D02*
X134609000Y-83996000D01*
X134609000Y-86464000D02*
X132751000Y-86464000D01*
X134609000Y-86224000D02*
X134609000Y-86464000D01*
X134609000Y-83756000D02*
X134609000Y-83996000D01*
X132751000Y-86464000D02*
X132751000Y-86224000D01*
X132751000Y-83996000D02*
X132751000Y-83756000D01*
X132751000Y-83756000D02*
X134609000Y-83756000D01*
X132176000Y-86224000D02*
X132751000Y-86224000D01*
X132176000Y-86224000D02*
X132176000Y-83996000D01*
X132176000Y-83996000D02*
X132751000Y-83996000D01*
%TO.C,U8*%
X127534000Y-86244000D02*
X126959000Y-86244000D01*
X127534000Y-84016000D02*
X127534000Y-86244000D01*
X127534000Y-84016000D02*
X126959000Y-84016000D01*
X126959000Y-86484000D02*
X125101000Y-86484000D01*
X126959000Y-86244000D02*
X126959000Y-86484000D01*
X126959000Y-83776000D02*
X126959000Y-84016000D01*
X125101000Y-86484000D02*
X125101000Y-86244000D01*
X125101000Y-84016000D02*
X125101000Y-83776000D01*
X125101000Y-83776000D02*
X126959000Y-83776000D01*
X124526000Y-86244000D02*
X125101000Y-86244000D01*
X124526000Y-86244000D02*
X124526000Y-84016000D01*
X124526000Y-84016000D02*
X125101000Y-84016000D01*
%TO.C,U5*%
X119903999Y-86223999D02*
X119328999Y-86223999D01*
X119903999Y-83995999D02*
X119903999Y-86223999D01*
X119903999Y-83995999D02*
X119328999Y-83995999D01*
X119328999Y-86463999D02*
X117470999Y-86463999D01*
X119328999Y-86223999D02*
X119328999Y-86463999D01*
X119328999Y-83755999D02*
X119328999Y-83995999D01*
X117470999Y-86463999D02*
X117470999Y-86223999D01*
X117470999Y-83995999D02*
X117470999Y-83755999D01*
X117470999Y-83755999D02*
X119328999Y-83755999D01*
X116895999Y-86223999D02*
X117470999Y-86223999D01*
X116895999Y-86223999D02*
X116895999Y-83995999D01*
X116895999Y-83995999D02*
X117470999Y-83995999D01*
D11*
%TO.C,RN3*%
X126089999Y-77590001D02*
X123589999Y-77590001D01*
X126089999Y-77590001D02*
X126089999Y-79590001D01*
X123589999Y-79590001D02*
X123589999Y-77590001D01*
X123589999Y-79590001D02*
X126089999Y-79590001D01*
%TO.C,RN4*%
X116139999Y-77720001D02*
X113639999Y-77720001D01*
X116139999Y-77720001D02*
X116139999Y-79720001D01*
X113639999Y-79720001D02*
X113639999Y-77720001D01*
X113639999Y-79720001D02*
X116139999Y-79720001D01*
%TO.C,D15*%
X112376673Y-80020001D02*
X114276673Y-80020001D01*
X112376673Y-83720001D02*
X112376673Y-80020001D01*
X114276673Y-80020001D02*
X114276673Y-83720001D01*
X114276673Y-83720001D02*
X112376673Y-83720001D01*
%TO.C,RN1*%
X146479999Y-77070001D02*
X143979999Y-77070001D01*
X146479999Y-77070001D02*
X146479999Y-79070001D01*
X143979999Y-79070001D02*
X143979999Y-77070001D01*
X143979999Y-79070001D02*
X146479999Y-79070001D01*
%TO.C,D18*%
X145483331Y-80020001D02*
X147383331Y-80020001D01*
X145483331Y-83720001D02*
X145483331Y-80020001D01*
X147383331Y-80020001D02*
X147383331Y-83720001D01*
X147383331Y-83720001D02*
X145483331Y-83720001D01*
%TO.C,D11*%
X122563337Y-80020001D02*
X124463337Y-80020001D01*
X122563337Y-83720001D02*
X122563337Y-80020001D01*
X124463337Y-80020001D02*
X124463337Y-83720001D01*
X124463337Y-83720001D02*
X122563337Y-83720001D01*
%TO.C,D7*%
X132750001Y-80020001D02*
X134650001Y-80020001D01*
X132750001Y-83720001D02*
X132750001Y-80020001D01*
X134650001Y-80020001D02*
X134650001Y-83720001D01*
X134650001Y-83720001D02*
X132750001Y-83720001D01*
%TO.C,D17*%
X148029997Y-80020001D02*
X149929997Y-80020001D01*
X148029997Y-83720001D02*
X148029997Y-80020001D01*
X149929997Y-80020001D02*
X149929997Y-83720001D01*
X149929997Y-83720001D02*
X148029997Y-83720001D01*
%TO.C,D8*%
X130203335Y-80020001D02*
X132103335Y-80020001D01*
X130203335Y-83720001D02*
X130203335Y-80020001D01*
X132103335Y-80020001D02*
X132103335Y-83720001D01*
X132103335Y-83720001D02*
X130203335Y-83720001D01*
%TO.C,D13*%
X117470005Y-80020001D02*
X119370005Y-80020001D01*
X117470005Y-83720001D02*
X117470005Y-80020001D01*
X119370005Y-80020001D02*
X119370005Y-83720001D01*
X119370005Y-83720001D02*
X117470005Y-83720001D01*
%TO.C,D16*%
X109829997Y-80020001D02*
X111729997Y-80020001D01*
X109829997Y-83720001D02*
X109829997Y-80020001D01*
X111729997Y-80020001D02*
X111729997Y-83720001D01*
X111729997Y-83720001D02*
X109829997Y-83720001D01*
%TO.C,D3*%
X142936665Y-80020001D02*
X144836665Y-80020001D01*
X142936665Y-83720001D02*
X142936665Y-80020001D01*
X144836665Y-80020001D02*
X144836665Y-83720001D01*
X144836665Y-83720001D02*
X142936665Y-83720001D01*
%TO.C,D9*%
X127656669Y-80020001D02*
X129556669Y-80020001D01*
X127656669Y-83720001D02*
X127656669Y-80020001D01*
X129556669Y-80020001D02*
X129556669Y-83720001D01*
X129556669Y-83720001D02*
X127656669Y-83720001D01*
%TO.C,D12*%
X120016671Y-80020001D02*
X121916671Y-80020001D01*
X120016671Y-83720001D02*
X120016671Y-80020001D01*
X121916671Y-80020001D02*
X121916671Y-83720001D01*
X121916671Y-83720001D02*
X120016671Y-83720001D01*
%TO.C,D5*%
X137843333Y-80020001D02*
X139743333Y-80020001D01*
X137843333Y-83720001D02*
X137843333Y-80020001D01*
X139743333Y-80020001D02*
X139743333Y-83720001D01*
X139743333Y-83720001D02*
X137843333Y-83720001D01*
%TO.C,D6*%
X135296667Y-80020001D02*
X137196667Y-80020001D01*
X135296667Y-83720001D02*
X135296667Y-80020001D01*
X137196667Y-80020001D02*
X137196667Y-83720001D01*
X137196667Y-83720001D02*
X135296667Y-83720001D01*
%TO.C,D4*%
X140389999Y-80020001D02*
X142289999Y-80020001D01*
X140389999Y-83720001D02*
X140389999Y-80020001D01*
X142289999Y-80020001D02*
X142289999Y-83720001D01*
X142289999Y-83720001D02*
X140389999Y-83720001D01*
%TO.C,RN2*%
X136509999Y-77280001D02*
X134009999Y-77280001D01*
X136509999Y-77280001D02*
X136509999Y-79280001D01*
X134009999Y-79280001D02*
X134009999Y-77280001D01*
X134009999Y-79280001D02*
X136509999Y-79280001D01*
%TO.C,D10*%
X125110003Y-80020001D02*
X127010003Y-80020001D01*
X125110003Y-83720001D02*
X125110003Y-80020001D01*
X127010003Y-80020001D02*
X127010003Y-83720001D01*
X127010003Y-83720001D02*
X125110003Y-83720001D01*
%TO.C,D14*%
X114923339Y-80020001D02*
X116823339Y-80020001D01*
X114923339Y-83720001D02*
X114923339Y-80020001D01*
X116823339Y-80020001D02*
X116823339Y-83720001D01*
X116823339Y-83720001D02*
X114923339Y-83720001D01*
%TO.C,SW9*%
X107060000Y-79750000D02*
X107060000Y-85250000D01*
X103660000Y-79750000D02*
X107060000Y-79750000D01*
X107060000Y-85250000D02*
X103660000Y-85250000D01*
X103660000Y-85250000D02*
X103660000Y-79750000D01*
%TO.C,R3*%
X106050000Y-62030000D02*
X109750000Y-62030000D01*
X106050000Y-63930000D02*
X106050000Y-62030000D01*
X109750000Y-62030000D02*
X109750000Y-63930000D01*
X109750000Y-63930000D02*
X106050000Y-63930000D01*
%TO.C,D2*%
X146497649Y-64629059D02*
X148397649Y-64629059D01*
X146497649Y-68329059D02*
X146497649Y-64629059D01*
X148397649Y-64629059D02*
X148397649Y-68329059D01*
X148397649Y-68329059D02*
X146497649Y-68329059D01*
%TO.C,U4*%
X150140000Y-65090000D02*
X150140000Y-72290000D01*
X150140000Y-72290000D02*
X158940000Y-72290000D01*
X158940000Y-65090000D02*
X150140000Y-65090000D01*
X158940000Y-72290000D02*
X158940000Y-65090000D01*
%TO.C,H1*%
X159750000Y-55000000D02*
G75*
G02*
X154250000Y-55000000I-2750000J0D01*
G01*
X154250000Y-55000000D02*
G75*
G02*
X159750000Y-55000000I2750000J0D01*
G01*
%TO.C,JP5*%
X102050000Y-69330000D02*
X102050000Y-71830000D01*
X102050000Y-69330000D02*
X105350000Y-69330000D01*
X105350000Y-71830000D02*
X102050000Y-71830000D01*
X105350000Y-71830000D02*
X105350000Y-69330000D01*
%TO.C,JP3*%
X102050000Y-64250000D02*
X102050000Y-66750000D01*
X102050000Y-64250000D02*
X105350000Y-64250000D01*
X105350000Y-66750000D02*
X102050000Y-66750000D01*
X105350000Y-66750000D02*
X105350000Y-64250000D01*
%TO.C,JP2*%
X102050000Y-61710000D02*
X102050000Y-64210000D01*
X102050000Y-61710000D02*
X105350000Y-61710000D01*
X105350000Y-64210000D02*
X102050000Y-64210000D01*
X105350000Y-64210000D02*
X105350000Y-61710000D01*
%TO.C,R26*%
X136020000Y-59680000D02*
X137920000Y-59680000D01*
X136020000Y-63380000D02*
X136020000Y-59680000D01*
X137920000Y-59680000D02*
X137920000Y-63380000D01*
X137920000Y-63380000D02*
X136020000Y-63380000D01*
%TO.C,JP1*%
X102050000Y-59170000D02*
X102050000Y-61670000D01*
X102050000Y-59170000D02*
X105350000Y-59170000D01*
X105350000Y-61670000D02*
X102050000Y-61670000D01*
X105350000Y-61670000D02*
X105350000Y-59170000D01*
%TO.C,R6*%
X106050000Y-67110000D02*
X109750000Y-67110000D01*
X106050000Y-69010000D02*
X106050000Y-67110000D01*
X109750000Y-67110000D02*
X109750000Y-69010000D01*
X109750000Y-69010000D02*
X106050000Y-69010000D01*
%TO.C,J8*%
X109005000Y-90440000D02*
X109005000Y-94040000D01*
X109005000Y-94040000D02*
X150705000Y-94040000D01*
X150705000Y-90440000D02*
X109005000Y-90440000D01*
X150705000Y-94040000D02*
X150705000Y-90440000D01*
%TO.C,R1*%
X106050000Y-59490000D02*
X109750000Y-59490000D01*
X106050000Y-61390000D02*
X106050000Y-59490000D01*
X109750000Y-59490000D02*
X109750000Y-61390000D01*
X109750000Y-61390000D02*
X106050000Y-61390000D01*
%TO.C,JP4*%
X102050000Y-66790000D02*
X102050000Y-69290000D01*
X102050000Y-66790000D02*
X105350000Y-66790000D01*
X105350000Y-69290000D02*
X102050000Y-69290000D01*
X105350000Y-69290000D02*
X105350000Y-66790000D01*
%TO.C,R4*%
X114850000Y-68140000D02*
X118550000Y-68140000D01*
X114850000Y-70040000D02*
X114850000Y-68140000D01*
X118550000Y-68140000D02*
X118550000Y-70040000D01*
X118550000Y-70040000D02*
X114850000Y-70040000D01*
%TO.C,J3*%
X136340000Y-52075000D02*
X136340000Y-58225000D01*
X136340000Y-58225000D02*
X139940000Y-58225000D01*
X139940000Y-52075000D02*
X136340000Y-52075000D01*
X139940000Y-58225000D02*
X139940000Y-52075000D01*
%TO.C,C4*%
X114840000Y-61620000D02*
X118600000Y-61620000D01*
X114840000Y-63580000D02*
X114840000Y-61620000D01*
X118600000Y-61620000D02*
X118600000Y-63580000D01*
X118600000Y-63580000D02*
X114840000Y-63580000D01*
%TO.C,R2*%
X114790000Y-66010000D02*
X118490000Y-66010000D01*
X114790000Y-67910000D02*
X114790000Y-66010000D01*
X118490000Y-66010000D02*
X118490000Y-67910000D01*
X118490000Y-67910000D02*
X114790000Y-67910000D01*
%TO.C,J11*%
X152850000Y-79920000D02*
X152850000Y-88570000D01*
X152850000Y-88570000D02*
X156450000Y-88570000D01*
X156450000Y-79920000D02*
X152850000Y-79920000D01*
X156450000Y-88570000D02*
X156450000Y-79920000D01*
%TO.C,H2*%
X105750000Y-55000000D02*
G75*
G02*
X100250000Y-55000000I-2750000J0D01*
G01*
X100250000Y-55000000D02*
G75*
G02*
X105750000Y-55000000I2750000J0D01*
G01*
%TO.C,R9*%
X144397649Y-64629059D02*
X146297649Y-64629059D01*
X144397649Y-68329059D02*
X144397649Y-64629059D01*
X146297649Y-64629059D02*
X146297649Y-68329059D01*
X146297649Y-68329059D02*
X144397649Y-68329059D01*
%TO.C,R5*%
X106050000Y-64570000D02*
X109750000Y-64570000D01*
X106050000Y-66470000D02*
X106050000Y-64570000D01*
X109750000Y-64570000D02*
X109750000Y-66470000D01*
X109750000Y-66470000D02*
X106050000Y-66470000D01*
%TO.C,R27*%
X138060000Y-59680000D02*
X139960000Y-59680000D01*
X138060000Y-63380000D02*
X138060000Y-59680000D01*
X139960000Y-59680000D02*
X139960000Y-63380000D01*
X139960000Y-63380000D02*
X138060000Y-63380000D01*
%TO.C,H4*%
X105750000Y-120000000D02*
G75*
G02*
X100250000Y-120000000I-2750000J0D01*
G01*
X100250000Y-120000000D02*
G75*
G02*
X105750000Y-120000000I2750000J0D01*
G01*
%TO.C,J9*%
X109005000Y-92980000D02*
X109005000Y-96580000D01*
X109005000Y-96580000D02*
X150705000Y-96580000D01*
X150705000Y-92980000D02*
X109005000Y-92980000D01*
X150705000Y-96580000D02*
X150705000Y-92980000D01*
%TO.C,J2*%
X151155000Y-72770000D02*
X151155000Y-76370000D01*
X151155000Y-76370000D02*
X157305000Y-76370000D01*
X157305000Y-72770000D02*
X151155000Y-72770000D01*
X157305000Y-76370000D02*
X157305000Y-72770000D01*
%TO.C,C3*%
X114820000Y-63815000D02*
X118580000Y-63815000D01*
X114820000Y-65775000D02*
X114820000Y-63815000D01*
X118580000Y-63815000D02*
X118580000Y-65775000D01*
X118580000Y-65775000D02*
X114820000Y-65775000D01*
%TO.C,C5*%
X114840000Y-59510000D02*
X118600000Y-59510000D01*
X114840000Y-61470000D02*
X114840000Y-59510000D01*
X118600000Y-59510000D02*
X118600000Y-61470000D01*
X118600000Y-61470000D02*
X114840000Y-61470000D01*
%TO.C,J7*%
X108980000Y-87880000D02*
X108980000Y-91480000D01*
X108980000Y-91480000D02*
X150680000Y-91480000D01*
X150680000Y-87880000D02*
X108980000Y-87880000D01*
X150680000Y-91480000D02*
X150680000Y-87880000D01*
%TO.C,R7*%
X106050000Y-69650000D02*
X109750000Y-69650000D01*
X106050000Y-71550000D02*
X106050000Y-69650000D01*
X109750000Y-69650000D02*
X109750000Y-71550000D01*
X109750000Y-71550000D02*
X106050000Y-71550000D01*
%TO.C,H3*%
X159750000Y-120000000D02*
G75*
G02*
X154250000Y-120000000I-2750000J0D01*
G01*
X154250000Y-120000000D02*
G75*
G02*
X159750000Y-120000000I2750000J0D01*
G01*
%TD*%
M02*
