%TF.GenerationSoftware,KiCad,Pcbnew,9.0.0*%
%TF.CreationDate,2025-03-06T15:51:14+01:00*%
%TF.ProjectId,motor_board,6d6f746f-725f-4626-9f61-72642e6b6963,0.1*%
%TF.SameCoordinates,Original*%
%TF.FileFunction,Copper,L2,Bot*%
%TF.FilePolarity,Positive*%
%FSLAX46Y46*%
G04 Gerber Fmt 4.6, Leading zero omitted, Abs format (unit mm)*
G04 Created by KiCad (PCBNEW 9.0.0) date 2025-03-06 15:51:14*
%MOMM*%
%LPD*%
G01*
G04 APERTURE LIST*
%TA.AperFunction,ComponentPad*%
%ADD10R,1.524000X1.524000*%
%TD*%
%TA.AperFunction,ComponentPad*%
%ADD11C,1.524000*%
%TD*%
%TA.AperFunction,ComponentPad*%
%ADD12R,1.700000X1.700000*%
%TD*%
%TA.AperFunction,ComponentPad*%
%ADD13O,1.700000X1.700000*%
%TD*%
%TA.AperFunction,ComponentPad*%
%ADD14R,2.600000X2.600000*%
%TD*%
%TA.AperFunction,ComponentPad*%
%ADD15C,2.600000*%
%TD*%
%TA.AperFunction,ViaPad*%
%ADD16C,0.800000*%
%TD*%
%TA.AperFunction,Conductor*%
%ADD17C,0.250000*%
%TD*%
%TA.AperFunction,Conductor*%
%ADD18C,0.400000*%
%TD*%
%TA.AperFunction,Conductor*%
%ADD19C,0.500000*%
%TD*%
%TA.AperFunction,Conductor*%
%ADD20C,1.000000*%
%TD*%
G04 APERTURE END LIST*
D10*
%TO.P,J1,1,Pin_1*%
%TO.N,SCL*%
X127030000Y-54960000D03*
D11*
%TO.P,J1,2,Pin_2*%
%TO.N,SDA*%
X129030000Y-54960000D03*
%TO.P,J1,3,Pin_3*%
%TO.N,VCC*%
X131030000Y-54960000D03*
%TO.P,J1,4,Pin_4*%
%TO.N,GND*%
X133030000Y-54960000D03*
%TD*%
D12*
%TO.P,J8,1,Pin_1*%
%TO.N,servopower*%
X148905000Y-92240000D03*
D13*
%TO.P,J8,2,Pin_2*%
X146365000Y-92240000D03*
%TO.P,J8,3,Pin_3*%
X143825000Y-92240000D03*
%TO.P,J8,4,Pin_4*%
X141285000Y-92240000D03*
%TO.P,J8,5,Pin_5*%
X138745000Y-92240000D03*
%TO.P,J8,6,Pin_6*%
X136205000Y-92240000D03*
%TO.P,J8,7,Pin_7*%
X133665000Y-92240000D03*
%TO.P,J8,8,Pin_8*%
X131125000Y-92240000D03*
%TO.P,J8,9,Pin_9*%
X128585000Y-92240000D03*
%TO.P,J8,10,Pin_10*%
X126045000Y-92240000D03*
%TO.P,J8,11,Pin_11*%
X123505000Y-92240000D03*
%TO.P,J8,12,Pin_12*%
X120965000Y-92240000D03*
%TO.P,J8,13,Pin_13*%
X118425000Y-92240000D03*
%TO.P,J8,14,Pin_14*%
X115885000Y-92240000D03*
%TO.P,J8,15,Pin_15*%
X113345000Y-92240000D03*
%TO.P,J8,16,Pin_16*%
X110805000Y-92240000D03*
%TD*%
D12*
%TO.P,J3,1,Pin_1*%
%TO.N,GND*%
X138140000Y-53875000D03*
D13*
%TO.P,J3,2,Pin_2*%
%TO.N,Net-(J3-Pin_2)*%
X138140000Y-56415000D03*
%TD*%
D14*
%TO.P,J4,1,Pin_1*%
%TO.N,GND*%
X148630000Y-57320000D03*
D15*
%TO.P,J4,2,Pin_2*%
%TO.N,Net-(J4-Pin_2)*%
X143630000Y-57320000D03*
%TD*%
D12*
%TO.P,J11,1,Pin_1*%
%TO.N,+12V*%
X154650000Y-81720000D03*
D13*
%TO.P,J11,2,Pin_2*%
%TO.N,servopower*%
X154650000Y-84260000D03*
%TO.P,J11,3,Pin_3*%
%TO.N,VCC*%
X154650000Y-86800000D03*
%TD*%
D14*
%TO.P,J6,1,Pin_1*%
%TO.N,M1A*%
X133370000Y-116020000D03*
D15*
%TO.P,J6,2,Pin_2*%
%TO.N,M1B*%
X138370000Y-116020000D03*
%TO.P,J6,3,Pin_3*%
%TO.N,M2B*%
X143370000Y-116020000D03*
%TO.P,J6,4,Pin_4*%
%TO.N,M2A*%
X148370000Y-116020000D03*
%TD*%
D14*
%TO.P,J5,1,Pin_1*%
%TO.N,M3A*%
X111630000Y-116020000D03*
D15*
%TO.P,J5,2,Pin_2*%
%TO.N,M3B*%
X116630000Y-116020000D03*
%TO.P,J5,3,Pin_3*%
%TO.N,M4B*%
X121630000Y-116020000D03*
%TO.P,J5,4,Pin_4*%
%TO.N,M4A*%
X126630000Y-116020000D03*
%TD*%
D12*
%TO.P,J9,1,Pin_1*%
%TO.N,GND*%
X148905000Y-94780000D03*
D13*
%TO.P,J9,2,Pin_2*%
X146365000Y-94780000D03*
%TO.P,J9,3,Pin_3*%
X143825000Y-94780000D03*
%TO.P,J9,4,Pin_4*%
X141285000Y-94780000D03*
%TO.P,J9,5,Pin_5*%
X138745000Y-94780000D03*
%TO.P,J9,6,Pin_6*%
X136205000Y-94780000D03*
%TO.P,J9,7,Pin_7*%
X133665000Y-94780000D03*
%TO.P,J9,8,Pin_8*%
X131125000Y-94780000D03*
%TO.P,J9,9,Pin_9*%
X128585000Y-94780000D03*
%TO.P,J9,10,Pin_10*%
X126045000Y-94780000D03*
%TO.P,J9,11,Pin_11*%
X123505000Y-94780000D03*
%TO.P,J9,12,Pin_12*%
X120965000Y-94780000D03*
%TO.P,J9,13,Pin_13*%
X118425000Y-94780000D03*
%TO.P,J9,14,Pin_14*%
X115885000Y-94780000D03*
%TO.P,J9,15,Pin_15*%
X113345000Y-94780000D03*
%TO.P,J9,16,Pin_16*%
X110805000Y-94780000D03*
%TD*%
D12*
%TO.P,J2,1,Pin_1*%
%TO.N,Net-(J2-Pin_1)*%
X152955000Y-74570000D03*
D13*
%TO.P,J2,2,Pin_2*%
%TO.N,VCC*%
X155495000Y-74570000D03*
%TD*%
D12*
%TO.P,J7,1,Pin_1*%
%TO.N,PWM0*%
X110780000Y-89680000D03*
D13*
%TO.P,J7,2,Pin_2*%
%TO.N,PWM1*%
X113320000Y-89680000D03*
%TO.P,J7,3,Pin_3*%
%TO.N,PWM2motor*%
X115860000Y-89680000D03*
%TO.P,J7,4,Pin_4*%
%TO.N,PWM3*%
X118400000Y-89680000D03*
%TO.P,J7,5,Pin_5*%
%TO.N,PWM4motor*%
X120940000Y-89680000D03*
%TO.P,J7,6,Pin_6*%
%TO.N,PWM5motor*%
X123480000Y-89680000D03*
%TO.P,J7,7,Pin_7*%
%TO.N,PWM6*%
X126020000Y-89680000D03*
%TO.P,J7,8,Pin_8*%
%TO.N,PWM7motor*%
X128560000Y-89680000D03*
%TO.P,J7,9,Pin_9*%
%TO.N,PWM8motor*%
X131100000Y-89680000D03*
%TO.P,J7,10,Pin_10*%
%TO.N,PWM9*%
X133640000Y-89680000D03*
%TO.P,J7,11,Pin_11*%
%TO.N,PWM10motor*%
X136180000Y-89680000D03*
%TO.P,J7,12,Pin_12*%
%TO.N,PWM11motor*%
X138720000Y-89680000D03*
%TO.P,J7,13,Pin_13*%
%TO.N,PWM12*%
X141260000Y-89680000D03*
%TO.P,J7,14,Pin_14*%
%TO.N,PWM13motor*%
X143800000Y-89680000D03*
%TO.P,J7,15,Pin_15*%
%TO.N,PWM14*%
X146340000Y-89680000D03*
%TO.P,J7,16,Pin_16*%
%TO.N,PWM15*%
X148880000Y-89680000D03*
%TD*%
D16*
%TO.N,testvoltage*%
X107250000Y-87580000D03*
X142790000Y-87969309D03*
X140110000Y-87969309D03*
X132860000Y-87969309D03*
X127780000Y-87969309D03*
X125060000Y-87969309D03*
X119910000Y-87969309D03*
X117330691Y-83830000D03*
%TO.N,PWM13*%
X139942388Y-83703753D03*
X140345306Y-73634694D03*
%TO.N,PWM12*%
X141132653Y-75447347D03*
X140870000Y-82020001D03*
%TO.N,PWM11*%
X142600000Y-86520000D03*
X142230000Y-78150000D03*
%TO.N,PWM10*%
X131884331Y-84751662D03*
X132030000Y-75790000D03*
%TO.N,PWM9*%
X132610769Y-81736669D03*
X133320000Y-75660000D03*
%TO.N,PWM8*%
X134920000Y-86850000D03*
X134840000Y-75850000D03*
%TO.N,PWM7*%
X125420000Y-73390000D03*
X124318451Y-84027094D03*
%TO.N,PWM6*%
X125800000Y-82020001D03*
X124290000Y-73460000D03*
%TO.N,PWM5*%
X127340000Y-87120000D03*
X123130000Y-73460000D03*
%TO.N,PWM4*%
X116605691Y-84755164D03*
X121876404Y-73336403D03*
%TO.N,PWM2*%
X119720000Y-86870000D03*
X119920000Y-73620000D03*
%TO.N,VCC*%
X151222946Y-91460000D03*
X136300000Y-102860000D03*
X122462500Y-101747500D03*
%TO.N,GND*%
X152510000Y-98680000D03*
X123470000Y-97100000D03*
X131990000Y-57190000D03*
X117670000Y-58980000D03*
X121760000Y-56540000D03*
X122470000Y-53740000D03*
X147070000Y-97160000D03*
X130170000Y-57230000D03*
X125520000Y-58680000D03*
X152590000Y-119560000D03*
X107280000Y-98430000D03*
X150200000Y-87620000D03*
X107230000Y-119980000D03*
X113850000Y-54960000D03*
X137920000Y-102840000D03*
X107340000Y-105750000D03*
X120430000Y-57230000D03*
X137150000Y-97230000D03*
X152090000Y-105270000D03*
X112240000Y-96980000D03*
%TO.N,A2*%
X105530000Y-65500000D03*
X123050000Y-62940000D03*
%TO.N,A1*%
X123790000Y-62080000D03*
X105690000Y-62960000D03*
%TO.N,A0*%
X105730000Y-60420000D03*
X124560000Y-61290000D03*
%TO.N,A3*%
X122300000Y-63820000D03*
X105530000Y-68040000D03*
%TO.N,A4*%
X105570000Y-70580000D03*
X121690000Y-64700000D03*
%TD*%
D17*
%TO.N,testvoltage*%
X117330691Y-87969309D02*
X117670000Y-87969309D01*
X117330691Y-87630000D02*
X117670000Y-87969309D01*
X117330691Y-83830000D02*
X117330691Y-87630000D01*
X117330000Y-87970000D02*
X107640000Y-87970000D01*
X107640000Y-87970000D02*
X107250000Y-87580000D01*
X132860000Y-87969309D02*
X142790000Y-87969309D01*
X127780000Y-87969309D02*
X132860000Y-87969309D01*
X125060000Y-87969309D02*
X127780000Y-87969309D01*
X119910000Y-87969309D02*
X125060000Y-87969309D01*
X117670000Y-87969309D02*
X119910000Y-87969309D01*
X117330691Y-87969309D02*
X117330000Y-87970000D01*
%TO.N,PWM13*%
X139942388Y-74037612D02*
X139942388Y-83703753D01*
X140345306Y-73634694D02*
X139942388Y-74037612D01*
%TO.N,PWM12*%
X141132653Y-75447347D02*
X141132653Y-81757348D01*
X141132653Y-81757348D02*
X140870000Y-82020001D01*
%TO.N,PWM11*%
X142360000Y-86660000D02*
X142500000Y-86520000D01*
X142500000Y-86520000D02*
X142600000Y-86520000D01*
X142230000Y-86530000D02*
X142360000Y-86660000D01*
X142230000Y-78150000D02*
X142230000Y-86530000D01*
%TO.N,PWM10*%
X132030000Y-75790000D02*
X131884331Y-75935669D01*
X131884331Y-75935669D02*
X131884331Y-84751662D01*
%TO.N,PWM9*%
X133320000Y-75660000D02*
X133320000Y-81027438D01*
X133320000Y-81027438D02*
X132610769Y-81736669D01*
%TO.N,PWM8*%
X134840000Y-86770000D02*
X134920000Y-86850000D01*
X134840000Y-75850000D02*
X134840000Y-86770000D01*
%TO.N,PWM7*%
X126526000Y-74496000D02*
X126526000Y-82320721D01*
X126526000Y-82320721D02*
X124846721Y-84000000D01*
X125420000Y-73390000D02*
X126526000Y-74496000D01*
X124480000Y-84000000D02*
X124345545Y-84000000D01*
X124846721Y-84000000D02*
X124480000Y-84000000D01*
X124345545Y-84000000D02*
X124318451Y-84027094D01*
%TO.N,PWM6*%
X124290000Y-73460000D02*
X124290000Y-80510001D01*
X124290000Y-80510001D02*
X125800000Y-82020001D01*
%TO.N,PWM5*%
X124460000Y-87120000D02*
X127340000Y-87120000D01*
X123130000Y-73460000D02*
X123130000Y-86390000D01*
X124160000Y-87420000D02*
X124460000Y-87120000D01*
X123130000Y-86390000D02*
X124160000Y-87420000D01*
%TO.N,PWM4*%
X121876404Y-73336403D02*
X121434001Y-72894000D01*
X119619280Y-72894000D02*
X116605691Y-75907589D01*
X121434001Y-72894000D02*
X119619280Y-72894000D01*
X116605691Y-75907589D02*
X116605691Y-84755164D01*
%TO.N,PWM2*%
X119920000Y-73620000D02*
X119920000Y-86670000D01*
X119920000Y-86670000D02*
X119720000Y-86870000D01*
D18*
%TO.N,VCC*%
X136300000Y-102250000D02*
X136650000Y-101900000D01*
D19*
X135470000Y-59400000D02*
X131030000Y-54960000D01*
X136650000Y-101900000D02*
X146746834Y-101900000D01*
X122462500Y-101747500D02*
X122615000Y-101900000D01*
X146746834Y-101900000D02*
X151222946Y-97423888D01*
X151222946Y-71382946D02*
X139240000Y-59400000D01*
X139240000Y-59400000D02*
X135470000Y-59400000D01*
X151222946Y-77440000D02*
X151222946Y-71382946D01*
D18*
X136300000Y-102860000D02*
X136300000Y-102250000D01*
D19*
X122615000Y-101900000D02*
X136650000Y-101900000D01*
X151222946Y-97423888D02*
X151222946Y-91460000D01*
D20*
%TO.N,GND*%
X110805000Y-94780000D02*
X148905000Y-94780000D01*
D17*
%TO.N,A2*%
X108090000Y-62940000D02*
X105530000Y-65500000D01*
X123050000Y-62940000D02*
X108090000Y-62940000D01*
%TO.N,A1*%
X106590000Y-62060000D02*
X105690000Y-62960000D01*
X123790000Y-62080000D02*
X123770000Y-62060000D01*
X123770000Y-62060000D02*
X106590000Y-62060000D01*
%TO.N,A0*%
X124560000Y-61290000D02*
X123690000Y-60420000D01*
X123690000Y-60420000D02*
X105730000Y-60420000D01*
%TO.N,A3*%
X109750000Y-63820000D02*
X105530000Y-68040000D01*
X122300000Y-63820000D02*
X109750000Y-63820000D01*
%TO.N,A4*%
X121690000Y-64700000D02*
X111450000Y-64700000D01*
X111450000Y-64700000D02*
X105570000Y-70580000D01*
D20*
%TO.N,servopower*%
X110805000Y-92240000D02*
X148905000Y-92240000D01*
D19*
%TO.N,VCC*%
X151222946Y-91460000D02*
X151222946Y-77440000D01*
%TD*%
%TA.AperFunction,Conductor*%
%TO.N,GND*%
G36*
X112879075Y-94587007D02*
G01*
X112845000Y-94714174D01*
X112845000Y-94845826D01*
X112879075Y-94972993D01*
X112911988Y-95030000D01*
X111238012Y-95030000D01*
X111270925Y-94972993D01*
X111305000Y-94845826D01*
X111305000Y-94714174D01*
X111270925Y-94587007D01*
X111238012Y-94530000D01*
X112911988Y-94530000D01*
X112879075Y-94587007D01*
G37*
%TD.AperFunction*%
%TA.AperFunction,Conductor*%
G36*
X115419075Y-94587007D02*
G01*
X115385000Y-94714174D01*
X115385000Y-94845826D01*
X115419075Y-94972993D01*
X115451988Y-95030000D01*
X113778012Y-95030000D01*
X113810925Y-94972993D01*
X113845000Y-94845826D01*
X113845000Y-94714174D01*
X113810925Y-94587007D01*
X113778012Y-94530000D01*
X115451988Y-94530000D01*
X115419075Y-94587007D01*
G37*
%TD.AperFunction*%
%TA.AperFunction,Conductor*%
G36*
X117959075Y-94587007D02*
G01*
X117925000Y-94714174D01*
X117925000Y-94845826D01*
X117959075Y-94972993D01*
X117991988Y-95030000D01*
X116318012Y-95030000D01*
X116350925Y-94972993D01*
X116385000Y-94845826D01*
X116385000Y-94714174D01*
X116350925Y-94587007D01*
X116318012Y-94530000D01*
X117991988Y-94530000D01*
X117959075Y-94587007D01*
G37*
%TD.AperFunction*%
%TA.AperFunction,Conductor*%
G36*
X120499075Y-94587007D02*
G01*
X120465000Y-94714174D01*
X120465000Y-94845826D01*
X120499075Y-94972993D01*
X120531988Y-95030000D01*
X118858012Y-95030000D01*
X118890925Y-94972993D01*
X118925000Y-94845826D01*
X118925000Y-94714174D01*
X118890925Y-94587007D01*
X118858012Y-94530000D01*
X120531988Y-94530000D01*
X120499075Y-94587007D01*
G37*
%TD.AperFunction*%
%TA.AperFunction,Conductor*%
G36*
X123039075Y-94587007D02*
G01*
X123005000Y-94714174D01*
X123005000Y-94845826D01*
X123039075Y-94972993D01*
X123071988Y-95030000D01*
X121398012Y-95030000D01*
X121430925Y-94972993D01*
X121465000Y-94845826D01*
X121465000Y-94714174D01*
X121430925Y-94587007D01*
X121398012Y-94530000D01*
X123071988Y-94530000D01*
X123039075Y-94587007D01*
G37*
%TD.AperFunction*%
%TA.AperFunction,Conductor*%
G36*
X125579075Y-94587007D02*
G01*
X125545000Y-94714174D01*
X125545000Y-94845826D01*
X125579075Y-94972993D01*
X125611988Y-95030000D01*
X123938012Y-95030000D01*
X123970925Y-94972993D01*
X124005000Y-94845826D01*
X124005000Y-94714174D01*
X123970925Y-94587007D01*
X123938012Y-94530000D01*
X125611988Y-94530000D01*
X125579075Y-94587007D01*
G37*
%TD.AperFunction*%
%TA.AperFunction,Conductor*%
G36*
X128119075Y-94587007D02*
G01*
X128085000Y-94714174D01*
X128085000Y-94845826D01*
X128119075Y-94972993D01*
X128151988Y-95030000D01*
X126478012Y-95030000D01*
X126510925Y-94972993D01*
X126545000Y-94845826D01*
X126545000Y-94714174D01*
X126510925Y-94587007D01*
X126478012Y-94530000D01*
X128151988Y-94530000D01*
X128119075Y-94587007D01*
G37*
%TD.AperFunction*%
%TA.AperFunction,Conductor*%
G36*
X130659075Y-94587007D02*
G01*
X130625000Y-94714174D01*
X130625000Y-94845826D01*
X130659075Y-94972993D01*
X130691988Y-95030000D01*
X129018012Y-95030000D01*
X129050925Y-94972993D01*
X129085000Y-94845826D01*
X129085000Y-94714174D01*
X129050925Y-94587007D01*
X129018012Y-94530000D01*
X130691988Y-94530000D01*
X130659075Y-94587007D01*
G37*
%TD.AperFunction*%
%TA.AperFunction,Conductor*%
G36*
X133199075Y-94587007D02*
G01*
X133165000Y-94714174D01*
X133165000Y-94845826D01*
X133199075Y-94972993D01*
X133231988Y-95030000D01*
X131558012Y-95030000D01*
X131590925Y-94972993D01*
X131625000Y-94845826D01*
X131625000Y-94714174D01*
X131590925Y-94587007D01*
X131558012Y-94530000D01*
X133231988Y-94530000D01*
X133199075Y-94587007D01*
G37*
%TD.AperFunction*%
%TA.AperFunction,Conductor*%
G36*
X135739075Y-94587007D02*
G01*
X135705000Y-94714174D01*
X135705000Y-94845826D01*
X135739075Y-94972993D01*
X135771988Y-95030000D01*
X134098012Y-95030000D01*
X134130925Y-94972993D01*
X134165000Y-94845826D01*
X134165000Y-94714174D01*
X134130925Y-94587007D01*
X134098012Y-94530000D01*
X135771988Y-94530000D01*
X135739075Y-94587007D01*
G37*
%TD.AperFunction*%
%TA.AperFunction,Conductor*%
G36*
X138279075Y-94587007D02*
G01*
X138245000Y-94714174D01*
X138245000Y-94845826D01*
X138279075Y-94972993D01*
X138311988Y-95030000D01*
X136638012Y-95030000D01*
X136670925Y-94972993D01*
X136705000Y-94845826D01*
X136705000Y-94714174D01*
X136670925Y-94587007D01*
X136638012Y-94530000D01*
X138311988Y-94530000D01*
X138279075Y-94587007D01*
G37*
%TD.AperFunction*%
%TA.AperFunction,Conductor*%
G36*
X140819075Y-94587007D02*
G01*
X140785000Y-94714174D01*
X140785000Y-94845826D01*
X140819075Y-94972993D01*
X140851988Y-95030000D01*
X139178012Y-95030000D01*
X139210925Y-94972993D01*
X139245000Y-94845826D01*
X139245000Y-94714174D01*
X139210925Y-94587007D01*
X139178012Y-94530000D01*
X140851988Y-94530000D01*
X140819075Y-94587007D01*
G37*
%TD.AperFunction*%
%TA.AperFunction,Conductor*%
G36*
X143359075Y-94587007D02*
G01*
X143325000Y-94714174D01*
X143325000Y-94845826D01*
X143359075Y-94972993D01*
X143391988Y-95030000D01*
X141718012Y-95030000D01*
X141750925Y-94972993D01*
X141785000Y-94845826D01*
X141785000Y-94714174D01*
X141750925Y-94587007D01*
X141718012Y-94530000D01*
X143391988Y-94530000D01*
X143359075Y-94587007D01*
G37*
%TD.AperFunction*%
%TA.AperFunction,Conductor*%
G36*
X145899075Y-94587007D02*
G01*
X145865000Y-94714174D01*
X145865000Y-94845826D01*
X145899075Y-94972993D01*
X145931988Y-95030000D01*
X144258012Y-95030000D01*
X144290925Y-94972993D01*
X144325000Y-94845826D01*
X144325000Y-94714174D01*
X144290925Y-94587007D01*
X144258012Y-94530000D01*
X145931988Y-94530000D01*
X145899075Y-94587007D01*
G37*
%TD.AperFunction*%
%TA.AperFunction,Conductor*%
G36*
X148439075Y-94587007D02*
G01*
X148405000Y-94714174D01*
X148405000Y-94845826D01*
X148439075Y-94972993D01*
X148471988Y-95030000D01*
X146798012Y-95030000D01*
X146830925Y-94972993D01*
X146865000Y-94845826D01*
X146865000Y-94714174D01*
X146830925Y-94587007D01*
X146798012Y-94530000D01*
X148471988Y-94530000D01*
X148439075Y-94587007D01*
G37*
%TD.AperFunction*%
%TA.AperFunction,Conductor*%
G36*
X112554835Y-93010185D02*
G01*
X112575477Y-93026819D01*
X112628072Y-93079414D01*
X112768212Y-93181232D01*
X112922555Y-93259873D01*
X113087299Y-93313402D01*
X113087311Y-93313403D01*
X113088050Y-93313582D01*
X113088305Y-93313728D01*
X113091932Y-93314907D01*
X113091684Y-93315668D01*
X113148641Y-93348374D01*
X113180803Y-93410402D01*
X113174325Y-93479970D01*
X113131263Y-93534993D01*
X113078498Y-93556628D01*
X113052293Y-93560778D01*
X112865164Y-93621581D01*
X112689856Y-93710904D01*
X112530678Y-93826555D01*
X112391555Y-93965678D01*
X112275904Y-94124856D01*
X112185485Y-94302315D01*
X112137511Y-94353111D01*
X112069690Y-94369906D01*
X112003555Y-94347369D01*
X111964515Y-94302315D01*
X111874095Y-94124856D01*
X111758444Y-93965678D01*
X111619321Y-93826555D01*
X111460143Y-93710904D01*
X111284835Y-93621581D01*
X111097705Y-93560778D01*
X111071502Y-93556628D01*
X111008367Y-93526699D01*
X110971436Y-93467387D01*
X110972434Y-93397525D01*
X111011044Y-93339292D01*
X111058245Y-93315453D01*
X111058068Y-93314907D01*
X111061602Y-93313758D01*
X111061954Y-93313581D01*
X111062686Y-93313404D01*
X111062701Y-93313402D01*
X111227445Y-93259873D01*
X111381788Y-93181232D01*
X111521928Y-93079414D01*
X111574523Y-93026819D01*
X111635846Y-92993334D01*
X111662204Y-92990500D01*
X112487796Y-92990500D01*
X112554835Y-93010185D01*
G37*
%TD.AperFunction*%
%TA.AperFunction,Conductor*%
G36*
X115057236Y-92999144D02*
G01*
X115087223Y-93005668D01*
X115092238Y-93009422D01*
X115094835Y-93010185D01*
X115115477Y-93026819D01*
X115168072Y-93079414D01*
X115308212Y-93181232D01*
X115462555Y-93259873D01*
X115627299Y-93313402D01*
X115627311Y-93313403D01*
X115628050Y-93313582D01*
X115628305Y-93313728D01*
X115631932Y-93314907D01*
X115631684Y-93315668D01*
X115688641Y-93348374D01*
X115720803Y-93410402D01*
X115714325Y-93479970D01*
X115671263Y-93534993D01*
X115618498Y-93556628D01*
X115592293Y-93560778D01*
X115405164Y-93621581D01*
X115229856Y-93710904D01*
X115070678Y-93826555D01*
X114931555Y-93965678D01*
X114815904Y-94124856D01*
X114725485Y-94302315D01*
X114677511Y-94353111D01*
X114609690Y-94369906D01*
X114543555Y-94347369D01*
X114504515Y-94302315D01*
X114414095Y-94124856D01*
X114298444Y-93965678D01*
X114159321Y-93826555D01*
X114000143Y-93710904D01*
X113824835Y-93621581D01*
X113637705Y-93560778D01*
X113611502Y-93556628D01*
X113548367Y-93526699D01*
X113511436Y-93467387D01*
X113512434Y-93397525D01*
X113551044Y-93339292D01*
X113598245Y-93315453D01*
X113598068Y-93314907D01*
X113601602Y-93313758D01*
X113601954Y-93313581D01*
X113602686Y-93313404D01*
X113602701Y-93313402D01*
X113767445Y-93259873D01*
X113921788Y-93181232D01*
X114061928Y-93079414D01*
X114114523Y-93026819D01*
X114175846Y-92993334D01*
X114202204Y-92990500D01*
X115027796Y-92990500D01*
X115057236Y-92999144D01*
G37*
%TD.AperFunction*%
%TA.AperFunction,Conductor*%
G36*
X117634835Y-93010185D02*
G01*
X117655477Y-93026819D01*
X117708072Y-93079414D01*
X117848212Y-93181232D01*
X118002555Y-93259873D01*
X118167299Y-93313402D01*
X118167311Y-93313403D01*
X118168050Y-93313582D01*
X118168305Y-93313728D01*
X118171932Y-93314907D01*
X118171684Y-93315668D01*
X118228641Y-93348374D01*
X118260803Y-93410402D01*
X118254325Y-93479970D01*
X118211263Y-93534993D01*
X118158498Y-93556628D01*
X118132293Y-93560778D01*
X117945164Y-93621581D01*
X117769856Y-93710904D01*
X117610678Y-93826555D01*
X117471555Y-93965678D01*
X117355904Y-94124856D01*
X117265485Y-94302315D01*
X117217511Y-94353111D01*
X117149690Y-94369906D01*
X117083555Y-94347369D01*
X117044515Y-94302315D01*
X116954095Y-94124856D01*
X116838444Y-93965678D01*
X116699321Y-93826555D01*
X116540143Y-93710904D01*
X116364835Y-93621581D01*
X116177705Y-93560778D01*
X116151502Y-93556628D01*
X116088367Y-93526699D01*
X116051436Y-93467387D01*
X116052434Y-93397525D01*
X116091044Y-93339292D01*
X116138245Y-93315453D01*
X116138068Y-93314907D01*
X116141602Y-93313758D01*
X116141954Y-93313581D01*
X116142686Y-93313404D01*
X116142701Y-93313402D01*
X116307445Y-93259873D01*
X116461788Y-93181232D01*
X116601928Y-93079414D01*
X116654523Y-93026819D01*
X116715846Y-92993334D01*
X116742204Y-92990500D01*
X117567796Y-92990500D01*
X117634835Y-93010185D01*
G37*
%TD.AperFunction*%
%TA.AperFunction,Conductor*%
G36*
X120137236Y-92999144D02*
G01*
X120167223Y-93005668D01*
X120172238Y-93009422D01*
X120174835Y-93010185D01*
X120195477Y-93026819D01*
X120248072Y-93079414D01*
X120388212Y-93181232D01*
X120542555Y-93259873D01*
X120707299Y-93313402D01*
X120707311Y-93313403D01*
X120708050Y-93313582D01*
X120708305Y-93313728D01*
X120711932Y-93314907D01*
X120711684Y-93315668D01*
X120768641Y-93348374D01*
X120800803Y-93410402D01*
X120794325Y-93479970D01*
X120751263Y-93534993D01*
X120698498Y-93556628D01*
X120672293Y-93560778D01*
X120485164Y-93621581D01*
X120309856Y-93710904D01*
X120150678Y-93826555D01*
X120011555Y-93965678D01*
X119895904Y-94124856D01*
X119805485Y-94302315D01*
X119757511Y-94353111D01*
X119689690Y-94369906D01*
X119623555Y-94347369D01*
X119584515Y-94302315D01*
X119494095Y-94124856D01*
X119378444Y-93965678D01*
X119239321Y-93826555D01*
X119080143Y-93710904D01*
X118904835Y-93621581D01*
X118717705Y-93560778D01*
X118691502Y-93556628D01*
X118628367Y-93526699D01*
X118591436Y-93467387D01*
X118592434Y-93397525D01*
X118631044Y-93339292D01*
X118678245Y-93315453D01*
X118678068Y-93314907D01*
X118681602Y-93313758D01*
X118681954Y-93313581D01*
X118682686Y-93313404D01*
X118682701Y-93313402D01*
X118847445Y-93259873D01*
X119001788Y-93181232D01*
X119141928Y-93079414D01*
X119194523Y-93026819D01*
X119255846Y-92993334D01*
X119282204Y-92990500D01*
X120107796Y-92990500D01*
X120137236Y-92999144D01*
G37*
%TD.AperFunction*%
%TA.AperFunction,Conductor*%
G36*
X122714835Y-93010185D02*
G01*
X122735477Y-93026819D01*
X122788072Y-93079414D01*
X122928212Y-93181232D01*
X123082555Y-93259873D01*
X123247299Y-93313402D01*
X123247311Y-93313403D01*
X123248050Y-93313582D01*
X123248305Y-93313728D01*
X123251932Y-93314907D01*
X123251684Y-93315668D01*
X123308641Y-93348374D01*
X123340803Y-93410402D01*
X123334325Y-93479970D01*
X123291263Y-93534993D01*
X123238498Y-93556628D01*
X123212293Y-93560778D01*
X123025164Y-93621581D01*
X122849856Y-93710904D01*
X122690678Y-93826555D01*
X122551555Y-93965678D01*
X122435904Y-94124856D01*
X122345485Y-94302315D01*
X122297511Y-94353111D01*
X122229690Y-94369906D01*
X122163555Y-94347369D01*
X122124515Y-94302315D01*
X122034095Y-94124856D01*
X121918444Y-93965678D01*
X121779321Y-93826555D01*
X121620143Y-93710904D01*
X121444835Y-93621581D01*
X121257705Y-93560778D01*
X121231502Y-93556628D01*
X121168367Y-93526699D01*
X121131436Y-93467387D01*
X121132434Y-93397525D01*
X121171044Y-93339292D01*
X121218245Y-93315453D01*
X121218068Y-93314907D01*
X121221602Y-93313758D01*
X121221954Y-93313581D01*
X121222686Y-93313404D01*
X121222701Y-93313402D01*
X121387445Y-93259873D01*
X121541788Y-93181232D01*
X121681928Y-93079414D01*
X121734523Y-93026819D01*
X121795846Y-92993334D01*
X121822204Y-92990500D01*
X122647796Y-92990500D01*
X122714835Y-93010185D01*
G37*
%TD.AperFunction*%
%TA.AperFunction,Conductor*%
G36*
X125217236Y-92999144D02*
G01*
X125247223Y-93005668D01*
X125252238Y-93009422D01*
X125254835Y-93010185D01*
X125275477Y-93026819D01*
X125328072Y-93079414D01*
X125468212Y-93181232D01*
X125622555Y-93259873D01*
X125787299Y-93313402D01*
X125787311Y-93313403D01*
X125788050Y-93313582D01*
X125788305Y-93313728D01*
X125791932Y-93314907D01*
X125791684Y-93315668D01*
X125848641Y-93348374D01*
X125880803Y-93410402D01*
X125874325Y-93479970D01*
X125831263Y-93534993D01*
X125778498Y-93556628D01*
X125752293Y-93560778D01*
X125565164Y-93621581D01*
X125389856Y-93710904D01*
X125230678Y-93826555D01*
X125091555Y-93965678D01*
X124975904Y-94124856D01*
X124885485Y-94302315D01*
X124837511Y-94353111D01*
X124769690Y-94369906D01*
X124703555Y-94347369D01*
X124664515Y-94302315D01*
X124574095Y-94124856D01*
X124458444Y-93965678D01*
X124319321Y-93826555D01*
X124160143Y-93710904D01*
X123984835Y-93621581D01*
X123797705Y-93560778D01*
X123771502Y-93556628D01*
X123708367Y-93526699D01*
X123671436Y-93467387D01*
X123672434Y-93397525D01*
X123711044Y-93339292D01*
X123758245Y-93315453D01*
X123758068Y-93314907D01*
X123761602Y-93313758D01*
X123761954Y-93313581D01*
X123762686Y-93313404D01*
X123762701Y-93313402D01*
X123927445Y-93259873D01*
X124081788Y-93181232D01*
X124221928Y-93079414D01*
X124274523Y-93026819D01*
X124335846Y-92993334D01*
X124362204Y-92990500D01*
X125187796Y-92990500D01*
X125217236Y-92999144D01*
G37*
%TD.AperFunction*%
%TA.AperFunction,Conductor*%
G36*
X127794835Y-93010185D02*
G01*
X127815477Y-93026819D01*
X127868072Y-93079414D01*
X128008212Y-93181232D01*
X128162555Y-93259873D01*
X128327299Y-93313402D01*
X128327311Y-93313403D01*
X128328050Y-93313582D01*
X128328305Y-93313728D01*
X128331932Y-93314907D01*
X128331684Y-93315668D01*
X128388641Y-93348374D01*
X128420803Y-93410402D01*
X128414325Y-93479970D01*
X128371263Y-93534993D01*
X128318498Y-93556628D01*
X128292293Y-93560778D01*
X128105164Y-93621581D01*
X127929856Y-93710904D01*
X127770678Y-93826555D01*
X127631555Y-93965678D01*
X127515904Y-94124856D01*
X127425485Y-94302315D01*
X127377511Y-94353111D01*
X127309690Y-94369906D01*
X127243555Y-94347369D01*
X127204515Y-94302315D01*
X127114095Y-94124856D01*
X126998444Y-93965678D01*
X126859321Y-93826555D01*
X126700143Y-93710904D01*
X126524835Y-93621581D01*
X126337705Y-93560778D01*
X126311502Y-93556628D01*
X126248367Y-93526699D01*
X126211436Y-93467387D01*
X126212434Y-93397525D01*
X126251044Y-93339292D01*
X126298245Y-93315453D01*
X126298068Y-93314907D01*
X126301602Y-93313758D01*
X126301954Y-93313581D01*
X126302686Y-93313404D01*
X126302701Y-93313402D01*
X126467445Y-93259873D01*
X126621788Y-93181232D01*
X126761928Y-93079414D01*
X126814523Y-93026819D01*
X126875846Y-92993334D01*
X126902204Y-92990500D01*
X127727796Y-92990500D01*
X127794835Y-93010185D01*
G37*
%TD.AperFunction*%
%TA.AperFunction,Conductor*%
G36*
X130297236Y-92999144D02*
G01*
X130327223Y-93005668D01*
X130332238Y-93009422D01*
X130334835Y-93010185D01*
X130355477Y-93026819D01*
X130408072Y-93079414D01*
X130548212Y-93181232D01*
X130702555Y-93259873D01*
X130867299Y-93313402D01*
X130867311Y-93313403D01*
X130868050Y-93313582D01*
X130868305Y-93313728D01*
X130871932Y-93314907D01*
X130871684Y-93315668D01*
X130928641Y-93348374D01*
X130960803Y-93410402D01*
X130954325Y-93479970D01*
X130911263Y-93534993D01*
X130858498Y-93556628D01*
X130832293Y-93560778D01*
X130645164Y-93621581D01*
X130469856Y-93710904D01*
X130310678Y-93826555D01*
X130171555Y-93965678D01*
X130055904Y-94124856D01*
X129965485Y-94302315D01*
X129917511Y-94353111D01*
X129849690Y-94369906D01*
X129783555Y-94347369D01*
X129744515Y-94302315D01*
X129654095Y-94124856D01*
X129538444Y-93965678D01*
X129399321Y-93826555D01*
X129240143Y-93710904D01*
X129064835Y-93621581D01*
X128877705Y-93560778D01*
X128851502Y-93556628D01*
X128788367Y-93526699D01*
X128751436Y-93467387D01*
X128752434Y-93397525D01*
X128791044Y-93339292D01*
X128838245Y-93315453D01*
X128838068Y-93314907D01*
X128841602Y-93313758D01*
X128841954Y-93313581D01*
X128842686Y-93313404D01*
X128842701Y-93313402D01*
X129007445Y-93259873D01*
X129161788Y-93181232D01*
X129301928Y-93079414D01*
X129354523Y-93026819D01*
X129415846Y-92993334D01*
X129442204Y-92990500D01*
X130267796Y-92990500D01*
X130297236Y-92999144D01*
G37*
%TD.AperFunction*%
%TA.AperFunction,Conductor*%
G36*
X132874835Y-93010185D02*
G01*
X132895477Y-93026819D01*
X132948072Y-93079414D01*
X133088212Y-93181232D01*
X133242555Y-93259873D01*
X133407299Y-93313402D01*
X133407311Y-93313403D01*
X133408050Y-93313582D01*
X133408305Y-93313728D01*
X133411932Y-93314907D01*
X133411684Y-93315668D01*
X133468641Y-93348374D01*
X133500803Y-93410402D01*
X133494325Y-93479970D01*
X133451263Y-93534993D01*
X133398498Y-93556628D01*
X133372293Y-93560778D01*
X133185164Y-93621581D01*
X133009856Y-93710904D01*
X132850678Y-93826555D01*
X132711555Y-93965678D01*
X132595904Y-94124856D01*
X132505485Y-94302315D01*
X132457511Y-94353111D01*
X132389690Y-94369906D01*
X132323555Y-94347369D01*
X132284515Y-94302315D01*
X132194095Y-94124856D01*
X132078444Y-93965678D01*
X131939321Y-93826555D01*
X131780143Y-93710904D01*
X131604835Y-93621581D01*
X131417705Y-93560778D01*
X131391502Y-93556628D01*
X131328367Y-93526699D01*
X131291436Y-93467387D01*
X131292434Y-93397525D01*
X131331044Y-93339292D01*
X131378245Y-93315453D01*
X131378068Y-93314907D01*
X131381602Y-93313758D01*
X131381954Y-93313581D01*
X131382686Y-93313404D01*
X131382701Y-93313402D01*
X131547445Y-93259873D01*
X131701788Y-93181232D01*
X131841928Y-93079414D01*
X131894523Y-93026819D01*
X131955846Y-92993334D01*
X131982204Y-92990500D01*
X132807796Y-92990500D01*
X132874835Y-93010185D01*
G37*
%TD.AperFunction*%
%TA.AperFunction,Conductor*%
G36*
X135377236Y-92999144D02*
G01*
X135407223Y-93005668D01*
X135412238Y-93009422D01*
X135414835Y-93010185D01*
X135435477Y-93026819D01*
X135488072Y-93079414D01*
X135628212Y-93181232D01*
X135782555Y-93259873D01*
X135947299Y-93313402D01*
X135947311Y-93313403D01*
X135948050Y-93313582D01*
X135948305Y-93313728D01*
X135951932Y-93314907D01*
X135951684Y-93315668D01*
X136008641Y-93348374D01*
X136040803Y-93410402D01*
X136034325Y-93479970D01*
X135991263Y-93534993D01*
X135938498Y-93556628D01*
X135912293Y-93560778D01*
X135725164Y-93621581D01*
X135549856Y-93710904D01*
X135390678Y-93826555D01*
X135251555Y-93965678D01*
X135135904Y-94124856D01*
X135045485Y-94302315D01*
X134997511Y-94353111D01*
X134929690Y-94369906D01*
X134863555Y-94347369D01*
X134824515Y-94302315D01*
X134734095Y-94124856D01*
X134618444Y-93965678D01*
X134479321Y-93826555D01*
X134320143Y-93710904D01*
X134144835Y-93621581D01*
X133957705Y-93560778D01*
X133931502Y-93556628D01*
X133868367Y-93526699D01*
X133831436Y-93467387D01*
X133832434Y-93397525D01*
X133871044Y-93339292D01*
X133918245Y-93315453D01*
X133918068Y-93314907D01*
X133921602Y-93313758D01*
X133921954Y-93313581D01*
X133922686Y-93313404D01*
X133922701Y-93313402D01*
X134087445Y-93259873D01*
X134241788Y-93181232D01*
X134381928Y-93079414D01*
X134434523Y-93026819D01*
X134495846Y-92993334D01*
X134522204Y-92990500D01*
X135347796Y-92990500D01*
X135377236Y-92999144D01*
G37*
%TD.AperFunction*%
%TA.AperFunction,Conductor*%
G36*
X137954835Y-93010185D02*
G01*
X137975477Y-93026819D01*
X138028072Y-93079414D01*
X138168212Y-93181232D01*
X138322555Y-93259873D01*
X138487299Y-93313402D01*
X138487311Y-93313403D01*
X138488050Y-93313582D01*
X138488305Y-93313728D01*
X138491932Y-93314907D01*
X138491684Y-93315668D01*
X138548641Y-93348374D01*
X138580803Y-93410402D01*
X138574325Y-93479970D01*
X138531263Y-93534993D01*
X138478498Y-93556628D01*
X138452293Y-93560778D01*
X138265164Y-93621581D01*
X138089856Y-93710904D01*
X137930678Y-93826555D01*
X137791555Y-93965678D01*
X137675904Y-94124856D01*
X137585485Y-94302315D01*
X137537511Y-94353111D01*
X137469690Y-94369906D01*
X137403555Y-94347369D01*
X137364515Y-94302315D01*
X137274095Y-94124856D01*
X137158444Y-93965678D01*
X137019321Y-93826555D01*
X136860143Y-93710904D01*
X136684835Y-93621581D01*
X136497705Y-93560778D01*
X136471502Y-93556628D01*
X136408367Y-93526699D01*
X136371436Y-93467387D01*
X136372434Y-93397525D01*
X136411044Y-93339292D01*
X136458245Y-93315453D01*
X136458068Y-93314907D01*
X136461602Y-93313758D01*
X136461954Y-93313581D01*
X136462686Y-93313404D01*
X136462701Y-93313402D01*
X136627445Y-93259873D01*
X136781788Y-93181232D01*
X136921928Y-93079414D01*
X136974523Y-93026819D01*
X137035846Y-92993334D01*
X137062204Y-92990500D01*
X137887796Y-92990500D01*
X137954835Y-93010185D01*
G37*
%TD.AperFunction*%
%TA.AperFunction,Conductor*%
G36*
X140457236Y-92999144D02*
G01*
X140487223Y-93005668D01*
X140492238Y-93009422D01*
X140494835Y-93010185D01*
X140515477Y-93026819D01*
X140568072Y-93079414D01*
X140708212Y-93181232D01*
X140862555Y-93259873D01*
X141027299Y-93313402D01*
X141027311Y-93313403D01*
X141028050Y-93313582D01*
X141028305Y-93313728D01*
X141031932Y-93314907D01*
X141031684Y-93315668D01*
X141088641Y-93348374D01*
X141120803Y-93410402D01*
X141114325Y-93479970D01*
X141071263Y-93534993D01*
X141018498Y-93556628D01*
X140992293Y-93560778D01*
X140805164Y-93621581D01*
X140629856Y-93710904D01*
X140470678Y-93826555D01*
X140331555Y-93965678D01*
X140215904Y-94124856D01*
X140125485Y-94302315D01*
X140077511Y-94353111D01*
X140009690Y-94369906D01*
X139943555Y-94347369D01*
X139904515Y-94302315D01*
X139814095Y-94124856D01*
X139698444Y-93965678D01*
X139559321Y-93826555D01*
X139400143Y-93710904D01*
X139224835Y-93621581D01*
X139037705Y-93560778D01*
X139011502Y-93556628D01*
X138948367Y-93526699D01*
X138911436Y-93467387D01*
X138912434Y-93397525D01*
X138951044Y-93339292D01*
X138998245Y-93315453D01*
X138998068Y-93314907D01*
X139001602Y-93313758D01*
X139001954Y-93313581D01*
X139002686Y-93313404D01*
X139002701Y-93313402D01*
X139167445Y-93259873D01*
X139321788Y-93181232D01*
X139461928Y-93079414D01*
X139514523Y-93026819D01*
X139575846Y-92993334D01*
X139602204Y-92990500D01*
X140427796Y-92990500D01*
X140457236Y-92999144D01*
G37*
%TD.AperFunction*%
%TA.AperFunction,Conductor*%
G36*
X143034835Y-93010185D02*
G01*
X143055477Y-93026819D01*
X143108072Y-93079414D01*
X143248212Y-93181232D01*
X143402555Y-93259873D01*
X143567299Y-93313402D01*
X143567311Y-93313403D01*
X143568050Y-93313582D01*
X143568305Y-93313728D01*
X143571932Y-93314907D01*
X143571684Y-93315668D01*
X143628641Y-93348374D01*
X143660803Y-93410402D01*
X143654325Y-93479970D01*
X143611263Y-93534993D01*
X143558498Y-93556628D01*
X143532293Y-93560778D01*
X143345164Y-93621581D01*
X143169856Y-93710904D01*
X143010678Y-93826555D01*
X142871555Y-93965678D01*
X142755904Y-94124856D01*
X142665485Y-94302315D01*
X142617511Y-94353111D01*
X142549690Y-94369906D01*
X142483555Y-94347369D01*
X142444515Y-94302315D01*
X142354095Y-94124856D01*
X142238444Y-93965678D01*
X142099321Y-93826555D01*
X141940143Y-93710904D01*
X141764835Y-93621581D01*
X141577705Y-93560778D01*
X141551502Y-93556628D01*
X141488367Y-93526699D01*
X141451436Y-93467387D01*
X141452434Y-93397525D01*
X141491044Y-93339292D01*
X141538245Y-93315453D01*
X141538068Y-93314907D01*
X141541602Y-93313758D01*
X141541954Y-93313581D01*
X141542686Y-93313404D01*
X141542701Y-93313402D01*
X141707445Y-93259873D01*
X141861788Y-93181232D01*
X142001928Y-93079414D01*
X142054523Y-93026819D01*
X142115846Y-92993334D01*
X142142204Y-92990500D01*
X142967796Y-92990500D01*
X143034835Y-93010185D01*
G37*
%TD.AperFunction*%
%TA.AperFunction,Conductor*%
G36*
X145537236Y-92999144D02*
G01*
X145567223Y-93005668D01*
X145572238Y-93009422D01*
X145574835Y-93010185D01*
X145595477Y-93026819D01*
X145648072Y-93079414D01*
X145788212Y-93181232D01*
X145942555Y-93259873D01*
X146107299Y-93313402D01*
X146107311Y-93313403D01*
X146108050Y-93313582D01*
X146108305Y-93313728D01*
X146111932Y-93314907D01*
X146111684Y-93315668D01*
X146168641Y-93348374D01*
X146200803Y-93410402D01*
X146194325Y-93479970D01*
X146151263Y-93534993D01*
X146098498Y-93556628D01*
X146072293Y-93560778D01*
X145885164Y-93621581D01*
X145709856Y-93710904D01*
X145550678Y-93826555D01*
X145411555Y-93965678D01*
X145295904Y-94124856D01*
X145205485Y-94302315D01*
X145157511Y-94353111D01*
X145089690Y-94369906D01*
X145023555Y-94347369D01*
X144984515Y-94302315D01*
X144894095Y-94124856D01*
X144778444Y-93965678D01*
X144639321Y-93826555D01*
X144480143Y-93710904D01*
X144304835Y-93621581D01*
X144117705Y-93560778D01*
X144091502Y-93556628D01*
X144028367Y-93526699D01*
X143991436Y-93467387D01*
X143992434Y-93397525D01*
X144031044Y-93339292D01*
X144078245Y-93315453D01*
X144078068Y-93314907D01*
X144081602Y-93313758D01*
X144081954Y-93313581D01*
X144082686Y-93313404D01*
X144082701Y-93313402D01*
X144247445Y-93259873D01*
X144401788Y-93181232D01*
X144541928Y-93079414D01*
X144594523Y-93026819D01*
X144655846Y-92993334D01*
X144682204Y-92990500D01*
X145507796Y-92990500D01*
X145537236Y-92999144D01*
G37*
%TD.AperFunction*%
%TA.AperFunction,Conductor*%
G36*
X136833039Y-53020185D02*
G01*
X136878794Y-53072989D01*
X136890000Y-53124500D01*
X136890000Y-53625000D01*
X137706988Y-53625000D01*
X137674075Y-53682007D01*
X137640000Y-53809174D01*
X137640000Y-53940826D01*
X137674075Y-54067993D01*
X137706988Y-54125000D01*
X136890001Y-54125000D01*
X136890001Y-54756479D01*
X136904835Y-54850149D01*
X136904837Y-54850155D01*
X136962356Y-54963041D01*
X136962363Y-54963050D01*
X137051949Y-55052636D01*
X137051953Y-55052639D01*
X137164855Y-55110166D01*
X137258514Y-55124999D01*
X137766016Y-55124999D01*
X137833055Y-55144683D01*
X137878810Y-55197487D01*
X137888754Y-55266646D01*
X137859729Y-55330202D01*
X137804335Y-55366930D01*
X137717550Y-55395128D01*
X137563211Y-55473768D01*
X137483256Y-55531859D01*
X137423072Y-55575586D01*
X137423070Y-55575588D01*
X137423069Y-55575588D01*
X137300588Y-55698069D01*
X137300588Y-55698070D01*
X137300586Y-55698072D01*
X137265273Y-55746676D01*
X137198768Y-55838211D01*
X137120128Y-55992552D01*
X137066597Y-56157302D01*
X137042425Y-56309923D01*
X137039500Y-56328389D01*
X137039500Y-56501611D01*
X137066598Y-56672701D01*
X137120127Y-56837445D01*
X137198768Y-56991788D01*
X137300586Y-57131928D01*
X137423072Y-57254414D01*
X137563212Y-57356232D01*
X137717555Y-57434873D01*
X137882299Y-57488402D01*
X138053389Y-57515500D01*
X138053390Y-57515500D01*
X138226610Y-57515500D01*
X138226611Y-57515500D01*
X138397701Y-57488402D01*
X138562445Y-57434873D01*
X138716788Y-57356232D01*
X138856928Y-57254414D01*
X138913369Y-57197973D01*
X142079500Y-57197973D01*
X142079500Y-57442027D01*
X142117679Y-57683076D01*
X142134339Y-57734351D01*
X142193097Y-57915187D01*
X142303896Y-58132642D01*
X142447339Y-58330076D01*
X142447343Y-58330081D01*
X142619918Y-58502656D01*
X142619923Y-58502660D01*
X142792136Y-58627779D01*
X142817361Y-58646106D01*
X143034815Y-58756904D01*
X143266924Y-58832321D01*
X143507973Y-58870500D01*
X143507974Y-58870500D01*
X143752026Y-58870500D01*
X143752027Y-58870500D01*
X143993076Y-58832321D01*
X144225185Y-58756904D01*
X144442639Y-58646106D01*
X144640083Y-58502655D01*
X144812655Y-58330083D01*
X144956106Y-58132639D01*
X145066904Y-57915185D01*
X145142321Y-57683076D01*
X145180500Y-57442027D01*
X145180500Y-57197973D01*
X145142321Y-56956924D01*
X145066904Y-56724815D01*
X144956106Y-56507361D01*
X144924278Y-56463553D01*
X144812660Y-56309923D01*
X144812656Y-56309918D01*
X144640081Y-56137343D01*
X144640076Y-56137339D01*
X144566613Y-56083965D01*
X144442642Y-55993896D01*
X144442641Y-55993895D01*
X144442639Y-55993894D01*
X144432078Y-55988513D01*
X146930000Y-55988513D01*
X146930000Y-57070000D01*
X148029999Y-57070000D01*
X148004979Y-57130402D01*
X147980000Y-57255981D01*
X147980000Y-57384019D01*
X148004979Y-57509598D01*
X148029999Y-57570000D01*
X146930001Y-57570000D01*
X146930001Y-58651479D01*
X146944835Y-58745149D01*
X146944837Y-58745155D01*
X147002356Y-58858041D01*
X147002363Y-58858050D01*
X147091949Y-58947636D01*
X147091953Y-58947639D01*
X147204855Y-59005166D01*
X147298514Y-59019999D01*
X148379999Y-59019999D01*
X148380000Y-59019998D01*
X148380000Y-57920001D01*
X148440402Y-57945021D01*
X148565981Y-57970000D01*
X148694019Y-57970000D01*
X148819598Y-57945021D01*
X148880000Y-57920001D01*
X148880000Y-59019999D01*
X149961479Y-59019999D01*
X150055149Y-59005164D01*
X150055155Y-59005162D01*
X150168041Y-58947643D01*
X150168050Y-58947636D01*
X150257636Y-58858050D01*
X150257639Y-58858046D01*
X150315166Y-58745144D01*
X150330000Y-58651486D01*
X150330000Y-57570000D01*
X149230001Y-57570000D01*
X149255021Y-57509598D01*
X149280000Y-57384019D01*
X149280000Y-57255981D01*
X149255021Y-57130402D01*
X149230001Y-57070000D01*
X150329999Y-57070000D01*
X150329999Y-55988520D01*
X150315164Y-55894850D01*
X150315162Y-55894844D01*
X150257643Y-55781958D01*
X150257636Y-55781949D01*
X150168050Y-55692363D01*
X150168046Y-55692360D01*
X150055144Y-55634833D01*
X149961486Y-55620000D01*
X148880000Y-55620000D01*
X148880000Y-56719998D01*
X148819598Y-56694979D01*
X148694019Y-56670000D01*
X148565981Y-56670000D01*
X148440402Y-56694979D01*
X148380000Y-56719998D01*
X148380000Y-55620000D01*
X147298520Y-55620000D01*
X147204850Y-55634835D01*
X147204844Y-55634837D01*
X147091958Y-55692356D01*
X147091949Y-55692363D01*
X147002363Y-55781949D01*
X147002360Y-55781953D01*
X146944833Y-55894855D01*
X146930000Y-55988513D01*
X144432078Y-55988513D01*
X144225185Y-55883096D01*
X143993076Y-55807679D01*
X143993074Y-55807678D01*
X143993072Y-55807678D01*
X143824769Y-55781021D01*
X143752027Y-55769500D01*
X143507973Y-55769500D01*
X143452093Y-55778350D01*
X143266927Y-55807678D01*
X143034812Y-55883097D01*
X142817357Y-55993896D01*
X142619923Y-56137339D01*
X142619918Y-56137343D01*
X142447343Y-56309918D01*
X142447339Y-56309923D01*
X142303896Y-56507357D01*
X142193097Y-56724812D01*
X142117678Y-56956927D01*
X142089960Y-57131930D01*
X142079500Y-57197973D01*
X138913369Y-57197973D01*
X138979414Y-57131928D01*
X139081232Y-56991788D01*
X139159873Y-56837445D01*
X139213402Y-56672701D01*
X139240500Y-56501611D01*
X139240500Y-56328389D01*
X139213402Y-56157299D01*
X139159873Y-55992555D01*
X139081232Y-55838212D01*
X138979414Y-55698072D01*
X138856928Y-55575586D01*
X138716788Y-55473768D01*
X138562445Y-55395127D01*
X138475661Y-55366929D01*
X138417988Y-55327492D01*
X138390790Y-55263133D01*
X138402705Y-55194287D01*
X138449949Y-55142811D01*
X138513982Y-55124999D01*
X139021479Y-55124999D01*
X139115149Y-55110164D01*
X139115155Y-55110162D01*
X139228041Y-55052643D01*
X139228050Y-55052636D01*
X139317636Y-54963050D01*
X139317639Y-54963046D01*
X139358984Y-54881902D01*
X155499500Y-54881902D01*
X155499500Y-55118097D01*
X155536446Y-55351368D01*
X155609433Y-55575996D01*
X155674530Y-55703754D01*
X155716657Y-55786433D01*
X155855483Y-55977510D01*
X156022490Y-56144517D01*
X156213567Y-56283343D01*
X156301975Y-56328389D01*
X156424003Y-56390566D01*
X156424005Y-56390566D01*
X156424008Y-56390568D01*
X156544412Y-56429689D01*
X156648631Y-56463553D01*
X156881903Y-56500500D01*
X156881908Y-56500500D01*
X157118097Y-56500500D01*
X157351368Y-56463553D01*
X157575992Y-56390568D01*
X157786433Y-56283343D01*
X157977510Y-56144517D01*
X158144517Y-55977510D01*
X158283343Y-55786433D01*
X158390568Y-55575992D01*
X158463553Y-55351368D01*
X158467335Y-55327492D01*
X158500500Y-55118097D01*
X158500500Y-54881902D01*
X158463553Y-54648631D01*
X158390566Y-54424003D01*
X158294174Y-54234824D01*
X158283343Y-54213567D01*
X158144517Y-54022490D01*
X157977510Y-53855483D01*
X157786433Y-53716657D01*
X157718429Y-53682007D01*
X157575996Y-53609433D01*
X157351368Y-53536446D01*
X157118097Y-53499500D01*
X157118092Y-53499500D01*
X156881908Y-53499500D01*
X156881903Y-53499500D01*
X156648631Y-53536446D01*
X156424003Y-53609433D01*
X156213566Y-53716657D01*
X156198893Y-53727318D01*
X156022490Y-53855483D01*
X156022488Y-53855485D01*
X156022487Y-53855485D01*
X155855485Y-54022487D01*
X155855485Y-54022488D01*
X155855483Y-54022490D01*
X155798980Y-54100260D01*
X155716657Y-54213566D01*
X155609433Y-54424003D01*
X155536446Y-54648631D01*
X155499500Y-54881902D01*
X139358984Y-54881902D01*
X139375165Y-54850144D01*
X139390000Y-54756486D01*
X139390000Y-54125000D01*
X138573012Y-54125000D01*
X138605925Y-54067993D01*
X138640000Y-53940826D01*
X138640000Y-53809174D01*
X138605925Y-53682007D01*
X138573012Y-53625000D01*
X139389999Y-53625000D01*
X139389999Y-53124500D01*
X139409684Y-53057461D01*
X139462488Y-53011706D01*
X139513999Y-53000500D01*
X156907290Y-53000500D01*
X156995933Y-53000500D01*
X157004043Y-53000765D01*
X157252895Y-53017075D01*
X157268953Y-53019190D01*
X157461353Y-53057461D01*
X157509535Y-53067045D01*
X157525202Y-53071243D01*
X157682093Y-53124500D01*
X157757481Y-53150091D01*
X157772458Y-53156294D01*
X157981799Y-53259529D01*
X157992460Y-53264787D01*
X158006508Y-53272897D01*
X158210464Y-53409177D01*
X158223328Y-53419048D01*
X158407749Y-53580781D01*
X158419218Y-53592250D01*
X158537669Y-53727318D01*
X158580951Y-53776671D01*
X158590825Y-53789539D01*
X158727102Y-53993492D01*
X158735212Y-54007539D01*
X158843702Y-54227534D01*
X158849909Y-54242520D01*
X158928756Y-54474797D01*
X158932954Y-54490464D01*
X158980807Y-54731035D01*
X158982925Y-54747116D01*
X158999235Y-54995956D01*
X158999500Y-55004066D01*
X158999500Y-119995933D01*
X158999235Y-120004043D01*
X158982925Y-120252883D01*
X158980807Y-120268964D01*
X158932954Y-120509535D01*
X158928756Y-120525202D01*
X158849909Y-120757479D01*
X158843702Y-120772465D01*
X158735212Y-120992460D01*
X158727102Y-121006506D01*
X158590825Y-121210460D01*
X158580952Y-121223328D01*
X158580951Y-121223329D01*
X158419218Y-121407749D01*
X158407749Y-121419218D01*
X158223328Y-121580951D01*
X158210460Y-121590825D01*
X158006507Y-121727102D01*
X157992460Y-121735212D01*
X157772464Y-121843702D01*
X157757478Y-121849909D01*
X157525201Y-121928756D01*
X157509535Y-121932954D01*
X157268965Y-121980807D01*
X157252883Y-121982925D01*
X157004057Y-121999234D01*
X156995947Y-121999499D01*
X156901175Y-121999499D01*
X156901155Y-121999500D01*
X152919532Y-121999500D01*
X152852493Y-121979815D01*
X152806738Y-121927011D01*
X152806252Y-121925935D01*
X152771240Y-121847297D01*
X152677134Y-121635932D01*
X152677131Y-121635928D01*
X152677130Y-121635924D01*
X152519887Y-121363571D01*
X152519884Y-121363566D01*
X152335032Y-121109139D01*
X152335025Y-121109130D01*
X152216513Y-120977510D01*
X152124586Y-120875414D01*
X151993606Y-120757479D01*
X151890869Y-120664974D01*
X151890860Y-120664967D01*
X151636433Y-120480115D01*
X151636428Y-120480112D01*
X151364075Y-120322869D01*
X151364068Y-120322866D01*
X151243005Y-120268965D01*
X151076759Y-120194947D01*
X151076754Y-120194945D01*
X151076751Y-120194944D01*
X150777649Y-120097761D01*
X150777647Y-120097760D01*
X150512415Y-120041384D01*
X150470026Y-120032374D01*
X150157250Y-119999500D01*
X150098541Y-119999500D01*
X110092710Y-119999500D01*
X110000000Y-119999500D01*
X109842750Y-119999500D01*
X109529974Y-120032374D01*
X109529970Y-120032374D01*
X109529968Y-120032375D01*
X109222352Y-120097760D01*
X109222350Y-120097761D01*
X108923248Y-120194944D01*
X108635931Y-120322866D01*
X108635924Y-120322869D01*
X108363571Y-120480112D01*
X108363566Y-120480115D01*
X108109139Y-120664967D01*
X108109130Y-120664974D01*
X107875414Y-120875414D01*
X107664974Y-121109130D01*
X107664967Y-121109139D01*
X107480115Y-121363566D01*
X107480112Y-121363571D01*
X107322869Y-121635924D01*
X107322866Y-121635931D01*
X107193748Y-121925935D01*
X107148497Y-121979173D01*
X107081648Y-121999494D01*
X107080468Y-121999500D01*
X103004067Y-121999500D01*
X102995957Y-121999235D01*
X102747116Y-121982925D01*
X102731035Y-121980807D01*
X102490464Y-121932954D01*
X102474797Y-121928756D01*
X102242520Y-121849909D01*
X102227534Y-121843702D01*
X102007539Y-121735212D01*
X101993493Y-121727102D01*
X101789539Y-121590825D01*
X101776670Y-121580951D01*
X101592250Y-121419218D01*
X101580781Y-121407749D01*
X101462331Y-121272683D01*
X101419045Y-121223325D01*
X101409174Y-121210460D01*
X101365112Y-121144517D01*
X101272896Y-121006506D01*
X101264787Y-120992460D01*
X101257415Y-120977511D01*
X101156294Y-120772457D01*
X101150091Y-120757480D01*
X101080776Y-120553285D01*
X101071243Y-120525201D01*
X101067045Y-120509535D01*
X101061193Y-120480115D01*
X101019190Y-120268953D01*
X101017075Y-120252895D01*
X101000765Y-120004042D01*
X101000500Y-119995932D01*
X101000500Y-119881902D01*
X101499500Y-119881902D01*
X101499500Y-120118097D01*
X101536446Y-120351368D01*
X101609433Y-120575996D01*
X101705826Y-120765176D01*
X101716657Y-120786433D01*
X101855483Y-120977510D01*
X102022490Y-121144517D01*
X102213567Y-121283343D01*
X102312991Y-121334002D01*
X102424003Y-121390566D01*
X102424005Y-121390566D01*
X102424008Y-121390568D01*
X102544412Y-121429689D01*
X102648631Y-121463553D01*
X102881903Y-121500500D01*
X102881908Y-121500500D01*
X103118097Y-121500500D01*
X103351368Y-121463553D01*
X103575992Y-121390568D01*
X103786433Y-121283343D01*
X103977510Y-121144517D01*
X104144517Y-120977510D01*
X104283343Y-120786433D01*
X104390568Y-120575992D01*
X104463553Y-120351368D01*
X104468067Y-120322866D01*
X104500500Y-120118097D01*
X104500500Y-119881902D01*
X155499500Y-119881902D01*
X155499500Y-120118097D01*
X155536446Y-120351368D01*
X155609433Y-120575996D01*
X155705826Y-120765176D01*
X155716657Y-120786433D01*
X155855483Y-120977510D01*
X156022490Y-121144517D01*
X156213567Y-121283343D01*
X156312991Y-121334002D01*
X156424003Y-121390566D01*
X156424005Y-121390566D01*
X156424008Y-121390568D01*
X156544412Y-121429689D01*
X156648631Y-121463553D01*
X156881903Y-121500500D01*
X156881908Y-121500500D01*
X157118097Y-121500500D01*
X157351368Y-121463553D01*
X157575992Y-121390568D01*
X157786433Y-121283343D01*
X157977510Y-121144517D01*
X158144517Y-120977510D01*
X158283343Y-120786433D01*
X158390568Y-120575992D01*
X158463553Y-120351368D01*
X158468067Y-120322866D01*
X158500500Y-120118097D01*
X158500500Y-119881902D01*
X158463553Y-119648631D01*
X158390566Y-119424003D01*
X158283342Y-119213566D01*
X158144517Y-119022490D01*
X157977510Y-118855483D01*
X157786433Y-118716657D01*
X157575996Y-118609433D01*
X157351368Y-118536446D01*
X157118097Y-118499500D01*
X157118092Y-118499500D01*
X156881908Y-118499500D01*
X156881903Y-118499500D01*
X156648631Y-118536446D01*
X156424003Y-118609433D01*
X156213566Y-118716657D01*
X156104550Y-118795862D01*
X156022490Y-118855483D01*
X156022488Y-118855485D01*
X156022487Y-118855485D01*
X155855485Y-119022487D01*
X155855485Y-119022488D01*
X155855483Y-119022490D01*
X155795862Y-119104550D01*
X155716657Y-119213566D01*
X155609433Y-119424003D01*
X155536446Y-119648631D01*
X155499500Y-119881902D01*
X104500500Y-119881902D01*
X104463553Y-119648631D01*
X104390566Y-119424003D01*
X104283342Y-119213566D01*
X104144517Y-119022490D01*
X103977510Y-118855483D01*
X103786433Y-118716657D01*
X103575996Y-118609433D01*
X103351368Y-118536446D01*
X103118097Y-118499500D01*
X103118092Y-118499500D01*
X102881908Y-118499500D01*
X102881903Y-118499500D01*
X102648631Y-118536446D01*
X102424003Y-118609433D01*
X102213566Y-118716657D01*
X102104550Y-118795862D01*
X102022490Y-118855483D01*
X102022488Y-118855485D01*
X102022487Y-118855485D01*
X101855485Y-119022487D01*
X101855485Y-119022488D01*
X101855483Y-119022490D01*
X101795862Y-119104550D01*
X101716657Y-119213566D01*
X101609433Y-119424003D01*
X101536446Y-119648631D01*
X101499500Y-119881902D01*
X101000500Y-119881902D01*
X101000500Y-114695321D01*
X110079500Y-114695321D01*
X110079500Y-117344678D01*
X110094032Y-117417735D01*
X110094033Y-117417739D01*
X110094034Y-117417740D01*
X110149399Y-117500601D01*
X110232260Y-117555966D01*
X110232264Y-117555967D01*
X110305321Y-117570499D01*
X110305324Y-117570500D01*
X110305326Y-117570500D01*
X112954676Y-117570500D01*
X112954677Y-117570499D01*
X113027740Y-117555966D01*
X113110601Y-117500601D01*
X113165966Y-117417740D01*
X113180500Y-117344674D01*
X113180500Y-115897973D01*
X115079500Y-115897973D01*
X115079500Y-116142026D01*
X115117678Y-116383072D01*
X115193097Y-116615187D01*
X115303896Y-116832642D01*
X115447339Y-117030076D01*
X115447343Y-117030081D01*
X115619918Y-117202656D01*
X115619923Y-117202660D01*
X115792136Y-117327779D01*
X115817361Y-117346106D01*
X116034815Y-117456904D01*
X116266924Y-117532321D01*
X116507973Y-117570500D01*
X116507974Y-117570500D01*
X116752026Y-117570500D01*
X116752027Y-117570500D01*
X116993076Y-117532321D01*
X117225185Y-117456904D01*
X117442639Y-117346106D01*
X117640083Y-117202655D01*
X117812655Y-117030083D01*
X117956106Y-116832639D01*
X118066904Y-116615185D01*
X118142321Y-116383076D01*
X118180500Y-116142027D01*
X118180500Y-115897973D01*
X120079500Y-115897973D01*
X120079500Y-116142026D01*
X120117678Y-116383072D01*
X120193097Y-116615187D01*
X120303896Y-116832642D01*
X120447339Y-117030076D01*
X120447343Y-117030081D01*
X120619918Y-117202656D01*
X120619923Y-117202660D01*
X120792136Y-117327779D01*
X120817361Y-117346106D01*
X121034815Y-117456904D01*
X121266924Y-117532321D01*
X121507973Y-117570500D01*
X121507974Y-117570500D01*
X121752026Y-117570500D01*
X121752027Y-117570500D01*
X121993076Y-117532321D01*
X122225185Y-117456904D01*
X122442639Y-117346106D01*
X122640083Y-117202655D01*
X122812655Y-117030083D01*
X122956106Y-116832639D01*
X123066904Y-116615185D01*
X123142321Y-116383076D01*
X123180500Y-116142027D01*
X123180500Y-115897973D01*
X125079500Y-115897973D01*
X125079500Y-116142026D01*
X125117678Y-116383072D01*
X125193097Y-116615187D01*
X125303896Y-116832642D01*
X125447339Y-117030076D01*
X125447343Y-117030081D01*
X125619918Y-117202656D01*
X125619923Y-117202660D01*
X125792136Y-117327779D01*
X125817361Y-117346106D01*
X126034815Y-117456904D01*
X126266924Y-117532321D01*
X126507973Y-117570500D01*
X126507974Y-117570500D01*
X126752026Y-117570500D01*
X126752027Y-117570500D01*
X126993076Y-117532321D01*
X127225185Y-117456904D01*
X127442639Y-117346106D01*
X127640083Y-117202655D01*
X127812655Y-117030083D01*
X127956106Y-116832639D01*
X128066904Y-116615185D01*
X128142321Y-116383076D01*
X128180500Y-116142027D01*
X128180500Y-115897973D01*
X128142321Y-115656924D01*
X128066904Y-115424815D01*
X127956106Y-115207361D01*
X127937779Y-115182136D01*
X127812660Y-115009923D01*
X127812656Y-115009918D01*
X127640081Y-114837343D01*
X127640076Y-114837339D01*
X127574303Y-114789552D01*
X127444604Y-114695321D01*
X131819500Y-114695321D01*
X131819500Y-117344678D01*
X131834032Y-117417735D01*
X131834033Y-117417739D01*
X131834034Y-117417740D01*
X131889399Y-117500601D01*
X131972260Y-117555966D01*
X131972264Y-117555967D01*
X132045321Y-117570499D01*
X132045324Y-117570500D01*
X132045326Y-117570500D01*
X134694676Y-117570500D01*
X134694677Y-117570499D01*
X134767740Y-117555966D01*
X134850601Y-117500601D01*
X134905966Y-117417740D01*
X134920500Y-117344674D01*
X134920500Y-115897973D01*
X136819500Y-115897973D01*
X136819500Y-116142026D01*
X136857678Y-116383072D01*
X136933097Y-116615187D01*
X137043896Y-116832642D01*
X137187339Y-117030076D01*
X137187343Y-117030081D01*
X137359918Y-117202656D01*
X137359923Y-117202660D01*
X137532136Y-117327779D01*
X137557361Y-117346106D01*
X137774815Y-117456904D01*
X138006924Y-117532321D01*
X138247973Y-117570500D01*
X138247974Y-117570500D01*
X138492026Y-117570500D01*
X138492027Y-117570500D01*
X138733076Y-117532321D01*
X138965185Y-117456904D01*
X139182639Y-117346106D01*
X139380083Y-117202655D01*
X139552655Y-117030083D01*
X139696106Y-116832639D01*
X139806904Y-116615185D01*
X139882321Y-116383076D01*
X139920500Y-116142027D01*
X139920500Y-115897973D01*
X141819500Y-115897973D01*
X141819500Y-116142026D01*
X141857678Y-116383072D01*
X141933097Y-116615187D01*
X142043896Y-116832642D01*
X142187339Y-117030076D01*
X142187343Y-117030081D01*
X142359918Y-117202656D01*
X142359923Y-117202660D01*
X142532136Y-117327779D01*
X142557361Y-117346106D01*
X142774815Y-117456904D01*
X143006924Y-117532321D01*
X143247973Y-117570500D01*
X143247974Y-117570500D01*
X143492026Y-117570500D01*
X143492027Y-117570500D01*
X143733076Y-117532321D01*
X143965185Y-117456904D01*
X144182639Y-117346106D01*
X144380083Y-117202655D01*
X144552655Y-117030083D01*
X144696106Y-116832639D01*
X144806904Y-116615185D01*
X144882321Y-116383076D01*
X144920500Y-116142027D01*
X144920500Y-115897973D01*
X146819500Y-115897973D01*
X146819500Y-116142026D01*
X146857678Y-116383072D01*
X146933097Y-116615187D01*
X147043896Y-116832642D01*
X147187339Y-117030076D01*
X147187343Y-117030081D01*
X147359918Y-117202656D01*
X147359923Y-117202660D01*
X147532136Y-117327779D01*
X147557361Y-117346106D01*
X147774815Y-117456904D01*
X148006924Y-117532321D01*
X148247973Y-117570500D01*
X148247974Y-117570500D01*
X148492026Y-117570500D01*
X148492027Y-117570500D01*
X148733076Y-117532321D01*
X148965185Y-117456904D01*
X149182639Y-117346106D01*
X149380083Y-117202655D01*
X149552655Y-117030083D01*
X149696106Y-116832639D01*
X149806904Y-116615185D01*
X149882321Y-116383076D01*
X149920500Y-116142027D01*
X149920500Y-115897973D01*
X149882321Y-115656924D01*
X149806904Y-115424815D01*
X149696106Y-115207361D01*
X149677779Y-115182136D01*
X149552660Y-115009923D01*
X149552656Y-115009918D01*
X149380081Y-114837343D01*
X149380076Y-114837339D01*
X149182642Y-114693896D01*
X149182641Y-114693895D01*
X149182639Y-114693894D01*
X148965185Y-114583096D01*
X148733076Y-114507679D01*
X148733074Y-114507678D01*
X148733072Y-114507678D01*
X148564769Y-114481021D01*
X148492027Y-114469500D01*
X148247973Y-114469500D01*
X148192093Y-114478350D01*
X148006927Y-114507678D01*
X147774812Y-114583097D01*
X147557357Y-114693896D01*
X147359923Y-114837339D01*
X147359918Y-114837343D01*
X147187343Y-115009918D01*
X147187339Y-115009923D01*
X147043896Y-115207357D01*
X146933097Y-115424812D01*
X146857678Y-115656927D01*
X146819500Y-115897973D01*
X144920500Y-115897973D01*
X144882321Y-115656924D01*
X144806904Y-115424815D01*
X144696106Y-115207361D01*
X144677779Y-115182136D01*
X144552660Y-115009923D01*
X144552656Y-115009918D01*
X144380081Y-114837343D01*
X144380076Y-114837339D01*
X144182642Y-114693896D01*
X144182641Y-114693895D01*
X144182639Y-114693894D01*
X143965185Y-114583096D01*
X143733076Y-114507679D01*
X143733074Y-114507678D01*
X143733072Y-114507678D01*
X143564769Y-114481021D01*
X143492027Y-114469500D01*
X143247973Y-114469500D01*
X143192093Y-114478350D01*
X143006927Y-114507678D01*
X142774812Y-114583097D01*
X142557357Y-114693896D01*
X142359923Y-114837339D01*
X142359918Y-114837343D01*
X142187343Y-115009918D01*
X142187339Y-115009923D01*
X142043896Y-115207357D01*
X141933097Y-115424812D01*
X141857678Y-115656927D01*
X141819500Y-115897973D01*
X139920500Y-115897973D01*
X139882321Y-115656924D01*
X139806904Y-115424815D01*
X139696106Y-115207361D01*
X139677779Y-115182136D01*
X139552660Y-115009923D01*
X139552656Y-115009918D01*
X139380081Y-114837343D01*
X139380076Y-114837339D01*
X139182642Y-114693896D01*
X139182641Y-114693895D01*
X139182639Y-114693894D01*
X138965185Y-114583096D01*
X138733076Y-114507679D01*
X138733074Y-114507678D01*
X138733072Y-114507678D01*
X138564769Y-114481021D01*
X138492027Y-114469500D01*
X138247973Y-114469500D01*
X138192093Y-114478350D01*
X138006927Y-114507678D01*
X137774812Y-114583097D01*
X137557357Y-114693896D01*
X137359923Y-114837339D01*
X137359918Y-114837343D01*
X137187343Y-115009918D01*
X137187339Y-115009923D01*
X137043896Y-115207357D01*
X136933097Y-115424812D01*
X136857678Y-115656927D01*
X136819500Y-115897973D01*
X134920500Y-115897973D01*
X134920500Y-114695326D01*
X134920500Y-114695323D01*
X134920499Y-114695321D01*
X134905967Y-114622264D01*
X134905966Y-114622260D01*
X134850601Y-114539399D01*
X134767740Y-114484034D01*
X134767739Y-114484033D01*
X134767735Y-114484032D01*
X134694677Y-114469500D01*
X134694674Y-114469500D01*
X132045326Y-114469500D01*
X132045323Y-114469500D01*
X131972264Y-114484032D01*
X131972260Y-114484033D01*
X131889399Y-114539399D01*
X131834033Y-114622260D01*
X131834032Y-114622264D01*
X131819500Y-114695321D01*
X127444604Y-114695321D01*
X127442643Y-114693896D01*
X127225187Y-114583097D01*
X127225186Y-114583096D01*
X127225185Y-114583096D01*
X126993076Y-114507679D01*
X126993074Y-114507678D01*
X126993072Y-114507678D01*
X126824769Y-114481021D01*
X126752027Y-114469500D01*
X126507973Y-114469500D01*
X126452093Y-114478350D01*
X126266927Y-114507678D01*
X126034812Y-114583097D01*
X125817357Y-114693896D01*
X125619923Y-114837339D01*
X125619918Y-114837343D01*
X125447343Y-115009918D01*
X125447339Y-115009923D01*
X125303896Y-115207357D01*
X125193097Y-115424812D01*
X125117678Y-115656927D01*
X125079500Y-115897973D01*
X123180500Y-115897973D01*
X123142321Y-115656924D01*
X123066904Y-115424815D01*
X122956106Y-115207361D01*
X122937779Y-115182136D01*
X122812660Y-115009923D01*
X122812656Y-115009918D01*
X122640081Y-114837343D01*
X122640076Y-114837339D01*
X122442642Y-114693896D01*
X122442641Y-114693895D01*
X122442639Y-114693894D01*
X122225185Y-114583096D01*
X121993076Y-114507679D01*
X121993074Y-114507678D01*
X121993072Y-114507678D01*
X121824769Y-114481021D01*
X121752027Y-114469500D01*
X121507973Y-114469500D01*
X121452093Y-114478350D01*
X121266927Y-114507678D01*
X121034812Y-114583097D01*
X120817357Y-114693896D01*
X120619923Y-114837339D01*
X120619918Y-114837343D01*
X120447343Y-115009918D01*
X120447339Y-115009923D01*
X120303896Y-115207357D01*
X120193097Y-115424812D01*
X120117678Y-115656927D01*
X120079500Y-115897973D01*
X118180500Y-115897973D01*
X118142321Y-115656924D01*
X118066904Y-115424815D01*
X117956106Y-115207361D01*
X117937779Y-115182136D01*
X117812660Y-115009923D01*
X117812656Y-115009918D01*
X117640081Y-114837343D01*
X117640076Y-114837339D01*
X117442642Y-114693896D01*
X117442641Y-114693895D01*
X117442639Y-114693894D01*
X117225185Y-114583096D01*
X116993076Y-114507679D01*
X116993074Y-114507678D01*
X116993072Y-114507678D01*
X116824769Y-114481021D01*
X116752027Y-114469500D01*
X116507973Y-114469500D01*
X116452093Y-114478350D01*
X116266927Y-114507678D01*
X116034812Y-114583097D01*
X115817357Y-114693896D01*
X115619923Y-114837339D01*
X115619918Y-114837343D01*
X115447343Y-115009918D01*
X115447339Y-115009923D01*
X115303896Y-115207357D01*
X115193097Y-115424812D01*
X115117678Y-115656927D01*
X115079500Y-115897973D01*
X113180500Y-115897973D01*
X113180500Y-114695326D01*
X113180500Y-114695323D01*
X113180499Y-114695321D01*
X113165967Y-114622264D01*
X113165966Y-114622260D01*
X113110601Y-114539399D01*
X113027740Y-114484034D01*
X113027739Y-114484033D01*
X113027735Y-114484032D01*
X112954677Y-114469500D01*
X112954674Y-114469500D01*
X110305326Y-114469500D01*
X110305323Y-114469500D01*
X110232264Y-114484032D01*
X110232260Y-114484033D01*
X110149399Y-114539399D01*
X110094033Y-114622260D01*
X110094032Y-114622264D01*
X110079500Y-114695321D01*
X101000500Y-114695321D01*
X101000500Y-101811571D01*
X121811999Y-101811571D01*
X121836997Y-101937238D01*
X121836999Y-101937244D01*
X121886033Y-102055624D01*
X121886038Y-102055633D01*
X121957223Y-102162168D01*
X121957226Y-102162172D01*
X122047827Y-102252773D01*
X122047831Y-102252776D01*
X122154366Y-102323961D01*
X122154372Y-102323964D01*
X122154373Y-102323965D01*
X122272756Y-102373001D01*
X122272760Y-102373001D01*
X122272761Y-102373002D01*
X122398428Y-102398000D01*
X122523452Y-102398000D01*
X122540933Y-102400302D01*
X122541047Y-102399439D01*
X122549108Y-102400500D01*
X135600656Y-102400500D01*
X135667695Y-102420185D01*
X135713450Y-102472989D01*
X135723394Y-102542147D01*
X135715217Y-102571952D01*
X135674500Y-102670251D01*
X135674497Y-102670261D01*
X135649500Y-102795928D01*
X135649500Y-102795931D01*
X135649500Y-102924069D01*
X135649500Y-102924071D01*
X135649499Y-102924071D01*
X135674497Y-103049738D01*
X135674499Y-103049744D01*
X135723533Y-103168124D01*
X135723538Y-103168133D01*
X135794723Y-103274668D01*
X135794726Y-103274672D01*
X135885327Y-103365273D01*
X135885331Y-103365276D01*
X135991866Y-103436461D01*
X135991872Y-103436464D01*
X135991873Y-103436465D01*
X136110256Y-103485501D01*
X136110260Y-103485501D01*
X136110261Y-103485502D01*
X136235928Y-103510500D01*
X136235931Y-103510500D01*
X136364071Y-103510500D01*
X136448615Y-103493682D01*
X136489744Y-103485501D01*
X136608127Y-103436465D01*
X136714669Y-103365276D01*
X136805276Y-103274669D01*
X136876465Y-103168127D01*
X136925501Y-103049744D01*
X136950500Y-102924069D01*
X136950500Y-102795931D01*
X136950500Y-102795928D01*
X136925502Y-102670261D01*
X136925501Y-102670260D01*
X136925501Y-102670256D01*
X136925499Y-102670251D01*
X136884783Y-102571952D01*
X136877314Y-102502483D01*
X136908590Y-102440004D01*
X136968679Y-102404352D01*
X136999344Y-102400500D01*
X146812724Y-102400500D01*
X146812726Y-102400500D01*
X146940020Y-102366392D01*
X147054148Y-102300500D01*
X151520050Y-97834595D01*
X151520055Y-97834592D01*
X151530258Y-97824388D01*
X151530260Y-97824388D01*
X151623446Y-97731202D01*
X151689338Y-97617074D01*
X151723446Y-97489780D01*
X151723446Y-91919432D01*
X151743131Y-91852393D01*
X151744344Y-91850541D01*
X151799407Y-91768133D01*
X151799407Y-91768132D01*
X151799411Y-91768127D01*
X151848447Y-91649744D01*
X151873446Y-91524069D01*
X151873446Y-91395931D01*
X151873446Y-91395928D01*
X151848448Y-91270261D01*
X151848447Y-91270260D01*
X151848447Y-91270256D01*
X151799411Y-91151873D01*
X151799410Y-91151871D01*
X151799404Y-91151861D01*
X151744344Y-91069457D01*
X151723466Y-91002780D01*
X151723446Y-91000567D01*
X151723446Y-86713389D01*
X153549500Y-86713389D01*
X153549500Y-86886611D01*
X153557017Y-86934069D01*
X153576317Y-87055931D01*
X153576598Y-87057701D01*
X153611569Y-87165331D01*
X153630128Y-87222447D01*
X153655308Y-87271866D01*
X153708768Y-87376788D01*
X153810586Y-87516928D01*
X153933072Y-87639414D01*
X154073212Y-87741232D01*
X154227555Y-87819873D01*
X154392299Y-87873402D01*
X154563389Y-87900500D01*
X154563390Y-87900500D01*
X154736610Y-87900500D01*
X154736611Y-87900500D01*
X154907701Y-87873402D01*
X155072445Y-87819873D01*
X155226788Y-87741232D01*
X155366928Y-87639414D01*
X155489414Y-87516928D01*
X155591232Y-87376788D01*
X155669873Y-87222445D01*
X155723402Y-87057701D01*
X155750500Y-86886611D01*
X155750500Y-86713389D01*
X155723402Y-86542299D01*
X155669873Y-86377555D01*
X155591232Y-86223212D01*
X155489414Y-86083072D01*
X155366928Y-85960586D01*
X155226788Y-85858768D01*
X155072445Y-85780127D01*
X154907701Y-85726598D01*
X154907699Y-85726597D01*
X154907698Y-85726597D01*
X154776271Y-85705781D01*
X154736611Y-85699500D01*
X154563389Y-85699500D01*
X154523728Y-85705781D01*
X154392302Y-85726597D01*
X154227552Y-85780128D01*
X154073211Y-85858768D01*
X153993256Y-85916859D01*
X153933072Y-85960586D01*
X153933070Y-85960588D01*
X153933069Y-85960588D01*
X153810588Y-86083069D01*
X153810588Y-86083070D01*
X153810586Y-86083072D01*
X153794417Y-86105327D01*
X153708768Y-86223211D01*
X153630128Y-86377552D01*
X153576597Y-86542302D01*
X153554748Y-86680255D01*
X153549500Y-86713389D01*
X151723446Y-86713389D01*
X151723446Y-84173389D01*
X153549500Y-84173389D01*
X153549500Y-84346611D01*
X153551850Y-84361447D01*
X153564851Y-84443537D01*
X153576598Y-84517701D01*
X153630127Y-84682445D01*
X153708768Y-84836788D01*
X153810586Y-84976928D01*
X153933072Y-85099414D01*
X154073212Y-85201232D01*
X154227555Y-85279873D01*
X154392299Y-85333402D01*
X154563389Y-85360500D01*
X154563390Y-85360500D01*
X154736610Y-85360500D01*
X154736611Y-85360500D01*
X154907701Y-85333402D01*
X155072445Y-85279873D01*
X155226788Y-85201232D01*
X155366928Y-85099414D01*
X155489414Y-84976928D01*
X155591232Y-84836788D01*
X155669873Y-84682445D01*
X155723402Y-84517701D01*
X155750500Y-84346611D01*
X155750500Y-84173389D01*
X155723402Y-84002299D01*
X155669873Y-83837555D01*
X155591232Y-83683212D01*
X155489414Y-83543072D01*
X155366928Y-83420586D01*
X155226788Y-83318768D01*
X155072445Y-83240127D01*
X154907701Y-83186598D01*
X154907699Y-83186597D01*
X154907698Y-83186597D01*
X154776271Y-83165781D01*
X154736611Y-83159500D01*
X154563389Y-83159500D01*
X154523728Y-83165781D01*
X154392302Y-83186597D01*
X154227552Y-83240128D01*
X154073211Y-83318768D01*
X153993622Y-83376594D01*
X153933072Y-83420586D01*
X153933070Y-83420588D01*
X153933069Y-83420588D01*
X153810588Y-83543069D01*
X153810588Y-83543070D01*
X153810586Y-83543072D01*
X153803961Y-83552191D01*
X153708768Y-83683211D01*
X153630128Y-83837552D01*
X153576597Y-84002302D01*
X153573835Y-84019744D01*
X153549500Y-84173389D01*
X151723446Y-84173389D01*
X151723446Y-80845321D01*
X153549500Y-80845321D01*
X153549500Y-82594678D01*
X153564032Y-82667735D01*
X153564033Y-82667739D01*
X153564034Y-82667740D01*
X153619399Y-82750601D01*
X153684172Y-82793880D01*
X153702260Y-82805966D01*
X153702264Y-82805967D01*
X153775321Y-82820499D01*
X153775324Y-82820500D01*
X153775326Y-82820500D01*
X155524676Y-82820500D01*
X155524677Y-82820499D01*
X155597740Y-82805966D01*
X155680601Y-82750601D01*
X155735966Y-82667740D01*
X155750500Y-82594674D01*
X155750500Y-80845326D01*
X155750500Y-80845323D01*
X155750499Y-80845321D01*
X155735967Y-80772264D01*
X155735966Y-80772260D01*
X155714789Y-80740566D01*
X155680601Y-80689399D01*
X155597740Y-80634034D01*
X155597739Y-80634033D01*
X155597735Y-80634032D01*
X155524677Y-80619500D01*
X155524674Y-80619500D01*
X153775326Y-80619500D01*
X153775323Y-80619500D01*
X153702264Y-80634032D01*
X153702260Y-80634033D01*
X153619399Y-80689399D01*
X153564033Y-80772260D01*
X153564032Y-80772264D01*
X153549500Y-80845321D01*
X151723446Y-80845321D01*
X151723446Y-75698315D01*
X151743131Y-75631276D01*
X151795935Y-75585521D01*
X151865093Y-75575577D01*
X151916337Y-75595213D01*
X151924397Y-75600598D01*
X151924399Y-75600601D01*
X152007260Y-75655966D01*
X152007262Y-75655966D01*
X152007264Y-75655967D01*
X152080321Y-75670499D01*
X152080324Y-75670500D01*
X152080326Y-75670500D01*
X153829676Y-75670500D01*
X153829677Y-75670499D01*
X153902740Y-75655966D01*
X153985601Y-75600601D01*
X154040966Y-75517740D01*
X154055500Y-75444674D01*
X154055500Y-74483389D01*
X154394500Y-74483389D01*
X154394500Y-74656610D01*
X154420670Y-74821846D01*
X154421598Y-74827701D01*
X154475127Y-74992445D01*
X154553768Y-75146788D01*
X154655586Y-75286928D01*
X154778072Y-75409414D01*
X154918212Y-75511232D01*
X155072555Y-75589873D01*
X155237299Y-75643402D01*
X155408389Y-75670500D01*
X155408390Y-75670500D01*
X155581610Y-75670500D01*
X155581611Y-75670500D01*
X155752701Y-75643402D01*
X155917445Y-75589873D01*
X156071788Y-75511232D01*
X156211928Y-75409414D01*
X156334414Y-75286928D01*
X156436232Y-75146788D01*
X156514873Y-74992445D01*
X156568402Y-74827701D01*
X156595500Y-74656611D01*
X156595500Y-74483389D01*
X156568402Y-74312299D01*
X156514873Y-74147555D01*
X156436232Y-73993212D01*
X156334414Y-73853072D01*
X156211928Y-73730586D01*
X156071788Y-73628768D01*
X155917445Y-73550127D01*
X155752701Y-73496598D01*
X155752699Y-73496597D01*
X155752698Y-73496597D01*
X155621271Y-73475781D01*
X155581611Y-73469500D01*
X155408389Y-73469500D01*
X155368728Y-73475781D01*
X155237302Y-73496597D01*
X155072552Y-73550128D01*
X154918211Y-73628768D01*
X154842097Y-73684069D01*
X154778072Y-73730586D01*
X154778070Y-73730588D01*
X154778069Y-73730588D01*
X154655588Y-73853069D01*
X154655588Y-73853070D01*
X154655586Y-73853072D01*
X154622233Y-73898978D01*
X154553768Y-73993211D01*
X154475128Y-74147552D01*
X154421597Y-74312302D01*
X154394500Y-74483389D01*
X154055500Y-74483389D01*
X154055500Y-73695326D01*
X154055500Y-73695323D01*
X154055499Y-73695321D01*
X154040967Y-73622264D01*
X154040966Y-73622260D01*
X154003150Y-73565664D01*
X153985601Y-73539399D01*
X153921542Y-73496597D01*
X153902739Y-73484033D01*
X153902735Y-73484032D01*
X153829677Y-73469500D01*
X153829674Y-73469500D01*
X152080326Y-73469500D01*
X152080323Y-73469500D01*
X152007264Y-73484032D01*
X152007260Y-73484033D01*
X151949276Y-73522776D01*
X151924399Y-73539399D01*
X151924398Y-73539399D01*
X151916336Y-73544787D01*
X151849659Y-73565664D01*
X151782279Y-73547179D01*
X151735589Y-73495200D01*
X151723446Y-73441684D01*
X151723446Y-71317056D01*
X151723446Y-71317054D01*
X151689338Y-71189760D01*
X151623446Y-71075632D01*
X151530260Y-70982446D01*
X139547314Y-58999500D01*
X139490250Y-58966554D01*
X139433187Y-58933608D01*
X139369539Y-58916554D01*
X139305892Y-58899500D01*
X139305891Y-58899500D01*
X135728675Y-58899500D01*
X135661636Y-58879815D01*
X135640994Y-58863181D01*
X133102202Y-56324388D01*
X133068717Y-56263065D01*
X133073701Y-56193373D01*
X133115573Y-56137440D01*
X133170485Y-56114234D01*
X133302103Y-56093387D01*
X133476055Y-56036866D01*
X133639020Y-55953830D01*
X133657123Y-55940678D01*
X133657123Y-55940677D01*
X133057446Y-55341000D01*
X133080160Y-55341000D01*
X133177061Y-55315036D01*
X133263940Y-55264876D01*
X133334876Y-55193940D01*
X133385036Y-55107061D01*
X133411000Y-55010160D01*
X133411000Y-54987446D01*
X134010677Y-55587123D01*
X134010678Y-55587123D01*
X134023830Y-55569020D01*
X134106866Y-55406055D01*
X134163388Y-55232102D01*
X134192000Y-55051456D01*
X134192000Y-54868543D01*
X134163388Y-54687897D01*
X134106866Y-54513944D01*
X134023831Y-54350980D01*
X134023830Y-54350978D01*
X134010677Y-54332875D01*
X133411000Y-54932552D01*
X133411000Y-54909840D01*
X133385036Y-54812939D01*
X133334876Y-54726060D01*
X133263940Y-54655124D01*
X133177061Y-54604964D01*
X133080160Y-54579000D01*
X133057447Y-54579000D01*
X133650488Y-53985957D01*
X133657123Y-53979321D01*
X133657123Y-53979320D01*
X133639020Y-53966169D01*
X133476057Y-53883133D01*
X133302102Y-53826611D01*
X133121456Y-53798000D01*
X132938544Y-53798000D01*
X132757897Y-53826611D01*
X132583944Y-53883133D01*
X132420981Y-53966167D01*
X132402875Y-53979320D01*
X132402875Y-53979321D01*
X133002554Y-54579000D01*
X132979840Y-54579000D01*
X132882939Y-54604964D01*
X132796060Y-54655124D01*
X132725124Y-54726060D01*
X132674964Y-54812939D01*
X132649000Y-54909840D01*
X132649000Y-54932554D01*
X132049321Y-54332875D01*
X132049320Y-54332875D01*
X132038969Y-54347124D01*
X131983640Y-54389791D01*
X131914027Y-54395773D01*
X131852231Y-54363169D01*
X131835546Y-54343132D01*
X131816463Y-54314573D01*
X131816457Y-54314565D01*
X131675434Y-54173542D01*
X131675430Y-54173539D01*
X131609792Y-54129681D01*
X131509604Y-54062737D01*
X131509592Y-54062730D01*
X131325339Y-53986411D01*
X131325329Y-53986408D01*
X131129725Y-53947500D01*
X131129723Y-53947500D01*
X130930277Y-53947500D01*
X130930275Y-53947500D01*
X130734670Y-53986408D01*
X130734660Y-53986411D01*
X130550407Y-54062730D01*
X130550394Y-54062737D01*
X130384569Y-54173539D01*
X130384565Y-54173542D01*
X130243542Y-54314565D01*
X130243539Y-54314569D01*
X130133102Y-54479849D01*
X130079489Y-54524654D01*
X130010164Y-54533361D01*
X129947137Y-54503206D01*
X129926898Y-54479849D01*
X129816460Y-54314569D01*
X129816457Y-54314565D01*
X129675434Y-54173542D01*
X129675430Y-54173539D01*
X129509605Y-54062737D01*
X129509592Y-54062730D01*
X129325339Y-53986411D01*
X129325329Y-53986408D01*
X129129725Y-53947500D01*
X129129723Y-53947500D01*
X128930277Y-53947500D01*
X128930275Y-53947500D01*
X128734670Y-53986408D01*
X128734660Y-53986411D01*
X128550407Y-54062730D01*
X128550394Y-54062737D01*
X128384569Y-54173539D01*
X128384565Y-54173542D01*
X128254181Y-54303927D01*
X128192858Y-54337412D01*
X128123166Y-54332428D01*
X128067233Y-54290556D01*
X128042816Y-54225092D01*
X128042500Y-54216246D01*
X128042500Y-54173323D01*
X128042499Y-54173321D01*
X128027967Y-54100264D01*
X128027966Y-54100260D01*
X127972601Y-54017399D01*
X127889740Y-53962034D01*
X127889739Y-53962033D01*
X127889735Y-53962032D01*
X127816677Y-53947500D01*
X127816674Y-53947500D01*
X126243326Y-53947500D01*
X126243323Y-53947500D01*
X126170264Y-53962032D01*
X126170260Y-53962033D01*
X126087399Y-54017399D01*
X126032033Y-54100260D01*
X126032032Y-54100264D01*
X126017500Y-54173321D01*
X126017500Y-55746678D01*
X126032032Y-55819735D01*
X126032033Y-55819739D01*
X126032034Y-55819740D01*
X126087399Y-55902601D01*
X126160469Y-55951424D01*
X126170260Y-55957966D01*
X126170264Y-55957967D01*
X126243321Y-55972499D01*
X126243324Y-55972500D01*
X126243326Y-55972500D01*
X127816676Y-55972500D01*
X127816677Y-55972499D01*
X127889740Y-55957966D01*
X127972601Y-55902601D01*
X128027966Y-55819740D01*
X128042500Y-55746674D01*
X128042500Y-55703754D01*
X128062185Y-55636715D01*
X128114989Y-55590960D01*
X128184147Y-55581016D01*
X128247703Y-55610041D01*
X128254181Y-55616073D01*
X128384565Y-55746457D01*
X128384569Y-55746460D01*
X128550394Y-55857262D01*
X128550407Y-55857269D01*
X128659850Y-55902601D01*
X128734665Y-55933590D01*
X128734669Y-55933590D01*
X128734670Y-55933591D01*
X128930274Y-55972500D01*
X128930277Y-55972500D01*
X129129725Y-55972500D01*
X129261324Y-55946322D01*
X129325335Y-55933590D01*
X129509599Y-55857266D01*
X129675431Y-55746460D01*
X129816460Y-55605431D01*
X129926898Y-55440150D01*
X129980510Y-55395345D01*
X130049835Y-55386638D01*
X130112863Y-55416793D01*
X130133102Y-55440150D01*
X130243539Y-55605430D01*
X130243542Y-55605434D01*
X130384565Y-55746457D01*
X130384569Y-55746460D01*
X130550394Y-55857262D01*
X130550407Y-55857269D01*
X130659850Y-55902601D01*
X130734665Y-55933590D01*
X130734669Y-55933590D01*
X130734670Y-55933591D01*
X130930274Y-55972500D01*
X130930277Y-55972500D01*
X131129724Y-55972500D01*
X131145949Y-55969272D01*
X131235675Y-55951424D01*
X131305264Y-55957651D01*
X131347546Y-55985360D01*
X135065159Y-59702972D01*
X135065169Y-59702983D01*
X135162687Y-59800501D01*
X135187532Y-59814845D01*
X135237225Y-59843535D01*
X135276814Y-59866392D01*
X135404107Y-59900500D01*
X135404108Y-59900500D01*
X138981324Y-59900500D01*
X139048363Y-59920185D01*
X139069005Y-59936819D01*
X150686127Y-71553941D01*
X150719612Y-71615264D01*
X150722446Y-71641622D01*
X150722446Y-91000567D01*
X150702761Y-91067606D01*
X150701548Y-91069457D01*
X150646487Y-91151861D01*
X150646479Y-91151875D01*
X150597445Y-91270255D01*
X150597443Y-91270261D01*
X150572446Y-91395928D01*
X150572446Y-91395931D01*
X150572446Y-91524069D01*
X150572446Y-91524071D01*
X150572445Y-91524071D01*
X150597443Y-91649738D01*
X150597445Y-91649744D01*
X150646479Y-91768124D01*
X150646484Y-91768133D01*
X150701548Y-91850541D01*
X150722426Y-91917218D01*
X150722446Y-91919432D01*
X150722446Y-97165212D01*
X150702761Y-97232251D01*
X150686127Y-97252893D01*
X146575839Y-101363181D01*
X146514516Y-101396666D01*
X146488158Y-101399500D01*
X123078602Y-101399500D01*
X123011563Y-101379815D01*
X122975500Y-101344391D01*
X122967776Y-101332831D01*
X122967774Y-101332829D01*
X122967772Y-101332826D01*
X122877172Y-101242226D01*
X122877168Y-101242223D01*
X122770633Y-101171038D01*
X122770624Y-101171033D01*
X122652244Y-101121999D01*
X122652238Y-101121997D01*
X122526571Y-101097000D01*
X122526569Y-101097000D01*
X122398431Y-101097000D01*
X122398429Y-101097000D01*
X122272761Y-101121997D01*
X122272755Y-101121999D01*
X122154375Y-101171033D01*
X122154366Y-101171038D01*
X122047831Y-101242223D01*
X122047827Y-101242226D01*
X121957226Y-101332827D01*
X121957223Y-101332831D01*
X121886038Y-101439366D01*
X121886033Y-101439375D01*
X121836999Y-101557755D01*
X121836997Y-101557761D01*
X121812000Y-101683428D01*
X121812000Y-101683431D01*
X121812000Y-101811569D01*
X121812000Y-101811571D01*
X121811999Y-101811571D01*
X101000500Y-101811571D01*
X101000500Y-94530000D01*
X109579016Y-94530000D01*
X110371988Y-94530000D01*
X110339075Y-94587007D01*
X110305000Y-94714174D01*
X110305000Y-94845826D01*
X110339075Y-94972993D01*
X110371988Y-95030000D01*
X109579016Y-95030000D01*
X109585781Y-95072716D01*
X109646581Y-95259837D01*
X109735904Y-95435143D01*
X109851555Y-95594321D01*
X109990678Y-95733444D01*
X110149856Y-95849095D01*
X110325162Y-95938418D01*
X110512283Y-95999218D01*
X110555000Y-96005984D01*
X110555000Y-95213012D01*
X110612007Y-95245925D01*
X110739174Y-95280000D01*
X110870826Y-95280000D01*
X110997993Y-95245925D01*
X111055000Y-95213012D01*
X111055000Y-96005983D01*
X111097716Y-95999218D01*
X111284837Y-95938418D01*
X111460143Y-95849095D01*
X111619321Y-95733444D01*
X111758444Y-95594321D01*
X111874097Y-95435141D01*
X111964515Y-95257685D01*
X112012489Y-95206888D01*
X112080310Y-95190093D01*
X112146445Y-95212630D01*
X112185485Y-95257685D01*
X112275902Y-95435141D01*
X112391555Y-95594321D01*
X112530678Y-95733444D01*
X112689856Y-95849095D01*
X112865162Y-95938418D01*
X113052283Y-95999218D01*
X113095000Y-96005984D01*
X113095000Y-95213012D01*
X113152007Y-95245925D01*
X113279174Y-95280000D01*
X113410826Y-95280000D01*
X113537993Y-95245925D01*
X113595000Y-95213012D01*
X113595000Y-96005983D01*
X113637716Y-95999218D01*
X113824837Y-95938418D01*
X114000143Y-95849095D01*
X114159321Y-95733444D01*
X114298444Y-95594321D01*
X114414097Y-95435141D01*
X114504515Y-95257685D01*
X114552489Y-95206888D01*
X114620310Y-95190093D01*
X114686445Y-95212630D01*
X114725485Y-95257685D01*
X114815902Y-95435141D01*
X114931555Y-95594321D01*
X115070678Y-95733444D01*
X115229856Y-95849095D01*
X115405162Y-95938418D01*
X115592283Y-95999218D01*
X115635000Y-96005984D01*
X115635000Y-95213012D01*
X115692007Y-95245925D01*
X115819174Y-95280000D01*
X115950826Y-95280000D01*
X116077993Y-95245925D01*
X116135000Y-95213012D01*
X116135000Y-96005984D01*
X116177716Y-95999218D01*
X116364837Y-95938418D01*
X116540143Y-95849095D01*
X116699321Y-95733444D01*
X116838444Y-95594321D01*
X116954097Y-95435141D01*
X117044515Y-95257685D01*
X117092489Y-95206888D01*
X117160310Y-95190093D01*
X117226445Y-95212630D01*
X117265485Y-95257685D01*
X117355902Y-95435141D01*
X117471555Y-95594321D01*
X117610678Y-95733444D01*
X117769856Y-95849095D01*
X117945162Y-95938418D01*
X118132283Y-95999218D01*
X118175000Y-96005984D01*
X118175000Y-95213012D01*
X118232007Y-95245925D01*
X118359174Y-95280000D01*
X118490826Y-95280000D01*
X118617993Y-95245925D01*
X118675000Y-95213012D01*
X118675000Y-96005984D01*
X118717716Y-95999218D01*
X118904837Y-95938418D01*
X119080143Y-95849095D01*
X119239321Y-95733444D01*
X119378444Y-95594321D01*
X119494097Y-95435141D01*
X119584515Y-95257685D01*
X119632489Y-95206888D01*
X119700310Y-95190093D01*
X119766445Y-95212630D01*
X119805485Y-95257685D01*
X119895902Y-95435141D01*
X120011555Y-95594321D01*
X120150678Y-95733444D01*
X120309856Y-95849095D01*
X120485162Y-95938418D01*
X120672283Y-95999218D01*
X120715000Y-96005984D01*
X120715000Y-95213012D01*
X120772007Y-95245925D01*
X120899174Y-95280000D01*
X121030826Y-95280000D01*
X121157993Y-95245925D01*
X121215000Y-95213012D01*
X121215000Y-96005983D01*
X121257716Y-95999218D01*
X121444837Y-95938418D01*
X121620143Y-95849095D01*
X121779321Y-95733444D01*
X121918444Y-95594321D01*
X122034097Y-95435141D01*
X122124515Y-95257685D01*
X122172489Y-95206888D01*
X122240310Y-95190093D01*
X122306445Y-95212630D01*
X122345485Y-95257685D01*
X122435902Y-95435141D01*
X122551555Y-95594321D01*
X122690678Y-95733444D01*
X122849856Y-95849095D01*
X123025162Y-95938418D01*
X123212283Y-95999218D01*
X123255000Y-96005984D01*
X123255000Y-95213012D01*
X123312007Y-95245925D01*
X123439174Y-95280000D01*
X123570826Y-95280000D01*
X123697993Y-95245925D01*
X123755000Y-95213012D01*
X123755000Y-96005984D01*
X123797716Y-95999218D01*
X123984837Y-95938418D01*
X124160143Y-95849095D01*
X124319321Y-95733444D01*
X124458444Y-95594321D01*
X124574097Y-95435141D01*
X124664515Y-95257685D01*
X124712489Y-95206888D01*
X124780310Y-95190093D01*
X124846445Y-95212630D01*
X124885485Y-95257685D01*
X124975902Y-95435141D01*
X125091555Y-95594321D01*
X125230678Y-95733444D01*
X125389856Y-95849095D01*
X125565162Y-95938418D01*
X125752283Y-95999218D01*
X125795000Y-96005984D01*
X125795000Y-95213012D01*
X125852007Y-95245925D01*
X125979174Y-95280000D01*
X126110826Y-95280000D01*
X126237993Y-95245925D01*
X126295000Y-95213012D01*
X126295000Y-96005984D01*
X126337716Y-95999218D01*
X126524837Y-95938418D01*
X126700143Y-95849095D01*
X126859321Y-95733444D01*
X126998444Y-95594321D01*
X127114097Y-95435141D01*
X127204515Y-95257685D01*
X127252489Y-95206888D01*
X127320310Y-95190093D01*
X127386445Y-95212630D01*
X127425485Y-95257685D01*
X127515902Y-95435141D01*
X127631555Y-95594321D01*
X127770678Y-95733444D01*
X127929856Y-95849095D01*
X128105162Y-95938418D01*
X128292283Y-95999218D01*
X128335000Y-96005984D01*
X128335000Y-95213012D01*
X128392007Y-95245925D01*
X128519174Y-95280000D01*
X128650826Y-95280000D01*
X128777993Y-95245925D01*
X128835000Y-95213012D01*
X128835000Y-96005983D01*
X128877716Y-95999218D01*
X129064837Y-95938418D01*
X129240143Y-95849095D01*
X129399321Y-95733444D01*
X129538444Y-95594321D01*
X129654097Y-95435141D01*
X129744515Y-95257685D01*
X129792489Y-95206888D01*
X129860310Y-95190093D01*
X129926445Y-95212630D01*
X129965485Y-95257685D01*
X130055902Y-95435141D01*
X130171555Y-95594321D01*
X130310678Y-95733444D01*
X130469856Y-95849095D01*
X130645162Y-95938418D01*
X130832283Y-95999218D01*
X130875000Y-96005984D01*
X130875000Y-95213012D01*
X130932007Y-95245925D01*
X131059174Y-95280000D01*
X131190826Y-95280000D01*
X131317993Y-95245925D01*
X131375000Y-95213012D01*
X131375000Y-96005983D01*
X131417716Y-95999218D01*
X131604837Y-95938418D01*
X131780143Y-95849095D01*
X131939321Y-95733444D01*
X132078444Y-95594321D01*
X132194097Y-95435141D01*
X132284515Y-95257685D01*
X132332489Y-95206888D01*
X132400310Y-95190093D01*
X132466445Y-95212630D01*
X132505485Y-95257685D01*
X132595902Y-95435141D01*
X132711555Y-95594321D01*
X132850678Y-95733444D01*
X133009856Y-95849095D01*
X133185162Y-95938418D01*
X133372283Y-95999218D01*
X133415000Y-96005984D01*
X133415000Y-95213012D01*
X133472007Y-95245925D01*
X133599174Y-95280000D01*
X133730826Y-95280000D01*
X133857993Y-95245925D01*
X133915000Y-95213012D01*
X133915000Y-96005983D01*
X133957716Y-95999218D01*
X134144837Y-95938418D01*
X134320143Y-95849095D01*
X134479321Y-95733444D01*
X134618444Y-95594321D01*
X134734097Y-95435141D01*
X134824515Y-95257685D01*
X134872489Y-95206888D01*
X134940310Y-95190093D01*
X135006445Y-95212630D01*
X135045485Y-95257685D01*
X135135902Y-95435141D01*
X135251555Y-95594321D01*
X135390678Y-95733444D01*
X135549856Y-95849095D01*
X135725162Y-95938418D01*
X135912283Y-95999218D01*
X135955000Y-96005984D01*
X135955000Y-95213012D01*
X136012007Y-95245925D01*
X136139174Y-95280000D01*
X136270826Y-95280000D01*
X136397993Y-95245925D01*
X136455000Y-95213012D01*
X136455000Y-96005984D01*
X136497716Y-95999218D01*
X136684837Y-95938418D01*
X136860143Y-95849095D01*
X137019321Y-95733444D01*
X137158444Y-95594321D01*
X137274097Y-95435141D01*
X137364515Y-95257685D01*
X137412489Y-95206888D01*
X137480310Y-95190093D01*
X137546445Y-95212630D01*
X137585485Y-95257685D01*
X137675902Y-95435141D01*
X137791555Y-95594321D01*
X137930678Y-95733444D01*
X138089856Y-95849095D01*
X138265162Y-95938418D01*
X138452283Y-95999218D01*
X138495000Y-96005984D01*
X138495000Y-95213012D01*
X138552007Y-95245925D01*
X138679174Y-95280000D01*
X138810826Y-95280000D01*
X138937993Y-95245925D01*
X138995000Y-95213012D01*
X138995000Y-96005983D01*
X139037716Y-95999218D01*
X139224837Y-95938418D01*
X139400143Y-95849095D01*
X139559321Y-95733444D01*
X139698444Y-95594321D01*
X139814097Y-95435141D01*
X139904515Y-95257685D01*
X139952489Y-95206888D01*
X140020310Y-95190093D01*
X140086445Y-95212630D01*
X140125485Y-95257685D01*
X140215902Y-95435141D01*
X140331555Y-95594321D01*
X140470678Y-95733444D01*
X140629856Y-95849095D01*
X140805162Y-95938418D01*
X140992283Y-95999218D01*
X141035000Y-96005984D01*
X141035000Y-95213012D01*
X141092007Y-95245925D01*
X141219174Y-95280000D01*
X141350826Y-95280000D01*
X141477993Y-95245925D01*
X141535000Y-95213012D01*
X141535000Y-96005983D01*
X141577716Y-95999218D01*
X141764837Y-95938418D01*
X141940143Y-95849095D01*
X142099321Y-95733444D01*
X142238444Y-95594321D01*
X142354097Y-95435141D01*
X142444515Y-95257685D01*
X142492489Y-95206888D01*
X142560310Y-95190093D01*
X142626445Y-95212630D01*
X142665485Y-95257685D01*
X142755902Y-95435141D01*
X142871555Y-95594321D01*
X143010678Y-95733444D01*
X143169856Y-95849095D01*
X143345162Y-95938418D01*
X143532283Y-95999218D01*
X143575000Y-96005984D01*
X143575000Y-95213012D01*
X143632007Y-95245925D01*
X143759174Y-95280000D01*
X143890826Y-95280000D01*
X144017993Y-95245925D01*
X144075000Y-95213012D01*
X144075000Y-96005984D01*
X144117716Y-95999218D01*
X144304837Y-95938418D01*
X144480143Y-95849095D01*
X144639321Y-95733444D01*
X144778444Y-95594321D01*
X144894097Y-95435141D01*
X144984515Y-95257685D01*
X145032489Y-95206888D01*
X145100310Y-95190093D01*
X145166445Y-95212630D01*
X145205485Y-95257685D01*
X145295902Y-95435141D01*
X145411555Y-95594321D01*
X145550678Y-95733444D01*
X145709856Y-95849095D01*
X145885162Y-95938418D01*
X146072283Y-95999218D01*
X146115000Y-96005984D01*
X146115000Y-95213012D01*
X146172007Y-95245925D01*
X146299174Y-95280000D01*
X146430826Y-95280000D01*
X146557993Y-95245925D01*
X146615000Y-95213012D01*
X146615000Y-96005984D01*
X146657716Y-95999218D01*
X146844837Y-95938418D01*
X147020143Y-95849095D01*
X147179321Y-95733444D01*
X147318444Y-95594321D01*
X147430683Y-95439840D01*
X147486014Y-95397175D01*
X147555627Y-95391196D01*
X147617422Y-95423802D01*
X147651779Y-95484641D01*
X147655001Y-95512726D01*
X147655001Y-95661479D01*
X147669835Y-95755149D01*
X147669837Y-95755155D01*
X147727356Y-95868041D01*
X147727363Y-95868050D01*
X147816949Y-95957636D01*
X147816953Y-95957639D01*
X147929855Y-96015166D01*
X148023514Y-96029999D01*
X148654999Y-96029999D01*
X148655000Y-96029998D01*
X148655000Y-95213012D01*
X148712007Y-95245925D01*
X148839174Y-95280000D01*
X148970826Y-95280000D01*
X149097993Y-95245925D01*
X149155000Y-95213012D01*
X149155000Y-96029999D01*
X149786479Y-96029999D01*
X149880149Y-96015164D01*
X149880155Y-96015162D01*
X149993041Y-95957643D01*
X149993050Y-95957636D01*
X150082636Y-95868050D01*
X150082639Y-95868046D01*
X150140166Y-95755144D01*
X150155000Y-95661486D01*
X150155000Y-95030000D01*
X149338012Y-95030000D01*
X149370925Y-94972993D01*
X149405000Y-94845826D01*
X149405000Y-94714174D01*
X149370925Y-94587007D01*
X149338012Y-94530000D01*
X150154999Y-94530000D01*
X150154999Y-93898520D01*
X150140164Y-93804850D01*
X150140162Y-93804844D01*
X150082643Y-93691958D01*
X150082636Y-93691949D01*
X149993050Y-93602363D01*
X149993046Y-93602360D01*
X149871452Y-93540405D01*
X149872608Y-93538135D01*
X149826778Y-93506795D01*
X149799582Y-93442435D01*
X149811498Y-93373589D01*
X149853882Y-93325202D01*
X149935601Y-93270601D01*
X149990966Y-93187740D01*
X150005500Y-93114674D01*
X150005500Y-91365326D01*
X150005500Y-91365323D01*
X150005499Y-91365321D01*
X149990967Y-91292264D01*
X149990966Y-91292260D01*
X149976267Y-91270261D01*
X149935601Y-91209399D01*
X149852740Y-91154034D01*
X149852739Y-91154033D01*
X149852735Y-91154032D01*
X149779677Y-91139500D01*
X149779674Y-91139500D01*
X148030326Y-91139500D01*
X148030323Y-91139500D01*
X147957264Y-91154032D01*
X147957260Y-91154033D01*
X147874399Y-91209399D01*
X147819033Y-91292260D01*
X147819032Y-91292264D01*
X147804500Y-91365321D01*
X147804500Y-91365500D01*
X147804473Y-91365589D01*
X147803903Y-91371386D01*
X147802803Y-91371277D01*
X147784815Y-91432539D01*
X147732011Y-91478294D01*
X147680500Y-91489500D01*
X147222204Y-91489500D01*
X147155165Y-91469815D01*
X147134523Y-91453181D01*
X147081930Y-91400588D01*
X147081928Y-91400586D01*
X146941788Y-91298768D01*
X146787445Y-91220127D01*
X146622701Y-91166598D01*
X146622699Y-91166597D01*
X146622698Y-91166597D01*
X146491271Y-91145781D01*
X146451611Y-91139500D01*
X146278389Y-91139500D01*
X146238728Y-91145781D01*
X146107302Y-91166597D01*
X145942552Y-91220128D01*
X145788211Y-91298768D01*
X145708256Y-91356859D01*
X145648072Y-91400586D01*
X145648070Y-91400588D01*
X145648069Y-91400588D01*
X145595477Y-91453181D01*
X145534154Y-91486666D01*
X145507796Y-91489500D01*
X144682204Y-91489500D01*
X144615165Y-91469815D01*
X144594523Y-91453181D01*
X144541930Y-91400588D01*
X144541928Y-91400586D01*
X144401788Y-91298768D01*
X144247445Y-91220127D01*
X144082701Y-91166598D01*
X144082699Y-91166597D01*
X144082698Y-91166597D01*
X143951271Y-91145781D01*
X143911611Y-91139500D01*
X143738389Y-91139500D01*
X143698728Y-91145781D01*
X143567302Y-91166597D01*
X143402552Y-91220128D01*
X143248211Y-91298768D01*
X143168256Y-91356859D01*
X143108072Y-91400586D01*
X143108070Y-91400588D01*
X143108069Y-91400588D01*
X143055477Y-91453181D01*
X142994154Y-91486666D01*
X142967796Y-91489500D01*
X142142204Y-91489500D01*
X142075165Y-91469815D01*
X142054523Y-91453181D01*
X142001930Y-91400588D01*
X142001928Y-91400586D01*
X141861788Y-91298768D01*
X141707445Y-91220127D01*
X141542701Y-91166598D01*
X141542699Y-91166597D01*
X141542698Y-91166597D01*
X141411271Y-91145781D01*
X141371611Y-91139500D01*
X141198389Y-91139500D01*
X141158728Y-91145781D01*
X141027302Y-91166597D01*
X140862552Y-91220128D01*
X140708211Y-91298768D01*
X140628256Y-91356859D01*
X140568072Y-91400586D01*
X140568070Y-91400588D01*
X140568069Y-91400588D01*
X140515477Y-91453181D01*
X140454154Y-91486666D01*
X140427796Y-91489500D01*
X139602204Y-91489500D01*
X139535165Y-91469815D01*
X139514523Y-91453181D01*
X139461930Y-91400588D01*
X139461928Y-91400586D01*
X139321788Y-91298768D01*
X139167445Y-91220127D01*
X139002701Y-91166598D01*
X139002699Y-91166597D01*
X139002698Y-91166597D01*
X138871271Y-91145781D01*
X138831611Y-91139500D01*
X138658389Y-91139500D01*
X138618728Y-91145781D01*
X138487302Y-91166597D01*
X138322552Y-91220128D01*
X138168211Y-91298768D01*
X138088256Y-91356859D01*
X138028072Y-91400586D01*
X138028070Y-91400588D01*
X138028069Y-91400588D01*
X137975477Y-91453181D01*
X137914154Y-91486666D01*
X137887796Y-91489500D01*
X137062204Y-91489500D01*
X136995165Y-91469815D01*
X136974523Y-91453181D01*
X136921930Y-91400588D01*
X136921928Y-91400586D01*
X136781788Y-91298768D01*
X136627445Y-91220127D01*
X136462701Y-91166598D01*
X136462699Y-91166597D01*
X136462698Y-91166597D01*
X136331271Y-91145781D01*
X136291611Y-91139500D01*
X136118389Y-91139500D01*
X136078728Y-91145781D01*
X135947302Y-91166597D01*
X135782552Y-91220128D01*
X135628211Y-91298768D01*
X135548256Y-91356859D01*
X135488072Y-91400586D01*
X135488070Y-91400588D01*
X135488069Y-91400588D01*
X135435477Y-91453181D01*
X135374154Y-91486666D01*
X135347796Y-91489500D01*
X134522204Y-91489500D01*
X134455165Y-91469815D01*
X134434523Y-91453181D01*
X134381930Y-91400588D01*
X134381928Y-91400586D01*
X134241788Y-91298768D01*
X134087445Y-91220127D01*
X133922701Y-91166598D01*
X133922699Y-91166597D01*
X133922698Y-91166597D01*
X133791271Y-91145781D01*
X133751611Y-91139500D01*
X133578389Y-91139500D01*
X133538728Y-91145781D01*
X133407302Y-91166597D01*
X133242552Y-91220128D01*
X133088211Y-91298768D01*
X133008256Y-91356859D01*
X132948072Y-91400586D01*
X132948070Y-91400588D01*
X132948069Y-91400588D01*
X132895477Y-91453181D01*
X132834154Y-91486666D01*
X132807796Y-91489500D01*
X131982204Y-91489500D01*
X131915165Y-91469815D01*
X131894523Y-91453181D01*
X131841930Y-91400588D01*
X131841928Y-91400586D01*
X131701788Y-91298768D01*
X131547445Y-91220127D01*
X131382701Y-91166598D01*
X131382699Y-91166597D01*
X131382698Y-91166597D01*
X131251271Y-91145781D01*
X131211611Y-91139500D01*
X131038389Y-91139500D01*
X130998728Y-91145781D01*
X130867302Y-91166597D01*
X130702552Y-91220128D01*
X130548211Y-91298768D01*
X130468256Y-91356859D01*
X130408072Y-91400586D01*
X130408070Y-91400588D01*
X130408069Y-91400588D01*
X130355477Y-91453181D01*
X130294154Y-91486666D01*
X130267796Y-91489500D01*
X129442204Y-91489500D01*
X129375165Y-91469815D01*
X129354523Y-91453181D01*
X129301930Y-91400588D01*
X129301928Y-91400586D01*
X129161788Y-91298768D01*
X129007445Y-91220127D01*
X128842701Y-91166598D01*
X128842699Y-91166597D01*
X128842698Y-91166597D01*
X128711271Y-91145781D01*
X128671611Y-91139500D01*
X128498389Y-91139500D01*
X128458728Y-91145781D01*
X128327302Y-91166597D01*
X128162552Y-91220128D01*
X128008211Y-91298768D01*
X127928256Y-91356859D01*
X127868072Y-91400586D01*
X127868070Y-91400588D01*
X127868069Y-91400588D01*
X127815477Y-91453181D01*
X127754154Y-91486666D01*
X127727796Y-91489500D01*
X126902204Y-91489500D01*
X126835165Y-91469815D01*
X126814523Y-91453181D01*
X126761930Y-91400588D01*
X126761928Y-91400586D01*
X126621788Y-91298768D01*
X126467445Y-91220127D01*
X126302701Y-91166598D01*
X126302699Y-91166597D01*
X126302698Y-91166597D01*
X126171271Y-91145781D01*
X126131611Y-91139500D01*
X125958389Y-91139500D01*
X125918728Y-91145781D01*
X125787302Y-91166597D01*
X125622552Y-91220128D01*
X125468211Y-91298768D01*
X125388256Y-91356859D01*
X125328072Y-91400586D01*
X125328070Y-91400588D01*
X125328069Y-91400588D01*
X125275477Y-91453181D01*
X125214154Y-91486666D01*
X125187796Y-91489500D01*
X124362204Y-91489500D01*
X124295165Y-91469815D01*
X124274523Y-91453181D01*
X124221930Y-91400588D01*
X124221928Y-91400586D01*
X124081788Y-91298768D01*
X123927445Y-91220127D01*
X123762701Y-91166598D01*
X123762699Y-91166597D01*
X123762698Y-91166597D01*
X123631271Y-91145781D01*
X123591611Y-91139500D01*
X123418389Y-91139500D01*
X123378728Y-91145781D01*
X123247302Y-91166597D01*
X123082552Y-91220128D01*
X122928211Y-91298768D01*
X122848256Y-91356859D01*
X122788072Y-91400586D01*
X122788070Y-91400588D01*
X122788069Y-91400588D01*
X122735477Y-91453181D01*
X122674154Y-91486666D01*
X122647796Y-91489500D01*
X121822204Y-91489500D01*
X121755165Y-91469815D01*
X121734523Y-91453181D01*
X121681930Y-91400588D01*
X121681928Y-91400586D01*
X121541788Y-91298768D01*
X121387445Y-91220127D01*
X121222701Y-91166598D01*
X121222699Y-91166597D01*
X121222698Y-91166597D01*
X121091271Y-91145781D01*
X121051611Y-91139500D01*
X120878389Y-91139500D01*
X120838728Y-91145781D01*
X120707302Y-91166597D01*
X120542552Y-91220128D01*
X120388211Y-91298768D01*
X120308256Y-91356859D01*
X120248072Y-91400586D01*
X120248070Y-91400588D01*
X120248069Y-91400588D01*
X120195477Y-91453181D01*
X120134154Y-91486666D01*
X120107796Y-91489500D01*
X119282204Y-91489500D01*
X119215165Y-91469815D01*
X119194523Y-91453181D01*
X119141930Y-91400588D01*
X119141928Y-91400586D01*
X119001788Y-91298768D01*
X118847445Y-91220127D01*
X118682701Y-91166598D01*
X118682699Y-91166597D01*
X118682698Y-91166597D01*
X118551271Y-91145781D01*
X118511611Y-91139500D01*
X118338389Y-91139500D01*
X118298728Y-91145781D01*
X118167302Y-91166597D01*
X118002552Y-91220128D01*
X117848211Y-91298768D01*
X117768256Y-91356859D01*
X117708072Y-91400586D01*
X117708070Y-91400588D01*
X117708069Y-91400588D01*
X117655477Y-91453181D01*
X117594154Y-91486666D01*
X117567796Y-91489500D01*
X116742204Y-91489500D01*
X116675165Y-91469815D01*
X116654523Y-91453181D01*
X116601930Y-91400588D01*
X116601928Y-91400586D01*
X116461788Y-91298768D01*
X116307445Y-91220127D01*
X116142701Y-91166598D01*
X116142699Y-91166597D01*
X116142698Y-91166597D01*
X116011271Y-91145781D01*
X115971611Y-91139500D01*
X115798389Y-91139500D01*
X115758728Y-91145781D01*
X115627302Y-91166597D01*
X115462552Y-91220128D01*
X115308211Y-91298768D01*
X115228256Y-91356859D01*
X115168072Y-91400586D01*
X115168070Y-91400588D01*
X115168069Y-91400588D01*
X115115477Y-91453181D01*
X115054154Y-91486666D01*
X115027796Y-91489500D01*
X114202204Y-91489500D01*
X114135165Y-91469815D01*
X114114523Y-91453181D01*
X114061930Y-91400588D01*
X114061928Y-91400586D01*
X113921788Y-91298768D01*
X113767445Y-91220127D01*
X113602701Y-91166598D01*
X113602699Y-91166597D01*
X113602698Y-91166597D01*
X113471271Y-91145781D01*
X113431611Y-91139500D01*
X113258389Y-91139500D01*
X113218728Y-91145781D01*
X113087302Y-91166597D01*
X112922552Y-91220128D01*
X112768211Y-91298768D01*
X112688256Y-91356859D01*
X112628072Y-91400586D01*
X112628070Y-91400588D01*
X112628069Y-91400588D01*
X112575477Y-91453181D01*
X112514154Y-91486666D01*
X112487796Y-91489500D01*
X111662204Y-91489500D01*
X111595165Y-91469815D01*
X111574523Y-91453181D01*
X111521930Y-91400588D01*
X111521928Y-91400586D01*
X111381788Y-91298768D01*
X111227445Y-91220127D01*
X111062701Y-91166598D01*
X111062699Y-91166597D01*
X111062698Y-91166597D01*
X110931271Y-91145781D01*
X110891611Y-91139500D01*
X110718389Y-91139500D01*
X110678728Y-91145781D01*
X110547302Y-91166597D01*
X110382552Y-91220128D01*
X110228211Y-91298768D01*
X110148256Y-91356859D01*
X110088072Y-91400586D01*
X110088070Y-91400588D01*
X110088069Y-91400588D01*
X109965588Y-91523069D01*
X109965588Y-91523070D01*
X109965586Y-91523072D01*
X109921859Y-91583256D01*
X109863768Y-91663211D01*
X109785128Y-91817552D01*
X109731597Y-91982302D01*
X109704500Y-92153389D01*
X109704500Y-92326611D01*
X109731598Y-92497701D01*
X109785127Y-92662445D01*
X109863768Y-92816788D01*
X109965586Y-92956928D01*
X110088072Y-93079414D01*
X110228212Y-93181232D01*
X110382555Y-93259873D01*
X110547299Y-93313402D01*
X110547311Y-93313403D01*
X110548050Y-93313582D01*
X110548305Y-93313728D01*
X110551932Y-93314907D01*
X110551684Y-93315668D01*
X110608641Y-93348374D01*
X110640803Y-93410402D01*
X110634325Y-93479970D01*
X110591263Y-93534993D01*
X110538498Y-93556628D01*
X110512293Y-93560778D01*
X110325164Y-93621581D01*
X110149856Y-93710904D01*
X109990678Y-93826555D01*
X109851555Y-93965678D01*
X109735904Y-94124856D01*
X109646581Y-94300162D01*
X109585781Y-94487283D01*
X109579016Y-94530000D01*
X101000500Y-94530000D01*
X101000500Y-87644071D01*
X106599499Y-87644071D01*
X106624497Y-87769738D01*
X106624499Y-87769744D01*
X106673533Y-87888124D01*
X106673538Y-87888133D01*
X106744723Y-87994668D01*
X106744726Y-87994672D01*
X106835327Y-88085273D01*
X106835331Y-88085276D01*
X106941866Y-88156461D01*
X106941872Y-88156464D01*
X106941873Y-88156465D01*
X107060256Y-88205501D01*
X107060260Y-88205501D01*
X107060261Y-88205502D01*
X107185928Y-88230500D01*
X107318101Y-88230500D01*
X107385140Y-88250185D01*
X107405782Y-88266819D01*
X107409438Y-88270475D01*
X107495062Y-88319910D01*
X107542811Y-88332705D01*
X107542812Y-88332705D01*
X107552903Y-88335408D01*
X107590564Y-88345500D01*
X107590565Y-88345500D01*
X107590566Y-88345500D01*
X109822730Y-88345500D01*
X109889769Y-88365185D01*
X109935524Y-88417989D01*
X109945468Y-88487147D01*
X109916443Y-88550703D01*
X109857665Y-88588477D01*
X109846921Y-88591117D01*
X109832264Y-88594032D01*
X109832260Y-88594033D01*
X109749399Y-88649399D01*
X109694033Y-88732260D01*
X109694032Y-88732264D01*
X109679500Y-88805321D01*
X109679500Y-90554678D01*
X109694032Y-90627735D01*
X109694033Y-90627739D01*
X109694034Y-90627740D01*
X109749399Y-90710601D01*
X109832260Y-90765966D01*
X109832264Y-90765967D01*
X109905321Y-90780499D01*
X109905324Y-90780500D01*
X109905326Y-90780500D01*
X111654676Y-90780500D01*
X111654677Y-90780499D01*
X111727740Y-90765966D01*
X111810601Y-90710601D01*
X111865966Y-90627740D01*
X111880500Y-90554674D01*
X111880500Y-88805326D01*
X111880500Y-88805323D01*
X111880499Y-88805321D01*
X111865967Y-88732264D01*
X111865966Y-88732260D01*
X111852952Y-88712783D01*
X111810601Y-88649399D01*
X111746542Y-88606597D01*
X111727739Y-88594033D01*
X111727735Y-88594032D01*
X111713079Y-88591117D01*
X111651168Y-88558732D01*
X111616594Y-88498017D01*
X111620333Y-88428247D01*
X111661199Y-88371575D01*
X111726218Y-88345994D01*
X111737270Y-88345500D01*
X113135240Y-88345500D01*
X113202279Y-88365185D01*
X113248034Y-88417989D01*
X113257978Y-88487147D01*
X113228953Y-88550703D01*
X113170175Y-88588477D01*
X113154638Y-88591973D01*
X113062301Y-88606597D01*
X112897552Y-88660128D01*
X112743211Y-88738768D01*
X112685386Y-88780781D01*
X112603072Y-88840586D01*
X112603070Y-88840588D01*
X112603069Y-88840588D01*
X112480588Y-88963069D01*
X112480588Y-88963070D01*
X112480586Y-88963072D01*
X112436859Y-89023256D01*
X112378768Y-89103211D01*
X112300128Y-89257552D01*
X112246597Y-89422302D01*
X112219500Y-89593389D01*
X112219500Y-89766611D01*
X112246598Y-89937701D01*
X112300127Y-90102445D01*
X112378768Y-90256788D01*
X112480586Y-90396928D01*
X112603072Y-90519414D01*
X112743212Y-90621232D01*
X112897555Y-90699873D01*
X113062299Y-90753402D01*
X113233389Y-90780500D01*
X113233390Y-90780500D01*
X113406610Y-90780500D01*
X113406611Y-90780500D01*
X113577701Y-90753402D01*
X113742445Y-90699873D01*
X113896788Y-90621232D01*
X114036928Y-90519414D01*
X114159414Y-90396928D01*
X114261232Y-90256788D01*
X114339873Y-90102445D01*
X114393402Y-89937701D01*
X114420500Y-89766611D01*
X114420500Y-89593389D01*
X114393402Y-89422299D01*
X114339873Y-89257555D01*
X114261232Y-89103212D01*
X114159414Y-88963072D01*
X114036928Y-88840586D01*
X113896788Y-88738768D01*
X113742445Y-88660127D01*
X113577701Y-88606598D01*
X113577699Y-88606597D01*
X113577698Y-88606597D01*
X113485362Y-88591973D01*
X113422228Y-88562044D01*
X113385296Y-88502733D01*
X113386294Y-88432870D01*
X113424904Y-88374637D01*
X113488867Y-88346523D01*
X113504760Y-88345500D01*
X115675240Y-88345500D01*
X115742279Y-88365185D01*
X115788034Y-88417989D01*
X115797978Y-88487147D01*
X115768953Y-88550703D01*
X115710175Y-88588477D01*
X115694638Y-88591973D01*
X115602301Y-88606597D01*
X115437552Y-88660128D01*
X115283211Y-88738768D01*
X115225386Y-88780781D01*
X115143072Y-88840586D01*
X115143070Y-88840588D01*
X115143069Y-88840588D01*
X115020588Y-88963069D01*
X115020588Y-88963070D01*
X115020586Y-88963072D01*
X114976859Y-89023256D01*
X114918768Y-89103211D01*
X114840128Y-89257552D01*
X114786597Y-89422302D01*
X114759500Y-89593389D01*
X114759500Y-89766611D01*
X114786598Y-89937701D01*
X114840127Y-90102445D01*
X114918768Y-90256788D01*
X115020586Y-90396928D01*
X115143072Y-90519414D01*
X115283212Y-90621232D01*
X115437555Y-90699873D01*
X115602299Y-90753402D01*
X115773389Y-90780500D01*
X115773390Y-90780500D01*
X115946610Y-90780500D01*
X115946611Y-90780500D01*
X116117701Y-90753402D01*
X116282445Y-90699873D01*
X116436788Y-90621232D01*
X116576928Y-90519414D01*
X116699414Y-90396928D01*
X116801232Y-90256788D01*
X116879873Y-90102445D01*
X116933402Y-89937701D01*
X116960500Y-89766611D01*
X116960500Y-89593389D01*
X116933402Y-89422299D01*
X116879873Y-89257555D01*
X116801232Y-89103212D01*
X116699414Y-88963072D01*
X116576928Y-88840586D01*
X116436788Y-88738768D01*
X116282445Y-88660127D01*
X116117701Y-88606598D01*
X116117699Y-88606597D01*
X116117698Y-88606597D01*
X116025362Y-88591973D01*
X115962228Y-88562044D01*
X115925296Y-88502733D01*
X115926294Y-88432870D01*
X115964904Y-88374637D01*
X116028867Y-88346523D01*
X116044760Y-88345500D01*
X117382265Y-88345500D01*
X117392813Y-88344809D01*
X117620564Y-88344809D01*
X117620565Y-88344809D01*
X118219603Y-88344809D01*
X118286642Y-88364494D01*
X118332397Y-88417298D01*
X118342341Y-88486456D01*
X118313316Y-88550012D01*
X118254538Y-88587786D01*
X118239002Y-88591281D01*
X118234638Y-88591973D01*
X118142301Y-88606597D01*
X117977552Y-88660128D01*
X117823211Y-88738768D01*
X117765386Y-88780781D01*
X117683072Y-88840586D01*
X117683070Y-88840588D01*
X117683069Y-88840588D01*
X117560588Y-88963069D01*
X117560588Y-88963070D01*
X117560586Y-88963072D01*
X117516859Y-89023256D01*
X117458768Y-89103211D01*
X117380128Y-89257552D01*
X117326597Y-89422302D01*
X117299500Y-89593389D01*
X117299500Y-89766611D01*
X117326598Y-89937701D01*
X117380127Y-90102445D01*
X117458768Y-90256788D01*
X117560586Y-90396928D01*
X117683072Y-90519414D01*
X117823212Y-90621232D01*
X117977555Y-90699873D01*
X118142299Y-90753402D01*
X118313389Y-90780500D01*
X118313390Y-90780500D01*
X118486610Y-90780500D01*
X118486611Y-90780500D01*
X118657701Y-90753402D01*
X118822445Y-90699873D01*
X118976788Y-90621232D01*
X119116928Y-90519414D01*
X119239414Y-90396928D01*
X119341232Y-90256788D01*
X119419873Y-90102445D01*
X119473402Y-89937701D01*
X119500500Y-89766611D01*
X119500500Y-89593389D01*
X119473402Y-89422299D01*
X119419873Y-89257555D01*
X119341232Y-89103212D01*
X119239414Y-88963072D01*
X119116928Y-88840586D01*
X118976788Y-88738768D01*
X118822445Y-88660127D01*
X118657701Y-88606598D01*
X118657699Y-88606597D01*
X118657698Y-88606597D01*
X118565362Y-88591973D01*
X118560998Y-88591281D01*
X118497865Y-88561353D01*
X118460933Y-88502042D01*
X118461931Y-88432179D01*
X118500541Y-88373946D01*
X118564504Y-88345832D01*
X118580397Y-88344809D01*
X119314192Y-88344809D01*
X119381231Y-88364494D01*
X119401873Y-88381128D01*
X119495327Y-88474582D01*
X119495331Y-88474585D01*
X119601866Y-88545770D01*
X119601875Y-88545775D01*
X119623178Y-88554599D01*
X119720256Y-88594810D01*
X119720260Y-88594810D01*
X119720261Y-88594811D01*
X119845928Y-88619809D01*
X119845931Y-88619809D01*
X119974071Y-88619809D01*
X120058615Y-88602991D01*
X120099744Y-88594810D01*
X120218127Y-88545774D01*
X120324669Y-88474585D01*
X120371007Y-88428247D01*
X120418127Y-88381128D01*
X120479450Y-88347643D01*
X120505808Y-88344809D01*
X120759603Y-88344809D01*
X120826642Y-88364494D01*
X120872397Y-88417298D01*
X120882341Y-88486456D01*
X120853316Y-88550012D01*
X120794538Y-88587786D01*
X120779002Y-88591281D01*
X120774638Y-88591973D01*
X120682301Y-88606597D01*
X120517549Y-88660129D01*
X120413342Y-88713223D01*
X120413314Y-88713239D01*
X120363212Y-88738768D01*
X120321844Y-88768823D01*
X120321832Y-88768831D01*
X120223070Y-88840587D01*
X120100588Y-88963069D01*
X120100588Y-88963070D01*
X120100586Y-88963072D01*
X120056859Y-89023256D01*
X119998768Y-89103211D01*
X119920128Y-89257552D01*
X119866597Y-89422302D01*
X119839500Y-89593389D01*
X119839500Y-89766611D01*
X119866598Y-89937701D01*
X119920127Y-90102445D01*
X119998768Y-90256788D01*
X120100586Y-90396928D01*
X120223072Y-90519414D01*
X120363212Y-90621232D01*
X120517555Y-90699873D01*
X120682299Y-90753402D01*
X120853389Y-90780500D01*
X120853390Y-90780500D01*
X121026610Y-90780500D01*
X121026611Y-90780500D01*
X121197701Y-90753402D01*
X121362445Y-90699873D01*
X121516788Y-90621232D01*
X121656928Y-90519414D01*
X121779414Y-90396928D01*
X121881232Y-90256788D01*
X121959873Y-90102445D01*
X122013402Y-89937701D01*
X122040500Y-89766611D01*
X122040500Y-89593389D01*
X122013402Y-89422299D01*
X121959873Y-89257555D01*
X121881232Y-89103212D01*
X121779414Y-88963072D01*
X121656928Y-88840586D01*
X121516788Y-88738768D01*
X121362445Y-88660127D01*
X121197701Y-88606598D01*
X121197699Y-88606597D01*
X121197698Y-88606597D01*
X121105362Y-88591973D01*
X121100998Y-88591281D01*
X121037865Y-88561353D01*
X121000933Y-88502042D01*
X121001931Y-88432179D01*
X121040541Y-88373946D01*
X121104504Y-88345832D01*
X121120397Y-88344809D01*
X123299603Y-88344809D01*
X123366642Y-88364494D01*
X123412397Y-88417298D01*
X123422341Y-88486456D01*
X123393316Y-88550012D01*
X123334538Y-88587786D01*
X123319002Y-88591281D01*
X123314638Y-88591973D01*
X123222301Y-88606597D01*
X123057552Y-88660128D01*
X122903211Y-88738768D01*
X122845386Y-88780781D01*
X122763072Y-88840586D01*
X122763070Y-88840588D01*
X122763069Y-88840588D01*
X122640588Y-88963069D01*
X122640588Y-88963070D01*
X122640586Y-88963072D01*
X122596859Y-89023256D01*
X122538768Y-89103211D01*
X122460128Y-89257552D01*
X122406597Y-89422302D01*
X122379500Y-89593389D01*
X122379500Y-89766611D01*
X122406598Y-89937701D01*
X122460127Y-90102445D01*
X122538768Y-90256788D01*
X122640586Y-90396928D01*
X122763072Y-90519414D01*
X122903212Y-90621232D01*
X123057555Y-90699873D01*
X123222299Y-90753402D01*
X123393389Y-90780500D01*
X123393390Y-90780500D01*
X123566610Y-90780500D01*
X123566611Y-90780500D01*
X123737701Y-90753402D01*
X123902445Y-90699873D01*
X124056788Y-90621232D01*
X124196928Y-90519414D01*
X124319414Y-90396928D01*
X124421232Y-90256788D01*
X124499873Y-90102445D01*
X124553402Y-89937701D01*
X124580500Y-89766611D01*
X124580500Y-89593389D01*
X124553402Y-89422299D01*
X124499873Y-89257555D01*
X124421232Y-89103212D01*
X124319414Y-88963072D01*
X124196928Y-88840586D01*
X124056788Y-88738768D01*
X123902445Y-88660127D01*
X123737701Y-88606598D01*
X123737699Y-88606597D01*
X123737698Y-88606597D01*
X123645362Y-88591973D01*
X123640998Y-88591281D01*
X123577865Y-88561353D01*
X123540933Y-88502042D01*
X123541931Y-88432179D01*
X123580541Y-88373946D01*
X123644504Y-88345832D01*
X123660397Y-88344809D01*
X124464192Y-88344809D01*
X124531231Y-88364494D01*
X124551873Y-88381128D01*
X124645327Y-88474582D01*
X124645331Y-88474585D01*
X124751866Y-88545770D01*
X124751875Y-88545775D01*
X124773178Y-88554599D01*
X124870256Y-88594810D01*
X124870260Y-88594810D01*
X124870261Y-88594811D01*
X124995928Y-88619809D01*
X124995931Y-88619809D01*
X125124070Y-88619809D01*
X125148473Y-88614954D01*
X125234686Y-88597805D01*
X125304276Y-88604032D01*
X125359454Y-88646894D01*
X125382699Y-88712783D01*
X125366632Y-88780781D01*
X125331765Y-88819738D01*
X125303075Y-88840583D01*
X125303069Y-88840588D01*
X125180588Y-88963069D01*
X125180588Y-88963070D01*
X125180586Y-88963072D01*
X125136859Y-89023256D01*
X125078768Y-89103211D01*
X125000128Y-89257552D01*
X124946597Y-89422302D01*
X124919500Y-89593389D01*
X124919500Y-89766611D01*
X124946598Y-89937701D01*
X125000127Y-90102445D01*
X125078768Y-90256788D01*
X125180586Y-90396928D01*
X125303072Y-90519414D01*
X125443212Y-90621232D01*
X125597555Y-90699873D01*
X125762299Y-90753402D01*
X125933389Y-90780500D01*
X125933390Y-90780500D01*
X126106610Y-90780500D01*
X126106611Y-90780500D01*
X126277701Y-90753402D01*
X126442445Y-90699873D01*
X126596788Y-90621232D01*
X126736928Y-90519414D01*
X126859414Y-90396928D01*
X126961232Y-90256788D01*
X127039873Y-90102445D01*
X127093402Y-89937701D01*
X127120500Y-89766611D01*
X127120500Y-89593389D01*
X127093402Y-89422299D01*
X127039873Y-89257555D01*
X126961232Y-89103212D01*
X126859414Y-88963072D01*
X126736928Y-88840586D01*
X126596788Y-88738768D01*
X126442445Y-88660127D01*
X126277701Y-88606598D01*
X126277699Y-88606597D01*
X126277698Y-88606597D01*
X126185362Y-88591973D01*
X126180998Y-88591281D01*
X126117865Y-88561353D01*
X126080933Y-88502042D01*
X126081931Y-88432179D01*
X126120541Y-88373946D01*
X126184504Y-88345832D01*
X126200397Y-88344809D01*
X127184192Y-88344809D01*
X127251231Y-88364494D01*
X127271873Y-88381128D01*
X127365327Y-88474582D01*
X127365331Y-88474585D01*
X127471866Y-88545770D01*
X127471875Y-88545775D01*
X127493178Y-88554599D01*
X127590256Y-88594810D01*
X127590260Y-88594810D01*
X127590261Y-88594811D01*
X127715928Y-88619809D01*
X127765452Y-88619809D01*
X127832491Y-88639494D01*
X127878246Y-88692298D01*
X127888190Y-88761456D01*
X127859165Y-88825012D01*
X127845987Y-88838097D01*
X127843066Y-88840591D01*
X127720588Y-88963069D01*
X127720588Y-88963070D01*
X127720586Y-88963072D01*
X127676859Y-89023256D01*
X127618768Y-89103211D01*
X127540128Y-89257552D01*
X127486597Y-89422302D01*
X127459500Y-89593389D01*
X127459500Y-89766611D01*
X127486598Y-89937701D01*
X127540127Y-90102445D01*
X127618768Y-90256788D01*
X127720586Y-90396928D01*
X127843072Y-90519414D01*
X127983212Y-90621232D01*
X128137555Y-90699873D01*
X128302299Y-90753402D01*
X128473389Y-90780500D01*
X128473390Y-90780500D01*
X128646610Y-90780500D01*
X128646611Y-90780500D01*
X128817701Y-90753402D01*
X128982445Y-90699873D01*
X129136788Y-90621232D01*
X129276928Y-90519414D01*
X129399414Y-90396928D01*
X129501232Y-90256788D01*
X129579873Y-90102445D01*
X129633402Y-89937701D01*
X129660500Y-89766611D01*
X129660500Y-89593389D01*
X129633402Y-89422299D01*
X129579873Y-89257555D01*
X129501232Y-89103212D01*
X129399414Y-88963072D01*
X129276928Y-88840586D01*
X129136788Y-88738768D01*
X128982445Y-88660127D01*
X128817701Y-88606598D01*
X128817699Y-88606597D01*
X128817698Y-88606597D01*
X128725362Y-88591973D01*
X128720998Y-88591281D01*
X128657865Y-88561353D01*
X128620933Y-88502042D01*
X128621931Y-88432179D01*
X128660541Y-88373946D01*
X128724504Y-88345832D01*
X128740397Y-88344809D01*
X130919603Y-88344809D01*
X130986642Y-88364494D01*
X131032397Y-88417298D01*
X131042341Y-88486456D01*
X131013316Y-88550012D01*
X130954538Y-88587786D01*
X130939002Y-88591281D01*
X130934638Y-88591973D01*
X130842301Y-88606597D01*
X130677552Y-88660128D01*
X130523211Y-88738768D01*
X130465386Y-88780781D01*
X130383072Y-88840586D01*
X130383070Y-88840588D01*
X130383069Y-88840588D01*
X130260588Y-88963069D01*
X130260588Y-88963070D01*
X130260586Y-88963072D01*
X130216859Y-89023256D01*
X130158768Y-89103211D01*
X130080128Y-89257552D01*
X130026597Y-89422302D01*
X129999500Y-89593389D01*
X129999500Y-89766611D01*
X130026598Y-89937701D01*
X130080127Y-90102445D01*
X130158768Y-90256788D01*
X130260586Y-90396928D01*
X130383072Y-90519414D01*
X130523212Y-90621232D01*
X130677555Y-90699873D01*
X130842299Y-90753402D01*
X131013389Y-90780500D01*
X131013390Y-90780500D01*
X131186610Y-90780500D01*
X131186611Y-90780500D01*
X131357701Y-90753402D01*
X131522445Y-90699873D01*
X131676788Y-90621232D01*
X131816928Y-90519414D01*
X131939414Y-90396928D01*
X132041232Y-90256788D01*
X132119873Y-90102445D01*
X132173402Y-89937701D01*
X132200500Y-89766611D01*
X132200500Y-89593389D01*
X132173402Y-89422299D01*
X132119873Y-89257555D01*
X132041232Y-89103212D01*
X131939414Y-88963072D01*
X131816928Y-88840586D01*
X131676788Y-88738768D01*
X131522445Y-88660127D01*
X131357701Y-88606598D01*
X131357699Y-88606597D01*
X131357698Y-88606597D01*
X131265362Y-88591973D01*
X131260998Y-88591281D01*
X131197865Y-88561353D01*
X131160933Y-88502042D01*
X131161931Y-88432179D01*
X131200541Y-88373946D01*
X131264504Y-88345832D01*
X131280397Y-88344809D01*
X132264192Y-88344809D01*
X132331231Y-88364494D01*
X132351873Y-88381128D01*
X132445327Y-88474582D01*
X132445331Y-88474585D01*
X132551866Y-88545770D01*
X132551875Y-88545775D01*
X132573178Y-88554599D01*
X132670256Y-88594810D01*
X132670260Y-88594810D01*
X132670261Y-88594811D01*
X132795928Y-88619809D01*
X132845452Y-88619809D01*
X132912491Y-88639494D01*
X132958246Y-88692298D01*
X132968190Y-88761456D01*
X132939165Y-88825012D01*
X132925987Y-88838097D01*
X132923066Y-88840591D01*
X132800588Y-88963069D01*
X132800588Y-88963070D01*
X132800586Y-88963072D01*
X132756859Y-89023256D01*
X132698768Y-89103211D01*
X132620128Y-89257552D01*
X132566597Y-89422302D01*
X132539500Y-89593389D01*
X132539500Y-89766611D01*
X132566598Y-89937701D01*
X132620127Y-90102445D01*
X132698768Y-90256788D01*
X132800586Y-90396928D01*
X132923072Y-90519414D01*
X133063212Y-90621232D01*
X133217555Y-90699873D01*
X133382299Y-90753402D01*
X133553389Y-90780500D01*
X133553390Y-90780500D01*
X133726610Y-90780500D01*
X133726611Y-90780500D01*
X133897701Y-90753402D01*
X134062445Y-90699873D01*
X134216788Y-90621232D01*
X134356928Y-90519414D01*
X134479414Y-90396928D01*
X134581232Y-90256788D01*
X134659873Y-90102445D01*
X134713402Y-89937701D01*
X134740500Y-89766611D01*
X134740500Y-89593389D01*
X134713402Y-89422299D01*
X134659873Y-89257555D01*
X134581232Y-89103212D01*
X134479414Y-88963072D01*
X134356928Y-88840586D01*
X134216788Y-88738768D01*
X134062445Y-88660127D01*
X133897701Y-88606598D01*
X133897699Y-88606597D01*
X133897698Y-88606597D01*
X133805362Y-88591973D01*
X133800998Y-88591281D01*
X133737865Y-88561353D01*
X133700933Y-88502042D01*
X133701931Y-88432179D01*
X133740541Y-88373946D01*
X133804504Y-88345832D01*
X133820397Y-88344809D01*
X135999603Y-88344809D01*
X136066642Y-88364494D01*
X136112397Y-88417298D01*
X136122341Y-88486456D01*
X136093316Y-88550012D01*
X136034538Y-88587786D01*
X136019002Y-88591281D01*
X136014638Y-88591973D01*
X135922301Y-88606597D01*
X135757552Y-88660128D01*
X135603211Y-88738768D01*
X135545386Y-88780781D01*
X135463072Y-88840586D01*
X135463070Y-88840588D01*
X135463069Y-88840588D01*
X135340588Y-88963069D01*
X135340588Y-88963070D01*
X135340586Y-88963072D01*
X135296859Y-89023256D01*
X135238768Y-89103211D01*
X135160128Y-89257552D01*
X135106597Y-89422302D01*
X135079500Y-89593389D01*
X135079500Y-89766611D01*
X135106598Y-89937701D01*
X135160127Y-90102445D01*
X135238768Y-90256788D01*
X135340586Y-90396928D01*
X135463072Y-90519414D01*
X135603212Y-90621232D01*
X135757555Y-90699873D01*
X135922299Y-90753402D01*
X136093389Y-90780500D01*
X136093390Y-90780500D01*
X136266610Y-90780500D01*
X136266611Y-90780500D01*
X136437701Y-90753402D01*
X136602445Y-90699873D01*
X136756788Y-90621232D01*
X136896928Y-90519414D01*
X137019414Y-90396928D01*
X137121232Y-90256788D01*
X137199873Y-90102445D01*
X137253402Y-89937701D01*
X137280500Y-89766611D01*
X137280500Y-89593389D01*
X137253402Y-89422299D01*
X137199873Y-89257555D01*
X137121232Y-89103212D01*
X137019414Y-88963072D01*
X136896928Y-88840586D01*
X136756788Y-88738768D01*
X136602445Y-88660127D01*
X136437701Y-88606598D01*
X136437699Y-88606597D01*
X136437698Y-88606597D01*
X136345362Y-88591973D01*
X136340998Y-88591281D01*
X136277865Y-88561353D01*
X136240933Y-88502042D01*
X136241931Y-88432179D01*
X136280541Y-88373946D01*
X136344504Y-88345832D01*
X136360397Y-88344809D01*
X138539603Y-88344809D01*
X138606642Y-88364494D01*
X138652397Y-88417298D01*
X138662341Y-88486456D01*
X138633316Y-88550012D01*
X138574538Y-88587786D01*
X138559002Y-88591281D01*
X138554638Y-88591973D01*
X138462301Y-88606597D01*
X138297552Y-88660128D01*
X138143211Y-88738768D01*
X138085386Y-88780781D01*
X138003072Y-88840586D01*
X138003070Y-88840588D01*
X138003069Y-88840588D01*
X137880588Y-88963069D01*
X137880588Y-88963070D01*
X137880586Y-88963072D01*
X137836859Y-89023256D01*
X137778768Y-89103211D01*
X137700128Y-89257552D01*
X137646597Y-89422302D01*
X137619500Y-89593389D01*
X137619500Y-89766611D01*
X137646598Y-89937701D01*
X137700127Y-90102445D01*
X137778768Y-90256788D01*
X137880586Y-90396928D01*
X138003072Y-90519414D01*
X138143212Y-90621232D01*
X138297555Y-90699873D01*
X138462299Y-90753402D01*
X138633389Y-90780500D01*
X138633390Y-90780500D01*
X138806610Y-90780500D01*
X138806611Y-90780500D01*
X138977701Y-90753402D01*
X139142445Y-90699873D01*
X139296788Y-90621232D01*
X139436928Y-90519414D01*
X139559414Y-90396928D01*
X139661232Y-90256788D01*
X139739873Y-90102445D01*
X139793402Y-89937701D01*
X139820500Y-89766611D01*
X139820500Y-89593389D01*
X139793402Y-89422299D01*
X139739873Y-89257555D01*
X139661232Y-89103212D01*
X139559414Y-88963072D01*
X139436928Y-88840586D01*
X139296788Y-88738768D01*
X139142445Y-88660127D01*
X138977701Y-88606598D01*
X138977699Y-88606597D01*
X138977698Y-88606597D01*
X138885362Y-88591973D01*
X138880998Y-88591281D01*
X138817865Y-88561353D01*
X138780933Y-88502042D01*
X138781931Y-88432179D01*
X138820541Y-88373946D01*
X138884504Y-88345832D01*
X138900397Y-88344809D01*
X139514192Y-88344809D01*
X139581231Y-88364494D01*
X139601873Y-88381128D01*
X139695327Y-88474582D01*
X139695331Y-88474585D01*
X139801866Y-88545770D01*
X139801875Y-88545775D01*
X139823178Y-88554599D01*
X139920256Y-88594810D01*
X139920260Y-88594810D01*
X139920261Y-88594811D01*
X140045928Y-88619809D01*
X140045931Y-88619809D01*
X140174071Y-88619809D01*
X140258615Y-88602991D01*
X140299744Y-88594810D01*
X140418127Y-88545774D01*
X140524669Y-88474585D01*
X140571007Y-88428247D01*
X140618127Y-88381128D01*
X140679450Y-88347643D01*
X140705808Y-88344809D01*
X141079603Y-88344809D01*
X141146642Y-88364494D01*
X141192397Y-88417298D01*
X141202341Y-88486456D01*
X141173316Y-88550012D01*
X141114538Y-88587786D01*
X141099002Y-88591281D01*
X141094638Y-88591973D01*
X141002301Y-88606597D01*
X140837552Y-88660128D01*
X140683211Y-88738768D01*
X140625386Y-88780781D01*
X140543072Y-88840586D01*
X140543070Y-88840588D01*
X140543069Y-88840588D01*
X140420588Y-88963069D01*
X140420588Y-88963070D01*
X140420586Y-88963072D01*
X140376859Y-89023256D01*
X140318768Y-89103211D01*
X140240128Y-89257552D01*
X140186597Y-89422302D01*
X140159500Y-89593389D01*
X140159500Y-89766611D01*
X140186598Y-89937701D01*
X140240127Y-90102445D01*
X140318768Y-90256788D01*
X140420586Y-90396928D01*
X140543072Y-90519414D01*
X140683212Y-90621232D01*
X140837555Y-90699873D01*
X141002299Y-90753402D01*
X141173389Y-90780500D01*
X141173390Y-90780500D01*
X141346610Y-90780500D01*
X141346611Y-90780500D01*
X141517701Y-90753402D01*
X141682445Y-90699873D01*
X141836788Y-90621232D01*
X141976928Y-90519414D01*
X142099414Y-90396928D01*
X142201232Y-90256788D01*
X142279873Y-90102445D01*
X142333402Y-89937701D01*
X142360500Y-89766611D01*
X142360500Y-89593389D01*
X142699500Y-89593389D01*
X142699500Y-89766611D01*
X142726598Y-89937701D01*
X142780127Y-90102445D01*
X142858768Y-90256788D01*
X142960586Y-90396928D01*
X143083072Y-90519414D01*
X143223212Y-90621232D01*
X143377555Y-90699873D01*
X143542299Y-90753402D01*
X143713389Y-90780500D01*
X143713390Y-90780500D01*
X143886610Y-90780500D01*
X143886611Y-90780500D01*
X144057701Y-90753402D01*
X144222445Y-90699873D01*
X144376788Y-90621232D01*
X144516928Y-90519414D01*
X144639414Y-90396928D01*
X144741232Y-90256788D01*
X144819873Y-90102445D01*
X144873402Y-89937701D01*
X144900500Y-89766611D01*
X144900500Y-89593389D01*
X145239500Y-89593389D01*
X145239500Y-89766611D01*
X145266598Y-89937701D01*
X145320127Y-90102445D01*
X145398768Y-90256788D01*
X145500586Y-90396928D01*
X145623072Y-90519414D01*
X145763212Y-90621232D01*
X145917555Y-90699873D01*
X146082299Y-90753402D01*
X146253389Y-90780500D01*
X146253390Y-90780500D01*
X146426610Y-90780500D01*
X146426611Y-90780500D01*
X146597701Y-90753402D01*
X146762445Y-90699873D01*
X146916788Y-90621232D01*
X147056928Y-90519414D01*
X147179414Y-90396928D01*
X147281232Y-90256788D01*
X147359873Y-90102445D01*
X147413402Y-89937701D01*
X147440500Y-89766611D01*
X147440500Y-89593389D01*
X147779500Y-89593389D01*
X147779500Y-89766611D01*
X147806598Y-89937701D01*
X147860127Y-90102445D01*
X147938768Y-90256788D01*
X148040586Y-90396928D01*
X148163072Y-90519414D01*
X148303212Y-90621232D01*
X148457555Y-90699873D01*
X148622299Y-90753402D01*
X148793389Y-90780500D01*
X148793390Y-90780500D01*
X148966610Y-90780500D01*
X148966611Y-90780500D01*
X149137701Y-90753402D01*
X149302445Y-90699873D01*
X149456788Y-90621232D01*
X149596928Y-90519414D01*
X149719414Y-90396928D01*
X149821232Y-90256788D01*
X149899873Y-90102445D01*
X149953402Y-89937701D01*
X149980500Y-89766611D01*
X149980500Y-89593389D01*
X149953402Y-89422299D01*
X149899873Y-89257555D01*
X149821232Y-89103212D01*
X149719414Y-88963072D01*
X149596928Y-88840586D01*
X149456788Y-88738768D01*
X149302445Y-88660127D01*
X149137701Y-88606598D01*
X149137699Y-88606597D01*
X149137698Y-88606597D01*
X149006271Y-88585781D01*
X148966611Y-88579500D01*
X148793389Y-88579500D01*
X148753728Y-88585781D01*
X148622302Y-88606597D01*
X148457552Y-88660128D01*
X148303211Y-88738768D01*
X148245386Y-88780781D01*
X148163072Y-88840586D01*
X148163070Y-88840588D01*
X148163069Y-88840588D01*
X148040588Y-88963069D01*
X148040588Y-88963070D01*
X148040586Y-88963072D01*
X147996859Y-89023256D01*
X147938768Y-89103211D01*
X147860128Y-89257552D01*
X147806597Y-89422302D01*
X147779500Y-89593389D01*
X147440500Y-89593389D01*
X147413402Y-89422299D01*
X147359873Y-89257555D01*
X147281232Y-89103212D01*
X147179414Y-88963072D01*
X147056928Y-88840586D01*
X146916788Y-88738768D01*
X146762445Y-88660127D01*
X146597701Y-88606598D01*
X146597699Y-88606597D01*
X146597698Y-88606597D01*
X146466271Y-88585781D01*
X146426611Y-88579500D01*
X146253389Y-88579500D01*
X146213728Y-88585781D01*
X146082302Y-88606597D01*
X145917552Y-88660128D01*
X145763211Y-88738768D01*
X145705386Y-88780781D01*
X145623072Y-88840586D01*
X145623070Y-88840588D01*
X145623069Y-88840588D01*
X145500588Y-88963069D01*
X145500588Y-88963070D01*
X145500586Y-88963072D01*
X145456859Y-89023256D01*
X145398768Y-89103211D01*
X145320128Y-89257552D01*
X145266597Y-89422302D01*
X145239500Y-89593389D01*
X144900500Y-89593389D01*
X144873402Y-89422299D01*
X144819873Y-89257555D01*
X144741232Y-89103212D01*
X144639414Y-88963072D01*
X144516928Y-88840586D01*
X144376788Y-88738768D01*
X144222445Y-88660127D01*
X144057701Y-88606598D01*
X144057699Y-88606597D01*
X144057698Y-88606597D01*
X143926271Y-88585781D01*
X143886611Y-88579500D01*
X143713389Y-88579500D01*
X143673728Y-88585781D01*
X143542302Y-88606597D01*
X143377552Y-88660128D01*
X143347624Y-88675376D01*
X143347604Y-88675387D01*
X143223212Y-88738768D01*
X143154542Y-88788659D01*
X143154528Y-88788668D01*
X143083078Y-88840581D01*
X143083069Y-88840588D01*
X142960588Y-88963069D01*
X142960588Y-88963070D01*
X142960586Y-88963072D01*
X142916859Y-89023256D01*
X142858768Y-89103211D01*
X142780128Y-89257552D01*
X142726597Y-89422302D01*
X142699500Y-89593389D01*
X142360500Y-89593389D01*
X142333402Y-89422299D01*
X142279873Y-89257555D01*
X142201232Y-89103212D01*
X142099414Y-88963072D01*
X141976928Y-88840586D01*
X141836788Y-88738768D01*
X141682445Y-88660127D01*
X141517701Y-88606598D01*
X141517699Y-88606597D01*
X141517698Y-88606597D01*
X141425362Y-88591973D01*
X141420998Y-88591281D01*
X141357865Y-88561353D01*
X141320933Y-88502042D01*
X141321931Y-88432179D01*
X141360541Y-88373946D01*
X141424504Y-88345832D01*
X141440397Y-88344809D01*
X142194192Y-88344809D01*
X142261231Y-88364494D01*
X142281873Y-88381128D01*
X142375327Y-88474582D01*
X142375331Y-88474585D01*
X142481866Y-88545770D01*
X142481875Y-88545775D01*
X142503178Y-88554599D01*
X142600256Y-88594810D01*
X142600260Y-88594810D01*
X142600261Y-88594811D01*
X142725928Y-88619809D01*
X142725931Y-88619809D01*
X142854071Y-88619809D01*
X142938615Y-88602991D01*
X142979744Y-88594810D01*
X143098127Y-88545774D01*
X143204669Y-88474585D01*
X143295276Y-88383978D01*
X143366465Y-88277436D01*
X143415501Y-88159053D01*
X143440500Y-88033378D01*
X143440500Y-87905240D01*
X143440500Y-87905237D01*
X143415502Y-87779570D01*
X143415501Y-87779569D01*
X143415501Y-87779565D01*
X143366465Y-87661182D01*
X143366464Y-87661181D01*
X143366461Y-87661175D01*
X143295276Y-87554640D01*
X143295273Y-87554636D01*
X143204672Y-87464035D01*
X143204668Y-87464032D01*
X143098133Y-87392847D01*
X143098124Y-87392842D01*
X142979744Y-87343808D01*
X142979739Y-87343807D01*
X142928866Y-87333687D01*
X142866956Y-87301301D01*
X142832382Y-87240585D01*
X142836123Y-87170816D01*
X142876990Y-87114144D01*
X142905611Y-87097507D01*
X142908127Y-87096465D01*
X143014669Y-87025276D01*
X143105276Y-86934669D01*
X143176465Y-86828127D01*
X143225501Y-86709744D01*
X143244402Y-86614724D01*
X143250500Y-86584071D01*
X143250500Y-86455928D01*
X143225502Y-86330261D01*
X143225501Y-86330260D01*
X143225501Y-86330256D01*
X143176465Y-86211873D01*
X143176464Y-86211872D01*
X143176461Y-86211866D01*
X143105276Y-86105331D01*
X143105273Y-86105327D01*
X143014672Y-86014726D01*
X143014668Y-86014723D01*
X142908133Y-85943538D01*
X142908124Y-85943533D01*
X142789744Y-85894499D01*
X142789739Y-85894497D01*
X142705307Y-85877702D01*
X142643396Y-85845316D01*
X142608823Y-85784600D01*
X142605500Y-85756085D01*
X142605500Y-78745807D01*
X142625185Y-78678768D01*
X142641819Y-78658125D01*
X142644665Y-78655278D01*
X142644669Y-78655276D01*
X142735276Y-78564669D01*
X142806465Y-78458127D01*
X142855501Y-78339744D01*
X142880500Y-78214069D01*
X142880500Y-78085931D01*
X142880500Y-78085928D01*
X142855502Y-77960261D01*
X142855501Y-77960260D01*
X142855501Y-77960256D01*
X142806465Y-77841873D01*
X142806464Y-77841872D01*
X142806461Y-77841866D01*
X142735276Y-77735331D01*
X142735273Y-77735327D01*
X142644672Y-77644726D01*
X142644668Y-77644723D01*
X142538133Y-77573538D01*
X142538124Y-77573533D01*
X142419744Y-77524499D01*
X142419738Y-77524497D01*
X142294071Y-77499500D01*
X142294069Y-77499500D01*
X142165931Y-77499500D01*
X142165929Y-77499500D01*
X142040261Y-77524497D01*
X142040255Y-77524499D01*
X141921875Y-77573533D01*
X141921866Y-77573538D01*
X141815331Y-77644723D01*
X141815327Y-77644726D01*
X141720416Y-77739638D01*
X141718552Y-77737774D01*
X141670247Y-77770670D01*
X141600402Y-77772532D01*
X141540638Y-77736338D01*
X141509929Y-77673578D01*
X141508153Y-77652666D01*
X141508153Y-76043154D01*
X141527838Y-75976115D01*
X141544472Y-75955472D01*
X141547318Y-75952625D01*
X141547322Y-75952623D01*
X141637929Y-75862016D01*
X141709118Y-75755474D01*
X141758154Y-75637091D01*
X141781895Y-75517740D01*
X141783153Y-75511418D01*
X141783153Y-75383275D01*
X141758155Y-75257608D01*
X141758154Y-75257607D01*
X141758154Y-75257603D01*
X141711342Y-75144590D01*
X141709119Y-75139222D01*
X141709114Y-75139213D01*
X141637929Y-75032678D01*
X141637926Y-75032674D01*
X141547325Y-74942073D01*
X141547321Y-74942070D01*
X141440786Y-74870885D01*
X141440777Y-74870880D01*
X141322397Y-74821846D01*
X141322391Y-74821844D01*
X141196724Y-74796847D01*
X141196722Y-74796847D01*
X141068584Y-74796847D01*
X141068582Y-74796847D01*
X140942914Y-74821844D01*
X140942908Y-74821846D01*
X140824528Y-74870880D01*
X140824519Y-74870885D01*
X140717984Y-74942070D01*
X140717980Y-74942073D01*
X140627379Y-75032674D01*
X140627376Y-75032678D01*
X140556191Y-75139213D01*
X140553318Y-75144590D01*
X140552127Y-75143953D01*
X140512605Y-75192994D01*
X140446310Y-75215057D01*
X140378611Y-75197776D01*
X140331002Y-75146637D01*
X140317888Y-75091136D01*
X140317888Y-74405156D01*
X140337573Y-74338117D01*
X140390377Y-74292362D01*
X140417696Y-74283539D01*
X140508702Y-74265436D01*
X140535050Y-74260195D01*
X140653433Y-74211159D01*
X140759975Y-74139970D01*
X140850582Y-74049363D01*
X140921771Y-73942821D01*
X140970807Y-73824438D01*
X140986390Y-73746099D01*
X140995806Y-73698765D01*
X140995806Y-73570622D01*
X140970808Y-73444955D01*
X140970807Y-73444954D01*
X140970807Y-73444950D01*
X140921771Y-73326567D01*
X140921770Y-73326566D01*
X140921767Y-73326560D01*
X140850582Y-73220025D01*
X140850579Y-73220021D01*
X140759978Y-73129420D01*
X140759974Y-73129417D01*
X140653439Y-73058232D01*
X140653430Y-73058227D01*
X140535050Y-73009193D01*
X140535044Y-73009191D01*
X140409377Y-72984194D01*
X140409375Y-72984194D01*
X140281237Y-72984194D01*
X140281235Y-72984194D01*
X140155567Y-73009191D01*
X140155561Y-73009193D01*
X140037181Y-73058227D01*
X140037172Y-73058232D01*
X139930637Y-73129417D01*
X139930633Y-73129420D01*
X139840032Y-73220021D01*
X139840029Y-73220025D01*
X139768844Y-73326560D01*
X139768839Y-73326569D01*
X139719805Y-73444949D01*
X139719803Y-73444955D01*
X139694806Y-73570622D01*
X139694806Y-73702793D01*
X139675121Y-73769832D01*
X139658489Y-73790472D01*
X139641913Y-73807047D01*
X139592479Y-73892671D01*
X139592479Y-73892672D01*
X139592478Y-73892674D01*
X139566888Y-73988177D01*
X139566888Y-73988179D01*
X139566888Y-83107945D01*
X139547203Y-83174984D01*
X139530569Y-83195626D01*
X139437114Y-83289080D01*
X139437111Y-83289084D01*
X139365926Y-83395619D01*
X139365921Y-83395628D01*
X139316887Y-83514008D01*
X139316885Y-83514014D01*
X139291888Y-83639681D01*
X139291888Y-83639684D01*
X139291888Y-83767822D01*
X139291888Y-83767824D01*
X139291887Y-83767824D01*
X139316885Y-83893491D01*
X139316887Y-83893497D01*
X139365921Y-84011877D01*
X139365926Y-84011886D01*
X139437111Y-84118421D01*
X139437114Y-84118425D01*
X139527715Y-84209026D01*
X139527719Y-84209029D01*
X139634254Y-84280214D01*
X139634260Y-84280217D01*
X139634261Y-84280218D01*
X139752644Y-84329254D01*
X139752648Y-84329254D01*
X139752649Y-84329255D01*
X139878316Y-84354253D01*
X139878319Y-84354253D01*
X140006459Y-84354253D01*
X140101858Y-84335276D01*
X140132132Y-84329254D01*
X140250515Y-84280218D01*
X140357057Y-84209029D01*
X140447664Y-84118422D01*
X140518853Y-84011880D01*
X140567889Y-83893497D01*
X140579017Y-83837555D01*
X140592888Y-83767824D01*
X140592888Y-83639681D01*
X140567890Y-83514014D01*
X140567889Y-83514013D01*
X140567889Y-83514009D01*
X140518853Y-83395626D01*
X140518852Y-83395625D01*
X140518849Y-83395619D01*
X140447664Y-83289084D01*
X140447661Y-83289080D01*
X140354207Y-83195626D01*
X140320722Y-83134303D01*
X140317888Y-83107945D01*
X140317888Y-82665428D01*
X140337573Y-82598389D01*
X140390377Y-82552634D01*
X140459535Y-82542690D01*
X140510777Y-82562324D01*
X140561872Y-82596465D01*
X140561875Y-82596467D01*
X140570045Y-82599851D01*
X140680256Y-82645502D01*
X140680260Y-82645502D01*
X140680261Y-82645503D01*
X140805928Y-82670501D01*
X140805931Y-82670501D01*
X140934071Y-82670501D01*
X141018615Y-82653683D01*
X141059744Y-82645502D01*
X141178127Y-82596466D01*
X141284669Y-82525277D01*
X141375276Y-82434670D01*
X141446465Y-82328128D01*
X141495501Y-82209745D01*
X141520500Y-82084070D01*
X141520500Y-81955932D01*
X141503852Y-81872241D01*
X141505695Y-81815952D01*
X141508153Y-81806783D01*
X141508153Y-78647333D01*
X141514402Y-78626050D01*
X141515999Y-78603924D01*
X141524055Y-78593177D01*
X141527838Y-78580294D01*
X141544600Y-78565769D01*
X141557907Y-78548018D01*
X141570493Y-78543332D01*
X141580642Y-78534539D01*
X141602596Y-78531382D01*
X141623387Y-78523643D01*
X141636508Y-78526506D01*
X141649800Y-78524595D01*
X141669977Y-78533809D01*
X141691650Y-78538539D01*
X141705523Y-78550043D01*
X141713356Y-78553620D01*
X141719891Y-78559708D01*
X141724478Y-78564301D01*
X141724724Y-78564669D01*
X141815331Y-78655276D01*
X141815345Y-78655285D01*
X141818238Y-78658182D01*
X141834876Y-78688700D01*
X141851666Y-78719448D01*
X141851672Y-78719507D01*
X141851683Y-78719527D01*
X141851679Y-78719574D01*
X141854500Y-78745807D01*
X141854500Y-86579436D01*
X141866725Y-86625062D01*
X141880088Y-86674933D01*
X141880089Y-86674937D01*
X141880090Y-86674938D01*
X141929525Y-86760562D01*
X141929526Y-86760563D01*
X142068154Y-86899192D01*
X142068155Y-86899194D01*
X142083575Y-86917983D01*
X142094723Y-86934668D01*
X142094728Y-86934674D01*
X142185327Y-87025273D01*
X142185331Y-87025276D01*
X142291866Y-87096461D01*
X142291875Y-87096466D01*
X142318692Y-87107574D01*
X142410256Y-87145501D01*
X142454907Y-87154382D01*
X142461131Y-87155621D01*
X142523042Y-87188005D01*
X142557616Y-87248721D01*
X142553877Y-87318491D01*
X142513011Y-87375163D01*
X142484405Y-87391794D01*
X142481881Y-87392839D01*
X142481866Y-87392847D01*
X142375331Y-87464032D01*
X142375327Y-87464035D01*
X142281873Y-87557490D01*
X142220550Y-87590975D01*
X142194192Y-87593809D01*
X140705808Y-87593809D01*
X140638769Y-87574124D01*
X140618127Y-87557490D01*
X140524672Y-87464035D01*
X140524668Y-87464032D01*
X140418133Y-87392847D01*
X140418124Y-87392842D01*
X140299744Y-87343808D01*
X140299738Y-87343806D01*
X140174071Y-87318809D01*
X140174069Y-87318809D01*
X140045931Y-87318809D01*
X140045929Y-87318809D01*
X139920261Y-87343806D01*
X139920255Y-87343808D01*
X139801875Y-87392842D01*
X139801866Y-87392847D01*
X139695331Y-87464032D01*
X139695327Y-87464035D01*
X139601873Y-87557490D01*
X139540550Y-87590975D01*
X139514192Y-87593809D01*
X135386453Y-87593809D01*
X135319414Y-87574124D01*
X135273659Y-87521320D01*
X135263715Y-87452162D01*
X135292740Y-87388606D01*
X135317562Y-87366707D01*
X135324732Y-87361915D01*
X135334669Y-87355276D01*
X135425276Y-87264669D01*
X135496465Y-87158127D01*
X135545501Y-87039744D01*
X135562458Y-86954497D01*
X135570500Y-86914071D01*
X135570500Y-86785928D01*
X135545502Y-86660261D01*
X135545501Y-86660260D01*
X135545501Y-86660256D01*
X135497155Y-86543538D01*
X135496466Y-86541875D01*
X135496461Y-86541866D01*
X135425276Y-86435331D01*
X135425273Y-86435327D01*
X135334672Y-86344726D01*
X135334668Y-86344723D01*
X135270609Y-86301920D01*
X135225804Y-86248308D01*
X135215500Y-86198818D01*
X135215500Y-76445807D01*
X135235185Y-76378768D01*
X135251819Y-76358125D01*
X135254665Y-76355278D01*
X135254669Y-76355276D01*
X135345276Y-76264669D01*
X135416465Y-76158127D01*
X135465501Y-76039744D01*
X135479747Y-75968127D01*
X135490500Y-75914071D01*
X135490500Y-75785928D01*
X135465502Y-75660261D01*
X135465501Y-75660260D01*
X135465501Y-75660256D01*
X135416465Y-75541873D01*
X135416464Y-75541872D01*
X135416461Y-75541866D01*
X135345276Y-75435331D01*
X135345273Y-75435327D01*
X135254672Y-75344726D01*
X135254668Y-75344723D01*
X135148133Y-75273538D01*
X135148124Y-75273533D01*
X135029744Y-75224499D01*
X135029738Y-75224497D01*
X134904071Y-75199500D01*
X134904069Y-75199500D01*
X134775931Y-75199500D01*
X134775929Y-75199500D01*
X134650261Y-75224497D01*
X134650255Y-75224499D01*
X134531875Y-75273533D01*
X134531866Y-75273538D01*
X134425331Y-75344723D01*
X134425327Y-75344726D01*
X134334726Y-75435327D01*
X134334723Y-75435331D01*
X134263538Y-75541866D01*
X134263533Y-75541875D01*
X134214497Y-75660259D01*
X134213159Y-75664672D01*
X134174860Y-75723109D01*
X134111046Y-75751563D01*
X134041980Y-75741000D01*
X133989588Y-75694774D01*
X133970500Y-75628672D01*
X133970500Y-75595928D01*
X133945502Y-75470261D01*
X133945501Y-75470260D01*
X133945501Y-75470256D01*
X133896465Y-75351873D01*
X133896464Y-75351872D01*
X133896461Y-75351866D01*
X133825276Y-75245331D01*
X133825273Y-75245327D01*
X133734672Y-75154726D01*
X133734668Y-75154723D01*
X133628133Y-75083538D01*
X133628124Y-75083533D01*
X133509744Y-75034499D01*
X133509738Y-75034497D01*
X133384071Y-75009500D01*
X133384069Y-75009500D01*
X133255931Y-75009500D01*
X133255929Y-75009500D01*
X133130261Y-75034497D01*
X133130255Y-75034499D01*
X133011875Y-75083533D01*
X133011866Y-75083538D01*
X132905331Y-75154723D01*
X132905327Y-75154726D01*
X132814726Y-75245327D01*
X132814723Y-75245331D01*
X132743532Y-75351876D01*
X132741278Y-75356093D01*
X132692313Y-75405935D01*
X132624175Y-75421392D01*
X132558496Y-75397557D01*
X132539588Y-75379633D01*
X132539584Y-75379638D01*
X132539406Y-75379460D01*
X132536061Y-75376289D01*
X132535281Y-75375338D01*
X132535276Y-75375331D01*
X132535269Y-75375324D01*
X132535265Y-75375319D01*
X132444672Y-75284726D01*
X132444668Y-75284723D01*
X132338133Y-75213538D01*
X132338124Y-75213533D01*
X132219744Y-75164499D01*
X132219738Y-75164497D01*
X132094071Y-75139500D01*
X132094069Y-75139500D01*
X131965931Y-75139500D01*
X131965929Y-75139500D01*
X131840261Y-75164497D01*
X131840255Y-75164499D01*
X131721875Y-75213533D01*
X131721866Y-75213538D01*
X131615331Y-75284723D01*
X131615327Y-75284726D01*
X131524726Y-75375327D01*
X131524723Y-75375331D01*
X131453538Y-75481866D01*
X131453533Y-75481875D01*
X131404499Y-75600255D01*
X131404497Y-75600261D01*
X131379500Y-75725928D01*
X131379500Y-75854069D01*
X131404497Y-75979738D01*
X131404499Y-75979744D01*
X131453533Y-76098124D01*
X131453535Y-76098127D01*
X131487933Y-76149607D01*
X131508811Y-76216283D01*
X131508831Y-76218498D01*
X131508831Y-84155854D01*
X131489146Y-84222893D01*
X131472512Y-84243535D01*
X131379057Y-84336989D01*
X131379054Y-84336993D01*
X131307869Y-84443528D01*
X131307864Y-84443537D01*
X131258830Y-84561917D01*
X131258828Y-84561923D01*
X131233831Y-84687590D01*
X131233831Y-84687593D01*
X131233831Y-84815731D01*
X131233831Y-84815733D01*
X131233830Y-84815733D01*
X131258828Y-84941400D01*
X131258830Y-84941406D01*
X131307864Y-85059786D01*
X131307869Y-85059795D01*
X131379054Y-85166330D01*
X131379057Y-85166334D01*
X131469658Y-85256935D01*
X131469662Y-85256938D01*
X131576197Y-85328123D01*
X131576206Y-85328128D01*
X131584661Y-85331630D01*
X131694587Y-85377163D01*
X131694591Y-85377163D01*
X131694592Y-85377164D01*
X131820259Y-85402162D01*
X131820262Y-85402162D01*
X131948402Y-85402162D01*
X132056389Y-85380681D01*
X132074075Y-85377163D01*
X132192458Y-85328127D01*
X132299000Y-85256938D01*
X132389607Y-85166331D01*
X132460796Y-85059789D01*
X132509832Y-84941406D01*
X132518013Y-84900277D01*
X132534831Y-84815733D01*
X132534831Y-84687590D01*
X132509833Y-84561923D01*
X132509832Y-84561922D01*
X132509832Y-84561918D01*
X132471905Y-84470354D01*
X132460797Y-84443537D01*
X132460792Y-84443528D01*
X132389607Y-84336993D01*
X132389604Y-84336989D01*
X132296150Y-84243535D01*
X132262665Y-84182212D01*
X132259831Y-84155854D01*
X132259831Y-82480466D01*
X132279516Y-82413427D01*
X132332320Y-82367672D01*
X132401478Y-82357728D01*
X132419843Y-82361810D01*
X132421011Y-82362164D01*
X132421025Y-82362170D01*
X132421039Y-82362172D01*
X132421040Y-82362173D01*
X132546697Y-82387169D01*
X132546700Y-82387169D01*
X132674840Y-82387169D01*
X132772853Y-82367672D01*
X132800513Y-82362170D01*
X132918896Y-82313134D01*
X133025438Y-82241945D01*
X133116045Y-82151338D01*
X133187234Y-82044796D01*
X133236270Y-81926413D01*
X133247045Y-81872243D01*
X133261269Y-81800740D01*
X133261269Y-81668567D01*
X133280954Y-81601528D01*
X133297588Y-81580886D01*
X133450386Y-81428089D01*
X133620474Y-81258001D01*
X133620475Y-81258000D01*
X133669910Y-81172376D01*
X133695500Y-81076873D01*
X133695500Y-76255807D01*
X133715185Y-76188768D01*
X133731819Y-76168125D01*
X133734665Y-76165278D01*
X133734669Y-76165276D01*
X133825276Y-76074669D01*
X133896465Y-75968127D01*
X133945501Y-75849744D01*
X133945502Y-75849738D01*
X133946840Y-75845330D01*
X133985138Y-75786892D01*
X134048950Y-75758436D01*
X134118017Y-75768997D01*
X134170410Y-75815222D01*
X134189500Y-75881327D01*
X134189500Y-75914069D01*
X134189500Y-75914071D01*
X134189499Y-75914071D01*
X134214497Y-76039738D01*
X134214499Y-76039744D01*
X134263533Y-76158124D01*
X134263538Y-76158133D01*
X134334722Y-76264667D01*
X134334723Y-76264668D01*
X134334724Y-76264669D01*
X134425331Y-76355276D01*
X134425333Y-76355277D01*
X134428181Y-76358125D01*
X134461666Y-76419448D01*
X134464500Y-76445807D01*
X134464500Y-86334192D01*
X134444815Y-86401231D01*
X134428181Y-86421873D01*
X134414726Y-86435327D01*
X134414723Y-86435331D01*
X134343538Y-86541866D01*
X134343533Y-86541875D01*
X134294499Y-86660255D01*
X134294497Y-86660261D01*
X134269500Y-86785928D01*
X134269500Y-86785931D01*
X134269500Y-86914069D01*
X134269500Y-86914071D01*
X134269499Y-86914071D01*
X134294497Y-87039738D01*
X134294499Y-87039744D01*
X134343533Y-87158124D01*
X134343538Y-87158133D01*
X134414723Y-87264668D01*
X134414726Y-87264672D01*
X134505327Y-87355273D01*
X134505331Y-87355276D01*
X134522438Y-87366707D01*
X134567243Y-87420320D01*
X134575950Y-87489645D01*
X134545795Y-87552672D01*
X134486352Y-87589391D01*
X134453547Y-87593809D01*
X133455808Y-87593809D01*
X133388769Y-87574124D01*
X133368127Y-87557490D01*
X133274672Y-87464035D01*
X133274668Y-87464032D01*
X133168133Y-87392847D01*
X133168124Y-87392842D01*
X133049744Y-87343808D01*
X133049738Y-87343806D01*
X132924071Y-87318809D01*
X132924069Y-87318809D01*
X132795931Y-87318809D01*
X132795929Y-87318809D01*
X132670261Y-87343806D01*
X132670255Y-87343808D01*
X132551875Y-87392842D01*
X132551866Y-87392847D01*
X132445331Y-87464032D01*
X132445327Y-87464035D01*
X132351873Y-87557490D01*
X132290550Y-87590975D01*
X132264192Y-87593809D01*
X128375808Y-87593809D01*
X128308769Y-87574124D01*
X128288127Y-87557490D01*
X128194672Y-87464035D01*
X128194668Y-87464032D01*
X128088133Y-87392847D01*
X128088121Y-87392841D01*
X128053580Y-87378533D01*
X127999178Y-87334691D01*
X127977114Y-87268397D01*
X127979418Y-87239780D01*
X127990500Y-87184070D01*
X127990500Y-87055928D01*
X127965502Y-86930261D01*
X127965501Y-86930260D01*
X127965501Y-86930256D01*
X127916465Y-86811873D01*
X127916464Y-86811872D01*
X127916461Y-86811866D01*
X127845276Y-86705331D01*
X127845273Y-86705327D01*
X127754672Y-86614726D01*
X127754668Y-86614723D01*
X127648133Y-86543538D01*
X127648124Y-86543533D01*
X127529744Y-86494499D01*
X127529738Y-86494497D01*
X127404071Y-86469500D01*
X127404069Y-86469500D01*
X127275931Y-86469500D01*
X127275929Y-86469500D01*
X127150261Y-86494497D01*
X127150255Y-86494499D01*
X127031875Y-86543533D01*
X127031866Y-86543538D01*
X126925331Y-86614723D01*
X126925327Y-86614726D01*
X126831873Y-86708181D01*
X126770550Y-86741666D01*
X126744192Y-86744500D01*
X124410564Y-86744500D01*
X124362812Y-86757295D01*
X124362811Y-86757294D01*
X124315063Y-86770089D01*
X124315058Y-86770091D01*
X124223795Y-86822783D01*
X124155895Y-86839256D01*
X124089868Y-86816404D01*
X124074114Y-86803077D01*
X123541819Y-86270782D01*
X123508334Y-86209459D01*
X123505500Y-86183101D01*
X123505500Y-84387683D01*
X123525185Y-84320644D01*
X123577989Y-84274889D01*
X123647147Y-84264945D01*
X123710703Y-84293970D01*
X123737271Y-84330836D01*
X123739116Y-84329851D01*
X123741989Y-84335227D01*
X123813174Y-84441762D01*
X123813177Y-84441766D01*
X123903778Y-84532367D01*
X123903782Y-84532370D01*
X124010317Y-84603555D01*
X124010323Y-84603558D01*
X124010324Y-84603559D01*
X124128707Y-84652595D01*
X124128711Y-84652595D01*
X124128712Y-84652596D01*
X124254379Y-84677594D01*
X124254382Y-84677594D01*
X124382522Y-84677594D01*
X124467066Y-84660776D01*
X124508195Y-84652595D01*
X124626578Y-84603559D01*
X124733120Y-84532370D01*
X124823727Y-84441763D01*
X124835934Y-84423493D01*
X124856481Y-84406320D01*
X124874497Y-84386503D01*
X124886177Y-84381501D01*
X124889541Y-84378690D01*
X124906924Y-84372614D01*
X124943907Y-84362705D01*
X124991659Y-84349910D01*
X125077283Y-84300475D01*
X125147196Y-84230562D01*
X126826474Y-82551284D01*
X126826475Y-82551283D01*
X126875910Y-82465659D01*
X126889906Y-82413427D01*
X126894710Y-82395500D01*
X126898104Y-82382829D01*
X126901500Y-82370157D01*
X126901500Y-82271285D01*
X126901500Y-74446565D01*
X126875910Y-74351062D01*
X126826475Y-74265438D01*
X126756562Y-74195525D01*
X126106819Y-73545782D01*
X126073334Y-73484459D01*
X126070500Y-73458101D01*
X126070500Y-73325928D01*
X126045502Y-73200261D01*
X126045501Y-73200260D01*
X126045501Y-73200256D01*
X125996465Y-73081873D01*
X125996464Y-73081872D01*
X125996461Y-73081866D01*
X125925276Y-72975331D01*
X125925273Y-72975327D01*
X125834672Y-72884726D01*
X125834668Y-72884723D01*
X125728133Y-72813538D01*
X125728124Y-72813533D01*
X125609744Y-72764499D01*
X125609738Y-72764497D01*
X125484071Y-72739500D01*
X125484069Y-72739500D01*
X125355931Y-72739500D01*
X125355929Y-72739500D01*
X125230261Y-72764497D01*
X125230255Y-72764499D01*
X125111875Y-72813533D01*
X125111866Y-72813538D01*
X125005331Y-72884723D01*
X125005327Y-72884726D01*
X124910416Y-72979638D01*
X124909154Y-72978376D01*
X124858361Y-73012965D01*
X124788516Y-73014826D01*
X124732588Y-72982642D01*
X124704672Y-72954726D01*
X124704668Y-72954723D01*
X124598133Y-72883538D01*
X124598124Y-72883533D01*
X124479744Y-72834499D01*
X124479738Y-72834497D01*
X124354071Y-72809500D01*
X124354069Y-72809500D01*
X124225931Y-72809500D01*
X124225929Y-72809500D01*
X124100261Y-72834497D01*
X124100255Y-72834499D01*
X123981875Y-72883533D01*
X123981866Y-72883538D01*
X123875331Y-72954723D01*
X123875327Y-72954726D01*
X123797681Y-73032373D01*
X123736358Y-73065858D01*
X123666666Y-73060874D01*
X123622319Y-73032373D01*
X123544672Y-72954726D01*
X123544668Y-72954723D01*
X123438133Y-72883538D01*
X123438124Y-72883533D01*
X123319744Y-72834499D01*
X123319738Y-72834497D01*
X123194071Y-72809500D01*
X123194069Y-72809500D01*
X123065931Y-72809500D01*
X123065929Y-72809500D01*
X122940261Y-72834497D01*
X122940255Y-72834499D01*
X122821875Y-72883533D01*
X122821866Y-72883538D01*
X122715331Y-72954723D01*
X122635375Y-73034679D01*
X122574051Y-73068163D01*
X122504360Y-73063179D01*
X122448426Y-73021307D01*
X122444592Y-73015888D01*
X122381680Y-72921734D01*
X122381677Y-72921730D01*
X122291076Y-72831129D01*
X122291072Y-72831126D01*
X122184537Y-72759941D01*
X122184528Y-72759936D01*
X122066148Y-72710902D01*
X122066142Y-72710900D01*
X121940475Y-72685903D01*
X121940473Y-72685903D01*
X121812335Y-72685903D01*
X121808303Y-72685903D01*
X121741264Y-72666218D01*
X121720622Y-72649584D01*
X121664564Y-72593526D01*
X121664563Y-72593525D01*
X121578939Y-72544090D01*
X121531187Y-72531295D01*
X121531185Y-72531294D01*
X121531183Y-72531293D01*
X121483437Y-72518500D01*
X121483436Y-72518500D01*
X119668716Y-72518500D01*
X119569844Y-72518500D01*
X119522092Y-72531295D01*
X119522091Y-72531294D01*
X119474343Y-72544089D01*
X119474342Y-72544089D01*
X119388715Y-72593527D01*
X116305218Y-75677024D01*
X116305216Y-75677026D01*
X116305216Y-75677027D01*
X116259925Y-75755474D01*
X116255780Y-75762653D01*
X116251556Y-75778417D01*
X116251556Y-75778419D01*
X116231289Y-75854057D01*
X116231286Y-75854069D01*
X116230191Y-75858152D01*
X116230191Y-84159356D01*
X116210506Y-84226395D01*
X116193872Y-84247037D01*
X116100417Y-84340491D01*
X116100414Y-84340495D01*
X116029229Y-84447030D01*
X116029224Y-84447039D01*
X115980190Y-84565419D01*
X115980188Y-84565425D01*
X115955191Y-84691092D01*
X115955191Y-84691095D01*
X115955191Y-84819233D01*
X115955191Y-84819235D01*
X115955190Y-84819235D01*
X115980188Y-84944902D01*
X115980190Y-84944908D01*
X116029224Y-85063288D01*
X116029229Y-85063297D01*
X116100414Y-85169832D01*
X116100417Y-85169836D01*
X116191018Y-85260437D01*
X116191022Y-85260440D01*
X116297557Y-85331625D01*
X116297563Y-85331628D01*
X116297564Y-85331629D01*
X116415947Y-85380665D01*
X116415951Y-85380665D01*
X116415952Y-85380666D01*
X116541619Y-85405664D01*
X116541622Y-85405664D01*
X116669762Y-85405664D01*
X116801409Y-85379477D01*
X116801648Y-85380681D01*
X116865057Y-85380112D01*
X116924172Y-85417358D01*
X116953766Y-85480650D01*
X116955191Y-85499398D01*
X116955191Y-87470500D01*
X116935506Y-87537539D01*
X116882702Y-87583294D01*
X116831191Y-87594500D01*
X108017893Y-87594500D01*
X107950854Y-87574815D01*
X107905099Y-87522011D01*
X107896276Y-87494692D01*
X107875502Y-87390261D01*
X107875501Y-87390260D01*
X107875501Y-87390256D01*
X107826465Y-87271873D01*
X107826464Y-87271872D01*
X107826461Y-87271866D01*
X107755276Y-87165331D01*
X107755273Y-87165327D01*
X107664672Y-87074726D01*
X107664668Y-87074723D01*
X107558133Y-87003538D01*
X107558124Y-87003533D01*
X107439744Y-86954499D01*
X107439738Y-86954497D01*
X107314071Y-86929500D01*
X107314069Y-86929500D01*
X107185931Y-86929500D01*
X107185929Y-86929500D01*
X107060261Y-86954497D01*
X107060255Y-86954499D01*
X106941875Y-87003533D01*
X106941866Y-87003538D01*
X106835331Y-87074723D01*
X106835327Y-87074726D01*
X106744726Y-87165327D01*
X106744723Y-87165331D01*
X106673538Y-87271866D01*
X106673533Y-87271875D01*
X106624499Y-87390255D01*
X106624497Y-87390261D01*
X106599500Y-87515928D01*
X106599500Y-87515931D01*
X106599500Y-87644069D01*
X106599500Y-87644071D01*
X106599499Y-87644071D01*
X101000500Y-87644071D01*
X101000500Y-65564071D01*
X104879499Y-65564071D01*
X104904497Y-65689738D01*
X104904499Y-65689744D01*
X104953533Y-65808124D01*
X104953538Y-65808133D01*
X105024723Y-65914668D01*
X105024726Y-65914672D01*
X105115327Y-66005273D01*
X105115331Y-66005276D01*
X105221866Y-66076461D01*
X105221872Y-66076464D01*
X105221873Y-66076465D01*
X105340256Y-66125501D01*
X105340260Y-66125501D01*
X105340261Y-66125502D01*
X105465928Y-66150500D01*
X105465931Y-66150500D01*
X105594071Y-66150500D01*
X105678615Y-66133682D01*
X105719744Y-66125501D01*
X105838127Y-66076465D01*
X105944669Y-66005276D01*
X106035276Y-65914669D01*
X106106465Y-65808127D01*
X106155501Y-65689744D01*
X106180500Y-65564069D01*
X106180500Y-65435931D01*
X106180500Y-65431898D01*
X106200185Y-65364859D01*
X106216819Y-65344217D01*
X106702347Y-64858690D01*
X108209219Y-63351819D01*
X108270542Y-63318334D01*
X108296900Y-63315500D01*
X109424101Y-63315500D01*
X109491140Y-63335185D01*
X109536895Y-63387989D01*
X109546839Y-63457147D01*
X109517814Y-63520703D01*
X109511782Y-63527181D01*
X105685781Y-67353181D01*
X105624458Y-67386666D01*
X105598100Y-67389500D01*
X105465929Y-67389500D01*
X105340261Y-67414497D01*
X105340255Y-67414499D01*
X105221875Y-67463533D01*
X105221866Y-67463538D01*
X105115331Y-67534723D01*
X105115327Y-67534726D01*
X105024726Y-67625327D01*
X105024723Y-67625331D01*
X104953538Y-67731866D01*
X104953533Y-67731875D01*
X104904499Y-67850255D01*
X104904497Y-67850261D01*
X104879500Y-67975928D01*
X104879500Y-67975931D01*
X104879500Y-68104069D01*
X104879500Y-68104071D01*
X104879499Y-68104071D01*
X104904497Y-68229738D01*
X104904499Y-68229744D01*
X104953533Y-68348124D01*
X104953538Y-68348133D01*
X105024723Y-68454668D01*
X105024726Y-68454672D01*
X105115327Y-68545273D01*
X105115331Y-68545276D01*
X105221866Y-68616461D01*
X105221872Y-68616464D01*
X105221873Y-68616465D01*
X105340256Y-68665501D01*
X105340260Y-68665501D01*
X105340261Y-68665502D01*
X105465928Y-68690500D01*
X105465931Y-68690500D01*
X105594071Y-68690500D01*
X105678615Y-68673682D01*
X105719744Y-68665501D01*
X105838127Y-68616465D01*
X105944669Y-68545276D01*
X106035276Y-68454669D01*
X106106465Y-68348127D01*
X106155501Y-68229744D01*
X106180500Y-68104069D01*
X106180500Y-67975931D01*
X106180500Y-67971898D01*
X106200185Y-67904859D01*
X106216819Y-67884217D01*
X109869218Y-64231819D01*
X109930541Y-64198334D01*
X109956899Y-64195500D01*
X111124100Y-64195500D01*
X111191139Y-64215185D01*
X111236894Y-64267989D01*
X111246838Y-64337147D01*
X111217813Y-64400703D01*
X111211781Y-64407181D01*
X105725781Y-69893181D01*
X105664458Y-69926666D01*
X105638100Y-69929500D01*
X105505929Y-69929500D01*
X105380261Y-69954497D01*
X105380255Y-69954499D01*
X105261875Y-70003533D01*
X105261866Y-70003538D01*
X105155331Y-70074723D01*
X105155327Y-70074726D01*
X105064726Y-70165327D01*
X105064723Y-70165331D01*
X104993538Y-70271866D01*
X104993533Y-70271875D01*
X104944499Y-70390255D01*
X104944497Y-70390261D01*
X104919500Y-70515928D01*
X104919500Y-70515931D01*
X104919500Y-70644069D01*
X104919500Y-70644071D01*
X104919499Y-70644071D01*
X104944497Y-70769738D01*
X104944499Y-70769744D01*
X104993533Y-70888124D01*
X104993538Y-70888133D01*
X105064723Y-70994668D01*
X105064726Y-70994672D01*
X105155327Y-71085273D01*
X105155331Y-71085276D01*
X105261866Y-71156461D01*
X105261872Y-71156464D01*
X105261873Y-71156465D01*
X105380256Y-71205501D01*
X105380260Y-71205501D01*
X105380261Y-71205502D01*
X105505928Y-71230500D01*
X105505931Y-71230500D01*
X105634071Y-71230500D01*
X105718615Y-71213682D01*
X105759744Y-71205501D01*
X105878127Y-71156465D01*
X105984669Y-71085276D01*
X106075276Y-70994669D01*
X106146465Y-70888127D01*
X106195501Y-70769744D01*
X106220500Y-70644069D01*
X106220500Y-70515931D01*
X106220500Y-70511898D01*
X106240185Y-70444859D01*
X106256819Y-70424217D01*
X111569219Y-65111819D01*
X111630542Y-65078334D01*
X111656900Y-65075500D01*
X121094192Y-65075500D01*
X121161231Y-65095185D01*
X121181873Y-65111819D01*
X121275327Y-65205273D01*
X121275331Y-65205276D01*
X121381866Y-65276461D01*
X121381872Y-65276464D01*
X121381873Y-65276465D01*
X121500256Y-65325501D01*
X121500260Y-65325501D01*
X121500261Y-65325502D01*
X121625928Y-65350500D01*
X121625931Y-65350500D01*
X121754071Y-65350500D01*
X121838615Y-65333682D01*
X121879744Y-65325501D01*
X121998127Y-65276465D01*
X122104669Y-65205276D01*
X122195276Y-65114669D01*
X122266465Y-65008127D01*
X122315501Y-64889744D01*
X122340500Y-64764069D01*
X122340500Y-64635931D01*
X122333934Y-64602923D01*
X122340160Y-64533334D01*
X122383022Y-64478156D01*
X122431359Y-64457115D01*
X122459629Y-64451491D01*
X122489744Y-64445501D01*
X122608127Y-64396465D01*
X122714669Y-64325276D01*
X122805276Y-64234669D01*
X122876465Y-64128127D01*
X122925501Y-64009744D01*
X122950500Y-63884069D01*
X122950500Y-63755931D01*
X122947071Y-63738692D01*
X122953297Y-63669102D01*
X122996159Y-63613924D01*
X123062049Y-63590678D01*
X123068688Y-63590500D01*
X123114071Y-63590500D01*
X123198615Y-63573682D01*
X123239744Y-63565501D01*
X123358127Y-63516465D01*
X123464669Y-63445276D01*
X123555276Y-63354669D01*
X123626465Y-63248127D01*
X123675501Y-63129744D01*
X123683682Y-63088615D01*
X123700500Y-63004071D01*
X123700500Y-62875928D01*
X123699903Y-62869866D01*
X123701853Y-62869673D01*
X123707281Y-62809089D01*
X123750149Y-62753916D01*
X123816041Y-62730677D01*
X123822667Y-62730500D01*
X123854071Y-62730500D01*
X123938615Y-62713682D01*
X123979744Y-62705501D01*
X124098127Y-62656465D01*
X124204669Y-62585276D01*
X124295276Y-62494669D01*
X124366465Y-62388127D01*
X124415501Y-62269744D01*
X124440500Y-62144069D01*
X124440500Y-62064500D01*
X124460185Y-61997461D01*
X124512989Y-61951706D01*
X124564500Y-61940500D01*
X124624071Y-61940500D01*
X124708615Y-61923682D01*
X124749744Y-61915501D01*
X124868127Y-61866465D01*
X124974669Y-61795276D01*
X125065276Y-61704669D01*
X125136465Y-61598127D01*
X125185501Y-61479744D01*
X125210500Y-61354069D01*
X125210500Y-61225931D01*
X125210500Y-61225928D01*
X125185502Y-61100261D01*
X125185501Y-61100260D01*
X125185501Y-61100256D01*
X125136465Y-60981873D01*
X125136464Y-60981872D01*
X125136461Y-60981866D01*
X125065276Y-60875331D01*
X125065273Y-60875327D01*
X124974672Y-60784726D01*
X124974668Y-60784723D01*
X124868133Y-60713538D01*
X124868124Y-60713533D01*
X124749744Y-60664499D01*
X124749738Y-60664497D01*
X124624071Y-60639500D01*
X124624069Y-60639500D01*
X124495931Y-60639500D01*
X124491900Y-60639500D01*
X124424861Y-60619815D01*
X124404219Y-60603181D01*
X123934823Y-60133786D01*
X123920563Y-60119526D01*
X123920562Y-60119525D01*
X123834938Y-60070090D01*
X123787186Y-60057295D01*
X123775099Y-60054056D01*
X123775095Y-60054054D01*
X123739436Y-60044500D01*
X123739435Y-60044500D01*
X106325808Y-60044500D01*
X106258769Y-60024815D01*
X106238127Y-60008181D01*
X106144672Y-59914726D01*
X106144668Y-59914723D01*
X106038133Y-59843538D01*
X106038124Y-59843533D01*
X105919744Y-59794499D01*
X105919738Y-59794497D01*
X105794071Y-59769500D01*
X105794069Y-59769500D01*
X105665931Y-59769500D01*
X105665929Y-59769500D01*
X105540261Y-59794497D01*
X105540255Y-59794499D01*
X105421875Y-59843533D01*
X105421866Y-59843538D01*
X105315331Y-59914723D01*
X105315327Y-59914726D01*
X105224726Y-60005327D01*
X105224723Y-60005331D01*
X105153538Y-60111866D01*
X105153533Y-60111875D01*
X105104499Y-60230255D01*
X105104497Y-60230261D01*
X105079500Y-60355928D01*
X105079500Y-60355931D01*
X105079500Y-60484069D01*
X105079500Y-60484071D01*
X105079499Y-60484071D01*
X105104497Y-60609738D01*
X105104499Y-60609744D01*
X105153533Y-60728124D01*
X105153538Y-60728133D01*
X105224723Y-60834668D01*
X105224726Y-60834672D01*
X105315327Y-60925273D01*
X105315331Y-60925276D01*
X105421866Y-60996461D01*
X105421872Y-60996464D01*
X105421873Y-60996465D01*
X105540256Y-61045501D01*
X105540260Y-61045501D01*
X105540261Y-61045502D01*
X105665928Y-61070500D01*
X105665931Y-61070500D01*
X105794071Y-61070500D01*
X105878615Y-61053682D01*
X105919744Y-61045501D01*
X106038127Y-60996465D01*
X106144669Y-60925276D01*
X106144672Y-60925273D01*
X106238127Y-60831819D01*
X106299450Y-60798334D01*
X106325808Y-60795500D01*
X123483101Y-60795500D01*
X123550140Y-60815185D01*
X123570781Y-60831818D01*
X123873182Y-61134219D01*
X123887884Y-61161145D01*
X123904477Y-61186964D01*
X123905368Y-61193164D01*
X123906666Y-61195541D01*
X123909500Y-61221899D01*
X123909500Y-61305500D01*
X123889815Y-61372539D01*
X123837011Y-61418294D01*
X123785500Y-61429500D01*
X123725929Y-61429500D01*
X123600261Y-61454497D01*
X123600255Y-61454499D01*
X123481875Y-61503533D01*
X123481866Y-61503538D01*
X123375332Y-61574722D01*
X123351931Y-61598124D01*
X123301872Y-61648182D01*
X123240552Y-61681666D01*
X123214193Y-61684500D01*
X106540564Y-61684500D01*
X106492812Y-61697295D01*
X106492811Y-61697294D01*
X106445063Y-61710089D01*
X106445062Y-61710089D01*
X106359435Y-61759527D01*
X105845781Y-62273181D01*
X105784458Y-62306666D01*
X105758100Y-62309500D01*
X105625929Y-62309500D01*
X105500261Y-62334497D01*
X105500255Y-62334499D01*
X105381875Y-62383533D01*
X105381866Y-62383538D01*
X105275331Y-62454723D01*
X105275327Y-62454726D01*
X105184726Y-62545327D01*
X105184723Y-62545331D01*
X105113538Y-62651866D01*
X105113533Y-62651875D01*
X105064499Y-62770255D01*
X105064497Y-62770261D01*
X105039500Y-62895928D01*
X105039500Y-62895931D01*
X105039500Y-63024069D01*
X105039500Y-63024071D01*
X105039499Y-63024071D01*
X105064497Y-63149738D01*
X105064499Y-63149744D01*
X105113533Y-63268124D01*
X105113538Y-63268133D01*
X105184723Y-63374668D01*
X105184726Y-63374672D01*
X105275327Y-63465273D01*
X105275331Y-63465276D01*
X105381866Y-63536461D01*
X105381872Y-63536464D01*
X105381873Y-63536465D01*
X105500256Y-63585501D01*
X105500260Y-63585501D01*
X105500261Y-63585502D01*
X105625928Y-63610500D01*
X105625931Y-63610500D01*
X105754071Y-63610500D01*
X105854613Y-63590500D01*
X105879744Y-63585501D01*
X105998127Y-63536465D01*
X106104669Y-63465276D01*
X106195276Y-63374669D01*
X106266465Y-63268127D01*
X106315501Y-63149744D01*
X106340500Y-63024069D01*
X106340500Y-62895931D01*
X106340500Y-62891898D01*
X106360185Y-62824859D01*
X106376819Y-62804217D01*
X106540334Y-62640703D01*
X106709218Y-62471819D01*
X106770541Y-62438334D01*
X106796899Y-62435500D01*
X107764100Y-62435500D01*
X107831139Y-62455185D01*
X107876894Y-62507989D01*
X107886838Y-62577147D01*
X107857813Y-62640703D01*
X107851781Y-62647181D01*
X105685781Y-64813181D01*
X105624458Y-64846666D01*
X105598100Y-64849500D01*
X105465929Y-64849500D01*
X105340261Y-64874497D01*
X105340255Y-64874499D01*
X105221875Y-64923533D01*
X105221866Y-64923538D01*
X105115331Y-64994723D01*
X105115327Y-64994726D01*
X105024726Y-65085327D01*
X105024723Y-65085331D01*
X104953538Y-65191866D01*
X104953533Y-65191875D01*
X104904499Y-65310255D01*
X104904497Y-65310261D01*
X104879500Y-65435928D01*
X104879500Y-65435931D01*
X104879500Y-65564069D01*
X104879500Y-65564071D01*
X104879499Y-65564071D01*
X101000500Y-65564071D01*
X101000500Y-55004066D01*
X101000765Y-54995956D01*
X101008241Y-54881902D01*
X101499500Y-54881902D01*
X101499500Y-55118097D01*
X101536446Y-55351368D01*
X101609433Y-55575996D01*
X101674530Y-55703754D01*
X101716657Y-55786433D01*
X101855483Y-55977510D01*
X102022490Y-56144517D01*
X102213567Y-56283343D01*
X102301975Y-56328389D01*
X102424003Y-56390566D01*
X102424005Y-56390566D01*
X102424008Y-56390568D01*
X102544412Y-56429689D01*
X102648631Y-56463553D01*
X102881903Y-56500500D01*
X102881908Y-56500500D01*
X103118097Y-56500500D01*
X103351368Y-56463553D01*
X103575992Y-56390568D01*
X103786433Y-56283343D01*
X103977510Y-56144517D01*
X104144517Y-55977510D01*
X104283343Y-55786433D01*
X104390568Y-55575992D01*
X104463553Y-55351368D01*
X104467335Y-55327492D01*
X104500500Y-55118097D01*
X104500500Y-54881902D01*
X104463553Y-54648631D01*
X104390566Y-54424003D01*
X104294174Y-54234824D01*
X104283343Y-54213567D01*
X104144517Y-54022490D01*
X103977510Y-53855483D01*
X103786433Y-53716657D01*
X103718429Y-53682007D01*
X103575996Y-53609433D01*
X103351368Y-53536446D01*
X103118097Y-53499500D01*
X103118092Y-53499500D01*
X102881908Y-53499500D01*
X102881903Y-53499500D01*
X102648631Y-53536446D01*
X102424003Y-53609433D01*
X102213566Y-53716657D01*
X102198893Y-53727318D01*
X102022490Y-53855483D01*
X102022488Y-53855485D01*
X102022487Y-53855485D01*
X101855485Y-54022487D01*
X101855485Y-54022488D01*
X101855483Y-54022490D01*
X101798980Y-54100260D01*
X101716657Y-54213566D01*
X101609433Y-54424003D01*
X101536446Y-54648631D01*
X101499500Y-54881902D01*
X101008241Y-54881902D01*
X101009091Y-54868926D01*
X101009091Y-54868925D01*
X101010322Y-54850144D01*
X101017075Y-54747104D01*
X101019190Y-54731048D01*
X101067045Y-54490462D01*
X101071243Y-54474797D01*
X101098068Y-54395773D01*
X101150093Y-54242512D01*
X101156291Y-54227547D01*
X101264790Y-54007533D01*
X101272893Y-53993498D01*
X101409182Y-53789527D01*
X101419039Y-53776681D01*
X101580786Y-53592244D01*
X101592244Y-53580786D01*
X101776681Y-53419039D01*
X101789527Y-53409182D01*
X101993498Y-53272893D01*
X102007533Y-53264790D01*
X102227547Y-53156291D01*
X102242512Y-53150093D01*
X102469653Y-53072989D01*
X102474797Y-53071243D01*
X102490464Y-53067045D01*
X102731048Y-53019190D01*
X102747102Y-53017075D01*
X102995957Y-53000765D01*
X103004067Y-53000500D01*
X103092710Y-53000500D01*
X136766000Y-53000500D01*
X136833039Y-53020185D01*
G37*
%TD.AperFunction*%
%TD*%
M02*
