%TF.GenerationSoftware,KiCad,Pcbnew,9.0.0*%
%TF.CreationDate,2025-03-06T15:51:14+01:00*%
%TF.ProjectId,motor_board,6d6f746f-725f-4626-9f61-72642e6b6963,0.1*%
%TF.SameCoordinates,Original*%
%TF.FileFunction,Paste,Top*%
%TF.FilePolarity,Positive*%
%FSLAX46Y46*%
G04 Gerber Fmt 4.6, Leading zero omitted, Abs format (unit mm)*
G04 Created by KiCad (PCBNEW 9.0.0) date 2025-03-06 15:51:14*
%MOMM*%
%LPD*%
G01*
G04 APERTURE LIST*
G04 Aperture macros list*
%AMRoundRect*
0 Rectangle with rounded corners*
0 $1 Rounding radius*
0 $2 $3 $4 $5 $6 $7 $8 $9 X,Y pos of 4 corners*
0 Add a 4 corners polygon primitive as box body*
4,1,4,$2,$3,$4,$5,$6,$7,$8,$9,$2,$3,0*
0 Add four circle primitives for the rounded corners*
1,1,$1+$1,$2,$3*
1,1,$1+$1,$4,$5*
1,1,$1+$1,$6,$7*
1,1,$1+$1,$8,$9*
0 Add four rect primitives between the rounded corners*
20,1,$1+$1,$2,$3,$4,$5,0*
20,1,$1+$1,$4,$5,$6,$7,0*
20,1,$1+$1,$6,$7,$8,$9,0*
20,1,$1+$1,$8,$9,$2,$3,0*%
G04 Aperture macros list end*
%ADD10R,0.600000X0.420000*%
%ADD11O,0.600000X0.420000*%
%ADD12R,0.320000X0.500000*%
%ADD13RoundRect,0.250000X-0.450000X0.325000X-0.450000X-0.325000X0.450000X-0.325000X0.450000X0.325000X0*%
%ADD14RoundRect,0.200000X-0.800000X0.200000X-0.800000X-0.200000X0.800000X-0.200000X0.800000X0.200000X0*%
%ADD15R,0.450000X1.750000*%
%ADD16RoundRect,0.250000X-0.350000X-0.450000X0.350000X-0.450000X0.350000X0.450000X-0.350000X0.450000X0*%
%ADD17R,0.900000X0.780000*%
%ADD18R,0.500000X0.650000*%
%ADD19R,0.500000X0.550000*%
%ADD20RoundRect,0.375000X0.625000X0.375000X-0.625000X0.375000X-0.625000X-0.375000X0.625000X-0.375000X0*%
%ADD21RoundRect,0.500000X0.500000X1.400000X-0.500000X1.400000X-0.500000X-1.400000X0.500000X-1.400000X0*%
%ADD22RoundRect,0.250000X-1.500000X-0.550000X1.500000X-0.550000X1.500000X0.550000X-1.500000X0.550000X0*%
%ADD23RoundRect,0.250000X0.450000X-0.350000X0.450000X0.350000X-0.450000X0.350000X-0.450000X-0.350000X0*%
%ADD24RoundRect,0.100000X-0.637500X-0.100000X0.637500X-0.100000X0.637500X0.100000X-0.637500X0.100000X0*%
%ADD25RoundRect,0.150000X0.150000X0.625000X-0.150000X0.625000X-0.150000X-0.625000X0.150000X-0.625000X0*%
%ADD26RoundRect,0.250000X0.350000X0.650000X-0.350000X0.650000X-0.350000X-0.650000X0.350000X-0.650000X0*%
%ADD27RoundRect,0.250000X-0.337500X-0.475000X0.337500X-0.475000X0.337500X0.475000X-0.337500X0.475000X0*%
%ADD28RoundRect,0.250000X-0.450000X0.350000X-0.450000X-0.350000X0.450000X-0.350000X0.450000X0.350000X0*%
%ADD29RoundRect,0.250000X1.500000X0.550000X-1.500000X0.550000X-1.500000X-0.550000X1.500000X-0.550000X0*%
G04 APERTURE END LIST*
D10*
%TO.C,U10*%
X142270001Y-85769999D03*
D11*
X142270001Y-85120000D03*
X142270001Y-84470001D03*
X140369999Y-84470001D03*
X140369999Y-85120000D03*
X140369999Y-85769999D03*
%TD*%
D10*
%TO.C,U9*%
X134630001Y-85759999D03*
D11*
X134630001Y-85110000D03*
X134630001Y-84460001D03*
X132729999Y-84460001D03*
X132729999Y-85110000D03*
X132729999Y-85759999D03*
%TD*%
D10*
%TO.C,U8*%
X126980001Y-85779999D03*
D11*
X126980001Y-85130000D03*
X126980001Y-84480001D03*
X125079999Y-84480001D03*
X125079999Y-85130000D03*
X125079999Y-85779999D03*
%TD*%
D10*
%TO.C,U5*%
X119350000Y-85759998D03*
D11*
X119350000Y-85109999D03*
X119350000Y-84460000D03*
X117449998Y-84460000D03*
X117449998Y-85109999D03*
X117449998Y-85759998D03*
%TD*%
D12*
%TO.C,RN3*%
X125589999Y-78090001D03*
X125089999Y-78090001D03*
X124589999Y-78090001D03*
X124089999Y-78090001D03*
X124089999Y-79090001D03*
X124589999Y-79090001D03*
X125089999Y-79090001D03*
X125589999Y-79090001D03*
%TD*%
%TO.C,RN4*%
X115639999Y-78220001D03*
X115139999Y-78220001D03*
X114639999Y-78220001D03*
X114139999Y-78220001D03*
X114139999Y-79220001D03*
X114639999Y-79220001D03*
X115139999Y-79220001D03*
X115639999Y-79220001D03*
%TD*%
D13*
%TO.C,D15*%
X113326673Y-80845001D03*
X113326673Y-82895001D03*
%TD*%
D12*
%TO.C,RN1*%
X145979999Y-77570001D03*
X145479999Y-77570001D03*
X144979999Y-77570001D03*
X144479999Y-77570001D03*
X144479999Y-78570001D03*
X144979999Y-78570001D03*
X145479999Y-78570001D03*
X145979999Y-78570001D03*
%TD*%
D13*
%TO.C,D18*%
X146433331Y-80845001D03*
X146433331Y-82895001D03*
%TD*%
%TO.C,D11*%
X123513337Y-80845001D03*
X123513337Y-82895001D03*
%TD*%
%TO.C,D7*%
X133700001Y-80845001D03*
X133700001Y-82895001D03*
%TD*%
%TO.C,D17*%
X148979997Y-80845001D03*
X148979997Y-82895001D03*
%TD*%
%TO.C,D8*%
X131153335Y-80845001D03*
X131153335Y-82895001D03*
%TD*%
%TO.C,D13*%
X118420005Y-80845001D03*
X118420005Y-82895001D03*
%TD*%
%TO.C,D16*%
X110779997Y-80845001D03*
X110779997Y-82895001D03*
%TD*%
%TO.C,D3*%
X143886665Y-80845001D03*
X143886665Y-82895001D03*
%TD*%
%TO.C,D9*%
X128606669Y-80845001D03*
X128606669Y-82895001D03*
%TD*%
%TO.C,D12*%
X120966671Y-80845001D03*
X120966671Y-82895001D03*
%TD*%
%TO.C,D5*%
X138793333Y-80845001D03*
X138793333Y-82895001D03*
%TD*%
%TO.C,D6*%
X136246667Y-80845001D03*
X136246667Y-82895001D03*
%TD*%
%TO.C,D4*%
X141339999Y-80845001D03*
X141339999Y-82895001D03*
%TD*%
D12*
%TO.C,RN2*%
X136009999Y-77780001D03*
X135509999Y-77780001D03*
X135009999Y-77780001D03*
X134509999Y-77780001D03*
X134509999Y-78780001D03*
X135009999Y-78780001D03*
X135509999Y-78780001D03*
X136009999Y-78780001D03*
%TD*%
D13*
%TO.C,D10*%
X126060003Y-80845001D03*
X126060003Y-82895001D03*
%TD*%
%TO.C,D14*%
X115873339Y-80845001D03*
X115873339Y-82895001D03*
%TD*%
D14*
%TO.C,SW9*%
X105360000Y-80400000D03*
X105360000Y-84600000D03*
%TD*%
D15*
%TO.C,U2*%
X119120000Y-107270000D03*
X119770000Y-107270000D03*
X120420000Y-107270000D03*
X121070000Y-107270000D03*
X121720000Y-107270000D03*
X122370000Y-107270000D03*
X123020000Y-107270000D03*
X123670000Y-107270000D03*
X124320000Y-107270000D03*
X124970000Y-107270000D03*
X125620000Y-107270000D03*
X126270000Y-107270000D03*
X126270000Y-100070000D03*
X125620000Y-100070000D03*
X124970000Y-100070000D03*
X124320000Y-100070000D03*
X123670000Y-100070000D03*
X123020000Y-100070000D03*
X122370000Y-100070000D03*
X121720000Y-100070000D03*
X121070000Y-100070000D03*
X120420000Y-100070000D03*
X119770000Y-100070000D03*
X119120000Y-100070000D03*
%TD*%
D16*
%TO.C,R3*%
X106900000Y-62980000D03*
X108900000Y-62980000D03*
%TD*%
D17*
%TO.C,Q1*%
X154190000Y-62230000D03*
X155290000Y-62230000D03*
X156390000Y-62230000D03*
X157490000Y-62230000D03*
X154190000Y-61250000D03*
X155290000Y-61250000D03*
X156390000Y-61250000D03*
X157490000Y-61250000D03*
X154190000Y-60270000D03*
X155290000Y-60270000D03*
X156390000Y-60270000D03*
X157490000Y-60270000D03*
X154190000Y-59290000D03*
X155290000Y-59290000D03*
X156390000Y-59290000D03*
X157490000Y-59290000D03*
D18*
X153935000Y-63980000D03*
X155205000Y-63980000D03*
X156475000Y-63980000D03*
X157745000Y-63980000D03*
D19*
X153935000Y-58430000D03*
X155205000Y-58430000D03*
X156475000Y-58430000D03*
X157745000Y-58430000D03*
%TD*%
D13*
%TO.C,D2*%
X147447649Y-65454059D03*
X147447649Y-67504059D03*
%TD*%
D20*
%TO.C,U4*%
X157690000Y-70990000D03*
X157690000Y-68690000D03*
D21*
X151390000Y-68690000D03*
D20*
X157690000Y-66390000D03*
%TD*%
D22*
%TO.C,C1*%
X147920000Y-102950000D03*
X153320000Y-102950000D03*
%TD*%
D23*
%TO.C,R26*%
X136970000Y-62530000D03*
X136970000Y-60530000D03*
%TD*%
D24*
%TO.C,U1*%
X126905000Y-62820000D03*
X126905000Y-63470000D03*
X126905000Y-64120000D03*
X126905000Y-64770000D03*
X126905000Y-65420000D03*
X126905000Y-66070000D03*
X126905000Y-66720000D03*
X126905000Y-67370000D03*
X126905000Y-68020000D03*
X126905000Y-68670000D03*
X126905000Y-69320000D03*
X126905000Y-69970000D03*
X126905000Y-70620000D03*
X126905000Y-71270000D03*
X132630000Y-71270000D03*
X132630000Y-70620000D03*
X132630000Y-69970000D03*
X132630000Y-69320000D03*
X132630000Y-68670000D03*
X132630000Y-68020000D03*
X132630000Y-67370000D03*
X132630000Y-66720000D03*
X132630000Y-66070000D03*
X132630000Y-65420000D03*
X132630000Y-64770000D03*
X132630000Y-64120000D03*
X132630000Y-63470000D03*
X132630000Y-62820000D03*
%TD*%
D16*
%TO.C,R6*%
X106900000Y-68060000D03*
X108900000Y-68060000D03*
%TD*%
%TO.C,R1*%
X106900000Y-60440000D03*
X108900000Y-60440000D03*
%TD*%
%TO.C,R4*%
X115700000Y-69090000D03*
X117700000Y-69090000D03*
%TD*%
D25*
%TO.C,J10*%
X119030000Y-57075000D03*
X118030000Y-57075000D03*
X117030000Y-57075000D03*
X116030000Y-57075000D03*
D26*
X120330000Y-53200000D03*
X114730000Y-53200000D03*
%TD*%
D27*
%TO.C,C4*%
X115682500Y-62600000D03*
X117757500Y-62600000D03*
%TD*%
D16*
%TO.C,R2*%
X115640000Y-66960000D03*
X117640000Y-66960000D03*
%TD*%
D28*
%TO.C,R9*%
X145347649Y-65479059D03*
X145347649Y-67479059D03*
%TD*%
D16*
%TO.C,R5*%
X106900000Y-65520000D03*
X108900000Y-65520000D03*
%TD*%
D28*
%TO.C,R27*%
X139010000Y-60530000D03*
X139010000Y-62530000D03*
%TD*%
D15*
%TO.C,U3*%
X132240000Y-107070000D03*
X132890000Y-107070000D03*
X133540000Y-107070000D03*
X134190000Y-107070000D03*
X134840000Y-107070000D03*
X135490000Y-107070000D03*
X136140000Y-107070000D03*
X136790000Y-107070000D03*
X137440000Y-107070000D03*
X138090000Y-107070000D03*
X138740000Y-107070000D03*
X139390000Y-107070000D03*
X139390000Y-99870000D03*
X138740000Y-99870000D03*
X138090000Y-99870000D03*
X137440000Y-99870000D03*
X136790000Y-99870000D03*
X136140000Y-99870000D03*
X135490000Y-99870000D03*
X134840000Y-99870000D03*
X134190000Y-99870000D03*
X133540000Y-99870000D03*
X132890000Y-99870000D03*
X132240000Y-99870000D03*
%TD*%
D29*
%TO.C,C2*%
X112110000Y-102970000D03*
X106710000Y-102970000D03*
%TD*%
D27*
%TO.C,C3*%
X115662500Y-64795000D03*
X117737500Y-64795000D03*
%TD*%
%TO.C,C5*%
X115682500Y-60490000D03*
X117757500Y-60490000D03*
%TD*%
D16*
%TO.C,R7*%
X106900000Y-70600000D03*
X108900000Y-70600000D03*
%TD*%
M02*
