G04 This is an RS-274x file exported by *
G04 gerbv version 2.8.2 *
G04 More information is available about gerbv at *
G04 https://gerbv.github.io/ *
G04 --End of header info--*
%MOIN*%
%FSLAX36Y36*%
%IPPOS*%
G04 --Define apertures--*
%ADD10C,0.0139*%
G04 --Start main section--*
G54D10*
G36*
G01X0362499Y0258799D02*
G01X0362499Y0256599D01*
G01X0362299Y0254799D01*
G01X0361799Y0253199D01*
G01X0361299Y0251599D01*
G01X0360499Y0250299D01*
G01X0359399Y0249299D01*
G01X0358399Y0248299D01*
G01X0356999Y0247499D01*
G01X0355399Y0246999D01*
G01X0353799Y0246499D01*
G01X0351799Y0246299D01*
G01X0349599Y0246299D01*
G01X0348799Y0246299D01*
G01X0347999Y0246299D01*
G01X0347199Y0246399D01*
G01X0346399Y0246499D01*
G01X0345599Y0246599D01*
G01X0344899Y0246799D01*
G01X0344099Y0246899D01*
G01X0343399Y0247099D01*
G01X0342699Y0247299D01*
G01X0341899Y0247499D01*
G01X0341299Y0247699D01*
G01X0340599Y0247899D01*
G01X0341799Y0253799D01*
G01X0342399Y0253499D01*
G01X0342899Y0253299D01*
G01X0343499Y0253099D01*
G01X0343999Y0252999D01*
G01X0344599Y0252799D01*
G01X0345099Y0252599D01*
G01X0345699Y0252499D01*
G01X0346399Y0252399D01*
G01X0347099Y0252299D01*
G01X0347799Y0252199D01*
G01X0348699Y0252099D01*
G01X0349599Y0252099D01*
G01X0350099Y0252099D01*
G01X0350699Y0252099D01*
G01X0351199Y0252199D01*
G01X0351699Y0252299D01*
G01X0352199Y0252399D01*
G01X0352499Y0252499D01*
G01X0352899Y0252599D01*
G01X0353299Y0252799D01*
G01X0353599Y0252999D01*
G01X0353899Y0253199D01*
G01X0354099Y0253399D01*
G01X0354299Y0253599D01*
G01X0354499Y0253799D01*
G01X0354699Y0254099D01*
G01X0354799Y0254399D01*
G01X0354999Y0254699D01*
G01X0355099Y0254999D01*
G01X0355299Y0255299D01*
G01X0355299Y0255599D01*
G01X0355399Y0255999D01*
G01X0355499Y0256299D01*
G01X0355499Y0256699D01*
G01X0355599Y0256999D01*
G01X0355599Y0257399D01*
G01X0355599Y0258499D01*
G01X0355099Y0258299D01*
G01X0354599Y0258099D01*
G01X0354199Y0257999D01*
G01X0353799Y0257799D01*
G01X0353299Y0257699D01*
G01X0352899Y0257599D01*
G01X0352499Y0257599D01*
G01X0352099Y0257499D01*
G01X0351699Y0257399D01*
G01X0351199Y0257399D01*
G01X0350799Y0257399D01*
G01X0350299Y0257399D01*
G01X0348499Y0257399D01*
G01X0346999Y0257599D01*
G01X0345799Y0258199D01*
G01X0344499Y0258699D01*
G01X0343399Y0259499D01*
G01X0342499Y0260599D01*
G01X0341599Y0261599D01*
G01X0340899Y0262899D01*
G01X0340499Y0264399D01*
G01X0340099Y0265899D01*
G01X0339899Y0267599D01*
G01X0339899Y0269399D01*
G01X0339899Y0271599D01*
G01X0340199Y0273499D01*
G01X0340799Y0275099D01*
G01X0341399Y0276699D01*
G01X0342299Y0277999D01*
G01X0343499Y0278999D01*
G01X0344699Y0280099D01*
G01X0345999Y0280899D01*
G01X0347699Y0281399D01*
G01X0349299Y0281899D01*
G01X0351099Y0282199D01*
G01X0353199Y0282199D01*
G01X0354699Y0282199D01*
G01X0356099Y0282099D01*
G01X0357699Y0281899D01*
G01X0359199Y0281699D01*
G01X0360799Y0281299D01*
G01X0362499Y0280799D01*
G01X0362499Y0258799D01*
G01X0362499Y0258799D01*
G37*
%LPC*%
G36*
G01X0346899Y0269599D02*
G01X0346899Y0268499D01*
G01X0346999Y0267599D01*
G01X0347199Y0266799D01*
G01X0347399Y0265999D01*
G01X0347699Y0265299D01*
G01X0348099Y0264699D01*
G01X0348499Y0264199D01*
G01X0348999Y0263799D01*
G01X0349499Y0263499D01*
G01X0350099Y0263199D01*
G01X0350799Y0263099D01*
G01X0351699Y0263099D01*
G01X0351999Y0263099D01*
G01X0352399Y0263099D01*
G01X0352699Y0263099D01*
G01X0353099Y0263199D01*
G01X0353399Y0263299D01*
G01X0353799Y0263299D01*
G01X0354099Y0263399D01*
G01X0354399Y0263499D01*
G01X0354699Y0263599D01*
G01X0354999Y0263799D01*
G01X0355299Y0263899D01*
G01X0355599Y0263999D01*
G01X0355599Y0276499D01*
G01X0355299Y0276599D01*
G01X0354999Y0276599D01*
G01X0354799Y0276699D01*
G01X0354599Y0276699D01*
G01X0354399Y0276699D01*
G01X0354199Y0276799D01*
G01X0353999Y0276799D01*
G01X0353799Y0276799D01*
G01X0353499Y0276799D01*
G01X0353299Y0276799D01*
G01X0353099Y0276799D01*
G01X0352899Y0276799D01*
G01X0350899Y0276799D01*
G01X0349399Y0276199D01*
G01X0348399Y0274999D01*
G01X0347399Y0273799D01*
G01X0346899Y0271899D01*
G01X0346899Y0269599D01*
G01X0346899Y0269599D01*
G37*
%LPD*%
G36*
G01X0390099Y0274899D02*
G01X0389899Y0274899D01*
G01X0389699Y0274999D01*
G01X0389399Y0275099D01*
G01X0389199Y0275099D01*
G01X0388899Y0275099D01*
G01X0388599Y0275099D01*
G01X0388299Y0275099D01*
G01X0387999Y0275199D01*
G01X0387699Y0275299D01*
G01X0387399Y0275299D01*
G01X0387099Y0275399D01*
G01X0386799Y0275399D01*
G01X0386499Y0275499D01*
G01X0386099Y0275499D01*
G01X0385899Y0275499D01*
G01X0385599Y0275599D01*
G01X0385299Y0275599D01*
G01X0384999Y0275599D01*
G01X0384699Y0275599D01*
G01X0384399Y0275599D01*
G01X0384199Y0275599D01*
G01X0383899Y0275599D01*
G01X0383699Y0275599D01*
G01X0383499Y0275599D01*
G01X0382999Y0275599D01*
G01X0382499Y0275599D01*
G01X0381999Y0275499D01*
G01X0381599Y0275499D01*
G01X0381099Y0275499D01*
G01X0380699Y0275399D01*
G01X0380199Y0275299D01*
G01X0379799Y0275299D01*
G01X0379299Y0275199D01*
G01X0378899Y0275099D01*
G01X0378399Y0274999D01*
G01X0377899Y0274899D01*
G01X0377899Y0255399D01*
G01X0370999Y0255399D01*
G01X0370999Y0279899D01*
G01X0371899Y0280199D01*
G01X0372799Y0280499D01*
G01X0373699Y0280799D01*
G01X0374599Y0281099D01*
G01X0375599Y0281299D01*
G01X0376499Y0281499D01*
G01X0377499Y0281699D01*
G01X0378499Y0281899D01*
G01X0379699Y0281999D01*
G01X0380799Y0281999D01*
G01X0381899Y0282099D01*
G01X0383199Y0282099D01*
G01X0383399Y0282099D01*
G01X0383599Y0282099D01*
G01X0383899Y0282099D01*
G01X0384099Y0282099D01*
G01X0384399Y0282099D01*
G01X0384699Y0282099D01*
G01X0385099Y0282099D01*
G01X0385399Y0281999D01*
G01X0385799Y0281999D01*
G01X0386099Y0281999D01*
G01X0386499Y0281899D01*
G01X0386899Y0281899D01*
G01X0387399Y0281899D01*
G01X0387699Y0281799D01*
G01X0388099Y0281799D01*
G01X0388499Y0281799D01*
G01X0388899Y0281699D01*
G01X0389299Y0281699D01*
G01X0389699Y0281599D01*
G01X0390099Y0281499D01*
G01X0390499Y0281399D01*
G01X0390799Y0281399D01*
G01X0391099Y0281299D01*
G01X0391399Y0281099D01*
G01X0390099Y0274899D01*
G01X0390099Y0274899D01*
G37*
G36*
G01X0395399Y0268499D02*
G01X0395399Y0269699D01*
G01X0395499Y0270699D01*
G01X0395699Y0271699D01*
G01X0395899Y0272699D01*
G01X0396199Y0273699D01*
G01X0396499Y0274599D01*
G01X0396899Y0275399D01*
G01X0397299Y0276199D01*
G01X0397799Y0276899D01*
G01X0398199Y0277699D01*
G01X0398799Y0278299D01*
G01X0399299Y0278899D01*
G01X0399899Y0279399D01*
G01X0400499Y0279999D01*
G01X0401099Y0280399D01*
G01X0401799Y0280899D01*
G01X0402499Y0281299D01*
G01X0403199Y0281499D01*
G01X0403999Y0281799D01*
G01X0404699Y0281999D01*
G01X0405499Y0282199D01*
G01X0406299Y0282299D01*
G01X0406999Y0282399D01*
G01X0407799Y0282399D01*
G01X0409699Y0282399D01*
G01X0411399Y0282099D01*
G01X0412899Y0281499D01*
G01X0414299Y0280899D01*
G01X0415599Y0280099D01*
G01X0416499Y0278899D01*
G01X0417499Y0277799D01*
G01X0418299Y0276399D01*
G01X0418799Y0274699D01*
G01X0419299Y0273099D01*
G01X0419599Y0271099D01*
G01X0419599Y0268899D01*
G01X0419599Y0268699D01*
G01X0419599Y0268399D01*
G01X0419599Y0268199D01*
G01X0419599Y0267999D01*
G01X0419599Y0267699D01*
G01X0419599Y0267499D01*
G01X0419599Y0267199D01*
G01X0419599Y0266999D01*
G01X0419599Y0266799D01*
G01X0419499Y0266699D01*
G01X0419499Y0266499D01*
G01X0419399Y0266399D01*
G01X0402499Y0266399D01*
G01X0402499Y0265599D01*
G01X0402699Y0264799D01*
G01X0402999Y0264099D01*
G01X0403399Y0263399D01*
G01X0403899Y0262799D01*
G01X0404599Y0262399D01*
G01X0405299Y0261899D01*
G01X0406099Y0261499D01*
G01X0406999Y0261199D01*
G01X0407899Y0260999D01*
G01X0408899Y0260799D01*
G01X0409999Y0260799D01*
G01X0410699Y0260799D01*
G01X0411399Y0260899D01*
G01X0411999Y0260899D01*
G01X0412599Y0260999D01*
G01X0413299Y0261099D01*
G01X0413899Y0261299D01*
G01X0414499Y0261399D01*
G01X0415099Y0261499D01*
G01X0415599Y0261699D01*
G01X0416099Y0261799D01*
G01X0416599Y0261899D01*
G01X0417099Y0262099D01*
G01X0418099Y0256299D01*
G01X0417399Y0255999D01*
G01X0416799Y0255899D01*
G01X0416199Y0255699D01*
G01X0415599Y0255599D01*
G01X0414899Y0255399D01*
G01X0414299Y0255299D01*
G01X0413599Y0255099D01*
G01X0412899Y0254999D01*
G01X0412199Y0254999D01*
G01X0411499Y0254899D01*
G01X0410699Y0254899D01*
G01X0409899Y0254899D01*
G01X0408799Y0254899D01*
G01X0407699Y0254899D01*
G01X0406699Y0255099D01*
G01X0405699Y0255199D01*
G01X0404799Y0255399D01*
G01X0403899Y0255699D01*
G01X0402999Y0255999D01*
G01X0402199Y0256299D01*
G01X0401499Y0256699D01*
G01X0400699Y0257199D01*
G01X0400099Y0257599D01*
G01X0399399Y0258199D01*
G01X0398799Y0258799D01*
G01X0398299Y0259399D01*
G01X0397799Y0260099D01*
G01X0397299Y0260799D01*
G01X0396899Y0261499D01*
G01X0396499Y0262399D01*
G01X0396199Y0263199D01*
G01X0395899Y0264199D01*
G01X0395699Y0265199D01*
G01X0395499Y0266299D01*
G01X0395399Y0267399D01*
G01X0395399Y0268499D01*
G01X0395399Y0268499D01*
G37*
%LPC*%
G36*
G01X0412899Y0271299D02*
G01X0412899Y0271599D01*
G01X0412899Y0271899D01*
G01X0412799Y0272299D01*
G01X0412799Y0272599D01*
G01X0412699Y0272999D01*
G01X0412599Y0273299D01*
G01X0412599Y0273699D01*
G01X0412399Y0273999D01*
G01X0412299Y0274299D01*
G01X0412099Y0274599D01*
G01X0411899Y0274899D01*
G01X0411799Y0275099D01*
G01X0411599Y0275399D01*
G01X0411399Y0275699D01*
G01X0411099Y0275899D01*
G01X0410799Y0276099D01*
G01X0410599Y0276299D01*
G01X0410299Y0276399D01*
G01X0409999Y0276499D01*
G01X0409699Y0276599D01*
G01X0409299Y0276699D01*
G01X0408899Y0276799D01*
G01X0408399Y0276799D01*
G01X0407899Y0276799D01*
G01X0407499Y0276799D01*
G01X0407099Y0276799D01*
G01X0406699Y0276699D01*
G01X0406299Y0276599D01*
G01X0405899Y0276499D01*
G01X0405599Y0276399D01*
G01X0405199Y0276299D01*
G01X0404899Y0276099D01*
G01X0404699Y0275899D01*
G01X0404399Y0275699D01*
G01X0404199Y0275399D01*
G01X0403899Y0275099D01*
G01X0403699Y0274899D01*
G01X0403499Y0274599D01*
G01X0403399Y0274299D01*
G01X0403199Y0273999D01*
G01X0403099Y0273699D01*
G01X0402899Y0273299D01*
G01X0402799Y0272999D01*
G01X0402699Y0272599D01*
G01X0402599Y0272299D01*
G01X0402499Y0271899D01*
G01X0402499Y0271599D01*
G01X0402499Y0271299D01*
G01X0412899Y0271299D01*
G01X0412899Y0271299D01*
G37*
%LPD*%
G36*
G01X0447599Y0281799D02*
G01X0447299Y0280599D01*
G01X0446899Y0279299D01*
G01X0446599Y0278099D01*
G01X0446299Y0276899D01*
G01X0445899Y0275799D01*
G01X0445599Y0274599D01*
G01X0445199Y0273399D01*
G01X0444899Y0272299D01*
G01X0444499Y0271099D01*
G01X0444199Y0269999D01*
G01X0443799Y0268799D01*
G01X0443499Y0267599D01*
G01X0443099Y0266499D01*
G01X0442799Y0265299D01*
G01X0442399Y0264299D01*
G01X0441999Y0263199D01*
G01X0441699Y0262199D01*
G01X0441299Y0261099D01*
G01X0440799Y0259999D01*
G01X0440399Y0258899D01*
G01X0439999Y0257899D01*
G01X0439499Y0256799D01*
G01X0439099Y0255799D01*
G01X0438599Y0254899D01*
G01X0438299Y0254099D01*
G01X0437899Y0253399D01*
G01X0437599Y0252799D01*
G01X0437199Y0252099D01*
G01X0436899Y0251499D01*
G01X0436499Y0250999D01*
G01X0436199Y0250399D01*
G01X0435799Y0249899D01*
G01X0435499Y0249499D01*
G01X0435099Y0249099D01*
G01X0434699Y0248699D01*
G01X0434299Y0248299D01*
G01X0433899Y0247999D01*
G01X0433399Y0247699D01*
G01X0432999Y0247399D01*
G01X0432499Y0247199D01*
G01X0431999Y0246899D01*
G01X0431499Y0246799D01*
G01X0430999Y0246699D01*
G01X0430499Y0246499D01*
G01X0429899Y0246399D01*
G01X0429299Y0246299D01*
G01X0428599Y0246299D01*
G01X0427899Y0246299D01*
G01X0427399Y0246299D01*
G01X0426799Y0246299D01*
G01X0426299Y0246299D01*
G01X0425699Y0246399D01*
G01X0425199Y0246499D01*
G01X0424699Y0246499D01*
G01X0424199Y0246599D01*
G01X0423799Y0246699D01*
G01X0423399Y0246799D01*
G01X0423099Y0246899D01*
G01X0422699Y0247099D01*
G01X0422399Y0247199D01*
G01X0423599Y0252899D01*
G01X0423999Y0252799D01*
G01X0424299Y0252599D01*
G01X0424599Y0252499D01*
G01X0424999Y0252399D01*
G01X0425299Y0252299D01*
G01X0425599Y0252199D01*
G01X0425799Y0252199D01*
G01X0426099Y0252099D01*
G01X0426499Y0252099D01*
G01X0426799Y0252099D01*
G01X0427099Y0252099D01*
G01X0427399Y0252099D01*
G01X0428099Y0252099D01*
G01X0428599Y0252199D01*
G01X0429199Y0252399D01*
G01X0429699Y0252599D01*
G01X0430099Y0252999D01*
G01X0430599Y0253499D01*
G01X0430999Y0253899D01*
G01X0431399Y0254399D01*
G01X0431699Y0254899D01*
G01X0431999Y0255499D01*
G01X0432299Y0255999D01*
G01X0432499Y0256699D01*
G01X0431699Y0258299D01*
G01X0430799Y0259999D01*
G01X0429999Y0261899D01*
G01X0429199Y0263799D01*
G01X0428399Y0265799D01*
G01X0427599Y0267899D01*
G01X0426899Y0270099D01*
G01X0426099Y0272299D01*
G01X0425399Y0274599D01*
G01X0424599Y0276899D01*
G01X0423899Y0279299D01*
G01X0423199Y0281799D01*
G01X0430299Y0281799D01*
G01X0430399Y0281099D01*
G01X0430599Y0280399D01*
G01X0430799Y0279699D01*
G01X0430999Y0278999D01*
G01X0431199Y0278199D01*
G01X0431399Y0277399D01*
G01X0431599Y0276599D01*
G01X0431799Y0275799D01*
G01X0431999Y0275099D01*
G01X0432299Y0274299D01*
G01X0432499Y0273499D01*
G01X0432799Y0272599D01*
G01X0433099Y0271899D01*
G01X0433299Y0271099D01*
G01X0433499Y0270299D01*
G01X0433799Y0269599D01*
G01X0433999Y0268799D01*
G01X0434299Y0268099D01*
G01X0434599Y0267299D01*
G01X0434899Y0266599D01*
G01X0435099Y0265899D01*
G01X0435399Y0265199D01*
G01X0435699Y0264499D01*
G01X0435999Y0263899D01*
G01X0436199Y0264499D01*
G01X0436399Y0265199D01*
G01X0436499Y0265899D01*
G01X0436699Y0266599D01*
G01X0436899Y0267299D01*
G01X0437099Y0268099D01*
G01X0437299Y0268799D01*
G01X0437499Y0269599D01*
G01X0437699Y0270299D01*
G01X0437899Y0271099D01*
G01X0438099Y0271899D01*
G01X0438199Y0272599D01*
G01X0438399Y0273399D01*
G01X0438599Y0274199D01*
G01X0438799Y0274899D01*
G01X0438899Y0275699D01*
G01X0439099Y0276499D01*
G01X0439299Y0277199D01*
G01X0439499Y0277999D01*
G01X0439699Y0278799D01*
G01X0439799Y0279499D01*
G01X0439999Y0280199D01*
G01X0440099Y0280999D01*
G01X0440299Y0281699D01*
G01X0447599Y0281699D01*
G01X0447599Y0281799D01*
G37*
G36*
G01X0314299Y0210699D02*
G01X0314299Y0211199D01*
G01X0314299Y0211599D01*
G01X0314199Y0212099D01*
G01X0314099Y0212499D01*
G01X0313999Y0212899D01*
G01X0313899Y0213299D01*
G01X0313799Y0213799D01*
G01X0313499Y0214099D01*
G01X0313199Y0214499D01*
G01X0312799Y0214799D01*
G01X0312399Y0215099D01*
G01X0311899Y0215399D01*
G01X0311499Y0215699D01*
G01X0310899Y0215899D01*
G01X0310199Y0216199D01*
G01X0309499Y0216399D01*
G01X0308799Y0216599D01*
G01X0307899Y0216799D01*
G01X0306999Y0216899D01*
G01X0305999Y0216999D01*
G01X0304899Y0217099D01*
G01X0303799Y0217199D01*
G01X0302499Y0217199D01*
G01X0301099Y0217199D01*
G01X0301299Y0218799D01*
G01X0301499Y0220299D01*
G01X0301599Y0221799D01*
G01X0301799Y0223299D01*
G01X0301899Y0224899D01*
G01X0301899Y0226399D01*
G01X0302099Y0227799D01*
G01X0302199Y0229299D01*
G01X0302299Y0230699D01*
G01X0302399Y0232199D01*
G01X0302399Y0233599D01*
G01X0302499Y0234999D01*
G01X0319999Y0234999D01*
G01X0319999Y0229299D01*
G01X0308199Y0229299D01*
G01X0308199Y0228799D01*
G01X0308199Y0228199D01*
G01X0308099Y0227499D01*
G01X0308099Y0226899D01*
G01X0307999Y0226299D01*
G01X0307899Y0225599D01*
G01X0307799Y0224899D01*
G01X0307799Y0224299D01*
G01X0307799Y0223799D01*
G01X0307699Y0223299D01*
G01X0307699Y0222799D01*
G01X0307599Y0222399D01*
G01X0309899Y0222199D01*
G01X0311899Y0221899D01*
G01X0313699Y0221299D01*
G01X0315399Y0220799D01*
G01X0316799Y0219999D01*
G01X0317899Y0218999D01*
G01X0318999Y0218099D01*
G01X0319899Y0216899D01*
G01X0320399Y0215599D01*
G01X0320999Y0214199D01*
G01X0321299Y0212699D01*
G01X0321299Y0210999D01*
G01X0321299Y0210099D01*
G01X0321199Y0209399D01*
G01X0320999Y0208599D01*
G01X0320899Y0207899D01*
G01X0320699Y0207199D01*
G01X0320399Y0206499D01*
G01X0320099Y0205799D01*
G01X0319799Y0205199D01*
G01X0319399Y0204599D01*
G01X0318999Y0204099D01*
G01X0318499Y0203499D01*
G01X0317899Y0203099D01*
G01X0317399Y0202599D01*
G01X0316699Y0202099D01*
G01X0315999Y0201699D01*
G01X0315199Y0201299D01*
G01X0314399Y0200999D01*
G01X0313599Y0200699D01*
G01X0312799Y0200399D01*
G01X0311799Y0200199D01*
G01X0310799Y0200099D01*
G01X0309799Y0199899D01*
G01X0308799Y0199899D01*
G01X0307599Y0199899D01*
G01X0307199Y0199899D01*
G01X0306799Y0199899D01*
G01X0306299Y0199899D01*
G01X0305799Y0199899D01*
G01X0305299Y0199899D01*
G01X0304899Y0199999D01*
G01X0304399Y0200099D01*
G01X0303899Y0200099D01*
G01X0303499Y0200199D01*
G01X0303099Y0200299D01*
G01X0302599Y0200299D01*
G01X0302199Y0200399D01*
G01X0301799Y0200499D01*
G01X0301399Y0200599D01*
G01X0300999Y0200699D01*
G01X0300599Y0200799D01*
G01X0300199Y0200899D01*
G01X0299899Y0200999D01*
G01X0299499Y0201099D01*
G01X0299199Y0201199D01*
G01X0298899Y0201299D01*
G01X0298699Y0201399D01*
G01X0298499Y0201499D01*
G01X0298299Y0201499D01*
G01X0299699Y0207199D01*
G01X0300099Y0206999D01*
G01X0300599Y0206799D01*
G01X0301099Y0206599D01*
G01X0301599Y0206399D01*
G01X0302199Y0206299D01*
G01X0302799Y0206099D01*
G01X0303399Y0205999D01*
G01X0304099Y0205799D01*
G01X0304899Y0205699D01*
G01X0305699Y0205599D01*
G01X0306499Y0205599D01*
G01X0307499Y0205599D01*
G01X0308199Y0205599D01*
G01X0308799Y0205599D01*
G01X0309399Y0205699D01*
G01X0309899Y0205699D01*
G01X0310399Y0205799D01*
G01X0310799Y0205999D01*
G01X0311299Y0206099D01*
G01X0311599Y0206299D01*
G01X0311999Y0206499D01*
G01X0312299Y0206699D01*
G01X0312599Y0206899D01*
G01X0312899Y0207099D01*
G01X0313199Y0207299D01*
G01X0313399Y0207499D01*
G01X0313599Y0207799D01*
G01X0313699Y0208099D01*
G01X0313799Y0208299D01*
G01X0313899Y0208599D01*
G01X0313999Y0208999D01*
G01X0314099Y0209399D01*
G01X0314199Y0209699D01*
G01X0314299Y0209999D01*
G01X0314299Y0210299D01*
G01X0314299Y0210699D01*
G01X0314299Y0210699D01*
G37*
G36*
G01X0330599Y0218199D02*
G01X0345799Y0218199D01*
G01X0345799Y0211499D01*
G01X0330599Y0211499D01*
G01X0330599Y0218199D01*
G01X0330599Y0218199D01*
G37*
G36*
G01X0366399Y0213199D02*
G01X0365299Y0213199D01*
G01X0364399Y0213299D01*
G01X0363499Y0213399D01*
G01X0362599Y0213499D01*
G01X0361699Y0213799D01*
G01X0360999Y0213999D01*
G01X0360199Y0214299D01*
G01X0359499Y0214699D01*
G01X0358899Y0215099D01*
G01X0358299Y0215499D01*
G01X0357799Y0215899D01*
G01X0357399Y0216399D01*
G01X0356899Y0216899D01*
G01X0356499Y0217399D01*
G01X0356099Y0217999D01*
G01X0355799Y0218599D01*
G01X0355499Y0219199D01*
G01X0355299Y0219899D01*
G01X0355099Y0220499D01*
G01X0354899Y0221199D01*
G01X0354799Y0221899D01*
G01X0354699Y0222599D01*
G01X0354599Y0223399D01*
G01X0354599Y0224199D01*
G01X0354599Y0224899D01*
G01X0354699Y0225499D01*
G01X0354799Y0226199D01*
G01X0354899Y0226799D01*
G01X0355099Y0227499D01*
G01X0355299Y0228199D01*
G01X0355499Y0228899D01*
G01X0355799Y0229499D01*
G01X0356099Y0230199D01*
G01X0356499Y0230799D01*
G01X0356899Y0231399D01*
G01X0357399Y0231899D01*
G01X0357799Y0232499D01*
G01X0358399Y0232999D01*
G01X0358899Y0233499D01*
G01X0359499Y0233999D01*
G01X0360099Y0234399D01*
G01X0360799Y0234699D01*
G01X0361499Y0235099D01*
G01X0362299Y0235299D01*
G01X0363099Y0235499D01*
G01X0363899Y0235699D01*
G01X0364699Y0235799D01*
G01X0365699Y0235799D01*
G01X0367599Y0235799D01*
G01X0369299Y0235499D01*
G01X0370799Y0234899D01*
G01X0372299Y0234199D01*
G01X0373499Y0233299D01*
G01X0374599Y0231899D01*
G01X0375599Y0230599D01*
G01X0376399Y0229099D01*
G01X0376899Y0227299D01*
G01X0377399Y0225499D01*
G01X0377599Y0223399D01*
G01X0377599Y0221099D01*
G01X0377599Y0219399D01*
G01X0377499Y0217899D01*
G01X0377299Y0216399D01*
G01X0376999Y0214899D01*
G01X0376699Y0213499D01*
G01X0376299Y0212199D01*
G01X0375799Y0210899D01*
G01X0375199Y0209699D01*
G01X0374499Y0208599D01*
G01X0373799Y0207599D01*
G01X0372999Y0206599D01*
G01X0372099Y0205699D01*
G01X0371199Y0204799D01*
G01X0370199Y0203999D01*
G01X0369099Y0203399D01*
G01X0367999Y0202699D01*
G01X0366799Y0202199D01*
G01X0365599Y0201699D01*
G01X0364299Y0201199D01*
G01X0362999Y0200799D01*
G01X0361499Y0200599D01*
G01X0360099Y0200399D01*
G01X0358599Y0200299D01*
G01X0357099Y0200299D01*
G01X0356799Y0206099D01*
G01X0358399Y0206099D01*
G01X0359899Y0206299D01*
G01X0361299Y0206599D01*
G01X0362699Y0206899D01*
G01X0363999Y0207399D01*
G01X0365299Y0208099D01*
G01X0366499Y0208699D01*
G01X0367599Y0209499D01*
G01X0368499Y0210499D01*
G01X0369399Y0211399D01*
G01X0370099Y0212599D01*
G01X0370599Y0213899D01*
G01X0369699Y0213699D01*
G01X0368999Y0213499D01*
G01X0368299Y0213399D01*
G01X0367599Y0213299D01*
G01X0366999Y0213199D01*
G01X0366399Y0213199D01*
G01X0366399Y0213199D01*
G37*
%LPC*%
G36*
G01X0366399Y0218799D02*
G01X0366699Y0218799D01*
G01X0367099Y0218799D01*
G01X0367399Y0218799D01*
G01X0367799Y0218899D01*
G01X0368199Y0218999D01*
G01X0368599Y0218999D01*
G01X0368999Y0219099D01*
G01X0369299Y0219199D01*
G01X0369599Y0219299D01*
G01X0369899Y0219399D01*
G01X0370199Y0219499D01*
G01X0370399Y0219599D01*
G01X0370399Y0219699D01*
G01X0370399Y0219899D01*
G01X0370399Y0220099D01*
G01X0370499Y0220299D01*
G01X0370499Y0220499D01*
G01X0370599Y0220699D01*
G01X0370599Y0220899D01*
G01X0370599Y0221099D01*
G01X0370599Y0221299D01*
G01X0370599Y0221499D01*
G01X0370599Y0221699D01*
G01X0370599Y0221899D01*
G01X0370599Y0222399D01*
G01X0370499Y0222899D01*
G01X0370499Y0223299D01*
G01X0370399Y0223799D01*
G01X0370299Y0224199D01*
G01X0370299Y0224699D01*
G01X0370199Y0225199D01*
G01X0370099Y0225699D01*
G01X0369999Y0226099D01*
G01X0369799Y0226499D01*
G01X0369699Y0226899D01*
G01X0369399Y0227399D01*
G01X0369199Y0227799D01*
G01X0368999Y0228099D01*
G01X0368799Y0228399D01*
G01X0368499Y0228799D01*
G01X0368299Y0228999D01*
G01X0367899Y0229299D01*
G01X0367599Y0229599D01*
G01X0367199Y0229799D01*
G01X0366799Y0229899D01*
G01X0366499Y0229999D01*
G01X0365999Y0229999D01*
G01X0365599Y0229999D01*
G01X0365099Y0229999D01*
G01X0364799Y0229999D01*
G01X0364399Y0229899D01*
G01X0364099Y0229799D01*
G01X0363799Y0229699D01*
G01X0363499Y0229599D01*
G01X0363199Y0229399D01*
G01X0362999Y0229299D01*
G01X0362699Y0229099D01*
G01X0362499Y0228899D01*
G01X0362299Y0228599D01*
G01X0362099Y0228299D01*
G01X0361899Y0228099D01*
G01X0361799Y0227799D01*
G01X0361699Y0227499D01*
G01X0361599Y0227199D01*
G01X0361499Y0226899D01*
G01X0361399Y0226499D01*
G01X0361299Y0226199D01*
G01X0361299Y0225799D01*
G01X0361199Y0225499D01*
G01X0361099Y0225099D01*
G01X0361099Y0224699D01*
G01X0361099Y0224299D01*
G01X0361099Y0223399D01*
G01X0361199Y0222599D01*
G01X0361399Y0221999D01*
G01X0361599Y0221299D01*
G01X0361899Y0220799D01*
G01X0362399Y0220299D01*
G01X0362799Y0219799D01*
G01X0363299Y0219399D01*
G01X0363999Y0219199D01*
G01X0364699Y0218899D01*
G01X0365499Y0218799D01*
G01X0366399Y0218799D01*
G01X0366399Y0218799D01*
G37*
%LPD*%
G36*
G01X0397599Y0210699D02*
G01X0397599Y0211199D01*
G01X0397599Y0211599D01*
G01X0397499Y0212099D01*
G01X0397499Y0212499D01*
G01X0397399Y0212899D01*
G01X0397199Y0213299D01*
G01X0397099Y0213799D01*
G01X0396799Y0214099D01*
G01X0396499Y0214499D01*
G01X0396199Y0214799D01*
G01X0395799Y0215099D01*
G01X0395299Y0215399D01*
G01X0394799Y0215699D01*
G01X0394199Y0215899D01*
G01X0393499Y0216199D01*
G01X0392799Y0216399D01*
G01X0392099Y0216599D01*
G01X0391299Y0216799D01*
G01X0390299Y0216899D01*
G01X0389299Y0216999D01*
G01X0388199Y0217099D01*
G01X0387099Y0217199D01*
G01X0385799Y0217199D01*
G01X0384399Y0217199D01*
G01X0384699Y0218799D01*
G01X0384799Y0220299D01*
G01X0384999Y0221799D01*
G01X0385099Y0223299D01*
G01X0385199Y0224899D01*
G01X0385299Y0226399D01*
G01X0385399Y0227799D01*
G01X0385499Y0229299D01*
G01X0385599Y0230699D01*
G01X0385699Y0232199D01*
G01X0385799Y0233599D01*
G01X0385799Y0234999D01*
G01X0403299Y0234999D01*
G01X0403299Y0229299D01*
G01X0391499Y0229299D01*
G01X0391499Y0228799D01*
G01X0391499Y0228199D01*
G01X0391399Y0227499D01*
G01X0391399Y0226899D01*
G01X0391299Y0226299D01*
G01X0391299Y0225599D01*
G01X0391199Y0224899D01*
G01X0391099Y0224299D01*
G01X0391099Y0223799D01*
G01X0391099Y0223299D01*
G01X0390999Y0222799D01*
G01X0390999Y0222399D01*
G01X0393299Y0222199D01*
G01X0395299Y0221899D01*
G01X0396999Y0221299D01*
G01X0398699Y0220799D01*
G01X0400099Y0219999D01*
G01X0401299Y0218999D01*
G01X0402399Y0218099D01*
G01X0403199Y0216899D01*
G01X0403799Y0215599D01*
G01X0404299Y0214199D01*
G01X0404599Y0212699D01*
G01X0404599Y0210999D01*
G01X0404599Y0210099D01*
G01X0404499Y0209399D01*
G01X0404399Y0208599D01*
G01X0404199Y0207899D01*
G01X0403999Y0207199D01*
G01X0403799Y0206499D01*
G01X0403499Y0205799D01*
G01X0403099Y0205199D01*
G01X0402699Y0204599D01*
G01X0402299Y0204099D01*
G01X0401799Y0203499D01*
G01X0401299Y0203099D01*
G01X0400699Y0202599D01*
G01X0399999Y0202099D01*
G01X0399299Y0201699D01*
G01X0398599Y0201299D01*
G01X0397799Y0200999D01*
G01X0396899Y0200699D01*
G01X0396099Y0200399D01*
G01X0395199Y0200199D01*
G01X0394199Y0200099D01*
G01X0393199Y0199899D01*
G01X0392099Y0199899D01*
G01X0390999Y0199899D01*
G01X0390599Y0199899D01*
G01X0390099Y0199899D01*
G01X0389599Y0199899D01*
G01X0389199Y0199899D01*
G01X0388699Y0199899D01*
G01X0388199Y0199999D01*
G01X0387699Y0200099D01*
G01X0387299Y0200099D01*
G01X0386799Y0200199D01*
G01X0386399Y0200299D01*
G01X0385999Y0200299D01*
G01X0385599Y0200399D01*
G01X0385099Y0200499D01*
G01X0384699Y0200599D01*
G01X0384299Y0200699D01*
G01X0383899Y0200799D01*
G01X0383499Y0200899D01*
G01X0383199Y0200999D01*
G01X0382799Y0201099D01*
G01X0382499Y0201199D01*
G01X0382299Y0201299D01*
G01X0381999Y0201399D01*
G01X0381799Y0201499D01*
G01X0381699Y0201499D01*
G01X0383099Y0207199D01*
G01X0383499Y0206999D01*
G01X0383899Y0206799D01*
G01X0384399Y0206599D01*
G01X0384899Y0206399D01*
G01X0385499Y0206299D01*
G01X0386099Y0206099D01*
G01X0386699Y0205999D01*
G01X0387399Y0205799D01*
G01X0388199Y0205699D01*
G01X0388999Y0205599D01*
G01X0389899Y0205599D01*
G01X0390799Y0205599D01*
G01X0391499Y0205599D01*
G01X0392199Y0205599D01*
G01X0392699Y0205699D01*
G01X0393299Y0205699D01*
G01X0393799Y0205799D01*
G01X0394199Y0205999D01*
G01X0394599Y0206099D01*
G01X0394999Y0206299D01*
G01X0395299Y0206499D01*
G01X0395699Y0206699D01*
G01X0395999Y0206899D01*
G01X0396299Y0207099D01*
G01X0396499Y0207299D01*
G01X0396699Y0207499D01*
G01X0396899Y0207799D01*
G01X0396999Y0208099D01*
G01X0397199Y0208299D01*
G01X0397199Y0208599D01*
G01X0397399Y0208999D01*
G01X0397499Y0209399D01*
G01X0397499Y0209699D01*
G01X0397599Y0209999D01*
G01X0397599Y0210299D01*
G01X0397599Y0210699D01*
G01X0397599Y0210699D01*
G37*
G36*
G01X0437799Y0213599D02*
G01X0437799Y0214599D01*
G01X0437799Y0215499D01*
G01X0437999Y0216399D01*
G01X0438099Y0217199D01*
G01X0438299Y0218099D01*
G01X0438599Y0218899D01*
G01X0438899Y0219699D01*
G01X0439299Y0220499D01*
G01X0439699Y0221199D01*
G01X0440199Y0221899D01*
G01X0440799Y0222599D01*
G01X0441399Y0223199D01*
G01X0441999Y0223799D01*
G01X0442699Y0224399D01*
G01X0443499Y0224899D01*
G01X0444199Y0225299D01*
G01X0445099Y0225799D01*
G01X0445999Y0226099D01*
G01X0446899Y0226499D01*
G01X0447899Y0226699D01*
G01X0448999Y0226899D01*
G01X0450199Y0227099D01*
G01X0451399Y0227199D01*
G01X0452599Y0227199D01*
G01X0453399Y0227199D01*
G01X0454099Y0227199D01*
G01X0454799Y0227099D01*
G01X0455499Y0227099D01*
G01X0456199Y0226999D01*
G01X0456799Y0226899D01*
G01X0457399Y0226799D01*
G01X0458099Y0226699D01*
G01X0458699Y0226499D01*
G01X0459299Y0226299D01*
G01X0459999Y0226099D01*
G01X0460699Y0225799D01*
G01X0459199Y0220299D01*
G01X0458799Y0220399D01*
G01X0458399Y0220599D01*
G01X0457999Y0220699D01*
G01X0457599Y0220799D01*
G01X0457199Y0220899D01*
G01X0456699Y0220999D01*
G01X0456199Y0220999D01*
G01X0455699Y0221099D01*
G01X0455099Y0221199D01*
G01X0454499Y0221199D01*
G01X0453899Y0221299D01*
G01X0453199Y0221299D01*
G01X0452399Y0221299D01*
G01X0451599Y0221199D01*
G01X0450899Y0221099D01*
G01X0450199Y0220999D01*
G01X0449699Y0220899D01*
G01X0449199Y0220699D01*
G01X0448599Y0220499D01*
G01X0448099Y0220199D01*
G01X0447699Y0219999D01*
G01X0447299Y0219699D01*
G01X0446899Y0219399D01*
G01X0446499Y0218999D01*
G01X0446199Y0218699D01*
G01X0445899Y0218299D01*
G01X0445699Y0217899D01*
G01X0445499Y0217499D01*
G01X0445299Y0216999D01*
G01X0445099Y0216499D01*
G01X0444999Y0215999D01*
G01X0444899Y0215599D01*
G01X0444799Y0215099D01*
G01X0444799Y0214499D01*
G01X0444699Y0213999D01*
G01X0444699Y0213499D01*
G01X0444699Y0212299D01*
G01X0444899Y0211199D01*
G01X0445199Y0210299D01*
G01X0445599Y0209299D01*
G01X0446099Y0208499D01*
G01X0446799Y0207799D01*
G01X0447499Y0207099D01*
G01X0448399Y0206599D01*
G01X0449499Y0206199D01*
G01X0450699Y0205899D01*
G01X0452099Y0205699D01*
G01X0453799Y0205699D01*
G01X0454299Y0205699D01*
G01X0454899Y0205699D01*
G01X0455399Y0205699D01*
G01X0455999Y0205799D01*
G01X0456499Y0205799D01*
G01X0457099Y0205999D01*
G01X0457599Y0206099D01*
G01X0458199Y0206199D01*
G01X0458699Y0206299D01*
G01X0459299Y0206399D01*
G01X0459799Y0206499D01*
G01X0460299Y0206699D01*
G01X0461299Y0201099D01*
G01X0460799Y0200899D01*
G01X0460199Y0200699D01*
G01X0459699Y0200599D01*
G01X0459099Y0200399D01*
G01X0458499Y0200299D01*
G01X0457799Y0200099D01*
G01X0457099Y0199999D01*
G01X0456399Y0199899D01*
G01X0455599Y0199799D01*
G01X0454799Y0199799D01*
G01X0453899Y0199699D01*
G01X0452899Y0199699D01*
G01X0451599Y0199699D01*
G01X0450299Y0199799D01*
G01X0449199Y0199999D01*
G01X0448099Y0200199D01*
G01X0446999Y0200499D01*
G01X0446099Y0200799D01*
G01X0445099Y0201199D01*
G01X0444299Y0201599D01*
G01X0443499Y0202099D01*
G01X0442699Y0202599D01*
G01X0441999Y0203099D01*
G01X0441399Y0203799D01*
G01X0440799Y0204399D01*
G01X0440199Y0204999D01*
G01X0439799Y0205699D01*
G01X0439399Y0206499D01*
G01X0438999Y0207199D01*
G01X0438799Y0208099D01*
G01X0438399Y0208999D01*
G01X0438199Y0209899D01*
G01X0437999Y0210799D01*
G01X0437799Y0211699D01*
G01X0437799Y0212599D01*
G01X0437799Y0213599D01*
G01X0437799Y0213599D01*
G37*
G36*
G01X0482199Y0226899D02*
G01X0482899Y0226899D01*
G01X0483599Y0226899D01*
G01X0484199Y0226799D01*
G01X0484799Y0226599D01*
G01X0485299Y0226499D01*
G01X0485799Y0226299D01*
G01X0486299Y0225999D01*
G01X0486699Y0225799D01*
G01X0487099Y0225399D01*
G01X0487499Y0225099D01*
G01X0487799Y0224699D01*
G01X0488099Y0224299D01*
G01X0488299Y0223899D01*
G01X0488499Y0223399D01*
G01X0488699Y0222799D01*
G01X0488899Y0222199D01*
G01X0488999Y0221599D01*
G01X0489199Y0220999D01*
G01X0489199Y0220299D01*
G01X0489299Y0219499D01*
G01X0489399Y0218799D01*
G01X0489399Y0217999D01*
G01X0489399Y0217199D01*
G01X0489399Y0216299D01*
G01X0489399Y0200699D01*
G01X0483899Y0200699D01*
G01X0483899Y0216499D01*
G01X0483899Y0217099D01*
G01X0483899Y0217499D01*
G01X0483899Y0217899D01*
G01X0483899Y0218299D01*
G01X0483799Y0218699D01*
G01X0483799Y0218999D01*
G01X0483699Y0219299D01*
G01X0483599Y0219599D01*
G01X0483499Y0219799D01*
G01X0483399Y0220099D01*
G01X0483299Y0220299D01*
G01X0483199Y0220399D01*
G01X0483099Y0220599D01*
G01X0482999Y0220699D01*
G01X0482799Y0220799D01*
G01X0482699Y0220899D01*
G01X0482599Y0220999D01*
G01X0482499Y0221099D01*
G01X0482399Y0221199D01*
G01X0482199Y0221199D01*
G01X0482099Y0221199D01*
G01X0481899Y0221299D01*
G01X0481799Y0221299D01*
G01X0481699Y0221299D01*
G01X0481499Y0221299D01*
G01X0481399Y0221299D01*
G01X0481199Y0221199D01*
G01X0480999Y0221199D01*
G01X0480799Y0221199D01*
G01X0480599Y0221099D01*
G01X0480299Y0221099D01*
G01X0480199Y0221099D01*
G01X0479999Y0220999D01*
G01X0479899Y0220999D01*
G01X0479699Y0220899D01*
G01X0479599Y0220799D01*
G01X0479699Y0220499D01*
G01X0479699Y0220099D01*
G01X0479699Y0219699D01*
G01X0479799Y0219299D01*
G01X0479799Y0218899D01*
G01X0479899Y0218499D01*
G01X0479899Y0218099D01*
G01X0479899Y0217599D01*
G01X0479899Y0217099D01*
G01X0479999Y0216699D01*
G01X0479999Y0216199D01*
G01X0479999Y0215699D01*
G01X0479999Y0210399D01*
G01X0474399Y0210399D01*
G01X0474399Y0216499D01*
G01X0474399Y0217399D01*
G01X0474399Y0218199D01*
G01X0474299Y0218799D01*
G01X0474199Y0219399D01*
G01X0474099Y0219899D01*
G01X0473899Y0220299D01*
G01X0473699Y0220599D01*
G01X0473399Y0220899D01*
G01X0473199Y0221099D01*
G01X0472899Y0221299D01*
G01X0472599Y0221399D01*
G01X0472199Y0221399D01*
G01X0472099Y0221399D01*
G01X0471899Y0221399D01*
G01X0471799Y0221399D01*
G01X0471699Y0221399D01*
G01X0471499Y0221399D01*
G01X0471399Y0221399D01*
G01X0471299Y0221399D01*
G01X0471099Y0221399D01*
G01X0470999Y0221299D01*
G01X0470799Y0221299D01*
G01X0470599Y0221299D01*
G01X0470399Y0221299D01*
G01X0470399Y0200699D01*
G01X0464899Y0200699D01*
G01X0464899Y0225799D01*
G01X0465599Y0225999D01*
G01X0466299Y0226199D01*
G01X0466999Y0226399D01*
G01X0467699Y0226499D01*
G01X0468499Y0226699D01*
G01X0469199Y0226799D01*
G01X0469899Y0226899D01*
G01X0470499Y0226999D01*
G01X0471099Y0226999D01*
G01X0471799Y0227099D01*
G01X0472399Y0227099D01*
G01X0472899Y0227099D01*
G01X0473399Y0227099D01*
G01X0473899Y0226999D01*
G01X0474299Y0226999D01*
G01X0474699Y0226899D01*
G01X0475099Y0226799D01*
G01X0475599Y0226699D01*
G01X0475899Y0226499D01*
G01X0476299Y0226399D01*
G01X0476599Y0226099D01*
G01X0476899Y0225899D01*
G01X0477199Y0225699D01*
G01X0477499Y0225399D01*
G01X0477799Y0225599D01*
G01X0478199Y0225799D01*
G01X0478599Y0225999D01*
G01X0478899Y0226099D01*
G01X0479299Y0226299D01*
G01X0479699Y0226499D01*
G01X0480099Y0226699D01*
G01X0480499Y0226799D01*
G01X0480899Y0226799D01*
G01X0481299Y0226899D01*
G01X0481699Y0226899D01*
G01X0482199Y0226899D01*
G01X0482199Y0226899D01*
G37*
G36*
G01X0342099Y0090299D02*
G01X0341899Y0090799D01*
G01X0341699Y0091399D01*
G01X0341499Y0091899D01*
G01X0341299Y0092499D01*
G01X0341099Y0092999D01*
G01X0340999Y0093499D01*
G01X0340799Y0093999D01*
G01X0340699Y0094399D01*
G01X0340499Y0094899D01*
G01X0340299Y0095399D01*
G01X0340099Y0095799D01*
G01X0339999Y0096299D01*
G01X0339899Y0096699D01*
G01X0339699Y0097099D01*
G01X0339599Y0097599D01*
G01X0339399Y0098099D01*
G01X0339199Y0098499D01*
G01X0338999Y0098999D01*
G01X0338899Y0099499D01*
G01X0338699Y0099999D01*
G01X0338499Y0100599D01*
G01X0338399Y0101099D01*
G01X0338199Y0101699D01*
G01X0338099Y0102199D01*
G01X0337799Y0101699D01*
G01X0337699Y0101099D01*
G01X0337499Y0100599D01*
G01X0337399Y0099999D01*
G01X0337199Y0099499D01*
G01X0337099Y0098999D01*
G01X0336899Y0098499D01*
G01X0336799Y0098099D01*
G01X0336699Y0097599D01*
G01X0336499Y0097099D01*
G01X0336299Y0096699D01*
G01X0336099Y0096299D01*
G01X0335999Y0095799D01*
G01X0335799Y0095299D01*
G01X0335599Y0094899D01*
G01X0335499Y0094399D01*
G01X0335299Y0093999D01*
G01X0335099Y0093499D01*
G01X0334999Y0092999D01*
G01X0334799Y0092499D01*
G01X0334599Y0091899D01*
G01X0334399Y0091399D01*
G01X0334199Y0090799D01*
G01X0333899Y0090299D01*
G01X0328799Y0090299D01*
G01X0328499Y0091099D01*
G01X0328299Y0091999D01*
G01X0328099Y0092899D01*
G01X0327899Y0093799D01*
G01X0327699Y0094699D01*
G01X0327499Y0095699D01*
G01X0327299Y0096699D01*
G01X0327099Y0097699D01*
G01X0326899Y0098699D01*
G01X0326799Y0099799D01*
G01X0326599Y0100899D01*
G01X0326399Y0102099D01*
G01X0326299Y0103199D01*
G01X0326099Y0104299D01*
G01X0325899Y0105499D01*
G01X0325799Y0106699D01*
G01X0325599Y0107799D01*
G01X0325599Y0108999D01*
G01X0325399Y0110199D01*
G01X0325299Y0111399D01*
G01X0325199Y0112699D01*
G01X0324999Y0113899D01*
G01X0324899Y0115099D01*
G01X0324899Y0116399D01*
G01X0330699Y0116399D01*
G01X0330799Y0114799D01*
G01X0330799Y0113199D01*
G01X0330899Y0111599D01*
G01X0330999Y0109999D01*
G01X0330999Y0108499D01*
G01X0331099Y0106899D01*
G01X0331199Y0105399D01*
G01X0331299Y0103899D01*
G01X0331399Y0102299D01*
G01X0331599Y0100699D01*
G01X0331799Y0099099D01*
G01X0332099Y0097499D01*
G01X0332399Y0098199D01*
G01X0332599Y0098899D01*
G01X0332799Y0099499D01*
G01X0332999Y0100199D01*
G01X0333199Y0100799D01*
G01X0333299Y0101399D01*
G01X0333499Y0101999D01*
G01X0333699Y0102599D01*
G01X0333899Y0103199D01*
G01X0333999Y0103799D01*
G01X0334199Y0104299D01*
G01X0334299Y0104899D01*
G01X0334399Y0105399D01*
G01X0334599Y0105999D01*
G01X0334699Y0106499D01*
G01X0334899Y0106999D01*
G01X0334999Y0107599D01*
G01X0335099Y0108099D01*
G01X0335299Y0108499D01*
G01X0335399Y0109099D01*
G01X0335499Y0109599D01*
G01X0335699Y0110099D01*
G01X0335799Y0110699D01*
G01X0335799Y0111299D01*
G01X0340799Y0111299D01*
G01X0340999Y0110699D01*
G01X0341099Y0110199D01*
G01X0341199Y0109699D01*
G01X0341299Y0109099D01*
G01X0341399Y0108599D01*
G01X0341499Y0108099D01*
G01X0341699Y0107599D01*
G01X0341799Y0106999D01*
G01X0341899Y0106499D01*
G01X0342099Y0105999D01*
G01X0342199Y0105399D01*
G01X0342399Y0104899D01*
G01X0342499Y0104299D01*
G01X0342599Y0103799D01*
G01X0342799Y0103199D01*
G01X0342899Y0102599D01*
G01X0343099Y0101999D01*
G01X0343199Y0101399D01*
G01X0343299Y0100799D01*
G01X0343499Y0100099D01*
G01X0343699Y0099499D01*
G01X0343899Y0098899D01*
G01X0344099Y0098199D01*
G01X0344299Y0097499D01*
G01X0344399Y0098299D01*
G01X0344499Y0099199D01*
G01X0344599Y0099999D01*
G01X0344699Y0100799D01*
G01X0344799Y0101599D01*
G01X0344899Y0102399D01*
G01X0344899Y0103099D01*
G01X0344999Y0103899D01*
G01X0345099Y0104699D01*
G01X0345099Y0105399D01*
G01X0345199Y0106199D01*
G01X0345299Y0106899D01*
G01X0345299Y0107699D01*
G01X0345399Y0108499D01*
G01X0345399Y0109199D01*
G01X0345499Y0109999D01*
G01X0345499Y0110799D01*
G01X0345599Y0111499D01*
G01X0345599Y0112299D01*
G01X0345599Y0113099D01*
G01X0345599Y0113899D01*
G01X0345699Y0114699D01*
G01X0345699Y0115599D01*
G01X0345699Y0116399D01*
G01X0351499Y0116399D01*
G01X0351299Y0113799D01*
G01X0351099Y0111399D01*
G01X0350799Y0108999D01*
G01X0350499Y0106599D01*
G01X0350199Y0104299D01*
G01X0349899Y0102099D01*
G01X0349499Y0099899D01*
G01X0349099Y0097699D01*
G01X0348699Y0095799D01*
G01X0348299Y0093799D01*
G01X0347899Y0091899D01*
G01X0347499Y0090299D01*
G01X0342099Y0090299D01*
G01X0342099Y0090299D01*
G37*
G36*
G01X0355599Y0090299D02*
G01X0355599Y0127599D01*
G01X0362399Y0128799D01*
G01X0362399Y0116099D01*
G01X0362599Y0116199D01*
G01X0362999Y0116299D01*
G01X0363299Y0116399D01*
G01X0363599Y0116499D01*
G01X0363999Y0116599D01*
G01X0364299Y0116699D01*
G01X0364699Y0116699D01*
G01X0365099Y0116799D01*
G01X0365499Y0116899D01*
G01X0365799Y0116899D01*
G01X0366099Y0116899D01*
G01X0366399Y0116899D01*
G01X0367399Y0116899D01*
G01X0368199Y0116899D01*
G01X0368999Y0116699D01*
G01X0369799Y0116599D01*
G01X0370599Y0116399D01*
G01X0371299Y0116099D01*
G01X0371899Y0115799D01*
G01X0372499Y0115499D01*
G01X0372999Y0115099D01*
G01X0373499Y0114699D01*
G01X0373999Y0114199D01*
G01X0374299Y0113599D01*
G01X0374699Y0113099D01*
G01X0375099Y0112499D01*
G01X0375299Y0111799D01*
G01X0375599Y0111199D01*
G01X0375799Y0110599D01*
G01X0375999Y0109899D01*
G01X0376099Y0109099D01*
G01X0376299Y0108299D01*
G01X0376399Y0107499D01*
G01X0376499Y0106699D01*
G01X0376499Y0105899D01*
G01X0376499Y0104999D01*
G01X0376499Y0090299D01*
G01X0369699Y0090299D01*
G01X0369699Y0104199D01*
G01X0369699Y0105399D01*
G01X0369699Y0106499D01*
G01X0369499Y0107299D01*
G01X0369399Y0108199D01*
G01X0369199Y0108899D01*
G01X0368899Y0109399D01*
G01X0368599Y0109999D01*
G01X0368199Y0110399D01*
G01X0367699Y0110699D01*
G01X0367099Y0110999D01*
G01X0366499Y0111099D01*
G01X0365699Y0111099D01*
G01X0365299Y0111099D01*
G01X0364999Y0111099D01*
G01X0364699Y0110999D01*
G01X0364399Y0110999D01*
G01X0364199Y0110899D01*
G01X0363899Y0110799D01*
G01X0363599Y0110799D01*
G01X0363299Y0110699D01*
G01X0363099Y0110599D01*
G01X0362799Y0110599D01*
G01X0362599Y0110499D01*
G01X0362399Y0110399D01*
G01X0362399Y0090299D01*
G01X0355599Y0090299D01*
G01X0355599Y0090299D01*
G37*
G36*
G01X0405699Y0091399D02*
G01X0404999Y0090999D01*
G01X0404299Y0090799D01*
G01X0403599Y0090499D01*
G01X0402999Y0090299D01*
G01X0402299Y0090099D01*
G01X0401699Y0089999D01*
G01X0400999Y0089899D01*
G01X0400499Y0089799D01*
G01X0399899Y0089699D01*
G01X0399299Y0089599D01*
G01X0398799Y0089599D01*
G01X0398199Y0089599D01*
G01X0397299Y0089599D01*
G01X0396499Y0089699D01*
G01X0395699Y0089799D01*
G01X0394999Y0089899D01*
G01X0394299Y0090099D01*
G01X0393799Y0090399D01*
G01X0393099Y0090699D01*
G01X0392599Y0090999D01*
G01X0392099Y0091399D01*
G01X0391599Y0091699D01*
G01X0391199Y0092199D01*
G01X0390799Y0092599D01*
G01X0390499Y0093099D01*
G01X0390199Y0093699D01*
G01X0389899Y0094299D01*
G01X0389699Y0094899D01*
G01X0389399Y0095599D01*
G01X0389299Y0096299D01*
G01X0389199Y0096899D01*
G01X0389099Y0097699D01*
G01X0388999Y0098499D01*
G01X0388899Y0099299D01*
G01X0388899Y0100199D01*
G01X0388899Y0101099D01*
G01X0388899Y0110699D01*
G01X0381699Y0110699D01*
G01X0381699Y0116399D01*
G01X0395699Y0116399D01*
G01X0395699Y0100299D01*
G01X0395699Y0099499D01*
G01X0395799Y0098799D01*
G01X0395899Y0098199D01*
G01X0395999Y0097599D01*
G01X0396299Y0097199D01*
G01X0396499Y0096799D01*
G01X0396799Y0096499D01*
G01X0397199Y0096199D01*
G01X0397699Y0095999D01*
G01X0398199Y0095799D01*
G01X0398799Y0095699D01*
G01X0399399Y0095699D01*
G01X0399699Y0095699D01*
G01X0400099Y0095699D01*
G01X0400499Y0095799D01*
G01X0400799Y0095799D01*
G01X0401299Y0095899D01*
G01X0401699Y0095999D01*
G01X0402099Y0095999D01*
G01X0402599Y0096199D01*
G01X0403099Y0096399D01*
G01X0403599Y0096499D01*
G01X0404199Y0096699D01*
G01X0404699Y0096899D01*
G01X0405699Y0091399D01*
G01X0405699Y0091399D01*
G37*
G36*
G01X0395599Y0123899D02*
G01X0395599Y0123199D01*
G01X0395499Y0122599D01*
G01X0395199Y0122099D01*
G01X0394999Y0121599D01*
G01X0394699Y0121099D01*
G01X0394299Y0120699D01*
G01X0393899Y0120299D01*
G01X0393399Y0119999D01*
G01X0392899Y0119799D01*
G01X0392399Y0119699D01*
G01X0391899Y0119599D01*
G01X0391299Y0119599D01*
G01X0390599Y0119599D01*
G01X0390099Y0119699D01*
G01X0389599Y0119899D01*
G01X0389099Y0120099D01*
G01X0388599Y0120299D01*
G01X0388199Y0120699D01*
G01X0387799Y0121099D01*
G01X0387499Y0121599D01*
G01X0387299Y0122099D01*
G01X0386999Y0122599D01*
G01X0386899Y0123199D01*
G01X0386899Y0123899D01*
G01X0386899Y0124599D01*
G01X0386999Y0125199D01*
G01X0387299Y0125699D01*
G01X0387499Y0126299D01*
G01X0387799Y0126699D01*
G01X0388199Y0127099D01*
G01X0388599Y0127499D01*
G01X0389099Y0127799D01*
G01X0389599Y0127999D01*
G01X0390099Y0128099D01*
G01X0390599Y0128199D01*
G01X0391299Y0128199D01*
G01X0391799Y0128199D01*
G01X0392399Y0128099D01*
G01X0392899Y0127899D01*
G01X0393399Y0127699D01*
G01X0393899Y0127399D01*
G01X0394299Y0127099D01*
G01X0394699Y0126699D01*
G01X0394999Y0126299D01*
G01X0395199Y0125699D01*
G01X0395499Y0125199D01*
G01X0395599Y0124599D01*
G01X0395599Y0123899D01*
G01X0395599Y0123899D01*
G37*
G36*
G01X0415599Y0110699D02*
G01X0409599Y0110699D01*
G01X0409599Y0116399D01*
G01X0415599Y0116399D01*
G01X0415599Y0122899D01*
G01X0422399Y0123999D01*
G01X0422399Y0116399D01*
G01X0433299Y0116399D01*
G01X0433299Y0110699D01*
G01X0422399Y0110699D01*
G01X0422399Y0100099D01*
G01X0422399Y0099699D01*
G01X0422399Y0099199D01*
G01X0422399Y0098899D01*
G01X0422499Y0098499D01*
G01X0422599Y0098099D01*
G01X0422599Y0097799D01*
G01X0422699Y0097499D01*
G01X0422799Y0097199D01*
G01X0422999Y0096999D01*
G01X0423099Y0096699D01*
G01X0423299Y0096499D01*
G01X0423499Y0096399D01*
G01X0423599Y0096299D01*
G01X0423799Y0096099D01*
G01X0423999Y0095999D01*
G01X0424199Y0095899D01*
G01X0424399Y0095799D01*
G01X0424699Y0095699D01*
G01X0424999Y0095599D01*
G01X0425199Y0095599D01*
G01X0425499Y0095599D01*
G01X0425799Y0095599D01*
G01X0425999Y0095599D01*
G01X0426399Y0095599D01*
G01X0426699Y0095599D01*
G01X0426999Y0095599D01*
G01X0427299Y0095599D01*
G01X0427599Y0095599D01*
G01X0427899Y0095599D01*
G01X0428199Y0095599D01*
G01X0428499Y0095599D01*
G01X0428799Y0095599D01*
G01X0428999Y0095599D01*
G01X0429299Y0095699D01*
G01X0429499Y0095699D01*
G01X0429699Y0095699D01*
G01X0429899Y0095699D01*
G01X0430199Y0095799D01*
G01X0430399Y0095899D01*
G01X0430699Y0095899D01*
G01X0430999Y0095999D01*
G01X0431299Y0096099D01*
G01X0431499Y0096199D01*
G01X0431799Y0096299D01*
G01X0432099Y0096399D01*
G01X0432399Y0096499D01*
G01X0432699Y0096699D01*
G01X0433099Y0096799D01*
G01X0433999Y0090999D01*
G01X0433399Y0090699D01*
G01X0432699Y0090499D01*
G01X0432099Y0090299D01*
G01X0431399Y0090099D01*
G01X0430699Y0089999D01*
G01X0429999Y0089899D01*
G01X0429199Y0089699D01*
G01X0428499Y0089699D01*
G01X0427799Y0089599D01*
G01X0427099Y0089599D01*
G01X0426399Y0089599D01*
G01X0425699Y0089599D01*
G01X0424899Y0089599D01*
G01X0424099Y0089599D01*
G01X0423399Y0089699D01*
G01X0422699Y0089799D01*
G01X0422099Y0089899D01*
G01X0421499Y0089999D01*
G01X0420899Y0090099D01*
G01X0420299Y0090299D01*
G01X0419799Y0090599D01*
G01X0419299Y0090799D01*
G01X0418899Y0091099D01*
G01X0418499Y0091499D01*
G01X0418099Y0091899D01*
G01X0417699Y0092299D01*
G01X0417299Y0092899D01*
G01X0416999Y0093399D01*
G01X0416699Y0093999D01*
G01X0416499Y0094699D01*
G01X0416299Y0095399D01*
G01X0416099Y0096199D01*
G01X0415999Y0096999D01*
G01X0415899Y0097899D01*
G01X0415799Y0098899D01*
G01X0415799Y0099999D01*
G01X0415799Y0110699D01*
G01X0415599Y0110699D01*
G37*
G36*
G01X0437099Y0103099D02*
G01X0437099Y0104199D01*
G01X0437199Y0105299D01*
G01X0437399Y0106299D01*
G01X0437599Y0107299D01*
G01X0437799Y0108299D01*
G01X0438199Y0109199D01*
G01X0438499Y0109999D01*
G01X0438999Y0110799D01*
G01X0439399Y0111499D01*
G01X0439899Y0112299D01*
G01X0440399Y0112899D01*
G01X0440999Y0113499D01*
G01X0441499Y0113999D01*
G01X0442199Y0114499D01*
G01X0442799Y0114999D01*
G01X0443499Y0115499D01*
G01X0444199Y0115799D01*
G01X0444899Y0116099D01*
G01X0445599Y0116399D01*
G01X0446399Y0116599D01*
G01X0447199Y0116699D01*
G01X0447899Y0116899D01*
G01X0448699Y0116899D01*
G01X0449399Y0116899D01*
G01X0451399Y0116899D01*
G01X0453099Y0116699D01*
G01X0454499Y0116099D01*
G01X0455999Y0115499D01*
G01X0457199Y0114699D01*
G01X0458199Y0113499D01*
G01X0459199Y0112399D01*
G01X0459899Y0110999D01*
G01X0460499Y0109299D01*
G01X0460999Y0107599D01*
G01X0461299Y0105699D01*
G01X0461299Y0103499D01*
G01X0461299Y0103299D01*
G01X0461299Y0102999D01*
G01X0461299Y0102799D01*
G01X0461299Y0102499D01*
G01X0461299Y0102299D01*
G01X0461299Y0102099D01*
G01X0461299Y0101799D01*
G01X0461299Y0101599D01*
G01X0461199Y0101399D01*
G01X0461199Y0101299D01*
G01X0461199Y0101099D01*
G01X0461099Y0100999D01*
G01X0444199Y0100999D01*
G01X0444199Y0100099D01*
G01X0444299Y0099399D01*
G01X0444699Y0098699D01*
G01X0444999Y0097999D01*
G01X0445599Y0097399D01*
G01X0446299Y0096899D01*
G01X0446899Y0096499D01*
G01X0447699Y0096099D01*
G01X0448599Y0095799D01*
G01X0449499Y0095599D01*
G01X0450599Y0095399D01*
G01X0451699Y0095399D01*
G01X0452399Y0095399D01*
G01X0452999Y0095499D01*
G01X0453699Y0095499D01*
G01X0454299Y0095599D01*
G01X0454899Y0095699D01*
G01X0455599Y0095799D01*
G01X0456199Y0095999D01*
G01X0456699Y0096099D01*
G01X0457299Y0096299D01*
G01X0457799Y0096399D01*
G01X0458299Y0096499D01*
G01X0458799Y0096699D01*
G01X0459699Y0090799D01*
G01X0459099Y0090599D01*
G01X0458499Y0090499D01*
G01X0457799Y0090299D01*
G01X0457199Y0090099D01*
G01X0456599Y0089999D01*
G01X0455999Y0089899D01*
G01X0455299Y0089699D01*
G01X0454599Y0089599D01*
G01X0453899Y0089499D01*
G01X0453099Y0089499D01*
G01X0452399Y0089399D01*
G01X0451499Y0089399D01*
G01X0450399Y0089399D01*
G01X0449399Y0089499D01*
G01X0448399Y0089699D01*
G01X0447399Y0089799D01*
G01X0446499Y0089999D01*
G01X0445599Y0090299D01*
G01X0444699Y0090599D01*
G01X0443899Y0090899D01*
G01X0443099Y0091299D01*
G01X0442399Y0091699D01*
G01X0441699Y0092199D01*
G01X0441099Y0092799D01*
G01X0440499Y0093299D01*
G01X0439899Y0093999D01*
G01X0439399Y0094699D01*
G01X0438999Y0095299D01*
G01X0438499Y0096099D01*
G01X0438199Y0096899D01*
G01X0437799Y0097799D01*
G01X0437599Y0098799D01*
G01X0437399Y0099799D01*
G01X0437199Y0100899D01*
G01X0437099Y0101999D01*
G01X0437099Y0103099D01*
G01X0437099Y0103099D01*
G37*
%LPC*%
G36*
G01X0454599Y0105799D02*
G01X0454599Y0106199D01*
G01X0454499Y0106499D01*
G01X0454499Y0106899D01*
G01X0454399Y0107199D01*
G01X0454399Y0107599D01*
G01X0454299Y0107899D01*
G01X0454199Y0108299D01*
G01X0454099Y0108599D01*
G01X0453899Y0108899D01*
G01X0453799Y0109199D01*
G01X0453599Y0109399D01*
G01X0453499Y0109699D01*
G01X0453299Y0109999D01*
G01X0452999Y0110199D01*
G01X0452799Y0110499D01*
G01X0452499Y0110699D01*
G01X0452199Y0110799D01*
G01X0451899Y0110999D01*
G01X0451699Y0111099D01*
G01X0451299Y0111199D01*
G01X0450899Y0111299D01*
G01X0450499Y0111399D01*
G01X0450099Y0111399D01*
G01X0449599Y0111399D01*
G01X0449199Y0111399D01*
G01X0448799Y0111399D01*
G01X0448399Y0111299D01*
G01X0447999Y0111199D01*
G01X0447599Y0111099D01*
G01X0447199Y0110999D01*
G01X0446899Y0110799D01*
G01X0446599Y0110699D01*
G01X0446299Y0110499D01*
G01X0446099Y0110199D01*
G01X0445799Y0109999D01*
G01X0445599Y0109699D01*
G01X0445299Y0109399D01*
G01X0445199Y0109199D01*
G01X0444999Y0108899D01*
G01X0444899Y0108599D01*
G01X0444699Y0108299D01*
G01X0444599Y0107899D01*
G01X0444399Y0107599D01*
G01X0444299Y0107199D01*
G01X0444299Y0106899D01*
G01X0444199Y0106499D01*
G01X0444199Y0106199D01*
G01X0444199Y0105799D01*
G01X0454599Y0105799D01*
G01X0454599Y0105799D01*
G37*
%LPD*%
G36*
G01X0300399Y0045299D02*
G01X0300399Y0045799D01*
G01X0300399Y0046199D01*
G01X0300299Y0046699D01*
G01X0300199Y0047099D01*
G01X0300099Y0047499D01*
G01X0299999Y0047899D01*
G01X0299899Y0048299D01*
G01X0299599Y0048699D01*
G01X0299299Y0049099D01*
G01X0298999Y0049399D01*
G01X0298499Y0049699D01*
G01X0298099Y0049999D01*
G01X0297599Y0050299D01*
G01X0296999Y0050499D01*
G01X0296299Y0050699D01*
G01X0295599Y0050999D01*
G01X0294899Y0051199D01*
G01X0293999Y0051399D01*
G01X0293099Y0051499D01*
G01X0292099Y0051599D01*
G01X0290999Y0051699D01*
G01X0289899Y0051799D01*
G01X0288599Y0051799D01*
G01X0287199Y0051799D01*
G01X0287399Y0053299D01*
G01X0287599Y0054899D01*
G01X0287699Y0056399D01*
G01X0287899Y0057899D01*
G01X0287999Y0059399D01*
G01X0288099Y0060999D01*
G01X0288199Y0062399D01*
G01X0288299Y0063899D01*
G01X0288399Y0065299D01*
G01X0288499Y0066799D01*
G01X0288499Y0068199D01*
G01X0288599Y0069599D01*
G01X0306099Y0069599D01*
G01X0306099Y0063899D01*
G01X0294299Y0063899D01*
G01X0294299Y0063299D01*
G01X0294299Y0062699D01*
G01X0294199Y0062099D01*
G01X0294199Y0061499D01*
G01X0294099Y0060799D01*
G01X0293999Y0060099D01*
G01X0293999Y0059499D01*
G01X0293899Y0058899D01*
G01X0293899Y0058399D01*
G01X0293899Y0057799D01*
G01X0293799Y0057399D01*
G01X0293799Y0056899D01*
G01X0295999Y0056799D01*
G01X0298099Y0056499D01*
G01X0299799Y0055899D01*
G01X0301499Y0055299D01*
G01X0302899Y0054599D01*
G01X0303999Y0053599D01*
G01X0305099Y0052599D01*
G01X0305999Y0051499D01*
G01X0306499Y0050199D01*
G01X0307099Y0048799D01*
G01X0307399Y0047299D01*
G01X0307399Y0045599D01*
G01X0307399Y0044799D01*
G01X0307299Y0043999D01*
G01X0307199Y0043299D01*
G01X0306999Y0042499D01*
G01X0306799Y0041799D01*
G01X0306499Y0041099D01*
G01X0306299Y0040399D01*
G01X0305899Y0039799D01*
G01X0305499Y0039199D01*
G01X0305099Y0038599D01*
G01X0304599Y0038099D01*
G01X0303999Y0037599D01*
G01X0303499Y0037199D01*
G01X0302799Y0036699D01*
G01X0302099Y0036299D01*
G01X0301399Y0035899D01*
G01X0300599Y0035599D01*
G01X0299699Y0035299D01*
G01X0298899Y0034999D01*
G01X0297999Y0034799D01*
G01X0296899Y0034699D01*
G01X0295899Y0034499D01*
G01X0294899Y0034399D01*
G01X0293799Y0034399D01*
G01X0293299Y0034399D01*
G01X0292899Y0034399D01*
G01X0292399Y0034499D01*
G01X0291899Y0034499D01*
G01X0291499Y0034499D01*
G01X0290999Y0034599D01*
G01X0290499Y0034699D01*
G01X0289999Y0034699D01*
G01X0289599Y0034799D01*
G01X0289199Y0034899D01*
G01X0288799Y0034899D01*
G01X0288299Y0034999D01*
G01X0287899Y0035099D01*
G01X0287499Y0035199D01*
G01X0287099Y0035299D01*
G01X0286699Y0035399D01*
G01X0286299Y0035499D01*
G01X0285999Y0035599D01*
G01X0285599Y0035699D01*
G01X0285299Y0035799D01*
G01X0285099Y0035899D01*
G01X0284799Y0035999D01*
G01X0284599Y0035999D01*
G01X0284399Y0036099D01*
G01X0285799Y0041799D01*
G01X0286299Y0041599D01*
G01X0286699Y0041399D01*
G01X0287199Y0041199D01*
G01X0287699Y0040999D01*
G01X0288299Y0040799D01*
G01X0288899Y0040699D01*
G01X0289499Y0040599D01*
G01X0290199Y0040399D01*
G01X0290999Y0040299D01*
G01X0291799Y0040199D01*
G01X0292599Y0040099D01*
G01X0293599Y0040099D01*
G01X0294299Y0040099D01*
G01X0294899Y0040199D01*
G01X0295499Y0040199D01*
G01X0295999Y0040299D01*
G01X0296499Y0040399D01*
G01X0296899Y0040599D01*
G01X0297399Y0040699D01*
G01X0297699Y0040899D01*
G01X0298099Y0041099D01*
G01X0298399Y0041299D01*
G01X0298799Y0041499D01*
G01X0298999Y0041699D01*
G01X0299299Y0041899D01*
G01X0299499Y0042099D01*
G01X0299699Y0042399D01*
G01X0299799Y0042599D01*
G01X0299899Y0042899D01*
G01X0299999Y0043199D01*
G01X0300099Y0043599D01*
G01X0300199Y0043999D01*
G01X0300299Y0044299D01*
G01X0300399Y0044599D01*
G01X0300399Y0044899D01*
G01X0300399Y0045299D01*
G01X0300399Y0045299D01*
G37*
G36*
G01X0316699Y0052799D02*
G01X0331899Y0052799D01*
G01X0331899Y0046099D01*
G01X0316699Y0046099D01*
G01X0316699Y0052799D01*
G01X0316699Y0052799D01*
G37*
G36*
G01X0349999Y0040799D02*
G01X0349999Y0059999D01*
G01X0349499Y0059699D01*
G01X0348999Y0059299D01*
G01X0348399Y0058999D01*
G01X0347699Y0058599D01*
G01X0347099Y0058299D01*
G01X0346399Y0058099D01*
G01X0345699Y0057799D01*
G01X0345099Y0057499D01*
G01X0344499Y0057299D01*
G01X0343999Y0057099D01*
G01X0343499Y0056899D01*
G01X0343099Y0056699D01*
G01X0340799Y0062399D01*
G01X0341299Y0062499D01*
G01X0341699Y0062699D01*
G01X0342199Y0062899D01*
G01X0342699Y0063099D01*
G01X0343199Y0063299D01*
G01X0343799Y0063599D01*
G01X0344199Y0063899D01*
G01X0344799Y0064199D01*
G01X0345299Y0064399D01*
G01X0345799Y0064699D01*
G01X0346299Y0064999D01*
G01X0346799Y0065299D01*
G01X0347299Y0065599D01*
G01X0347799Y0065899D01*
G01X0348299Y0066299D01*
G01X0348799Y0066599D01*
G01X0349299Y0066899D01*
G01X0349699Y0067199D01*
G01X0350099Y0067599D01*
G01X0350599Y0067899D01*
G01X0350999Y0068299D01*
G01X0351399Y0068599D01*
G01X0351699Y0068999D01*
G01X0352099Y0069399D01*
G01X0356799Y0069399D01*
G01X0356799Y0040699D01*
G01X0363599Y0040699D01*
G01X0363599Y0034999D01*
G01X0342799Y0034999D01*
G01X0342799Y0040699D01*
G01X0349999Y0040699D01*
G01X0349999Y0040799D01*
G37*
G36*
G01X0389999Y0060599D02*
G01X0389999Y0059899D01*
G01X0389899Y0059299D01*
G01X0389799Y0058799D01*
G01X0389699Y0058199D01*
G01X0389499Y0057599D01*
G01X0389299Y0057099D01*
G01X0389099Y0056499D01*
G01X0388899Y0055999D01*
G01X0388599Y0055399D01*
G01X0388299Y0054899D01*
G01X0387899Y0054399D01*
G01X0387499Y0053899D01*
G01X0387199Y0053399D01*
G01X0386799Y0052899D01*
G01X0386399Y0052399D01*
G01X0385899Y0051799D01*
G01X0385499Y0051299D01*
G01X0384999Y0050799D01*
G01X0384499Y0050299D01*
G01X0384099Y0049899D01*
G01X0383599Y0049399D01*
G01X0383199Y0048899D01*
G01X0382699Y0048499D01*
G01X0382199Y0048099D01*
G01X0381999Y0047799D01*
G01X0381799Y0047599D01*
G01X0381499Y0047299D01*
G01X0381199Y0047099D01*
G01X0380899Y0046799D01*
G01X0380599Y0046499D01*
G01X0380299Y0046299D01*
G01X0379999Y0045899D01*
G01X0379699Y0045599D01*
G01X0379299Y0045299D01*
G01X0378999Y0044899D01*
G01X0378799Y0044599D01*
G01X0378499Y0044199D01*
G01X0378199Y0043899D01*
G01X0377999Y0043599D01*
G01X0377799Y0043299D01*
G01X0377599Y0042999D01*
G01X0377399Y0042599D01*
G01X0377199Y0042299D01*
G01X0376999Y0041999D01*
G01X0376899Y0041699D01*
G01X0376799Y0041399D01*
G01X0376799Y0041099D01*
G01X0376799Y0040799D01*
G01X0391499Y0040799D01*
G01X0391499Y0035099D01*
G01X0368999Y0035099D01*
G01X0368999Y0035299D01*
G01X0368899Y0035599D01*
G01X0368899Y0035799D01*
G01X0368899Y0035999D01*
G01X0368899Y0036299D01*
G01X0368899Y0036499D01*
G01X0368899Y0036799D01*
G01X0368899Y0036999D01*
G01X0368899Y0037199D01*
G01X0368899Y0037399D01*
G01X0368899Y0037599D01*
G01X0368899Y0037599D01*
G01X0368899Y0038499D01*
G01X0368999Y0039399D01*
G01X0369199Y0040299D01*
G01X0369299Y0041199D01*
G01X0369599Y0041999D01*
G01X0369899Y0042799D01*
G01X0370199Y0043499D01*
G01X0370599Y0044299D01*
G01X0370999Y0044999D01*
G01X0371499Y0045799D01*
G01X0371899Y0046499D01*
G01X0372499Y0047099D01*
G01X0373099Y0047699D01*
G01X0373599Y0048299D01*
G01X0374199Y0048899D01*
G01X0374699Y0049499D01*
G01X0375299Y0050099D01*
G01X0375799Y0050699D01*
G01X0376499Y0051299D01*
G01X0376999Y0051799D01*
G01X0377599Y0052299D01*
G01X0378199Y0052899D01*
G01X0378699Y0053399D01*
G01X0379199Y0053899D01*
G01X0379699Y0054399D01*
G01X0380199Y0054899D01*
G01X0380599Y0055399D01*
G01X0381099Y0055899D01*
G01X0381499Y0056499D01*
G01X0381799Y0056899D01*
G01X0382199Y0057399D01*
G01X0382399Y0057899D01*
G01X0382599Y0058399D01*
G01X0382699Y0058899D01*
G01X0382799Y0059399D01*
G01X0382799Y0059899D01*
G01X0382799Y0060599D01*
G01X0382699Y0061199D01*
G01X0382499Y0061699D01*
G01X0382299Y0062299D01*
G01X0381899Y0062699D01*
G01X0381499Y0063099D01*
G01X0381099Y0063399D01*
G01X0380599Y0063699D01*
G01X0380099Y0063899D01*
G01X0379499Y0064099D01*
G01X0378999Y0064199D01*
G01X0378299Y0064199D01*
G01X0377799Y0064199D01*
G01X0377199Y0064099D01*
G01X0376699Y0063999D01*
G01X0376099Y0063799D01*
G01X0375599Y0063599D01*
G01X0374999Y0063299D01*
G01X0374399Y0063099D01*
G01X0373899Y0062699D01*
G01X0373299Y0062299D01*
G01X0372699Y0061799D01*
G01X0372099Y0061299D01*
G01X0371499Y0060699D01*
G01X0368199Y0065399D01*
G01X0368999Y0066199D01*
G01X0369799Y0066799D01*
G01X0370599Y0067399D01*
G01X0371499Y0067999D01*
G01X0372399Y0068499D01*
G01X0373299Y0068899D01*
G01X0374299Y0069199D01*
G01X0375299Y0069499D01*
G01X0376299Y0069699D01*
G01X0377199Y0069899D01*
G01X0378199Y0069999D01*
G01X0379199Y0069999D01*
G01X0379899Y0069999D01*
G01X0380599Y0069999D01*
G01X0381199Y0069899D01*
G01X0381899Y0069799D01*
G01X0382599Y0069699D01*
G01X0383199Y0069399D01*
G01X0383799Y0069199D01*
G01X0384399Y0068999D01*
G01X0384999Y0068699D01*
G01X0385599Y0068399D01*
G01X0386199Y0068099D01*
G01X0386699Y0067599D01*
G01X0387199Y0067199D01*
G01X0387599Y0066799D01*
G01X0387999Y0066299D01*
G01X0388399Y0065799D01*
G01X0388799Y0065199D01*
G01X0388999Y0064599D01*
G01X0389399Y0064099D01*
G01X0389599Y0063499D01*
G01X0389799Y0062799D01*
G01X0389899Y0062099D01*
G01X0389999Y0061299D01*
G01X0389999Y0060599D01*
G01X0389999Y0060599D01*
G37*
G36*
G01X0419599Y0052499D02*
G01X0419599Y0049399D01*
G01X0419299Y0046799D01*
G01X0418799Y0044499D01*
G01X0418299Y0042299D01*
G01X0417599Y0040399D01*
G01X0416499Y0038899D01*
G01X0415499Y0037399D01*
G01X0414199Y0036299D01*
G01X0412799Y0035599D01*
G01X0411299Y0034799D01*
G01X0409599Y0034399D01*
G01X0407599Y0034399D01*
G01X0405699Y0034399D01*
G01X0403999Y0034799D01*
G01X0402499Y0035599D01*
G01X0400999Y0036299D01*
G01X0399799Y0037399D01*
G01X0398799Y0038899D01*
G01X0397699Y0040299D01*
G01X0396899Y0042199D01*
G01X0396399Y0044499D01*
G01X0395899Y0046799D01*
G01X0395699Y0049399D01*
G01X0395699Y0052499D01*
G01X0395699Y0055499D01*
G01X0395999Y0058099D01*
G01X0396499Y0060299D01*
G01X0396999Y0062599D01*
G01X0397799Y0064399D01*
G01X0398799Y0065999D01*
G01X0399799Y0067399D01*
G01X0400999Y0068499D01*
G01X0402499Y0069299D01*
G01X0403999Y0069999D01*
G01X0405699Y0070399D01*
G01X0407599Y0070399D01*
G01X0409599Y0070399D01*
G01X0411299Y0069999D01*
G01X0412799Y0069299D01*
G01X0414199Y0068499D01*
G01X0415499Y0067399D01*
G01X0416499Y0065999D01*
G01X0417599Y0064499D01*
G01X0418299Y0062599D01*
G01X0418799Y0060399D01*
G01X0419299Y0058099D01*
G01X0419599Y0055499D01*
G01X0419599Y0052499D01*
G01X0419599Y0052499D01*
G37*
%LPC*%
G36*
G01X0413299Y0052499D02*
G01X0413299Y0054399D01*
G01X0413199Y0056199D01*
G01X0412899Y0057699D01*
G01X0412699Y0059199D01*
G01X0412299Y0060499D01*
G01X0411799Y0061499D01*
G01X0411299Y0062599D01*
G01X0410699Y0063299D01*
G01X0409999Y0063799D01*
G01X0409299Y0064299D01*
G01X0408499Y0064599D01*
G01X0407499Y0064599D01*
G01X0406599Y0064599D01*
G01X0405799Y0064299D01*
G01X0404999Y0063799D01*
G01X0404299Y0063299D01*
G01X0403699Y0062599D01*
G01X0403199Y0061499D01*
G01X0402699Y0060499D01*
G01X0402299Y0059199D01*
G01X0402099Y0057699D01*
G01X0401799Y0056299D01*
G01X0401699Y0054499D01*
G01X0401699Y0052499D01*
G01X0401699Y0050499D01*
G01X0401799Y0048799D01*
G01X0402099Y0047299D01*
G01X0402299Y0045799D01*
G01X0402699Y0044499D01*
G01X0403199Y0043499D01*
G01X0403699Y0042399D01*
G01X0404299Y0041699D01*
G01X0404999Y0041199D01*
G01X0405699Y0040699D01*
G01X0406499Y0040399D01*
G01X0407499Y0040399D01*
G01X0408499Y0040399D01*
G01X0409299Y0040699D01*
G01X0409999Y0041199D01*
G01X0410699Y0041699D01*
G01X0411299Y0042399D01*
G01X0411799Y0043499D01*
G01X0412399Y0044399D01*
G01X0412699Y0045699D01*
G01X0412999Y0047199D01*
G01X0413199Y0048699D01*
G01X0413299Y0050499D01*
G01X0413299Y0052499D01*
G01X0413299Y0052499D01*
G37*
%LPD*%
G36*
G01X0410699Y0053099D02*
G01X0410699Y0052599D01*
G01X0410599Y0052099D01*
G01X0410499Y0051699D01*
G01X0410299Y0051299D01*
G01X0410099Y0050799D01*
G01X0409899Y0050399D01*
G01X0409599Y0050099D01*
G01X0409299Y0049799D01*
G01X0408899Y0049599D01*
G01X0408499Y0049399D01*
G01X0408099Y0049299D01*
G01X0407599Y0049299D01*
G01X0407199Y0049299D01*
G01X0406699Y0049399D01*
G01X0406399Y0049599D01*
G01X0405999Y0049799D01*
G01X0405699Y0050099D01*
G01X0405399Y0050399D01*
G01X0405099Y0050799D01*
G01X0404899Y0051099D01*
G01X0404799Y0051599D01*
G01X0404699Y0051999D01*
G01X0404599Y0052499D01*
G01X0404599Y0053099D01*
G01X0404599Y0053599D01*
G01X0404699Y0054099D01*
G01X0404799Y0054499D01*
G01X0404899Y0054899D01*
G01X0405099Y0055299D01*
G01X0405399Y0055699D01*
G01X0405699Y0055999D01*
G01X0405999Y0056299D01*
G01X0406399Y0056499D01*
G01X0406699Y0056699D01*
G01X0407199Y0056799D01*
G01X0407599Y0056799D01*
G01X0408099Y0056799D01*
G01X0408499Y0056699D01*
G01X0408899Y0056499D01*
G01X0409199Y0056299D01*
G01X0409599Y0055999D01*
G01X0409899Y0055699D01*
G01X0410099Y0055299D01*
G01X0410299Y0054899D01*
G01X0410499Y0054399D01*
G01X0410599Y0053999D01*
G01X0410699Y0053499D01*
G01X0410699Y0053099D01*
G01X0410699Y0053099D01*
G37*
G36*
G01X0451699Y0048199D02*
G01X0451699Y0049199D01*
G01X0451699Y0050099D01*
G01X0451899Y0050899D01*
G01X0451999Y0051799D01*
G01X0452199Y0052599D01*
G01X0452499Y0053499D01*
G01X0452799Y0054299D01*
G01X0453199Y0055099D01*
G01X0453599Y0055799D01*
G01X0454099Y0056499D01*
G01X0454699Y0057199D01*
G01X0455299Y0057799D01*
G01X0455899Y0058399D01*
G01X0456599Y0058999D01*
G01X0457399Y0059399D01*
G01X0458099Y0059899D01*
G01X0458999Y0060299D01*
G01X0459899Y0060699D01*
G01X0460799Y0060999D01*
G01X0461799Y0061299D01*
G01X0462899Y0061499D01*
G01X0464099Y0061699D01*
G01X0465299Y0061799D01*
G01X0466499Y0061799D01*
G01X0467299Y0061799D01*
G01X0467999Y0061799D01*
G01X0468699Y0061699D01*
G01X0469399Y0061699D01*
G01X0470099Y0061599D01*
G01X0470699Y0061499D01*
G01X0471299Y0061399D01*
G01X0471899Y0061299D01*
G01X0472599Y0061099D01*
G01X0473199Y0060899D01*
G01X0473899Y0060699D01*
G01X0474599Y0060399D01*
G01X0473099Y0054899D01*
G01X0472699Y0054999D01*
G01X0472299Y0055099D01*
G01X0471899Y0055299D01*
G01X0471499Y0055399D01*
G01X0470999Y0055499D01*
G01X0470599Y0055599D01*
G01X0470099Y0055599D01*
G01X0469499Y0055699D01*
G01X0468999Y0055699D01*
G01X0468399Y0055799D01*
G01X0467799Y0055799D01*
G01X0467099Y0055799D01*
G01X0466299Y0055799D01*
G01X0465499Y0055799D01*
G01X0464799Y0055699D01*
G01X0464099Y0055599D01*
G01X0463499Y0055499D01*
G01X0463099Y0055299D01*
G01X0462499Y0055099D01*
G01X0461999Y0054799D01*
G01X0461599Y0054499D01*
G01X0461099Y0054299D01*
G01X0460799Y0053999D01*
G01X0460399Y0053599D01*
G01X0460099Y0053299D01*
G01X0459799Y0052899D01*
G01X0459599Y0052499D01*
G01X0459299Y0051999D01*
G01X0459199Y0051599D01*
G01X0458999Y0051099D01*
G01X0458899Y0050599D01*
G01X0458799Y0050099D01*
G01X0458699Y0049599D01*
G01X0458599Y0049099D01*
G01X0458599Y0048599D01*
G01X0458599Y0048099D01*
G01X0458599Y0046899D01*
G01X0458799Y0045799D01*
G01X0459099Y0044799D01*
G01X0459499Y0043899D01*
G01X0459999Y0043099D01*
G01X0460699Y0042399D01*
G01X0461399Y0041699D01*
G01X0462299Y0041099D01*
G01X0463399Y0040799D01*
G01X0464599Y0040499D01*
G01X0465999Y0040299D01*
G01X0467599Y0040299D01*
G01X0468199Y0040299D01*
G01X0468799Y0040299D01*
G01X0469299Y0040399D01*
G01X0469899Y0040399D01*
G01X0470399Y0040499D01*
G01X0470999Y0040599D01*
G01X0471499Y0040599D01*
G01X0472099Y0040699D01*
G01X0472599Y0040899D01*
G01X0473199Y0040999D01*
G01X0473699Y0041099D01*
G01X0474199Y0041299D01*
G01X0475099Y0035699D01*
G01X0474699Y0035499D01*
G01X0474099Y0035299D01*
G01X0473599Y0035199D01*
G01X0472999Y0034999D01*
G01X0472399Y0034899D01*
G01X0471699Y0034699D01*
G01X0470999Y0034599D01*
G01X0470199Y0034499D01*
G01X0469399Y0034399D01*
G01X0468599Y0034299D01*
G01X0467799Y0034299D01*
G01X0466799Y0034299D01*
G01X0465499Y0034299D01*
G01X0464199Y0034399D01*
G01X0463099Y0034599D01*
G01X0461899Y0034799D01*
G01X0460899Y0035099D01*
G01X0459999Y0035399D01*
G01X0458999Y0035799D01*
G01X0458199Y0036199D01*
G01X0457399Y0036699D01*
G01X0456599Y0037199D01*
G01X0455899Y0037699D01*
G01X0455299Y0038299D01*
G01X0454699Y0038999D01*
G01X0454099Y0039599D01*
G01X0453699Y0040299D01*
G01X0453299Y0040999D01*
G01X0452899Y0041799D01*
G01X0452599Y0042599D01*
G01X0452299Y0043499D01*
G01X0451999Y0044399D01*
G01X0451899Y0045399D01*
G01X0451699Y0046299D01*
G01X0451699Y0047199D01*
G01X0451699Y0048199D01*
G01X0451699Y0048199D01*
G37*
G36*
G01X0496099Y0061499D02*
G01X0496799Y0061499D01*
G01X0497499Y0061499D01*
G01X0498099Y0061299D01*
G01X0498699Y0061199D01*
G01X0499199Y0060999D01*
G01X0499699Y0060799D01*
G01X0500199Y0060599D01*
G01X0500599Y0060299D01*
G01X0500999Y0059999D01*
G01X0501399Y0059699D01*
G01X0501699Y0059299D01*
G01X0501899Y0058899D01*
G01X0502199Y0058499D01*
G01X0502399Y0057999D01*
G01X0502599Y0057399D01*
G01X0502799Y0056899D01*
G01X0502899Y0056299D01*
G01X0503099Y0055599D01*
G01X0503099Y0054899D01*
G01X0503199Y0054099D01*
G01X0503199Y0053399D01*
G01X0503299Y0052599D01*
G01X0503299Y0051699D01*
G01X0503299Y0050799D01*
G01X0503299Y0035299D01*
G01X0497799Y0035299D01*
G01X0497799Y0051299D01*
G01X0497799Y0051699D01*
G01X0497799Y0052199D01*
G01X0497799Y0052599D01*
G01X0497699Y0052999D01*
G01X0497699Y0053399D01*
G01X0497599Y0053799D01*
G01X0497599Y0053999D01*
G01X0497499Y0054299D01*
G01X0497399Y0054499D01*
G01X0497299Y0054799D01*
G01X0497199Y0054999D01*
G01X0497099Y0055099D01*
G01X0496999Y0055299D01*
G01X0496899Y0055399D01*
G01X0496799Y0055499D01*
G01X0496699Y0055699D01*
G01X0496499Y0055799D01*
G01X0496399Y0055799D01*
G01X0496299Y0055899D01*
G01X0496099Y0055899D01*
G01X0495999Y0055999D01*
G01X0495799Y0055999D01*
G01X0495699Y0055999D01*
G01X0495599Y0055999D01*
G01X0495399Y0055999D01*
G01X0495199Y0055999D01*
G01X0495099Y0055999D01*
G01X0494899Y0055899D01*
G01X0494699Y0055899D01*
G01X0494399Y0055799D01*
G01X0494199Y0055799D01*
G01X0494099Y0055799D01*
G01X0493899Y0055699D01*
G01X0493799Y0055699D01*
G01X0493599Y0055599D01*
G01X0493499Y0055599D01*
G01X0493499Y0055199D01*
G01X0493599Y0054799D01*
G01X0493599Y0054399D01*
G01X0493599Y0053999D01*
G01X0493699Y0053599D01*
G01X0493799Y0053199D01*
G01X0493799Y0052799D01*
G01X0493799Y0052299D01*
G01X0493799Y0051899D01*
G01X0493899Y0051399D01*
G01X0493899Y0050899D01*
G01X0493899Y0050399D01*
G01X0493899Y0045099D01*
G01X0488299Y0045099D01*
G01X0488299Y0051099D01*
G01X0488299Y0051999D01*
G01X0488299Y0052799D01*
G01X0488199Y0053399D01*
G01X0488099Y0053999D01*
G01X0487999Y0054499D01*
G01X0487799Y0054899D01*
G01X0487599Y0055199D01*
G01X0487299Y0055499D01*
G01X0486999Y0055699D01*
G01X0486799Y0055899D01*
G01X0486499Y0055999D01*
G01X0486099Y0055999D01*
G01X0485999Y0055999D01*
G01X0485799Y0055999D01*
G01X0485699Y0055999D01*
G01X0485599Y0055999D01*
G01X0485399Y0055999D01*
G01X0485299Y0055999D01*
G01X0485099Y0055999D01*
G01X0484999Y0055899D01*
G01X0484799Y0055899D01*
G01X0484699Y0055899D01*
G01X0484499Y0055799D01*
G01X0484299Y0055799D01*
G01X0484299Y0035299D01*
G01X0478799Y0035299D01*
G01X0478799Y0060399D01*
G01X0479399Y0060599D01*
G01X0480199Y0060799D01*
G01X0480899Y0060999D01*
G01X0481599Y0061099D01*
G01X0482399Y0061299D01*
G01X0483099Y0061399D01*
G01X0483799Y0061499D01*
G01X0484399Y0061599D01*
G01X0484999Y0061599D01*
G01X0485699Y0061699D01*
G01X0486299Y0061699D01*
G01X0486799Y0061699D01*
G01X0487299Y0061699D01*
G01X0487699Y0061599D01*
G01X0488199Y0061599D01*
G01X0488599Y0061499D01*
G01X0488999Y0061399D01*
G01X0489399Y0061299D01*
G01X0489899Y0061099D01*
G01X0490199Y0060899D01*
G01X0490499Y0060699D01*
G01X0490799Y0060499D01*
G01X0491099Y0060299D01*
G01X0491399Y0059999D01*
G01X0491699Y0060199D01*
G01X0492099Y0060399D01*
G01X0492399Y0060599D01*
G01X0492799Y0060799D01*
G01X0493199Y0060999D01*
G01X0493599Y0061099D01*
G01X0493999Y0061299D01*
G01X0494399Y0061399D01*
G01X0494799Y0061399D01*
G01X0495199Y0061499D01*
G01X0495599Y0061499D01*
G01X0496099Y0061499D01*
G01X0496099Y0061499D01*
G37*
G36*
G01X0120599Y0554699D02*
G01X0120599Y0552399D01*
G01X0120399Y0550099D01*
G01X0120099Y0548099D01*
G01X0119799Y0545999D01*
G01X0119399Y0544199D01*
G01X0118799Y0542499D01*
G01X0118099Y0540799D01*
G01X0117399Y0539299D01*
G01X0116599Y0537899D01*
G01X0115699Y0536599D01*
G01X0114799Y0535299D01*
G01X0113799Y0534299D01*
G01X0112699Y0533299D01*
G01X0111599Y0532399D01*
G01X0110299Y0531599D01*
G01X0109099Y0530799D01*
G01X0107699Y0530199D01*
G01X0106299Y0529699D01*
G01X0104799Y0529199D01*
G01X0103299Y0528899D01*
G01X0101699Y0528699D01*
G01X0100099Y0528399D01*
G01X0098399Y0528299D01*
G01X0096699Y0528299D01*
G01X0095799Y0528299D01*
G01X0094899Y0528399D01*
G01X0093999Y0528399D01*
G01X0093099Y0528499D01*
G01X0092199Y0528499D01*
G01X0091299Y0528599D01*
G01X0090299Y0528699D01*
G01X0089399Y0528799D01*
G01X0088499Y0528999D01*
G01X0087599Y0529199D01*
G01X0086699Y0529399D01*
G01X0085699Y0529599D01*
G01X0085699Y0579899D01*
G01X0086899Y0580099D01*
G01X0087999Y0580299D01*
G01X0089099Y0580499D01*
G01X0090199Y0580699D01*
G01X0091299Y0580799D01*
G01X0092199Y0580799D01*
G01X0093299Y0580899D01*
G01X0094299Y0580999D01*
G01X0095199Y0580999D01*
G01X0096199Y0581099D01*
G01X0097099Y0581099D01*
G01X0097899Y0581099D01*
G01X0099599Y0581099D01*
G01X0101199Y0580999D01*
G01X0102799Y0580699D01*
G01X0104299Y0580499D01*
G01X0105799Y0580099D01*
G01X0107199Y0579599D01*
G01X0108599Y0579099D01*
G01X0109899Y0578399D01*
G01X0111099Y0577599D01*
G01X0112299Y0576799D01*
G01X0113299Y0575899D01*
G01X0114299Y0574899D01*
G01X0115299Y0573799D01*
G01X0116099Y0572599D01*
G01X0116899Y0571199D01*
G01X0117699Y0569899D01*
G01X0118299Y0568299D01*
G01X0118899Y0566699D01*
G01X0119399Y0565099D01*
G01X0119899Y0563299D01*
G01X0120099Y0561299D01*
G01X0120399Y0559299D01*
G01X0120599Y0557099D01*
G01X0120599Y0554699D01*
G01X0120599Y0554699D01*
G37*
%LPC*%
G36*
G01X0095999Y0537199D02*
G01X0096099Y0537199D01*
G01X0096299Y0537199D01*
G01X0096399Y0537199D01*
G01X0096599Y0537099D01*
G01X0096699Y0537099D01*
G01X0096899Y0537099D01*
G01X0097199Y0537099D01*
G01X0097299Y0537099D01*
G01X0097499Y0537099D01*
G01X0097599Y0537099D01*
G01X0097799Y0537099D01*
G01X0097899Y0537099D01*
G01X0099099Y0537099D01*
G01X0100199Y0537199D01*
G01X0101099Y0537399D01*
G01X0102099Y0537599D01*
G01X0102999Y0537999D01*
G01X0103799Y0538499D01*
G01X0104499Y0538999D01*
G01X0105199Y0539499D01*
G01X0105899Y0540099D01*
G01X0106599Y0540699D01*
G01X0107199Y0541299D01*
G01X0107599Y0542099D01*
G01X0108099Y0542799D01*
G01X0108499Y0543699D01*
G01X0108899Y0544599D01*
G01X0109199Y0545499D01*
G01X0109499Y0546499D01*
G01X0109699Y0547599D01*
G01X0109899Y0548699D01*
G01X0110099Y0549799D01*
G01X0110199Y0550999D01*
G01X0110199Y0552199D01*
G01X0110299Y0553399D01*
G01X0110299Y0554699D01*
G01X0110299Y0555799D01*
G01X0110199Y0556899D01*
G01X0110199Y0557999D01*
G01X0110099Y0559099D01*
G01X0109899Y0560199D01*
G01X0109699Y0561299D01*
G01X0109599Y0562299D01*
G01X0109299Y0563299D01*
G01X0108999Y0564199D01*
G01X0108699Y0565199D01*
G01X0108299Y0565999D01*
G01X0107899Y0566799D01*
G01X0107499Y0567599D01*
G01X0106999Y0568399D01*
G01X0106399Y0568999D01*
G01X0105899Y0569699D01*
G01X0105199Y0570199D01*
G01X0104399Y0570699D01*
G01X0103799Y0571199D01*
G01X0102899Y0571499D01*
G01X0101999Y0571799D01*
G01X0100999Y0571999D01*
G01X0099999Y0572099D01*
G01X0098899Y0572099D01*
G01X0098699Y0572099D01*
G01X0098399Y0572099D01*
G01X0098199Y0572099D01*
G01X0097899Y0572099D01*
G01X0097599Y0572099D01*
G01X0097399Y0572099D01*
G01X0097099Y0572099D01*
G01X0096799Y0571999D01*
G01X0096499Y0571999D01*
G01X0096299Y0571999D01*
G01X0095999Y0571899D01*
G01X0095799Y0571899D01*
G01X0095799Y0537199D01*
G01X0095999Y0537199D01*
G37*
%LPD*%
G36*
G01X0127399Y0528899D02*
G01X0127399Y0537399D01*
G01X0138599Y0537399D01*
G01X0138599Y0572099D01*
G01X0127399Y0572099D01*
G01X0127399Y0580599D01*
G01X0160099Y0580599D01*
G01X0160099Y0572099D01*
G01X0148999Y0572099D01*
G01X0148999Y0537499D01*
G01X0160099Y0537499D01*
G01X0160099Y0528999D01*
G01X0127399Y0528999D01*
G01X0127399Y0528899D01*
G37*
G36*
G01X0183899Y0536399D02*
G01X0184699Y0536399D01*
G01X0185499Y0536399D01*
G01X0186299Y0536499D01*
G01X0186999Y0536599D01*
G01X0187599Y0536699D01*
G01X0188199Y0536899D01*
G01X0188799Y0537199D01*
G01X0189299Y0537399D01*
G01X0189699Y0537599D01*
G01X0190199Y0537799D01*
G01X0190599Y0538099D01*
G01X0190999Y0538499D01*
G01X0191299Y0538799D01*
G01X0191599Y0539199D01*
G01X0191799Y0539499D01*
G01X0191999Y0539899D01*
G01X0192199Y0540299D01*
G01X0192399Y0540699D01*
G01X0192499Y0541099D01*
G01X0192599Y0541499D01*
G01X0192699Y0541899D01*
G01X0192699Y0542399D01*
G01X0192799Y0542799D01*
G01X0192799Y0543199D01*
G01X0192799Y0543799D01*
G01X0192699Y0544199D01*
G01X0192599Y0544699D01*
G01X0192399Y0545099D01*
G01X0192199Y0545599D01*
G01X0191799Y0545999D01*
G01X0191499Y0546399D01*
G01X0191199Y0546799D01*
G01X0190799Y0547099D01*
G01X0190399Y0547499D01*
G01X0189899Y0547799D01*
G01X0189399Y0548199D01*
G01X0188999Y0548499D01*
G01X0188499Y0548899D01*
G01X0187999Y0549199D01*
G01X0187399Y0549399D01*
G01X0186899Y0549699D01*
G01X0186299Y0549999D01*
G01X0185599Y0550299D01*
G01X0184999Y0550499D01*
G01X0184499Y0550699D01*
G01X0183899Y0550999D01*
G01X0183299Y0551199D01*
G01X0182799Y0551399D01*
G01X0181999Y0551699D01*
G01X0181199Y0551999D01*
G01X0180399Y0552299D01*
G01X0179599Y0552599D01*
G01X0178799Y0552999D01*
G01X0177899Y0553299D01*
G01X0177099Y0553699D01*
G01X0176299Y0554099D01*
G01X0175499Y0554599D01*
G01X0174799Y0554999D01*
G01X0173999Y0555599D01*
G01X0173299Y0556099D01*
G01X0172599Y0556699D01*
G01X0171999Y0557299D01*
G01X0171499Y0557999D01*
G01X0170899Y0558699D01*
G01X0170399Y0559399D01*
G01X0169999Y0560299D01*
G01X0169599Y0561099D01*
G01X0169199Y0561999D01*
G01X0168999Y0562999D01*
G01X0168799Y0563999D01*
G01X0168599Y0565099D01*
G01X0168599Y0566399D01*
G01X0168599Y0568799D01*
G01X0168999Y0570999D01*
G01X0169799Y0572899D01*
G01X0170599Y0574799D01*
G01X0171699Y0576399D01*
G01X0173299Y0577799D01*
G01X0174899Y0579199D01*
G01X0176799Y0580199D01*
G01X0178999Y0580799D01*
G01X0181099Y0581499D01*
G01X0183499Y0581799D01*
G01X0186299Y0581799D01*
G01X0187799Y0581799D01*
G01X0189299Y0581699D01*
G01X0190699Y0581499D01*
G01X0192099Y0581299D01*
G01X0193399Y0580999D01*
G01X0194599Y0580699D01*
G01X0195799Y0580299D01*
G01X0196799Y0579999D01*
G01X0197799Y0579599D01*
G01X0198799Y0579199D01*
G01X0199699Y0578799D01*
G01X0200599Y0578299D01*
G01X0197499Y0570399D01*
G01X0196799Y0570799D01*
G01X0196099Y0571199D01*
G01X0195299Y0571499D01*
G01X0194499Y0571799D01*
G01X0193799Y0572099D01*
G01X0192899Y0572399D01*
G01X0192099Y0572599D01*
G01X0191199Y0572799D01*
G01X0190199Y0572999D01*
G01X0189199Y0573099D01*
G01X0188199Y0573199D01*
G01X0187099Y0573199D01*
G01X0184399Y0573199D01*
G01X0182299Y0572699D01*
G01X0180999Y0571699D01*
G01X0179599Y0570699D01*
G01X0178899Y0569199D01*
G01X0178899Y0567199D01*
G01X0178899Y0566699D01*
G01X0178999Y0566299D01*
G01X0179099Y0565899D01*
G01X0179199Y0565399D01*
G01X0179399Y0564999D01*
G01X0179699Y0564599D01*
G01X0179999Y0564199D01*
G01X0180299Y0563899D01*
G01X0180699Y0563599D01*
G01X0180999Y0563199D01*
G01X0181399Y0562899D01*
G01X0181799Y0562599D01*
G01X0182199Y0562399D01*
G01X0182699Y0562099D01*
G01X0183199Y0561799D01*
G01X0183599Y0561599D01*
G01X0184199Y0561299D01*
G01X0184699Y0561099D01*
G01X0185299Y0560899D01*
G01X0185799Y0560699D01*
G01X0186399Y0560499D01*
G01X0186899Y0560299D01*
G01X0187399Y0560099D01*
G01X0187899Y0559899D01*
G01X0188799Y0559599D01*
G01X0189599Y0559299D01*
G01X0190399Y0558899D01*
G01X0191299Y0558599D01*
G01X0192099Y0558199D01*
G01X0192899Y0557799D01*
G01X0193799Y0557399D01*
G01X0194699Y0556999D01*
G01X0195499Y0556499D01*
G01X0196299Y0555899D01*
G01X0196999Y0555299D01*
G01X0197799Y0554699D01*
G01X0198499Y0554099D01*
G01X0199199Y0553399D01*
G01X0199799Y0552599D01*
G01X0200399Y0551799D01*
G01X0200899Y0550999D01*
G01X0201399Y0549999D01*
G01X0201899Y0549099D01*
G01X0202199Y0548099D01*
G01X0202399Y0546899D01*
G01X0202699Y0545699D01*
G01X0202799Y0544399D01*
G01X0202799Y0542899D01*
G01X0202799Y0540499D01*
G01X0202399Y0538299D01*
G01X0201599Y0536499D01*
G01X0200799Y0534599D01*
G01X0199699Y0532999D01*
G01X0198099Y0531699D01*
G01X0196499Y0530299D01*
G01X0194499Y0529299D01*
G01X0192099Y0528699D01*
G01X0189699Y0527999D01*
G01X0186899Y0527599D01*
G01X0183799Y0527599D01*
G01X0181599Y0527599D01*
G01X0179699Y0527699D01*
G01X0177999Y0527999D01*
G01X0176299Y0528199D01*
G01X0174799Y0528499D01*
G01X0173499Y0528999D01*
G01X0172199Y0529499D01*
G01X0171099Y0529999D01*
G01X0170199Y0530399D01*
G01X0169199Y0530799D01*
G01X0168399Y0531199D01*
G01X0167799Y0531499D01*
G01X0170799Y0539899D01*
G01X0171599Y0539399D01*
G01X0172399Y0538999D01*
G01X0173299Y0538599D01*
G01X0174199Y0538199D01*
G01X0175199Y0537799D01*
G01X0176299Y0537399D01*
G01X0177299Y0537099D01*
G01X0178399Y0536799D01*
G01X0179699Y0536699D01*
G01X0180999Y0536499D01*
G01X0182399Y0536399D01*
G01X0183899Y0536399D01*
G01X0183899Y0536399D01*
G37*
G36*
G01X0245799Y0580599D02*
G01X0245799Y0572099D01*
G01X0232199Y0572099D01*
G01X0232199Y0528999D01*
G01X0221899Y0528999D01*
G01X0221899Y0572099D01*
G01X0208299Y0572099D01*
G01X0208299Y0580599D01*
G01X0245799Y0580599D01*
G01X0245799Y0580599D01*
G37*
G36*
G01X0277799Y0528899D02*
G01X0275399Y0540799D01*
G01X0261699Y0540799D01*
G01X0259299Y0528899D01*
G01X0248599Y0528899D01*
G01X0249899Y0533999D01*
G01X0251099Y0538799D01*
G01X0252299Y0543499D01*
G01X0253499Y0548099D01*
G01X0254699Y0552499D01*
G01X0255999Y0556699D01*
G01X0257199Y0560799D01*
G01X0258399Y0564899D01*
G01X0259599Y0568899D01*
G01X0260799Y0572799D01*
G01X0261999Y0576699D01*
G01X0263199Y0580399D01*
G01X0274299Y0580399D01*
G01X0275599Y0576699D01*
G01X0276799Y0572799D01*
G01X0277999Y0568799D01*
G01X0279199Y0564799D01*
G01X0280399Y0560599D01*
G01X0281699Y0556399D01*
G01X0282799Y0552199D01*
G01X0283999Y0547699D01*
G01X0285199Y0543199D01*
G01X0286399Y0538599D01*
G01X0287599Y0533799D01*
G01X0288799Y0528899D01*
G01X0277799Y0528899D01*
G01X0277799Y0528899D01*
G37*
%LPC*%
G36*
G01X0268599Y0570599D02*
G01X0268299Y0569599D01*
G01X0268099Y0568599D01*
G01X0267799Y0567699D01*
G01X0267499Y0566799D01*
G01X0267299Y0565899D01*
G01X0267099Y0564999D01*
G01X0266899Y0564099D01*
G01X0266599Y0563199D01*
G01X0266399Y0562399D01*
G01X0266099Y0561499D01*
G01X0265899Y0560699D01*
G01X0265699Y0559899D01*
G01X0265499Y0558999D01*
G01X0265299Y0558199D01*
G01X0265099Y0557299D01*
G01X0264899Y0556399D01*
G01X0264699Y0555599D01*
G01X0264599Y0554699D01*
G01X0264399Y0553799D01*
G01X0264199Y0552999D01*
G01X0263999Y0552099D01*
G01X0263899Y0551199D01*
G01X0263699Y0550299D01*
G01X0263499Y0549299D01*
G01X0273599Y0549299D01*
G01X0273499Y0550199D01*
G01X0273299Y0551099D01*
G01X0273099Y0551999D01*
G01X0272999Y0552899D01*
G01X0272799Y0553799D01*
G01X0272599Y0554599D01*
G01X0272499Y0555399D01*
G01X0272299Y0556299D01*
G01X0272099Y0557199D01*
G01X0271899Y0557999D01*
G01X0271699Y0558899D01*
G01X0271499Y0559699D01*
G01X0271299Y0560599D01*
G01X0271099Y0561399D01*
G01X0270899Y0562299D01*
G01X0270699Y0563199D01*
G01X0270399Y0563999D01*
G01X0270099Y0564899D01*
G01X0269899Y0565799D01*
G01X0269699Y0566699D01*
G01X0269399Y0567699D01*
G01X0269199Y0568599D01*
G01X0268899Y0569599D01*
G01X0268599Y0570599D01*
G01X0268599Y0570599D01*
G37*
%LPD*%
G36*
G01X0319199Y0528899D02*
G01X0317999Y0531699D01*
G01X0316799Y0534599D01*
G01X0315499Y0537399D01*
G01X0314199Y0540299D01*
G01X0312899Y0543099D01*
G01X0311499Y0545999D01*
G01X0310099Y0548799D01*
G01X0308699Y0551699D01*
G01X0307199Y0554499D01*
G01X0305799Y0557399D01*
G01X0304199Y0560199D01*
G01X0302599Y0563099D01*
G01X0302599Y0528799D01*
G01X0293299Y0528799D01*
G01X0293299Y0580299D01*
G01X0301499Y0580299D01*
G01X0302299Y0578999D01*
G01X0303099Y0577699D01*
G01X0303799Y0576399D01*
G01X0304599Y0575099D01*
G01X0305399Y0573799D01*
G01X0306299Y0572399D01*
G01X0307099Y0570999D01*
G01X0307799Y0569499D01*
G01X0308599Y0568099D01*
G01X0309299Y0566699D01*
G01X0310099Y0565199D01*
G01X0310799Y0563799D01*
G01X0311599Y0562399D01*
G01X0312299Y0560999D01*
G01X0312999Y0559599D01*
G01X0313599Y0558199D01*
G01X0314199Y0556899D01*
G01X0314899Y0555599D01*
G01X0315499Y0554199D01*
G01X0316099Y0552999D01*
G01X0316599Y0551799D01*
G01X0317199Y0550699D01*
G01X0317599Y0549599D01*
G01X0318099Y0548599D01*
G01X0318099Y0580399D01*
G01X0327399Y0580399D01*
G01X0327399Y0528899D01*
G01X0319199Y0528899D01*
G01X0319199Y0528899D01*
G37*
G36*
G01X0355799Y0527899D02*
G01X0352199Y0527899D01*
G01X0348999Y0528499D01*
G01X0346299Y0529699D01*
G01X0343499Y0530799D01*
G01X0341099Y0532599D01*
G01X0339199Y0534899D01*
G01X0337199Y0537199D01*
G01X0335799Y0539999D01*
G01X0334899Y0543299D01*
G01X0333899Y0546599D01*
G01X0333499Y0550399D01*
G01X0333499Y0554699D01*
G01X0333499Y0556899D01*
G01X0333599Y0558899D01*
G01X0333899Y0560799D01*
G01X0334199Y0562699D01*
G01X0334699Y0564399D01*
G01X0335299Y0566099D01*
G01X0335799Y0567799D01*
G01X0336499Y0569299D01*
G01X0337299Y0570699D01*
G01X0338199Y0572099D01*
G01X0339099Y0573399D01*
G01X0340099Y0574599D01*
G01X0341199Y0575799D01*
G01X0342299Y0576799D01*
G01X0343599Y0577599D01*
G01X0344799Y0578499D01*
G01X0346099Y0579199D01*
G01X0347499Y0579899D01*
G01X0348899Y0580499D01*
G01X0350399Y0580899D01*
G01X0351899Y0581199D01*
G01X0353499Y0581499D01*
G01X0355099Y0581699D01*
G01X0356799Y0581699D01*
G01X0357699Y0581699D01*
G01X0358599Y0581599D01*
G01X0359399Y0581599D01*
G01X0360199Y0581499D01*
G01X0360999Y0581399D01*
G01X0361799Y0581299D01*
G01X0362599Y0581099D01*
G01X0363299Y0580899D01*
G01X0363899Y0580699D01*
G01X0364499Y0580599D01*
G01X0365099Y0580299D01*
G01X0365699Y0580099D01*
G01X0366299Y0579899D01*
G01X0366799Y0579699D01*
G01X0367199Y0579499D01*
G01X0367699Y0579299D01*
G01X0368099Y0579099D01*
G01X0368499Y0578899D01*
G01X0368799Y0578699D01*
G01X0369199Y0578499D01*
G01X0369499Y0578299D01*
G01X0369799Y0578099D01*
G01X0369999Y0577999D01*
G01X0370099Y0577899D01*
G01X0367499Y0569699D01*
G01X0366899Y0570099D01*
G01X0366199Y0570499D01*
G01X0365399Y0570899D01*
G01X0364699Y0571199D01*
G01X0363799Y0571499D01*
G01X0362899Y0571799D01*
G01X0361999Y0572099D01*
G01X0360999Y0572299D01*
G01X0359999Y0572399D01*
G01X0358999Y0572599D01*
G01X0357799Y0572599D01*
G01X0356699Y0572599D01*
G01X0355799Y0572599D01*
G01X0354999Y0572599D01*
G01X0354299Y0572399D01*
G01X0353499Y0572299D01*
G01X0352699Y0572099D01*
G01X0351899Y0571799D01*
G01X0351199Y0571499D01*
G01X0350499Y0571099D01*
G01X0349799Y0570699D01*
G01X0349099Y0570199D01*
G01X0348499Y0569599D01*
G01X0347899Y0568899D01*
G01X0347299Y0568199D01*
G01X0346699Y0567399D01*
G01X0346299Y0566499D01*
G01X0345799Y0565599D01*
G01X0345299Y0564599D01*
G01X0344999Y0563499D01*
G01X0344699Y0562399D01*
G01X0344399Y0561099D01*
G01X0344199Y0559699D01*
G01X0343999Y0558199D01*
G01X0343899Y0556699D01*
G01X0343899Y0554999D01*
G01X0343899Y0552099D01*
G01X0344099Y0549499D01*
G01X0344599Y0547199D01*
G01X0345099Y0544899D01*
G01X0345899Y0542999D01*
G01X0346899Y0541399D01*
G01X0347999Y0539799D01*
G01X0349299Y0538599D01*
G01X0350999Y0537799D01*
G01X0352599Y0536999D01*
G01X0354599Y0536699D01*
G01X0356899Y0536699D01*
G01X0358299Y0536699D01*
G01X0359499Y0536699D01*
G01X0360599Y0536899D01*
G01X0361699Y0536999D01*
G01X0362699Y0537299D01*
G01X0363599Y0537599D01*
G01X0364499Y0537999D01*
G01X0365299Y0538299D01*
G01X0365999Y0538599D01*
G01X0366699Y0538899D01*
G01X0367299Y0539199D01*
G01X0367799Y0539399D01*
G01X0370399Y0531399D01*
G01X0369699Y0530999D01*
G01X0368899Y0530599D01*
G01X0367899Y0530099D01*
G01X0366899Y0529699D01*
G01X0365799Y0529299D01*
G01X0364599Y0528899D01*
G01X0363299Y0528499D01*
G01X0361899Y0528299D01*
G01X0360399Y0528099D01*
G01X0358999Y0527999D01*
G01X0357399Y0527899D01*
G01X0355799Y0527899D01*
G01X0355799Y0527899D01*
G37*
G36*
G01X0378099Y0528899D02*
G01X0378099Y0580399D01*
G01X0409299Y0580399D01*
G01X0409299Y0571899D01*
G01X0388299Y0571899D01*
G01X0388299Y0560399D01*
G01X0406499Y0560399D01*
G01X0406499Y0551899D01*
G01X0388299Y0551899D01*
G01X0388299Y0537499D01*
G01X0411099Y0537499D01*
G01X0411099Y0528999D01*
G01X0378099Y0528999D01*
G01X0378099Y0528899D01*
G37*
G36*
G01X0475599Y0536399D02*
G01X0476399Y0536399D01*
G01X0477199Y0536399D01*
G01X0477899Y0536499D01*
G01X0478599Y0536599D01*
G01X0479299Y0536699D01*
G01X0479899Y0536899D01*
G01X0480399Y0537199D01*
G01X0480899Y0537399D01*
G01X0481399Y0537599D01*
G01X0481899Y0537799D01*
G01X0482299Y0538099D01*
G01X0482599Y0538499D01*
G01X0482999Y0538799D01*
G01X0483299Y0539199D01*
G01X0483499Y0539499D01*
G01X0483699Y0539899D01*
G01X0483899Y0540299D01*
G01X0483999Y0540699D01*
G01X0484199Y0541099D01*
G01X0484299Y0541499D01*
G01X0484299Y0541899D01*
G01X0484399Y0542399D01*
G01X0484399Y0542799D01*
G01X0484399Y0543199D01*
G01X0484399Y0543799D01*
G01X0484399Y0544199D01*
G01X0484199Y0544699D01*
G01X0484099Y0545099D01*
G01X0483799Y0545599D01*
G01X0483499Y0545999D01*
G01X0483199Y0546399D01*
G01X0482799Y0546799D01*
G01X0482399Y0547099D01*
G01X0481999Y0547499D01*
G01X0481599Y0547799D01*
G01X0481099Y0548199D01*
G01X0480599Y0548499D01*
G01X0480099Y0548899D01*
G01X0479599Y0549199D01*
G01X0479099Y0549399D01*
G01X0478499Y0549699D01*
G01X0477899Y0549999D01*
G01X0477299Y0550299D01*
G01X0476699Y0550499D01*
G01X0476099Y0550699D01*
G01X0475599Y0550999D01*
G01X0474999Y0551199D01*
G01X0474399Y0551399D01*
G01X0473699Y0551699D01*
G01X0472899Y0551999D01*
G01X0472099Y0552299D01*
G01X0471299Y0552599D01*
G01X0470399Y0552999D01*
G01X0469599Y0553299D01*
G01X0468799Y0553699D01*
G01X0467999Y0554099D01*
G01X0467199Y0554599D01*
G01X0466399Y0554999D01*
G01X0465699Y0555599D01*
G01X0464999Y0556099D01*
G01X0464299Y0556699D01*
G01X0463699Y0557299D01*
G01X0463099Y0557999D01*
G01X0462599Y0558699D01*
G01X0462099Y0559399D01*
G01X0461699Y0560299D01*
G01X0461299Y0561099D01*
G01X0460899Y0561999D01*
G01X0460699Y0562999D01*
G01X0460399Y0563999D01*
G01X0460299Y0565099D01*
G01X0460299Y0566399D01*
G01X0460299Y0568799D01*
G01X0460699Y0570999D01*
G01X0461399Y0572899D01*
G01X0462199Y0574799D01*
G01X0463399Y0576399D01*
G01X0464999Y0577799D01*
G01X0466599Y0579199D01*
G01X0468499Y0580199D01*
G01X0470599Y0580799D01*
G01X0472799Y0581499D01*
G01X0475199Y0581799D01*
G01X0477899Y0581799D01*
G01X0479499Y0581799D01*
G01X0480999Y0581699D01*
G01X0482399Y0581499D01*
G01X0483799Y0581299D01*
G01X0485099Y0580999D01*
G01X0486299Y0580699D01*
G01X0487399Y0580299D01*
G01X0488499Y0579999D01*
G01X0489499Y0579599D01*
G01X0490499Y0579199D01*
G01X0491399Y0578799D01*
G01X0492199Y0578299D01*
G01X0489199Y0570399D01*
G01X0488499Y0570799D01*
G01X0487699Y0571199D01*
G01X0486999Y0571499D01*
G01X0486199Y0571799D01*
G01X0485399Y0572099D01*
G01X0484599Y0572399D01*
G01X0483799Y0572599D01*
G01X0482799Y0572799D01*
G01X0481899Y0572999D01*
G01X0480899Y0573099D01*
G01X0479899Y0573199D01*
G01X0478799Y0573199D01*
G01X0475999Y0573199D01*
G01X0473999Y0572699D01*
G01X0472599Y0571699D01*
G01X0471299Y0570699D01*
G01X0470599Y0569199D01*
G01X0470599Y0567199D01*
G01X0470599Y0566699D01*
G01X0470599Y0566299D01*
G01X0470799Y0565899D01*
G01X0470899Y0565399D01*
G01X0471099Y0564999D01*
G01X0471399Y0564599D01*
G01X0471699Y0564199D01*
G01X0471999Y0563899D01*
G01X0472299Y0563599D01*
G01X0472699Y0563199D01*
G01X0473099Y0562899D01*
G01X0473499Y0562599D01*
G01X0473899Y0562399D01*
G01X0474299Y0562099D01*
G01X0474799Y0561799D01*
G01X0475299Y0561599D01*
G01X0475799Y0561299D01*
G01X0476399Y0561099D01*
G01X0476899Y0560899D01*
G01X0477499Y0560699D01*
G01X0477999Y0560499D01*
G01X0478599Y0560299D01*
G01X0479099Y0560099D01*
G01X0479599Y0559899D01*
G01X0480399Y0559599D01*
G01X0481299Y0559299D01*
G01X0482099Y0558899D01*
G01X0482899Y0558599D01*
G01X0483799Y0558199D01*
G01X0484599Y0557799D01*
G01X0485499Y0557399D01*
G01X0486299Y0556999D01*
G01X0487099Y0556499D01*
G01X0487899Y0555899D01*
G01X0488699Y0555299D01*
G01X0489399Y0554699D01*
G01X0490199Y0554099D01*
G01X0490899Y0553399D01*
G01X0491499Y0552599D01*
G01X0491999Y0551799D01*
G01X0492599Y0550999D01*
G01X0493099Y0549999D01*
G01X0493499Y0549099D01*
G01X0493899Y0548099D01*
G01X0494099Y0546899D01*
G01X0494299Y0545699D01*
G01X0494399Y0544399D01*
G01X0494399Y0542899D01*
G01X0494399Y0540499D01*
G01X0494099Y0538299D01*
G01X0493299Y0536499D01*
G01X0492499Y0534599D01*
G01X0491299Y0532999D01*
G01X0489699Y0531699D01*
G01X0488099Y0530299D01*
G01X0486099Y0529299D01*
G01X0483799Y0528699D01*
G01X0481399Y0527999D01*
G01X0478599Y0527599D01*
G01X0475399Y0527599D01*
G01X0473299Y0527599D01*
G01X0471399Y0527699D01*
G01X0469699Y0527999D01*
G01X0467999Y0528199D01*
G01X0466499Y0528499D01*
G01X0465099Y0528999D01*
G01X0463899Y0529499D01*
G01X0462799Y0529999D01*
G01X0461799Y0530399D01*
G01X0460899Y0530799D01*
G01X0460099Y0531199D01*
G01X0459399Y0531499D01*
G01X0462499Y0539899D01*
G01X0463299Y0539399D01*
G01X0464099Y0538999D01*
G01X0464999Y0538599D01*
G01X0465899Y0538199D01*
G01X0466899Y0537799D01*
G01X0467899Y0537399D01*
G01X0468999Y0537099D01*
G01X0470099Y0536799D01*
G01X0471399Y0536699D01*
G01X0472599Y0536499D01*
G01X0473999Y0536399D01*
G01X0475599Y0536399D01*
G01X0475599Y0536399D01*
G37*
G36*
G01X0503099Y0528899D02*
G01X0503099Y0580399D01*
G01X0534299Y0580399D01*
G01X0534299Y0571899D01*
G01X0513299Y0571899D01*
G01X0513299Y0560399D01*
G01X0531499Y0560399D01*
G01X0531499Y0551899D01*
G01X0513299Y0551899D01*
G01X0513299Y0537499D01*
G01X0536099Y0537499D01*
G01X0536099Y0528999D01*
G01X0503099Y0528999D01*
G01X0503099Y0528899D01*
G37*
G36*
G01X0569199Y0528899D02*
G01X0567999Y0531699D01*
G01X0566799Y0534599D01*
G01X0565499Y0537399D01*
G01X0564199Y0540299D01*
G01X0562899Y0543099D01*
G01X0561499Y0545999D01*
G01X0560099Y0548799D01*
G01X0558699Y0551699D01*
G01X0557199Y0554499D01*
G01X0555799Y0557399D01*
G01X0554199Y0560199D01*
G01X0552599Y0563099D01*
G01X0552599Y0528799D01*
G01X0543299Y0528799D01*
G01X0543299Y0580299D01*
G01X0551499Y0580299D01*
G01X0552299Y0578999D01*
G01X0553099Y0577699D01*
G01X0553799Y0576399D01*
G01X0554599Y0575099D01*
G01X0555399Y0573799D01*
G01X0556299Y0572399D01*
G01X0557099Y0570999D01*
G01X0557799Y0569499D01*
G01X0558599Y0568099D01*
G01X0559299Y0566699D01*
G01X0560099Y0565199D01*
G01X0560799Y0563799D01*
G01X0561599Y0562399D01*
G01X0562299Y0560999D01*
G01X0562999Y0559599D01*
G01X0563599Y0558199D01*
G01X0564199Y0556899D01*
G01X0564899Y0555599D01*
G01X0565499Y0554199D01*
G01X0566099Y0552999D01*
G01X0566599Y0551799D01*
G01X0567199Y0550699D01*
G01X0567599Y0549599D01*
G01X0568099Y0548599D01*
G01X0568099Y0580399D01*
G01X0577399Y0580399D01*
G01X0577399Y0528899D01*
G01X0569199Y0528899D01*
G01X0569199Y0528899D01*
G37*
G36*
G01X0600599Y0536399D02*
G01X0601399Y0536399D01*
G01X0602199Y0536399D01*
G01X0602899Y0536499D01*
G01X0603599Y0536599D01*
G01X0604299Y0536699D01*
G01X0604899Y0536899D01*
G01X0605399Y0537199D01*
G01X0605899Y0537399D01*
G01X0606399Y0537599D01*
G01X0606899Y0537799D01*
G01X0607299Y0538099D01*
G01X0607599Y0538499D01*
G01X0607999Y0538799D01*
G01X0608299Y0539199D01*
G01X0608499Y0539499D01*
G01X0608699Y0539899D01*
G01X0608899Y0540299D01*
G01X0608999Y0540699D01*
G01X0609199Y0541099D01*
G01X0609299Y0541499D01*
G01X0609299Y0541899D01*
G01X0609399Y0542399D01*
G01X0609399Y0542799D01*
G01X0609399Y0543199D01*
G01X0609399Y0543799D01*
G01X0609399Y0544199D01*
G01X0609199Y0544699D01*
G01X0609099Y0545099D01*
G01X0608799Y0545599D01*
G01X0608499Y0545999D01*
G01X0608199Y0546399D01*
G01X0607799Y0546799D01*
G01X0607399Y0547099D01*
G01X0606999Y0547499D01*
G01X0606599Y0547799D01*
G01X0606099Y0548199D01*
G01X0605599Y0548499D01*
G01X0605099Y0548899D01*
G01X0604599Y0549199D01*
G01X0604099Y0549399D01*
G01X0603499Y0549699D01*
G01X0602899Y0549999D01*
G01X0602299Y0550299D01*
G01X0601699Y0550499D01*
G01X0601099Y0550699D01*
G01X0600599Y0550999D01*
G01X0599999Y0551199D01*
G01X0599399Y0551399D01*
G01X0598699Y0551699D01*
G01X0597899Y0551999D01*
G01X0597099Y0552299D01*
G01X0596299Y0552599D01*
G01X0595399Y0552999D01*
G01X0594599Y0553299D01*
G01X0593799Y0553699D01*
G01X0592999Y0554099D01*
G01X0592199Y0554599D01*
G01X0591399Y0554999D01*
G01X0590699Y0555599D01*
G01X0589999Y0556099D01*
G01X0589299Y0556699D01*
G01X0588699Y0557299D01*
G01X0588099Y0557999D01*
G01X0587599Y0558699D01*
G01X0587099Y0559399D01*
G01X0586699Y0560299D01*
G01X0586299Y0561099D01*
G01X0585899Y0561999D01*
G01X0585699Y0562999D01*
G01X0585399Y0563999D01*
G01X0585299Y0565099D01*
G01X0585299Y0566399D01*
G01X0585299Y0568799D01*
G01X0585699Y0570999D01*
G01X0586399Y0572899D01*
G01X0587199Y0574799D01*
G01X0588399Y0576399D01*
G01X0589999Y0577799D01*
G01X0591599Y0579199D01*
G01X0593499Y0580199D01*
G01X0595599Y0580799D01*
G01X0597799Y0581499D01*
G01X0600199Y0581799D01*
G01X0602899Y0581799D01*
G01X0604499Y0581799D01*
G01X0605999Y0581699D01*
G01X0607399Y0581499D01*
G01X0608799Y0581299D01*
G01X0610099Y0580999D01*
G01X0611299Y0580699D01*
G01X0612399Y0580299D01*
G01X0613499Y0579999D01*
G01X0614499Y0579599D01*
G01X0615499Y0579199D01*
G01X0616399Y0578799D01*
G01X0617199Y0578299D01*
G01X0614199Y0570399D01*
G01X0613499Y0570799D01*
G01X0612699Y0571199D01*
G01X0611999Y0571499D01*
G01X0611199Y0571799D01*
G01X0610399Y0572099D01*
G01X0609599Y0572399D01*
G01X0608799Y0572599D01*
G01X0607799Y0572799D01*
G01X0606899Y0572999D01*
G01X0605899Y0573099D01*
G01X0604899Y0573199D01*
G01X0603799Y0573199D01*
G01X0600999Y0573199D01*
G01X0598999Y0572699D01*
G01X0597599Y0571699D01*
G01X0596299Y0570699D01*
G01X0595599Y0569199D01*
G01X0595599Y0567199D01*
G01X0595599Y0566699D01*
G01X0595599Y0566299D01*
G01X0595799Y0565899D01*
G01X0595899Y0565399D01*
G01X0596099Y0564999D01*
G01X0596399Y0564599D01*
G01X0596699Y0564199D01*
G01X0596999Y0563899D01*
G01X0597299Y0563599D01*
G01X0597699Y0563199D01*
G01X0598099Y0562899D01*
G01X0598499Y0562599D01*
G01X0598899Y0562399D01*
G01X0599299Y0562099D01*
G01X0599799Y0561799D01*
G01X0600299Y0561599D01*
G01X0600799Y0561299D01*
G01X0601399Y0561099D01*
G01X0601899Y0560899D01*
G01X0602499Y0560699D01*
G01X0602999Y0560499D01*
G01X0603599Y0560299D01*
G01X0604099Y0560099D01*
G01X0604599Y0559899D01*
G01X0605399Y0559599D01*
G01X0606299Y0559299D01*
G01X0607099Y0558899D01*
G01X0607899Y0558599D01*
G01X0608799Y0558199D01*
G01X0609599Y0557799D01*
G01X0610499Y0557399D01*
G01X0611299Y0556999D01*
G01X0612099Y0556499D01*
G01X0612899Y0555899D01*
G01X0613699Y0555299D01*
G01X0614399Y0554699D01*
G01X0615199Y0554099D01*
G01X0615899Y0553399D01*
G01X0616499Y0552599D01*
G01X0616999Y0551799D01*
G01X0617599Y0550999D01*
G01X0618099Y0549999D01*
G01X0618499Y0549099D01*
G01X0618899Y0548099D01*
G01X0619099Y0546899D01*
G01X0619299Y0545699D01*
G01X0619399Y0544399D01*
G01X0619399Y0542899D01*
G01X0619399Y0540499D01*
G01X0619099Y0538299D01*
G01X0618299Y0536499D01*
G01X0617499Y0534599D01*
G01X0616299Y0532999D01*
G01X0614699Y0531699D01*
G01X0613099Y0530299D01*
G01X0611099Y0529299D01*
G01X0608799Y0528699D01*
G01X0606399Y0527999D01*
G01X0603599Y0527599D01*
G01X0600399Y0527599D01*
G01X0598299Y0527599D01*
G01X0596399Y0527699D01*
G01X0594699Y0527999D01*
G01X0592999Y0528199D01*
G01X0591499Y0528499D01*
G01X0590099Y0528999D01*
G01X0588899Y0529499D01*
G01X0587799Y0529999D01*
G01X0586799Y0530399D01*
G01X0585899Y0530799D01*
G01X0585099Y0531199D01*
G01X0584399Y0531499D01*
G01X0587499Y0539899D01*
G01X0588299Y0539399D01*
G01X0589099Y0538999D01*
G01X0589999Y0538599D01*
G01X0590899Y0538199D01*
G01X0591899Y0537799D01*
G01X0592899Y0537399D01*
G01X0593999Y0537099D01*
G01X0595099Y0536799D01*
G01X0596399Y0536699D01*
G01X0597599Y0536499D01*
G01X0598999Y0536399D01*
G01X0600599Y0536399D01*
G01X0600599Y0536399D01*
G37*
G36*
G01X0625099Y0554699D02*
G01X0625099Y0559199D01*
G01X0625599Y0563099D01*
G01X0626399Y0566399D01*
G01X0627199Y0569799D01*
G01X0628399Y0572599D01*
G01X0629999Y0574899D01*
G01X0631699Y0577199D01*
G01X0633599Y0578899D01*
G01X0635899Y0579999D01*
G01X0638099Y0581099D01*
G01X0640699Y0581699D01*
G01X0643599Y0581699D01*
G01X0646699Y0581699D01*
G01X0649299Y0581099D01*
G01X0651699Y0579999D01*
G01X0653999Y0578899D01*
G01X0655899Y0577199D01*
G01X0657499Y0574899D01*
G01X0659099Y0572599D01*
G01X0660299Y0569799D01*
G01X0661099Y0566399D01*
G01X0661799Y0563099D01*
G01X0662199Y0559199D01*
G01X0662199Y0554699D01*
G01X0662199Y0550299D01*
G01X0661799Y0546399D01*
G01X0660999Y0542999D01*
G01X0660199Y0539699D01*
G01X0658999Y0536899D01*
G01X0657399Y0534599D01*
G01X0655799Y0532299D01*
G01X0653799Y0530599D01*
G01X0651499Y0529499D01*
G01X0649299Y0528299D01*
G01X0646699Y0527799D01*
G01X0643799Y0527799D01*
G01X0640699Y0527799D01*
G01X0637999Y0528299D01*
G01X0635699Y0529499D01*
G01X0633399Y0530599D01*
G01X0631499Y0532299D01*
G01X0629899Y0534599D01*
G01X0628299Y0536899D01*
G01X0627099Y0539699D01*
G01X0626299Y0542999D01*
G01X0625499Y0546399D01*
G01X0625099Y0550299D01*
G01X0625099Y0554699D01*
G01X0625099Y0554699D01*
G37*
%LPC*%
G36*
G01X0635599Y0554699D02*
G01X0635599Y0553499D01*
G01X0635599Y0552299D01*
G01X0635599Y0551099D01*
G01X0635699Y0549899D01*
G01X0635799Y0548799D01*
G01X0635799Y0547599D01*
G01X0635899Y0546499D01*
G01X0635999Y0545499D01*
G01X0636199Y0544599D01*
G01X0636399Y0543599D01*
G01X0636699Y0542799D01*
G01X0636899Y0541899D01*
G01X0637199Y0541099D01*
G01X0637599Y0540399D01*
G01X0637999Y0539699D01*
G01X0638399Y0539099D01*
G01X0638899Y0538499D01*
G01X0639399Y0538099D01*
G01X0639999Y0537599D01*
G01X0640599Y0537199D01*
G01X0641299Y0536999D01*
G01X0641999Y0536799D01*
G01X0642799Y0536699D01*
G01X0643799Y0536699D01*
G01X0644599Y0536699D01*
G01X0645299Y0536799D01*
G01X0645999Y0536999D01*
G01X0646699Y0537199D01*
G01X0647399Y0537599D01*
G01X0647899Y0538099D01*
G01X0648499Y0538499D01*
G01X0648999Y0539099D01*
G01X0649399Y0539699D01*
G01X0649799Y0540399D01*
G01X0650099Y0541099D01*
G01X0650399Y0541899D01*
G01X0650699Y0542799D01*
G01X0650899Y0543699D01*
G01X0651099Y0544599D01*
G01X0651299Y0545599D01*
G01X0651499Y0546599D01*
G01X0651499Y0547599D01*
G01X0651599Y0548799D01*
G01X0651699Y0549899D01*
G01X0651699Y0550999D01*
G01X0651799Y0552199D01*
G01X0651799Y0553299D01*
G01X0651799Y0554599D01*
G01X0651799Y0555799D01*
G01X0651799Y0556999D01*
G01X0651699Y0558199D01*
G01X0651699Y0559399D01*
G01X0651599Y0560599D01*
G01X0651499Y0561699D01*
G01X0651499Y0562799D01*
G01X0651299Y0563799D01*
G01X0651099Y0564699D01*
G01X0650899Y0565699D01*
G01X0650699Y0566499D01*
G01X0650399Y0567399D01*
G01X0650099Y0568199D01*
G01X0649799Y0568899D01*
G01X0649399Y0569599D01*
G01X0648999Y0570199D01*
G01X0648499Y0570799D01*
G01X0647899Y0571299D01*
G01X0647399Y0571699D01*
G01X0646699Y0572099D01*
G01X0645999Y0572299D01*
G01X0645299Y0572499D01*
G01X0644499Y0572599D01*
G01X0643599Y0572599D01*
G01X0642699Y0572599D01*
G01X0641899Y0572499D01*
G01X0641199Y0572299D01*
G01X0640499Y0572099D01*
G01X0639899Y0571699D01*
G01X0639299Y0571299D01*
G01X0638799Y0570799D01*
G01X0638299Y0570199D01*
G01X0637799Y0569599D01*
G01X0637399Y0568899D01*
G01X0637099Y0568199D01*
G01X0636799Y0567399D01*
G01X0636499Y0566499D01*
G01X0636299Y0565699D01*
G01X0636099Y0564699D01*
G01X0635899Y0563799D01*
G01X0635799Y0562799D01*
G01X0635699Y0561699D01*
G01X0635599Y0560599D01*
G01X0635599Y0559499D01*
G01X0635599Y0558399D01*
G01X0635599Y0557199D01*
G01X0635599Y0555999D01*
G01X0635599Y0554699D01*
G01X0635599Y0554699D01*
G37*
%LPD*%
G36*
G01X0682399Y0581099D02*
G01X0683799Y0581099D01*
G01X0685199Y0580999D01*
G01X0686499Y0580899D01*
G01X0687899Y0580699D01*
G01X0689199Y0580499D01*
G01X0690399Y0580099D01*
G01X0691599Y0579799D01*
G01X0692699Y0579399D01*
G01X0693699Y0578899D01*
G01X0694799Y0578399D01*
G01X0695699Y0577799D01*
G01X0696499Y0577099D01*
G01X0697399Y0576399D01*
G01X0698099Y0575599D01*
G01X0698799Y0574699D01*
G01X0699499Y0573799D01*
G01X0700099Y0572799D01*
G01X0700599Y0571799D01*
G01X0700999Y0570799D01*
G01X0701399Y0569599D01*
G01X0701599Y0568399D01*
G01X0701799Y0567099D01*
G01X0701899Y0565799D01*
G01X0701899Y0564299D01*
G01X0701899Y0562799D01*
G01X0701799Y0561399D01*
G01X0701499Y0559999D01*
G01X0701199Y0558599D01*
G01X0700799Y0557399D01*
G01X0700099Y0556099D01*
G01X0699499Y0554899D01*
G01X0698699Y0553799D01*
G01X0697699Y0552899D01*
G01X0696699Y0551899D01*
G01X0695499Y0551199D01*
G01X0693999Y0550599D01*
G01X0694499Y0549899D01*
G01X0694999Y0549099D01*
G01X0695499Y0548299D01*
G01X0695999Y0547499D01*
G01X0696499Y0546699D01*
G01X0697099Y0545799D01*
G01X0697599Y0544999D01*
G01X0698199Y0544099D01*
G01X0698699Y0543199D01*
G01X0699199Y0542199D01*
G01X0699699Y0541299D01*
G01X0700099Y0540299D01*
G01X0700599Y0539299D01*
G01X0701099Y0538299D01*
G01X0701599Y0537399D01*
G01X0702099Y0536399D01*
G01X0702599Y0535499D01*
G01X0703099Y0534599D01*
G01X0703499Y0533599D01*
G01X0703999Y0532699D01*
G01X0704299Y0531799D01*
G01X0704699Y0530899D01*
G01X0705099Y0529999D01*
G01X0705399Y0529199D01*
G01X0694699Y0529199D01*
G01X0694099Y0530799D01*
G01X0693399Y0532499D01*
G01X0692699Y0534099D01*
G01X0691899Y0535699D01*
G01X0691099Y0537199D01*
G01X0690299Y0538799D01*
G01X0689399Y0540299D01*
G01X0688599Y0541799D01*
G01X0687699Y0543399D01*
G01X0686799Y0544999D01*
G01X0685799Y0546599D01*
G01X0684899Y0548199D01*
G01X0679599Y0548199D01*
G01X0679599Y0529199D01*
G01X0669299Y0529199D01*
G01X0669299Y0579999D01*
G01X0669799Y0580099D01*
G01X0670299Y0580199D01*
G01X0670899Y0580299D01*
G01X0671399Y0580399D01*
G01X0671999Y0580499D01*
G01X0672599Y0580599D01*
G01X0673299Y0580599D01*
G01X0673899Y0580699D01*
G01X0674399Y0580799D01*
G01X0674999Y0580799D01*
G01X0675599Y0580899D01*
G01X0676299Y0580999D01*
G01X0676899Y0580999D01*
G01X0677499Y0581099D01*
G01X0677999Y0581099D01*
G01X0678599Y0581099D01*
G01X0679199Y0581199D01*
G01X0679699Y0581299D01*
G01X0680299Y0581299D01*
G01X0680699Y0581299D01*
G01X0681099Y0581199D01*
G01X0681599Y0581199D01*
G01X0681899Y0581099D01*
G01X0682399Y0581099D01*
G01X0682399Y0581099D01*
G37*
%LPC*%
G36*
G01X0691399Y0564299D02*
G01X0691399Y0565699D01*
G01X0691199Y0566899D01*
G01X0690799Y0567899D01*
G01X0690299Y0568899D01*
G01X0689699Y0569699D01*
G01X0688899Y0570299D01*
G01X0688099Y0570899D01*
G01X0687099Y0571399D01*
G01X0685999Y0571699D01*
G01X0684899Y0571999D01*
G01X0683699Y0572199D01*
G01X0682399Y0572199D01*
G01X0682199Y0572199D01*
G01X0681899Y0572199D01*
G01X0681699Y0572199D01*
G01X0681499Y0572199D01*
G01X0681299Y0572199D01*
G01X0680999Y0572199D01*
G01X0680699Y0572199D01*
G01X0680399Y0572199D01*
G01X0680099Y0572199D01*
G01X0679899Y0572099D01*
G01X0679599Y0572099D01*
G01X0679299Y0572099D01*
G01X0679299Y0556499D01*
G01X0681499Y0556499D01*
G01X0683299Y0556499D01*
G01X0684799Y0556699D01*
G01X0685999Y0556999D01*
G01X0687299Y0557399D01*
G01X0688299Y0557899D01*
G01X0689199Y0558599D01*
G01X0689899Y0559199D01*
G01X0690499Y0559999D01*
G01X0690899Y0560999D01*
G01X0691199Y0561899D01*
G01X0691399Y0563099D01*
G01X0691399Y0564299D01*
G01X0691399Y0564299D01*
G37*
%LPD*%
G36*
G01X0188899Y0627099D02*
G01X0188099Y0627099D01*
G01X0187299Y0626999D01*
G01X0186599Y0626899D01*
G01X0185899Y0626699D01*
G01X0185299Y0626499D01*
G01X0184699Y0626299D01*
G01X0184199Y0625999D01*
G01X0183599Y0625599D01*
G01X0183199Y0625199D01*
G01X0182699Y0624799D01*
G01X0182299Y0624299D01*
G01X0181899Y0623799D01*
G01X0181599Y0623199D01*
G01X0181299Y0622599D01*
G01X0180999Y0621999D01*
G01X0180799Y0621399D01*
G01X0180599Y0620699D01*
G01X0180399Y0619999D01*
G01X0180299Y0619199D01*
G01X0180199Y0618499D01*
G01X0180099Y0617699D01*
G01X0179999Y0616899D01*
G01X0179999Y0615999D01*
G01X0179999Y0615099D01*
G01X0179999Y0613099D01*
G01X0180199Y0611299D01*
G01X0180499Y0609799D01*
G01X0180799Y0608299D01*
G01X0181299Y0607099D01*
G01X0181899Y0606099D01*
G01X0182599Y0605099D01*
G01X0183399Y0604399D01*
G01X0184299Y0603899D01*
G01X0185299Y0603399D01*
G01X0186399Y0603199D01*
G01X0187599Y0603199D01*
G01X0187799Y0603199D01*
G01X0188099Y0603199D01*
G01X0188299Y0603199D01*
G01X0188499Y0603199D01*
G01X0188799Y0603199D01*
G01X0188999Y0603199D01*
G01X0189199Y0603199D01*
G01X0189499Y0603199D01*
G01X0189699Y0603299D01*
G01X0189999Y0603299D01*
G01X0190199Y0603299D01*
G01X0190399Y0603299D01*
G01X0190399Y0615799D01*
G01X0197199Y0615799D01*
G01X0197199Y0598599D01*
G01X0196799Y0598499D01*
G01X0196299Y0598299D01*
G01X0195699Y0598099D01*
G01X0194999Y0597999D01*
G01X0194299Y0597799D01*
G01X0193499Y0597599D01*
G01X0192599Y0597399D01*
G01X0191699Y0597299D01*
G01X0190699Y0597199D01*
G01X0189599Y0597099D01*
G01X0188499Y0597099D01*
G01X0187199Y0597099D01*
G01X0186099Y0597099D01*
G01X0185099Y0597199D01*
G01X0184199Y0597399D01*
G01X0183199Y0597599D01*
G01X0182299Y0597799D01*
G01X0181399Y0598199D01*
G01X0180599Y0598499D01*
G01X0179799Y0598999D01*
G01X0178999Y0599599D01*
G01X0178299Y0600199D01*
G01X0177599Y0600799D01*
G01X0176899Y0601499D01*
G01X0176299Y0602199D01*
G01X0175799Y0603099D01*
G01X0175299Y0603999D01*
G01X0174799Y0604899D01*
G01X0174399Y0605999D01*
G01X0174199Y0607099D01*
G01X0173799Y0608199D01*
G01X0173599Y0609399D01*
G01X0173399Y0610699D01*
G01X0173299Y0611999D01*
G01X0173199Y0613399D01*
G01X0173199Y0614899D01*
G01X0173199Y0616299D01*
G01X0173299Y0617699D01*
G01X0173499Y0618999D01*
G01X0173699Y0620299D01*
G01X0173999Y0621499D01*
G01X0174299Y0622599D01*
G01X0174699Y0623799D01*
G01X0175199Y0624799D01*
G01X0175699Y0625699D01*
G01X0176199Y0626699D01*
G01X0176799Y0627599D01*
G01X0177499Y0628299D01*
G01X0178199Y0629099D01*
G01X0178899Y0629799D01*
G01X0179699Y0630299D01*
G01X0180499Y0630899D01*
G01X0181299Y0631399D01*
G01X0182199Y0631799D01*
G01X0183099Y0632199D01*
G01X0184099Y0632499D01*
G01X0184999Y0632699D01*
G01X0185999Y0632799D01*
G01X0186999Y0632899D01*
G01X0188099Y0632899D01*
G01X0188799Y0632899D01*
G01X0189399Y0632899D01*
G01X0189999Y0632799D01*
G01X0190599Y0632799D01*
G01X0191099Y0632699D01*
G01X0191699Y0632599D01*
G01X0192199Y0632599D01*
G01X0192699Y0632499D01*
G01X0193199Y0632299D01*
G01X0193599Y0632199D01*
G01X0193999Y0632099D01*
G01X0194399Y0631899D01*
G01X0194899Y0631799D01*
G01X0195199Y0631699D01*
G01X0195499Y0631499D01*
G01X0195799Y0631399D01*
G01X0196099Y0631299D01*
G01X0196399Y0631099D01*
G01X0196699Y0630999D01*
G01X0196899Y0630799D01*
G01X0196999Y0630699D01*
G01X0197199Y0630599D01*
G01X0197399Y0630499D01*
G01X0197499Y0630399D01*
G01X0195699Y0624999D01*
G01X0195299Y0625299D01*
G01X0194799Y0625499D01*
G01X0194299Y0625699D01*
G01X0193799Y0625999D01*
G01X0193299Y0626199D01*
G01X0192599Y0626399D01*
G01X0191899Y0626599D01*
G01X0191299Y0626799D01*
G01X0190699Y0626899D01*
G01X0190099Y0626999D01*
G01X0189499Y0627099D01*
G01X0188899Y0627099D01*
G01X0188899Y0627099D01*
G37*
G36*
G01X0211099Y0632599D02*
G01X0212099Y0632599D01*
G01X0212999Y0632599D01*
G01X0213899Y0632399D01*
G01X0214799Y0632299D01*
G01X0215599Y0632199D01*
G01X0216399Y0631899D01*
G01X0217199Y0631699D01*
G01X0217899Y0631499D01*
G01X0218599Y0631099D01*
G01X0219299Y0630799D01*
G01X0219899Y0630299D01*
G01X0220599Y0629899D01*
G01X0221099Y0629399D01*
G01X0221599Y0628899D01*
G01X0222099Y0628299D01*
G01X0222499Y0627699D01*
G01X0222899Y0627099D01*
G01X0223199Y0626399D01*
G01X0223499Y0625699D01*
G01X0223699Y0624899D01*
G01X0223899Y0624099D01*
G01X0224099Y0623299D01*
G01X0224199Y0622399D01*
G01X0224199Y0621399D01*
G01X0224199Y0620399D01*
G01X0224099Y0619499D01*
G01X0223899Y0618599D01*
G01X0223599Y0617699D01*
G01X0223299Y0616799D01*
G01X0222899Y0615999D01*
G01X0222499Y0615099D01*
G01X0221899Y0614399D01*
G01X0221299Y0613799D01*
G01X0220599Y0613199D01*
G01X0219799Y0612599D01*
G01X0218899Y0612199D01*
G01X0219199Y0611699D01*
G01X0219499Y0611199D01*
G01X0219799Y0610699D01*
G01X0220099Y0610099D01*
G01X0220499Y0609599D01*
G01X0220799Y0608999D01*
G01X0221199Y0608499D01*
G01X0221499Y0607899D01*
G01X0221899Y0607299D01*
G01X0222199Y0606699D01*
G01X0222599Y0605999D01*
G01X0222899Y0605399D01*
G01X0223299Y0604799D01*
G01X0223599Y0604199D01*
G01X0223899Y0603499D01*
G01X0224199Y0602899D01*
G01X0224499Y0602199D01*
G01X0224899Y0601499D01*
G01X0225099Y0600899D01*
G01X0225399Y0600299D01*
G01X0225699Y0599699D01*
G01X0225899Y0599099D01*
G01X0226199Y0598499D01*
G01X0226399Y0597899D01*
G01X0219199Y0597899D01*
G01X0218799Y0598999D01*
G01X0218299Y0600099D01*
G01X0217799Y0601199D01*
G01X0217299Y0602199D01*
G01X0216799Y0603299D01*
G01X0216299Y0604299D01*
G01X0215699Y0605299D01*
G01X0215099Y0606399D01*
G01X0214499Y0607399D01*
G01X0213899Y0608499D01*
G01X0213299Y0609499D01*
G01X0212599Y0610599D01*
G01X0208999Y0610599D01*
G01X0208999Y0597899D01*
G01X0202199Y0597899D01*
G01X0202199Y0631799D01*
G01X0202599Y0631899D01*
G01X0202899Y0631899D01*
G01X0203299Y0631999D01*
G01X0203599Y0632099D01*
G01X0203999Y0632199D01*
G01X0204399Y0632199D01*
G01X0204899Y0632299D01*
G01X0205299Y0632399D01*
G01X0205699Y0632399D01*
G01X0206099Y0632499D01*
G01X0206499Y0632499D01*
G01X0206799Y0632499D01*
G01X0207199Y0632499D01*
G01X0207499Y0632499D01*
G01X0207899Y0632599D01*
G01X0208299Y0632599D01*
G01X0208799Y0632599D01*
G01X0209199Y0632599D01*
G01X0209599Y0632599D01*
G01X0209899Y0632599D01*
G01X0210199Y0632599D01*
G01X0210599Y0632599D01*
G01X0210799Y0632599D01*
G01X0211099Y0632599D01*
G01X0211099Y0632599D01*
G37*
%LPC*%
G36*
G01X0217199Y0621399D02*
G01X0217199Y0622299D01*
G01X0217099Y0623099D01*
G01X0216799Y0623799D01*
G01X0216499Y0624399D01*
G01X0216099Y0624999D01*
G01X0215599Y0625399D01*
G01X0214999Y0625799D01*
G01X0214299Y0626099D01*
G01X0213599Y0626399D01*
G01X0212799Y0626599D01*
G01X0211999Y0626699D01*
G01X0211099Y0626699D01*
G01X0210999Y0626699D01*
G01X0210799Y0626699D01*
G01X0210699Y0626699D01*
G01X0210499Y0626699D01*
G01X0210299Y0626699D01*
G01X0210099Y0626699D01*
G01X0209899Y0626699D01*
G01X0209799Y0626699D01*
G01X0209599Y0626699D01*
G01X0209399Y0626599D01*
G01X0209199Y0626599D01*
G01X0208999Y0626499D01*
G01X0208999Y0616299D01*
G01X0210599Y0616299D01*
G01X0211699Y0616299D01*
G01X0212699Y0616399D01*
G01X0213599Y0616599D01*
G01X0214399Y0616799D01*
G01X0215099Y0617199D01*
G01X0215599Y0617599D01*
G01X0216099Y0618099D01*
G01X0216499Y0618599D01*
G01X0216799Y0619199D01*
G01X0217099Y0619799D01*
G01X0217199Y0620599D01*
G01X0217199Y0621399D01*
G01X0217199Y0621399D01*
G37*
%LPD*%
G36*
G01X0228599Y0614999D02*
G01X0228599Y0617999D01*
G01X0228899Y0620599D01*
G01X0229399Y0622799D01*
G01X0229999Y0625099D01*
G01X0230799Y0626899D01*
G01X0231899Y0628499D01*
G01X0233099Y0629999D01*
G01X0234399Y0631099D01*
G01X0235899Y0631899D01*
G01X0237399Y0632699D01*
G01X0239199Y0633099D01*
G01X0241099Y0633099D01*
G01X0243099Y0633099D01*
G01X0244899Y0632699D01*
G01X0246399Y0631899D01*
G01X0247999Y0631099D01*
G01X0249199Y0629999D01*
G01X0250299Y0628499D01*
G01X0251299Y0626899D01*
G01X0252099Y0625099D01*
G01X0252699Y0622799D01*
G01X0253199Y0620599D01*
G01X0253499Y0617999D01*
G01X0253499Y0614999D01*
G01X0253499Y0611999D01*
G01X0253199Y0609399D01*
G01X0252699Y0607199D01*
G01X0252099Y0604899D01*
G01X0251299Y0603099D01*
G01X0250299Y0601499D01*
G01X0249199Y0599999D01*
G01X0247899Y0598899D01*
G01X0246399Y0598099D01*
G01X0244899Y0597299D01*
G01X0243099Y0596899D01*
G01X0241099Y0596899D01*
G01X0239099Y0596899D01*
G01X0237299Y0597299D01*
G01X0235799Y0598099D01*
G01X0234199Y0598899D01*
G01X0232899Y0599999D01*
G01X0231799Y0601499D01*
G01X0230699Y0603099D01*
G01X0229899Y0604999D01*
G01X0229399Y0607199D01*
G01X0228899Y0609499D01*
G01X0228599Y0612099D01*
G01X0228599Y0614999D01*
G01X0228599Y0614999D01*
G37*
%LPC*%
G36*
G01X0235599Y0614999D02*
G01X0235599Y0614199D01*
G01X0235599Y0613399D01*
G01X0235599Y0612599D01*
G01X0235599Y0611799D01*
G01X0235599Y0610999D01*
G01X0235699Y0610299D01*
G01X0235799Y0609499D01*
G01X0235899Y0608799D01*
G01X0235999Y0608199D01*
G01X0236099Y0607599D01*
G01X0236299Y0606999D01*
G01X0236499Y0606499D01*
G01X0236699Y0605999D01*
G01X0236999Y0605499D01*
G01X0237299Y0605099D01*
G01X0237499Y0604699D01*
G01X0237799Y0604299D01*
G01X0238199Y0603999D01*
G01X0238499Y0603799D01*
G01X0238999Y0603499D01*
G01X0239399Y0603299D01*
G01X0239899Y0603199D01*
G01X0240399Y0603099D01*
G01X0240999Y0603099D01*
G01X0241499Y0603099D01*
G01X0241999Y0603099D01*
G01X0242499Y0603299D01*
G01X0242999Y0603399D01*
G01X0243399Y0603699D01*
G01X0243799Y0603999D01*
G01X0244099Y0604399D01*
G01X0244399Y0604799D01*
G01X0244699Y0605199D01*
G01X0244999Y0605599D01*
G01X0245199Y0606099D01*
G01X0245399Y0606699D01*
G01X0245599Y0607199D01*
G01X0245799Y0607799D01*
G01X0245899Y0608399D01*
G01X0246099Y0609099D01*
G01X0246199Y0609699D01*
G01X0246299Y0610399D01*
G01X0246299Y0611099D01*
G01X0246399Y0611899D01*
G01X0246399Y0612699D01*
G01X0246399Y0613499D01*
G01X0246399Y0614299D01*
G01X0246399Y0615099D01*
G01X0246399Y0615999D01*
G01X0246399Y0616799D01*
G01X0246399Y0617599D01*
G01X0246399Y0618299D01*
G01X0246299Y0619099D01*
G01X0246299Y0619899D01*
G01X0246199Y0620599D01*
G01X0246099Y0621299D01*
G01X0245899Y0621899D01*
G01X0245799Y0622599D01*
G01X0245599Y0623099D01*
G01X0245399Y0623599D01*
G01X0245199Y0624199D01*
G01X0244999Y0624699D01*
G01X0244699Y0625099D01*
G01X0244399Y0625499D01*
G01X0244099Y0625799D01*
G01X0243799Y0626099D01*
G01X0243399Y0626399D01*
G01X0242999Y0626599D01*
G01X0242499Y0626799D01*
G01X0241999Y0626999D01*
G01X0241499Y0627099D01*
G01X0240999Y0627099D01*
G01X0240399Y0627099D01*
G01X0239899Y0626999D01*
G01X0239399Y0626899D01*
G01X0238999Y0626699D01*
G01X0238499Y0626499D01*
G01X0238199Y0626099D01*
G01X0237799Y0625799D01*
G01X0237499Y0625399D01*
G01X0237299Y0624899D01*
G01X0236999Y0624499D01*
G01X0236699Y0623999D01*
G01X0236499Y0623499D01*
G01X0236299Y0622899D01*
G01X0236099Y0622299D01*
G01X0235999Y0621699D01*
G01X0235899Y0621099D01*
G01X0235799Y0620399D01*
G01X0235699Y0619699D01*
G01X0235599Y0618999D01*
G01X0235599Y0618299D01*
G01X0235599Y0617499D01*
G01X0235599Y0616699D01*
G01X0235599Y0615799D01*
G01X0235599Y0614999D01*
G01X0235599Y0614999D01*
G37*
%LPD*%
G36*
G01X0265099Y0597799D02*
G01X0264699Y0598999D01*
G01X0264299Y0600399D01*
G01X0263799Y0601799D01*
G01X0263299Y0603299D01*
G01X0262799Y0604799D01*
G01X0262399Y0606399D01*
G01X0261899Y0607999D01*
G01X0261399Y0609599D01*
G01X0260899Y0611199D01*
G01X0260499Y0612799D01*
G01X0259999Y0614399D01*
G01X0259599Y0615999D01*
G01X0259199Y0617599D01*
G01X0258799Y0619099D01*
G01X0258399Y0620599D01*
G01X0257999Y0622199D01*
G01X0257599Y0623599D01*
G01X0257199Y0624999D01*
G01X0256899Y0626499D01*
G01X0256599Y0627699D01*
G01X0256299Y0628899D01*
G01X0255999Y0629999D01*
G01X0255799Y0630999D01*
G01X0255699Y0631899D01*
G01X0262899Y0631899D01*
G01X0263099Y0630999D01*
G01X0263199Y0630099D01*
G01X0263399Y0628999D01*
G01X0263499Y0627999D01*
G01X0263699Y0626899D01*
G01X0263899Y0625699D01*
G01X0264099Y0624499D01*
G01X0264299Y0623299D01*
G01X0264599Y0622099D01*
G01X0264899Y0620899D01*
G01X0265099Y0619699D01*
G01X0265399Y0618499D01*
G01X0265699Y0617199D01*
G01X0265999Y0615999D01*
G01X0266299Y0614699D01*
G01X0266499Y0613499D01*
G01X0266799Y0612299D01*
G01X0267099Y0611099D01*
G01X0267399Y0609899D01*
G01X0267699Y0608799D01*
G01X0267999Y0607699D01*
G01X0268299Y0606599D01*
G01X0268599Y0605599D01*
G01X0268899Y0604599D01*
G01X0269199Y0605599D01*
G01X0269399Y0606599D01*
G01X0269699Y0607599D01*
G01X0269999Y0608699D01*
G01X0270299Y0609899D01*
G01X0270699Y0611099D01*
G01X0270999Y0612299D01*
G01X0271299Y0613499D01*
G01X0271499Y0614699D01*
G01X0271799Y0615999D01*
G01X0272099Y0617199D01*
G01X0272399Y0618499D01*
G01X0272599Y0619699D01*
G01X0272899Y0620899D01*
G01X0273099Y0622199D01*
G01X0273299Y0623399D01*
G01X0273499Y0624599D01*
G01X0273799Y0625799D01*
G01X0273999Y0626999D01*
G01X0274199Y0628099D01*
G01X0274399Y0629199D01*
G01X0274499Y0630199D01*
G01X0274699Y0631199D01*
G01X0274899Y0632099D01*
G01X0282099Y0632099D01*
G01X0281899Y0630999D01*
G01X0281599Y0629799D01*
G01X0281399Y0628499D01*
G01X0281099Y0627299D01*
G01X0280799Y0625999D01*
G01X0280399Y0624599D01*
G01X0280099Y0623199D01*
G01X0279699Y0621799D01*
G01X0279399Y0620399D01*
G01X0278999Y0618999D01*
G01X0278599Y0617499D01*
G01X0278199Y0615999D01*
G01X0277799Y0614399D01*
G01X0277299Y0612899D01*
G01X0276899Y0611399D01*
G01X0276399Y0609899D01*
G01X0275899Y0608299D01*
G01X0275399Y0606799D01*
G01X0274899Y0605199D01*
G01X0274399Y0603699D01*
G01X0273899Y0602199D01*
G01X0273399Y0600699D01*
G01X0272799Y0599199D01*
G01X0272399Y0597799D01*
G01X0265099Y0597799D01*
G01X0265099Y0597799D01*
G37*
G36*
G01X0286099Y0597799D02*
G01X0286099Y0632199D01*
G01X0306899Y0632199D01*
G01X0306899Y0626499D01*
G01X0292899Y0626499D01*
G01X0292899Y0618799D01*
G01X0305099Y0618799D01*
G01X0305099Y0613099D01*
G01X0292899Y0613099D01*
G01X0292899Y0603299D01*
G01X0308199Y0603299D01*
G01X0308199Y0597599D01*
G01X0286099Y0597599D01*
G01X0286099Y0597799D01*
G37*
G36*
G01X0354599Y0597099D02*
G01X0352199Y0597099D01*
G01X0349999Y0597499D01*
G01X0348099Y0598199D01*
G01X0346299Y0598999D01*
G01X0344699Y0600199D01*
G01X0343499Y0601799D01*
G01X0342199Y0603299D01*
G01X0341299Y0605199D01*
G01X0340599Y0607399D01*
G01X0339899Y0609699D01*
G01X0339599Y0612199D01*
G01X0339599Y0615099D01*
G01X0339599Y0616599D01*
G01X0339699Y0617999D01*
G01X0339899Y0619199D01*
G01X0340099Y0620499D01*
G01X0340299Y0621699D01*
G01X0340699Y0622799D01*
G01X0341099Y0623899D01*
G01X0341599Y0624899D01*
G01X0342099Y0625799D01*
G01X0342599Y0626799D01*
G01X0343199Y0627599D01*
G01X0343899Y0628499D01*
G01X0344599Y0629199D01*
G01X0345299Y0629899D01*
G01X0346199Y0630499D01*
G01X0346999Y0630999D01*
G01X0347899Y0631499D01*
G01X0348899Y0631899D01*
G01X0349899Y0632399D01*
G01X0350899Y0632699D01*
G01X0351899Y0632899D01*
G01X0352999Y0633099D01*
G01X0353999Y0633199D01*
G01X0355099Y0633199D01*
G01X0355799Y0633199D01*
G01X0356399Y0633199D01*
G01X0356899Y0633099D01*
G01X0357499Y0633099D01*
G01X0357999Y0632999D01*
G01X0358499Y0632899D01*
G01X0358999Y0632799D01*
G01X0359399Y0632699D01*
G01X0359799Y0632599D01*
G01X0360299Y0632499D01*
G01X0360699Y0632399D01*
G01X0361099Y0632199D01*
G01X0361499Y0632099D01*
G01X0361799Y0631899D01*
G01X0362099Y0631799D01*
G01X0362399Y0631699D01*
G01X0362699Y0631499D01*
G01X0362899Y0631399D01*
G01X0363199Y0631299D01*
G01X0363399Y0631099D01*
G01X0363599Y0630999D01*
G01X0363799Y0630899D01*
G01X0363899Y0630799D01*
G01X0363999Y0630699D01*
G01X0362199Y0625299D01*
G01X0361799Y0625599D01*
G01X0361299Y0625799D01*
G01X0360799Y0625999D01*
G01X0360299Y0626299D01*
G01X0359699Y0626499D01*
G01X0359199Y0626699D01*
G01X0358499Y0626899D01*
G01X0357899Y0626999D01*
G01X0357199Y0627099D01*
G01X0356499Y0627199D01*
G01X0355799Y0627199D01*
G01X0354999Y0627199D01*
G01X0354399Y0627199D01*
G01X0353899Y0627199D01*
G01X0353399Y0627099D01*
G01X0352899Y0626999D01*
G01X0352399Y0626899D01*
G01X0351799Y0626699D01*
G01X0351299Y0626499D01*
G01X0350799Y0626199D01*
G01X0350399Y0625899D01*
G01X0349899Y0625599D01*
G01X0349399Y0625199D01*
G01X0348999Y0624699D01*
G01X0348599Y0624199D01*
G01X0348299Y0623699D01*
G01X0347999Y0623099D01*
G01X0347599Y0622499D01*
G01X0347399Y0621899D01*
G01X0347099Y0621099D01*
G01X0346799Y0620299D01*
G01X0346599Y0619499D01*
G01X0346499Y0618499D01*
G01X0346399Y0617599D01*
G01X0346399Y0616499D01*
G01X0346399Y0615399D01*
G01X0346399Y0613499D01*
G01X0346599Y0611699D01*
G01X0346899Y0610199D01*
G01X0347299Y0608699D01*
G01X0347799Y0607399D01*
G01X0348499Y0606399D01*
G01X0349199Y0605299D01*
G01X0350099Y0604499D01*
G01X0351199Y0603999D01*
G01X0352299Y0603499D01*
G01X0353599Y0603199D01*
G01X0355099Y0603199D01*
G01X0355999Y0603199D01*
G01X0356799Y0603199D01*
G01X0357599Y0603299D01*
G01X0358299Y0603399D01*
G01X0358999Y0603499D01*
G01X0359599Y0603799D01*
G01X0360199Y0603999D01*
G01X0360699Y0604199D01*
G01X0361199Y0604399D01*
G01X0361599Y0604599D01*
G01X0361999Y0604799D01*
G01X0362399Y0604999D01*
G01X0363999Y0599599D01*
G01X0363499Y0599299D01*
G01X0362999Y0598999D01*
G01X0362299Y0598799D01*
G01X0361699Y0598499D01*
G01X0360999Y0598199D01*
G01X0360099Y0597899D01*
G01X0359399Y0597599D01*
G01X0358499Y0597399D01*
G01X0357599Y0597299D01*
G01X0356699Y0597199D01*
G01X0355699Y0597099D01*
G01X0354599Y0597099D01*
G01X0354599Y0597099D01*
G37*
G36*
G01X0367499Y0614999D02*
G01X0367499Y0617999D01*
G01X0367799Y0620599D01*
G01X0368299Y0622799D01*
G01X0368899Y0625099D01*
G01X0369699Y0626899D01*
G01X0370799Y0628499D01*
G01X0371899Y0629999D01*
G01X0373299Y0631099D01*
G01X0374799Y0631899D01*
G01X0376299Y0632699D01*
G01X0378099Y0633099D01*
G01X0379999Y0633099D01*
G01X0381999Y0633099D01*
G01X0383799Y0632699D01*
G01X0385299Y0631899D01*
G01X0386799Y0631099D01*
G01X0388099Y0629999D01*
G01X0389199Y0628499D01*
G01X0390199Y0626899D01*
G01X0390999Y0625099D01*
G01X0391499Y0622799D01*
G01X0392099Y0620599D01*
G01X0392399Y0617999D01*
G01X0392399Y0614999D01*
G01X0392399Y0611999D01*
G01X0392099Y0609399D01*
G01X0391499Y0607199D01*
G01X0390999Y0604899D01*
G01X0390199Y0603099D01*
G01X0389199Y0601499D01*
G01X0388099Y0599999D01*
G01X0386799Y0598899D01*
G01X0385299Y0598099D01*
G01X0383799Y0597299D01*
G01X0381999Y0596899D01*
G01X0379999Y0596899D01*
G01X0377999Y0596899D01*
G01X0376199Y0597299D01*
G01X0374699Y0598099D01*
G01X0373099Y0598899D01*
G01X0371799Y0599999D01*
G01X0370699Y0601499D01*
G01X0369599Y0603099D01*
G01X0368799Y0604999D01*
G01X0368299Y0607199D01*
G01X0367699Y0609499D01*
G01X0367499Y0612099D01*
G01X0367499Y0614999D01*
G01X0367499Y0614999D01*
G37*
%LPC*%
G36*
G01X0374399Y0614999D02*
G01X0374399Y0614199D01*
G01X0374399Y0613399D01*
G01X0374499Y0612599D01*
G01X0374499Y0611799D01*
G01X0374499Y0610999D01*
G01X0374599Y0610299D01*
G01X0374699Y0609499D01*
G01X0374799Y0608799D01*
G01X0374899Y0608199D01*
G01X0374999Y0607599D01*
G01X0375199Y0606999D01*
G01X0375399Y0606499D01*
G01X0375599Y0605999D01*
G01X0375899Y0605499D01*
G01X0376099Y0605099D01*
G01X0376399Y0604699D01*
G01X0376699Y0604299D01*
G01X0377099Y0603999D01*
G01X0377399Y0603799D01*
G01X0377799Y0603499D01*
G01X0378299Y0603299D01*
G01X0378799Y0603199D01*
G01X0379299Y0603099D01*
G01X0379899Y0603099D01*
G01X0380399Y0603099D01*
G01X0380899Y0603099D01*
G01X0381399Y0603299D01*
G01X0381899Y0603399D01*
G01X0382299Y0603699D01*
G01X0382599Y0603999D01*
G01X0382999Y0604399D01*
G01X0383299Y0604799D01*
G01X0383599Y0605199D01*
G01X0383899Y0605599D01*
G01X0384099Y0606099D01*
G01X0384299Y0606699D01*
G01X0384499Y0607199D01*
G01X0384699Y0607799D01*
G01X0384799Y0608399D01*
G01X0384999Y0609099D01*
G01X0385099Y0609699D01*
G01X0385099Y0610399D01*
G01X0385199Y0611099D01*
G01X0385199Y0611899D01*
G01X0385299Y0612699D01*
G01X0385299Y0613499D01*
G01X0385299Y0614299D01*
G01X0385299Y0615099D01*
G01X0385299Y0615999D01*
G01X0385299Y0616799D01*
G01X0385299Y0617599D01*
G01X0385199Y0618299D01*
G01X0385199Y0619099D01*
G01X0385099Y0619899D01*
G01X0385099Y0620599D01*
G01X0384999Y0621299D01*
G01X0384799Y0621899D01*
G01X0384699Y0622599D01*
G01X0384499Y0623099D01*
G01X0384299Y0623599D01*
G01X0384099Y0624199D01*
G01X0383899Y0624699D01*
G01X0383599Y0625099D01*
G01X0383299Y0625499D01*
G01X0382999Y0625799D01*
G01X0382599Y0626099D01*
G01X0382299Y0626399D01*
G01X0381899Y0626599D01*
G01X0381399Y0626799D01*
G01X0380899Y0626999D01*
G01X0380399Y0627099D01*
G01X0379899Y0627099D01*
G01X0379299Y0627099D01*
G01X0378799Y0626999D01*
G01X0378299Y0626899D01*
G01X0377799Y0626699D01*
G01X0377399Y0626499D01*
G01X0377099Y0626099D01*
G01X0376699Y0625799D01*
G01X0376399Y0625399D01*
G01X0376099Y0624899D01*
G01X0375899Y0624499D01*
G01X0375599Y0623999D01*
G01X0375399Y0623499D01*
G01X0375199Y0622899D01*
G01X0374999Y0622299D01*
G01X0374899Y0621699D01*
G01X0374799Y0621099D01*
G01X0374699Y0620399D01*
G01X0374599Y0619699D01*
G01X0374499Y0618999D01*
G01X0374499Y0618299D01*
G01X0374499Y0617499D01*
G01X0374399Y0616699D01*
G01X0374399Y0615799D01*
G01X0374399Y0614999D01*
G01X0374399Y0614999D01*
G37*
%LPD*%
G36*
G01X0402599Y0632199D02*
G01X0402799Y0631799D01*
G01X0402899Y0631399D01*
G01X0403099Y0630899D01*
G01X0403199Y0630299D01*
G01X0403399Y0629799D01*
G01X0403599Y0629199D01*
G01X0403799Y0628499D01*
G01X0403999Y0627899D01*
G01X0404199Y0627299D01*
G01X0404399Y0626599D01*
G01X0404699Y0625999D01*
G01X0404899Y0625299D01*
G01X0405099Y0624599D01*
G01X0405299Y0623899D01*
G01X0405499Y0623199D01*
G01X0405699Y0622499D01*
G01X0405999Y0621699D01*
G01X0406299Y0620999D01*
G01X0406499Y0620299D01*
G01X0406699Y0619599D01*
G01X0406899Y0618899D01*
G01X0407099Y0618199D01*
G01X0407299Y0617599D01*
G01X0407499Y0616899D01*
G01X0407699Y0617599D01*
G01X0407999Y0618299D01*
G01X0408199Y0618999D01*
G01X0408399Y0619799D01*
G01X0408699Y0620499D01*
G01X0408899Y0621299D01*
G01X0409199Y0621899D01*
G01X0409399Y0622699D01*
G01X0409599Y0623399D01*
G01X0409899Y0624099D01*
G01X0410099Y0624799D01*
G01X0410299Y0625399D01*
G01X0410499Y0626099D01*
G01X0410699Y0626799D01*
G01X0410899Y0627399D01*
G01X0411099Y0627999D01*
G01X0411299Y0628599D01*
G01X0411499Y0629199D01*
G01X0411699Y0629799D01*
G01X0411899Y0630299D01*
G01X0412099Y0630799D01*
G01X0412199Y0631299D01*
G01X0412399Y0631699D01*
G01X0412499Y0632099D01*
G01X0418199Y0632099D01*
G01X0418299Y0630599D01*
G01X0418499Y0629099D01*
G01X0418599Y0627599D01*
G01X0418699Y0626099D01*
G01X0418799Y0624699D01*
G01X0418899Y0623299D01*
G01X0418999Y0621899D01*
G01X0419099Y0620499D01*
G01X0419199Y0618999D01*
G01X0419299Y0617599D01*
G01X0419399Y0616299D01*
G01X0419399Y0614899D01*
G01X0419499Y0613499D01*
G01X0419599Y0612099D01*
G01X0419699Y0610699D01*
G01X0419699Y0609299D01*
G01X0419799Y0607799D01*
G01X0419899Y0606399D01*
G01X0419899Y0604899D01*
G01X0419999Y0603499D01*
G01X0419999Y0602099D01*
G01X0419999Y0600599D01*
G01X0420099Y0599199D01*
G01X0420099Y0597599D01*
G01X0413899Y0597599D01*
G01X0414199Y0624299D01*
G01X0409999Y0609699D01*
G01X0404999Y0609699D01*
G01X0400999Y0624299D01*
G01X0401299Y0597599D01*
G01X0394999Y0597599D01*
G01X0395099Y0598999D01*
G01X0395099Y0600499D01*
G01X0395199Y0601899D01*
G01X0395299Y0603399D01*
G01X0395299Y0604899D01*
G01X0395399Y0606399D01*
G01X0395499Y0607899D01*
G01X0395599Y0609399D01*
G01X0395599Y0610999D01*
G01X0395699Y0612499D01*
G01X0395799Y0613999D01*
G01X0395799Y0615399D01*
G01X0395899Y0616899D01*
G01X0395999Y0618399D01*
G01X0396099Y0619899D01*
G01X0396099Y0621399D01*
G01X0396299Y0622799D01*
G01X0396399Y0624199D01*
G01X0396499Y0625599D01*
G01X0396599Y0626899D01*
G01X0396699Y0628199D01*
G01X0396799Y0629499D01*
G01X0396899Y0630799D01*
G01X0397099Y0631899D01*
G01X0402599Y0631899D01*
G01X0402599Y0632199D01*
G37*
G36*
G01X0433899Y0632599D02*
G01X0436099Y0632599D01*
G01X0438099Y0632399D01*
G01X0439699Y0631999D01*
G01X0441399Y0631599D01*
G01X0442799Y0630899D01*
G01X0443999Y0629999D01*
G01X0445199Y0629099D01*
G01X0446099Y0627899D01*
G01X0446699Y0626499D01*
G01X0447299Y0624999D01*
G01X0447599Y0623299D01*
G01X0447599Y0621299D01*
G01X0447599Y0619199D01*
G01X0447299Y0617399D01*
G01X0446699Y0615899D01*
G01X0446099Y0614399D01*
G01X0445199Y0613299D01*
G01X0443999Y0612399D01*
G01X0442799Y0611499D01*
G01X0441399Y0610799D01*
G01X0439699Y0610299D01*
G01X0437999Y0609799D01*
G01X0435999Y0609599D01*
G01X0433799Y0609599D01*
G01X0431299Y0609599D01*
G01X0431299Y0597899D01*
G01X0424399Y0597899D01*
G01X0424399Y0631799D01*
G01X0424799Y0631899D01*
G01X0425099Y0631899D01*
G01X0425499Y0631999D01*
G01X0425899Y0632099D01*
G01X0426299Y0632199D01*
G01X0426699Y0632199D01*
G01X0427099Y0632299D01*
G01X0427499Y0632299D01*
G01X0427899Y0632399D01*
G01X0428299Y0632399D01*
G01X0428799Y0632399D01*
G01X0429199Y0632499D01*
G01X0429599Y0632499D01*
G01X0429999Y0632499D01*
G01X0430399Y0632599D01*
G01X0430799Y0632599D01*
G01X0431299Y0632599D01*
G01X0431699Y0632599D01*
G01X0432199Y0632599D01*
G01X0432599Y0632599D01*
G01X0432899Y0632599D01*
G01X0433299Y0632599D01*
G01X0433599Y0632599D01*
G01X0433899Y0632599D01*
G01X0433899Y0632599D01*
G37*
%LPC*%
G36*
G01X0434699Y0626699D02*
G01X0434499Y0626699D01*
G01X0434299Y0626699D01*
G01X0433999Y0626699D01*
G01X0433699Y0626699D01*
G01X0433399Y0626699D01*
G01X0433099Y0626699D01*
G01X0432699Y0626699D01*
G01X0432399Y0626699D01*
G01X0432099Y0626699D01*
G01X0431799Y0626599D01*
G01X0431599Y0626599D01*
G01X0431399Y0626499D01*
G01X0431399Y0615399D01*
G01X0434199Y0615399D01*
G01X0435299Y0615399D01*
G01X0436299Y0615499D01*
G01X0437099Y0615699D01*
G01X0437899Y0615899D01*
G01X0438599Y0616299D01*
G01X0439199Y0616699D01*
G01X0439699Y0617099D01*
G01X0440099Y0617699D01*
G01X0440399Y0618399D01*
G01X0440699Y0619199D01*
G01X0440799Y0620099D01*
G01X0440799Y0621099D01*
G01X0440799Y0622099D01*
G01X0440699Y0622999D01*
G01X0440399Y0623699D01*
G01X0440099Y0624399D01*
G01X0439699Y0624999D01*
G01X0439199Y0625399D01*
G01X0438499Y0625799D01*
G01X0437899Y0626099D01*
G01X0437199Y0626399D01*
G01X0436399Y0626599D01*
G01X0435599Y0626699D01*
G01X0434699Y0626699D01*
G01X0434699Y0626699D01*
G37*
%LPD*%
G36*
G01X0469199Y0597799D02*
G01X0467499Y0605699D01*
G01X0458299Y0605699D01*
G01X0456799Y0597799D01*
G01X0449699Y0597799D01*
G01X0450599Y0601199D01*
G01X0451399Y0604399D01*
G01X0452199Y0607499D01*
G01X0453099Y0610599D01*
G01X0453899Y0613499D01*
G01X0454699Y0616299D01*
G01X0455599Y0618999D01*
G01X0456399Y0621699D01*
G01X0457199Y0624399D01*
G01X0457999Y0626999D01*
G01X0458799Y0629599D01*
G01X0459599Y0632099D01*
G01X0467099Y0632099D01*
G01X0467899Y0629599D01*
G01X0468699Y0626999D01*
G01X0469499Y0624299D01*
G01X0470299Y0621599D01*
G01X0471099Y0618899D01*
G01X0471899Y0616099D01*
G01X0472799Y0613299D01*
G01X0473599Y0610399D01*
G01X0474399Y0607299D01*
G01X0475099Y0604199D01*
G01X0475899Y0600999D01*
G01X0476699Y0597799D01*
G01X0469199Y0597799D01*
G01X0469199Y0597799D01*
G37*
%LPC*%
G36*
G01X0463099Y0625599D02*
G01X0462799Y0624899D01*
G01X0462699Y0624299D01*
G01X0462499Y0623699D01*
G01X0462399Y0623099D01*
G01X0462199Y0622399D01*
G01X0462099Y0621799D01*
G01X0461899Y0621199D01*
G01X0461799Y0620599D01*
G01X0461699Y0619999D01*
G01X0461499Y0619399D01*
G01X0461399Y0618899D01*
G01X0461299Y0618299D01*
G01X0461099Y0617799D01*
G01X0460999Y0617199D01*
G01X0460799Y0616699D01*
G01X0460699Y0616099D01*
G01X0460599Y0615499D01*
G01X0460399Y0614899D01*
G01X0460299Y0614199D01*
G01X0460199Y0613599D01*
G01X0460099Y0613099D01*
G01X0459999Y0612499D01*
G01X0459899Y0611899D01*
G01X0459699Y0611299D01*
G01X0466399Y0611299D01*
G01X0466299Y0611899D01*
G01X0466099Y0612499D01*
G01X0465999Y0613099D01*
G01X0465899Y0613599D01*
G01X0465799Y0614199D01*
G01X0465699Y0614899D01*
G01X0465599Y0615399D01*
G01X0465499Y0615999D01*
G01X0465299Y0616499D01*
G01X0465199Y0617099D01*
G01X0465099Y0617699D01*
G01X0464999Y0618299D01*
G01X0464899Y0618899D01*
G01X0464699Y0619399D01*
G01X0464599Y0619999D01*
G01X0464399Y0620599D01*
G01X0464299Y0621199D01*
G01X0464199Y0621799D01*
G01X0463999Y0622399D01*
G01X0463799Y0623099D01*
G01X0463599Y0623699D01*
G01X0463399Y0624299D01*
G01X0463299Y0624899D01*
G01X0463099Y0625599D01*
G01X0463099Y0625599D01*
G37*
%LPD*%
G36*
G01X0503499Y0632199D02*
G01X0503499Y0626499D01*
G01X0494399Y0626499D01*
G01X0494399Y0597799D01*
G01X0487499Y0597799D01*
G01X0487499Y0626499D01*
G01X0478499Y0626499D01*
G01X0478499Y0632199D01*
G01X0503499Y0632199D01*
G01X0503499Y0632199D01*
G37*
G36*
G01X0507799Y0597799D02*
G01X0507799Y0603499D01*
G01X0515299Y0603499D01*
G01X0515299Y0626499D01*
G01X0507799Y0626499D01*
G01X0507799Y0632199D01*
G01X0529599Y0632199D01*
G01X0529599Y0626499D01*
G01X0522199Y0626499D01*
G01X0522199Y0603499D01*
G01X0529699Y0603499D01*
G01X0529699Y0597799D01*
G01X0507799Y0597799D01*
G01X0507799Y0597799D01*
G37*
G36*
G01X0558599Y0608199D02*
G01X0558599Y0607199D01*
G01X0558499Y0606199D01*
G01X0558299Y0605399D01*
G01X0558099Y0604499D01*
G01X0557799Y0603799D01*
G01X0557499Y0603099D01*
G01X0557199Y0602399D01*
G01X0556699Y0601699D01*
G01X0556299Y0601199D01*
G01X0555799Y0600599D01*
G01X0555199Y0600099D01*
G01X0554599Y0599699D01*
G01X0553999Y0599299D01*
G01X0553299Y0598999D01*
G01X0552599Y0598699D01*
G01X0551899Y0598399D01*
G01X0551099Y0598099D01*
G01X0550299Y0597899D01*
G01X0549399Y0597699D01*
G01X0548599Y0597599D01*
G01X0547699Y0597499D01*
G01X0546799Y0597399D01*
G01X0545899Y0597399D01*
G01X0544999Y0597399D01*
G01X0544199Y0597399D01*
G01X0543499Y0597399D01*
G01X0542699Y0597399D01*
G01X0541899Y0597499D01*
G01X0541099Y0597599D01*
G01X0540299Y0597599D01*
G01X0539399Y0597699D01*
G01X0538599Y0597799D01*
G01X0537799Y0597899D01*
G01X0536999Y0598099D01*
G01X0536299Y0598199D01*
G01X0535399Y0598299D01*
G01X0535399Y0631699D01*
G01X0535999Y0631799D01*
G01X0536699Y0631899D01*
G01X0537499Y0631999D01*
G01X0538199Y0632099D01*
G01X0538999Y0632199D01*
G01X0539699Y0632199D01*
G01X0540499Y0632299D01*
G01X0541299Y0632399D01*
G01X0541999Y0632399D01*
G01X0542799Y0632499D01*
G01X0543499Y0632499D01*
G01X0544299Y0632499D01*
G01X0545599Y0632499D01*
G01X0546799Y0632399D01*
G01X0547899Y0632299D01*
G01X0548899Y0632199D01*
G01X0549899Y0631899D01*
G01X0550699Y0631699D01*
G01X0551499Y0631399D01*
G01X0552299Y0631099D01*
G01X0552899Y0630699D01*
G01X0553499Y0630399D01*
G01X0554099Y0629999D01*
G01X0554599Y0629599D01*
G01X0555099Y0629199D01*
G01X0555499Y0628699D01*
G01X0555799Y0628199D01*
G01X0556099Y0627699D01*
G01X0556299Y0627199D01*
G01X0556499Y0626699D01*
G01X0556699Y0626099D01*
G01X0556799Y0625599D01*
G01X0556899Y0625099D01*
G01X0556999Y0624499D01*
G01X0557099Y0623999D01*
G01X0557099Y0623499D01*
G01X0557099Y0622599D01*
G01X0556999Y0621899D01*
G01X0556799Y0621199D01*
G01X0556599Y0620499D01*
G01X0556299Y0619799D01*
G01X0555799Y0619199D01*
G01X0555399Y0618499D01*
G01X0554999Y0617999D01*
G01X0554399Y0617499D01*
G01X0553899Y0616999D01*
G01X0553299Y0616499D01*
G01X0552599Y0616099D01*
G01X0553799Y0615699D01*
G01X0554799Y0615199D01*
G01X0555599Y0614599D01*
G01X0556399Y0614099D01*
G01X0556899Y0613399D01*
G01X0557399Y0612599D01*
G01X0557799Y0611999D01*
G01X0558099Y0611299D01*
G01X0558299Y0610599D01*
G01X0558499Y0609799D01*
G01X0558599Y0608999D01*
G01X0558599Y0608199D01*
G01X0558599Y0608199D01*
G37*
%LPC*%
G36*
G01X0545099Y0618599D02*
G01X0545999Y0618599D01*
G01X0546699Y0618699D01*
G01X0547399Y0618899D01*
G01X0548099Y0619099D01*
G01X0548599Y0619399D01*
G01X0548999Y0619699D01*
G01X0549399Y0620099D01*
G01X0549799Y0620499D01*
G01X0549999Y0621099D01*
G01X0550299Y0621599D01*
G01X0550399Y0622199D01*
G01X0550399Y0622899D01*
G01X0550399Y0623299D01*
G01X0550399Y0623699D01*
G01X0550299Y0623999D01*
G01X0550199Y0624399D01*
G01X0550099Y0624699D01*
G01X0549999Y0624899D01*
G01X0549899Y0625099D01*
G01X0549699Y0625299D01*
G01X0549499Y0625499D01*
G01X0549399Y0625699D01*
G01X0549199Y0625799D01*
G01X0548899Y0625999D01*
G01X0548599Y0626099D01*
G01X0548399Y0626199D01*
G01X0548099Y0626299D01*
G01X0547899Y0626399D01*
G01X0547599Y0626499D01*
G01X0547399Y0626499D01*
G01X0547099Y0626599D01*
G01X0546799Y0626599D01*
G01X0546499Y0626699D01*
G01X0546099Y0626699D01*
G01X0545799Y0626699D01*
G01X0545599Y0626699D01*
G01X0545299Y0626699D01*
G01X0544999Y0626699D01*
G01X0544699Y0626699D01*
G01X0544399Y0626699D01*
G01X0544199Y0626699D01*
G01X0543899Y0626699D01*
G01X0543599Y0626699D01*
G01X0543299Y0626599D01*
G01X0543099Y0626599D01*
G01X0542799Y0626599D01*
G01X0542599Y0626499D01*
G01X0542399Y0626499D01*
G01X0542399Y0618599D01*
G01X0545099Y0618599D01*
G01X0545099Y0618599D01*
G37*
G36*
G01X0542399Y0612899D02*
G01X0542399Y0603599D01*
G01X0542599Y0603499D01*
G01X0542799Y0603499D01*
G01X0543099Y0603499D01*
G01X0543299Y0603499D01*
G01X0543599Y0603499D01*
G01X0543899Y0603499D01*
G01X0544199Y0603499D01*
G01X0544399Y0603499D01*
G01X0544699Y0603499D01*
G01X0544999Y0603499D01*
G01X0545299Y0603499D01*
G01X0545599Y0603499D01*
G01X0545999Y0603499D01*
G01X0546399Y0603499D01*
G01X0546699Y0603499D01*
G01X0547099Y0603499D01*
G01X0547399Y0603499D01*
G01X0547799Y0603599D01*
G01X0548099Y0603699D01*
G01X0548499Y0603799D01*
G01X0548799Y0603899D01*
G01X0549099Y0603999D01*
G01X0549399Y0604199D01*
G01X0549699Y0604299D01*
G01X0549999Y0604399D01*
G01X0550299Y0604699D01*
G01X0550499Y0604899D01*
G01X0550799Y0605199D01*
G01X0550999Y0605499D01*
G01X0551099Y0605799D01*
G01X0551299Y0606199D01*
G01X0551499Y0606599D01*
G01X0551499Y0606999D01*
G01X0551599Y0607399D01*
G01X0551699Y0607799D01*
G01X0551699Y0608299D01*
G01X0551699Y0609199D01*
G01X0551499Y0609899D01*
G01X0551299Y0610499D01*
G01X0550999Y0611099D01*
G01X0550599Y0611599D01*
G01X0550099Y0611899D01*
G01X0549599Y0612299D01*
G01X0548999Y0612599D01*
G01X0548199Y0612799D01*
G01X0547499Y0612999D01*
G01X0546699Y0613099D01*
G01X0545799Y0613099D01*
G01X0542399Y0613099D01*
G01X0542399Y0612899D01*
G37*
%LPD*%
G36*
G01X0585999Y0597799D02*
G01X0564299Y0597799D01*
G01X0564299Y0632199D01*
G01X0571299Y0632199D01*
G01X0571299Y0603499D01*
G01X0585999Y0603499D01*
G01X0585999Y0597799D01*
G01X0585999Y0597799D01*
G37*
G36*
G01X0591699Y0597799D02*
G01X0591699Y0632199D01*
G01X0612499Y0632199D01*
G01X0612499Y0626499D01*
G01X0598499Y0626499D01*
G01X0598499Y0618799D01*
G01X0610699Y0618799D01*
G01X0610699Y0613099D01*
G01X0598499Y0613099D01*
G01X0598499Y0603299D01*
G01X0613799Y0603299D01*
G01X0613799Y0597599D01*
G01X0591699Y0597599D01*
G01X0591699Y0597799D01*
G37*
G36*
G01X0504399Y0699399D02*
G01X0504399Y0699399D01*
G01X0492099Y0711799D01*
G01X0499599Y0719299D01*
G01X0511899Y0706899D01*
G01X0511899Y0706899D01*
G01X0519199Y0699699D01*
G01X0519199Y0699699D01*
G01X0531499Y0687399D01*
G01X0523999Y0679899D01*
G01X0511699Y0692199D01*
G01X0511699Y0692199D01*
G01X0504399Y0699399D01*
G01X0504399Y0699399D01*
G37*
G36*
G01X0346899Y0699399D02*
G01X0346899Y0699399D01*
G01X0334599Y0711799D01*
G01X0342099Y0719299D01*
G01X0354399Y0706899D01*
G01X0354399Y0706899D01*
G01X0361699Y0699699D01*
G01X0361699Y0699699D01*
G01X0373999Y0687399D01*
G01X0366499Y0679899D01*
G01X0354199Y0692199D01*
G01X0354199Y0692199D01*
G01X0346899Y0699399D01*
G01X0346899Y0699399D01*
G37*
G36*
G01X0268199Y0699399D02*
G01X0268199Y0699399D01*
G01X0255799Y0711799D01*
G01X0263299Y0719299D01*
G01X0275699Y0706899D01*
G01X0275699Y0706899D01*
G01X0282899Y0699699D01*
G01X0282899Y0699699D01*
G01X0295299Y0687399D01*
G01X0287799Y0679899D01*
G01X0275399Y0692199D01*
G01X0275399Y0692199D01*
G01X0268199Y0699399D01*
G01X0268199Y0699399D01*
G37*
G36*
G01X0472499Y0660299D02*
G01X0472499Y0738999D01*
G01X0393799Y0738999D01*
G01X0393799Y0660299D01*
G01X0472499Y0660299D01*
G01X0472499Y0660299D01*
G37*
%LPC*%
G36*
G01X0425699Y0699699D02*
G01X0432899Y0706899D01*
G01X0445299Y0719299D01*
G01X0452799Y0711799D01*
G01X0440399Y0699399D01*
G01X0433199Y0692199D01*
G01X0420799Y0679899D01*
G01X0413299Y0687399D01*
G01X0425699Y0699699D01*
G01X0425699Y0699699D01*
G37*
%LPD*%
G36*
G01X0268199Y0393499D02*
G01X0268199Y0393499D01*
G01X0255799Y0405799D01*
G01X0263299Y0413299D01*
G01X0275699Y0400999D01*
G01X0275699Y0400999D01*
G01X0282899Y0393799D01*
G01X0282899Y0393799D01*
G01X0295299Y0381399D01*
G01X0287799Y0373899D01*
G01X0275399Y0386299D01*
G01X0275399Y0386299D01*
G01X0268199Y0393499D01*
G01X0268199Y0393499D01*
G37*
G36*
G01X0504399Y0393499D02*
G01X0504399Y0393499D01*
G01X0492099Y0405799D01*
G01X0499599Y0413299D01*
G01X0511899Y0400999D01*
G01X0511899Y0400999D01*
G01X0519199Y0393799D01*
G01X0519199Y0393799D01*
G01X0531499Y0381399D01*
G01X0523999Y0373899D01*
G01X0511699Y0386299D01*
G01X0511699Y0386299D01*
G01X0504399Y0393499D01*
G01X0504399Y0393499D01*
G37*
G36*
G01X0268199Y0472199D02*
G01X0268199Y0472199D01*
G01X0255799Y0484599D01*
G01X0263299Y0492099D01*
G01X0275699Y0479699D01*
G01X0275699Y0479699D01*
G01X0282899Y0472499D01*
G01X0282899Y0472499D01*
G01X0295299Y0460099D01*
G01X0287799Y0452599D01*
G01X0275399Y0464999D01*
G01X0275399Y0464999D01*
G01X0268199Y0472199D01*
G01X0268199Y0472199D01*
G37*
G36*
G01X0504399Y0472199D02*
G01X0504399Y0472199D01*
G01X0492099Y0484599D01*
G01X0499599Y0492099D01*
G01X0511899Y0479699D01*
G01X0511899Y0479699D01*
G01X0519199Y0472499D01*
G01X0519199Y0472499D01*
G01X0531499Y0460099D01*
G01X0523999Y0452599D01*
G01X0511699Y0464999D01*
G01X0511699Y0464999D01*
G01X0504399Y0472199D01*
G01X0504399Y0472199D01*
G37*
G36*
G01X0268199Y0314699D02*
G01X0268199Y0314699D01*
G01X0255799Y0327099D01*
G01X0263299Y0334599D01*
G01X0275699Y0322199D01*
G01X0275699Y0322199D01*
G01X0282899Y0315099D01*
G01X0282899Y0315099D01*
G01X0295299Y0302799D01*
G01X0287799Y0295299D01*
G01X0275399Y0307599D01*
G01X0275399Y0307599D01*
G01X0268199Y0314699D01*
G01X0268199Y0314699D01*
G37*
G36*
G01X0504399Y0314699D02*
G01X0504399Y0314699D01*
G01X0492099Y0327099D01*
G01X0499599Y0334599D01*
G01X0511899Y0322199D01*
G01X0511899Y0322199D01*
G01X0519199Y0315099D01*
G01X0519199Y0315099D01*
G01X0531499Y0302799D01*
G01X0523999Y0295299D01*
G01X0511699Y0307599D01*
G01X0511699Y0307599D01*
G01X0504399Y0314699D01*
G01X0504399Y0314699D01*
G37*
M02*
