%TF.GenerationSoftware,KiCad,Pcbnew,8.0.3*%
%TF.CreationDate,2024-08-07T13:24:35+02:00*%
%TF.ProjectId,radar_module,72616461-725f-46d6-9f64-756c652e6b69,rev?*%
%TF.SameCoordinates,Original*%
%TF.FileFunction,Copper,L2,Bot*%
%TF.FilePolarity,Positive*%
%FSLAX46Y46*%
G04 Gerber Fmt 4.6, Leading zero omitted, Abs format (unit mm)*
G04 Created by KiCad (PCBNEW 8.0.3) date 2024-08-07 13:24:35*
%MOMM*%
%LPD*%
G01*
G04 APERTURE LIST*
G04 Aperture macros list*
%AMRoundRect*
0 Rectangle with rounded corners*
0 $1 Rounding radius*
0 $2 $3 $4 $5 $6 $7 $8 $9 X,Y pos of 4 corners*
0 Add a 4 corners polygon primitive as box body*
4,1,4,$2,$3,$4,$5,$6,$7,$8,$9,$2,$3,0*
0 Add four circle primitives for the rounded corners*
1,1,$1+$1,$2,$3*
1,1,$1+$1,$4,$5*
1,1,$1+$1,$6,$7*
1,1,$1+$1,$8,$9*
0 Add four rect primitives between the rounded corners*
20,1,$1+$1,$2,$3,$4,$5,0*
20,1,$1+$1,$4,$5,$6,$7,0*
20,1,$1+$1,$6,$7,$8,$9,0*
20,1,$1+$1,$8,$9,$2,$3,0*%
G04 Aperture macros list end*
%TA.AperFunction,ComponentPad*%
%ADD10R,1.350000X1.350000*%
%TD*%
%TA.AperFunction,ComponentPad*%
%ADD11O,1.350000X1.350000*%
%TD*%
%TA.AperFunction,ComponentPad*%
%ADD12R,1.700000X1.700000*%
%TD*%
%TA.AperFunction,ComponentPad*%
%ADD13O,1.700000X1.700000*%
%TD*%
%TA.AperFunction,SMDPad,CuDef*%
%ADD14RoundRect,0.250000X-0.475000X0.337500X-0.475000X-0.337500X0.475000X-0.337500X0.475000X0.337500X0*%
%TD*%
%TA.AperFunction,SMDPad,CuDef*%
%ADD15RoundRect,0.250000X-0.450000X0.350000X-0.450000X-0.350000X0.450000X-0.350000X0.450000X0.350000X0*%
%TD*%
%TA.AperFunction,SMDPad,CuDef*%
%ADD16RoundRect,0.375000X-0.375000X-0.725000X0.375000X-0.725000X0.375000X0.725000X-0.375000X0.725000X0*%
%TD*%
%TA.AperFunction,SMDPad,CuDef*%
%ADD17RoundRect,0.250000X-0.337500X-0.475000X0.337500X-0.475000X0.337500X0.475000X-0.337500X0.475000X0*%
%TD*%
%TA.AperFunction,ComponentPad*%
%ADD18R,1.308000X1.308000*%
%TD*%
%TA.AperFunction,ComponentPad*%
%ADD19C,1.308000*%
%TD*%
%TA.AperFunction,SMDPad,CuDef*%
%ADD20R,0.952500X0.508000*%
%TD*%
%TA.AperFunction,SMDPad,CuDef*%
%ADD21RoundRect,0.250000X0.675000X1.625000X-0.675000X1.625000X-0.675000X-1.625000X0.675000X-1.625000X0*%
%TD*%
%TA.AperFunction,ViaPad*%
%ADD22C,0.600000*%
%TD*%
%TA.AperFunction,Conductor*%
%ADD23C,0.400000*%
%TD*%
G04 APERTURE END LIST*
D10*
%TO.P,J4,1,Pin_1*%
%TO.N,GND*%
X142380000Y-115620000D03*
D11*
%TO.P,J4,2,Pin_2*%
%TO.N,unconnected-(J4-Pin_2-Pad2)*%
X144380000Y-115620000D03*
%TO.P,J4,3,Pin_3*%
%TO.N,unconnected-(J4-Pin_3-Pad3)*%
X142380000Y-113620000D03*
%TO.P,J4,4,Pin_4*%
%TO.N,unconnected-(J4-Pin_4-Pad4)*%
X144380000Y-113620000D03*
%TO.P,J4,5,Pin_5*%
%TO.N,unconnected-(J4-Pin_5-Pad5)*%
X142380000Y-111620000D03*
%TO.P,J4,6,Pin_6*%
%TO.N,TX*%
X144380000Y-111620000D03*
%TO.P,J4,7,Pin_7*%
%TO.N,+5V*%
X142380000Y-109620000D03*
%TO.P,J4,8,Pin_8*%
%TO.N,RX*%
X144380000Y-109620000D03*
%TD*%
D12*
%TO.P,J3,1,Pin_1*%
%TO.N,TX*%
X130040000Y-122340000D03*
D13*
%TO.P,J3,2,Pin_2*%
%TO.N,RX*%
X127500000Y-122340000D03*
%TO.P,J3,3,Pin_3*%
%TO.N,unconnected-(J3-Pin_3-Pad3)*%
X124960000Y-122340000D03*
%TO.P,J3,4,Pin_4*%
%TO.N,GND*%
X122420000Y-122340000D03*
%TO.P,J3,5,Pin_5*%
%TO.N,+5V*%
X119880000Y-122340000D03*
%TD*%
D14*
%TO.P,C2,1*%
%TO.N,+5V*%
X131880000Y-109802500D03*
%TO.P,C2,2*%
%TO.N,GND*%
X131880000Y-111877500D03*
%TD*%
D15*
%TO.P,R2,1*%
%TO.N,Net-(U1-FB)*%
X128960000Y-115470000D03*
%TO.P,R2,2*%
%TO.N,GND*%
X128960000Y-117470000D03*
%TD*%
D16*
%TO.P,L1,1,1*%
%TO.N,+3.3V*%
X119510000Y-103960000D03*
%TO.P,L1,2,2*%
%TO.N,Net-(D1-A)*%
X125010000Y-103960000D03*
%TD*%
D17*
%TO.P,C1,1*%
%TO.N,+3.3V*%
X121702500Y-116150000D03*
%TO.P,C1,2*%
%TO.N,GND*%
X123777500Y-116150000D03*
%TD*%
D18*
%TO.P,J1,1,1*%
%TO.N,GND*%
X106690000Y-115597500D03*
D19*
%TO.P,J1,2,2*%
%TO.N,+3.3V*%
X106690000Y-113597500D03*
%TO.P,J1,3,3*%
%TO.N,RX*%
X106690000Y-111597500D03*
%TO.P,J1,4,4*%
%TO.N,TX*%
X106690000Y-109597500D03*
%TD*%
D20*
%TO.P,U1,1,SW*%
%TO.N,Net-(D1-A)*%
X123942700Y-109959999D03*
%TO.P,U1,2,GND*%
%TO.N,GND*%
X123942700Y-110910000D03*
%TO.P,U1,3,FB*%
%TO.N,Net-(U1-FB)*%
X123942700Y-111860001D03*
%TO.P,U1,4,EN*%
%TO.N,+3.3V*%
X121390000Y-111860001D03*
%TO.P,U1,5,VIN*%
X121390000Y-109959999D03*
%TD*%
D21*
%TO.P,D1,1,K*%
%TO.N,+5V*%
X132895000Y-104040000D03*
%TO.P,D1,2,A*%
%TO.N,Net-(D1-A)*%
X128345000Y-104040000D03*
%TD*%
D15*
%TO.P,R1,1*%
%TO.N,+5V*%
X128970000Y-109890000D03*
%TO.P,R1,2*%
%TO.N,Net-(U1-FB)*%
X128970000Y-111890000D03*
%TD*%
D22*
%TO.N,GND*%
X130620000Y-113450000D03*
X112060000Y-114890000D03*
X123100000Y-113160000D03*
X131720000Y-120080000D03*
X109550000Y-108340000D03*
X135990000Y-112070000D03*
X142460000Y-117550000D03*
X105390000Y-112620000D03*
X126380000Y-111070000D03*
X122590000Y-107930000D03*
X120030000Y-116000000D03*
X134890000Y-108400000D03*
X120120000Y-110880000D03*
X146330000Y-109600000D03*
X130760000Y-104670000D03*
X118820000Y-120890000D03*
%TD*%
D23*
%TO.N,+3.3V*%
X121242500Y-113597500D02*
X121390000Y-113450000D01*
X119490000Y-103980000D02*
X119490000Y-108059999D01*
X121702500Y-116150000D02*
X121702500Y-113762500D01*
X121390000Y-111860001D02*
X121390000Y-113450000D01*
X106690000Y-113597500D02*
X121242500Y-113597500D01*
X119490000Y-108059999D02*
X121390000Y-109959999D01*
X119510000Y-103960000D02*
X119490000Y-103980000D01*
X121390000Y-109959999D02*
X121390000Y-111860001D01*
X121702500Y-113762500D02*
X121390000Y-113450000D01*
%TO.N,+5V*%
X134360000Y-109922500D02*
X142077500Y-109922500D01*
X131880000Y-109802500D02*
X132000000Y-109922500D01*
X131792500Y-109890000D02*
X131880000Y-109802500D01*
X132762500Y-104172500D02*
X132762500Y-108920000D01*
X132762500Y-108920000D02*
X131880000Y-109802500D01*
X132000000Y-109922500D02*
X134360000Y-109922500D01*
X119880000Y-122340000D02*
X123500000Y-118720000D01*
X142077500Y-109922500D02*
X142380000Y-109620000D01*
X132895000Y-104040000D02*
X132762500Y-104172500D01*
X134360000Y-116870000D02*
X134360000Y-109922500D01*
X128970000Y-109890000D02*
X131792500Y-109890000D01*
X132510000Y-118720000D02*
X134360000Y-116870000D01*
X123500000Y-118720000D02*
X132510000Y-118720000D01*
%TO.N,Net-(D1-A)*%
X125090000Y-104040000D02*
X128345000Y-104040000D01*
X124990000Y-103980000D02*
X124990000Y-108912699D01*
X125010000Y-103960000D02*
X124990000Y-103980000D01*
X125010000Y-103960000D02*
X125090000Y-104040000D01*
X124990000Y-108912699D02*
X123942700Y-109959999D01*
%TO.N,Net-(U1-FB)*%
X124362701Y-112280002D02*
X128579998Y-112280002D01*
X128579998Y-112280002D02*
X128970000Y-111890000D01*
X128960000Y-111900000D02*
X128970000Y-111890000D01*
X123942700Y-111860001D02*
X124362701Y-112280002D01*
X128960000Y-115470000D02*
X128960000Y-111900000D01*
%TD*%
%TA.AperFunction,Conductor*%
%TO.N,GND*%
G36*
X148004418Y-100500816D02*
G01*
X148204561Y-100515130D01*
X148222063Y-100517647D01*
X148413797Y-100559355D01*
X148430755Y-100564334D01*
X148614609Y-100632909D01*
X148630701Y-100640259D01*
X148802904Y-100734288D01*
X148817784Y-100743849D01*
X148974867Y-100861441D01*
X148988237Y-100873027D01*
X149126972Y-101011762D01*
X149138558Y-101025132D01*
X149256146Y-101182210D01*
X149265711Y-101197095D01*
X149359740Y-101369298D01*
X149367090Y-101385390D01*
X149435662Y-101569236D01*
X149440646Y-101586212D01*
X149482351Y-101777931D01*
X149484869Y-101795442D01*
X149499184Y-101995580D01*
X149499500Y-102004427D01*
X149499500Y-122995572D01*
X149499184Y-123004419D01*
X149484869Y-123204557D01*
X149482351Y-123222068D01*
X149440646Y-123413787D01*
X149435662Y-123430763D01*
X149367090Y-123614609D01*
X149359740Y-123630701D01*
X149265711Y-123802904D01*
X149256146Y-123817789D01*
X149138558Y-123974867D01*
X149126972Y-123988237D01*
X148988237Y-124126972D01*
X148974867Y-124138558D01*
X148817789Y-124256146D01*
X148802904Y-124265711D01*
X148630701Y-124359740D01*
X148614609Y-124367090D01*
X148430763Y-124435662D01*
X148413787Y-124440646D01*
X148222068Y-124482351D01*
X148204557Y-124484869D01*
X148023779Y-124497799D01*
X148004417Y-124499184D01*
X147995572Y-124499500D01*
X102004428Y-124499500D01*
X101995582Y-124499184D01*
X101973622Y-124497613D01*
X101795442Y-124484869D01*
X101777931Y-124482351D01*
X101586212Y-124440646D01*
X101569236Y-124435662D01*
X101385390Y-124367090D01*
X101369298Y-124359740D01*
X101197095Y-124265711D01*
X101182210Y-124256146D01*
X101025132Y-124138558D01*
X101011762Y-124126972D01*
X100873027Y-123988237D01*
X100861441Y-123974867D01*
X100743849Y-123817784D01*
X100734288Y-123802904D01*
X100640259Y-123630701D01*
X100632909Y-123614609D01*
X100607896Y-123547547D01*
X100564334Y-123430755D01*
X100559355Y-123413797D01*
X100517647Y-123222063D01*
X100515130Y-123204556D01*
X100500816Y-123004418D01*
X100500500Y-122995572D01*
X100500500Y-121078711D01*
X101949500Y-121078711D01*
X101949500Y-121321288D01*
X101981161Y-121561785D01*
X102043947Y-121796104D01*
X102073714Y-121867967D01*
X102136776Y-122020212D01*
X102258064Y-122230289D01*
X102258066Y-122230292D01*
X102258067Y-122230293D01*
X102405733Y-122422736D01*
X102405739Y-122422743D01*
X102577256Y-122594260D01*
X102577262Y-122594265D01*
X102769711Y-122741936D01*
X102979788Y-122863224D01*
X103203900Y-122956054D01*
X103438211Y-123018838D01*
X103618586Y-123042584D01*
X103678711Y-123050500D01*
X103678712Y-123050500D01*
X103921289Y-123050500D01*
X103969388Y-123044167D01*
X104161789Y-123018838D01*
X104396100Y-122956054D01*
X104620212Y-122863224D01*
X104830289Y-122741936D01*
X105022738Y-122594265D01*
X105194265Y-122422738D01*
X105257753Y-122339999D01*
X118524341Y-122339999D01*
X118524341Y-122340000D01*
X118544936Y-122575403D01*
X118544938Y-122575413D01*
X118606094Y-122803655D01*
X118606096Y-122803659D01*
X118606097Y-122803663D01*
X118685801Y-122974588D01*
X118705965Y-123017830D01*
X118705967Y-123017834D01*
X118799388Y-123151252D01*
X118841505Y-123211401D01*
X119008599Y-123378495D01*
X119105384Y-123446265D01*
X119202165Y-123514032D01*
X119202167Y-123514033D01*
X119202170Y-123514035D01*
X119416337Y-123613903D01*
X119416343Y-123613904D01*
X119416344Y-123613905D01*
X119471285Y-123628626D01*
X119644592Y-123675063D01*
X119821034Y-123690500D01*
X119879999Y-123695659D01*
X119880000Y-123695659D01*
X119880001Y-123695659D01*
X119938966Y-123690500D01*
X120115408Y-123675063D01*
X120343663Y-123613903D01*
X120557830Y-123514035D01*
X120751401Y-123378495D01*
X120918495Y-123211401D01*
X121048730Y-123025405D01*
X121103307Y-122981781D01*
X121172805Y-122974587D01*
X121235160Y-123006110D01*
X121251879Y-123025405D01*
X121381890Y-123211078D01*
X121548917Y-123378105D01*
X121742421Y-123513600D01*
X121956507Y-123613429D01*
X121956516Y-123613433D01*
X122170000Y-123670634D01*
X122170000Y-122773012D01*
X122227007Y-122805925D01*
X122354174Y-122840000D01*
X122485826Y-122840000D01*
X122612993Y-122805925D01*
X122670000Y-122773012D01*
X122670000Y-123670633D01*
X122883483Y-123613433D01*
X122883492Y-123613429D01*
X123097578Y-123513600D01*
X123291082Y-123378105D01*
X123458105Y-123211082D01*
X123588119Y-123025405D01*
X123642696Y-122981781D01*
X123712195Y-122974588D01*
X123774549Y-123006110D01*
X123791269Y-123025405D01*
X123921505Y-123211401D01*
X124088599Y-123378495D01*
X124185384Y-123446265D01*
X124282165Y-123514032D01*
X124282167Y-123514033D01*
X124282170Y-123514035D01*
X124496337Y-123613903D01*
X124496343Y-123613904D01*
X124496344Y-123613905D01*
X124551285Y-123628626D01*
X124724592Y-123675063D01*
X124901034Y-123690500D01*
X124959999Y-123695659D01*
X124960000Y-123695659D01*
X124960001Y-123695659D01*
X125018966Y-123690500D01*
X125195408Y-123675063D01*
X125423663Y-123613903D01*
X125637830Y-123514035D01*
X125831401Y-123378495D01*
X125998495Y-123211401D01*
X126128425Y-123025842D01*
X126183002Y-122982217D01*
X126252500Y-122975023D01*
X126314855Y-123006546D01*
X126331575Y-123025842D01*
X126461500Y-123211395D01*
X126461505Y-123211401D01*
X126628599Y-123378495D01*
X126725384Y-123446265D01*
X126822165Y-123514032D01*
X126822167Y-123514033D01*
X126822170Y-123514035D01*
X127036337Y-123613903D01*
X127036343Y-123613904D01*
X127036344Y-123613905D01*
X127091285Y-123628626D01*
X127264592Y-123675063D01*
X127441034Y-123690500D01*
X127499999Y-123695659D01*
X127500000Y-123695659D01*
X127500001Y-123695659D01*
X127558966Y-123690500D01*
X127735408Y-123675063D01*
X127963663Y-123613903D01*
X128177830Y-123514035D01*
X128371401Y-123378495D01*
X128493329Y-123256566D01*
X128554648Y-123223084D01*
X128624340Y-123228068D01*
X128680274Y-123269939D01*
X128697189Y-123300917D01*
X128746202Y-123432328D01*
X128746206Y-123432335D01*
X128832452Y-123547544D01*
X128832455Y-123547547D01*
X128947664Y-123633793D01*
X128947671Y-123633797D01*
X129082517Y-123684091D01*
X129082516Y-123684091D01*
X129089444Y-123684835D01*
X129142127Y-123690500D01*
X130937872Y-123690499D01*
X130997483Y-123684091D01*
X131132331Y-123633796D01*
X131247546Y-123547546D01*
X131333796Y-123432331D01*
X131384091Y-123297483D01*
X131390500Y-123237873D01*
X131390499Y-121442128D01*
X131384091Y-121382517D01*
X131382810Y-121379083D01*
X131333797Y-121247671D01*
X131333793Y-121247664D01*
X131247547Y-121132455D01*
X131247544Y-121132452D01*
X131175756Y-121078711D01*
X144349500Y-121078711D01*
X144349500Y-121321288D01*
X144381161Y-121561785D01*
X144443947Y-121796104D01*
X144473714Y-121867967D01*
X144536776Y-122020212D01*
X144658064Y-122230289D01*
X144658066Y-122230292D01*
X144658067Y-122230293D01*
X144805733Y-122422736D01*
X144805739Y-122422743D01*
X144977256Y-122594260D01*
X144977262Y-122594265D01*
X145169711Y-122741936D01*
X145379788Y-122863224D01*
X145603900Y-122956054D01*
X145838211Y-123018838D01*
X146018586Y-123042584D01*
X146078711Y-123050500D01*
X146078712Y-123050500D01*
X146321289Y-123050500D01*
X146369388Y-123044167D01*
X146561789Y-123018838D01*
X146796100Y-122956054D01*
X147020212Y-122863224D01*
X147230289Y-122741936D01*
X147422738Y-122594265D01*
X147594265Y-122422738D01*
X147741936Y-122230289D01*
X147863224Y-122020212D01*
X147956054Y-121796100D01*
X148018838Y-121561789D01*
X148050500Y-121321288D01*
X148050500Y-121078712D01*
X148018838Y-120838211D01*
X147956054Y-120603900D01*
X147863224Y-120379788D01*
X147741936Y-120169711D01*
X147594265Y-119977262D01*
X147594260Y-119977256D01*
X147422743Y-119805739D01*
X147422736Y-119805733D01*
X147230293Y-119658067D01*
X147230292Y-119658066D01*
X147230289Y-119658064D01*
X147020212Y-119536776D01*
X147020205Y-119536773D01*
X146796104Y-119443947D01*
X146561785Y-119381161D01*
X146321289Y-119349500D01*
X146321288Y-119349500D01*
X146078712Y-119349500D01*
X146078711Y-119349500D01*
X145838214Y-119381161D01*
X145603895Y-119443947D01*
X145379794Y-119536773D01*
X145379785Y-119536777D01*
X145169706Y-119658067D01*
X144977263Y-119805733D01*
X144977256Y-119805739D01*
X144805739Y-119977256D01*
X144805733Y-119977263D01*
X144658067Y-120169706D01*
X144536777Y-120379785D01*
X144536773Y-120379794D01*
X144443947Y-120603895D01*
X144381161Y-120838214D01*
X144349500Y-121078711D01*
X131175756Y-121078711D01*
X131132335Y-121046206D01*
X131132328Y-121046202D01*
X130997482Y-120995908D01*
X130997483Y-120995908D01*
X130937883Y-120989501D01*
X130937881Y-120989500D01*
X130937873Y-120989500D01*
X130937864Y-120989500D01*
X129142129Y-120989500D01*
X129142123Y-120989501D01*
X129082516Y-120995908D01*
X128947671Y-121046202D01*
X128947664Y-121046206D01*
X128832455Y-121132452D01*
X128832452Y-121132455D01*
X128746206Y-121247664D01*
X128746203Y-121247669D01*
X128697189Y-121379083D01*
X128655317Y-121435016D01*
X128589853Y-121459433D01*
X128521580Y-121444581D01*
X128493326Y-121423430D01*
X128371402Y-121301506D01*
X128371395Y-121301501D01*
X128177834Y-121165967D01*
X128177830Y-121165965D01*
X128177828Y-121165964D01*
X127963663Y-121066097D01*
X127963659Y-121066096D01*
X127963655Y-121066094D01*
X127735413Y-121004938D01*
X127735403Y-121004936D01*
X127500001Y-120984341D01*
X127499999Y-120984341D01*
X127264596Y-121004936D01*
X127264586Y-121004938D01*
X127036344Y-121066094D01*
X127036335Y-121066098D01*
X126822171Y-121165964D01*
X126822169Y-121165965D01*
X126628597Y-121301505D01*
X126461505Y-121468597D01*
X126331575Y-121654158D01*
X126276998Y-121697783D01*
X126207500Y-121704977D01*
X126145145Y-121673454D01*
X126128425Y-121654158D01*
X125998494Y-121468597D01*
X125831402Y-121301506D01*
X125831395Y-121301501D01*
X125637834Y-121165967D01*
X125637830Y-121165965D01*
X125637828Y-121165964D01*
X125423663Y-121066097D01*
X125423659Y-121066096D01*
X125423655Y-121066094D01*
X125195413Y-121004938D01*
X125195403Y-121004936D01*
X124960001Y-120984341D01*
X124959999Y-120984341D01*
X124724596Y-121004936D01*
X124724586Y-121004938D01*
X124496344Y-121066094D01*
X124496335Y-121066098D01*
X124282171Y-121165964D01*
X124282169Y-121165965D01*
X124088597Y-121301505D01*
X123921508Y-121468594D01*
X123791269Y-121654595D01*
X123736692Y-121698219D01*
X123667193Y-121705412D01*
X123604839Y-121673890D01*
X123588119Y-121654594D01*
X123458113Y-121468926D01*
X123458108Y-121468920D01*
X123291082Y-121301894D01*
X123097578Y-121166399D01*
X122883492Y-121066570D01*
X122883486Y-121066567D01*
X122670000Y-121009364D01*
X122670000Y-121906988D01*
X122612993Y-121874075D01*
X122485826Y-121840000D01*
X122354174Y-121840000D01*
X122227007Y-121874075D01*
X122170000Y-121906988D01*
X122170000Y-121092018D01*
X122189685Y-121024979D01*
X122206319Y-121004337D01*
X122606757Y-120603900D01*
X123753838Y-119456819D01*
X123815161Y-119423334D01*
X123841519Y-119420500D01*
X132578996Y-119420500D01*
X132670040Y-119402389D01*
X132714328Y-119393580D01*
X132820747Y-119349500D01*
X132841807Y-119340777D01*
X132841808Y-119340776D01*
X132841811Y-119340775D01*
X132956543Y-119264114D01*
X134904114Y-117316543D01*
X134980775Y-117201811D01*
X135033580Y-117074328D01*
X135054869Y-116967302D01*
X135060500Y-116938996D01*
X135060500Y-110747000D01*
X135080185Y-110679961D01*
X135132989Y-110634206D01*
X135184500Y-110623000D01*
X141410848Y-110623000D01*
X141477887Y-110642685D01*
X141523642Y-110695489D01*
X141533586Y-110764647D01*
X141509802Y-110821727D01*
X141507574Y-110824676D01*
X141507573Y-110824678D01*
X141484176Y-110855661D01*
X141376288Y-110998527D01*
X141279184Y-111193537D01*
X141279183Y-111193541D01*
X141224083Y-111387200D01*
X141219564Y-111403081D01*
X141199464Y-111619999D01*
X141199464Y-111620000D01*
X141219564Y-111836918D01*
X141219564Y-111836920D01*
X141219565Y-111836923D01*
X141270614Y-112016341D01*
X141279184Y-112046462D01*
X141376288Y-112241472D01*
X141507574Y-112415324D01*
X141631572Y-112528363D01*
X141667854Y-112588074D01*
X141666093Y-112657922D01*
X141631572Y-112711637D01*
X141507574Y-112824675D01*
X141376288Y-112998527D01*
X141279184Y-113193537D01*
X141219564Y-113403081D01*
X141199464Y-113619999D01*
X141199464Y-113620000D01*
X141219564Y-113836918D01*
X141219564Y-113836920D01*
X141219565Y-113836923D01*
X141270614Y-114016341D01*
X141279184Y-114046462D01*
X141376288Y-114241472D01*
X141458049Y-114349741D01*
X141482741Y-114415102D01*
X141468176Y-114483437D01*
X141433406Y-114523735D01*
X141347809Y-114587813D01*
X141261649Y-114702906D01*
X141261645Y-114702913D01*
X141211403Y-114837620D01*
X141211401Y-114837627D01*
X141205000Y-114897155D01*
X141205000Y-115370000D01*
X142064314Y-115370000D01*
X142059920Y-115374394D01*
X142007259Y-115465606D01*
X141980000Y-115567339D01*
X141980000Y-115672661D01*
X142007259Y-115774394D01*
X142059920Y-115865606D01*
X142064314Y-115870000D01*
X141205000Y-115870000D01*
X141205000Y-116342844D01*
X141211401Y-116402372D01*
X141211403Y-116402379D01*
X141261645Y-116537086D01*
X141261649Y-116537093D01*
X141347809Y-116652187D01*
X141347812Y-116652190D01*
X141462906Y-116738350D01*
X141462913Y-116738354D01*
X141597620Y-116788596D01*
X141597627Y-116788598D01*
X141657155Y-116794999D01*
X141657172Y-116795000D01*
X142130000Y-116795000D01*
X142130000Y-115935686D01*
X142134394Y-115940080D01*
X142225606Y-115992741D01*
X142327339Y-116020000D01*
X142432661Y-116020000D01*
X142534394Y-115992741D01*
X142625606Y-115940080D01*
X142630000Y-115935686D01*
X142630000Y-116795000D01*
X143102828Y-116795000D01*
X143102844Y-116794999D01*
X143162372Y-116788598D01*
X143162379Y-116788596D01*
X143297086Y-116738354D01*
X143297093Y-116738350D01*
X143412186Y-116652191D01*
X143474413Y-116569067D01*
X143530347Y-116527196D01*
X143600038Y-116522212D01*
X143657216Y-116551739D01*
X143668568Y-116562088D01*
X143668575Y-116562092D01*
X143668576Y-116562093D01*
X143853786Y-116676770D01*
X143853792Y-116676773D01*
X143876664Y-116685633D01*
X144056931Y-116755470D01*
X144271074Y-116795500D01*
X144271076Y-116795500D01*
X144488924Y-116795500D01*
X144488926Y-116795500D01*
X144703069Y-116755470D01*
X144906210Y-116676772D01*
X145091432Y-116562088D01*
X145252427Y-116415322D01*
X145383712Y-116241472D01*
X145480817Y-116046459D01*
X145540435Y-115836923D01*
X145560536Y-115620000D01*
X145540435Y-115403077D01*
X145480817Y-115193541D01*
X145383712Y-114998528D01*
X145252427Y-114824678D01*
X145128423Y-114711634D01*
X145092145Y-114651927D01*
X145093905Y-114582079D01*
X145128423Y-114528365D01*
X145252427Y-114415322D01*
X145383712Y-114241472D01*
X145480817Y-114046459D01*
X145540435Y-113836923D01*
X145560536Y-113620000D01*
X145540435Y-113403077D01*
X145480817Y-113193541D01*
X145383712Y-112998528D01*
X145252427Y-112824678D01*
X145128423Y-112711634D01*
X145092145Y-112651927D01*
X145093905Y-112582079D01*
X145128423Y-112528365D01*
X145252427Y-112415322D01*
X145383712Y-112241472D01*
X145480817Y-112046459D01*
X145540435Y-111836923D01*
X145560536Y-111620000D01*
X145540435Y-111403077D01*
X145480817Y-111193541D01*
X145383712Y-110998528D01*
X145252427Y-110824678D01*
X145128423Y-110711634D01*
X145092145Y-110651927D01*
X145093905Y-110582079D01*
X145128423Y-110528365D01*
X145252427Y-110415322D01*
X145383712Y-110241472D01*
X145480817Y-110046459D01*
X145540435Y-109836923D01*
X145560536Y-109620000D01*
X145540435Y-109403077D01*
X145480817Y-109193541D01*
X145383712Y-108998528D01*
X145252427Y-108824678D01*
X145225356Y-108800000D01*
X145091433Y-108677913D01*
X145091423Y-108677906D01*
X144906213Y-108563229D01*
X144906207Y-108563226D01*
X144821113Y-108530260D01*
X144703069Y-108484530D01*
X144488926Y-108444500D01*
X144271074Y-108444500D01*
X144056931Y-108484530D01*
X144008130Y-108503435D01*
X143853792Y-108563226D01*
X143853786Y-108563229D01*
X143668576Y-108677906D01*
X143668566Y-108677913D01*
X143507573Y-108824676D01*
X143478953Y-108862576D01*
X143422844Y-108904211D01*
X143353132Y-108908902D01*
X143291950Y-108875159D01*
X143281047Y-108862576D01*
X143252426Y-108824676D01*
X143091433Y-108677913D01*
X143091423Y-108677906D01*
X142906213Y-108563229D01*
X142906207Y-108563226D01*
X142821113Y-108530260D01*
X142703069Y-108484530D01*
X142488926Y-108444500D01*
X142271074Y-108444500D01*
X142056931Y-108484530D01*
X142008130Y-108503435D01*
X141853792Y-108563226D01*
X141853786Y-108563229D01*
X141668576Y-108677906D01*
X141668566Y-108677913D01*
X141507574Y-108824676D01*
X141376287Y-108998529D01*
X141299235Y-109153271D01*
X141251732Y-109204509D01*
X141188235Y-109222000D01*
X133567747Y-109222000D01*
X133500708Y-109202315D01*
X133454953Y-109149511D01*
X133445009Y-109080353D01*
X133446130Y-109073809D01*
X133461103Y-108998528D01*
X133463000Y-108988993D01*
X133463000Y-106539499D01*
X133482685Y-106472460D01*
X133535489Y-106426705D01*
X133587000Y-106415499D01*
X133620002Y-106415499D01*
X133620008Y-106415499D01*
X133722797Y-106404999D01*
X133889334Y-106349814D01*
X134038656Y-106257712D01*
X134162712Y-106133656D01*
X134254814Y-105984334D01*
X134309999Y-105817797D01*
X134320500Y-105715009D01*
X134320499Y-103678711D01*
X144349500Y-103678711D01*
X144349500Y-103921288D01*
X144381161Y-104161785D01*
X144443947Y-104396104D01*
X144536773Y-104620205D01*
X144536776Y-104620212D01*
X144658064Y-104830289D01*
X144658066Y-104830292D01*
X144658067Y-104830293D01*
X144805733Y-105022736D01*
X144805739Y-105022743D01*
X144977256Y-105194260D01*
X144977262Y-105194265D01*
X145169711Y-105341936D01*
X145379788Y-105463224D01*
X145603900Y-105556054D01*
X145838211Y-105618838D01*
X146018586Y-105642584D01*
X146078711Y-105650500D01*
X146078712Y-105650500D01*
X146321289Y-105650500D01*
X146369388Y-105644167D01*
X146561789Y-105618838D01*
X146796100Y-105556054D01*
X147020212Y-105463224D01*
X147230289Y-105341936D01*
X147422738Y-105194265D01*
X147594265Y-105022738D01*
X147741936Y-104830289D01*
X147863224Y-104620212D01*
X147956054Y-104396100D01*
X148018838Y-104161789D01*
X148050500Y-103921288D01*
X148050500Y-103678712D01*
X148018838Y-103438211D01*
X147956054Y-103203900D01*
X147863224Y-102979788D01*
X147741936Y-102769711D01*
X147594265Y-102577262D01*
X147594260Y-102577256D01*
X147422743Y-102405739D01*
X147422736Y-102405733D01*
X147230293Y-102258067D01*
X147230292Y-102258066D01*
X147230289Y-102258064D01*
X147020212Y-102136776D01*
X147020205Y-102136773D01*
X146796104Y-102043947D01*
X146561785Y-101981161D01*
X146321289Y-101949500D01*
X146321288Y-101949500D01*
X146078712Y-101949500D01*
X146078711Y-101949500D01*
X145838214Y-101981161D01*
X145603895Y-102043947D01*
X145379794Y-102136773D01*
X145379785Y-102136777D01*
X145169706Y-102258067D01*
X144977263Y-102405733D01*
X144977256Y-102405739D01*
X144805739Y-102577256D01*
X144805733Y-102577263D01*
X144658067Y-102769706D01*
X144536777Y-102979785D01*
X144536773Y-102979794D01*
X144443947Y-103203895D01*
X144381161Y-103438214D01*
X144349500Y-103678711D01*
X134320499Y-103678711D01*
X134320499Y-102364992D01*
X134309999Y-102262203D01*
X134254814Y-102095666D01*
X134162712Y-101946344D01*
X134038656Y-101822288D01*
X133889334Y-101730186D01*
X133722797Y-101675001D01*
X133722795Y-101675000D01*
X133620010Y-101664500D01*
X132169998Y-101664500D01*
X132169981Y-101664501D01*
X132067203Y-101675000D01*
X132067200Y-101675001D01*
X131900668Y-101730185D01*
X131900663Y-101730187D01*
X131751342Y-101822289D01*
X131627289Y-101946342D01*
X131535187Y-102095663D01*
X131535186Y-102095666D01*
X131480001Y-102262203D01*
X131480001Y-102262204D01*
X131480000Y-102262204D01*
X131469500Y-102364983D01*
X131469500Y-105715001D01*
X131469501Y-105715018D01*
X131480000Y-105817796D01*
X131480001Y-105817799D01*
X131535185Y-105984331D01*
X131535186Y-105984334D01*
X131627288Y-106133656D01*
X131751344Y-106257712D01*
X131900666Y-106349814D01*
X131977003Y-106375109D01*
X132034448Y-106414881D01*
X132061272Y-106479397D01*
X132062000Y-106492815D01*
X132062000Y-108578481D01*
X132042315Y-108645520D01*
X132025682Y-108666160D01*
X132019607Y-108672236D01*
X132013658Y-108678185D01*
X131952333Y-108711667D01*
X131925980Y-108714500D01*
X131354998Y-108714500D01*
X131354980Y-108714501D01*
X131252203Y-108725000D01*
X131252200Y-108725001D01*
X131085668Y-108780185D01*
X131085663Y-108780187D01*
X130936342Y-108872289D01*
X130812289Y-108996342D01*
X130810941Y-108998528D01*
X130733348Y-109124328D01*
X130729481Y-109130597D01*
X130677533Y-109177321D01*
X130623942Y-109189500D01*
X130154798Y-109189500D01*
X130087759Y-109169815D01*
X130049259Y-109130597D01*
X130012712Y-109071344D01*
X129888656Y-108947288D01*
X129739334Y-108855186D01*
X129572797Y-108800001D01*
X129572795Y-108800000D01*
X129470010Y-108789500D01*
X128469998Y-108789500D01*
X128469980Y-108789501D01*
X128367203Y-108800000D01*
X128367200Y-108800001D01*
X128200668Y-108855185D01*
X128200663Y-108855187D01*
X128051342Y-108947289D01*
X127927289Y-109071342D01*
X127835187Y-109220663D01*
X127835185Y-109220668D01*
X127821422Y-109262203D01*
X127780001Y-109387203D01*
X127780001Y-109387204D01*
X127780000Y-109387204D01*
X127769500Y-109489983D01*
X127769500Y-110290001D01*
X127769501Y-110290019D01*
X127780000Y-110392796D01*
X127780001Y-110392799D01*
X127835185Y-110559331D01*
X127835187Y-110559336D01*
X127839035Y-110565574D01*
X127915249Y-110689138D01*
X127927289Y-110708657D01*
X128020951Y-110802319D01*
X128054436Y-110863642D01*
X128049452Y-110933334D01*
X128020951Y-110977681D01*
X127927289Y-111071342D01*
X127835187Y-111220663D01*
X127835185Y-111220668D01*
X127825977Y-111248456D01*
X127787799Y-111363672D01*
X127780001Y-111387204D01*
X127780000Y-111387205D01*
X127771736Y-111468104D01*
X127745340Y-111532796D01*
X127688159Y-111572948D01*
X127648378Y-111579502D01*
X125029341Y-111579502D01*
X124962302Y-111559817D01*
X124916547Y-111507013D01*
X124913159Y-111498835D01*
X124913040Y-111498517D01*
X124886596Y-111427617D01*
X124881613Y-111357926D01*
X124886598Y-111340950D01*
X124912547Y-111271379D01*
X124912547Y-111271377D01*
X124918949Y-111211844D01*
X124918950Y-111211827D01*
X124918950Y-111160000D01*
X124677741Y-111160000D01*
X124634408Y-111152182D01*
X124526432Y-111111909D01*
X124526433Y-111111909D01*
X124466833Y-111105502D01*
X124466831Y-111105501D01*
X124466823Y-111105501D01*
X124466814Y-111105501D01*
X123418579Y-111105501D01*
X123418573Y-111105502D01*
X123358966Y-111111909D01*
X123250992Y-111152182D01*
X123207659Y-111160000D01*
X122966450Y-111160000D01*
X122966450Y-111211844D01*
X122972851Y-111271372D01*
X122972853Y-111271379D01*
X122998802Y-111340952D01*
X123003786Y-111410644D01*
X122998802Y-111427617D01*
X122972360Y-111498512D01*
X122972360Y-111498514D01*
X122972359Y-111498518D01*
X122965950Y-111558128D01*
X122965950Y-111558135D01*
X122965950Y-111558136D01*
X122965950Y-112161871D01*
X122965951Y-112161877D01*
X122972358Y-112221484D01*
X123022652Y-112356329D01*
X123022656Y-112356336D01*
X123108902Y-112471545D01*
X123108905Y-112471548D01*
X123224114Y-112557794D01*
X123224121Y-112557798D01*
X123242198Y-112564540D01*
X123358967Y-112608092D01*
X123418577Y-112614501D01*
X123655179Y-112614500D01*
X123722219Y-112634184D01*
X123742861Y-112650819D01*
X123916154Y-112824113D01*
X123916155Y-112824114D01*
X123916158Y-112824116D01*
X124025237Y-112897000D01*
X124030888Y-112900776D01*
X124030889Y-112900776D01*
X124030890Y-112900777D01*
X124158373Y-112953582D01*
X124158377Y-112953582D01*
X124158378Y-112953583D01*
X124293705Y-112980502D01*
X124293708Y-112980502D01*
X128135500Y-112980502D01*
X128202539Y-113000187D01*
X128248294Y-113052991D01*
X128259500Y-113104502D01*
X128259500Y-114324091D01*
X128239815Y-114391130D01*
X128195731Y-114429641D01*
X128196813Y-114431395D01*
X128190667Y-114435185D01*
X128190666Y-114435186D01*
X128141790Y-114465333D01*
X128041342Y-114527289D01*
X127917289Y-114651342D01*
X127825187Y-114800663D01*
X127825185Y-114800668D01*
X127812938Y-114837627D01*
X127770001Y-114967203D01*
X127770001Y-114967204D01*
X127770000Y-114967204D01*
X127759500Y-115069983D01*
X127759500Y-115069996D01*
X127759501Y-115870000D01*
X127759501Y-115870019D01*
X127770000Y-115972796D01*
X127770001Y-115972799D01*
X127825185Y-116139331D01*
X127825187Y-116139336D01*
X127917289Y-116288657D01*
X128011304Y-116382672D01*
X128044789Y-116443995D01*
X128039805Y-116513687D01*
X128011305Y-116558034D01*
X127917682Y-116651657D01*
X127825643Y-116800875D01*
X127825641Y-116800880D01*
X127770494Y-116967302D01*
X127770493Y-116967309D01*
X127760000Y-117070013D01*
X127760000Y-117220000D01*
X130159999Y-117220000D01*
X130159999Y-117070028D01*
X130159998Y-117070013D01*
X130149505Y-116967302D01*
X130094358Y-116800880D01*
X130094356Y-116800875D01*
X130002315Y-116651654D01*
X129908695Y-116558034D01*
X129875210Y-116496711D01*
X129880194Y-116427019D01*
X129908691Y-116382676D01*
X130002712Y-116288656D01*
X130094814Y-116139334D01*
X130149999Y-115972797D01*
X130160500Y-115870009D01*
X130160499Y-115069992D01*
X130154876Y-115014950D01*
X130149999Y-114967203D01*
X130149998Y-114967200D01*
X130139491Y-114935493D01*
X130094814Y-114800666D01*
X130002712Y-114651344D01*
X129878656Y-114527288D01*
X129729334Y-114435186D01*
X129729332Y-114435185D01*
X129723187Y-114431395D01*
X129724290Y-114429605D01*
X129679649Y-114390290D01*
X129660500Y-114324091D01*
X129660500Y-113040477D01*
X129680185Y-112973438D01*
X129732989Y-112927683D01*
X129734186Y-112927213D01*
X129739326Y-112924816D01*
X129739334Y-112924814D01*
X129888656Y-112832712D01*
X130012712Y-112708656D01*
X130104814Y-112559334D01*
X130159999Y-112392797D01*
X130170500Y-112290009D01*
X130170500Y-112264986D01*
X130655001Y-112264986D01*
X130665494Y-112367697D01*
X130720641Y-112534119D01*
X130720643Y-112534124D01*
X130812684Y-112683345D01*
X130936654Y-112807315D01*
X131085875Y-112899356D01*
X131085880Y-112899358D01*
X131252302Y-112954505D01*
X131252309Y-112954506D01*
X131355019Y-112964999D01*
X131629999Y-112964999D01*
X132130000Y-112964999D01*
X132404972Y-112964999D01*
X132404986Y-112964998D01*
X132507697Y-112954505D01*
X132674119Y-112899358D01*
X132674124Y-112899356D01*
X132823345Y-112807315D01*
X132947315Y-112683345D01*
X133039356Y-112534124D01*
X133039358Y-112534119D01*
X133094505Y-112367697D01*
X133094506Y-112367690D01*
X133104999Y-112264986D01*
X133105000Y-112264973D01*
X133105000Y-112127500D01*
X132130000Y-112127500D01*
X132130000Y-112964999D01*
X131629999Y-112964999D01*
X131630000Y-112964998D01*
X131630000Y-112127500D01*
X130655001Y-112127500D01*
X130655001Y-112264986D01*
X130170500Y-112264986D01*
X130170499Y-111489992D01*
X130164127Y-111427618D01*
X130159999Y-111387203D01*
X130159998Y-111387200D01*
X130159086Y-111384449D01*
X130104814Y-111220666D01*
X130012712Y-111071344D01*
X129919049Y-110977681D01*
X129885564Y-110916358D01*
X129890548Y-110846666D01*
X129919049Y-110802319D01*
X129960532Y-110760836D01*
X130012712Y-110708656D01*
X130049259Y-110649402D01*
X130101207Y-110602679D01*
X130154798Y-110590500D01*
X130742769Y-110590500D01*
X130809808Y-110610185D01*
X130830450Y-110626818D01*
X130936344Y-110732712D01*
X130936346Y-110732713D01*
X130939653Y-110734753D01*
X130941445Y-110736746D01*
X130942011Y-110737193D01*
X130941934Y-110737289D01*
X130986379Y-110786699D01*
X130997603Y-110855661D01*
X130969761Y-110919744D01*
X130939665Y-110945826D01*
X130936660Y-110947679D01*
X130936655Y-110947683D01*
X130812684Y-111071654D01*
X130720643Y-111220875D01*
X130720641Y-111220880D01*
X130665494Y-111387302D01*
X130665493Y-111387309D01*
X130655000Y-111490013D01*
X130655000Y-111627500D01*
X133104999Y-111627500D01*
X133104999Y-111490028D01*
X133104998Y-111490013D01*
X133094505Y-111387302D01*
X133039358Y-111220880D01*
X133039356Y-111220875D01*
X132947315Y-111071654D01*
X132823344Y-110947683D01*
X132823341Y-110947681D01*
X132820339Y-110945829D01*
X132818713Y-110944021D01*
X132817677Y-110943202D01*
X132817817Y-110943024D01*
X132773617Y-110893880D01*
X132762397Y-110824917D01*
X132790243Y-110760836D01*
X132820344Y-110734754D01*
X132823656Y-110732712D01*
X132897049Y-110659319D01*
X132958372Y-110625834D01*
X132984730Y-110623000D01*
X133535500Y-110623000D01*
X133602539Y-110642685D01*
X133648294Y-110695489D01*
X133659500Y-110747000D01*
X133659500Y-116528481D01*
X133639815Y-116595520D01*
X133623181Y-116616162D01*
X132256162Y-117983181D01*
X132194839Y-118016666D01*
X132168481Y-118019500D01*
X130282038Y-118019500D01*
X130214999Y-117999815D01*
X130169244Y-117947011D01*
X130158680Y-117882895D01*
X130159999Y-117869980D01*
X130160000Y-117869973D01*
X130160000Y-117720000D01*
X127760001Y-117720000D01*
X127760001Y-117869981D01*
X127761321Y-117882896D01*
X127748552Y-117951589D01*
X127700673Y-118002474D01*
X127637963Y-118019500D01*
X123431004Y-118019500D01*
X123295677Y-118046418D01*
X123295667Y-118046421D01*
X123168192Y-118099222D01*
X123053454Y-118175887D01*
X120251994Y-120977347D01*
X120190671Y-121010832D01*
X120132225Y-121009442D01*
X120115410Y-121004937D01*
X119880001Y-120984341D01*
X119879999Y-120984341D01*
X119644596Y-121004936D01*
X119644586Y-121004938D01*
X119416344Y-121066094D01*
X119416335Y-121066098D01*
X119202171Y-121165964D01*
X119202169Y-121165965D01*
X119008597Y-121301505D01*
X118841505Y-121468597D01*
X118705965Y-121662169D01*
X118705964Y-121662171D01*
X118606098Y-121876335D01*
X118606094Y-121876344D01*
X118544938Y-122104586D01*
X118544936Y-122104596D01*
X118524341Y-122339999D01*
X105257753Y-122339999D01*
X105341936Y-122230289D01*
X105463224Y-122020212D01*
X105556054Y-121796100D01*
X105618838Y-121561789D01*
X105650500Y-121321288D01*
X105650500Y-121078712D01*
X105618838Y-120838211D01*
X105556054Y-120603900D01*
X105463224Y-120379788D01*
X105341936Y-120169711D01*
X105194265Y-119977262D01*
X105194260Y-119977256D01*
X105022743Y-119805739D01*
X105022736Y-119805733D01*
X104830293Y-119658067D01*
X104830292Y-119658066D01*
X104830289Y-119658064D01*
X104620212Y-119536776D01*
X104620205Y-119536773D01*
X104396104Y-119443947D01*
X104161785Y-119381161D01*
X103921289Y-119349500D01*
X103921288Y-119349500D01*
X103678712Y-119349500D01*
X103678711Y-119349500D01*
X103438214Y-119381161D01*
X103203895Y-119443947D01*
X102979794Y-119536773D01*
X102979785Y-119536777D01*
X102769706Y-119658067D01*
X102577263Y-119805733D01*
X102577256Y-119805739D01*
X102405739Y-119977256D01*
X102405733Y-119977263D01*
X102258067Y-120169706D01*
X102136777Y-120379785D01*
X102136773Y-120379794D01*
X102043947Y-120603895D01*
X101981161Y-120838214D01*
X101949500Y-121078711D01*
X100500500Y-121078711D01*
X100500500Y-109597499D01*
X105530554Y-109597499D01*
X105530554Y-109597500D01*
X105550295Y-109810547D01*
X105550296Y-109810550D01*
X105608846Y-110016335D01*
X105608849Y-110016341D01*
X105704219Y-110207870D01*
X105833160Y-110378616D01*
X105972744Y-110505863D01*
X106009026Y-110565574D01*
X106007265Y-110635422D01*
X105972744Y-110689137D01*
X105833160Y-110816383D01*
X105704219Y-110987129D01*
X105608849Y-111178658D01*
X105608846Y-111178664D01*
X105550296Y-111384449D01*
X105550295Y-111384452D01*
X105530554Y-111597499D01*
X105530554Y-111597500D01*
X105550295Y-111810547D01*
X105550296Y-111810550D01*
X105608846Y-112016335D01*
X105608849Y-112016341D01*
X105704219Y-112207870D01*
X105833160Y-112378616D01*
X105972744Y-112505863D01*
X106009026Y-112565574D01*
X106007265Y-112635422D01*
X105972744Y-112689137D01*
X105833160Y-112816383D01*
X105704219Y-112987129D01*
X105608849Y-113178658D01*
X105608846Y-113178664D01*
X105550296Y-113384449D01*
X105550295Y-113384452D01*
X105530554Y-113597499D01*
X105530554Y-113597500D01*
X105550295Y-113810547D01*
X105550296Y-113810550D01*
X105608846Y-114016335D01*
X105608849Y-114016341D01*
X105704219Y-114207870D01*
X105802575Y-114338115D01*
X105827267Y-114403477D01*
X105812702Y-114471811D01*
X105777932Y-114512108D01*
X105678812Y-114586309D01*
X105678809Y-114586312D01*
X105592649Y-114701406D01*
X105592645Y-114701413D01*
X105542403Y-114836120D01*
X105542401Y-114836127D01*
X105536000Y-114895655D01*
X105536000Y-115347500D01*
X106374314Y-115347500D01*
X106369920Y-115351894D01*
X106317259Y-115443106D01*
X106290000Y-115544839D01*
X106290000Y-115650161D01*
X106317259Y-115751894D01*
X106369920Y-115843106D01*
X106374314Y-115847500D01*
X105536000Y-115847500D01*
X105536000Y-116299344D01*
X105542401Y-116358872D01*
X105542403Y-116358879D01*
X105592645Y-116493586D01*
X105592649Y-116493593D01*
X105678809Y-116608687D01*
X105678812Y-116608690D01*
X105793906Y-116694850D01*
X105793913Y-116694854D01*
X105928620Y-116745096D01*
X105928627Y-116745098D01*
X105988155Y-116751499D01*
X105988172Y-116751500D01*
X106440000Y-116751500D01*
X106440000Y-115913186D01*
X106444394Y-115917580D01*
X106535606Y-115970241D01*
X106637339Y-115997500D01*
X106742661Y-115997500D01*
X106844394Y-115970241D01*
X106935606Y-115917580D01*
X106940000Y-115913186D01*
X106940000Y-116751500D01*
X107391828Y-116751500D01*
X107391844Y-116751499D01*
X107451372Y-116745098D01*
X107451379Y-116745096D01*
X107586086Y-116694854D01*
X107586093Y-116694850D01*
X107701187Y-116608690D01*
X107701190Y-116608687D01*
X107787350Y-116493593D01*
X107787354Y-116493586D01*
X107837596Y-116358879D01*
X107837598Y-116358872D01*
X107843999Y-116299344D01*
X107844000Y-116299327D01*
X107844000Y-115847500D01*
X107005686Y-115847500D01*
X107010080Y-115843106D01*
X107062741Y-115751894D01*
X107090000Y-115650161D01*
X107090000Y-115544839D01*
X107062741Y-115443106D01*
X107010080Y-115351894D01*
X107005686Y-115347500D01*
X107844000Y-115347500D01*
X107844000Y-114895672D01*
X107843999Y-114895655D01*
X107837598Y-114836127D01*
X107837596Y-114836120D01*
X107787354Y-114701413D01*
X107787350Y-114701406D01*
X107701190Y-114586312D01*
X107701187Y-114586309D01*
X107614301Y-114521266D01*
X107572430Y-114465333D01*
X107567446Y-114395641D01*
X107600931Y-114334318D01*
X107662255Y-114300834D01*
X107688612Y-114298000D01*
X120878000Y-114298000D01*
X120945039Y-114317685D01*
X120990794Y-114370489D01*
X121002000Y-114422000D01*
X121002000Y-114947911D01*
X120982315Y-115014950D01*
X120943098Y-115053449D01*
X120896344Y-115082287D01*
X120772289Y-115206342D01*
X120680187Y-115355663D01*
X120680185Y-115355668D01*
X120664474Y-115403081D01*
X120625001Y-115522203D01*
X120625001Y-115522204D01*
X120625000Y-115522204D01*
X120614500Y-115624983D01*
X120614500Y-116675001D01*
X120614501Y-116675019D01*
X120625000Y-116777796D01*
X120625001Y-116777799D01*
X120678416Y-116938994D01*
X120680186Y-116944334D01*
X120772288Y-117093656D01*
X120896344Y-117217712D01*
X121045666Y-117309814D01*
X121212203Y-117364999D01*
X121314991Y-117375500D01*
X122090008Y-117375499D01*
X122090016Y-117375498D01*
X122090019Y-117375498D01*
X122146302Y-117369748D01*
X122192797Y-117364999D01*
X122359334Y-117309814D01*
X122508656Y-117217712D01*
X122632712Y-117093656D01*
X122634752Y-117090347D01*
X122636745Y-117088555D01*
X122637193Y-117087989D01*
X122637289Y-117088065D01*
X122686694Y-117043623D01*
X122755656Y-117032395D01*
X122819740Y-117060234D01*
X122845829Y-117090339D01*
X122847681Y-117093341D01*
X122847683Y-117093344D01*
X122971654Y-117217315D01*
X123120875Y-117309356D01*
X123120880Y-117309358D01*
X123287302Y-117364505D01*
X123287309Y-117364506D01*
X123390019Y-117374999D01*
X123527499Y-117374999D01*
X124027500Y-117374999D01*
X124164972Y-117374999D01*
X124164986Y-117374998D01*
X124267697Y-117364505D01*
X124434119Y-117309358D01*
X124434124Y-117309356D01*
X124583345Y-117217315D01*
X124707315Y-117093345D01*
X124799356Y-116944124D01*
X124799358Y-116944119D01*
X124854505Y-116777697D01*
X124854506Y-116777690D01*
X124864999Y-116674986D01*
X124865000Y-116674973D01*
X124865000Y-116400000D01*
X124027500Y-116400000D01*
X124027500Y-117374999D01*
X123527499Y-117374999D01*
X123527500Y-117374998D01*
X123527500Y-115900000D01*
X124027500Y-115900000D01*
X124864999Y-115900000D01*
X124864999Y-115625028D01*
X124864998Y-115625013D01*
X124854505Y-115522302D01*
X124799358Y-115355880D01*
X124799356Y-115355875D01*
X124707315Y-115206654D01*
X124583345Y-115082684D01*
X124434124Y-114990643D01*
X124434119Y-114990641D01*
X124267697Y-114935494D01*
X124267690Y-114935493D01*
X124164986Y-114925000D01*
X124027500Y-114925000D01*
X124027500Y-115900000D01*
X123527500Y-115900000D01*
X123527500Y-114925000D01*
X123390027Y-114925000D01*
X123390012Y-114925001D01*
X123287302Y-114935494D01*
X123120880Y-114990641D01*
X123120875Y-114990643D01*
X122971654Y-115082684D01*
X122847683Y-115206655D01*
X122847679Y-115206660D01*
X122845826Y-115209665D01*
X122844018Y-115211290D01*
X122843202Y-115212323D01*
X122843025Y-115212183D01*
X122793874Y-115256385D01*
X122724911Y-115267601D01*
X122660831Y-115239752D01*
X122634753Y-115209653D01*
X122634737Y-115209628D01*
X122632712Y-115206344D01*
X122508656Y-115082288D01*
X122508655Y-115082287D01*
X122461902Y-115053449D01*
X122415178Y-115001500D01*
X122403000Y-114947911D01*
X122403000Y-113693505D01*
X122388378Y-113620002D01*
X122388378Y-113619997D01*
X122376081Y-113558178D01*
X122376080Y-113558172D01*
X122323275Y-113430689D01*
X122246614Y-113315957D01*
X122246612Y-113315954D01*
X122126819Y-113196161D01*
X122093334Y-113134838D01*
X122090500Y-113108480D01*
X122090500Y-112633401D01*
X122110185Y-112566362D01*
X122140185Y-112534138D01*
X122223796Y-112471547D01*
X122310046Y-112356332D01*
X122360341Y-112221484D01*
X122366750Y-112161874D01*
X122366749Y-111558129D01*
X122360341Y-111498518D01*
X122357174Y-111490028D01*
X122310047Y-111363672D01*
X122310043Y-111363665D01*
X122223797Y-111248456D01*
X122223794Y-111248453D01*
X122140189Y-111185866D01*
X122098318Y-111129932D01*
X122090500Y-111086600D01*
X122090500Y-110733399D01*
X122110185Y-110666360D01*
X122140185Y-110634136D01*
X122223796Y-110571545D01*
X122310046Y-110456330D01*
X122360341Y-110321482D01*
X122366750Y-110261872D01*
X122366749Y-109658127D01*
X122366749Y-109658126D01*
X122965950Y-109658126D01*
X122965950Y-109658133D01*
X122965950Y-109658134D01*
X122965950Y-110261869D01*
X122965951Y-110261875D01*
X122972358Y-110321481D01*
X122998802Y-110392380D01*
X123003786Y-110462072D01*
X122998802Y-110479045D01*
X122972853Y-110548616D01*
X122972851Y-110548627D01*
X122966450Y-110608155D01*
X122966450Y-110660000D01*
X123207659Y-110660000D01*
X123250992Y-110667818D01*
X123358967Y-110708090D01*
X123358966Y-110708090D01*
X123365894Y-110708834D01*
X123418577Y-110714499D01*
X124466822Y-110714498D01*
X124526433Y-110708090D01*
X124601851Y-110679961D01*
X124634408Y-110667818D01*
X124677741Y-110660000D01*
X124918950Y-110660000D01*
X124918950Y-110608172D01*
X124918949Y-110608155D01*
X124912548Y-110548627D01*
X124912547Y-110548623D01*
X124886597Y-110479048D01*
X124881613Y-110409356D01*
X124886598Y-110392380D01*
X124913038Y-110321490D01*
X124913039Y-110321487D01*
X124913038Y-110321487D01*
X124913041Y-110321482D01*
X124919450Y-110261872D01*
X124919449Y-110025267D01*
X124939133Y-109958228D01*
X124955763Y-109937591D01*
X125534114Y-109359242D01*
X125610775Y-109244510D01*
X125620652Y-109220666D01*
X125663578Y-109117031D01*
X125663580Y-109117027D01*
X125687151Y-108998529D01*
X125690500Y-108981695D01*
X125690500Y-105587658D01*
X125710185Y-105520619D01*
X125759402Y-105476571D01*
X125859296Y-105427030D01*
X126007722Y-105307722D01*
X126127030Y-105159296D01*
X126211641Y-104988693D01*
X126249969Y-104834572D01*
X126285252Y-104774266D01*
X126347537Y-104742608D01*
X126370304Y-104740500D01*
X126795501Y-104740500D01*
X126862540Y-104760185D01*
X126908295Y-104812989D01*
X126919501Y-104864500D01*
X126919501Y-105715018D01*
X126930000Y-105817796D01*
X126930001Y-105817799D01*
X126985185Y-105984331D01*
X126985186Y-105984334D01*
X127077288Y-106133656D01*
X127201344Y-106257712D01*
X127350666Y-106349814D01*
X127517203Y-106404999D01*
X127619991Y-106415500D01*
X129070008Y-106415499D01*
X129172797Y-106404999D01*
X129339334Y-106349814D01*
X129488656Y-106257712D01*
X129612712Y-106133656D01*
X129704814Y-105984334D01*
X129759999Y-105817797D01*
X129770500Y-105715009D01*
X129770499Y-102364992D01*
X129759999Y-102262203D01*
X129704814Y-102095666D01*
X129612712Y-101946344D01*
X129488656Y-101822288D01*
X129339334Y-101730186D01*
X129172797Y-101675001D01*
X129172795Y-101675000D01*
X129070010Y-101664500D01*
X127619998Y-101664500D01*
X127619981Y-101664501D01*
X127517203Y-101675000D01*
X127517200Y-101675001D01*
X127350668Y-101730185D01*
X127350663Y-101730187D01*
X127201342Y-101822289D01*
X127077289Y-101946342D01*
X126985187Y-102095663D01*
X126985186Y-102095666D01*
X126930001Y-102262203D01*
X126930001Y-102262204D01*
X126930000Y-102262204D01*
X126919500Y-102364983D01*
X126919500Y-103215500D01*
X126899815Y-103282539D01*
X126847011Y-103328294D01*
X126795500Y-103339500D01*
X126384499Y-103339500D01*
X126317460Y-103319815D01*
X126271705Y-103267011D01*
X126260499Y-103215500D01*
X126260499Y-103158877D01*
X126260498Y-103158876D01*
X126257600Y-103116111D01*
X126211641Y-102931307D01*
X126209046Y-102926075D01*
X126127032Y-102760707D01*
X126127030Y-102760704D01*
X126007722Y-102612278D01*
X126007721Y-102612277D01*
X125859295Y-102492969D01*
X125859292Y-102492967D01*
X125688697Y-102408360D01*
X125503892Y-102362400D01*
X125482506Y-102360950D01*
X125461123Y-102359500D01*
X125461120Y-102359500D01*
X124558877Y-102359500D01*
X124558874Y-102359501D01*
X124516113Y-102362399D01*
X124516112Y-102362399D01*
X124331303Y-102408360D01*
X124160707Y-102492967D01*
X124160704Y-102492969D01*
X124012278Y-102612277D01*
X124012277Y-102612278D01*
X123892969Y-102760704D01*
X123892967Y-102760707D01*
X123808360Y-102931302D01*
X123762400Y-103116107D01*
X123759500Y-103158879D01*
X123759500Y-104761122D01*
X123759501Y-104761125D01*
X123762399Y-104803886D01*
X123762399Y-104803887D01*
X123808360Y-104988696D01*
X123892967Y-105159292D01*
X123892969Y-105159295D01*
X123921080Y-105194266D01*
X124012278Y-105307722D01*
X124160704Y-105427030D01*
X124220596Y-105456733D01*
X124271907Y-105504152D01*
X124289500Y-105567820D01*
X124289500Y-108571179D01*
X124269815Y-108638218D01*
X124253181Y-108658860D01*
X123742860Y-109169180D01*
X123681537Y-109202665D01*
X123655180Y-109205499D01*
X123418580Y-109205499D01*
X123418573Y-109205500D01*
X123358966Y-109211907D01*
X123224121Y-109262201D01*
X123224114Y-109262205D01*
X123108905Y-109348451D01*
X123108902Y-109348454D01*
X123022656Y-109463663D01*
X123022652Y-109463670D01*
X122972360Y-109598512D01*
X122972359Y-109598516D01*
X122965950Y-109658126D01*
X122366749Y-109658126D01*
X122360341Y-109598516D01*
X122310046Y-109463668D01*
X122310045Y-109463667D01*
X122310043Y-109463663D01*
X122223797Y-109348454D01*
X122223794Y-109348451D01*
X122108585Y-109262205D01*
X122108578Y-109262201D01*
X121973732Y-109211907D01*
X121973733Y-109211907D01*
X121914133Y-109205500D01*
X121914131Y-109205499D01*
X121914123Y-109205499D01*
X121914115Y-109205499D01*
X121677519Y-109205499D01*
X121610480Y-109185814D01*
X121589838Y-109169180D01*
X120226819Y-107806161D01*
X120193334Y-107744838D01*
X120190500Y-107718480D01*
X120190500Y-105587658D01*
X120210185Y-105520619D01*
X120259402Y-105476571D01*
X120359296Y-105427030D01*
X120507722Y-105307722D01*
X120627030Y-105159296D01*
X120711641Y-104988693D01*
X120757600Y-104803889D01*
X120760500Y-104761123D01*
X120760499Y-103158878D01*
X120757600Y-103116111D01*
X120711641Y-102931307D01*
X120709046Y-102926075D01*
X120627032Y-102760707D01*
X120627030Y-102760704D01*
X120507722Y-102612278D01*
X120507721Y-102612277D01*
X120359295Y-102492969D01*
X120359292Y-102492967D01*
X120188697Y-102408360D01*
X120003892Y-102362400D01*
X119982506Y-102360950D01*
X119961123Y-102359500D01*
X119961120Y-102359500D01*
X119058877Y-102359500D01*
X119058874Y-102359501D01*
X119016113Y-102362399D01*
X119016112Y-102362399D01*
X118831303Y-102408360D01*
X118660707Y-102492967D01*
X118660704Y-102492969D01*
X118512278Y-102612277D01*
X118512277Y-102612278D01*
X118392969Y-102760704D01*
X118392967Y-102760707D01*
X118308360Y-102931302D01*
X118262400Y-103116107D01*
X118259500Y-103158879D01*
X118259500Y-104761122D01*
X118259501Y-104761125D01*
X118262399Y-104803886D01*
X118262399Y-104803887D01*
X118308360Y-104988696D01*
X118392967Y-105159292D01*
X118392969Y-105159295D01*
X118421080Y-105194266D01*
X118512278Y-105307722D01*
X118660704Y-105427030D01*
X118720596Y-105456733D01*
X118771907Y-105504152D01*
X118789500Y-105567820D01*
X118789500Y-107991005D01*
X118789500Y-108128993D01*
X118789500Y-108128995D01*
X118789499Y-108128995D01*
X118816418Y-108264321D01*
X118816421Y-108264331D01*
X118869222Y-108391806D01*
X118945887Y-108506544D01*
X118945888Y-108506545D01*
X120376931Y-109937587D01*
X120410416Y-109998910D01*
X120413250Y-110025267D01*
X120413250Y-110261868D01*
X120413251Y-110261875D01*
X120419658Y-110321482D01*
X120469952Y-110456327D01*
X120469956Y-110456334D01*
X120556201Y-110571542D01*
X120556202Y-110571543D01*
X120556204Y-110571545D01*
X120639813Y-110634134D01*
X120681682Y-110690066D01*
X120689500Y-110733399D01*
X120689500Y-111086600D01*
X120669815Y-111153639D01*
X120639811Y-111185866D01*
X120556205Y-111248453D01*
X120556202Y-111248456D01*
X120469956Y-111363665D01*
X120469952Y-111363672D01*
X120419661Y-111498512D01*
X120419659Y-111498518D01*
X120413250Y-111558128D01*
X120413250Y-111558135D01*
X120413250Y-111558136D01*
X120413250Y-112161871D01*
X120413251Y-112161877D01*
X120419658Y-112221484D01*
X120469952Y-112356329D01*
X120469956Y-112356336D01*
X120556201Y-112471544D01*
X120556202Y-112471545D01*
X120556204Y-112471547D01*
X120639813Y-112534136D01*
X120681682Y-112590068D01*
X120689500Y-112633401D01*
X120689500Y-112773000D01*
X120669815Y-112840039D01*
X120617011Y-112885794D01*
X120565500Y-112897000D01*
X107669463Y-112897000D01*
X107602424Y-112877315D01*
X107570510Y-112847728D01*
X107553104Y-112824680D01*
X107546841Y-112816386D01*
X107407251Y-112689133D01*
X107370973Y-112629427D01*
X107372733Y-112559579D01*
X107407251Y-112505866D01*
X107546841Y-112378614D01*
X107675781Y-112207870D01*
X107771151Y-112016340D01*
X107771151Y-112016337D01*
X107771153Y-112016335D01*
X107804679Y-111898500D01*
X107829704Y-111810548D01*
X107849446Y-111597500D01*
X107829704Y-111384452D01*
X107797532Y-111271379D01*
X107771153Y-111178664D01*
X107771150Y-111178658D01*
X107746887Y-111129932D01*
X107675781Y-110987130D01*
X107546841Y-110816386D01*
X107407251Y-110689133D01*
X107370973Y-110629427D01*
X107372733Y-110559579D01*
X107407251Y-110505866D01*
X107546841Y-110378614D01*
X107675781Y-110207870D01*
X107771151Y-110016340D01*
X107771151Y-110016337D01*
X107771153Y-110016335D01*
X107804679Y-109898500D01*
X107829704Y-109810548D01*
X107849446Y-109597500D01*
X107829704Y-109384452D01*
X107794922Y-109262205D01*
X107771153Y-109178664D01*
X107771150Y-109178658D01*
X107754722Y-109145666D01*
X107675781Y-108987130D01*
X107546841Y-108816386D01*
X107388722Y-108672242D01*
X107388716Y-108672238D01*
X107388713Y-108672236D01*
X107206813Y-108559608D01*
X107206807Y-108559606D01*
X107007297Y-108482315D01*
X106796980Y-108443000D01*
X106583020Y-108443000D01*
X106372703Y-108482315D01*
X106246533Y-108531193D01*
X106173192Y-108559606D01*
X106173186Y-108559608D01*
X105991286Y-108672236D01*
X105991283Y-108672238D01*
X105991279Y-108672240D01*
X105991278Y-108672242D01*
X105984759Y-108678185D01*
X105833158Y-108816387D01*
X105704219Y-108987129D01*
X105608849Y-109178658D01*
X105608846Y-109178664D01*
X105550296Y-109384449D01*
X105550295Y-109384452D01*
X105530554Y-109597499D01*
X100500500Y-109597499D01*
X100500500Y-103678711D01*
X101949500Y-103678711D01*
X101949500Y-103921288D01*
X101981161Y-104161785D01*
X102043947Y-104396104D01*
X102136773Y-104620205D01*
X102136776Y-104620212D01*
X102258064Y-104830289D01*
X102258066Y-104830292D01*
X102258067Y-104830293D01*
X102405733Y-105022736D01*
X102405739Y-105022743D01*
X102577256Y-105194260D01*
X102577262Y-105194265D01*
X102769711Y-105341936D01*
X102979788Y-105463224D01*
X103203900Y-105556054D01*
X103438211Y-105618838D01*
X103618586Y-105642584D01*
X103678711Y-105650500D01*
X103678712Y-105650500D01*
X103921289Y-105650500D01*
X103969388Y-105644167D01*
X104161789Y-105618838D01*
X104396100Y-105556054D01*
X104620212Y-105463224D01*
X104830289Y-105341936D01*
X105022738Y-105194265D01*
X105194265Y-105022738D01*
X105341936Y-104830289D01*
X105463224Y-104620212D01*
X105556054Y-104396100D01*
X105618838Y-104161789D01*
X105650500Y-103921288D01*
X105650500Y-103678712D01*
X105618838Y-103438211D01*
X105556054Y-103203900D01*
X105463224Y-102979788D01*
X105341936Y-102769711D01*
X105194265Y-102577262D01*
X105194260Y-102577256D01*
X105022743Y-102405739D01*
X105022736Y-102405733D01*
X104830293Y-102258067D01*
X104830292Y-102258066D01*
X104830289Y-102258064D01*
X104620212Y-102136776D01*
X104620205Y-102136773D01*
X104396104Y-102043947D01*
X104161785Y-101981161D01*
X103921289Y-101949500D01*
X103921288Y-101949500D01*
X103678712Y-101949500D01*
X103678711Y-101949500D01*
X103438214Y-101981161D01*
X103203895Y-102043947D01*
X102979794Y-102136773D01*
X102979785Y-102136777D01*
X102769706Y-102258067D01*
X102577263Y-102405733D01*
X102577256Y-102405739D01*
X102405739Y-102577256D01*
X102405733Y-102577263D01*
X102258067Y-102769706D01*
X102136777Y-102979785D01*
X102136773Y-102979794D01*
X102043947Y-103203895D01*
X101981161Y-103438214D01*
X101949500Y-103678711D01*
X100500500Y-103678711D01*
X100500500Y-102004427D01*
X100500816Y-101995581D01*
X100504112Y-101949500D01*
X100515130Y-101795436D01*
X100517646Y-101777938D01*
X100559356Y-101586199D01*
X100564333Y-101569248D01*
X100632911Y-101385385D01*
X100640259Y-101369298D01*
X100702815Y-101254734D01*
X100734291Y-101197089D01*
X100743845Y-101182221D01*
X100861448Y-101025123D01*
X100873020Y-101011769D01*
X101011769Y-100873020D01*
X101025123Y-100861448D01*
X101182221Y-100743845D01*
X101197089Y-100734291D01*
X101369298Y-100640258D01*
X101385385Y-100632911D01*
X101569248Y-100564333D01*
X101586199Y-100559356D01*
X101777938Y-100517646D01*
X101795436Y-100515130D01*
X101995582Y-100500816D01*
X102004428Y-100500500D01*
X102065892Y-100500500D01*
X147934108Y-100500500D01*
X147995572Y-100500500D01*
X148004418Y-100500816D01*
G37*
%TD.AperFunction*%
%TD*%
M02*
