M48
; DRILL file {KiCad 8.0.3} date 2024-08-07T13:24:32+0200
; FORMAT={-:-/ absolute / inch / decimal}
; #@! TF.CreationDate,2024-08-07T13:24:32+02:00
; #@! TF.GenerationSoftware,Kicad,Pcbnew,8.0.3
; #@! TF.FileFunction,Plated,1,2,PTH
FMAT,2
INCH
; #@! TA.AperFunction,Plated,PTH,ViaDrill
T1C0.0118
; #@! TA.AperFunction,Plated,PTH,ComponentDrill
T2C0.0315
; #@! TA.AperFunction,Plated,PTH,ComponentDrill
T3C0.0394
%
G90
G05
T1
X4.1492Y-4.4339
X4.313Y-4.2654
X4.4118Y-4.5232
X4.678Y-4.7594
X4.7256Y-4.5669
X4.7291Y-4.3654
X4.8264Y-4.2492
X4.8465Y-4.4551
X4.9756Y-4.3728
X5.1425Y-4.4665
X5.148Y-4.1209
X5.1858Y-4.7276
X5.3106Y-4.2677
X5.3539Y-4.4122
X5.6087Y-4.628
X5.761Y-4.315
T2
X4.2004Y-4.3149
X4.2004Y-4.3936
X4.2004Y-4.4723
X4.2004Y-4.5511
X5.6055Y-4.3157
X5.6055Y-4.3945
X5.6055Y-4.4732
X5.6055Y-4.552
X5.6843Y-4.3157
X5.6843Y-4.3945
X5.6843Y-4.4732
X5.6843Y-4.552
T3
X4.7197Y-4.8165
X4.8197Y-4.8165
X4.9197Y-4.8165
X5.0197Y-4.8165
X5.1197Y-4.8165
M30
