%TF.GenerationSoftware,KiCad,Pcbnew,8.0.3*%
%TF.CreationDate,2024-06-13T10:05:26+02:00*%
%TF.ProjectId,radar_module,72616461-725f-46d6-9f64-756c652e6b69,rev?*%
%TF.SameCoordinates,Original*%
%TF.FileFunction,Copper,L1,Top*%
%TF.FilePolarity,Positive*%
%FSLAX46Y46*%
G04 Gerber Fmt 4.6, Leading zero omitted, Abs format (unit mm)*
G04 Created by KiCad (PCBNEW 8.0.3) date 2024-06-13 10:05:26*
%MOMM*%
%LPD*%
G01*
G04 APERTURE LIST*
%TA.AperFunction,ComponentPad*%
%ADD10R,1.350000X1.350000*%
%TD*%
%TA.AperFunction,ComponentPad*%
%ADD11O,1.350000X1.350000*%
%TD*%
%TA.AperFunction,ComponentPad*%
%ADD12R,1.000000X1.000000*%
%TD*%
%TA.AperFunction,ComponentPad*%
%ADD13O,1.000000X1.000000*%
%TD*%
%TA.AperFunction,ComponentPad*%
%ADD14R,1.700000X1.700000*%
%TD*%
%TA.AperFunction,ComponentPad*%
%ADD15O,1.700000X1.700000*%
%TD*%
%TA.AperFunction,ComponentPad*%
%ADD16R,1.308000X1.308000*%
%TD*%
%TA.AperFunction,ComponentPad*%
%ADD17C,1.308000*%
%TD*%
%TA.AperFunction,Conductor*%
%ADD18C,0.400000*%
%TD*%
G04 APERTURE END LIST*
D10*
%TO.P,LD2450,1,Pin_1*%
%TO.N,GND*%
X135610000Y-96230000D03*
D11*
%TO.P,LD2450,2,Pin_2*%
%TO.N,unconnected-(J4-Pin_2-Pad2)*%
X137610000Y-96230000D03*
%TO.P,LD2450,3,Pin_3*%
%TO.N,unconnected-(J4-Pin_3-Pad3)*%
X135610000Y-98230000D03*
%TO.P,LD2450,4,Pin_4*%
%TO.N,+5V*%
X137610000Y-98230000D03*
%TO.P,LD2450,5,Pin_5*%
%TO.N,RX*%
X135610000Y-100230000D03*
%TO.P,LD2450,6,Pin_6*%
%TO.N,TX*%
X137610000Y-100230000D03*
%TO.P,LD2450,7,Pin_7*%
%TO.N,unconnected-(J4-Pin_7-Pad7)*%
X135610000Y-102230000D03*
%TO.P,LD2450,8,Pin_8*%
%TO.N,unconnected-(J4-Pin_8-Pad8)*%
X137610000Y-102230000D03*
%TD*%
D12*
%TO.P,LD2410,1,Pin_1*%
%TO.N,+5V*%
X107850000Y-102120000D03*
D13*
%TO.P,LD2410,2,Pin_2*%
%TO.N,GND*%
X107850000Y-100850000D03*
%TO.P,LD2410,3,Pin_3*%
%TO.N,RX*%
X107850000Y-99580000D03*
%TO.P,LD2410,4,Pin_4*%
%TO.N,TX*%
X107850000Y-98310000D03*
%TO.P,LD2410,5,Pin_5*%
%TO.N,OUT*%
X107850000Y-97040000D03*
%TD*%
D14*
%TO.P,LD2410C,1,Pin_1*%
%TO.N,TX*%
X126220000Y-110340000D03*
D15*
%TO.P,LD2410C,2,Pin_2*%
%TO.N,RX*%
X123680000Y-110340000D03*
%TO.P,LD2410C,3,Pin_3*%
%TO.N,OUT*%
X121140000Y-110340000D03*
%TO.P,LD2410C,4,Pin_4*%
%TO.N,GND*%
X118600000Y-110340000D03*
%TO.P,LD2410C,5,Pin_5*%
%TO.N,+5V*%
X116060000Y-110340000D03*
%TD*%
D14*
%TO.P,LD2410S,1,Pin_1*%
%TO.N,TX*%
X111500000Y-90390000D03*
D15*
%TO.P,LD2410S,2,Pin_2*%
%TO.N,RX*%
X114040000Y-90390000D03*
%TO.P,LD2410S,3,Pin_3*%
%TO.N,OUT*%
X116580000Y-90390000D03*
%TO.P,LD2410S,4,Pin_4*%
%TO.N,GND*%
X119120000Y-90390000D03*
%TO.P,LD2410S,5,Pin_5*%
%TO.N,+3.3V*%
X121660000Y-90390000D03*
%TD*%
D16*
%TO.P,J1,1,1*%
%TO.N,GND*%
X101140000Y-102860000D03*
D17*
%TO.P,J1,2,2*%
%TO.N,+3.3V*%
X101140000Y-100860000D03*
%TO.P,J1,3,3*%
%TO.N,TX*%
X101140000Y-98860000D03*
%TO.P,J1,4,4*%
%TO.N,RX*%
X101140000Y-96860000D03*
%TD*%
D18*
%TO.N,OUT*%
X117830000Y-89140000D02*
X116580000Y-90390000D01*
X139320000Y-96419720D02*
X132040280Y-89140000D01*
X132040280Y-89140000D02*
X117830000Y-89140000D01*
X115330000Y-89140000D02*
X116580000Y-90390000D01*
X112790000Y-89872233D02*
X113522233Y-89140000D01*
X121140000Y-110340000D02*
X122390000Y-111590000D01*
X113522233Y-89140000D02*
X115330000Y-89140000D01*
X139320000Y-102888808D02*
X139320000Y-96419720D01*
X122390000Y-111590000D02*
X130618808Y-111590000D01*
X112790000Y-92100000D02*
X112790000Y-89872233D01*
X107850000Y-97040000D02*
X112790000Y-92100000D01*
X130618808Y-111590000D02*
X139320000Y-102888808D01*
%TO.N,TX*%
X114190000Y-98310000D02*
X126220000Y-110340000D01*
X107850000Y-98310000D02*
X114190000Y-98310000D01*
X101140000Y-98860000D02*
X103030000Y-98860000D01*
X138685000Y-102675280D02*
X138685000Y-101305000D01*
X138685000Y-101305000D02*
X137610000Y-100230000D01*
X107300000Y-98860000D02*
X107850000Y-98310000D01*
X103030000Y-98860000D02*
X111500000Y-90390000D01*
X101140000Y-98860000D02*
X107300000Y-98860000D01*
X131020280Y-110340000D02*
X138685000Y-102675280D01*
X126220000Y-110340000D02*
X131020280Y-110340000D01*
%TO.N,RX*%
X115340000Y-91690000D02*
X127070000Y-91690000D01*
X102194000Y-103914000D02*
X100086000Y-103914000D01*
X127070000Y-91690000D02*
X135610000Y-100230000D01*
X100086000Y-97914000D02*
X101140000Y-96860000D01*
X107850000Y-99580000D02*
X106528000Y-99580000D01*
X106528000Y-99580000D02*
X102194000Y-103914000D01*
X100086000Y-103914000D02*
X100086000Y-97914000D01*
X114040000Y-90390000D02*
X115340000Y-91690000D01*
%TD*%
%TA.AperFunction,Conductor*%
%TO.N,GND*%
G36*
X113190999Y-88310185D02*
G01*
X113236754Y-88362989D01*
X113246698Y-88432147D01*
X113217673Y-88495703D01*
X113192850Y-88517603D01*
X113075687Y-88595887D01*
X112636327Y-89035247D01*
X112575004Y-89068732D01*
X112505313Y-89063748D01*
X112457487Y-89045910D01*
X112457480Y-89045908D01*
X112397883Y-89039501D01*
X112397881Y-89039500D01*
X112397873Y-89039500D01*
X112397864Y-89039500D01*
X110602129Y-89039500D01*
X110602123Y-89039501D01*
X110542516Y-89045908D01*
X110407671Y-89096202D01*
X110407664Y-89096206D01*
X110292455Y-89182452D01*
X110292452Y-89182455D01*
X110206206Y-89297664D01*
X110206202Y-89297671D01*
X110155908Y-89432517D01*
X110149501Y-89492116D01*
X110149500Y-89492135D01*
X110149500Y-90698480D01*
X110129815Y-90765519D01*
X110113181Y-90786161D01*
X102776162Y-98123181D01*
X102714839Y-98156666D01*
X102688481Y-98159500D01*
X102119463Y-98159500D01*
X102052424Y-98139815D01*
X102020510Y-98110228D01*
X102008037Y-98093712D01*
X101996841Y-98078886D01*
X101857251Y-97951633D01*
X101820973Y-97891927D01*
X101822733Y-97822079D01*
X101857251Y-97768366D01*
X101996841Y-97641114D01*
X102125781Y-97470370D01*
X102221151Y-97278840D01*
X102221151Y-97278837D01*
X102221153Y-97278835D01*
X102279703Y-97073050D01*
X102279704Y-97073047D01*
X102284127Y-97025322D01*
X102299446Y-96860000D01*
X102279704Y-96646952D01*
X102267125Y-96602741D01*
X102221153Y-96441164D01*
X102221150Y-96441158D01*
X102192885Y-96384394D01*
X102125781Y-96249630D01*
X101996841Y-96078886D01*
X101838722Y-95934742D01*
X101838716Y-95934738D01*
X101838713Y-95934736D01*
X101656813Y-95822108D01*
X101656807Y-95822106D01*
X101457297Y-95744815D01*
X101246980Y-95705500D01*
X101033020Y-95705500D01*
X100822703Y-95744815D01*
X100696533Y-95793693D01*
X100623192Y-95822106D01*
X100623186Y-95822108D01*
X100441286Y-95934736D01*
X100441283Y-95934738D01*
X100441279Y-95934740D01*
X100441278Y-95934742D01*
X100328664Y-96037403D01*
X100283158Y-96078887D01*
X100154219Y-96249629D01*
X100058849Y-96441158D01*
X100058846Y-96441164D01*
X100000296Y-96646949D01*
X100000295Y-96646952D01*
X99980554Y-96859999D01*
X99980554Y-96860000D01*
X99989497Y-96956512D01*
X99976082Y-97025082D01*
X99953707Y-97055634D01*
X99541885Y-97467456D01*
X99480408Y-97559465D01*
X99465230Y-97582180D01*
X99465223Y-97582192D01*
X99412420Y-97709671D01*
X99412418Y-97709677D01*
X99385500Y-97845004D01*
X99385500Y-97845007D01*
X99385500Y-103982993D01*
X99385500Y-103982995D01*
X99385499Y-103982995D01*
X99412418Y-104118322D01*
X99412421Y-104118332D01*
X99465221Y-104245804D01*
X99465228Y-104245817D01*
X99541885Y-104360541D01*
X99541888Y-104360545D01*
X99639454Y-104458111D01*
X99639458Y-104458114D01*
X99754182Y-104534771D01*
X99754195Y-104534778D01*
X99881667Y-104587578D01*
X99881672Y-104587580D01*
X99881676Y-104587580D01*
X99881677Y-104587581D01*
X100017004Y-104614500D01*
X100017007Y-104614500D01*
X102262996Y-104614500D01*
X102354040Y-104596389D01*
X102398328Y-104587580D01*
X102462069Y-104561177D01*
X102525807Y-104534777D01*
X102525808Y-104534776D01*
X102525811Y-104534775D01*
X102640543Y-104458114D01*
X106697213Y-100401443D01*
X106758534Y-100367960D01*
X106828226Y-100372944D01*
X106884159Y-100414816D01*
X106908576Y-100480280D01*
X106903553Y-100525121D01*
X106880839Y-100599999D01*
X106880840Y-100600000D01*
X107640382Y-100600000D01*
X107589936Y-100650446D01*
X107547149Y-100724555D01*
X107525000Y-100807213D01*
X107525000Y-100892787D01*
X107547149Y-100975445D01*
X107589936Y-101049554D01*
X107640382Y-101100000D01*
X106880840Y-101100000D01*
X106921651Y-101234537D01*
X106922651Y-101236407D01*
X106922878Y-101237501D01*
X106923981Y-101240162D01*
X106923476Y-101240370D01*
X106936896Y-101304809D01*
X106912564Y-101369172D01*
X106906205Y-101377666D01*
X106906202Y-101377671D01*
X106855908Y-101512517D01*
X106849501Y-101572116D01*
X106849501Y-101572123D01*
X106849500Y-101572135D01*
X106849500Y-102667870D01*
X106849501Y-102667876D01*
X106855908Y-102727483D01*
X106906202Y-102862328D01*
X106906206Y-102862335D01*
X106992452Y-102977544D01*
X106992455Y-102977547D01*
X107107664Y-103063793D01*
X107107671Y-103063797D01*
X107242517Y-103114091D01*
X107242516Y-103114091D01*
X107249444Y-103114835D01*
X107302127Y-103120500D01*
X108397872Y-103120499D01*
X108457483Y-103114091D01*
X108592331Y-103063796D01*
X108707546Y-102977546D01*
X108793796Y-102862331D01*
X108844091Y-102727483D01*
X108850500Y-102667873D01*
X108850499Y-101572128D01*
X108844091Y-101512517D01*
X108828371Y-101470370D01*
X108793797Y-101377671D01*
X108793793Y-101377664D01*
X108787439Y-101369176D01*
X108763021Y-101303712D01*
X108776505Y-101240369D01*
X108776018Y-101240167D01*
X108777110Y-101237530D01*
X108777349Y-101236408D01*
X108778347Y-101234539D01*
X108819160Y-101100000D01*
X108059618Y-101100000D01*
X108110064Y-101049554D01*
X108152851Y-100975445D01*
X108175000Y-100892787D01*
X108175000Y-100807213D01*
X108152851Y-100724555D01*
X108110064Y-100650446D01*
X108059618Y-100600000D01*
X108819160Y-100600000D01*
X108819160Y-100599999D01*
X108778347Y-100465458D01*
X108685496Y-100291746D01*
X108682110Y-100286678D01*
X108683784Y-100285559D01*
X108660081Y-100229746D01*
X108671874Y-100160879D01*
X108682839Y-100143818D01*
X108682523Y-100143607D01*
X108685904Y-100138544D01*
X108685910Y-100138538D01*
X108778814Y-99964727D01*
X108836024Y-99776132D01*
X108855341Y-99580000D01*
X108836024Y-99383868D01*
X108778814Y-99195273D01*
X108778811Y-99195267D01*
X108777572Y-99192948D01*
X108777289Y-99191590D01*
X108776482Y-99189641D01*
X108776851Y-99189487D01*
X108763333Y-99124545D01*
X108788337Y-99059302D01*
X108844643Y-99017934D01*
X108886933Y-99010500D01*
X113848481Y-99010500D01*
X113915520Y-99030185D01*
X113936162Y-99046819D01*
X123670069Y-108780726D01*
X123703554Y-108842049D01*
X123698570Y-108911741D01*
X123656698Y-108967674D01*
X123593196Y-108991935D01*
X123444596Y-109004936D01*
X123444586Y-109004938D01*
X123216344Y-109066094D01*
X123216335Y-109066098D01*
X123002171Y-109165964D01*
X123002169Y-109165965D01*
X122808597Y-109301505D01*
X122641505Y-109468597D01*
X122511575Y-109654158D01*
X122456998Y-109697783D01*
X122387500Y-109704977D01*
X122325145Y-109673454D01*
X122308425Y-109654158D01*
X122178494Y-109468597D01*
X122011402Y-109301506D01*
X122011395Y-109301501D01*
X121817834Y-109165967D01*
X121817830Y-109165965D01*
X121817828Y-109165964D01*
X121603663Y-109066097D01*
X121603659Y-109066096D01*
X121603655Y-109066094D01*
X121375413Y-109004938D01*
X121375403Y-109004936D01*
X121140001Y-108984341D01*
X121139999Y-108984341D01*
X120904596Y-109004936D01*
X120904586Y-109004938D01*
X120676344Y-109066094D01*
X120676335Y-109066098D01*
X120462171Y-109165964D01*
X120462169Y-109165965D01*
X120268597Y-109301505D01*
X120101508Y-109468594D01*
X119971269Y-109654595D01*
X119916692Y-109698219D01*
X119847193Y-109705412D01*
X119784839Y-109673890D01*
X119768119Y-109654594D01*
X119638113Y-109468926D01*
X119638108Y-109468920D01*
X119471082Y-109301894D01*
X119277578Y-109166399D01*
X119063492Y-109066570D01*
X119063486Y-109066567D01*
X118850000Y-109009364D01*
X118850000Y-109906988D01*
X118792993Y-109874075D01*
X118665826Y-109840000D01*
X118534174Y-109840000D01*
X118407007Y-109874075D01*
X118350000Y-109906988D01*
X118350000Y-109009364D01*
X118349999Y-109009364D01*
X118136513Y-109066567D01*
X118136507Y-109066570D01*
X117922422Y-109166399D01*
X117922420Y-109166400D01*
X117728926Y-109301886D01*
X117728920Y-109301891D01*
X117561891Y-109468920D01*
X117561890Y-109468922D01*
X117431880Y-109654595D01*
X117377303Y-109698219D01*
X117307804Y-109705412D01*
X117245450Y-109673890D01*
X117228730Y-109654594D01*
X117098494Y-109468597D01*
X116931402Y-109301506D01*
X116931395Y-109301501D01*
X116737834Y-109165967D01*
X116737830Y-109165965D01*
X116737828Y-109165964D01*
X116523663Y-109066097D01*
X116523659Y-109066096D01*
X116523655Y-109066094D01*
X116295413Y-109004938D01*
X116295403Y-109004936D01*
X116060001Y-108984341D01*
X116059999Y-108984341D01*
X115824596Y-109004936D01*
X115824586Y-109004938D01*
X115596344Y-109066094D01*
X115596335Y-109066098D01*
X115382171Y-109165964D01*
X115382169Y-109165965D01*
X115188597Y-109301505D01*
X115021505Y-109468597D01*
X114885965Y-109662169D01*
X114885964Y-109662171D01*
X114786098Y-109876335D01*
X114786094Y-109876344D01*
X114724938Y-110104586D01*
X114724936Y-110104596D01*
X114704341Y-110339999D01*
X114704341Y-110340000D01*
X114724936Y-110575403D01*
X114724938Y-110575413D01*
X114786094Y-110803655D01*
X114786096Y-110803659D01*
X114786097Y-110803663D01*
X114865801Y-110974588D01*
X114885965Y-111017830D01*
X114885967Y-111017834D01*
X114933651Y-111085933D01*
X115021505Y-111211401D01*
X115188599Y-111378495D01*
X115285384Y-111446265D01*
X115382165Y-111514032D01*
X115382167Y-111514033D01*
X115382170Y-111514035D01*
X115596337Y-111613903D01*
X115824592Y-111675063D01*
X116012918Y-111691539D01*
X116059999Y-111695659D01*
X116060000Y-111695659D01*
X116060001Y-111695659D01*
X116099234Y-111692226D01*
X116295408Y-111675063D01*
X116523663Y-111613903D01*
X116737830Y-111514035D01*
X116931401Y-111378495D01*
X117098495Y-111211401D01*
X117228730Y-111025405D01*
X117283307Y-110981781D01*
X117352805Y-110974587D01*
X117415160Y-111006110D01*
X117431879Y-111025405D01*
X117561890Y-111211078D01*
X117728917Y-111378105D01*
X117922421Y-111513600D01*
X118136507Y-111613429D01*
X118136516Y-111613433D01*
X118350000Y-111670634D01*
X118350000Y-110773012D01*
X118407007Y-110805925D01*
X118534174Y-110840000D01*
X118665826Y-110840000D01*
X118792993Y-110805925D01*
X118850000Y-110773012D01*
X118850000Y-111670633D01*
X119063483Y-111613433D01*
X119063492Y-111613429D01*
X119277578Y-111513600D01*
X119471082Y-111378105D01*
X119638105Y-111211082D01*
X119768119Y-111025405D01*
X119822696Y-110981781D01*
X119892195Y-110974588D01*
X119954549Y-111006110D01*
X119971269Y-111025405D01*
X120101505Y-111211401D01*
X120268599Y-111378495D01*
X120365384Y-111446265D01*
X120462165Y-111514032D01*
X120462167Y-111514033D01*
X120462170Y-111514035D01*
X120676337Y-111613903D01*
X120904592Y-111675063D01*
X121092918Y-111691539D01*
X121139999Y-111695659D01*
X121140000Y-111695659D01*
X121140001Y-111695659D01*
X121179234Y-111692226D01*
X121375408Y-111675063D01*
X121392216Y-111670559D01*
X121462064Y-111672218D01*
X121511994Y-111702651D01*
X121943453Y-112134111D01*
X121943454Y-112134112D01*
X122058192Y-112210777D01*
X122185667Y-112263578D01*
X122185672Y-112263580D01*
X122185676Y-112263580D01*
X122185677Y-112263581D01*
X122321003Y-112290500D01*
X122321006Y-112290500D01*
X130687804Y-112290500D01*
X130778848Y-112272389D01*
X130823136Y-112263580D01*
X130886877Y-112237177D01*
X130950615Y-112210777D01*
X130950616Y-112210776D01*
X130950619Y-112210775D01*
X131065351Y-112134114D01*
X139864114Y-103335351D01*
X139940775Y-103220619D01*
X139993580Y-103093136D01*
X140007069Y-103025322D01*
X140020500Y-102957804D01*
X140020500Y-96350726D01*
X140016201Y-96329118D01*
X140016201Y-96329117D01*
X139993580Y-96215392D01*
X139977818Y-96177339D01*
X139940777Y-96087912D01*
X139864112Y-95973174D01*
X132486825Y-88595887D01*
X132369663Y-88517603D01*
X132324857Y-88463991D01*
X132316150Y-88394666D01*
X132346304Y-88331638D01*
X132405747Y-88294918D01*
X132438553Y-88290500D01*
X139594108Y-88290500D01*
X139655933Y-88290500D01*
X139664043Y-88290765D01*
X139912895Y-88307075D01*
X139928953Y-88309190D01*
X140136105Y-88350395D01*
X140169535Y-88357045D01*
X140185202Y-88361243D01*
X140354947Y-88418863D01*
X140417481Y-88440091D01*
X140432458Y-88446294D01*
X140641799Y-88549529D01*
X140652460Y-88554787D01*
X140666508Y-88562897D01*
X140870464Y-88699177D01*
X140883328Y-88709048D01*
X141067749Y-88870781D01*
X141079218Y-88882250D01*
X141238387Y-89063748D01*
X141240951Y-89066671D01*
X141250824Y-89079537D01*
X141276535Y-89118017D01*
X141387102Y-89283492D01*
X141395212Y-89297539D01*
X141503702Y-89517534D01*
X141509909Y-89532520D01*
X141588756Y-89764797D01*
X141592954Y-89780464D01*
X141640807Y-90021035D01*
X141642925Y-90037116D01*
X141659235Y-90285956D01*
X141659500Y-90294066D01*
X141659500Y-111085933D01*
X141659235Y-111094043D01*
X141642925Y-111342883D01*
X141640807Y-111358964D01*
X141592954Y-111599535D01*
X141588756Y-111615202D01*
X141509909Y-111847479D01*
X141503702Y-111862465D01*
X141395212Y-112082460D01*
X141387102Y-112096507D01*
X141250825Y-112300460D01*
X141240951Y-112313328D01*
X141079218Y-112497749D01*
X141067749Y-112509218D01*
X140883328Y-112670951D01*
X140870460Y-112680825D01*
X140666507Y-112817102D01*
X140652460Y-112825212D01*
X140432465Y-112933702D01*
X140417479Y-112939909D01*
X140185202Y-113018756D01*
X140169535Y-113022954D01*
X139928964Y-113070807D01*
X139912883Y-113072925D01*
X139664043Y-113089235D01*
X139655933Y-113089500D01*
X98504067Y-113089500D01*
X98495957Y-113089235D01*
X98247116Y-113072925D01*
X98231035Y-113070807D01*
X97990464Y-113022954D01*
X97974797Y-113018756D01*
X97742520Y-112939909D01*
X97727534Y-112933702D01*
X97507539Y-112825212D01*
X97493492Y-112817102D01*
X97289539Y-112680825D01*
X97276671Y-112670951D01*
X97092250Y-112509218D01*
X97080781Y-112497749D01*
X96919048Y-112313328D01*
X96909174Y-112300460D01*
X96884532Y-112263581D01*
X96772897Y-112096507D01*
X96764787Y-112082460D01*
X96658855Y-111867652D01*
X96656294Y-111862458D01*
X96650090Y-111847479D01*
X96571243Y-111615202D01*
X96567045Y-111599535D01*
X96523078Y-111378498D01*
X96519190Y-111358953D01*
X96517075Y-111342895D01*
X96500765Y-111094043D01*
X96500500Y-111085933D01*
X96500500Y-90294066D01*
X96500765Y-90285956D01*
X96506595Y-90197007D01*
X96517075Y-90037102D01*
X96519190Y-90021048D01*
X96567045Y-89780462D01*
X96571243Y-89764797D01*
X96594337Y-89696762D01*
X96650093Y-89532512D01*
X96656291Y-89517547D01*
X96764790Y-89297533D01*
X96772893Y-89283498D01*
X96909182Y-89079527D01*
X96919039Y-89066681D01*
X97080786Y-88882244D01*
X97092244Y-88870786D01*
X97276681Y-88709039D01*
X97289527Y-88699182D01*
X97493498Y-88562893D01*
X97507533Y-88554790D01*
X97727547Y-88446291D01*
X97742512Y-88440093D01*
X97969653Y-88362989D01*
X97974797Y-88361243D01*
X97990464Y-88357045D01*
X98231048Y-88309190D01*
X98247102Y-88307075D01*
X98495957Y-88290765D01*
X98504067Y-88290500D01*
X98565892Y-88290500D01*
X113123960Y-88290500D01*
X113190999Y-88310185D01*
G37*
%TD.AperFunction*%
%TA.AperFunction,Conductor*%
G36*
X131765800Y-89860185D02*
G01*
X131786442Y-89876819D01*
X136972513Y-95062890D01*
X137005998Y-95124213D01*
X137001014Y-95193905D01*
X136959142Y-95249838D01*
X136950111Y-95255997D01*
X136898565Y-95287913D01*
X136887214Y-95298261D01*
X136824408Y-95328875D01*
X136755021Y-95320674D01*
X136704414Y-95280932D01*
X136642187Y-95197809D01*
X136527093Y-95111649D01*
X136527086Y-95111645D01*
X136392379Y-95061403D01*
X136392372Y-95061401D01*
X136332844Y-95055000D01*
X135860000Y-95055000D01*
X135860000Y-95914314D01*
X135855606Y-95909920D01*
X135764394Y-95857259D01*
X135662661Y-95830000D01*
X135557339Y-95830000D01*
X135455606Y-95857259D01*
X135364394Y-95909920D01*
X135360000Y-95914314D01*
X135360000Y-95055000D01*
X134887155Y-95055000D01*
X134827627Y-95061401D01*
X134827620Y-95061403D01*
X134692913Y-95111645D01*
X134692906Y-95111649D01*
X134577812Y-95197809D01*
X134577809Y-95197812D01*
X134491649Y-95312906D01*
X134491645Y-95312913D01*
X134441403Y-95447620D01*
X134441401Y-95447627D01*
X134435000Y-95507155D01*
X134435000Y-95980000D01*
X135294314Y-95980000D01*
X135289920Y-95984394D01*
X135237259Y-96075606D01*
X135210000Y-96177339D01*
X135210000Y-96282661D01*
X135237259Y-96384394D01*
X135289920Y-96475606D01*
X135294314Y-96480000D01*
X134435000Y-96480000D01*
X134435000Y-96952844D01*
X134441401Y-97012372D01*
X134441403Y-97012379D01*
X134491645Y-97147086D01*
X134491649Y-97147093D01*
X134577809Y-97262186D01*
X134663405Y-97326264D01*
X134705276Y-97382198D01*
X134710260Y-97451890D01*
X134688049Y-97500257D01*
X134606288Y-97608528D01*
X134509183Y-97803539D01*
X134509182Y-97803540D01*
X134492726Y-97861377D01*
X134455446Y-97920470D01*
X134392136Y-97950027D01*
X134322896Y-97940663D01*
X134285779Y-97915122D01*
X127516546Y-91145888D01*
X127516545Y-91145887D01*
X127401807Y-91069222D01*
X127274332Y-91016421D01*
X127274322Y-91016418D01*
X127138996Y-90989500D01*
X127138994Y-90989500D01*
X127138993Y-90989500D01*
X123059106Y-90989500D01*
X122992067Y-90969815D01*
X122946312Y-90917011D01*
X122936368Y-90847853D01*
X122939331Y-90833407D01*
X122962990Y-90745107D01*
X122995063Y-90625408D01*
X123015659Y-90390000D01*
X122995063Y-90154592D01*
X122952728Y-89996593D01*
X122954391Y-89926743D01*
X122993554Y-89868881D01*
X123057782Y-89841377D01*
X123072503Y-89840500D01*
X131698761Y-89840500D01*
X131765800Y-89860185D01*
G37*
%TD.AperFunction*%
%TD*%
M02*
