M48
; DRILL file {KiCad 8.0.3} date 2024-06-13T10:05:20+0200
; FORMAT={-:-/ absolute / inch / decimal}
; #@! TF.CreationDate,2024-06-13T10:05:20+02:00
; #@! TF.GenerationSoftware,Kicad,Pcbnew,8.0.3
; #@! TF.FileFunction,Plated,1,2,PTH
FMAT,2
INCH
; #@! TA.AperFunction,Plated,PTH,ComponentDrill
T1C0.0256
; #@! TA.AperFunction,Plated,PTH,ComponentDrill
T2C0.0315
; #@! TA.AperFunction,Plated,PTH,ComponentDrill
T3C0.0394
%
G90
G05
T1
X4.2461Y-3.8205
X4.2461Y-3.8705
X4.2461Y-3.9205
X4.2461Y-3.9705
X4.2461Y-4.0205
T2
X3.9819Y-3.8134
X3.9819Y-3.8921
X3.9819Y-3.9709
X3.9819Y-4.0496
X5.339Y-3.7886
X5.339Y-3.8673
X5.339Y-3.9461
X5.339Y-4.0248
X5.4177Y-3.7886
X5.4177Y-3.8673
X5.4177Y-3.9461
X5.4177Y-4.0248
T3
X4.3898Y-3.5587
X4.4898Y-3.5587
X4.5693Y-4.3441
X4.5898Y-3.5587
X4.6693Y-4.3441
X4.6898Y-3.5587
X4.7693Y-4.3441
X4.7898Y-3.5587
X4.8693Y-4.3441
X4.9693Y-4.3441
M30
