%TF.GenerationSoftware,KiCad,Pcbnew,8.0.3*%
%TF.CreationDate,2024-08-07T13:34:54+02:00*%
%TF.ProjectId,NP_RGBW_HP,4e505f52-4742-4575-9f48-502e6b696361,rev?*%
%TF.SameCoordinates,Original*%
%TF.FileFunction,Soldermask,Top*%
%TF.FilePolarity,Negative*%
%FSLAX46Y46*%
G04 Gerber Fmt 4.6, Leading zero omitted, Abs format (unit mm)*
G04 Created by KiCad (PCBNEW 8.0.3) date 2024-08-07 13:34:54*
%MOMM*%
%LPD*%
G01*
G04 APERTURE LIST*
G04 Aperture macros list*
%AMRoundRect*
0 Rectangle with rounded corners*
0 $1 Rounding radius*
0 $2 $3 $4 $5 $6 $7 $8 $9 X,Y pos of 4 corners*
0 Add a 4 corners polygon primitive as box body*
4,1,4,$2,$3,$4,$5,$6,$7,$8,$9,$2,$3,0*
0 Add four circle primitives for the rounded corners*
1,1,$1+$1,$2,$3*
1,1,$1+$1,$4,$5*
1,1,$1+$1,$6,$7*
1,1,$1+$1,$8,$9*
0 Add four rect primitives between the rounded corners*
20,1,$1+$1,$2,$3,$4,$5,0*
20,1,$1+$1,$4,$5,$6,$7,0*
20,1,$1+$1,$6,$7,$8,$9,0*
20,1,$1+$1,$8,$9,$2,$3,0*%
G04 Aperture macros list end*
%ADD10RoundRect,0.250000X-0.450000X0.262500X-0.450000X-0.262500X0.450000X-0.262500X0.450000X0.262500X0*%
%ADD11RoundRect,0.150000X0.587500X0.150000X-0.587500X0.150000X-0.587500X-0.150000X0.587500X-0.150000X0*%
%ADD12R,2.200000X1.100000*%
%ADD13RoundRect,0.550000X0.650000X0.000010X-0.650000X0.000010X-0.650000X-0.000010X0.650000X-0.000010X0*%
%ADD14C,6.000000*%
%ADD15RoundRect,0.250000X0.450000X-0.262500X0.450000X0.262500X-0.450000X0.262500X-0.450000X-0.262500X0*%
%ADD16C,3.200000*%
%ADD17RoundRect,0.250000X0.625000X-0.312500X0.625000X0.312500X-0.625000X0.312500X-0.625000X-0.312500X0*%
%ADD18C,2.100000*%
%ADD19RoundRect,0.250000X0.325000X0.650000X-0.325000X0.650000X-0.325000X-0.650000X0.325000X-0.650000X0*%
%ADD20RoundRect,0.250000X-0.250000X-0.475000X0.250000X-0.475000X0.250000X0.475000X-0.250000X0.475000X0*%
%ADD21RoundRect,0.250000X0.262500X0.450000X-0.262500X0.450000X-0.262500X-0.450000X0.262500X-0.450000X0*%
%ADD22RoundRect,0.150000X-0.725000X-0.150000X0.725000X-0.150000X0.725000X0.150000X-0.725000X0.150000X0*%
%ADD23R,1.100000X2.200000*%
%ADD24RoundRect,0.550000X-0.000010X0.650000X-0.000010X-0.650000X0.000010X-0.650000X0.000010X0.650000X0*%
%ADD25R,6.000000X3.000000*%
%ADD26RoundRect,0.550000X-0.650000X-0.000010X0.650000X-0.000010X0.650000X0.000010X-0.650000X0.000010X0*%
%ADD27RoundRect,0.250000X-0.262500X-0.450000X0.262500X-0.450000X0.262500X0.450000X-0.262500X0.450000X0*%
G04 APERTURE END LIST*
D10*
%TO.C,R1*%
X99000000Y-64087500D03*
X99000000Y-65912500D03*
%TD*%
D11*
%TO.C,Q2*%
X96837500Y-71950000D03*
X96837500Y-70050000D03*
X94962500Y-71000000D03*
%TD*%
D12*
%TO.C,L3*%
X124000000Y-81958330D03*
X124000000Y-80158330D03*
D13*
X124000000Y-78358330D03*
D12*
X124000000Y-76558330D03*
X111000000Y-76558330D03*
X111000000Y-78358330D03*
X111000000Y-80158330D03*
X111000000Y-81958330D03*
D14*
X117500000Y-79258330D03*
%TD*%
D15*
%TO.C,R12*%
X92900000Y-65912500D03*
X92900000Y-64087500D03*
%TD*%
D10*
%TO.C,R9*%
X98900000Y-82087500D03*
X98900000Y-83912500D03*
%TD*%
D11*
%TO.C,Q1*%
X96837500Y-65950000D03*
X96837500Y-64050000D03*
X94962500Y-65000000D03*
%TD*%
D16*
%TO.C,REF\u002A\u002A1*%
X124000000Y-68000000D03*
%TD*%
D17*
%TO.C,R8*%
X104100000Y-78462500D03*
X104100000Y-75537500D03*
%TD*%
%TO.C,R7*%
X101500000Y-78462500D03*
X101500000Y-75537500D03*
%TD*%
%TO.C,R11*%
X104000000Y-84462500D03*
X104000000Y-81537500D03*
%TD*%
D11*
%TO.C,Q4*%
X96837500Y-83950000D03*
X96837500Y-82050000D03*
X94962500Y-83000000D03*
%TD*%
D17*
%TO.C,R5*%
X101370000Y-72485000D03*
X101370000Y-69560000D03*
%TD*%
D15*
%TO.C,R15*%
X92900000Y-83912500D03*
X92900000Y-82087500D03*
%TD*%
D16*
%TO.C,REF\u002A\u002A*%
X143000000Y-85000000D03*
%TD*%
D18*
%TO.C,REF\u002A\u002A*%
X68430000Y-65232000D03*
%TD*%
D19*
%TO.C,C1*%
X95475000Y-53000000D03*
X92525000Y-53000000D03*
%TD*%
D16*
%TO.C,REF\u002A\u002A*%
X143000000Y-51000000D03*
%TD*%
D15*
%TO.C,R14*%
X93000000Y-77912500D03*
X93000000Y-76087500D03*
%TD*%
D18*
%TO.C,REF\u002A\u002A*%
X68430000Y-61376000D03*
%TD*%
D16*
%TO.C,REF\u002A\u002A1*%
X131000000Y-80124356D03*
%TD*%
D17*
%TO.C,R2*%
X104000000Y-66462500D03*
X104000000Y-63537500D03*
%TD*%
D16*
%TO.C,REF\u002A\u002A*%
X68000000Y-51000000D03*
%TD*%
D20*
%TO.C,C2*%
X101550000Y-55000000D03*
X103450000Y-55000000D03*
%TD*%
D21*
%TO.C,R18*%
X103412500Y-60000000D03*
X101587500Y-60000000D03*
%TD*%
D17*
%TO.C,R10*%
X101400000Y-84462500D03*
X101400000Y-81537500D03*
%TD*%
D22*
%TO.C,U1*%
X93662981Y-56595000D03*
X93662981Y-57865000D03*
X93662981Y-59135000D03*
X93662981Y-60405000D03*
X98812981Y-60405000D03*
X98812981Y-59135000D03*
X98812981Y-57865000D03*
X98812981Y-56595000D03*
%TD*%
D18*
%TO.C,REF\u002A\u002A*%
X68370000Y-70600000D03*
%TD*%
D17*
%TO.C,R3*%
X101400000Y-66462500D03*
X101400000Y-63537500D03*
%TD*%
D23*
%TO.C,L2*%
X139700000Y-61500000D03*
X137900000Y-61500000D03*
D24*
X136100000Y-61500000D03*
D23*
X134300000Y-61500000D03*
X134300000Y-74500000D03*
X136100000Y-74500000D03*
X137900000Y-74500000D03*
X139700000Y-74500000D03*
D14*
X137000000Y-68000000D03*
%TD*%
D10*
%TO.C,R4*%
X99000000Y-70087500D03*
X99000000Y-71912500D03*
%TD*%
D25*
%TO.C,J1*%
X78620000Y-56180000D03*
X78620000Y-60680000D03*
X78620000Y-65180000D03*
%TD*%
D12*
%TO.C,L1*%
X111000000Y-54041670D03*
X111000000Y-55841670D03*
D26*
X111000000Y-57641670D03*
D12*
X111000000Y-59441670D03*
X124000000Y-59441670D03*
X124000000Y-57641670D03*
X124000000Y-55841670D03*
X124000000Y-54041670D03*
D14*
X117500000Y-56741670D03*
%TD*%
D16*
%TO.C,REF\u002A\u002A2*%
X131000000Y-55875644D03*
%TD*%
D10*
%TO.C,R6*%
X99000000Y-76087500D03*
X99000000Y-77912500D03*
%TD*%
D11*
%TO.C,Q3*%
X96937500Y-77950000D03*
X96937500Y-76050000D03*
X95062500Y-77000000D03*
%TD*%
D18*
%TO.C,REF\u002A\u002A*%
X68430000Y-57520000D03*
%TD*%
%TO.C,REF\u002A\u002A*%
X68370000Y-74456000D03*
%TD*%
D21*
%TO.C,R16*%
X99412500Y-53000000D03*
X97587500Y-53000000D03*
%TD*%
D16*
%TO.C,REF\u002A\u002A*%
X110000000Y-68000000D03*
%TD*%
%TO.C,REF\u002A\u002A*%
X68000000Y-85000000D03*
%TD*%
D15*
%TO.C,R13*%
X92900000Y-71912500D03*
X92900000Y-70087500D03*
%TD*%
D18*
%TO.C,REF\u002A\u002A*%
X68370000Y-78312000D03*
%TD*%
D17*
%TO.C,R19*%
X103880000Y-72495000D03*
X103880000Y-69570000D03*
%TD*%
D27*
%TO.C,R17*%
X101587500Y-58000000D03*
X103412500Y-58000000D03*
%TD*%
D25*
%TO.C,J2*%
X78570000Y-70570000D03*
X78570000Y-75070000D03*
X78570000Y-79570000D03*
%TD*%
M02*
