%TF.GenerationSoftware,KiCad,Pcbnew,8.0.3*%
%TF.CreationDate,2024-08-07T13:34:54+02:00*%
%TF.ProjectId,NP_RGBW_HP,4e505f52-4742-4575-9f48-502e6b696361,rev?*%
%TF.SameCoordinates,Original*%
%TF.FileFunction,Copper,L1,Top*%
%TF.FilePolarity,Positive*%
%FSLAX46Y46*%
G04 Gerber Fmt 4.6, Leading zero omitted, Abs format (unit mm)*
G04 Created by KiCad (PCBNEW 8.0.3) date 2024-08-07 13:34:54*
%MOMM*%
%LPD*%
G01*
G04 APERTURE LIST*
G04 Aperture macros list*
%AMRoundRect*
0 Rectangle with rounded corners*
0 $1 Rounding radius*
0 $2 $3 $4 $5 $6 $7 $8 $9 X,Y pos of 4 corners*
0 Add a 4 corners polygon primitive as box body*
4,1,4,$2,$3,$4,$5,$6,$7,$8,$9,$2,$3,0*
0 Add four circle primitives for the rounded corners*
1,1,$1+$1,$2,$3*
1,1,$1+$1,$4,$5*
1,1,$1+$1,$6,$7*
1,1,$1+$1,$8,$9*
0 Add four rect primitives between the rounded corners*
20,1,$1+$1,$2,$3,$4,$5,0*
20,1,$1+$1,$4,$5,$6,$7,0*
20,1,$1+$1,$6,$7,$8,$9,0*
20,1,$1+$1,$8,$9,$2,$3,0*%
G04 Aperture macros list end*
%TA.AperFunction,SMDPad,CuDef*%
%ADD10RoundRect,0.250000X-0.450000X0.262500X-0.450000X-0.262500X0.450000X-0.262500X0.450000X0.262500X0*%
%TD*%
%TA.AperFunction,SMDPad,CuDef*%
%ADD11RoundRect,0.150000X0.587500X0.150000X-0.587500X0.150000X-0.587500X-0.150000X0.587500X-0.150000X0*%
%TD*%
%TA.AperFunction,SMDPad,CuDef*%
%ADD12R,2.200000X1.100000*%
%TD*%
%TA.AperFunction,SMDPad,CuDef*%
%ADD13RoundRect,0.550000X0.650000X0.000010X-0.650000X0.000010X-0.650000X-0.000010X0.650000X-0.000010X0*%
%TD*%
%TA.AperFunction,SMDPad,CuDef*%
%ADD14C,6.000000*%
%TD*%
%TA.AperFunction,SMDPad,CuDef*%
%ADD15RoundRect,0.250000X0.450000X-0.262500X0.450000X0.262500X-0.450000X0.262500X-0.450000X-0.262500X0*%
%TD*%
%TA.AperFunction,SMDPad,CuDef*%
%ADD16RoundRect,0.250000X0.625000X-0.312500X0.625000X0.312500X-0.625000X0.312500X-0.625000X-0.312500X0*%
%TD*%
%TA.AperFunction,SMDPad,CuDef*%
%ADD17RoundRect,0.250000X0.325000X0.650000X-0.325000X0.650000X-0.325000X-0.650000X0.325000X-0.650000X0*%
%TD*%
%TA.AperFunction,SMDPad,CuDef*%
%ADD18RoundRect,0.250000X-0.250000X-0.475000X0.250000X-0.475000X0.250000X0.475000X-0.250000X0.475000X0*%
%TD*%
%TA.AperFunction,SMDPad,CuDef*%
%ADD19RoundRect,0.250000X0.262500X0.450000X-0.262500X0.450000X-0.262500X-0.450000X0.262500X-0.450000X0*%
%TD*%
%TA.AperFunction,SMDPad,CuDef*%
%ADD20RoundRect,0.150000X-0.725000X-0.150000X0.725000X-0.150000X0.725000X0.150000X-0.725000X0.150000X0*%
%TD*%
%TA.AperFunction,SMDPad,CuDef*%
%ADD21R,1.100000X2.200000*%
%TD*%
%TA.AperFunction,SMDPad,CuDef*%
%ADD22RoundRect,0.550000X-0.000010X0.650000X-0.000010X-0.650000X0.000010X-0.650000X0.000010X0.650000X0*%
%TD*%
%TA.AperFunction,SMDPad,CuDef*%
%ADD23R,6.000000X3.000000*%
%TD*%
%TA.AperFunction,SMDPad,CuDef*%
%ADD24RoundRect,0.550000X-0.650000X-0.000010X0.650000X-0.000010X0.650000X0.000010X-0.650000X0.000010X0*%
%TD*%
%TA.AperFunction,SMDPad,CuDef*%
%ADD25RoundRect,0.250000X-0.262500X-0.450000X0.262500X-0.450000X0.262500X0.450000X-0.262500X0.450000X0*%
%TD*%
%TA.AperFunction,Conductor*%
%ADD26C,1.000000*%
%TD*%
%TA.AperFunction,Conductor*%
%ADD27C,0.500000*%
%TD*%
%TA.AperFunction,Conductor*%
%ADD28C,0.250000*%
%TD*%
G04 APERTURE END LIST*
D10*
%TO.P,R1,1*%
%TO.N,Net-(Q1-E)*%
X99000000Y-64087500D03*
%TO.P,R1,2*%
%TO.N,Net-(Q1-B)*%
X99000000Y-65912500D03*
%TD*%
D11*
%TO.P,Q2,1,B*%
%TO.N,Net-(Q2-B)*%
X96837500Y-71950000D03*
%TO.P,Q2,2,E*%
%TO.N,Net-(Q2-E)*%
X96837500Y-70050000D03*
%TO.P,Q2,3,C*%
%TO.N,GND*%
X94962500Y-71000000D03*
%TD*%
D12*
%TO.P,L3,1*%
%TO.N,Net-(L2-Pad8)*%
X124000000Y-81958330D03*
%TO.P,L3,2*%
%TO.N,Net-(L2-Pad7)*%
X124000000Y-80158330D03*
D13*
%TO.P,L3,3*%
%TO.N,Net-(L2-Pad6)*%
X124000000Y-78358330D03*
D12*
%TO.P,L3,4*%
%TO.N,Net-(L2-Pad5)*%
X124000000Y-76558330D03*
%TO.P,L3,5*%
%TO.N,Net-(L3-Pad5)*%
X111000000Y-76558330D03*
%TO.P,L3,6*%
%TO.N,Net-(L3-Pad6)*%
X111000000Y-78358330D03*
%TO.P,L3,7*%
%TO.N,Net-(L3-Pad7)*%
X111000000Y-80158330D03*
%TO.P,L3,8*%
%TO.N,Net-(L3-Pad8)*%
X111000000Y-81958330D03*
D14*
%TO.P,L3,9,GND*%
%TO.N,unconnected-(L3-GND-Pad9)*%
X117500000Y-79258330D03*
%TD*%
D15*
%TO.P,R12,1*%
%TO.N,Net-(Q1-B)*%
X92900000Y-65912500D03*
%TO.P,R12,2*%
%TO.N,Net-(U1-OUT_B)*%
X92900000Y-64087500D03*
%TD*%
D10*
%TO.P,R9,1*%
%TO.N,Net-(Q4-E)*%
X98900000Y-82087500D03*
%TO.P,R9,2*%
%TO.N,Net-(Q4-B)*%
X98900000Y-83912500D03*
%TD*%
D11*
%TO.P,Q1,1,B*%
%TO.N,Net-(Q1-B)*%
X96837500Y-65950000D03*
%TO.P,Q1,2,E*%
%TO.N,Net-(Q1-E)*%
X96837500Y-64050000D03*
%TO.P,Q1,3,C*%
%TO.N,GND*%
X94962500Y-65000000D03*
%TD*%
D16*
%TO.P,R8,1*%
%TO.N,Net-(L3-Pad7)*%
X104100000Y-78462500D03*
%TO.P,R8,2*%
%TO.N,Net-(Q3-E)*%
X104100000Y-75537500D03*
%TD*%
%TO.P,R7,1*%
%TO.N,Net-(L3-Pad7)*%
X101500000Y-78462500D03*
%TO.P,R7,2*%
%TO.N,Net-(Q3-E)*%
X101500000Y-75537500D03*
%TD*%
%TO.P,R11,1*%
%TO.N,Net-(L3-Pad8)*%
X104000000Y-84462500D03*
%TO.P,R11,2*%
%TO.N,Net-(Q4-E)*%
X104000000Y-81537500D03*
%TD*%
D11*
%TO.P,Q4,1,B*%
%TO.N,Net-(Q4-B)*%
X96837500Y-83950000D03*
%TO.P,Q4,2,E*%
%TO.N,Net-(Q4-E)*%
X96837500Y-82050000D03*
%TO.P,Q4,3,C*%
%TO.N,GND*%
X94962500Y-83000000D03*
%TD*%
D16*
%TO.P,R5,1*%
%TO.N,Net-(L3-Pad6)*%
X101370000Y-72485000D03*
%TO.P,R5,2*%
%TO.N,Net-(Q2-E)*%
X101370000Y-69560000D03*
%TD*%
D15*
%TO.P,R15,1*%
%TO.N,Net-(Q4-B)*%
X92900000Y-83912500D03*
%TO.P,R15,2*%
%TO.N,Net-(U1-OUT_W)*%
X92900000Y-82087500D03*
%TD*%
D17*
%TO.P,C1,1*%
%TO.N,+12V*%
X95475000Y-53000000D03*
%TO.P,C1,2*%
%TO.N,GND*%
X92525000Y-53000000D03*
%TD*%
D15*
%TO.P,R14,1*%
%TO.N,Net-(Q3-B)*%
X93000000Y-77912500D03*
%TO.P,R14,2*%
%TO.N,Net-(U1-OUT_R)*%
X93000000Y-76087500D03*
%TD*%
D16*
%TO.P,R2,1*%
%TO.N,Net-(L3-Pad5)*%
X104000000Y-66462500D03*
%TO.P,R2,2*%
%TO.N,Net-(Q1-E)*%
X104000000Y-63537500D03*
%TD*%
D18*
%TO.P,C2,1*%
%TO.N,Net-(U1-VDD)*%
X101550000Y-55000000D03*
%TO.P,C2,2*%
%TO.N,GND*%
X103450000Y-55000000D03*
%TD*%
D19*
%TO.P,R18,1*%
%TO.N,Net-(J2-Pin_2)*%
X103412500Y-60000000D03*
%TO.P,R18,2*%
%TO.N,Net-(U1-DOUT)*%
X101587500Y-60000000D03*
%TD*%
D16*
%TO.P,R10,1*%
%TO.N,Net-(L3-Pad8)*%
X101400000Y-84462500D03*
%TO.P,R10,2*%
%TO.N,Net-(Q4-E)*%
X101400000Y-81537500D03*
%TD*%
D20*
%TO.P,U1,1,OUT_R*%
%TO.N,Net-(U1-OUT_R)*%
X93662981Y-56595000D03*
%TO.P,U1,2,OUT_G*%
%TO.N,Net-(U1-OUT_G)*%
X93662981Y-57865000D03*
%TO.P,U1,3,OUT_B*%
%TO.N,Net-(U1-OUT_B)*%
X93662981Y-59135000D03*
%TO.P,U1,4,GND*%
%TO.N,GND*%
X93662981Y-60405000D03*
%TO.P,U1,5,DOUT*%
%TO.N,Net-(U1-DOUT)*%
X98812981Y-60405000D03*
%TO.P,U1,6,DIN*%
%TO.N,Net-(U1-DIN)*%
X98812981Y-59135000D03*
%TO.P,U1,7,VDD*%
%TO.N,Net-(U1-VDD)*%
X98812981Y-57865000D03*
%TO.P,U1,8,OUT_W*%
%TO.N,Net-(U1-OUT_W)*%
X98812981Y-56595000D03*
%TD*%
D16*
%TO.P,R3,1*%
%TO.N,Net-(L3-Pad5)*%
X101400000Y-66462500D03*
%TO.P,R3,2*%
%TO.N,Net-(Q1-E)*%
X101400000Y-63537500D03*
%TD*%
D21*
%TO.P,L2,1*%
%TO.N,Net-(L1-Pad8)*%
X139700000Y-61500000D03*
%TO.P,L2,2*%
%TO.N,Net-(L1-Pad7)*%
X137900000Y-61500000D03*
D22*
%TO.P,L2,3*%
%TO.N,Net-(L1-Pad6)*%
X136100000Y-61500000D03*
D21*
%TO.P,L2,4*%
%TO.N,Net-(L1-Pad5)*%
X134300000Y-61500000D03*
%TO.P,L2,5*%
%TO.N,Net-(L2-Pad5)*%
X134300000Y-74500000D03*
%TO.P,L2,6*%
%TO.N,Net-(L2-Pad6)*%
X136100000Y-74500000D03*
%TO.P,L2,7*%
%TO.N,Net-(L2-Pad7)*%
X137900000Y-74500000D03*
%TO.P,L2,8*%
%TO.N,Net-(L2-Pad8)*%
X139700000Y-74500000D03*
D14*
%TO.P,L2,9,GND*%
%TO.N,unconnected-(L2-GND-Pad9)*%
X137000000Y-68000000D03*
%TD*%
D10*
%TO.P,R4,1*%
%TO.N,Net-(Q2-E)*%
X99000000Y-70087500D03*
%TO.P,R4,2*%
%TO.N,Net-(Q2-B)*%
X99000000Y-71912500D03*
%TD*%
D23*
%TO.P,J1,1,Pin_1*%
%TO.N,+12V*%
X78620000Y-56180000D03*
%TO.P,J1,2,Pin_2*%
%TO.N,Net-(J1-Pin_2)*%
X78620000Y-60680000D03*
%TO.P,J1,3,Pin_3*%
%TO.N,GND*%
X78620000Y-65180000D03*
%TD*%
D12*
%TO.P,L1,1*%
%TO.N,+12V*%
X111000000Y-54041670D03*
%TO.P,L1,2*%
X111000000Y-55841670D03*
D24*
%TO.P,L1,3*%
X111000000Y-57641670D03*
D12*
%TO.P,L1,4*%
X111000000Y-59441670D03*
%TO.P,L1,5*%
%TO.N,Net-(L1-Pad5)*%
X124000000Y-59441670D03*
%TO.P,L1,6*%
%TO.N,Net-(L1-Pad6)*%
X124000000Y-57641670D03*
%TO.P,L1,7*%
%TO.N,Net-(L1-Pad7)*%
X124000000Y-55841670D03*
%TO.P,L1,8*%
%TO.N,Net-(L1-Pad8)*%
X124000000Y-54041670D03*
D14*
%TO.P,L1,9,GND*%
%TO.N,unconnected-(L1-GND-Pad9)*%
X117500000Y-56741670D03*
%TD*%
D10*
%TO.P,R6,1*%
%TO.N,Net-(Q3-E)*%
X99000000Y-76087500D03*
%TO.P,R6,2*%
%TO.N,Net-(Q3-B)*%
X99000000Y-77912500D03*
%TD*%
D11*
%TO.P,Q3,1,B*%
%TO.N,Net-(Q3-B)*%
X96937500Y-77950000D03*
%TO.P,Q3,2,E*%
%TO.N,Net-(Q3-E)*%
X96937500Y-76050000D03*
%TO.P,Q3,3,C*%
%TO.N,GND*%
X95062500Y-77000000D03*
%TD*%
D19*
%TO.P,R16,1*%
%TO.N,Net-(U1-VDD)*%
X99412500Y-53000000D03*
%TO.P,R16,2*%
%TO.N,+12V*%
X97587500Y-53000000D03*
%TD*%
D15*
%TO.P,R13,1*%
%TO.N,Net-(Q2-B)*%
X92900000Y-71912500D03*
%TO.P,R13,2*%
%TO.N,Net-(U1-OUT_G)*%
X92900000Y-70087500D03*
%TD*%
D16*
%TO.P,R19,1*%
%TO.N,Net-(L3-Pad6)*%
X103880000Y-72495000D03*
%TO.P,R19,2*%
%TO.N,Net-(Q2-E)*%
X103880000Y-69570000D03*
%TD*%
D25*
%TO.P,R17,1*%
%TO.N,Net-(U1-DIN)*%
X101587500Y-58000000D03*
%TO.P,R17,2*%
%TO.N,Net-(J1-Pin_2)*%
X103412500Y-58000000D03*
%TD*%
D23*
%TO.P,J2,1,Pin_1*%
%TO.N,+12V*%
X78570000Y-70570000D03*
%TO.P,J2,2,Pin_2*%
%TO.N,Net-(J2-Pin_2)*%
X78570000Y-75070000D03*
%TO.P,J2,3,Pin_3*%
%TO.N,GND*%
X78570000Y-79570000D03*
%TD*%
D26*
%TO.N,+12V*%
X84320000Y-67710000D02*
X84320000Y-59350000D01*
X111000000Y-59441670D02*
X111000000Y-57641670D01*
X84320000Y-59350000D02*
X81150000Y-56180000D01*
X111000000Y-57000000D02*
X111000000Y-54041670D01*
X110925480Y-56925480D02*
X111000000Y-57000000D01*
X82980000Y-56180000D02*
X84395000Y-54765000D01*
X78620000Y-56180000D02*
X82980000Y-56180000D01*
X95500000Y-50500000D02*
X107458330Y-50500000D01*
X84395000Y-54765000D02*
X88660000Y-50500000D01*
X88660000Y-50500000D02*
X95500000Y-50500000D01*
X95475000Y-53000000D02*
X95475000Y-50525000D01*
X81150000Y-56180000D02*
X78620000Y-56180000D01*
X81460000Y-70570000D02*
X84320000Y-67710000D01*
X97587500Y-53000000D02*
X95475000Y-53000000D01*
X82960000Y-56200000D02*
X84395000Y-54765000D01*
X78570000Y-70570000D02*
X81460000Y-70570000D01*
X107458330Y-50500000D02*
X111000000Y-54041670D01*
X95475000Y-50525000D02*
X95500000Y-50500000D01*
D27*
%TO.N,Net-(U1-VDD)*%
X99550000Y-53000000D02*
X101550000Y-55000000D01*
X99265830Y-57865000D02*
X101550000Y-55580830D01*
X101550000Y-55580830D02*
X101550000Y-55000000D01*
X98812981Y-57865000D02*
X99265830Y-57865000D01*
X99412500Y-53000000D02*
X99550000Y-53000000D01*
D28*
%TO.N,Net-(J1-Pin_2)*%
X113340000Y-84795718D02*
X113340000Y-71390000D01*
X73580000Y-64680000D02*
X73580000Y-83850000D01*
X111835718Y-86300000D02*
X113340000Y-84795718D01*
X73580000Y-83850000D02*
X76030000Y-86300000D01*
X114000480Y-70729520D02*
X114000480Y-64864084D01*
X76030000Y-86300000D02*
X111835718Y-86300000D01*
X113340000Y-71390000D02*
X114000480Y-70729520D01*
X77580000Y-60680000D02*
X73580000Y-64680000D01*
X114000480Y-64864084D02*
X107136396Y-58000000D01*
X107136396Y-58000000D02*
X103412500Y-58000000D01*
X78620000Y-60680000D02*
X77580000Y-60680000D01*
%TO.N,Net-(J2-Pin_2)*%
X74030000Y-83663604D02*
X74030000Y-76760000D01*
X112760000Y-71230000D02*
X112760000Y-84740000D01*
X103412500Y-60000000D02*
X108500000Y-60000000D01*
X113550480Y-70439520D02*
X112760000Y-71230000D01*
X113550480Y-65050480D02*
X113550480Y-70439520D01*
X112760000Y-84740000D02*
X111700000Y-85800000D01*
X75720000Y-75070000D02*
X78570000Y-75070000D01*
X76166396Y-85800000D02*
X74030000Y-83663604D01*
X74030000Y-76760000D02*
X75720000Y-75070000D01*
X111700000Y-85800000D02*
X76166396Y-85800000D01*
X108500000Y-60000000D02*
X113550480Y-65050480D01*
D27*
%TO.N,Net-(L1-Pad5)*%
X124000000Y-59441670D02*
X125208338Y-60650008D01*
X125208338Y-60650008D02*
X133450009Y-60650009D01*
X133450009Y-60650009D02*
X134300000Y-61500000D01*
%TO.N,Net-(L1-Pad6)*%
X126858819Y-59950489D02*
X135450489Y-59950489D01*
X124550000Y-57641670D02*
X126858819Y-59950489D01*
X124000000Y-57641670D02*
X124550000Y-57641670D01*
X135450489Y-59950489D02*
X136100000Y-60600000D01*
X136100000Y-60600000D02*
X136100000Y-61500000D01*
%TO.N,Net-(L1-Pad7)*%
X127959299Y-59250969D02*
X134500000Y-59250969D01*
X136149520Y-59199520D02*
X137900000Y-60950000D01*
X124000000Y-55841670D02*
X124749022Y-55841670D01*
X136200969Y-59250969D02*
X137900000Y-60950000D01*
X124550000Y-55841670D02*
X127907850Y-59199520D01*
X134500000Y-59250969D02*
X136200969Y-59250969D01*
X137900000Y-60950000D02*
X137900000Y-61500000D01*
X124000000Y-55841670D02*
X124550000Y-55841670D01*
X127907850Y-59199520D02*
X127959299Y-59250969D01*
%TO.N,Net-(L1-Pad8)*%
X137500001Y-58500001D02*
X139700000Y-60700000D01*
X124000000Y-54041670D02*
X124749022Y-54041670D01*
X134551448Y-58500001D02*
X137500001Y-58500001D01*
X134500000Y-58551449D02*
X134551448Y-58500001D01*
X129258801Y-58551449D02*
X134500000Y-58551449D01*
X139700000Y-60700000D02*
X139700000Y-61500000D01*
X124749022Y-54041670D02*
X129258801Y-58551449D01*
%TO.N,Net-(L2-Pad5)*%
X129098560Y-75401440D02*
X127941670Y-76558330D01*
X127941670Y-76558330D02*
X124000000Y-76558330D01*
X134300000Y-74500000D02*
X134300000Y-74700000D01*
X134300000Y-74700000D02*
X133598560Y-75401440D01*
X133598560Y-75401440D02*
X129098560Y-75401440D01*
%TO.N,Net-(L2-Pad6)*%
X129399040Y-76100960D02*
X127141670Y-78358330D01*
X136100000Y-75249022D02*
X135248062Y-76100960D01*
X127141670Y-78358330D02*
X124000000Y-78358330D01*
X136100000Y-74500000D02*
X136100000Y-75249022D01*
X135248062Y-76100960D02*
X129399040Y-76100960D01*
%TO.N,Net-(L2-Pad7)*%
X137900000Y-74500000D02*
X137900000Y-75860730D01*
X136960250Y-76800480D02*
X129699520Y-76800480D01*
X129699520Y-76800480D02*
X126341670Y-80158330D01*
X137900000Y-75860730D02*
X136960250Y-76800480D01*
X126341670Y-80158330D02*
X124000000Y-80158330D01*
%TO.N,Net-(L2-Pad8)*%
X124000000Y-81958330D02*
X125541670Y-81958330D01*
X125541670Y-81958330D02*
X130000000Y-77500000D01*
X130000000Y-77500000D02*
X138000000Y-77500000D01*
X138000000Y-77500000D02*
X139700000Y-75800000D01*
X139700000Y-75800000D02*
X139700000Y-74500000D01*
%TO.N,Net-(L3-Pad5)*%
X101400000Y-66462500D02*
X104000000Y-66462500D01*
D26*
X111000000Y-76558330D02*
X110558330Y-76558330D01*
D27*
X111000000Y-75470000D02*
X106240000Y-70710000D01*
X106240000Y-70710000D02*
X106240000Y-68702500D01*
X106240000Y-68702500D02*
X104000000Y-66462500D01*
X111000000Y-76558330D02*
X111000000Y-75470000D01*
%TO.N,Net-(L3-Pad6)*%
X101370000Y-72485000D02*
X103870000Y-72485000D01*
X107260000Y-76570000D02*
X109048330Y-78358330D01*
X103880000Y-72495000D02*
X104795000Y-72495000D01*
X109048330Y-78358330D02*
X111000000Y-78358330D01*
X103870000Y-72485000D02*
X103880000Y-72495000D01*
X104795000Y-72495000D02*
X107260000Y-74960000D01*
X107260000Y-74960000D02*
X107260000Y-76570000D01*
%TO.N,Net-(L3-Pad7)*%
X106412500Y-78462500D02*
X104100000Y-78462500D01*
X101500000Y-78462500D02*
X104100000Y-78462500D01*
X111000000Y-80158330D02*
X108108330Y-80158330D01*
X108108330Y-80158330D02*
X106412500Y-78462500D01*
%TO.N,Net-(L3-Pad8)*%
X111000000Y-81958330D02*
X109211670Y-81958330D01*
X106707500Y-84462500D02*
X104000000Y-84462500D01*
X109211670Y-81958330D02*
X106707500Y-84462500D01*
X101400000Y-84462500D02*
X104000000Y-84462500D01*
%TO.N,Net-(Q1-B)*%
X96837500Y-65950000D02*
X98962500Y-65950000D01*
X96800000Y-65912500D02*
X96837500Y-65950000D01*
X98962500Y-65950000D02*
X99000000Y-65912500D01*
X92900000Y-65912500D02*
X96800000Y-65912500D01*
%TO.N,Net-(Q1-E)*%
X99000000Y-64087500D02*
X99627500Y-63460000D01*
X101400000Y-63537500D02*
X104000000Y-63537500D01*
X96837500Y-64050000D02*
X98962500Y-64050000D01*
X99627500Y-63460000D02*
X101322500Y-63460000D01*
D28*
X96875000Y-64087500D02*
X96837500Y-64050000D01*
D27*
X98962500Y-64050000D02*
X99000000Y-64087500D01*
X101322500Y-63460000D02*
X101400000Y-63537500D01*
%TO.N,Net-(Q2-B)*%
X92900000Y-71912500D02*
X96800000Y-71912500D01*
X96837500Y-71950000D02*
X98962500Y-71950000D01*
X98962500Y-71950000D02*
X99000000Y-71912500D01*
X96800000Y-71912500D02*
X96837500Y-71950000D01*
%TO.N,Net-(Q2-E)*%
X96837500Y-70050000D02*
X98962500Y-70050000D01*
X98962500Y-70050000D02*
X99000000Y-70087500D01*
X101370000Y-69560000D02*
X99527500Y-69560000D01*
X101380000Y-69570000D02*
X101370000Y-69560000D01*
X99527500Y-69560000D02*
X99000000Y-70087500D01*
X103880000Y-69570000D02*
X101380000Y-69570000D01*
%TO.N,Net-(Q3-E)*%
X99000000Y-76087500D02*
X99337500Y-75750000D01*
X96937500Y-76050000D02*
X98962500Y-76050000D01*
X98962500Y-76050000D02*
X99000000Y-76087500D01*
X101500000Y-75537500D02*
X104100000Y-75537500D01*
X99337500Y-75750000D02*
X101287500Y-75750000D01*
X101287500Y-75750000D02*
X101500000Y-75537500D01*
%TO.N,Net-(Q3-B)*%
X93000000Y-77912500D02*
X99000000Y-77912500D01*
%TO.N,Net-(Q4-E)*%
X96875000Y-82087500D02*
X96837500Y-82050000D01*
X101400000Y-81537500D02*
X99450000Y-81537500D01*
X104000000Y-81537500D02*
X101400000Y-81537500D01*
X99450000Y-81537500D02*
X98900000Y-82087500D01*
X98900000Y-82087500D02*
X96875000Y-82087500D01*
%TO.N,Net-(Q4-B)*%
X96875000Y-83912500D02*
X96837500Y-83950000D01*
X92937500Y-83950000D02*
X92900000Y-83912500D01*
X98900000Y-83912500D02*
X96875000Y-83912500D01*
X96837500Y-83950000D02*
X92937500Y-83950000D01*
D28*
%TO.N,Net-(U1-OUT_B)*%
X92900000Y-64087500D02*
X92900000Y-64379900D01*
D27*
X89500000Y-60500000D02*
X90865000Y-59135000D01*
X90865000Y-59135000D02*
X93662981Y-59135000D01*
X89500000Y-62250000D02*
X89500000Y-60500000D01*
X91337500Y-64087500D02*
X89500000Y-62250000D01*
X92900000Y-64087500D02*
X91337500Y-64087500D01*
%TO.N,Net-(U1-OUT_G)*%
X88500000Y-68240000D02*
X88500000Y-60000000D01*
X90347500Y-70087500D02*
X88500000Y-68240000D01*
X92900000Y-70087500D02*
X90347500Y-70087500D01*
X88500000Y-60000000D02*
X90635000Y-57865000D01*
X90635000Y-57865000D02*
X93662981Y-57865000D01*
%TO.N,Net-(U1-OUT_R)*%
X90405000Y-56595000D02*
X87500000Y-59500000D01*
X93662981Y-56595000D02*
X90405000Y-56595000D01*
X88587500Y-76087500D02*
X87500000Y-75000000D01*
X93000000Y-76087500D02*
X88587500Y-76087500D01*
X87500000Y-59500000D02*
X87500000Y-75000000D01*
%TO.N,Net-(U1-OUT_W)*%
X88587500Y-82087500D02*
X86500000Y-80000000D01*
X92900000Y-82087500D02*
X88587500Y-82087500D01*
X97595000Y-56595000D02*
X98812981Y-56595000D01*
X90000000Y-55500000D02*
X96500000Y-55500000D01*
X86500000Y-59000000D02*
X90000000Y-55500000D01*
X86500000Y-80000000D02*
X86500000Y-59000000D01*
X96500000Y-55500000D02*
X97595000Y-56595000D01*
%TO.N,Net-(U1-DIN)*%
X98812981Y-59135000D02*
X100452500Y-59135000D01*
X100452500Y-59135000D02*
X101587500Y-58000000D01*
%TO.N,Net-(U1-DOUT)*%
X101182500Y-60405000D02*
X101587500Y-60000000D01*
X98812981Y-60405000D02*
X101182500Y-60405000D01*
%TD*%
%TA.AperFunction,NonConductor*%
G36*
X121107277Y-75208137D02*
G01*
X121175084Y-75229170D01*
X121220758Y-75283525D01*
X121231355Y-75332731D01*
X121318587Y-83232096D01*
X121299339Y-83300433D01*
X121246200Y-83347516D01*
X121192089Y-83359486D01*
X113975494Y-83330503D01*
X113907454Y-83310228D01*
X113861177Y-83256386D01*
X113850000Y-83204504D01*
X113850000Y-79258326D01*
X114240720Y-79258326D01*
X114240720Y-79258333D01*
X114259826Y-79610720D01*
X114316918Y-79958974D01*
X114411332Y-80299021D01*
X114411333Y-80299023D01*
X114541958Y-80626866D01*
X114707263Y-80938664D01*
X114905310Y-81230762D01*
X115133777Y-81499735D01*
X115389972Y-81742417D01*
X115389987Y-81742430D01*
X115670934Y-81956000D01*
X115973326Y-82137943D01*
X116089307Y-82191601D01*
X116293604Y-82286120D01*
X116293616Y-82286125D01*
X116628050Y-82398809D01*
X116972707Y-82474674D01*
X117323546Y-82512830D01*
X117323554Y-82512830D01*
X117676446Y-82512830D01*
X117676454Y-82512830D01*
X118027293Y-82474674D01*
X118371950Y-82398809D01*
X118706384Y-82286125D01*
X119026674Y-82137943D01*
X119329066Y-81956000D01*
X119610013Y-81742430D01*
X119866223Y-81499735D01*
X120094690Y-81230762D01*
X120292737Y-80938664D01*
X120458042Y-80626866D01*
X120588667Y-80299023D01*
X120683080Y-79958979D01*
X120740174Y-79610720D01*
X120759280Y-79258330D01*
X120740174Y-78905940D01*
X120683080Y-78557681D01*
X120588667Y-78217637D01*
X120458042Y-77889794D01*
X120292737Y-77577996D01*
X120094690Y-77285898D01*
X119866223Y-77016925D01*
X119866222Y-77016924D01*
X119610027Y-76774242D01*
X119610012Y-76774229D01*
X119329070Y-76560663D01*
X119329064Y-76560659D01*
X119026674Y-76378717D01*
X119026668Y-76378714D01*
X118706395Y-76230539D01*
X118706383Y-76230534D01*
X118371959Y-76117854D01*
X118371958Y-76117853D01*
X118371950Y-76117851D01*
X118325224Y-76107565D01*
X118027305Y-76041988D01*
X118027281Y-76041984D01*
X117676461Y-76003830D01*
X117676454Y-76003830D01*
X117323546Y-76003830D01*
X117323538Y-76003830D01*
X116972718Y-76041984D01*
X116972694Y-76041988D01*
X116628054Y-76117850D01*
X116628040Y-76117854D01*
X116293616Y-76230534D01*
X116293604Y-76230539D01*
X115973331Y-76378714D01*
X115973324Y-76378718D01*
X115670935Y-76560659D01*
X115670929Y-76560663D01*
X115389987Y-76774229D01*
X115389972Y-76774242D01*
X115133777Y-77016924D01*
X114905308Y-77285900D01*
X114707262Y-77577996D01*
X114707260Y-77578000D01*
X114541957Y-77889796D01*
X114541953Y-77889805D01*
X114411332Y-78217638D01*
X114316918Y-78557685D01*
X114259826Y-78905939D01*
X114240720Y-79258326D01*
X113850000Y-79258326D01*
X113850000Y-75295328D01*
X113870002Y-75227207D01*
X113923658Y-75180714D01*
X113964874Y-75169821D01*
X114633500Y-75110575D01*
X114646528Y-75110099D01*
X121107277Y-75208137D01*
G37*
%TD.AperFunction*%
%TA.AperFunction,NonConductor*%
G36*
X141030433Y-64210660D02*
G01*
X141077516Y-64263799D01*
X141089486Y-64317910D01*
X141060504Y-71534506D01*
X141040229Y-71602546D01*
X140986387Y-71648823D01*
X140934505Y-71660000D01*
X133025329Y-71660000D01*
X132957208Y-71639998D01*
X132910715Y-71586342D01*
X132899821Y-71545121D01*
X132840576Y-70876501D01*
X132840099Y-70863468D01*
X132845856Y-70484087D01*
X132883551Y-67999996D01*
X133740720Y-67999996D01*
X133740720Y-68000003D01*
X133759826Y-68352390D01*
X133816918Y-68700644D01*
X133911332Y-69040691D01*
X133911333Y-69040693D01*
X134041958Y-69368536D01*
X134207263Y-69680334D01*
X134405310Y-69972432D01*
X134633777Y-70241405D01*
X134889972Y-70484087D01*
X134889987Y-70484100D01*
X135170934Y-70697670D01*
X135473326Y-70879613D01*
X135589307Y-70933271D01*
X135793604Y-71027790D01*
X135793616Y-71027795D01*
X136128050Y-71140479D01*
X136472707Y-71216344D01*
X136823546Y-71254500D01*
X136823554Y-71254500D01*
X137176446Y-71254500D01*
X137176454Y-71254500D01*
X137527293Y-71216344D01*
X137871950Y-71140479D01*
X138206384Y-71027795D01*
X138526674Y-70879613D01*
X138829066Y-70697670D01*
X139110013Y-70484100D01*
X139366223Y-70241405D01*
X139594690Y-69972432D01*
X139792737Y-69680334D01*
X139958042Y-69368536D01*
X140088667Y-69040693D01*
X140183080Y-68700649D01*
X140240174Y-68352390D01*
X140259280Y-68000000D01*
X140240174Y-67647610D01*
X140183080Y-67299351D01*
X140088667Y-66959307D01*
X139958042Y-66631464D01*
X139792737Y-66319666D01*
X139594690Y-66027568D01*
X139366223Y-65758595D01*
X139366222Y-65758594D01*
X139110027Y-65515912D01*
X139110012Y-65515899D01*
X138829070Y-65302333D01*
X138829064Y-65302329D01*
X138526674Y-65120387D01*
X138526668Y-65120384D01*
X138206395Y-64972209D01*
X138206383Y-64972204D01*
X137871959Y-64859524D01*
X137871958Y-64859523D01*
X137871950Y-64859521D01*
X137825224Y-64849235D01*
X137527305Y-64783658D01*
X137527281Y-64783654D01*
X137176461Y-64745500D01*
X137176454Y-64745500D01*
X136823546Y-64745500D01*
X136823538Y-64745500D01*
X136472718Y-64783654D01*
X136472694Y-64783658D01*
X136128054Y-64859520D01*
X136128040Y-64859524D01*
X135793616Y-64972204D01*
X135793604Y-64972209D01*
X135473331Y-65120384D01*
X135473324Y-65120388D01*
X135170935Y-65302329D01*
X135170929Y-65302333D01*
X134889987Y-65515899D01*
X134889972Y-65515912D01*
X134633777Y-65758594D01*
X134405308Y-66027570D01*
X134207262Y-66319666D01*
X134207260Y-66319670D01*
X134041957Y-66631466D01*
X134041953Y-66631475D01*
X133911332Y-66959308D01*
X133816918Y-67299355D01*
X133759826Y-67647609D01*
X133740720Y-67999996D01*
X132883551Y-67999996D01*
X132938137Y-64402721D01*
X132959170Y-64334915D01*
X133013525Y-64289241D01*
X133062727Y-64278644D01*
X140962097Y-64191412D01*
X141030433Y-64210660D01*
G37*
%TD.AperFunction*%
%TA.AperFunction,Conductor*%
%TO.N,GND*%
G36*
X143003801Y-48500730D02*
G01*
X143033105Y-48502502D01*
X143293684Y-48518264D01*
X143308765Y-48520095D01*
X143590682Y-48571758D01*
X143605429Y-48575393D01*
X143879071Y-48660663D01*
X143893283Y-48666054D01*
X144154624Y-48783674D01*
X144168090Y-48790740D01*
X144413367Y-48939016D01*
X144425866Y-48947643D01*
X144651485Y-49124404D01*
X144662865Y-49134487D01*
X144865512Y-49337134D01*
X144875596Y-49348515D01*
X145052353Y-49574130D01*
X145060985Y-49586635D01*
X145174551Y-49774495D01*
X145209255Y-49831903D01*
X145216325Y-49845375D01*
X145333943Y-50106711D01*
X145339339Y-50120937D01*
X145424602Y-50394554D01*
X145428243Y-50409328D01*
X145479902Y-50691222D01*
X145481736Y-50706326D01*
X145499270Y-50996197D01*
X145499500Y-51003805D01*
X145499500Y-84996194D01*
X145499270Y-85003802D01*
X145481736Y-85293673D01*
X145479902Y-85308777D01*
X145428243Y-85590671D01*
X145424602Y-85605445D01*
X145339339Y-85879062D01*
X145333943Y-85893288D01*
X145216325Y-86154624D01*
X145209255Y-86168096D01*
X145060990Y-86413357D01*
X145052347Y-86425877D01*
X144971846Y-86528630D01*
X144875602Y-86651477D01*
X144865512Y-86662865D01*
X144662865Y-86865512D01*
X144651477Y-86875602D01*
X144425880Y-87052346D01*
X144413357Y-87060990D01*
X144168096Y-87209255D01*
X144154624Y-87216325D01*
X143893288Y-87333943D01*
X143879062Y-87339339D01*
X143605445Y-87424602D01*
X143590671Y-87428243D01*
X143308777Y-87479902D01*
X143293673Y-87481736D01*
X143003802Y-87499270D01*
X142996194Y-87499500D01*
X68003806Y-87499500D01*
X67996198Y-87499270D01*
X67706326Y-87481736D01*
X67691222Y-87479902D01*
X67409328Y-87428243D01*
X67394558Y-87424603D01*
X67120937Y-87339339D01*
X67106711Y-87333943D01*
X66845375Y-87216325D01*
X66831903Y-87209255D01*
X66586635Y-87060985D01*
X66574130Y-87052353D01*
X66348515Y-86875596D01*
X66337134Y-86865512D01*
X66134487Y-86662865D01*
X66124404Y-86651485D01*
X65947643Y-86425866D01*
X65939016Y-86413367D01*
X65790740Y-86168090D01*
X65783674Y-86154624D01*
X65727715Y-86030289D01*
X65666054Y-85893283D01*
X65660663Y-85879071D01*
X65575393Y-85605429D01*
X65571758Y-85590682D01*
X65520095Y-85308765D01*
X65518264Y-85293684D01*
X65500730Y-85003801D01*
X65500500Y-84996194D01*
X65500500Y-84878709D01*
X66149500Y-84878709D01*
X66149500Y-85121290D01*
X66181160Y-85361782D01*
X66243944Y-85596095D01*
X66243945Y-85596097D01*
X66243946Y-85596100D01*
X66336776Y-85820212D01*
X66336777Y-85820213D01*
X66336782Y-85820224D01*
X66458061Y-86030285D01*
X66458063Y-86030288D01*
X66458064Y-86030289D01*
X66605735Y-86222738D01*
X66605739Y-86222742D01*
X66605744Y-86222748D01*
X66777251Y-86394255D01*
X66777256Y-86394259D01*
X66777262Y-86394265D01*
X66969711Y-86541936D01*
X66969714Y-86541938D01*
X67179775Y-86663217D01*
X67179779Y-86663218D01*
X67179788Y-86663224D01*
X67403900Y-86756054D01*
X67638211Y-86818838D01*
X67638215Y-86818838D01*
X67638217Y-86818839D01*
X67700202Y-86826999D01*
X67878712Y-86850500D01*
X67878719Y-86850500D01*
X68121281Y-86850500D01*
X68121288Y-86850500D01*
X68338637Y-86821885D01*
X68361782Y-86818839D01*
X68361782Y-86818838D01*
X68361789Y-86818838D01*
X68596100Y-86756054D01*
X68820212Y-86663224D01*
X69030289Y-86541936D01*
X69222738Y-86394265D01*
X69394265Y-86222738D01*
X69541936Y-86030289D01*
X69663224Y-85820212D01*
X69756054Y-85596100D01*
X69818838Y-85361789D01*
X69850500Y-85121288D01*
X69850500Y-84878712D01*
X69818838Y-84638211D01*
X69756054Y-84403900D01*
X69663224Y-84179788D01*
X69663218Y-84179779D01*
X69663217Y-84179775D01*
X69541938Y-83969714D01*
X69532949Y-83957999D01*
X69394265Y-83777262D01*
X69394259Y-83777256D01*
X69394255Y-83777251D01*
X69222748Y-83605744D01*
X69222742Y-83605739D01*
X69222738Y-83605735D01*
X69030289Y-83458064D01*
X69030288Y-83458063D01*
X69030285Y-83458061D01*
X68820224Y-83336782D01*
X68820216Y-83336778D01*
X68820212Y-83336776D01*
X68596100Y-83243946D01*
X68596097Y-83243945D01*
X68596095Y-83243944D01*
X68361782Y-83181160D01*
X68121290Y-83149500D01*
X68121288Y-83149500D01*
X67878712Y-83149500D01*
X67878709Y-83149500D01*
X67638217Y-83181160D01*
X67403904Y-83243944D01*
X67403900Y-83243946D01*
X67262659Y-83302450D01*
X67179786Y-83336777D01*
X67179775Y-83336782D01*
X66969714Y-83458061D01*
X66777262Y-83605735D01*
X66777251Y-83605744D01*
X66605744Y-83777251D01*
X66605735Y-83777262D01*
X66458061Y-83969714D01*
X66336782Y-84179775D01*
X66336777Y-84179786D01*
X66336776Y-84179788D01*
X66318769Y-84223262D01*
X66243946Y-84403900D01*
X66243944Y-84403904D01*
X66181160Y-84638217D01*
X66149500Y-84878709D01*
X65500500Y-84878709D01*
X65500500Y-78209648D01*
X67069500Y-78209648D01*
X67069500Y-78414352D01*
X67101523Y-78616534D01*
X67101524Y-78616538D01*
X67148797Y-78762031D01*
X67164780Y-78811219D01*
X67227033Y-78933397D01*
X67257714Y-78993612D01*
X67378034Y-79159220D01*
X67522779Y-79303965D01*
X67611737Y-79368596D01*
X67688390Y-79424287D01*
X67870781Y-79517220D01*
X68065466Y-79580477D01*
X68267648Y-79612500D01*
X68267651Y-79612500D01*
X68472349Y-79612500D01*
X68472352Y-79612500D01*
X68674534Y-79580477D01*
X68869219Y-79517220D01*
X69051610Y-79424287D01*
X69217219Y-79303966D01*
X69361966Y-79159219D01*
X69482287Y-78993610D01*
X69575220Y-78811219D01*
X69638477Y-78616534D01*
X69670500Y-78414352D01*
X69670500Y-78209648D01*
X69638477Y-78007466D01*
X69575220Y-77812781D01*
X69482287Y-77630390D01*
X69461476Y-77601746D01*
X69361965Y-77464779D01*
X69217220Y-77320034D01*
X69051612Y-77199714D01*
X68982008Y-77164249D01*
X68869219Y-77106780D01*
X68869216Y-77106779D01*
X68869214Y-77106778D01*
X68674538Y-77043524D01*
X68674536Y-77043523D01*
X68674534Y-77043523D01*
X68472352Y-77011500D01*
X68267648Y-77011500D01*
X68065466Y-77043523D01*
X68065464Y-77043523D01*
X68065461Y-77043524D01*
X67870785Y-77106778D01*
X67870779Y-77106781D01*
X67688387Y-77199714D01*
X67522779Y-77320034D01*
X67378034Y-77464779D01*
X67257714Y-77630387D01*
X67164781Y-77812779D01*
X67164778Y-77812785D01*
X67101524Y-78007461D01*
X67101523Y-78007464D01*
X67101523Y-78007466D01*
X67069500Y-78209648D01*
X65500500Y-78209648D01*
X65500500Y-74353648D01*
X67069500Y-74353648D01*
X67069500Y-74558352D01*
X67098087Y-74738839D01*
X67101524Y-74760538D01*
X67162650Y-74948666D01*
X67164780Y-74955219D01*
X67219304Y-75062228D01*
X67257714Y-75137612D01*
X67378034Y-75303220D01*
X67522779Y-75447965D01*
X67657026Y-75545500D01*
X67688390Y-75568287D01*
X67870781Y-75661220D01*
X68065466Y-75724477D01*
X68267648Y-75756500D01*
X68267651Y-75756500D01*
X68472349Y-75756500D01*
X68472352Y-75756500D01*
X68674534Y-75724477D01*
X68869219Y-75661220D01*
X69051610Y-75568287D01*
X69217219Y-75447966D01*
X69361966Y-75303219D01*
X69482287Y-75137610D01*
X69575220Y-74955219D01*
X69638477Y-74760534D01*
X69670500Y-74558352D01*
X69670500Y-74353648D01*
X69638477Y-74151466D01*
X69575220Y-73956781D01*
X69482287Y-73774390D01*
X69361966Y-73608781D01*
X69361965Y-73608779D01*
X69217220Y-73464034D01*
X69051612Y-73343714D01*
X68989364Y-73311997D01*
X68869219Y-73250780D01*
X68869216Y-73250779D01*
X68869214Y-73250778D01*
X68674538Y-73187524D01*
X68674536Y-73187523D01*
X68674534Y-73187523D01*
X68472352Y-73155500D01*
X68267648Y-73155500D01*
X68065466Y-73187523D01*
X68065464Y-73187523D01*
X68065461Y-73187524D01*
X67870785Y-73250778D01*
X67870779Y-73250781D01*
X67688387Y-73343714D01*
X67522779Y-73464034D01*
X67378034Y-73608779D01*
X67257714Y-73774387D01*
X67164781Y-73956779D01*
X67164778Y-73956785D01*
X67101524Y-74151461D01*
X67101523Y-74151464D01*
X67101523Y-74151466D01*
X67069500Y-74353648D01*
X65500500Y-74353648D01*
X65500500Y-70497648D01*
X67069500Y-70497648D01*
X67069500Y-70702352D01*
X67101523Y-70904534D01*
X67101524Y-70904538D01*
X67159678Y-71083519D01*
X67164780Y-71099219D01*
X67217485Y-71202658D01*
X67257714Y-71281612D01*
X67378034Y-71447220D01*
X67522779Y-71591965D01*
X67650089Y-71684460D01*
X67688390Y-71712287D01*
X67870781Y-71805220D01*
X68065466Y-71868477D01*
X68267648Y-71900500D01*
X68267651Y-71900500D01*
X68472349Y-71900500D01*
X68472352Y-71900500D01*
X68674534Y-71868477D01*
X68869219Y-71805220D01*
X69051610Y-71712287D01*
X69217219Y-71591966D01*
X69361966Y-71447219D01*
X69482287Y-71281610D01*
X69575220Y-71099219D01*
X69638477Y-70904534D01*
X69670500Y-70702352D01*
X69670500Y-70497648D01*
X69638477Y-70295466D01*
X69575220Y-70100781D01*
X69482287Y-69918390D01*
X69445798Y-69868167D01*
X69361965Y-69752779D01*
X69217220Y-69608034D01*
X69051612Y-69487714D01*
X69006240Y-69464596D01*
X68869219Y-69394780D01*
X68869216Y-69394779D01*
X68869214Y-69394778D01*
X68674538Y-69331524D01*
X68674536Y-69331523D01*
X68674534Y-69331523D01*
X68472352Y-69299500D01*
X68267648Y-69299500D01*
X68065466Y-69331523D01*
X68065464Y-69331523D01*
X68065461Y-69331524D01*
X67870785Y-69394778D01*
X67870779Y-69394781D01*
X67688387Y-69487714D01*
X67522779Y-69608034D01*
X67378034Y-69752779D01*
X67257714Y-69918387D01*
X67164781Y-70100779D01*
X67164778Y-70100785D01*
X67101524Y-70295461D01*
X67101523Y-70295464D01*
X67101523Y-70295466D01*
X67069500Y-70497648D01*
X65500500Y-70497648D01*
X65500500Y-65129648D01*
X67129500Y-65129648D01*
X67129500Y-65334352D01*
X67161523Y-65536534D01*
X67161524Y-65536538D01*
X67215499Y-65702657D01*
X67224780Y-65731219D01*
X67224781Y-65731220D01*
X67317714Y-65913612D01*
X67438034Y-66079220D01*
X67582779Y-66223965D01*
X67664515Y-66283349D01*
X67748390Y-66344287D01*
X67930781Y-66437220D01*
X68125466Y-66500477D01*
X68327648Y-66532500D01*
X68327651Y-66532500D01*
X68532349Y-66532500D01*
X68532352Y-66532500D01*
X68734534Y-66500477D01*
X68929219Y-66437220D01*
X69111610Y-66344287D01*
X69277219Y-66223966D01*
X69421966Y-66079219D01*
X69542287Y-65913610D01*
X69635220Y-65731219D01*
X69698477Y-65536534D01*
X69730500Y-65334352D01*
X69730500Y-65129648D01*
X69698477Y-64927466D01*
X69635220Y-64732781D01*
X69582869Y-64630036D01*
X73200499Y-64630036D01*
X73200499Y-64740112D01*
X73200500Y-64740125D01*
X73200500Y-83792303D01*
X73200499Y-83792321D01*
X73200499Y-83899963D01*
X73216050Y-83957997D01*
X73216050Y-83957999D01*
X73226362Y-83996483D01*
X73276321Y-84083015D01*
X73276329Y-84083025D01*
X73354156Y-84160852D01*
X73354170Y-84160864D01*
X75721913Y-86528607D01*
X75721934Y-86528630D01*
X75796974Y-86603670D01*
X75796979Y-86603674D01*
X75796981Y-86603676D01*
X75883516Y-86653637D01*
X75883520Y-86653639D01*
X75980034Y-86679500D01*
X75980038Y-86679501D01*
X76087680Y-86679501D01*
X76087696Y-86679500D01*
X111778022Y-86679500D01*
X111778038Y-86679501D01*
X111785756Y-86679501D01*
X111885680Y-86679501D01*
X111967880Y-86657475D01*
X111982200Y-86653638D01*
X111982200Y-86653637D01*
X111982203Y-86653637D01*
X112043026Y-86618519D01*
X112068737Y-86603676D01*
X112139394Y-86533019D01*
X112149761Y-86522652D01*
X112149768Y-86522642D01*
X113562642Y-85109768D01*
X113562652Y-85109761D01*
X113643670Y-85028743D01*
X113643676Y-85028737D01*
X113693638Y-84942200D01*
X113699103Y-84921802D01*
X113710650Y-84878709D01*
X141149500Y-84878709D01*
X141149500Y-85121290D01*
X141181160Y-85361782D01*
X141243944Y-85596095D01*
X141243945Y-85596097D01*
X141243946Y-85596100D01*
X141336776Y-85820212D01*
X141336777Y-85820213D01*
X141336782Y-85820224D01*
X141458061Y-86030285D01*
X141458063Y-86030288D01*
X141458064Y-86030289D01*
X141605735Y-86222738D01*
X141605739Y-86222742D01*
X141605744Y-86222748D01*
X141777251Y-86394255D01*
X141777256Y-86394259D01*
X141777262Y-86394265D01*
X141969711Y-86541936D01*
X141969714Y-86541938D01*
X142179775Y-86663217D01*
X142179779Y-86663218D01*
X142179788Y-86663224D01*
X142403900Y-86756054D01*
X142638211Y-86818838D01*
X142638215Y-86818838D01*
X142638217Y-86818839D01*
X142700202Y-86826999D01*
X142878712Y-86850500D01*
X142878719Y-86850500D01*
X143121281Y-86850500D01*
X143121288Y-86850500D01*
X143338637Y-86821885D01*
X143361782Y-86818839D01*
X143361782Y-86818838D01*
X143361789Y-86818838D01*
X143596100Y-86756054D01*
X143820212Y-86663224D01*
X144030289Y-86541936D01*
X144222738Y-86394265D01*
X144394265Y-86222738D01*
X144541936Y-86030289D01*
X144663224Y-85820212D01*
X144756054Y-85596100D01*
X144818838Y-85361789D01*
X144850500Y-85121288D01*
X144850500Y-84878712D01*
X144818838Y-84638211D01*
X144756054Y-84403900D01*
X144663224Y-84179788D01*
X144663218Y-84179779D01*
X144663217Y-84179775D01*
X144541938Y-83969714D01*
X144532949Y-83957999D01*
X144394265Y-83777262D01*
X144394259Y-83777256D01*
X144394255Y-83777251D01*
X144222748Y-83605744D01*
X144222742Y-83605739D01*
X144222738Y-83605735D01*
X144030289Y-83458064D01*
X144030288Y-83458063D01*
X144030285Y-83458061D01*
X143820224Y-83336782D01*
X143820216Y-83336778D01*
X143820212Y-83336776D01*
X143596100Y-83243946D01*
X143596097Y-83243945D01*
X143596095Y-83243944D01*
X143361782Y-83181160D01*
X143121290Y-83149500D01*
X143121288Y-83149500D01*
X142878712Y-83149500D01*
X142878709Y-83149500D01*
X142638217Y-83181160D01*
X142403904Y-83243944D01*
X142403900Y-83243946D01*
X142262659Y-83302450D01*
X142179786Y-83336777D01*
X142179775Y-83336782D01*
X141969714Y-83458061D01*
X141777262Y-83605735D01*
X141777251Y-83605744D01*
X141605744Y-83777251D01*
X141605735Y-83777262D01*
X141458061Y-83969714D01*
X141336782Y-84179775D01*
X141336777Y-84179786D01*
X141336776Y-84179788D01*
X141318769Y-84223262D01*
X141243946Y-84403900D01*
X141243944Y-84403904D01*
X141181160Y-84638217D01*
X141149500Y-84878709D01*
X113710650Y-84878709D01*
X113719501Y-84845680D01*
X113719501Y-84745756D01*
X113719501Y-84738039D01*
X113719500Y-84738021D01*
X113719500Y-83694017D01*
X113739502Y-83625896D01*
X113793158Y-83579403D01*
X113863432Y-83569299D01*
X113881476Y-83573262D01*
X113901387Y-83579196D01*
X113974447Y-83590000D01*
X113974450Y-83590001D01*
X114033122Y-83590236D01*
X121191047Y-83618984D01*
X121248138Y-83612861D01*
X121302249Y-83600891D01*
X121330865Y-83592816D01*
X121418293Y-83541744D01*
X121471432Y-83494661D01*
X121503183Y-83461019D01*
X121549120Y-83370787D01*
X121568368Y-83302450D01*
X121578071Y-83229231D01*
X121571006Y-82589498D01*
X121536060Y-79424847D01*
X121523783Y-78313146D01*
X122545500Y-78313146D01*
X122545500Y-78403514D01*
X122560707Y-78538481D01*
X122588019Y-78616534D01*
X122607790Y-78673037D01*
X122620584Y-78709598D01*
X122633466Y-78730100D01*
X122717037Y-78863104D01*
X122845225Y-78991292D01*
X122845227Y-78991293D01*
X122845228Y-78991294D01*
X122886922Y-79017492D01*
X122983101Y-79077925D01*
X122998732Y-79087746D01*
X123059193Y-79108902D01*
X123116882Y-79150278D01*
X123143045Y-79216278D01*
X123129373Y-79285946D01*
X123080206Y-79337162D01*
X123017577Y-79353830D01*
X122874937Y-79353830D01*
X122874926Y-79353831D01*
X122800699Y-79368595D01*
X122716515Y-79424846D01*
X122660266Y-79509027D01*
X122645500Y-79583260D01*
X122645500Y-80733393D01*
X122645501Y-80733403D01*
X122660265Y-80807630D01*
X122688198Y-80849433D01*
X122716516Y-80891814D01*
X122795485Y-80944580D01*
X122808932Y-80953565D01*
X122854459Y-81008043D01*
X122863306Y-81078486D01*
X122832665Y-81142530D01*
X122808932Y-81163095D01*
X122716514Y-81224847D01*
X122660266Y-81309027D01*
X122645500Y-81383260D01*
X122645500Y-82533393D01*
X122645501Y-82533403D01*
X122660265Y-82607630D01*
X122716516Y-82691814D01*
X122800697Y-82748063D01*
X122800699Y-82748064D01*
X122874933Y-82762830D01*
X125125066Y-82762829D01*
X125125069Y-82762828D01*
X125125073Y-82762828D01*
X125174326Y-82753031D01*
X125199301Y-82748064D01*
X125283484Y-82691814D01*
X125339734Y-82607631D01*
X125348363Y-82564248D01*
X125381270Y-82501340D01*
X125442965Y-82466207D01*
X125471942Y-82462830D01*
X125608087Y-82462830D01*
X125608089Y-82462830D01*
X125736400Y-82428449D01*
X125790403Y-82397270D01*
X125851440Y-82362031D01*
X129243936Y-78969535D01*
X129306248Y-78935509D01*
X129377063Y-78940574D01*
X129433899Y-78983121D01*
X129458710Y-79049641D01*
X129443619Y-79119015D01*
X129442150Y-79121630D01*
X129336782Y-79304131D01*
X129336777Y-79304142D01*
X129336776Y-79304144D01*
X129316195Y-79353831D01*
X129243946Y-79528256D01*
X129243944Y-79528260D01*
X129181160Y-79762573D01*
X129149500Y-80003065D01*
X129149500Y-80245646D01*
X129181160Y-80486138D01*
X129243944Y-80720451D01*
X129243945Y-80720453D01*
X129243946Y-80720456D01*
X129336776Y-80944568D01*
X129336777Y-80944569D01*
X129336782Y-80944580D01*
X129458061Y-81154641D01*
X129458063Y-81154644D01*
X129458064Y-81154645D01*
X129605735Y-81347094D01*
X129605739Y-81347098D01*
X129605744Y-81347104D01*
X129777251Y-81518611D01*
X129777256Y-81518615D01*
X129777262Y-81518621D01*
X129861163Y-81583000D01*
X129969714Y-81666294D01*
X130179775Y-81787573D01*
X130179779Y-81787574D01*
X130179788Y-81787580D01*
X130403900Y-81880410D01*
X130638211Y-81943194D01*
X130638215Y-81943194D01*
X130638217Y-81943195D01*
X130700202Y-81951355D01*
X130878712Y-81974856D01*
X130878719Y-81974856D01*
X131121281Y-81974856D01*
X131121288Y-81974856D01*
X131338637Y-81946241D01*
X131361782Y-81943195D01*
X131361782Y-81943194D01*
X131361789Y-81943194D01*
X131596100Y-81880410D01*
X131820212Y-81787580D01*
X132030289Y-81666292D01*
X132222738Y-81518621D01*
X132394265Y-81347094D01*
X132541936Y-81154645D01*
X132663224Y-80944568D01*
X132756054Y-80720456D01*
X132818838Y-80486145D01*
X132850500Y-80245644D01*
X132850500Y-80003068D01*
X132818838Y-79762567D01*
X132756054Y-79528256D01*
X132663224Y-79304144D01*
X132663218Y-79304135D01*
X132663217Y-79304131D01*
X132541938Y-79094070D01*
X132540207Y-79091814D01*
X132394265Y-78901618D01*
X132394259Y-78901612D01*
X132394255Y-78901607D01*
X132222748Y-78730100D01*
X132222742Y-78730095D01*
X132222738Y-78730091D01*
X132030289Y-78582420D01*
X132030288Y-78582419D01*
X132030285Y-78582417D01*
X131820224Y-78461138D01*
X131820216Y-78461134D01*
X131820212Y-78461132D01*
X131596100Y-78368302D01*
X131596097Y-78368301D01*
X131596095Y-78368300D01*
X131361782Y-78305516D01*
X131121290Y-78273856D01*
X131121288Y-78273856D01*
X130878712Y-78273856D01*
X130878709Y-78273856D01*
X130638217Y-78305516D01*
X130403904Y-78368300D01*
X130403900Y-78368302D01*
X130251747Y-78431326D01*
X130179786Y-78461133D01*
X130179775Y-78461138D01*
X129997273Y-78566506D01*
X129928277Y-78583244D01*
X129861186Y-78560023D01*
X129817299Y-78504216D01*
X129810550Y-78433541D01*
X129843083Y-78370437D01*
X129845095Y-78368375D01*
X130172068Y-78041402D01*
X130234378Y-78007379D01*
X130261161Y-78004500D01*
X138066417Y-78004500D01*
X138066419Y-78004500D01*
X138194730Y-77970119D01*
X138236837Y-77945808D01*
X138309770Y-77903701D01*
X140103701Y-76109770D01*
X140164865Y-76003830D01*
X140170119Y-75994730D01*
X140183622Y-75944336D01*
X140220572Y-75883715D01*
X140280748Y-75853369D01*
X140297937Y-75849950D01*
X140349301Y-75839734D01*
X140433484Y-75783484D01*
X140489734Y-75699301D01*
X140504500Y-75625067D01*
X140504499Y-73374934D01*
X140504498Y-73374930D01*
X140504498Y-73374926D01*
X140489734Y-73300699D01*
X140480633Y-73287078D01*
X140433484Y-73216516D01*
X140433483Y-73216515D01*
X140349302Y-73160266D01*
X140275067Y-73145500D01*
X139124936Y-73145500D01*
X139124926Y-73145501D01*
X139050699Y-73160265D01*
X138966515Y-73216516D01*
X138904763Y-73308932D01*
X138850285Y-73354459D01*
X138779842Y-73363306D01*
X138715799Y-73332664D01*
X138695234Y-73308931D01*
X138689734Y-73300700D01*
X138689734Y-73300699D01*
X138633484Y-73216516D01*
X138633483Y-73216515D01*
X138549302Y-73160266D01*
X138475067Y-73145500D01*
X137324936Y-73145500D01*
X137324926Y-73145501D01*
X137250699Y-73160265D01*
X137166515Y-73216516D01*
X137104763Y-73308932D01*
X137050285Y-73354459D01*
X136979842Y-73363306D01*
X136915799Y-73332664D01*
X136895234Y-73308931D01*
X136889734Y-73300700D01*
X136889734Y-73300699D01*
X136833484Y-73216516D01*
X136833483Y-73216515D01*
X136749302Y-73160266D01*
X136675067Y-73145500D01*
X135524936Y-73145500D01*
X135524926Y-73145501D01*
X135450699Y-73160265D01*
X135366515Y-73216516D01*
X135304763Y-73308932D01*
X135250285Y-73354459D01*
X135179842Y-73363306D01*
X135115799Y-73332664D01*
X135095234Y-73308931D01*
X135089734Y-73300700D01*
X135089734Y-73300699D01*
X135033484Y-73216516D01*
X135033483Y-73216515D01*
X134949302Y-73160266D01*
X134875067Y-73145500D01*
X133724936Y-73145500D01*
X133724926Y-73145501D01*
X133650699Y-73160265D01*
X133566515Y-73216516D01*
X133510266Y-73300697D01*
X133495500Y-73374930D01*
X133495500Y-74738837D01*
X133475498Y-74806958D01*
X133458597Y-74827931D01*
X133426495Y-74860034D01*
X133364183Y-74894060D01*
X133337398Y-74896940D01*
X129032140Y-74896940D01*
X128997760Y-74906151D01*
X128997761Y-74906152D01*
X128903826Y-74931321D01*
X128788793Y-74997736D01*
X128788783Y-74997744D01*
X127769604Y-76016925D01*
X127707292Y-76050950D01*
X127680509Y-76053830D01*
X125471942Y-76053830D01*
X125403821Y-76033828D01*
X125357328Y-75980172D01*
X125348363Y-75952411D01*
X125343338Y-75927149D01*
X125339734Y-75909029D01*
X125283484Y-75824846D01*
X125283483Y-75824845D01*
X125199302Y-75768596D01*
X125125067Y-75753830D01*
X122874936Y-75753830D01*
X122874926Y-75753831D01*
X122800699Y-75768595D01*
X122716515Y-75824846D01*
X122660266Y-75909027D01*
X122645500Y-75983260D01*
X122645500Y-77133393D01*
X122645501Y-77133403D01*
X122660265Y-77207630D01*
X122716516Y-77291814D01*
X122800697Y-77348063D01*
X122800699Y-77348064D01*
X122874933Y-77362830D01*
X123017576Y-77362829D01*
X123085694Y-77382831D01*
X123132187Y-77436486D01*
X123142292Y-77506760D01*
X123112799Y-77571341D01*
X123059191Y-77607758D01*
X122998731Y-77628914D01*
X122845225Y-77725367D01*
X122717037Y-77853555D01*
X122620583Y-78007063D01*
X122560708Y-78178176D01*
X122560707Y-78178179D01*
X122545500Y-78313146D01*
X121523783Y-78313146D01*
X121490839Y-75329866D01*
X121485039Y-75278098D01*
X121474442Y-75228892D01*
X121468193Y-75205319D01*
X121419430Y-75116583D01*
X121373756Y-75062228D01*
X121340960Y-75029607D01*
X121310349Y-75012998D01*
X121251971Y-74981323D01*
X121251955Y-74981316D01*
X121184162Y-74960287D01*
X121111210Y-74948666D01*
X121111214Y-74948666D01*
X114650491Y-74850629D01*
X114650475Y-74850629D01*
X114650465Y-74850629D01*
X114640208Y-74850738D01*
X114637045Y-74850772D01*
X114624017Y-74851248D01*
X114610595Y-74852088D01*
X113941973Y-74911333D01*
X113898561Y-74918936D01*
X113877693Y-74924451D01*
X113806722Y-74922518D01*
X113748064Y-74882522D01*
X113720340Y-74817161D01*
X113719500Y-74802633D01*
X113719500Y-71599384D01*
X113739502Y-71531263D01*
X113756400Y-71510293D01*
X114223123Y-71043569D01*
X114223133Y-71043562D01*
X114304150Y-70962545D01*
X114304156Y-70962539D01*
X114354118Y-70876002D01*
X114358539Y-70859502D01*
X132580629Y-70859502D01*
X132580773Y-70872959D01*
X132581250Y-70886005D01*
X132582089Y-70899409D01*
X132641333Y-71568021D01*
X132648934Y-71611423D01*
X132659827Y-71652641D01*
X132664496Y-71668294D01*
X132714594Y-71756272D01*
X132714604Y-71756286D01*
X132761081Y-71809923D01*
X132761098Y-71809941D01*
X132773695Y-71822096D01*
X132794380Y-71842056D01*
X132884099Y-71888987D01*
X132952220Y-71908989D01*
X133025329Y-71919500D01*
X133025332Y-71919500D01*
X140934505Y-71919500D01*
X140989156Y-71913680D01*
X141041038Y-71902503D01*
X141067347Y-71895371D01*
X141155534Y-71845621D01*
X141209376Y-71799344D01*
X141241632Y-71766183D01*
X141288922Y-71676653D01*
X141309197Y-71608613D01*
X141320002Y-71535548D01*
X141348984Y-64318952D01*
X141342861Y-64261861D01*
X141330891Y-64207750D01*
X141322816Y-64179134D01*
X141316921Y-64169042D01*
X141271745Y-64091707D01*
X141271744Y-64091706D01*
X141224667Y-64038573D01*
X141224654Y-64038560D01*
X141191020Y-64006816D01*
X141100788Y-63960879D01*
X141100785Y-63960878D01*
X141100783Y-63960877D01*
X141032450Y-63941630D01*
X140959226Y-63931927D01*
X133059867Y-64019159D01*
X133008078Y-64024962D01*
X132958914Y-64035551D01*
X132958909Y-64035552D01*
X132935319Y-64041806D01*
X132935316Y-64041807D01*
X132846584Y-64090568D01*
X132792225Y-64136245D01*
X132792218Y-64136252D01*
X132759608Y-64169037D01*
X132759604Y-64169042D01*
X132711324Y-64258025D01*
X132711319Y-64258036D01*
X132690287Y-64325838D01*
X132678666Y-64398785D01*
X132629628Y-67630496D01*
X132624081Y-67996059D01*
X132624021Y-67999999D01*
X132614369Y-68636081D01*
X132586386Y-70480150D01*
X132580629Y-70859502D01*
X114358539Y-70859502D01*
X114376317Y-70793157D01*
X114376317Y-70793153D01*
X114379981Y-70779482D01*
X114379981Y-70679558D01*
X114379981Y-70671841D01*
X114379980Y-70671823D01*
X114379980Y-67878709D01*
X122149500Y-67878709D01*
X122149500Y-68121290D01*
X122181160Y-68361782D01*
X122243944Y-68596095D01*
X122243945Y-68596097D01*
X122243946Y-68596100D01*
X122336776Y-68820212D01*
X122336777Y-68820213D01*
X122336782Y-68820224D01*
X122458061Y-69030285D01*
X122458063Y-69030288D01*
X122458064Y-69030289D01*
X122605735Y-69222738D01*
X122605739Y-69222742D01*
X122605744Y-69222748D01*
X122777251Y-69394255D01*
X122777256Y-69394259D01*
X122777262Y-69394265D01*
X122964003Y-69537556D01*
X122969714Y-69541938D01*
X123179775Y-69663217D01*
X123179779Y-69663218D01*
X123179788Y-69663224D01*
X123403900Y-69756054D01*
X123638211Y-69818838D01*
X123638215Y-69818838D01*
X123638217Y-69818839D01*
X123700202Y-69826999D01*
X123878712Y-69850500D01*
X123878719Y-69850500D01*
X124121281Y-69850500D01*
X124121288Y-69850500D01*
X124338637Y-69821885D01*
X124361782Y-69818839D01*
X124361782Y-69818838D01*
X124361789Y-69818838D01*
X124596100Y-69756054D01*
X124820212Y-69663224D01*
X125030289Y-69541936D01*
X125222738Y-69394265D01*
X125394265Y-69222738D01*
X125541936Y-69030289D01*
X125663224Y-68820212D01*
X125756054Y-68596100D01*
X125818838Y-68361789D01*
X125850500Y-68121288D01*
X125850500Y-67878712D01*
X125818838Y-67638211D01*
X125756054Y-67403900D01*
X125663224Y-67179788D01*
X125663218Y-67179779D01*
X125663217Y-67179775D01*
X125541938Y-66969714D01*
X125541936Y-66969711D01*
X125394265Y-66777262D01*
X125394259Y-66777256D01*
X125394255Y-66777251D01*
X125222748Y-66605744D01*
X125222742Y-66605739D01*
X125222738Y-66605735D01*
X125030289Y-66458064D01*
X125030288Y-66458063D01*
X125030285Y-66458061D01*
X124820224Y-66336782D01*
X124820216Y-66336778D01*
X124820212Y-66336776D01*
X124596100Y-66243946D01*
X124596097Y-66243945D01*
X124596095Y-66243944D01*
X124361782Y-66181160D01*
X124121290Y-66149500D01*
X124121288Y-66149500D01*
X123878712Y-66149500D01*
X123878709Y-66149500D01*
X123638217Y-66181160D01*
X123403904Y-66243944D01*
X123403900Y-66243946D01*
X123308790Y-66283342D01*
X123179786Y-66336777D01*
X123179775Y-66336782D01*
X122969714Y-66458061D01*
X122777262Y-66605735D01*
X122777251Y-66605744D01*
X122605744Y-66777251D01*
X122605735Y-66777262D01*
X122458061Y-66969714D01*
X122336782Y-67179775D01*
X122336777Y-67179786D01*
X122336776Y-67179788D01*
X122295474Y-67279500D01*
X122243946Y-67403900D01*
X122243944Y-67403904D01*
X122181160Y-67638217D01*
X122149500Y-67878709D01*
X114379980Y-67878709D01*
X114379980Y-64924209D01*
X114379981Y-64924196D01*
X114379981Y-64814122D01*
X114379980Y-64814120D01*
X114375484Y-64797342D01*
X114354118Y-64717603D01*
X114354118Y-64717602D01*
X114304156Y-64631065D01*
X114304154Y-64631063D01*
X114304150Y-64631058D01*
X114229110Y-64556018D01*
X114229087Y-64555997D01*
X110134354Y-60461264D01*
X110100328Y-60398952D01*
X110105393Y-60328137D01*
X110147940Y-60271301D01*
X110214460Y-60246490D01*
X110223449Y-60246169D01*
X112125064Y-60246169D01*
X112125066Y-60246169D01*
X112125069Y-60246168D01*
X112125072Y-60246168D01*
X112161663Y-60238889D01*
X112199301Y-60231404D01*
X112283484Y-60175154D01*
X112339734Y-60090971D01*
X112354500Y-60016737D01*
X112354499Y-58866604D01*
X112354498Y-58866600D01*
X112354498Y-58866596D01*
X112339734Y-58792369D01*
X112308850Y-58746148D01*
X112283484Y-58708186D01*
X112283483Y-58708185D01*
X112199302Y-58651936D01*
X112125069Y-58637170D01*
X112125067Y-58637170D01*
X111982426Y-58637170D01*
X111914305Y-58617168D01*
X111867812Y-58563512D01*
X111857708Y-58493238D01*
X111887202Y-58428658D01*
X111940811Y-58392241D01*
X111953694Y-58387733D01*
X112001268Y-58371086D01*
X112154772Y-58274634D01*
X112282964Y-58146442D01*
X112379416Y-57992938D01*
X112439293Y-57821821D01*
X112454500Y-57686854D01*
X112454500Y-57596486D01*
X112454412Y-57595709D01*
X112452049Y-57574735D01*
X112439293Y-57461519D01*
X112379416Y-57290402D01*
X112282964Y-57136898D01*
X112282963Y-57136897D01*
X112282962Y-57136895D01*
X112154774Y-57008707D01*
X112033650Y-56932601D01*
X112001268Y-56912254D01*
X111940807Y-56891097D01*
X111883117Y-56849719D01*
X111856954Y-56783719D01*
X111870628Y-56714051D01*
X111919796Y-56662836D01*
X111982424Y-56646169D01*
X112125064Y-56646169D01*
X112125066Y-56646169D01*
X112125069Y-56646168D01*
X112125072Y-56646168D01*
X112171643Y-56636905D01*
X112199301Y-56631404D01*
X112283484Y-56575154D01*
X112339734Y-56490971D01*
X112354500Y-56416737D01*
X112354499Y-55266604D01*
X112354498Y-55266600D01*
X112354498Y-55266596D01*
X112339734Y-55192369D01*
X112339733Y-55192367D01*
X112283484Y-55108186D01*
X112283483Y-55108185D01*
X112191067Y-55046433D01*
X112145540Y-54991956D01*
X112136693Y-54921513D01*
X112167334Y-54857469D01*
X112191068Y-54836904D01*
X112199298Y-54831404D01*
X112199301Y-54831404D01*
X112283484Y-54775154D01*
X112339734Y-54690971D01*
X112354500Y-54616737D01*
X112354499Y-53466604D01*
X112354498Y-53466597D01*
X112354498Y-53466596D01*
X112339734Y-53392369D01*
X112283483Y-53308185D01*
X112199302Y-53251936D01*
X112125069Y-53237170D01*
X112125067Y-53237170D01*
X111314714Y-53237170D01*
X111246593Y-53217168D01*
X111225619Y-53200265D01*
X110820682Y-52795328D01*
X113560500Y-52795328D01*
X113560500Y-52795330D01*
X113560500Y-60704504D01*
X113566320Y-60759157D01*
X113577491Y-60811012D01*
X113577498Y-60811043D01*
X113584629Y-60837347D01*
X113634376Y-60925528D01*
X113634382Y-60925538D01*
X113680653Y-60979372D01*
X113713817Y-61011631D01*
X113793479Y-61053709D01*
X113803347Y-61058921D01*
X113871387Y-61079196D01*
X113944447Y-61090000D01*
X113944450Y-61090001D01*
X114003122Y-61090236D01*
X121161047Y-61118984D01*
X121218138Y-61112861D01*
X121272249Y-61100891D01*
X121300865Y-61092816D01*
X121388293Y-61041744D01*
X121441432Y-60994661D01*
X121473183Y-60961019D01*
X121519120Y-60870787D01*
X121538368Y-60802450D01*
X121548071Y-60729231D01*
X121547544Y-60681553D01*
X121500449Y-56416739D01*
X121467870Y-53466600D01*
X122645500Y-53466600D01*
X122645500Y-54616733D01*
X122645501Y-54616743D01*
X122660265Y-54690970D01*
X122688198Y-54732773D01*
X122716516Y-54775154D01*
X122800699Y-54831404D01*
X122808932Y-54836905D01*
X122854459Y-54891383D01*
X122863306Y-54961826D01*
X122832665Y-55025870D01*
X122808932Y-55046435D01*
X122800699Y-55051935D01*
X122800699Y-55051936D01*
X122795470Y-55055430D01*
X122716514Y-55108187D01*
X122660266Y-55192367D01*
X122645500Y-55266600D01*
X122645500Y-56416733D01*
X122645501Y-56416743D01*
X122660265Y-56490970D01*
X122685031Y-56528034D01*
X122716516Y-56575154D01*
X122800698Y-56631403D01*
X122808932Y-56636905D01*
X122854459Y-56691383D01*
X122863306Y-56761826D01*
X122832665Y-56825870D01*
X122808932Y-56846435D01*
X122716514Y-56908187D01*
X122660266Y-56992367D01*
X122645500Y-57066600D01*
X122645500Y-58216733D01*
X122645501Y-58216743D01*
X122660265Y-58290970D01*
X122660266Y-58290971D01*
X122716516Y-58375154D01*
X122800039Y-58430963D01*
X122808932Y-58436905D01*
X122854459Y-58491383D01*
X122863306Y-58561826D01*
X122832665Y-58625870D01*
X122808932Y-58646435D01*
X122800699Y-58651935D01*
X122800699Y-58651936D01*
X122781894Y-58664501D01*
X122716514Y-58708187D01*
X122660266Y-58792367D01*
X122645500Y-58866600D01*
X122645500Y-60016733D01*
X122645501Y-60016743D01*
X122660265Y-60090970D01*
X122716516Y-60175154D01*
X122800697Y-60231403D01*
X122800699Y-60231404D01*
X122874933Y-60246170D01*
X124038837Y-60246169D01*
X124106958Y-60266171D01*
X124127932Y-60283074D01*
X124898561Y-61053703D01*
X124898565Y-61053706D01*
X124898568Y-61053709D01*
X124966304Y-61092816D01*
X125013608Y-61120127D01*
X125141919Y-61154508D01*
X133188847Y-61154508D01*
X133256968Y-61174510D01*
X133277942Y-61191413D01*
X133458595Y-61372066D01*
X133492621Y-61434378D01*
X133495500Y-61461161D01*
X133495500Y-62625063D01*
X133495501Y-62625073D01*
X133510265Y-62699300D01*
X133566516Y-62783484D01*
X133650697Y-62839733D01*
X133650699Y-62839734D01*
X133724933Y-62854500D01*
X134875066Y-62854499D01*
X134875069Y-62854498D01*
X134875073Y-62854498D01*
X134924326Y-62844701D01*
X134949301Y-62839734D01*
X135033484Y-62783484D01*
X135089734Y-62699301D01*
X135104500Y-62625067D01*
X135104499Y-62482422D01*
X135124501Y-62414305D01*
X135178156Y-62367812D01*
X135248430Y-62357707D01*
X135313011Y-62387200D01*
X135349428Y-62440809D01*
X135370584Y-62501268D01*
X135420821Y-62581220D01*
X135467037Y-62654774D01*
X135595225Y-62782962D01*
X135595227Y-62782963D01*
X135595228Y-62782964D01*
X135748732Y-62879416D01*
X135919849Y-62939293D01*
X136054816Y-62954500D01*
X136145184Y-62954500D01*
X136280151Y-62939293D01*
X136451268Y-62879416D01*
X136604772Y-62782964D01*
X136732964Y-62654772D01*
X136829416Y-62501268D01*
X136850573Y-62440804D01*
X136891948Y-62383117D01*
X136957948Y-62356954D01*
X137027616Y-62370626D01*
X137078832Y-62419793D01*
X137095500Y-62482422D01*
X137095500Y-62625062D01*
X137095501Y-62625073D01*
X137110265Y-62699300D01*
X137166516Y-62783484D01*
X137250697Y-62839733D01*
X137250699Y-62839734D01*
X137324933Y-62854500D01*
X138475066Y-62854499D01*
X138475069Y-62854498D01*
X138475073Y-62854498D01*
X138524326Y-62844701D01*
X138549301Y-62839734D01*
X138633484Y-62783484D01*
X138689734Y-62699301D01*
X138689734Y-62699300D01*
X138695235Y-62691068D01*
X138749712Y-62645540D01*
X138820155Y-62636693D01*
X138884199Y-62667334D01*
X138904765Y-62691068D01*
X138910265Y-62699300D01*
X138910266Y-62699301D01*
X138928749Y-62726962D01*
X138966516Y-62783484D01*
X139050697Y-62839733D01*
X139050699Y-62839734D01*
X139124933Y-62854500D01*
X140275066Y-62854499D01*
X140275069Y-62854498D01*
X140275073Y-62854498D01*
X140324326Y-62844701D01*
X140349301Y-62839734D01*
X140433484Y-62783484D01*
X140489734Y-62699301D01*
X140504500Y-62625067D01*
X140504499Y-60374934D01*
X140504498Y-60374931D01*
X140504498Y-60374926D01*
X140489734Y-60300699D01*
X140453512Y-60246490D01*
X140433484Y-60216516D01*
X140433483Y-60216515D01*
X140349302Y-60160266D01*
X140275069Y-60145500D01*
X140275067Y-60145500D01*
X139911160Y-60145500D01*
X139843039Y-60125498D01*
X139822065Y-60108595D01*
X137809777Y-58096305D01*
X137809767Y-58096297D01*
X137729509Y-58049961D01*
X137729508Y-58049961D01*
X137694731Y-58029882D01*
X137694730Y-58029881D01*
X137694729Y-58029881D01*
X137620695Y-58010044D01*
X137566420Y-57995501D01*
X134485029Y-57995501D01*
X134430754Y-58010044D01*
X134356720Y-58029881D01*
X134356715Y-58029883D01*
X134356527Y-58029992D01*
X134356393Y-58030069D01*
X134356037Y-58030164D01*
X134349089Y-58033043D01*
X134348710Y-58032128D01*
X134293396Y-58046949D01*
X129519962Y-58046949D01*
X129451841Y-58026947D01*
X129430867Y-58010044D01*
X127175176Y-55754353D01*
X129149500Y-55754353D01*
X129149500Y-55996934D01*
X129181160Y-56237426D01*
X129243944Y-56471739D01*
X129243945Y-56471741D01*
X129243946Y-56471744D01*
X129336776Y-56695856D01*
X129336777Y-56695857D01*
X129336782Y-56695868D01*
X129458061Y-56905929D01*
X129458063Y-56905932D01*
X129458064Y-56905933D01*
X129605735Y-57098382D01*
X129605739Y-57098386D01*
X129605744Y-57098392D01*
X129777251Y-57269899D01*
X129777256Y-57269903D01*
X129777262Y-57269909D01*
X129969711Y-57417580D01*
X129969714Y-57417582D01*
X130179775Y-57538861D01*
X130179779Y-57538862D01*
X130179788Y-57538868D01*
X130403900Y-57631698D01*
X130638211Y-57694482D01*
X130638215Y-57694482D01*
X130638217Y-57694483D01*
X130700202Y-57702643D01*
X130878712Y-57726144D01*
X130878719Y-57726144D01*
X131121281Y-57726144D01*
X131121288Y-57726144D01*
X131338637Y-57697529D01*
X131361782Y-57694483D01*
X131361782Y-57694482D01*
X131361789Y-57694482D01*
X131596100Y-57631698D01*
X131820212Y-57538868D01*
X132030289Y-57417580D01*
X132222738Y-57269909D01*
X132394265Y-57098382D01*
X132541936Y-56905933D01*
X132663224Y-56695856D01*
X132756054Y-56471744D01*
X132818838Y-56237433D01*
X132850500Y-55996932D01*
X132850500Y-55754356D01*
X132822292Y-55540090D01*
X132818839Y-55513861D01*
X132818838Y-55513859D01*
X132818838Y-55513855D01*
X132756054Y-55279544D01*
X132663224Y-55055432D01*
X132663218Y-55055423D01*
X132663217Y-55055419D01*
X132541938Y-54845358D01*
X132531231Y-54831404D01*
X132394265Y-54652906D01*
X132394259Y-54652900D01*
X132394255Y-54652895D01*
X132222748Y-54481388D01*
X132222742Y-54481383D01*
X132222738Y-54481379D01*
X132030289Y-54333708D01*
X132030288Y-54333707D01*
X132030285Y-54333705D01*
X131820224Y-54212426D01*
X131820216Y-54212422D01*
X131820212Y-54212420D01*
X131596100Y-54119590D01*
X131596097Y-54119589D01*
X131596095Y-54119588D01*
X131361782Y-54056804D01*
X131121290Y-54025144D01*
X131121288Y-54025144D01*
X130878712Y-54025144D01*
X130878709Y-54025144D01*
X130638217Y-54056804D01*
X130403904Y-54119588D01*
X130403900Y-54119590D01*
X130335216Y-54148040D01*
X130179786Y-54212421D01*
X130179775Y-54212426D01*
X129969714Y-54333705D01*
X129777262Y-54481379D01*
X129777251Y-54481388D01*
X129605744Y-54652895D01*
X129605735Y-54652906D01*
X129458061Y-54845358D01*
X129336782Y-55055419D01*
X129336777Y-55055430D01*
X129336776Y-55055432D01*
X129319848Y-55096300D01*
X129243946Y-55279544D01*
X129243944Y-55279548D01*
X129181160Y-55513861D01*
X129149500Y-55754353D01*
X127175176Y-55754353D01*
X125391404Y-53970581D01*
X125357378Y-53908269D01*
X125354499Y-53881486D01*
X125354499Y-53466606D01*
X125354498Y-53466597D01*
X125339734Y-53392369D01*
X125283483Y-53308185D01*
X125199302Y-53251936D01*
X125125067Y-53237170D01*
X122874936Y-53237170D01*
X122874926Y-53237171D01*
X122800699Y-53251935D01*
X122716515Y-53308186D01*
X122660266Y-53392367D01*
X122645500Y-53466600D01*
X121467870Y-53466600D01*
X121460839Y-52829866D01*
X121455039Y-52778098D01*
X121444442Y-52728892D01*
X121438193Y-52705319D01*
X121389430Y-52616583D01*
X121343756Y-52562228D01*
X121310960Y-52529607D01*
X121302378Y-52524950D01*
X121221971Y-52481323D01*
X121221955Y-52481316D01*
X121154162Y-52460287D01*
X121081210Y-52448666D01*
X121081214Y-52448666D01*
X114620491Y-52350629D01*
X114620475Y-52350629D01*
X114620465Y-52350629D01*
X114610208Y-52350738D01*
X114607045Y-52350772D01*
X114594017Y-52351248D01*
X114580595Y-52352088D01*
X113911973Y-52411333D01*
X113868559Y-52418936D01*
X113827348Y-52429828D01*
X113811713Y-52434491D01*
X113811708Y-52434494D01*
X113723727Y-52484593D01*
X113723713Y-52484603D01*
X113670076Y-52531080D01*
X113670058Y-52531097D01*
X113637944Y-52564377D01*
X113637944Y-52564378D01*
X113591014Y-52654095D01*
X113591013Y-52654098D01*
X113571011Y-52722219D01*
X113560500Y-52795328D01*
X110820682Y-52795328D01*
X108904064Y-50878709D01*
X141149500Y-50878709D01*
X141149500Y-51121290D01*
X141181160Y-51361782D01*
X141243944Y-51596095D01*
X141243945Y-51596097D01*
X141243946Y-51596100D01*
X141336776Y-51820212D01*
X141336777Y-51820213D01*
X141336782Y-51820224D01*
X141458061Y-52030285D01*
X141458063Y-52030288D01*
X141458064Y-52030289D01*
X141605735Y-52222738D01*
X141605739Y-52222742D01*
X141605744Y-52222748D01*
X141777251Y-52394255D01*
X141777256Y-52394259D01*
X141777262Y-52394265D01*
X141969711Y-52541936D01*
X141969714Y-52541938D01*
X142179775Y-52663217D01*
X142179779Y-52663218D01*
X142179788Y-52663224D01*
X142403900Y-52756054D01*
X142638211Y-52818838D01*
X142638215Y-52818838D01*
X142638217Y-52818839D01*
X142700202Y-52826999D01*
X142878712Y-52850500D01*
X142878719Y-52850500D01*
X143121281Y-52850500D01*
X143121288Y-52850500D01*
X143338637Y-52821885D01*
X143361782Y-52818839D01*
X143361782Y-52818838D01*
X143361789Y-52818838D01*
X143596100Y-52756054D01*
X143820212Y-52663224D01*
X144030289Y-52541936D01*
X144222738Y-52394265D01*
X144394265Y-52222738D01*
X144541936Y-52030289D01*
X144663224Y-51820212D01*
X144756054Y-51596100D01*
X144818838Y-51361789D01*
X144850500Y-51121288D01*
X144850500Y-50878712D01*
X144818838Y-50638211D01*
X144756054Y-50403900D01*
X144663224Y-50179788D01*
X144663218Y-50179779D01*
X144663217Y-50179775D01*
X144541938Y-49969714D01*
X144499145Y-49913945D01*
X144394265Y-49777262D01*
X144394259Y-49777256D01*
X144394255Y-49777251D01*
X144222748Y-49605744D01*
X144222742Y-49605739D01*
X144222738Y-49605735D01*
X144030289Y-49458064D01*
X144030288Y-49458063D01*
X144030285Y-49458061D01*
X143820224Y-49336782D01*
X143820216Y-49336778D01*
X143820212Y-49336776D01*
X143596100Y-49243946D01*
X143596097Y-49243945D01*
X143596095Y-49243944D01*
X143361782Y-49181160D01*
X143121290Y-49149500D01*
X143121288Y-49149500D01*
X142878712Y-49149500D01*
X142878709Y-49149500D01*
X142638217Y-49181160D01*
X142403904Y-49243944D01*
X142403900Y-49243946D01*
X142179786Y-49336777D01*
X142179775Y-49336782D01*
X141969714Y-49458061D01*
X141777262Y-49605735D01*
X141777251Y-49605744D01*
X141605744Y-49777251D01*
X141605735Y-49777262D01*
X141458061Y-49969714D01*
X141336782Y-50179775D01*
X141336777Y-50179786D01*
X141243946Y-50403900D01*
X141243944Y-50403904D01*
X141181160Y-50638217D01*
X141149500Y-50878709D01*
X108904064Y-50878709D01*
X107939300Y-49913945D01*
X107939298Y-49913943D01*
X107939296Y-49913941D01*
X107815719Y-49831370D01*
X107735285Y-49798053D01*
X107678413Y-49774496D01*
X107678412Y-49774495D01*
X107662286Y-49771287D01*
X107654224Y-49769684D01*
X107654223Y-49769683D01*
X107572985Y-49753523D01*
X107532642Y-49745499D01*
X107384018Y-49745499D01*
X107377805Y-49745499D01*
X107377785Y-49745500D01*
X88740545Y-49745500D01*
X88740525Y-49745499D01*
X88734312Y-49745499D01*
X88585688Y-49745499D01*
X88585687Y-49745499D01*
X88464104Y-49769684D01*
X88464103Y-49769683D01*
X88439926Y-49774493D01*
X88439916Y-49774496D01*
X88383045Y-49798053D01*
X88302609Y-49831370D01*
X88292294Y-49838263D01*
X88292293Y-49838264D01*
X88292054Y-49838424D01*
X88179034Y-49913941D01*
X88073941Y-50019034D01*
X82704380Y-55388595D01*
X82642068Y-55422621D01*
X82615285Y-55425500D01*
X82000499Y-55425500D01*
X81932378Y-55405498D01*
X81885885Y-55351842D01*
X81874499Y-55299500D01*
X81874499Y-54654936D01*
X81874498Y-54654927D01*
X81859734Y-54580699D01*
X81803483Y-54496515D01*
X81719302Y-54440266D01*
X81645067Y-54425500D01*
X75594936Y-54425500D01*
X75594927Y-54425501D01*
X75520699Y-54440265D01*
X75436515Y-54496516D01*
X75380266Y-54580697D01*
X75365500Y-54654930D01*
X75365500Y-57705063D01*
X75365501Y-57705072D01*
X75380265Y-57779300D01*
X75436516Y-57863484D01*
X75520697Y-57919733D01*
X75520699Y-57919734D01*
X75594933Y-57934500D01*
X81645066Y-57934499D01*
X81645069Y-57934498D01*
X81645072Y-57934498D01*
X81731473Y-57917313D01*
X81731968Y-57919801D01*
X81785225Y-57914074D01*
X81848713Y-57945851D01*
X81851953Y-57948978D01*
X83528595Y-59625620D01*
X83562621Y-59687932D01*
X83565500Y-59714715D01*
X83565500Y-67345285D01*
X83545498Y-67413406D01*
X83528595Y-67434380D01*
X81991412Y-68971562D01*
X81929100Y-69005588D01*
X81858284Y-69000523D01*
X81801449Y-68957976D01*
X81797569Y-68952493D01*
X81753484Y-68886516D01*
X81753483Y-68886515D01*
X81669302Y-68830266D01*
X81595067Y-68815500D01*
X75544936Y-68815500D01*
X75544927Y-68815501D01*
X75470699Y-68830265D01*
X75386515Y-68886516D01*
X75330266Y-68970697D01*
X75315500Y-69044930D01*
X75315500Y-72095063D01*
X75315501Y-72095072D01*
X75330265Y-72169300D01*
X75386516Y-72253484D01*
X75470697Y-72309733D01*
X75470699Y-72309734D01*
X75544933Y-72324500D01*
X81595066Y-72324499D01*
X81595069Y-72324498D01*
X81595072Y-72324498D01*
X81631663Y-72317219D01*
X81669301Y-72309734D01*
X81753484Y-72253484D01*
X81809734Y-72169301D01*
X81824500Y-72095067D01*
X81824499Y-71301226D01*
X81844501Y-71233106D01*
X81880499Y-71196461D01*
X81905081Y-71180036D01*
X81940966Y-71156059D01*
X84790592Y-68306430D01*
X84790601Y-68306424D01*
X84906052Y-68190973D01*
X84906059Y-68190966D01*
X84988629Y-68067390D01*
X84988630Y-68067389D01*
X85021946Y-67986955D01*
X85045505Y-67930080D01*
X85055723Y-67878712D01*
X85074501Y-67784312D01*
X85074501Y-67635688D01*
X85074501Y-67630496D01*
X85074500Y-67630470D01*
X85074500Y-59430545D01*
X85074501Y-59430524D01*
X85074501Y-59275692D01*
X85074501Y-59275688D01*
X85045505Y-59129921D01*
X85034212Y-59102658D01*
X85010537Y-59045500D01*
X84988630Y-58992611D01*
X84906059Y-58869034D01*
X83159589Y-57122564D01*
X83125563Y-57060252D01*
X83130628Y-56989437D01*
X83173175Y-56932601D01*
X83200462Y-56917061D01*
X83317389Y-56868630D01*
X83440966Y-56786059D01*
X84865590Y-55361432D01*
X84865600Y-55361425D01*
X86834658Y-53392367D01*
X88935619Y-51291404D01*
X88997931Y-51257380D01*
X89024714Y-51254500D01*
X94594500Y-51254500D01*
X94662621Y-51274502D01*
X94709114Y-51328158D01*
X94720500Y-51380500D01*
X94720500Y-52040897D01*
X94705092Y-52101275D01*
X94702657Y-52105734D01*
X94651962Y-52241650D01*
X94651960Y-52241658D01*
X94645500Y-52301737D01*
X94645500Y-53698246D01*
X94645502Y-53698270D01*
X94651959Y-53758339D01*
X94651959Y-53758341D01*
X94702657Y-53894266D01*
X94702658Y-53894267D01*
X94789596Y-54010404D01*
X94905733Y-54097342D01*
X95041658Y-54148040D01*
X95101745Y-54154500D01*
X95848254Y-54154499D01*
X95908342Y-54148040D01*
X96044267Y-54097342D01*
X96160404Y-54010404D01*
X96247342Y-53894267D01*
X96268901Y-53836467D01*
X96311448Y-53779631D01*
X96377968Y-53754821D01*
X96386956Y-53754500D01*
X96859676Y-53754500D01*
X96927797Y-53774502D01*
X96960544Y-53804991D01*
X96964596Y-53810404D01*
X97080733Y-53897342D01*
X97216658Y-53948040D01*
X97276745Y-53954500D01*
X97898254Y-53954499D01*
X97958342Y-53948040D01*
X98094267Y-53897342D01*
X98210404Y-53810404D01*
X98297342Y-53694267D01*
X98348040Y-53558342D01*
X98354500Y-53498255D01*
X98354499Y-52501746D01*
X98348040Y-52441658D01*
X98297342Y-52305733D01*
X98210404Y-52189596D01*
X98094267Y-52102658D01*
X98094265Y-52102657D01*
X98094266Y-52102657D01*
X97958349Y-52051962D01*
X97958344Y-52051960D01*
X97958342Y-52051960D01*
X97928298Y-52048730D01*
X97898256Y-52045500D01*
X97276753Y-52045500D01*
X97276729Y-52045502D01*
X97216660Y-52051959D01*
X97216658Y-52051959D01*
X97080733Y-52102657D01*
X96964596Y-52189595D01*
X96962353Y-52192591D01*
X96960544Y-52195008D01*
X96903711Y-52237555D01*
X96859676Y-52245500D01*
X96386956Y-52245500D01*
X96318835Y-52225498D01*
X96272342Y-52171842D01*
X96268901Y-52163533D01*
X96247342Y-52105734D01*
X96247342Y-52105733D01*
X96247339Y-52105730D01*
X96244908Y-52101275D01*
X96229500Y-52040897D01*
X96229500Y-51380500D01*
X96249502Y-51312379D01*
X96303158Y-51265886D01*
X96355500Y-51254500D01*
X107093615Y-51254500D01*
X107161736Y-51274502D01*
X107182710Y-51291405D01*
X109608595Y-53717289D01*
X109642620Y-53779601D01*
X109645500Y-53806384D01*
X109645500Y-54616733D01*
X109645501Y-54616743D01*
X109660265Y-54690970D01*
X109688198Y-54732773D01*
X109716516Y-54775154D01*
X109800699Y-54831404D01*
X109808932Y-54836905D01*
X109854459Y-54891383D01*
X109863306Y-54961826D01*
X109832665Y-55025870D01*
X109808932Y-55046435D01*
X109800699Y-55051935D01*
X109800699Y-55051936D01*
X109795470Y-55055430D01*
X109716514Y-55108187D01*
X109660266Y-55192367D01*
X109645500Y-55266600D01*
X109645500Y-56416733D01*
X109645501Y-56416743D01*
X109660265Y-56490970D01*
X109716516Y-56575154D01*
X109800697Y-56631403D01*
X109800699Y-56631404D01*
X109874933Y-56646170D01*
X110017575Y-56646169D01*
X110085694Y-56666171D01*
X110132187Y-56719826D01*
X110142292Y-56790100D01*
X110112799Y-56854681D01*
X110059191Y-56891098D01*
X109998731Y-56912254D01*
X109845225Y-57008707D01*
X109717037Y-57136895D01*
X109620583Y-57290403D01*
X109567657Y-57441657D01*
X109560707Y-57461519D01*
X109550826Y-57549216D01*
X109545588Y-57595709D01*
X109545500Y-57596486D01*
X109545500Y-57686854D01*
X109560707Y-57821821D01*
X109561658Y-57824538D01*
X109605201Y-57948978D01*
X109620584Y-57992938D01*
X109668665Y-58069460D01*
X109717037Y-58146444D01*
X109845225Y-58274632D01*
X109845227Y-58274633D01*
X109845228Y-58274634D01*
X109998732Y-58371086D01*
X110059191Y-58392241D01*
X110116882Y-58433619D01*
X110143044Y-58499619D01*
X110129372Y-58569287D01*
X110080204Y-58620503D01*
X110017576Y-58637170D01*
X109874937Y-58637170D01*
X109874926Y-58637171D01*
X109800699Y-58651935D01*
X109716515Y-58708186D01*
X109660266Y-58792367D01*
X109645500Y-58866600D01*
X109645500Y-59668220D01*
X109625498Y-59736341D01*
X109571842Y-59782834D01*
X109501568Y-59792938D01*
X109436988Y-59763444D01*
X109430405Y-59757315D01*
X107447260Y-57774170D01*
X107447248Y-57774156D01*
X107369421Y-57696329D01*
X107369411Y-57696321D01*
X107282876Y-57646361D01*
X107272679Y-57643629D01*
X107262480Y-57640896D01*
X107186361Y-57620499D01*
X107186358Y-57620499D01*
X107086434Y-57620499D01*
X107078716Y-57620499D01*
X107078700Y-57620500D01*
X104305292Y-57620500D01*
X104237171Y-57600498D01*
X104190678Y-57546842D01*
X104180403Y-57505041D01*
X104179860Y-57505100D01*
X104173040Y-57441660D01*
X104173040Y-57441658D01*
X104122342Y-57305733D01*
X104110865Y-57290402D01*
X104035404Y-57189596D01*
X103919267Y-57102658D01*
X103919265Y-57102657D01*
X103919266Y-57102657D01*
X103783349Y-57051962D01*
X103783344Y-57051960D01*
X103783342Y-57051960D01*
X103753298Y-57048730D01*
X103723256Y-57045500D01*
X103101753Y-57045500D01*
X103101729Y-57045502D01*
X103041660Y-57051959D01*
X103041658Y-57051959D01*
X102905733Y-57102657D01*
X102789596Y-57189596D01*
X102702657Y-57305734D01*
X102651962Y-57441650D01*
X102651960Y-57441658D01*
X102645500Y-57501737D01*
X102645500Y-58498246D01*
X102645502Y-58498270D01*
X102651959Y-58558339D01*
X102651959Y-58558341D01*
X102702657Y-58694266D01*
X102773180Y-58788475D01*
X102789596Y-58810404D01*
X102867917Y-58869034D01*
X102908123Y-58899131D01*
X102950670Y-58955967D01*
X102955736Y-59026782D01*
X102921711Y-59089095D01*
X102908123Y-59100869D01*
X102789596Y-59189595D01*
X102702657Y-59305734D01*
X102651962Y-59441650D01*
X102651960Y-59441658D01*
X102645500Y-59501737D01*
X102645500Y-60498246D01*
X102645502Y-60498270D01*
X102651959Y-60558339D01*
X102651959Y-60558341D01*
X102702657Y-60694266D01*
X102702658Y-60694267D01*
X102789596Y-60810404D01*
X102905733Y-60897342D01*
X103041658Y-60948040D01*
X103101745Y-60954500D01*
X103723254Y-60954499D01*
X103783342Y-60948040D01*
X103919267Y-60897342D01*
X104035404Y-60810404D01*
X104122342Y-60694267D01*
X104173040Y-60558342D01*
X104178844Y-60504348D01*
X104179861Y-60494899D01*
X104180796Y-60494999D01*
X104203099Y-60431796D01*
X104259169Y-60388246D01*
X104305293Y-60379500D01*
X108290616Y-60379500D01*
X108358737Y-60399502D01*
X108379711Y-60416405D01*
X113134075Y-65170769D01*
X113168101Y-65233081D01*
X113170980Y-65259864D01*
X113170980Y-70230135D01*
X113150978Y-70298256D01*
X113134075Y-70319230D01*
X112848805Y-70604500D01*
X112526983Y-70926322D01*
X112526981Y-70926324D01*
X112491653Y-70961652D01*
X112456325Y-70996979D01*
X112456321Y-70996984D01*
X112406362Y-71083516D01*
X112406363Y-71083516D01*
X112406362Y-71083518D01*
X112406362Y-71083519D01*
X112402155Y-71099219D01*
X112380499Y-71180036D01*
X112380499Y-71290112D01*
X112380500Y-71290125D01*
X112380500Y-75655078D01*
X112360498Y-75723199D01*
X112306842Y-75769692D01*
X112236568Y-75779796D01*
X112206285Y-75771488D01*
X112199304Y-75768596D01*
X112125069Y-75753830D01*
X112125067Y-75753830D01*
X111630500Y-75753830D01*
X111562379Y-75733828D01*
X111515886Y-75680172D01*
X111504500Y-75627830D01*
X111504500Y-75403582D01*
X111504500Y-75403581D01*
X111488206Y-75342770D01*
X111470120Y-75275271D01*
X111403701Y-75160230D01*
X111403699Y-75160228D01*
X111403695Y-75160223D01*
X106781405Y-70537933D01*
X106747379Y-70475621D01*
X106744500Y-70448838D01*
X106744500Y-68636082D01*
X106733787Y-68596100D01*
X106710119Y-68507770D01*
X106643700Y-68392730D01*
X106549770Y-68298800D01*
X106129679Y-67878709D01*
X108149500Y-67878709D01*
X108149500Y-68121290D01*
X108181160Y-68361782D01*
X108243944Y-68596095D01*
X108243945Y-68596097D01*
X108243946Y-68596100D01*
X108336776Y-68820212D01*
X108336777Y-68820213D01*
X108336782Y-68820224D01*
X108458061Y-69030285D01*
X108458063Y-69030288D01*
X108458064Y-69030289D01*
X108605735Y-69222738D01*
X108605739Y-69222742D01*
X108605744Y-69222748D01*
X108777251Y-69394255D01*
X108777256Y-69394259D01*
X108777262Y-69394265D01*
X108964003Y-69537556D01*
X108969714Y-69541938D01*
X109179775Y-69663217D01*
X109179779Y-69663218D01*
X109179788Y-69663224D01*
X109403900Y-69756054D01*
X109638211Y-69818838D01*
X109638215Y-69818838D01*
X109638217Y-69818839D01*
X109700202Y-69826999D01*
X109878712Y-69850500D01*
X109878719Y-69850500D01*
X110121281Y-69850500D01*
X110121288Y-69850500D01*
X110338637Y-69821885D01*
X110361782Y-69818839D01*
X110361782Y-69818838D01*
X110361789Y-69818838D01*
X110596100Y-69756054D01*
X110820212Y-69663224D01*
X111030289Y-69541936D01*
X111222738Y-69394265D01*
X111394265Y-69222738D01*
X111541936Y-69030289D01*
X111663224Y-68820212D01*
X111756054Y-68596100D01*
X111818838Y-68361789D01*
X111850500Y-68121288D01*
X111850500Y-67878712D01*
X111818838Y-67638211D01*
X111756054Y-67403900D01*
X111663224Y-67179788D01*
X111663218Y-67179779D01*
X111663217Y-67179775D01*
X111541938Y-66969714D01*
X111541936Y-66969711D01*
X111394265Y-66777262D01*
X111394259Y-66777256D01*
X111394255Y-66777251D01*
X111222748Y-66605744D01*
X111222742Y-66605739D01*
X111222738Y-66605735D01*
X111030289Y-66458064D01*
X111030288Y-66458063D01*
X111030285Y-66458061D01*
X110820224Y-66336782D01*
X110820216Y-66336778D01*
X110820212Y-66336776D01*
X110596100Y-66243946D01*
X110596097Y-66243945D01*
X110596095Y-66243944D01*
X110361782Y-66181160D01*
X110121290Y-66149500D01*
X110121288Y-66149500D01*
X109878712Y-66149500D01*
X109878709Y-66149500D01*
X109638217Y-66181160D01*
X109403904Y-66243944D01*
X109403900Y-66243946D01*
X109308790Y-66283342D01*
X109179786Y-66336777D01*
X109179775Y-66336782D01*
X108969714Y-66458061D01*
X108777262Y-66605735D01*
X108777251Y-66605744D01*
X108605744Y-66777251D01*
X108605735Y-66777262D01*
X108458061Y-66969714D01*
X108336782Y-67179775D01*
X108336777Y-67179786D01*
X108336776Y-67179788D01*
X108295474Y-67279500D01*
X108243946Y-67403900D01*
X108243944Y-67403904D01*
X108181160Y-67638217D01*
X108149500Y-67878709D01*
X106129679Y-67878709D01*
X105166402Y-66915431D01*
X105132378Y-66853122D01*
X105129499Y-66826339D01*
X105129499Y-66823264D01*
X105129500Y-66823255D01*
X105129499Y-66101746D01*
X105123040Y-66041658D01*
X105072342Y-65905733D01*
X104985404Y-65789596D01*
X104869267Y-65702658D01*
X104869265Y-65702657D01*
X104869266Y-65702657D01*
X104733349Y-65651962D01*
X104733344Y-65651960D01*
X104733342Y-65651960D01*
X104703298Y-65648730D01*
X104673256Y-65645500D01*
X103326753Y-65645500D01*
X103326729Y-65645502D01*
X103266660Y-65651959D01*
X103266658Y-65651959D01*
X103130733Y-65702657D01*
X103014596Y-65789595D01*
X102969969Y-65849211D01*
X102927658Y-65905733D01*
X102927657Y-65905734D01*
X102926330Y-65907508D01*
X102869495Y-65950055D01*
X102825461Y-65958000D01*
X102574539Y-65958000D01*
X102506418Y-65937998D01*
X102473670Y-65907508D01*
X102472342Y-65905734D01*
X102472342Y-65905733D01*
X102385404Y-65789596D01*
X102269267Y-65702658D01*
X102269265Y-65702657D01*
X102269266Y-65702657D01*
X102133349Y-65651962D01*
X102133344Y-65651960D01*
X102133342Y-65651960D01*
X102103298Y-65648730D01*
X102073256Y-65645500D01*
X100726753Y-65645500D01*
X100726729Y-65645502D01*
X100666660Y-65651959D01*
X100666658Y-65651959D01*
X100530733Y-65702657D01*
X100414596Y-65789596D01*
X100327657Y-65905734D01*
X100276962Y-66041650D01*
X100276960Y-66041658D01*
X100270500Y-66101737D01*
X100270500Y-66823246D01*
X100270502Y-66823270D01*
X100276959Y-66883339D01*
X100276959Y-66883341D01*
X100327657Y-67019266D01*
X100327658Y-67019267D01*
X100414596Y-67135404D01*
X100530733Y-67222342D01*
X100666658Y-67273040D01*
X100726745Y-67279500D01*
X102073254Y-67279499D01*
X102133342Y-67273040D01*
X102269267Y-67222342D01*
X102385404Y-67135404D01*
X102472342Y-67019267D01*
X102472342Y-67019265D01*
X102473670Y-67017492D01*
X102530505Y-66974945D01*
X102574539Y-66967000D01*
X102825461Y-66967000D01*
X102893582Y-66987002D01*
X102926330Y-67017492D01*
X102927657Y-67019265D01*
X102927658Y-67019267D01*
X103014596Y-67135404D01*
X103130733Y-67222342D01*
X103266658Y-67273040D01*
X103326745Y-67279500D01*
X104051338Y-67279499D01*
X104119459Y-67299501D01*
X104140433Y-67316404D01*
X105698595Y-68874565D01*
X105732620Y-68936877D01*
X105735500Y-68963660D01*
X105735500Y-70776417D01*
X105735499Y-70776417D01*
X105769880Y-70904728D01*
X105769883Y-70904735D01*
X105782964Y-70927391D01*
X105836296Y-71019766D01*
X105836304Y-71019776D01*
X110355264Y-75538735D01*
X110389290Y-75601047D01*
X110384225Y-75671862D01*
X110341678Y-75728698D01*
X110275158Y-75753509D01*
X110266169Y-75753830D01*
X109874936Y-75753830D01*
X109874926Y-75753831D01*
X109800699Y-75768595D01*
X109716515Y-75824846D01*
X109660266Y-75909027D01*
X109645500Y-75983260D01*
X109645500Y-77133393D01*
X109645501Y-77133403D01*
X109660265Y-77207630D01*
X109688198Y-77249433D01*
X109716516Y-77291814D01*
X109800698Y-77348063D01*
X109808932Y-77353565D01*
X109854459Y-77408043D01*
X109863306Y-77478486D01*
X109832665Y-77542530D01*
X109808932Y-77563095D01*
X109716514Y-77624847D01*
X109660266Y-77709027D01*
X109651637Y-77752411D01*
X109618730Y-77815320D01*
X109557035Y-77850453D01*
X109528058Y-77853830D01*
X109309491Y-77853830D01*
X109241370Y-77833828D01*
X109220396Y-77816925D01*
X107801405Y-76397934D01*
X107767379Y-76335622D01*
X107764500Y-76308839D01*
X107764500Y-74893582D01*
X107764500Y-74893581D01*
X107730119Y-74765270D01*
X107663700Y-74650230D01*
X107569770Y-74556300D01*
X106970249Y-73956779D01*
X105104776Y-72091304D01*
X105104766Y-72091296D01*
X105031837Y-72049191D01*
X105031834Y-72049189D01*
X105022492Y-72043795D01*
X104973500Y-71992411D01*
X104967440Y-71978711D01*
X104952342Y-71938234D01*
X104952342Y-71938233D01*
X104865404Y-71822096D01*
X104749267Y-71735158D01*
X104749265Y-71735157D01*
X104749266Y-71735157D01*
X104613349Y-71684462D01*
X104613344Y-71684460D01*
X104613342Y-71684460D01*
X104583298Y-71681230D01*
X104553256Y-71678000D01*
X103206753Y-71678000D01*
X103206729Y-71678002D01*
X103146660Y-71684459D01*
X103146658Y-71684459D01*
X103010733Y-71735157D01*
X102894595Y-71822096D01*
X102813815Y-71930008D01*
X102756979Y-71972555D01*
X102712946Y-71980500D01*
X102544539Y-71980500D01*
X102476418Y-71960498D01*
X102443670Y-71930008D01*
X102442342Y-71928234D01*
X102442342Y-71928233D01*
X102355404Y-71812096D01*
X102352525Y-71809941D01*
X102316396Y-71782896D01*
X102239267Y-71725158D01*
X102239265Y-71725157D01*
X102239266Y-71725157D01*
X102103349Y-71674462D01*
X102103344Y-71674460D01*
X102103342Y-71674460D01*
X102073298Y-71671230D01*
X102043256Y-71668000D01*
X100696753Y-71668000D01*
X100696729Y-71668002D01*
X100636660Y-71674459D01*
X100636658Y-71674459D01*
X100500733Y-71725157D01*
X100384596Y-71812096D01*
X100297657Y-71928234D01*
X100246962Y-72064150D01*
X100246960Y-72064158D01*
X100240500Y-72124237D01*
X100240500Y-72845746D01*
X100240502Y-72845770D01*
X100246959Y-72905839D01*
X100246959Y-72905841D01*
X100297657Y-73041766D01*
X100300603Y-73045701D01*
X100384596Y-73157904D01*
X100500733Y-73244842D01*
X100636658Y-73295540D01*
X100696745Y-73302000D01*
X102043254Y-73301999D01*
X102103342Y-73295540D01*
X102239267Y-73244842D01*
X102355404Y-73157904D01*
X102442342Y-73041767D01*
X102442342Y-73041765D01*
X102443670Y-73039992D01*
X102500505Y-72997445D01*
X102544539Y-72989500D01*
X102698898Y-72989500D01*
X102767019Y-73009502D01*
X102800724Y-73045701D01*
X102802258Y-73044553D01*
X102807657Y-73051766D01*
X102807658Y-73051767D01*
X102894596Y-73167904D01*
X103010733Y-73254842D01*
X103146658Y-73305540D01*
X103206745Y-73312000D01*
X104553254Y-73311999D01*
X104613342Y-73305540D01*
X104740481Y-73258118D01*
X104811295Y-73253053D01*
X104873605Y-73287076D01*
X104873608Y-73287078D01*
X104873608Y-73287079D01*
X106718595Y-75132065D01*
X106752620Y-75194377D01*
X106755500Y-75221160D01*
X106755500Y-76636417D01*
X106755499Y-76636417D01*
X106789880Y-76764728D01*
X106789882Y-76764731D01*
X106808710Y-76797342D01*
X106808710Y-76797343D01*
X106856297Y-76879767D01*
X106856305Y-76879777D01*
X108738553Y-78762025D01*
X108738558Y-78762029D01*
X108738560Y-78762031D01*
X108738561Y-78762032D01*
X108738563Y-78762033D01*
X108853597Y-78828448D01*
X108853598Y-78828448D01*
X108853601Y-78828450D01*
X108947526Y-78853615D01*
X108947530Y-78853618D01*
X108947531Y-78853617D01*
X108981911Y-78862830D01*
X108981912Y-78862830D01*
X109114749Y-78862830D01*
X109528058Y-78862830D01*
X109596179Y-78882832D01*
X109642672Y-78936488D01*
X109651637Y-78964249D01*
X109657477Y-78993610D01*
X109660266Y-79007631D01*
X109716516Y-79091814D01*
X109800039Y-79147623D01*
X109808932Y-79153565D01*
X109854459Y-79208043D01*
X109863306Y-79278486D01*
X109832665Y-79342530D01*
X109808932Y-79363095D01*
X109716514Y-79424847D01*
X109660266Y-79509027D01*
X109651637Y-79552411D01*
X109618730Y-79615320D01*
X109557035Y-79650453D01*
X109528058Y-79653830D01*
X108369491Y-79653830D01*
X108301370Y-79633828D01*
X108280396Y-79616925D01*
X106722276Y-78058804D01*
X106722266Y-78058796D01*
X106649337Y-78016691D01*
X106607232Y-77992382D01*
X106607231Y-77992381D01*
X106607230Y-77992381D01*
X106478919Y-77958000D01*
X106478917Y-77958000D01*
X105274539Y-77958000D01*
X105206418Y-77937998D01*
X105173670Y-77907508D01*
X105172342Y-77905734D01*
X105172342Y-77905733D01*
X105085404Y-77789596D01*
X105076945Y-77783264D01*
X104999603Y-77725367D01*
X104969267Y-77702658D01*
X104969265Y-77702657D01*
X104969266Y-77702657D01*
X104833349Y-77651962D01*
X104833344Y-77651960D01*
X104833342Y-77651960D01*
X104803298Y-77648730D01*
X104773256Y-77645500D01*
X103426753Y-77645500D01*
X103426729Y-77645502D01*
X103366660Y-77651959D01*
X103366658Y-77651959D01*
X103230733Y-77702657D01*
X103114596Y-77789595D01*
X103097240Y-77812781D01*
X103027658Y-77905733D01*
X103027657Y-77905734D01*
X103026330Y-77907508D01*
X102969495Y-77950055D01*
X102925461Y-77958000D01*
X102674539Y-77958000D01*
X102606418Y-77937998D01*
X102573670Y-77907508D01*
X102572342Y-77905734D01*
X102572342Y-77905733D01*
X102485404Y-77789596D01*
X102476945Y-77783264D01*
X102399603Y-77725367D01*
X102369267Y-77702658D01*
X102369265Y-77702657D01*
X102369266Y-77702657D01*
X102233349Y-77651962D01*
X102233344Y-77651960D01*
X102233342Y-77651960D01*
X102203298Y-77648730D01*
X102173256Y-77645500D01*
X100826753Y-77645500D01*
X100826729Y-77645502D01*
X100766660Y-77651959D01*
X100766658Y-77651959D01*
X100630733Y-77702657D01*
X100514596Y-77789596D01*
X100427657Y-77905734D01*
X100376962Y-78041650D01*
X100376960Y-78041658D01*
X100370500Y-78101737D01*
X100370500Y-78823246D01*
X100370502Y-78823270D01*
X100376959Y-78883339D01*
X100376959Y-78883341D01*
X100427657Y-79019266D01*
X100427658Y-79019267D01*
X100514596Y-79135404D01*
X100630733Y-79222342D01*
X100766658Y-79273040D01*
X100826745Y-79279500D01*
X102173254Y-79279499D01*
X102233342Y-79273040D01*
X102369267Y-79222342D01*
X102485404Y-79135404D01*
X102572342Y-79019267D01*
X102572342Y-79019265D01*
X102573670Y-79017492D01*
X102630505Y-78974945D01*
X102674539Y-78967000D01*
X102925461Y-78967000D01*
X102993582Y-78987002D01*
X103026330Y-79017492D01*
X103027657Y-79019265D01*
X103027658Y-79019267D01*
X103114596Y-79135404D01*
X103230733Y-79222342D01*
X103366658Y-79273040D01*
X103426745Y-79279500D01*
X104773254Y-79279499D01*
X104833342Y-79273040D01*
X104969267Y-79222342D01*
X105085404Y-79135404D01*
X105172342Y-79019267D01*
X105172342Y-79019265D01*
X105173670Y-79017492D01*
X105230505Y-78974945D01*
X105274539Y-78967000D01*
X106151339Y-78967000D01*
X106219460Y-78987002D01*
X106240434Y-79003905D01*
X107798553Y-80562025D01*
X107798557Y-80562028D01*
X107798560Y-80562031D01*
X107871492Y-80604138D01*
X107913600Y-80628449D01*
X108041911Y-80662830D01*
X108041912Y-80662830D01*
X108174749Y-80662830D01*
X109528058Y-80662830D01*
X109596179Y-80682832D01*
X109642672Y-80736488D01*
X109651637Y-80764249D01*
X109660093Y-80806762D01*
X109660266Y-80807631D01*
X109716516Y-80891814D01*
X109795485Y-80944580D01*
X109808932Y-80953565D01*
X109854459Y-81008043D01*
X109863306Y-81078486D01*
X109832665Y-81142530D01*
X109808932Y-81163095D01*
X109716514Y-81224847D01*
X109660266Y-81309027D01*
X109656699Y-81326960D01*
X109652693Y-81347104D01*
X109651637Y-81352411D01*
X109618730Y-81415320D01*
X109557035Y-81450453D01*
X109528058Y-81453830D01*
X109145251Y-81453830D01*
X109066722Y-81474871D01*
X109016935Y-81488212D01*
X108901903Y-81554626D01*
X108901893Y-81554634D01*
X106535434Y-83921095D01*
X106473122Y-83955120D01*
X106446339Y-83958000D01*
X105174539Y-83958000D01*
X105106418Y-83937998D01*
X105073670Y-83907508D01*
X105072342Y-83905734D01*
X105072342Y-83905733D01*
X104985404Y-83789596D01*
X104869267Y-83702658D01*
X104869265Y-83702657D01*
X104869266Y-83702657D01*
X104733349Y-83651962D01*
X104733344Y-83651960D01*
X104733342Y-83651960D01*
X104703298Y-83648730D01*
X104673256Y-83645500D01*
X103326753Y-83645500D01*
X103326729Y-83645502D01*
X103266660Y-83651959D01*
X103266658Y-83651959D01*
X103130733Y-83702657D01*
X103014596Y-83789595D01*
X103006782Y-83800034D01*
X102927658Y-83905733D01*
X102927657Y-83905734D01*
X102926330Y-83907508D01*
X102869495Y-83950055D01*
X102825461Y-83958000D01*
X102574539Y-83958000D01*
X102506418Y-83937998D01*
X102473670Y-83907508D01*
X102472342Y-83905734D01*
X102472342Y-83905733D01*
X102385404Y-83789596D01*
X102269267Y-83702658D01*
X102269265Y-83702657D01*
X102269266Y-83702657D01*
X102133349Y-83651962D01*
X102133344Y-83651960D01*
X102133342Y-83651960D01*
X102103298Y-83648730D01*
X102073256Y-83645500D01*
X100726753Y-83645500D01*
X100726729Y-83645502D01*
X100666660Y-83651959D01*
X100666658Y-83651959D01*
X100530733Y-83702657D01*
X100414596Y-83789596D01*
X100327657Y-83905734D01*
X100276962Y-84041650D01*
X100276960Y-84041658D01*
X100270500Y-84101737D01*
X100270500Y-84823246D01*
X100270502Y-84823270D01*
X100276959Y-84883339D01*
X100276959Y-84883341D01*
X100327657Y-85019266D01*
X100414596Y-85135404D01*
X100492379Y-85193631D01*
X100534926Y-85250467D01*
X100539992Y-85321283D01*
X100505967Y-85383595D01*
X100443655Y-85417620D01*
X100416871Y-85420500D01*
X76375780Y-85420500D01*
X76307659Y-85400498D01*
X76286685Y-85383595D01*
X74504827Y-83601737D01*
X91945500Y-83601737D01*
X91945500Y-84223246D01*
X91945502Y-84223270D01*
X91951959Y-84283339D01*
X91951959Y-84283341D01*
X92002657Y-84419266D01*
X92002658Y-84419267D01*
X92089596Y-84535404D01*
X92205733Y-84622342D01*
X92341658Y-84673040D01*
X92401745Y-84679500D01*
X93398254Y-84679499D01*
X93458342Y-84673040D01*
X93594267Y-84622342D01*
X93710404Y-84535404D01*
X93733171Y-84504991D01*
X93790006Y-84462444D01*
X93834039Y-84454500D01*
X96024507Y-84454500D01*
X96081709Y-84468233D01*
X96123444Y-84489498D01*
X96155018Y-84494498D01*
X96218166Y-84504500D01*
X96218168Y-84504500D01*
X97456832Y-84504500D01*
X97456834Y-84504500D01*
X97551555Y-84489498D01*
X97665723Y-84431326D01*
X97665722Y-84431326D01*
X97666887Y-84430733D01*
X97724090Y-84417000D01*
X97937889Y-84417000D01*
X98006010Y-84437002D01*
X98038757Y-84467491D01*
X98066829Y-84504991D01*
X98089596Y-84535404D01*
X98205733Y-84622342D01*
X98341658Y-84673040D01*
X98401745Y-84679500D01*
X99398254Y-84679499D01*
X99458342Y-84673040D01*
X99594267Y-84622342D01*
X99710404Y-84535404D01*
X99797342Y-84419267D01*
X99848040Y-84283342D01*
X99854500Y-84223255D01*
X99854499Y-83601746D01*
X99848040Y-83541658D01*
X99797342Y-83405733D01*
X99710404Y-83289596D01*
X99594267Y-83202658D01*
X99594265Y-83202657D01*
X99594266Y-83202657D01*
X99458349Y-83151962D01*
X99458344Y-83151960D01*
X99458342Y-83151960D01*
X99428298Y-83148730D01*
X99398256Y-83145500D01*
X98401753Y-83145500D01*
X98401729Y-83145502D01*
X98341660Y-83151959D01*
X98341658Y-83151959D01*
X98205733Y-83202657D01*
X98089595Y-83289596D01*
X98038757Y-83357509D01*
X97981922Y-83400056D01*
X97937889Y-83408000D01*
X97545675Y-83408000D01*
X97525965Y-83406449D01*
X97456834Y-83395500D01*
X96218166Y-83395500D01*
X96197827Y-83398721D01*
X96123444Y-83410501D01*
X96081709Y-83431767D01*
X96024507Y-83445500D01*
X93890182Y-83445500D01*
X93822061Y-83425498D01*
X93789313Y-83395008D01*
X93745726Y-83336782D01*
X93710404Y-83289596D01*
X93594267Y-83202658D01*
X93594265Y-83202657D01*
X93594266Y-83202657D01*
X93458349Y-83151962D01*
X93458344Y-83151960D01*
X93458342Y-83151960D01*
X93428298Y-83148730D01*
X93398256Y-83145500D01*
X92401753Y-83145500D01*
X92401729Y-83145502D01*
X92341660Y-83151959D01*
X92341658Y-83151959D01*
X92205733Y-83202657D01*
X92089596Y-83289596D01*
X92002657Y-83405734D01*
X91951962Y-83541650D01*
X91951960Y-83541658D01*
X91945500Y-83601737D01*
X74504827Y-83601737D01*
X74446405Y-83543315D01*
X74412379Y-83481003D01*
X74409500Y-83454220D01*
X74409500Y-80066417D01*
X85995499Y-80066417D01*
X85995500Y-80066419D01*
X86029881Y-80194730D01*
X86042185Y-80216041D01*
X86042186Y-80216043D01*
X86096296Y-80309766D01*
X86096304Y-80309776D01*
X88277722Y-82491194D01*
X88277725Y-82491196D01*
X88277730Y-82491201D01*
X88347230Y-82531326D01*
X88347231Y-82531327D01*
X88392764Y-82557616D01*
X88392767Y-82557617D01*
X88392770Y-82557619D01*
X88521081Y-82592000D01*
X88521082Y-82592000D01*
X88653919Y-82592000D01*
X91937889Y-82592000D01*
X92006010Y-82612002D01*
X92038757Y-82642491D01*
X92075679Y-82691813D01*
X92089596Y-82710404D01*
X92205733Y-82797342D01*
X92341658Y-82848040D01*
X92401745Y-82854500D01*
X93398254Y-82854499D01*
X93458342Y-82848040D01*
X93594267Y-82797342D01*
X93710404Y-82710404D01*
X93797342Y-82594267D01*
X93848040Y-82458342D01*
X93854500Y-82398255D01*
X93854499Y-81868167D01*
X95845500Y-81868167D01*
X95845500Y-82231832D01*
X95860501Y-82326553D01*
X95918673Y-82440723D01*
X96009276Y-82531326D01*
X96060879Y-82557619D01*
X96123445Y-82589498D01*
X96218166Y-82604500D01*
X96218168Y-82604500D01*
X97456832Y-82604500D01*
X97456834Y-82604500D01*
X97525965Y-82593550D01*
X97545675Y-82592000D01*
X97937889Y-82592000D01*
X98006010Y-82612002D01*
X98038757Y-82642491D01*
X98075679Y-82691813D01*
X98089596Y-82710404D01*
X98205733Y-82797342D01*
X98341658Y-82848040D01*
X98401745Y-82854500D01*
X99398254Y-82854499D01*
X99458342Y-82848040D01*
X99594267Y-82797342D01*
X99710404Y-82710404D01*
X99797342Y-82594267D01*
X99848040Y-82458342D01*
X99854500Y-82398255D01*
X99854499Y-82167999D01*
X99874501Y-82099880D01*
X99928156Y-82053387D01*
X99980499Y-82042000D01*
X100225461Y-82042000D01*
X100293582Y-82062002D01*
X100326330Y-82092492D01*
X100327657Y-82094265D01*
X100327658Y-82094267D01*
X100414596Y-82210404D01*
X100530733Y-82297342D01*
X100666658Y-82348040D01*
X100726745Y-82354500D01*
X102073254Y-82354499D01*
X102133342Y-82348040D01*
X102269267Y-82297342D01*
X102385404Y-82210404D01*
X102472342Y-82094267D01*
X102472342Y-82094265D01*
X102473670Y-82092492D01*
X102530505Y-82049945D01*
X102574539Y-82042000D01*
X102825461Y-82042000D01*
X102893582Y-82062002D01*
X102926330Y-82092492D01*
X102927657Y-82094265D01*
X102927658Y-82094267D01*
X103014596Y-82210404D01*
X103130733Y-82297342D01*
X103266658Y-82348040D01*
X103326745Y-82354500D01*
X104673254Y-82354499D01*
X104733342Y-82348040D01*
X104869267Y-82297342D01*
X104985404Y-82210404D01*
X105072342Y-82094267D01*
X105123040Y-81958342D01*
X105129500Y-81898255D01*
X105129499Y-81176746D01*
X105123040Y-81116658D01*
X105072342Y-80980733D01*
X104985404Y-80864596D01*
X104869267Y-80777658D01*
X104869265Y-80777657D01*
X104869266Y-80777657D01*
X104733349Y-80726962D01*
X104733344Y-80726960D01*
X104733342Y-80726960D01*
X104703298Y-80723730D01*
X104673256Y-80720500D01*
X103326753Y-80720500D01*
X103326729Y-80720502D01*
X103266660Y-80726959D01*
X103266658Y-80726959D01*
X103130733Y-80777657D01*
X103014596Y-80864595D01*
X102994221Y-80891814D01*
X102927658Y-80980733D01*
X102927657Y-80980734D01*
X102926330Y-80982508D01*
X102869495Y-81025055D01*
X102825461Y-81033000D01*
X102574539Y-81033000D01*
X102506418Y-81012998D01*
X102473670Y-80982508D01*
X102472342Y-80980734D01*
X102472342Y-80980733D01*
X102385404Y-80864596D01*
X102269267Y-80777658D01*
X102269265Y-80777657D01*
X102269266Y-80777657D01*
X102133349Y-80726962D01*
X102133344Y-80726960D01*
X102133342Y-80726960D01*
X102103298Y-80723730D01*
X102073256Y-80720500D01*
X100726753Y-80720500D01*
X100726729Y-80720502D01*
X100666660Y-80726959D01*
X100666658Y-80726959D01*
X100530733Y-80777657D01*
X100414596Y-80864595D01*
X100394221Y-80891814D01*
X100327658Y-80980733D01*
X100327657Y-80980734D01*
X100326330Y-80982508D01*
X100269495Y-81025055D01*
X100225461Y-81033000D01*
X99383581Y-81033000D01*
X99298040Y-81055920D01*
X99255269Y-81067381D01*
X99140233Y-81133797D01*
X99140227Y-81133802D01*
X98990433Y-81283596D01*
X98928121Y-81317621D01*
X98901338Y-81320500D01*
X98401753Y-81320500D01*
X98401729Y-81320502D01*
X98341660Y-81326959D01*
X98341658Y-81326959D01*
X98205733Y-81377657D01*
X98089595Y-81464596D01*
X98038757Y-81532509D01*
X97981922Y-81575056D01*
X97937889Y-81583000D01*
X97724090Y-81583000D01*
X97666887Y-81569267D01*
X97551553Y-81510501D01*
X97486836Y-81500251D01*
X97456834Y-81495500D01*
X96218166Y-81495500D01*
X96192266Y-81499602D01*
X96123446Y-81510501D01*
X96009276Y-81568673D01*
X95918673Y-81659276D01*
X95860501Y-81773446D01*
X95845500Y-81868167D01*
X93854499Y-81868167D01*
X93854499Y-81776746D01*
X93848040Y-81716658D01*
X93797342Y-81580733D01*
X93710404Y-81464596D01*
X93594267Y-81377658D01*
X93594265Y-81377657D01*
X93594266Y-81377657D01*
X93458349Y-81326962D01*
X93458344Y-81326960D01*
X93458342Y-81326960D01*
X93428298Y-81323730D01*
X93398256Y-81320500D01*
X92401753Y-81320500D01*
X92401729Y-81320502D01*
X92341660Y-81326959D01*
X92341658Y-81326959D01*
X92205733Y-81377657D01*
X92089595Y-81464596D01*
X92038757Y-81532509D01*
X91981922Y-81575056D01*
X91937889Y-81583000D01*
X88848661Y-81583000D01*
X88780540Y-81562998D01*
X88759566Y-81546095D01*
X87041405Y-79827934D01*
X87007379Y-79765622D01*
X87004500Y-79738839D01*
X87004500Y-77601737D01*
X92045500Y-77601737D01*
X92045500Y-78223246D01*
X92045502Y-78223270D01*
X92051959Y-78283339D01*
X92051959Y-78283341D01*
X92102657Y-78419266D01*
X92111241Y-78430733D01*
X92189596Y-78535404D01*
X92305733Y-78622342D01*
X92441658Y-78673040D01*
X92501745Y-78679500D01*
X93498254Y-78679499D01*
X93558342Y-78673040D01*
X93694267Y-78622342D01*
X93810404Y-78535404D01*
X93838829Y-78497431D01*
X93861243Y-78467491D01*
X93918078Y-78424944D01*
X93962111Y-78417000D01*
X96050910Y-78417000D01*
X96108113Y-78430733D01*
X96109277Y-78431326D01*
X96223445Y-78489498D01*
X96318166Y-78504500D01*
X96318168Y-78504500D01*
X97556832Y-78504500D01*
X97556834Y-78504500D01*
X97651555Y-78489498D01*
X97765723Y-78431326D01*
X97765722Y-78431326D01*
X97766887Y-78430733D01*
X97824090Y-78417000D01*
X98037889Y-78417000D01*
X98106010Y-78437002D01*
X98138757Y-78467491D01*
X98189595Y-78535403D01*
X98189596Y-78535404D01*
X98305733Y-78622342D01*
X98441658Y-78673040D01*
X98501745Y-78679500D01*
X99498254Y-78679499D01*
X99558342Y-78673040D01*
X99694267Y-78622342D01*
X99810404Y-78535404D01*
X99897342Y-78419267D01*
X99948040Y-78283342D01*
X99954500Y-78223255D01*
X99954499Y-77601746D01*
X99948040Y-77541658D01*
X99897342Y-77405733D01*
X99810404Y-77289596D01*
X99694267Y-77202658D01*
X99694265Y-77202657D01*
X99694266Y-77202657D01*
X99558349Y-77151962D01*
X99558344Y-77151960D01*
X99558342Y-77151960D01*
X99528298Y-77148730D01*
X99498256Y-77145500D01*
X98501753Y-77145500D01*
X98501729Y-77145502D01*
X98441660Y-77151959D01*
X98441658Y-77151959D01*
X98305733Y-77202657D01*
X98189595Y-77289596D01*
X98138757Y-77357509D01*
X98081922Y-77400056D01*
X98037889Y-77408000D01*
X97645675Y-77408000D01*
X97625965Y-77406449D01*
X97556834Y-77395500D01*
X96318166Y-77395500D01*
X96249035Y-77406449D01*
X96229325Y-77408000D01*
X93962111Y-77408000D01*
X93893990Y-77387998D01*
X93861243Y-77357509D01*
X93810404Y-77289596D01*
X93786019Y-77271342D01*
X93694267Y-77202658D01*
X93694265Y-77202657D01*
X93694266Y-77202657D01*
X93558349Y-77151962D01*
X93558344Y-77151960D01*
X93558342Y-77151960D01*
X93528298Y-77148730D01*
X93498256Y-77145500D01*
X92501753Y-77145500D01*
X92501729Y-77145502D01*
X92441660Y-77151959D01*
X92441658Y-77151959D01*
X92305733Y-77202657D01*
X92189596Y-77289596D01*
X92102657Y-77405734D01*
X92051962Y-77541650D01*
X92051960Y-77541658D01*
X92045500Y-77601737D01*
X87004500Y-77601737D01*
X87004500Y-75522162D01*
X87024502Y-75454041D01*
X87078158Y-75407548D01*
X87148432Y-75397444D01*
X87213012Y-75426938D01*
X87219595Y-75433067D01*
X88277723Y-76491195D01*
X88277730Y-76491201D01*
X88387368Y-76554500D01*
X88387371Y-76554503D01*
X88387371Y-76554502D01*
X88392770Y-76557619D01*
X88521081Y-76592000D01*
X92037889Y-76592000D01*
X92106010Y-76612002D01*
X92138757Y-76642491D01*
X92189595Y-76710403D01*
X92189596Y-76710404D01*
X92305733Y-76797342D01*
X92441658Y-76848040D01*
X92501745Y-76854500D01*
X93498254Y-76854499D01*
X93558342Y-76848040D01*
X93694267Y-76797342D01*
X93810404Y-76710404D01*
X93897342Y-76594267D01*
X93948040Y-76458342D01*
X93954500Y-76398255D01*
X93954499Y-75868166D01*
X95945500Y-75868166D01*
X95945500Y-76231834D01*
X95949090Y-76254500D01*
X95960501Y-76326553D01*
X96018673Y-76440723D01*
X96109276Y-76531326D01*
X96160879Y-76557619D01*
X96223445Y-76589498D01*
X96318166Y-76604500D01*
X96318168Y-76604500D01*
X97556832Y-76604500D01*
X97556834Y-76604500D01*
X97651555Y-76589498D01*
X97693291Y-76568233D01*
X97750493Y-76554500D01*
X98009818Y-76554500D01*
X98077939Y-76574502D01*
X98110685Y-76604990D01*
X98189596Y-76710404D01*
X98305733Y-76797342D01*
X98441658Y-76848040D01*
X98501745Y-76854500D01*
X99498254Y-76854499D01*
X99558342Y-76848040D01*
X99694267Y-76797342D01*
X99810404Y-76710404D01*
X99897342Y-76594267D01*
X99948040Y-76458342D01*
X99954500Y-76398255D01*
X99954500Y-76380500D01*
X99974502Y-76312379D01*
X100028158Y-76265886D01*
X100080500Y-76254500D01*
X100531566Y-76254500D01*
X100599687Y-76274502D01*
X100607067Y-76279626D01*
X100630733Y-76297342D01*
X100766658Y-76348040D01*
X100826745Y-76354500D01*
X102173254Y-76354499D01*
X102233342Y-76348040D01*
X102369267Y-76297342D01*
X102485404Y-76210404D01*
X102572342Y-76094267D01*
X102572342Y-76094265D01*
X102573670Y-76092492D01*
X102630505Y-76049945D01*
X102674539Y-76042000D01*
X102925461Y-76042000D01*
X102993582Y-76062002D01*
X103026330Y-76092492D01*
X103027657Y-76094265D01*
X103027658Y-76094267D01*
X103114596Y-76210404D01*
X103230733Y-76297342D01*
X103366658Y-76348040D01*
X103426745Y-76354500D01*
X104773254Y-76354499D01*
X104833342Y-76348040D01*
X104969267Y-76297342D01*
X105085404Y-76210404D01*
X105172342Y-76094267D01*
X105223040Y-75958342D01*
X105229500Y-75898255D01*
X105229499Y-75176746D01*
X105223040Y-75116658D01*
X105172342Y-74980733D01*
X105085404Y-74864596D01*
X104969267Y-74777658D01*
X104969265Y-74777657D01*
X104969266Y-74777657D01*
X104833349Y-74726962D01*
X104833344Y-74726960D01*
X104833342Y-74726960D01*
X104803298Y-74723730D01*
X104773256Y-74720500D01*
X103426753Y-74720500D01*
X103426729Y-74720502D01*
X103366660Y-74726959D01*
X103366658Y-74726959D01*
X103230733Y-74777657D01*
X103114596Y-74864595D01*
X103079609Y-74911334D01*
X103027658Y-74980733D01*
X103027657Y-74980734D01*
X103026330Y-74982508D01*
X102969495Y-75025055D01*
X102925461Y-75033000D01*
X102674539Y-75033000D01*
X102606418Y-75012998D01*
X102573670Y-74982508D01*
X102572342Y-74980734D01*
X102572342Y-74980733D01*
X102485404Y-74864596D01*
X102369267Y-74777658D01*
X102369265Y-74777657D01*
X102369266Y-74777657D01*
X102233349Y-74726962D01*
X102233344Y-74726960D01*
X102233342Y-74726960D01*
X102203298Y-74723730D01*
X102173256Y-74720500D01*
X100826753Y-74720500D01*
X100826729Y-74720502D01*
X100766660Y-74726959D01*
X100766658Y-74726959D01*
X100630733Y-74777657D01*
X100514596Y-74864596D01*
X100427657Y-74980734D01*
X100376962Y-75116650D01*
X100376960Y-75116656D01*
X100376960Y-75116658D01*
X100375206Y-75132969D01*
X100348038Y-75198560D01*
X100289721Y-75239052D01*
X100249929Y-75245500D01*
X99271081Y-75245500D01*
X99216851Y-75260030D01*
X99142771Y-75279880D01*
X99142764Y-75279883D01*
X99115715Y-75295501D01*
X99115714Y-75295502D01*
X99101653Y-75303620D01*
X99038654Y-75320500D01*
X98501753Y-75320500D01*
X98501729Y-75320502D01*
X98441660Y-75326959D01*
X98441658Y-75326959D01*
X98305733Y-75377657D01*
X98189595Y-75464596D01*
X98166829Y-75495009D01*
X98109994Y-75537556D01*
X98065961Y-75545500D01*
X97750493Y-75545500D01*
X97693291Y-75531767D01*
X97651555Y-75510501D01*
X97579618Y-75499108D01*
X97556834Y-75495500D01*
X96318166Y-75495500D01*
X96292266Y-75499602D01*
X96223446Y-75510501D01*
X96109276Y-75568673D01*
X96018673Y-75659276D01*
X95960501Y-75773446D01*
X95952361Y-75824845D01*
X95945500Y-75868166D01*
X93954499Y-75868166D01*
X93954499Y-75776746D01*
X93948040Y-75716658D01*
X93897342Y-75580733D01*
X93810404Y-75464596D01*
X93694267Y-75377658D01*
X93694265Y-75377657D01*
X93694266Y-75377657D01*
X93558349Y-75326962D01*
X93558344Y-75326960D01*
X93558342Y-75326960D01*
X93528298Y-75323730D01*
X93498256Y-75320500D01*
X92501753Y-75320500D01*
X92501729Y-75320502D01*
X92441660Y-75326959D01*
X92441658Y-75326959D01*
X92305733Y-75377657D01*
X92189595Y-75464596D01*
X92138757Y-75532509D01*
X92081922Y-75575056D01*
X92037889Y-75583000D01*
X88848661Y-75583000D01*
X88780540Y-75562998D01*
X88759566Y-75546095D01*
X88041405Y-74827934D01*
X88007379Y-74765622D01*
X88004500Y-74738839D01*
X88004500Y-71601737D01*
X91945500Y-71601737D01*
X91945500Y-72223246D01*
X91945502Y-72223270D01*
X91951959Y-72283339D01*
X91951959Y-72283341D01*
X92002657Y-72419266D01*
X92011241Y-72430733D01*
X92089596Y-72535404D01*
X92205733Y-72622342D01*
X92341658Y-72673040D01*
X92401745Y-72679500D01*
X93398254Y-72679499D01*
X93458342Y-72673040D01*
X93594267Y-72622342D01*
X93710404Y-72535404D01*
X93738829Y-72497431D01*
X93761243Y-72467491D01*
X93818078Y-72424944D01*
X93862111Y-72417000D01*
X95950910Y-72417000D01*
X96008113Y-72430733D01*
X96009277Y-72431326D01*
X96123445Y-72489498D01*
X96218166Y-72504500D01*
X96218168Y-72504500D01*
X97456832Y-72504500D01*
X97456834Y-72504500D01*
X97551555Y-72489498D01*
X97593291Y-72468233D01*
X97650493Y-72454500D01*
X98065961Y-72454500D01*
X98134082Y-72474502D01*
X98166829Y-72504991D01*
X98189596Y-72535404D01*
X98305733Y-72622342D01*
X98441658Y-72673040D01*
X98501745Y-72679500D01*
X99498254Y-72679499D01*
X99558342Y-72673040D01*
X99694267Y-72622342D01*
X99810404Y-72535404D01*
X99897342Y-72419267D01*
X99948040Y-72283342D01*
X99954500Y-72223255D01*
X99954499Y-71601746D01*
X99948040Y-71541658D01*
X99897342Y-71405733D01*
X99810404Y-71289596D01*
X99694267Y-71202658D01*
X99694265Y-71202657D01*
X99694266Y-71202657D01*
X99558349Y-71151962D01*
X99558344Y-71151960D01*
X99558342Y-71151960D01*
X99528298Y-71148730D01*
X99498256Y-71145500D01*
X98501753Y-71145500D01*
X98501729Y-71145502D01*
X98441660Y-71151959D01*
X98441658Y-71151959D01*
X98305733Y-71202657D01*
X98189596Y-71289595D01*
X98110687Y-71395008D01*
X98053852Y-71437555D01*
X98009818Y-71445500D01*
X97650493Y-71445500D01*
X97593291Y-71431767D01*
X97551555Y-71410501D01*
X97479618Y-71399108D01*
X97456834Y-71395500D01*
X96218166Y-71395500D01*
X96149035Y-71406449D01*
X96129325Y-71408000D01*
X93862111Y-71408000D01*
X93793990Y-71387998D01*
X93761243Y-71357509D01*
X93710404Y-71289596D01*
X93697534Y-71279962D01*
X93594267Y-71202658D01*
X93594265Y-71202657D01*
X93594266Y-71202657D01*
X93458349Y-71151962D01*
X93458344Y-71151960D01*
X93458342Y-71151960D01*
X93428298Y-71148730D01*
X93398256Y-71145500D01*
X92401753Y-71145500D01*
X92401729Y-71145502D01*
X92341660Y-71151959D01*
X92341658Y-71151959D01*
X92205733Y-71202657D01*
X92089596Y-71289596D01*
X92002657Y-71405734D01*
X91951962Y-71541650D01*
X91951960Y-71541658D01*
X91945500Y-71601737D01*
X88004500Y-71601737D01*
X88004500Y-68762162D01*
X88024502Y-68694041D01*
X88078158Y-68647548D01*
X88148432Y-68637444D01*
X88213012Y-68666938D01*
X88219595Y-68673067D01*
X90037723Y-70491195D01*
X90037728Y-70491199D01*
X90037730Y-70491201D01*
X90037731Y-70491202D01*
X90037733Y-70491203D01*
X90152767Y-70557618D01*
X90152768Y-70557618D01*
X90152771Y-70557620D01*
X90246696Y-70582785D01*
X90246700Y-70582788D01*
X90246701Y-70582787D01*
X90281081Y-70592000D01*
X90281082Y-70592000D01*
X90413919Y-70592000D01*
X91937889Y-70592000D01*
X92006010Y-70612002D01*
X92038757Y-70642491D01*
X92060715Y-70671823D01*
X92089596Y-70710404D01*
X92205733Y-70797342D01*
X92341658Y-70848040D01*
X92401745Y-70854500D01*
X93398254Y-70854499D01*
X93458342Y-70848040D01*
X93594267Y-70797342D01*
X93710404Y-70710404D01*
X93797342Y-70594267D01*
X93848040Y-70458342D01*
X93854500Y-70398255D01*
X93854499Y-69868166D01*
X95845500Y-69868166D01*
X95845500Y-70231834D01*
X95847253Y-70242903D01*
X95860501Y-70326553D01*
X95918673Y-70440723D01*
X96009276Y-70531326D01*
X96060881Y-70557620D01*
X96123445Y-70589498D01*
X96218166Y-70604500D01*
X96218168Y-70604500D01*
X97456832Y-70604500D01*
X97456834Y-70604500D01*
X97551555Y-70589498D01*
X97564730Y-70582785D01*
X97593291Y-70568233D01*
X97650493Y-70554500D01*
X98009818Y-70554500D01*
X98077939Y-70574502D01*
X98110685Y-70604990D01*
X98189596Y-70710404D01*
X98305733Y-70797342D01*
X98441658Y-70848040D01*
X98501745Y-70854500D01*
X99498254Y-70854499D01*
X99558342Y-70848040D01*
X99694267Y-70797342D01*
X99810404Y-70710404D01*
X99897342Y-70594267D01*
X99948040Y-70458342D01*
X99954500Y-70398255D01*
X99954499Y-70190499D01*
X99974501Y-70122380D01*
X100028156Y-70075887D01*
X100080499Y-70064500D01*
X100195461Y-70064500D01*
X100263582Y-70084502D01*
X100296330Y-70114992D01*
X100297657Y-70116765D01*
X100297658Y-70116767D01*
X100384596Y-70232904D01*
X100500733Y-70319842D01*
X100636658Y-70370540D01*
X100696745Y-70377000D01*
X102043254Y-70376999D01*
X102103342Y-70370540D01*
X102239267Y-70319842D01*
X102355404Y-70232904D01*
X102436185Y-70124992D01*
X102493021Y-70082445D01*
X102537054Y-70074500D01*
X102705461Y-70074500D01*
X102773582Y-70094502D01*
X102806330Y-70124992D01*
X102807657Y-70126765D01*
X102807658Y-70126767D01*
X102894596Y-70242904D01*
X103010733Y-70329842D01*
X103146658Y-70380540D01*
X103206745Y-70387000D01*
X104553254Y-70386999D01*
X104613342Y-70380540D01*
X104749267Y-70329842D01*
X104865404Y-70242904D01*
X104952342Y-70126767D01*
X105003040Y-69990842D01*
X105009500Y-69930755D01*
X105009499Y-69209246D01*
X105003040Y-69149158D01*
X104952342Y-69013233D01*
X104865404Y-68897096D01*
X104749267Y-68810158D01*
X104749265Y-68810157D01*
X104749266Y-68810157D01*
X104613349Y-68759462D01*
X104613344Y-68759460D01*
X104613342Y-68759460D01*
X104583298Y-68756230D01*
X104553256Y-68753000D01*
X103206753Y-68753000D01*
X103206729Y-68753002D01*
X103146660Y-68759459D01*
X103146658Y-68759459D01*
X103010733Y-68810157D01*
X102894596Y-68897095D01*
X102853145Y-68952469D01*
X102807658Y-69013233D01*
X102807657Y-69013234D01*
X102806330Y-69015008D01*
X102749495Y-69057555D01*
X102705461Y-69065500D01*
X102551102Y-69065500D01*
X102482981Y-69045498D01*
X102449275Y-69009298D01*
X102447742Y-69010447D01*
X102440313Y-69000523D01*
X102355404Y-68887096D01*
X102239267Y-68800158D01*
X102239265Y-68800157D01*
X102239266Y-68800157D01*
X102103349Y-68749462D01*
X102103344Y-68749460D01*
X102103342Y-68749460D01*
X102073298Y-68746230D01*
X102043256Y-68743000D01*
X100696753Y-68743000D01*
X100696729Y-68743002D01*
X100636660Y-68749459D01*
X100636658Y-68749459D01*
X100500733Y-68800157D01*
X100384596Y-68887095D01*
X100377110Y-68897096D01*
X100297658Y-69003233D01*
X100297657Y-69003234D01*
X100296330Y-69005008D01*
X100239495Y-69047555D01*
X100195461Y-69055500D01*
X99461081Y-69055500D01*
X99423761Y-69065500D01*
X99332771Y-69089880D01*
X99332768Y-69089882D01*
X99315452Y-69099880D01*
X99315451Y-69099880D01*
X99217732Y-69156297D01*
X99090432Y-69283596D01*
X99028119Y-69317621D01*
X99001337Y-69320500D01*
X98501753Y-69320500D01*
X98501729Y-69320502D01*
X98441660Y-69326959D01*
X98441658Y-69326959D01*
X98305733Y-69377657D01*
X98189595Y-69464596D01*
X98166829Y-69495009D01*
X98109994Y-69537556D01*
X98065961Y-69545500D01*
X97650493Y-69545500D01*
X97593291Y-69531767D01*
X97551555Y-69510501D01*
X97479618Y-69499108D01*
X97456834Y-69495500D01*
X96218166Y-69495500D01*
X96192266Y-69499602D01*
X96123446Y-69510501D01*
X96009276Y-69568673D01*
X95918673Y-69659276D01*
X95860501Y-69773446D01*
X95853312Y-69818839D01*
X95845500Y-69868166D01*
X93854499Y-69868166D01*
X93854499Y-69776746D01*
X93848040Y-69716658D01*
X93797342Y-69580733D01*
X93710404Y-69464596D01*
X93594267Y-69377658D01*
X93594265Y-69377657D01*
X93594266Y-69377657D01*
X93458349Y-69326962D01*
X93458344Y-69326960D01*
X93458342Y-69326960D01*
X93428298Y-69323730D01*
X93398256Y-69320500D01*
X92401753Y-69320500D01*
X92401729Y-69320502D01*
X92341660Y-69326959D01*
X92341658Y-69326959D01*
X92205733Y-69377657D01*
X92089595Y-69464596D01*
X92038757Y-69532509D01*
X91981922Y-69575056D01*
X91937889Y-69583000D01*
X90608661Y-69583000D01*
X90540540Y-69562998D01*
X90519566Y-69546095D01*
X89041405Y-68067934D01*
X89007379Y-68005622D01*
X89004500Y-67978839D01*
X89004500Y-65601737D01*
X91945500Y-65601737D01*
X91945500Y-66223246D01*
X91945502Y-66223270D01*
X91951959Y-66283339D01*
X91951959Y-66283341D01*
X92002657Y-66419266D01*
X92011241Y-66430733D01*
X92089596Y-66535404D01*
X92205733Y-66622342D01*
X92341658Y-66673040D01*
X92401745Y-66679500D01*
X93398254Y-66679499D01*
X93458342Y-66673040D01*
X93594267Y-66622342D01*
X93710404Y-66535404D01*
X93738829Y-66497431D01*
X93761243Y-66467491D01*
X93818078Y-66424944D01*
X93862111Y-66417000D01*
X95950910Y-66417000D01*
X96008113Y-66430733D01*
X96020846Y-66437221D01*
X96123445Y-66489498D01*
X96218166Y-66504500D01*
X96218168Y-66504500D01*
X97456832Y-66504500D01*
X97456834Y-66504500D01*
X97551555Y-66489498D01*
X97593291Y-66468233D01*
X97650493Y-66454500D01*
X98065961Y-66454500D01*
X98134082Y-66474502D01*
X98166829Y-66504991D01*
X98189596Y-66535404D01*
X98305733Y-66622342D01*
X98441658Y-66673040D01*
X98501745Y-66679500D01*
X99498254Y-66679499D01*
X99558342Y-66673040D01*
X99694267Y-66622342D01*
X99810404Y-66535404D01*
X99897342Y-66419267D01*
X99948040Y-66283342D01*
X99954500Y-66223255D01*
X99954499Y-65601746D01*
X99948040Y-65541658D01*
X99897342Y-65405733D01*
X99810404Y-65289596D01*
X99694267Y-65202658D01*
X99694265Y-65202657D01*
X99694266Y-65202657D01*
X99558349Y-65151962D01*
X99558344Y-65151960D01*
X99558342Y-65151960D01*
X99528298Y-65148730D01*
X99498256Y-65145500D01*
X98501753Y-65145500D01*
X98501729Y-65145502D01*
X98441660Y-65151959D01*
X98441658Y-65151959D01*
X98305733Y-65202657D01*
X98189596Y-65289595D01*
X98110687Y-65395008D01*
X98053852Y-65437555D01*
X98009818Y-65445500D01*
X97650493Y-65445500D01*
X97593291Y-65431767D01*
X97551555Y-65410501D01*
X97479618Y-65399108D01*
X97456834Y-65395500D01*
X96218166Y-65395500D01*
X96149035Y-65406449D01*
X96129325Y-65408000D01*
X93862111Y-65408000D01*
X93793990Y-65387998D01*
X93761243Y-65357509D01*
X93710404Y-65289596D01*
X93670686Y-65259864D01*
X93594267Y-65202658D01*
X93594265Y-65202657D01*
X93594266Y-65202657D01*
X93458349Y-65151962D01*
X93458344Y-65151960D01*
X93458342Y-65151960D01*
X93428298Y-65148730D01*
X93398256Y-65145500D01*
X92401753Y-65145500D01*
X92401729Y-65145502D01*
X92341660Y-65151959D01*
X92341658Y-65151959D01*
X92205733Y-65202657D01*
X92089596Y-65289596D01*
X92002657Y-65405734D01*
X91951962Y-65541650D01*
X91951960Y-65541658D01*
X91945500Y-65601737D01*
X89004500Y-65601737D01*
X89004500Y-62772161D01*
X89024502Y-62704040D01*
X89078158Y-62657547D01*
X89148432Y-62647443D01*
X89213012Y-62676937D01*
X89219595Y-62683066D01*
X90082030Y-63545500D01*
X90933800Y-64397270D01*
X91027730Y-64491200D01*
X91142770Y-64557619D01*
X91271081Y-64592000D01*
X91937889Y-64592000D01*
X92006010Y-64612002D01*
X92038757Y-64642491D01*
X92089595Y-64710403D01*
X92089596Y-64710404D01*
X92205733Y-64797342D01*
X92341658Y-64848040D01*
X92401745Y-64854500D01*
X93398254Y-64854499D01*
X93458342Y-64848040D01*
X93594267Y-64797342D01*
X93710404Y-64710404D01*
X93797342Y-64594267D01*
X93848040Y-64458342D01*
X93854500Y-64398255D01*
X93854499Y-63868167D01*
X95845500Y-63868167D01*
X95845500Y-64231832D01*
X95860501Y-64326553D01*
X95918673Y-64440723D01*
X96009276Y-64531326D01*
X96060879Y-64557619D01*
X96123445Y-64589498D01*
X96218166Y-64604500D01*
X96218168Y-64604500D01*
X97456832Y-64604500D01*
X97456834Y-64604500D01*
X97551555Y-64589498D01*
X97593291Y-64568233D01*
X97650493Y-64554500D01*
X98009818Y-64554500D01*
X98077939Y-64574502D01*
X98110685Y-64604990D01*
X98189596Y-64710404D01*
X98305733Y-64797342D01*
X98441658Y-64848040D01*
X98501745Y-64854500D01*
X99498254Y-64854499D01*
X99558342Y-64848040D01*
X99694267Y-64797342D01*
X99810404Y-64710404D01*
X99897342Y-64594267D01*
X99948040Y-64458342D01*
X99954500Y-64398255D01*
X99954499Y-64090499D01*
X99974501Y-64022380D01*
X100028156Y-63975887D01*
X100080499Y-63964500D01*
X100191774Y-63964500D01*
X100259895Y-63984502D01*
X100306388Y-64038158D01*
X100309829Y-64046467D01*
X100326703Y-64091706D01*
X100327658Y-64094267D01*
X100414596Y-64210404D01*
X100530733Y-64297342D01*
X100666658Y-64348040D01*
X100726745Y-64354500D01*
X102073254Y-64354499D01*
X102133342Y-64348040D01*
X102269267Y-64297342D01*
X102385404Y-64210404D01*
X102472342Y-64094267D01*
X102472342Y-64094265D01*
X102473670Y-64092492D01*
X102530505Y-64049945D01*
X102574539Y-64042000D01*
X102825461Y-64042000D01*
X102893582Y-64062002D01*
X102926330Y-64092492D01*
X102927657Y-64094265D01*
X102927658Y-64094267D01*
X103014596Y-64210404D01*
X103130733Y-64297342D01*
X103266658Y-64348040D01*
X103326745Y-64354500D01*
X104673254Y-64354499D01*
X104733342Y-64348040D01*
X104869267Y-64297342D01*
X104985404Y-64210404D01*
X105072342Y-64094267D01*
X105123040Y-63958342D01*
X105129500Y-63898255D01*
X105129499Y-63176746D01*
X105123040Y-63116658D01*
X105072342Y-62980733D01*
X104985404Y-62864596D01*
X104869267Y-62777658D01*
X104869265Y-62777657D01*
X104869266Y-62777657D01*
X104733349Y-62726962D01*
X104733344Y-62726960D01*
X104733342Y-62726960D01*
X104703298Y-62723730D01*
X104673256Y-62720500D01*
X103326753Y-62720500D01*
X103326729Y-62720502D01*
X103266660Y-62726959D01*
X103266658Y-62726959D01*
X103130733Y-62777657D01*
X103014596Y-62864595D01*
X102969969Y-62924211D01*
X102927658Y-62980733D01*
X102927657Y-62980734D01*
X102926330Y-62982508D01*
X102869495Y-63025055D01*
X102825461Y-63033000D01*
X102574539Y-63033000D01*
X102506418Y-63012998D01*
X102473670Y-62982508D01*
X102472342Y-62980734D01*
X102472342Y-62980733D01*
X102385404Y-62864596D01*
X102371914Y-62854498D01*
X102346396Y-62835396D01*
X102269267Y-62777658D01*
X102269265Y-62777657D01*
X102269266Y-62777657D01*
X102133349Y-62726962D01*
X102133344Y-62726960D01*
X102133342Y-62726960D01*
X102103298Y-62723730D01*
X102073256Y-62720500D01*
X100726753Y-62720500D01*
X100726729Y-62720502D01*
X100666660Y-62726959D01*
X100666658Y-62726959D01*
X100530733Y-62777657D01*
X100414595Y-62864596D01*
X100384343Y-62905009D01*
X100327508Y-62947556D01*
X100283475Y-62955500D01*
X99561081Y-62955500D01*
X99475540Y-62978420D01*
X99432769Y-62989881D01*
X99390660Y-63014192D01*
X99317731Y-63056297D01*
X99090432Y-63283596D01*
X99028120Y-63317621D01*
X99001337Y-63320500D01*
X98501753Y-63320500D01*
X98501729Y-63320502D01*
X98441660Y-63326959D01*
X98441658Y-63326959D01*
X98305733Y-63377657D01*
X98189595Y-63464596D01*
X98166829Y-63495009D01*
X98109994Y-63537556D01*
X98065961Y-63545500D01*
X97650493Y-63545500D01*
X97593291Y-63531767D01*
X97551555Y-63510501D01*
X97479618Y-63499108D01*
X97456834Y-63495500D01*
X96218166Y-63495500D01*
X96192266Y-63499602D01*
X96123446Y-63510501D01*
X96009276Y-63568673D01*
X95918673Y-63659276D01*
X95860501Y-63773446D01*
X95845500Y-63868167D01*
X93854499Y-63868167D01*
X93854499Y-63776746D01*
X93848040Y-63716658D01*
X93797342Y-63580733D01*
X93710404Y-63464596D01*
X93594267Y-63377658D01*
X93594265Y-63377657D01*
X93594266Y-63377657D01*
X93458349Y-63326962D01*
X93458344Y-63326960D01*
X93458342Y-63326960D01*
X93428298Y-63323730D01*
X93398256Y-63320500D01*
X92401753Y-63320500D01*
X92401729Y-63320502D01*
X92341660Y-63326959D01*
X92341658Y-63326959D01*
X92205733Y-63377657D01*
X92089595Y-63464596D01*
X92038757Y-63532509D01*
X91981922Y-63575056D01*
X91937889Y-63583000D01*
X91598660Y-63583000D01*
X91530539Y-63562998D01*
X91509565Y-63546095D01*
X90041405Y-62077934D01*
X90007379Y-62015622D01*
X90004500Y-61988839D01*
X90004500Y-60761161D01*
X90024502Y-60693040D01*
X90041405Y-60672066D01*
X91037066Y-59676405D01*
X91099378Y-59642379D01*
X91126161Y-59639500D01*
X92712488Y-59639500D01*
X92769690Y-59653233D01*
X92811425Y-59674498D01*
X92842999Y-59679498D01*
X92906147Y-59689500D01*
X92906149Y-59689500D01*
X94419813Y-59689500D01*
X94419815Y-59689500D01*
X94514536Y-59674498D01*
X94628704Y-59616326D01*
X94719307Y-59525723D01*
X94777479Y-59411555D01*
X94792481Y-59316834D01*
X94792481Y-58953166D01*
X94777479Y-58858445D01*
X94741827Y-58788475D01*
X94719307Y-58744276D01*
X94628704Y-58653673D01*
X94572658Y-58625117D01*
X94547436Y-58612266D01*
X94495823Y-58563519D01*
X94478757Y-58494604D01*
X94501658Y-58427402D01*
X94547436Y-58387734D01*
X94628704Y-58346326D01*
X94719307Y-58255723D01*
X94777479Y-58141555D01*
X94792481Y-58046834D01*
X94792481Y-57683166D01*
X94777479Y-57588445D01*
X94733307Y-57501753D01*
X94719307Y-57474276D01*
X94628704Y-57383673D01*
X94572658Y-57355117D01*
X94547436Y-57342266D01*
X94495823Y-57293519D01*
X94478757Y-57224604D01*
X94501658Y-57157402D01*
X94547436Y-57117734D01*
X94628704Y-57076326D01*
X94719307Y-56985723D01*
X94777479Y-56871555D01*
X94792481Y-56776834D01*
X94792481Y-56413166D01*
X94777479Y-56318445D01*
X94719307Y-56204277D01*
X94714805Y-56195441D01*
X94716036Y-56194813D01*
X94695656Y-56137693D01*
X94711736Y-56068542D01*
X94762650Y-56019062D01*
X94821450Y-56004500D01*
X96238839Y-56004500D01*
X96306960Y-56024502D01*
X96327929Y-56041400D01*
X97285230Y-56998701D01*
X97358162Y-57040808D01*
X97400270Y-57065119D01*
X97528581Y-57099500D01*
X97528582Y-57099500D01*
X97661419Y-57099500D01*
X97862488Y-57099500D01*
X97919690Y-57113233D01*
X97928522Y-57117733D01*
X97980137Y-57166480D01*
X97997204Y-57235395D01*
X97974304Y-57302597D01*
X97928523Y-57342267D01*
X97847258Y-57383673D01*
X97847255Y-57383675D01*
X97756654Y-57474276D01*
X97698482Y-57588446D01*
X97689310Y-57646361D01*
X97683481Y-57683166D01*
X97683481Y-58046834D01*
X97687065Y-58069460D01*
X97698482Y-58141553D01*
X97756654Y-58255723D01*
X97847255Y-58346324D01*
X97847258Y-58346326D01*
X97928523Y-58387733D01*
X97980138Y-58436482D01*
X97997204Y-58505396D01*
X97974303Y-58572598D01*
X97928523Y-58612267D01*
X97847258Y-58653673D01*
X97847255Y-58653675D01*
X97756654Y-58744276D01*
X97698482Y-58858446D01*
X97683481Y-58953167D01*
X97683481Y-59316832D01*
X97698482Y-59411553D01*
X97756654Y-59525723D01*
X97847255Y-59616324D01*
X97847258Y-59616326D01*
X97928523Y-59657733D01*
X97980138Y-59706482D01*
X97997204Y-59775396D01*
X97974303Y-59842598D01*
X97928523Y-59882267D01*
X97847258Y-59923673D01*
X97847255Y-59923675D01*
X97756654Y-60014276D01*
X97698482Y-60128446D01*
X97683481Y-60223167D01*
X97683481Y-60586832D01*
X97698482Y-60681553D01*
X97756654Y-60795723D01*
X97847257Y-60886326D01*
X97892739Y-60909500D01*
X97961426Y-60944498D01*
X98056147Y-60959500D01*
X98056149Y-60959500D01*
X99569813Y-60959500D01*
X99569815Y-60959500D01*
X99664536Y-60944498D01*
X99706272Y-60923233D01*
X99763474Y-60909500D01*
X101090595Y-60909500D01*
X101134627Y-60917444D01*
X101150148Y-60923233D01*
X101216658Y-60948040D01*
X101276745Y-60954500D01*
X101898254Y-60954499D01*
X101958342Y-60948040D01*
X102094267Y-60897342D01*
X102210404Y-60810404D01*
X102297342Y-60694267D01*
X102348040Y-60558342D01*
X102354500Y-60498255D01*
X102354499Y-59501746D01*
X102348040Y-59441658D01*
X102297342Y-59305733D01*
X102210404Y-59189596D01*
X102094267Y-59102658D01*
X102094264Y-59102657D01*
X102091876Y-59100869D01*
X102049329Y-59044034D01*
X102044263Y-58973218D01*
X102078288Y-58910905D01*
X102091876Y-58899131D01*
X102094264Y-58897342D01*
X102094267Y-58897342D01*
X102210404Y-58810404D01*
X102297342Y-58694267D01*
X102348040Y-58558342D01*
X102354500Y-58498255D01*
X102354499Y-57501746D01*
X102348040Y-57441658D01*
X102297342Y-57305733D01*
X102210404Y-57189596D01*
X102094267Y-57102658D01*
X102094265Y-57102657D01*
X102094266Y-57102657D01*
X101958349Y-57051962D01*
X101958344Y-57051960D01*
X101958342Y-57051960D01*
X101928298Y-57048730D01*
X101898256Y-57045500D01*
X101276753Y-57045500D01*
X101276729Y-57045502D01*
X101216663Y-57051958D01*
X101184836Y-57063829D01*
X101082625Y-57101952D01*
X101011811Y-57107017D01*
X100949499Y-57072992D01*
X100915474Y-57010679D01*
X100920538Y-56939864D01*
X100949495Y-56894805D01*
X101835364Y-56008935D01*
X101897673Y-55974913D01*
X101906400Y-55973499D01*
X101908337Y-55973040D01*
X101908342Y-55973040D01*
X102044267Y-55922342D01*
X102160404Y-55835404D01*
X102247342Y-55719267D01*
X102298040Y-55583342D01*
X102304500Y-55523255D01*
X102304499Y-54476746D01*
X102298040Y-54416658D01*
X102247342Y-54280733D01*
X102160404Y-54164596D01*
X102044267Y-54077658D01*
X102044265Y-54077657D01*
X102044266Y-54077657D01*
X101908349Y-54026962D01*
X101908344Y-54026960D01*
X101908342Y-54026960D01*
X101900831Y-54026152D01*
X101848262Y-54020500D01*
X101848255Y-54020500D01*
X101336161Y-54020500D01*
X101268040Y-54000498D01*
X101247066Y-53983595D01*
X100216404Y-52952933D01*
X100182378Y-52890621D01*
X100179499Y-52863838D01*
X100179499Y-52501753D01*
X100179499Y-52501746D01*
X100173040Y-52441658D01*
X100122342Y-52305733D01*
X100035404Y-52189596D01*
X99919267Y-52102658D01*
X99919265Y-52102657D01*
X99919266Y-52102657D01*
X99783349Y-52051962D01*
X99783344Y-52051960D01*
X99783342Y-52051960D01*
X99753298Y-52048730D01*
X99723256Y-52045500D01*
X99101753Y-52045500D01*
X99101729Y-52045502D01*
X99041660Y-52051959D01*
X99041658Y-52051959D01*
X98905733Y-52102657D01*
X98789596Y-52189596D01*
X98702657Y-52305734D01*
X98651962Y-52441650D01*
X98651960Y-52441658D01*
X98645500Y-52501737D01*
X98645500Y-53498246D01*
X98645502Y-53498270D01*
X98651959Y-53558339D01*
X98651959Y-53558341D01*
X98702657Y-53694266D01*
X98719892Y-53717289D01*
X98789596Y-53810404D01*
X98905733Y-53897342D01*
X99041658Y-53948040D01*
X99101745Y-53954500D01*
X99723254Y-53954499D01*
X99724487Y-53954366D01*
X99724770Y-53954417D01*
X99726625Y-53954318D01*
X99726648Y-53954755D01*
X99794357Y-53966957D01*
X99827075Y-53990546D01*
X100758595Y-54922066D01*
X100792621Y-54984378D01*
X100795500Y-55011161D01*
X100795500Y-55523246D01*
X100795502Y-55523270D01*
X100798628Y-55552350D01*
X100786021Y-55622218D01*
X100762446Y-55654911D01*
X100107975Y-56309383D01*
X100045662Y-56343408D01*
X99974847Y-56338344D01*
X99918011Y-56295797D01*
X99906612Y-56277491D01*
X99869307Y-56204277D01*
X99869305Y-56204274D01*
X99778704Y-56113673D01*
X99664534Y-56055501D01*
X99599817Y-56045251D01*
X99569815Y-56040500D01*
X98056147Y-56040500D01*
X98035808Y-56043721D01*
X97961425Y-56055501D01*
X97919690Y-56076767D01*
X97862488Y-56090500D01*
X97856161Y-56090500D01*
X97788040Y-56070498D01*
X97767070Y-56053599D01*
X96809770Y-55096299D01*
X96809767Y-55096297D01*
X96809766Y-55096296D01*
X96732929Y-55051935D01*
X96732928Y-55051935D01*
X96723398Y-55046433D01*
X96694730Y-55029881D01*
X96566419Y-54995500D01*
X89933581Y-54995500D01*
X89875134Y-55011161D01*
X89805269Y-55029881D01*
X89690233Y-55096297D01*
X89690223Y-55096305D01*
X86096299Y-58690228D01*
X86096297Y-58690231D01*
X86054191Y-58763159D01*
X86054192Y-58763160D01*
X86029881Y-58805269D01*
X86028505Y-58810404D01*
X85997666Y-58925500D01*
X85995500Y-58933582D01*
X85995500Y-80066417D01*
X85995499Y-80066417D01*
X74409500Y-80066417D01*
X74409500Y-76969384D01*
X74429502Y-76901263D01*
X74446400Y-76880293D01*
X75100406Y-76226286D01*
X75162717Y-76192263D01*
X75233532Y-76197327D01*
X75290368Y-76239874D01*
X75315179Y-76306394D01*
X75315500Y-76315383D01*
X75315500Y-76595063D01*
X75315501Y-76595073D01*
X75330265Y-76669300D01*
X75386516Y-76753484D01*
X75470697Y-76809733D01*
X75470699Y-76809734D01*
X75544933Y-76824500D01*
X81595066Y-76824499D01*
X81595069Y-76824498D01*
X81595072Y-76824498D01*
X81631663Y-76817219D01*
X81669301Y-76809734D01*
X81753484Y-76753484D01*
X81809734Y-76669301D01*
X81824500Y-76595067D01*
X81824499Y-73544934D01*
X81809734Y-73470699D01*
X81753484Y-73386516D01*
X81736151Y-73374934D01*
X81669302Y-73330266D01*
X81595067Y-73315500D01*
X75544936Y-73315500D01*
X75544927Y-73315501D01*
X75470699Y-73330265D01*
X75386515Y-73386516D01*
X75330266Y-73470697D01*
X75315500Y-73544930D01*
X75315500Y-74885615D01*
X75295498Y-74953736D01*
X75278595Y-74974710D01*
X74174595Y-76078710D01*
X74112283Y-76112736D01*
X74041468Y-76107671D01*
X73984632Y-76065124D01*
X73959821Y-75998604D01*
X73959500Y-75989615D01*
X73959500Y-64889383D01*
X73979502Y-64821262D01*
X73996400Y-64800293D01*
X76325289Y-62471403D01*
X76387601Y-62437378D01*
X76414384Y-62434499D01*
X81645064Y-62434499D01*
X81645066Y-62434499D01*
X81645069Y-62434498D01*
X81645072Y-62434498D01*
X81681663Y-62427219D01*
X81719301Y-62419734D01*
X81803484Y-62363484D01*
X81859734Y-62279301D01*
X81874500Y-62205067D01*
X81874499Y-59154934D01*
X81859734Y-59080699D01*
X81803484Y-58996516D01*
X81768617Y-58973218D01*
X81719302Y-58940266D01*
X81645067Y-58925500D01*
X75594936Y-58925500D01*
X75594927Y-58925501D01*
X75520699Y-58940265D01*
X75436515Y-58996516D01*
X75380266Y-59080697D01*
X75365500Y-59154930D01*
X75365500Y-62205063D01*
X75365501Y-62205072D01*
X75377702Y-62266411D01*
X75371373Y-62337125D01*
X75343218Y-62380086D01*
X74258709Y-63464596D01*
X73346983Y-64376322D01*
X73346981Y-64376324D01*
X73326035Y-64397270D01*
X73276325Y-64446979D01*
X73276321Y-64446984D01*
X73226362Y-64533516D01*
X73226363Y-64533516D01*
X73226362Y-64533518D01*
X73226362Y-64533519D01*
X73219904Y-64557619D01*
X73200499Y-64630036D01*
X69582869Y-64630036D01*
X69542287Y-64550390D01*
X69542285Y-64550387D01*
X69421965Y-64384779D01*
X69277220Y-64240034D01*
X69111612Y-64119714D01*
X69061669Y-64094267D01*
X68929219Y-64026780D01*
X68929216Y-64026779D01*
X68929214Y-64026778D01*
X68734538Y-63963524D01*
X68734536Y-63963523D01*
X68734534Y-63963523D01*
X68532352Y-63931500D01*
X68327648Y-63931500D01*
X68125466Y-63963523D01*
X68125464Y-63963523D01*
X68125461Y-63963524D01*
X67930785Y-64026778D01*
X67930779Y-64026781D01*
X67748387Y-64119714D01*
X67582779Y-64240034D01*
X67438034Y-64384779D01*
X67317714Y-64550387D01*
X67224781Y-64732779D01*
X67224778Y-64732785D01*
X67161524Y-64927461D01*
X67161523Y-64927464D01*
X67161523Y-64927466D01*
X67129500Y-65129648D01*
X65500500Y-65129648D01*
X65500500Y-61273648D01*
X67129500Y-61273648D01*
X67129500Y-61478352D01*
X67161523Y-61680534D01*
X67224780Y-61875219D01*
X67296319Y-62015622D01*
X67317714Y-62057612D01*
X67438034Y-62223220D01*
X67582779Y-62367965D01*
X67688438Y-62444730D01*
X67748390Y-62488287D01*
X67930781Y-62581220D01*
X68125466Y-62644477D01*
X68327648Y-62676500D01*
X68327651Y-62676500D01*
X68532349Y-62676500D01*
X68532352Y-62676500D01*
X68734534Y-62644477D01*
X68929219Y-62581220D01*
X69111610Y-62488287D01*
X69277219Y-62367966D01*
X69421966Y-62223219D01*
X69542287Y-62057610D01*
X69635220Y-61875219D01*
X69698477Y-61680534D01*
X69730500Y-61478352D01*
X69730500Y-61273648D01*
X69698477Y-61071466D01*
X69635220Y-60876781D01*
X69542287Y-60694390D01*
X69532962Y-60681555D01*
X69421965Y-60528779D01*
X69277220Y-60384034D01*
X69111612Y-60263714D01*
X69032032Y-60223166D01*
X68929219Y-60170780D01*
X68929216Y-60170779D01*
X68929214Y-60170778D01*
X68734538Y-60107524D01*
X68734536Y-60107523D01*
X68734534Y-60107523D01*
X68532352Y-60075500D01*
X68327648Y-60075500D01*
X68125466Y-60107523D01*
X68125464Y-60107523D01*
X68125461Y-60107524D01*
X67930785Y-60170778D01*
X67930779Y-60170781D01*
X67748387Y-60263714D01*
X67582779Y-60384034D01*
X67438034Y-60528779D01*
X67317714Y-60694387D01*
X67224781Y-60876779D01*
X67224778Y-60876785D01*
X67161524Y-61071461D01*
X67161523Y-61071464D01*
X67161523Y-61071466D01*
X67129500Y-61273648D01*
X65500500Y-61273648D01*
X65500500Y-57417648D01*
X67129500Y-57417648D01*
X67129500Y-57622352D01*
X67161094Y-57821823D01*
X67161524Y-57824538D01*
X67221798Y-58010044D01*
X67224780Y-58019219D01*
X67314239Y-58194791D01*
X67317714Y-58201612D01*
X67438034Y-58367220D01*
X67582779Y-58511965D01*
X67745930Y-58630500D01*
X67748390Y-58632287D01*
X67930781Y-58725220D01*
X68125466Y-58788477D01*
X68327648Y-58820500D01*
X68327651Y-58820500D01*
X68532349Y-58820500D01*
X68532352Y-58820500D01*
X68734534Y-58788477D01*
X68929219Y-58725220D01*
X69111610Y-58632287D01*
X69277219Y-58511966D01*
X69421966Y-58367219D01*
X69542287Y-58201610D01*
X69635220Y-58019219D01*
X69698477Y-57824534D01*
X69730500Y-57622352D01*
X69730500Y-57417648D01*
X69698477Y-57215466D01*
X69635220Y-57020781D01*
X69542287Y-56838390D01*
X69542285Y-56838387D01*
X69421965Y-56672779D01*
X69277220Y-56528034D01*
X69111612Y-56407714D01*
X69104791Y-56404239D01*
X68929219Y-56314780D01*
X68929216Y-56314779D01*
X68929214Y-56314778D01*
X68734538Y-56251524D01*
X68734536Y-56251523D01*
X68734534Y-56251523D01*
X68532352Y-56219500D01*
X68327648Y-56219500D01*
X68125466Y-56251523D01*
X68125464Y-56251523D01*
X68125461Y-56251524D01*
X67930785Y-56314778D01*
X67930779Y-56314781D01*
X67748387Y-56407714D01*
X67582779Y-56528034D01*
X67438034Y-56672779D01*
X67317714Y-56838387D01*
X67224781Y-57020779D01*
X67224778Y-57020785D01*
X67161524Y-57215461D01*
X67161523Y-57215464D01*
X67161523Y-57215466D01*
X67129500Y-57417648D01*
X65500500Y-57417648D01*
X65500500Y-51003805D01*
X65500730Y-50996198D01*
X65507836Y-50878719D01*
X65507837Y-50878709D01*
X66149500Y-50878709D01*
X66149500Y-51121290D01*
X66181160Y-51361782D01*
X66243944Y-51596095D01*
X66243945Y-51596097D01*
X66243946Y-51596100D01*
X66336776Y-51820212D01*
X66336777Y-51820213D01*
X66336782Y-51820224D01*
X66458061Y-52030285D01*
X66458063Y-52030288D01*
X66458064Y-52030289D01*
X66605735Y-52222738D01*
X66605739Y-52222742D01*
X66605744Y-52222748D01*
X66777251Y-52394255D01*
X66777256Y-52394259D01*
X66777262Y-52394265D01*
X66969711Y-52541936D01*
X66969714Y-52541938D01*
X67179775Y-52663217D01*
X67179779Y-52663218D01*
X67179788Y-52663224D01*
X67403900Y-52756054D01*
X67638211Y-52818838D01*
X67638215Y-52818838D01*
X67638217Y-52818839D01*
X67700202Y-52826999D01*
X67878712Y-52850500D01*
X67878719Y-52850500D01*
X68121281Y-52850500D01*
X68121288Y-52850500D01*
X68338637Y-52821885D01*
X68361782Y-52818839D01*
X68361782Y-52818838D01*
X68361789Y-52818838D01*
X68596100Y-52756054D01*
X68820212Y-52663224D01*
X69030289Y-52541936D01*
X69222738Y-52394265D01*
X69394265Y-52222738D01*
X69541936Y-52030289D01*
X69663224Y-51820212D01*
X69756054Y-51596100D01*
X69818838Y-51361789D01*
X69850500Y-51121288D01*
X69850500Y-50878712D01*
X69818838Y-50638211D01*
X69756054Y-50403900D01*
X69663224Y-50179788D01*
X69663218Y-50179779D01*
X69663217Y-50179775D01*
X69541938Y-49969714D01*
X69499145Y-49913945D01*
X69394265Y-49777262D01*
X69394259Y-49777256D01*
X69394255Y-49777251D01*
X69222748Y-49605744D01*
X69222742Y-49605739D01*
X69222738Y-49605735D01*
X69030289Y-49458064D01*
X69030288Y-49458063D01*
X69030285Y-49458061D01*
X68820224Y-49336782D01*
X68820216Y-49336778D01*
X68820212Y-49336776D01*
X68596100Y-49243946D01*
X68596097Y-49243945D01*
X68596095Y-49243944D01*
X68361782Y-49181160D01*
X68121290Y-49149500D01*
X68121288Y-49149500D01*
X67878712Y-49149500D01*
X67878709Y-49149500D01*
X67638217Y-49181160D01*
X67403904Y-49243944D01*
X67403900Y-49243946D01*
X67179786Y-49336777D01*
X67179775Y-49336782D01*
X66969714Y-49458061D01*
X66777262Y-49605735D01*
X66777251Y-49605744D01*
X66605744Y-49777251D01*
X66605735Y-49777262D01*
X66458061Y-49969714D01*
X66336782Y-50179775D01*
X66336777Y-50179786D01*
X66243946Y-50403900D01*
X66243944Y-50403904D01*
X66181160Y-50638217D01*
X66149500Y-50878709D01*
X65507837Y-50878709D01*
X65518264Y-50706313D01*
X65520095Y-50691236D01*
X65571759Y-50409313D01*
X65575392Y-50394573D01*
X65660665Y-50120922D01*
X65666052Y-50106721D01*
X65783678Y-49845366D01*
X65790736Y-49831916D01*
X65939021Y-49586624D01*
X65947637Y-49574140D01*
X66124411Y-49348505D01*
X66134479Y-49337142D01*
X66337142Y-49134479D01*
X66348505Y-49124411D01*
X66574140Y-48947637D01*
X66586624Y-48939021D01*
X66831916Y-48790736D01*
X66845366Y-48783678D01*
X67106721Y-48666052D01*
X67120922Y-48660665D01*
X67394573Y-48575392D01*
X67409313Y-48571759D01*
X67691236Y-48520095D01*
X67706313Y-48518264D01*
X67968890Y-48502381D01*
X67996199Y-48500730D01*
X68003806Y-48500500D01*
X68065892Y-48500500D01*
X142934108Y-48500500D01*
X142996194Y-48500500D01*
X143003801Y-48500730D01*
G37*
%TD.AperFunction*%
%TD*%
%TA.AperFunction,NonConductor*%
G36*
X121077277Y-52708137D02*
G01*
X121145084Y-52729170D01*
X121190758Y-52783525D01*
X121201355Y-52832731D01*
X121288587Y-60732096D01*
X121269339Y-60800433D01*
X121216200Y-60847516D01*
X121162089Y-60859486D01*
X113945494Y-60830503D01*
X113877454Y-60810228D01*
X113831177Y-60756386D01*
X113820000Y-60704504D01*
X113820000Y-56741666D01*
X114240720Y-56741666D01*
X114240720Y-56741673D01*
X114259826Y-57094060D01*
X114316918Y-57442314D01*
X114411332Y-57782361D01*
X114517954Y-58049962D01*
X114541958Y-58110206D01*
X114707263Y-58422004D01*
X114905310Y-58714102D01*
X115133777Y-58983075D01*
X115389972Y-59225757D01*
X115389987Y-59225770D01*
X115670934Y-59439340D01*
X115973326Y-59621283D01*
X116089307Y-59674941D01*
X116293604Y-59769460D01*
X116293616Y-59769465D01*
X116628050Y-59882149D01*
X116972707Y-59958014D01*
X117323546Y-59996170D01*
X117323554Y-59996170D01*
X117676446Y-59996170D01*
X117676454Y-59996170D01*
X118027293Y-59958014D01*
X118371950Y-59882149D01*
X118706384Y-59769465D01*
X119026674Y-59621283D01*
X119329066Y-59439340D01*
X119610013Y-59225770D01*
X119866223Y-58983075D01*
X120094690Y-58714102D01*
X120292737Y-58422004D01*
X120458042Y-58110206D01*
X120588667Y-57782363D01*
X120683080Y-57442319D01*
X120740174Y-57094060D01*
X120759280Y-56741670D01*
X120740174Y-56389280D01*
X120683080Y-56041021D01*
X120588667Y-55700977D01*
X120458042Y-55373134D01*
X120292737Y-55061336D01*
X120094690Y-54769238D01*
X119866223Y-54500265D01*
X119866222Y-54500264D01*
X119610027Y-54257582D01*
X119610012Y-54257569D01*
X119329070Y-54044003D01*
X119329064Y-54043999D01*
X119026674Y-53862057D01*
X119026668Y-53862054D01*
X118706395Y-53713879D01*
X118706383Y-53713874D01*
X118371959Y-53601194D01*
X118371958Y-53601193D01*
X118371950Y-53601191D01*
X118325224Y-53590905D01*
X118027305Y-53525328D01*
X118027281Y-53525324D01*
X117676461Y-53487170D01*
X117676454Y-53487170D01*
X117323546Y-53487170D01*
X117323538Y-53487170D01*
X116972718Y-53525324D01*
X116972694Y-53525328D01*
X116628054Y-53601190D01*
X116628040Y-53601194D01*
X116293616Y-53713874D01*
X116293604Y-53713879D01*
X115973331Y-53862054D01*
X115973324Y-53862058D01*
X115670935Y-54043999D01*
X115670929Y-54044003D01*
X115389987Y-54257569D01*
X115389972Y-54257582D01*
X115133777Y-54500264D01*
X114905308Y-54769240D01*
X114707262Y-55061336D01*
X114707260Y-55061340D01*
X114541957Y-55373136D01*
X114541953Y-55373145D01*
X114411332Y-55700978D01*
X114316918Y-56041025D01*
X114259826Y-56389279D01*
X114240720Y-56741666D01*
X113820000Y-56741666D01*
X113820000Y-52795328D01*
X113840002Y-52727207D01*
X113893658Y-52680714D01*
X113934874Y-52669821D01*
X114603500Y-52610575D01*
X114616528Y-52610099D01*
X121077277Y-52708137D01*
G37*
%TD.AperFunction*%
M02*
