<?xml version="1.0" standalone="no"?>
 <!DOCTYPE svg PUBLIC "-//W3C//DTD SVG 1.1//EN" 
 "http://www.w3.org/Graphics/SVG/1.1/DTD/svg11.dtd"> 
<svg
  xmlns:svg="http://www.w3.org/2000/svg"
  xmlns="http://www.w3.org/2000/svg"
  xmlns:xlink="http://www.w3.org/1999/xlink"
  version="1.1"
  width="297.0022mm" height="210.0072mm" viewBox="0.0000 0.0000 297.0022 210.0072">
<title>SVG Image created as motor_board-B_Mask.svg date 2025/03/27 13:47:48 </title>
  <desc>Image generated by PCBNEW </desc>
<g style="fill:#000000; fill-opacity:1.0000;stroke:#000000; stroke-opacity:1.0000;
stroke-linecap:round; stroke-linejoin:round;"
 transform="translate(0 0) scale(1 1)">
<path style="fill:#000000; fill-opacity:1.0000; stroke:none;fill-rule:evenodd;"
d="M 127.7920,55.7220
126.2680,55.7220
126.2680,54.1980
127.7920,54.1980
Z" /> 
</g>
<g style="fill:#000000; fill-opacity:1.0000; stroke:none;">
<circle cx="129.0300" cy="54.9600" r="0.7620" /> 
</g>
<g style="fill:#000000; fill-opacity:1.0000; stroke:none;">
<circle cx="131.0300" cy="54.9600" r="0.7620" /> 
</g>
<g style="fill:#000000; fill-opacity:1.0000; stroke:none;">
<circle cx="133.0300" cy="54.9600" r="0.7620" /> 
</g>
<g style="fill:#000000; fill-opacity:1.0000; stroke:none;">
<circle cx="157.0000" cy="55.0000" r="1.2500" /> 
<path style="fill:#000000; fill-opacity:1.0000; stroke:none;fill-rule:evenodd;"
d="M 148.0750,93.9400
149.7750,93.9400
149.7750,95.6400
148.0750,95.6400
Z" /> 
</g>
<g style="fill:#000000; fill-opacity:1.0000; stroke:none;">
<circle cx="146.3850" cy="94.7900" r="0.8500" /> 
<circle cx="143.8450" cy="94.7900" r="0.8500" /> 
<circle cx="141.3050" cy="94.7900" r="0.8500" /> 
<circle cx="138.7650" cy="94.7900" r="0.8500" /> 
<circle cx="136.2250" cy="94.7900" r="0.8500" /> 
<circle cx="133.6850" cy="94.7900" r="0.8500" /> 
<circle cx="131.1450" cy="94.7900" r="0.8500" /> 
<circle cx="128.6050" cy="94.7900" r="0.8500" /> 
<circle cx="126.0650" cy="94.7900" r="0.8500" /> 
<circle cx="123.5250" cy="94.7900" r="0.8500" /> 
<circle cx="120.9850" cy="94.7900" r="0.8500" /> 
<circle cx="118.4450" cy="94.7900" r="0.8500" /> 
<circle cx="115.9050" cy="94.7900" r="0.8500" /> 
<circle cx="113.3650" cy="94.7900" r="0.8500" /> 
<circle cx="110.8250" cy="94.7900" r="0.8500" /> 
<path style="fill:#000000; fill-opacity:1.0000; stroke:none;fill-rule:evenodd;"
d="M 138.1400,55.7000
138.1400,54.0000
139.8400,54.0000
139.8400,55.7000
Z" /> 
<circle cx="138.9900" cy="57.3900" r="0.8500" /> 
<path style="fill:#000000; fill-opacity:1.0000; stroke:none;fill-rule:evenodd;"
d="M 150.6800,56.0200
150.6800,58.6200
148.0800,58.6200
148.0800,56.0200
Z" /> 
<circle cx="144.3800" cy="57.3200" r="1.3000" /> 
</g>
<g style="fill:#000000; fill-opacity:1.0000; stroke:none;">
<circle cx="103.0000" cy="55.0000" r="1.2500" /> 
<path style="fill:#000000; fill-opacity:1.0000; stroke:none;fill-rule:evenodd;"
d="M 132.0800,117.9700
132.0800,115.3700
134.6800,115.3700
134.6800,117.9700
Z" /> 
</g>
<g style="fill:#000000; fill-opacity:1.0000; stroke:none;">
<circle cx="138.3800" cy="116.6700" r="1.3000" /> 
</g>
<g style="fill:#000000; fill-opacity:1.0000; stroke:none;">
<circle cx="143.3800" cy="116.6700" r="1.3000" /> 
</g>
<g style="fill:#000000; fill-opacity:1.0000; stroke:none;">
<circle cx="148.3800" cy="116.6700" r="1.3000" /> 
<path style="fill:#000000; fill-opacity:1.0000; stroke:none;fill-rule:evenodd;"
d="M 110.3400,117.9700
110.3400,115.3700
112.9400,115.3700
112.9400,117.9700
Z" /> 
</g>
<g style="fill:#000000; fill-opacity:1.0000; stroke:none;">
<circle cx="116.6400" cy="116.6700" r="1.3000" /> 
</g>
<g style="fill:#000000; fill-opacity:1.0000; stroke:none;">
<circle cx="121.6400" cy="116.6700" r="1.3000" /> 
</g>
<g style="fill:#000000; fill-opacity:1.0000; stroke:none;">
<circle cx="126.6400" cy="116.6700" r="1.3000" /> 
</g>
<g style="fill:#000000; fill-opacity:1.0000; stroke:none;">
<circle cx="103.0000" cy="120.0000" r="1.2500" /> 
<path style="fill:#000000; fill-opacity:1.0000; stroke:none;fill-rule:evenodd;"
d="M 148.0750,96.4800
149.7750,96.4800
149.7750,98.1800
148.0750,98.1800
Z" /> 
</g>
<g style="fill:#000000; fill-opacity:1.0000; stroke:none;">
<circle cx="146.3850" cy="97.3300" r="0.8500" /> 
<circle cx="143.8450" cy="97.3300" r="0.8500" /> 
<circle cx="141.3050" cy="97.3300" r="0.8500" /> 
<circle cx="138.7650" cy="97.3300" r="0.8500" /> 
<circle cx="136.2250" cy="97.3300" r="0.8500" /> 
<circle cx="133.6850" cy="97.3300" r="0.8500" /> 
<circle cx="131.1450" cy="97.3300" r="0.8500" /> 
<circle cx="128.6050" cy="97.3300" r="0.8500" /> 
<circle cx="126.0650" cy="97.3300" r="0.8500" /> 
<circle cx="123.5250" cy="97.3300" r="0.8500" /> 
<circle cx="120.9850" cy="97.3300" r="0.8500" /> 
<circle cx="118.4450" cy="97.3300" r="0.8500" /> 
<circle cx="115.9050" cy="97.3300" r="0.8500" /> 
<circle cx="113.3650" cy="97.3300" r="0.8500" /> 
<circle cx="110.8250" cy="97.3300" r="0.8500" /> 
<path style="fill:#000000; fill-opacity:1.0000; stroke:none;fill-rule:evenodd;"
d="M 111.6500,93.0800
109.9500,93.0800
109.9500,91.3800
111.6500,91.3800
Z" /> 
<circle cx="113.3400" cy="92.2300" r="0.8500" /> 
<circle cx="115.8800" cy="92.2300" r="0.8500" /> 
<circle cx="118.4200" cy="92.2300" r="0.8500" /> 
<circle cx="120.9600" cy="92.2300" r="0.8500" /> 
<circle cx="123.5000" cy="92.2300" r="0.8500" /> 
<circle cx="126.0400" cy="92.2300" r="0.8500" /> 
<circle cx="128.5800" cy="92.2300" r="0.8500" /> 
<circle cx="131.1200" cy="92.2300" r="0.8500" /> 
<circle cx="133.6600" cy="92.2300" r="0.8500" /> 
<circle cx="136.2000" cy="92.2300" r="0.8500" /> 
<circle cx="138.7400" cy="92.2300" r="0.8500" /> 
<circle cx="141.2800" cy="92.2300" r="0.8500" /> 
<circle cx="143.8200" cy="92.2300" r="0.8500" /> 
<circle cx="146.3600" cy="92.2300" r="0.8500" /> 
<circle cx="148.9000" cy="92.2300" r="0.8500" /> 
<circle cx="157.0000" cy="120.0000" r="1.2500" /> 
</g> 
</svg>
