<?xml version="1.0" encoding="UTF-8"?><svg id="b" xmlns="http://www.w3.org/2000/svg" width="141.84" height="71.09" viewBox="0 0 141.84 71.09"><defs><style>.e{fill:#231f20;}.f{fill:#be8b37;}.g{fill:none;stroke:#231f20;stroke-miterlimit:10;stroke-width:.25px;}</style></defs><g id="c"><path class="f" d="M20.14,63.64l.93-.17s.05-.03.06-.05l.29-.67s0-.05,0-.07l-.54-.79s-.01-.05,0-.06l.68-.68s.05-.02.06,0l.81.55s.05.02.07,0l.65-.26s.04-.03.05-.05l.18-.97s.03-.04.05-.04h.96s.05.02.05.04l.18.97s.03.05.05.05l.65.26s.05,0,.07,0l.81-.55s.05-.01.06,0l.68.68s.02.05,0,.06l-.54.79s-.02.05,0,.07l.29.67s.03.04.06.05l.93.17s.04.03.04.05v.96s-.02.05-.04.05l-.91.17s-.05.03-.05.05l-.28.71s0,.05,0,.07l.52.75s.01.05,0,.06l-.68.68s-.05.02-.06,0l-.74-.51s-.05-.01-.07,0l-.33.17s-.04,0-.05-.02l-.67-1.63s0-.05.02-.06l.08-.05s.04-.03.05-.04c.29-.19.49-.52.49-.89,0-.59-.48-1.06-1.06-1.06s-1.06.48-1.06,1.06c0,.38.2.71.49.89.02.01.04.03.05.04l.08.05s.03.04.02.06l-.67,1.63s-.03.03-.05.02l-.33-.17s-.05-.01-.07,0l-.74.51s-.05.01-.06,0l-.68-.68s-.02-.05,0-.06l.52-.75s.02-.05,0-.07l-.28-.71s-.03-.04-.05-.05l-.91-.17s-.04-.03-.04-.05v-.96s.02-.05.04-.05Z"/><path d="M42.33,54.98s-.07-.07-.12-.09c-.05-.02-.1-.03-.17-.03-.07,0-.12.01-.17.03-.04.02-.08.05-.11.09-.03.04-.05.08-.06.13-.01.05-.02.09-.02.15h.75c0-.05-.02-.1-.03-.15-.02-.05-.04-.09-.07-.13Z"/><path d="M51.69,55.45c0,.17.03.31.08.4.06.09.14.14.26.14.05,0,.11,0,.16-.02.05-.01.1-.03.13-.05v-1.03s-.07,0-.11,0c-.04,0-.08,0-.12,0-.14,0-.24.05-.3.16-.07.11-.1.25-.1.41Z"/><path d="M39.84,54.96v1.02s.07,0,.11.01c.04,0,.07,0,.11,0,.14,0,.24-.05.3-.16s.09-.24.09-.41-.03-.31-.08-.4c-.05-.09-.14-.14-.26-.14-.05,0-.1,0-.15.02-.05.01-.09.03-.13.05Z"/><path d="M60.09,52.48H18.57s0,5.57,0,5.57h41.52s0-5.57,0-5.57ZM55.78,56.42c-.1,0-.2,0-.31-.02-.11-.02-.2-.04-.29-.08l.07-.42s.09.04.13.05c.04.01.08.02.11.03.04,0,.07.01.11.01.04,0,.08,0,.13,0,.04,0,.08,0,.12-.01.03,0,.06-.02.09-.05s.04-.06.06-.1.02-.1.02-.17v-.76s-.79,0-.79,0v-.41h.79s0-.55,0-.55l.49.08v.47s.43,0,.43,0v.41h-.43s0,.77,0,.77c0,.16-.02.29-.05.38-.03.1-.08.17-.14.23-.06.05-.14.09-.22.11s-.19.03-.3.03ZM53.84,55.98s.06-.02.09-.05.04-.06.06-.1.02-.1.02-.17v-.76s-.79,0-.79,0v-.41h.79s0-.55,0-.55l.49.08v.47s.43,0,.43,0v.41h-.43s0,.77,0,.77c0,.16-.02.29-.05.38-.03.1-.08.17-.14.23-.06.05-.14.09-.22.11s-.19.03-.3.03c-.1,0-.2,0-.31-.02-.11-.02-.2-.04-.29-.08l.07-.42s.09.04.13.05c.04.01.08.02.11.03.04,0,.07.01.11.01.04,0,.08,0,.13,0,.04,0,.08,0,.12-.01ZM50.48,55.96c.11-.03.2-.07.3-.1l.08.41c-.07.03-.16.06-.28.1-.11.04-.25.06-.42.06s-.29-.01-.4-.04-.2-.07-.27-.12-.12-.11-.15-.18-.04-.14-.04-.22c0-.1.02-.18.06-.25.04-.07.09-.12.15-.17.06-.04.13-.08.21-.11s.15-.06.22-.08c.05-.02.1-.03.14-.05.04-.02.08-.04.12-.05.03-.02.06-.04.08-.06.02-.02.03-.05.03-.08,0-.03-.02-.07-.07-.1-.04-.03-.13-.05-.25-.05s-.23.01-.32.05c-.1.03-.17.05-.21.07l-.08-.42c.08-.03.17-.06.27-.08.11-.02.22-.03.34-.03.14,0,.26.01.36.05.1.03.18.07.25.13s.11.12.14.19c.03.07.05.15.05.23,0,.1-.02.18-.06.25s-.09.12-.15.16c-.06.04-.13.08-.2.11-.08.03-.15.05-.22.07-.05.02-.1.03-.15.05s-.09.03-.12.05c-.04.02-.06.04-.08.06-.02.02-.03.05-.03.09s.03.09.1.11c.06.02.16.03.28.03.11,0,.22-.02.32-.05ZM48.06,56.42c-.09,0-.18-.03-.25-.09s-.11-.15-.11-.27.04-.2.11-.26.15-.09.25-.09c.05,0,.09,0,.14.02.04.02.08.04.11.07s.06.07.08.11c.02.04.03.09.03.15,0,.06-.01.11-.03.15-.02.04-.05.08-.08.11-.03.03-.07.05-.11.07-.04.02-.09.02-.14.02ZM48.06,55.21c-.09,0-.18-.03-.25-.09s-.11-.15-.11-.27.04-.2.11-.26.15-.09.25-.09c.05,0,.09,0,.14.02.04.02.08.04.11.07s.06.07.08.11c.02.04.03.09.03.15,0,.06-.01.11-.03.15-.02.04-.05.08-.08.11-.03.03-.07.05-.11.07-.04.02-.09.02-.14.02ZM58.81,53.69v2.69h-.49v-1.45s-.06-.02-.11-.03-.09-.02-.13-.02c-.11,0-.19.04-.23.12s-.06.2-.06.38v1h-.49v-1.06c0-.13.01-.25.04-.35.02-.11.06-.2.12-.27.06-.08.13-.13.22-.18.09-.04.21-.06.35-.06.04,0,.09,0,.15.02.06.01.1.03.14.04v-.91l.49.08ZM27.85,55c-.04.08-.06.2-.06.38v1h-.49v-1.06c0-.13.01-.25.04-.35.02-.11.06-.2.12-.27.06-.08.14-.13.23-.18.1-.04.22-.06.37-.06s.29.01.42.03c.13.02.24.04.33.07v1.82h-.49v-1.48s-.08,0-.11-.01c-.04,0-.07,0-.11,0-.12,0-.2.04-.24.12ZM26.81,56.38h-.5v-.89c-.05.05-.11.11-.17.18-.06.07-.12.15-.18.23-.06.08-.11.16-.17.25s-.09.16-.13.23h-.56c.04-.07.09-.16.15-.26s.13-.19.21-.29c.07-.1.15-.19.23-.28.08-.09.15-.17.22-.23-.05-.06-.11-.12-.18-.19s-.13-.14-.2-.22c-.06-.07-.13-.15-.19-.22-.06-.07-.12-.14-.16-.2h.59c.03.06.07.12.11.18s.09.13.13.19.09.13.14.19c.05.06.1.12.15.18v-1.64l.5.08v2.69ZM24.3,54.96c-.03.05-.04.14-.04.27v.43h-.4v-.38c0-.08,0-.14,0-.2,0-.06.01-.12.02-.17-.02-.01-.05-.02-.07-.02s-.05,0-.08,0c-.02,0-.04,0-.06.01-.02,0-.04.02-.05.05-.01.02-.03.06-.04.1,0,.05-.01.11-.01.18v1.15h-.4v-1.12c0-.13,0-.24.02-.34.01-.1.04-.18.08-.24.04-.06.09-.11.16-.14.07-.03.15-.05.26-.05.07,0,.13.01.19.03s.11.05.16.08c.04-.04.09-.07.14-.09s.12-.03.19-.03c.08,0,.17,0,.27.02s.2.04.31.07v1.81h-.4v-1.48s-.04,0-.07-.01c-.02,0-.04,0-.06,0-.06,0-.1.03-.12.08ZM20.04,56.38c-.01-.21-.05-.43-.11-.64-.06-.21-.12-.42-.2-.61s-.16-.36-.24-.51c-.08-.15-.16-.27-.24-.35v-.37h1.62v.41h-1.04c.07.12.15.26.23.43.08.17.15.34.22.53.07.19.13.38.17.57s.08.37.08.54h-.5ZM21.47,56.4c-.11-.02-.2-.04-.29-.08l.07-.42s.09.04.13.05c.04.01.08.02.11.03.04,0,.07.01.11.01.04,0,.08,0,.13,0,.04,0,.08,0,.12-.01.03,0,.06-.02.09-.05s.04-.06.06-.1.02-.1.02-.17v-.76s-.79,0-.79,0v-.41h.79s0-.55,0-.55l.49.08v.47s.43,0,.43,0v.41h-.43s0,.77,0,.77c0,.16-.02.29-.05.38-.03.1-.08.17-.14.23-.06.05-.14.09-.22.11s-.19.03-.3.03c-.1,0-.2,0-.31-.02ZM30.37,57.04l-1.11-3.46h.5s1.12,3.46,1.12,3.46h-.51ZM42.28,55.89c.1-.07.15-.17.15-.29h-1.22s0-.05,0-.08c0-.03,0-.07,0-.1,0-.31.07-.55.22-.72.14-.16.35-.25.63-.25.11,0,.22.02.33.06.11.04.2.11.28.19.08.08.15.19.2.31.05.13.08.27.08.44s-.02.3-.07.42-.12.22-.21.3c-.09.08-.2.14-.32.18-.13.04-.27.06-.43.06-.12,0-.23,0-.32-.03-.1-.02-.19-.04-.27-.07l.07-.42c.06.02.14.04.23.06.09.02.18.03.28.03.16,0,.29-.04.39-.11ZM40.01,54.48c.06-.01.13-.02.2-.02.25,0,.44.09.56.27.13.18.19.42.19.73,0,.3-.08.54-.23.71-.15.17-.37.26-.67.26-.12,0-.25,0-.38-.03s-.24-.04-.33-.07v-2.72s.49.08.49.08v.86s.1-.05.17-.06ZM31.83,55.93c.05-.04.08-.13.08-.26v-2.04h1.01v.41h-.52s0,1.6,0,1.6c0,.26-.05.46-.16.59-.1.13-.27.2-.5.2-.08,0-.16,0-.22-.02s-.12-.02-.17-.04c-.04-.01-.08-.03-.11-.04-.03-.01-.05-.02-.05-.03l.06-.4s.07.03.13.05.15.04.25.04c.08,0,.14-.02.19-.07ZM33.85,55c-.04.08-.06.2-.06.38v1h-.49v-1.06c0-.13.01-.25.04-.35.02-.11.06-.2.12-.27.06-.08.14-.13.23-.18.1-.04.22-.06.37-.06s.29.01.42.03c.13.02.24.04.33.07v1.82h-.49v-1.48s-.08,0-.11-.01c-.04,0-.07,0-.11,0-.12,0-.2.04-.24.12ZM35.81,56.33c-.07-.06-.11-.15-.11-.27s.04-.2.11-.26.15-.09.25-.09c.05,0,.09,0,.14.02.04.02.08.04.11.07s.06.07.08.11c.02.04.03.09.03.15,0,.06-.01.11-.03.15-.02.04-.05.08-.08.11-.03.03-.07.05-.11.07-.04.02-.09.02-.14.02-.09,0-.18-.03-.25-.09ZM37.64,56.39c-.13-.02-.24-.05-.33-.07v-1.82h.5v1.48c.07.01.15.02.22.02.12,0,.2-.04.24-.13s.06-.21.06-.39v-.98h.49v1.05c0,.13-.01.25-.03.35-.02.11-.06.2-.12.28-.06.08-.14.14-.23.18-.1.04-.23.06-.38.06s-.29-.01-.42-.04ZM44.37,57.04l-1.11-3.46h.5s1.12,3.46,1.12,3.46h-.51ZM46.37,57.04l-1.11-3.46h.5s1.12,3.46,1.12,3.46h-.51ZM52.32,57.04v-.71c-.13.06-.26.09-.39.09s-.23-.02-.32-.07c-.09-.05-.17-.12-.23-.2-.06-.09-.11-.19-.14-.31s-.05-.25-.05-.4c0-.3.08-.54.23-.72.15-.18.38-.26.67-.26.13,0,.26,0,.39.03s.24.04.33.07v2.48h-.49Z"/><path class="e" d="M36.05,28.91c.1-.04.19-.08.26-.12l.14.4c-.06.04-.15.08-.28.12-.12.04-.29.07-.49.07-.31,0-.54-.06-.69-.19-.15-.13-.23-.31-.23-.54,0-.14.02-.25.07-.34.05-.09.1-.16.17-.22.07-.06.15-.11.23-.14s.17-.07.24-.1c.05-.02.1-.04.15-.06.05-.02.1-.05.14-.07.04-.03.08-.06.1-.1.03-.04.04-.08.04-.13,0-.19-.13-.28-.39-.28-.11,0-.2.01-.28.04-.08.03-.16.06-.22.1l-.14-.38c.08-.04.17-.08.29-.12.11-.03.25-.05.4-.05.26,0,.47.07.62.2s.23.31.23.54c0,.12-.02.22-.06.29-.04.08-.1.14-.16.2-.07.05-.14.1-.22.13s-.16.07-.23.09c-.06.02-.11.04-.17.07s-.11.05-.15.08c-.04.03-.08.07-.11.11s-.04.09-.04.14c0,.04,0,.08.02.12.01.04.03.07.07.1.03.03.08.05.13.07s.12.03.21.03c.14,0,.27-.02.37-.06Z"/><path class="e" d="M33.02,29.33c-.12-.04-.21-.08-.28-.12l.12-.39c.05.03.12.06.2.09s.19.04.32.04c.22,0,.38-.08.48-.23.1-.15.15-.37.15-.65,0-.16-.02-.3-.05-.41s-.08-.2-.14-.26-.12-.11-.2-.14c-.07-.03-.15-.04-.23-.04-.11,0-.21.01-.3.04-.09.03-.16.06-.22.1l-.13-.39s.05-.03.08-.05c.04-.02.08-.04.13-.06.05-.02.12-.04.19-.05.07-.01.15-.02.24-.02.16,0,.31.03.45.09.14.06.26.14.36.25.1.11.18.25.23.41.06.16.08.34.08.55,0,.41-.09.73-.28.96-.18.22-.45.34-.8.34-.16,0-.29-.02-.41-.05Z"/><path class="e" d="M30.77,28.92h1.06v-2.07h.5v2.48h-1.56v-.41Z"/><path class="e" d="M36.05,33.91c.1-.04.19-.08.26-.12l.14.4c-.06.04-.15.08-.28.12-.12.04-.29.07-.49.07-.31,0-.54-.06-.69-.19-.15-.13-.23-.31-.23-.54,0-.14.02-.25.07-.34.05-.09.1-.16.17-.22.07-.06.15-.11.23-.14s.17-.07.24-.1c.05-.02.1-.04.15-.06.05-.02.1-.05.14-.07.04-.03.08-.06.1-.1.03-.04.04-.08.04-.13,0-.19-.13-.28-.39-.28-.11,0-.2.01-.28.04-.08.03-.16.06-.22.1l-.14-.38c.08-.04.17-.08.29-.12.11-.03.25-.05.4-.05.26,0,.47.07.62.2s.23.31.23.54c0,.12-.02.22-.06.29-.04.08-.1.14-.16.2-.07.05-.14.1-.22.13s-.16.07-.23.09c-.06.02-.11.04-.17.07s-.11.05-.15.08c-.04.03-.08.07-.11.11s-.04.09-.04.14c0,.04,0,.08.02.12.01.04.03.07.07.1.03.03.08.05.13.07s.12.03.21.03c.14,0,.27-.02.37-.06Z"/><path class="e" d="M32.8,32.51c.05-.16.12-.29.22-.39.09-.1.21-.18.34-.23.13-.05.28-.07.45-.07.08,0,.18,0,.28.01s.2.02.32.05v2.42c-.1.02-.19.04-.27.05-.08,0-.17.01-.26.01-.17,0-.32-.02-.46-.07s-.26-.12-.36-.22c-.1-.1-.18-.23-.24-.39-.06-.16-.09-.36-.09-.59s.03-.42.08-.57ZM33.9,32.26s-.04,0-.07,0c-.03,0-.05,0-.07,0-.11,0-.2.02-.27.07s-.12.11-.16.19c-.04.08-.07.17-.08.27-.02.1-.02.21-.02.31,0,.12,0,.24.03.34.02.1.05.19.1.27.05.07.11.13.18.18s.17.06.28.06h.04s.03,0,.04,0v-1.66Z"/><path class="e" d="M30.65,34.33c.11-.47.22-.92.34-1.32.12-.41.23-.79.35-1.15h.54c.11.36.23.74.35,1.14.12.4.24.85.36,1.33h-.51l-.11-.57h-.66l-.12.57h-.53ZM31.54,32.6c-.02.08-.04.17-.06.25-.02.08-.04.16-.05.25-.02.08-.03.17-.05.26h.48c-.02-.09-.03-.17-.05-.26-.02-.08-.04-.16-.06-.25-.02-.08-.04-.16-.06-.25s-.05-.17-.07-.27c-.03.09-.05.18-.07.27Z"/><path class="e" d="M35.36,39.33c-.08-.21-.15-.43-.22-.65-.07-.22-.14-.45-.2-.66-.06-.22-.11-.42-.16-.62-.05-.2-.09-.38-.12-.54h.52c.02.13.05.28.08.45.03.17.07.35.1.53s.08.36.12.53.08.33.13.47c.04-.14.09-.29.13-.47s.08-.35.12-.53.07-.35.11-.52c.03-.17.06-.32.07-.45h.52c-.02.13-.06.3-.11.5-.05.21-.11.42-.17.65-.06.23-.13.46-.2.69s-.14.44-.2.62h-.51Z"/><path class="e" d="M33.02,39.33c-.12-.04-.21-.08-.28-.12l.12-.39c.05.03.12.06.2.09s.19.04.32.04c.22,0,.38-.08.48-.23.1-.15.15-.37.15-.65,0-.16-.02-.3-.05-.41s-.08-.2-.14-.26-.12-.11-.2-.14c-.07-.03-.15-.04-.23-.04-.11,0-.21.01-.3.04-.09.03-.16.06-.22.1l-.13-.39s.05-.03.08-.05c.04-.02.08-.04.13-.06.05-.02.12-.04.19-.05.07-.01.15-.02.24-.02.16,0,.31.03.45.09.14.06.26.14.36.25.1.11.18.25.23.41.06.16.08.34.08.55,0,.41-.09.73-.28.96-.18.22-.45.34-.8.34-.16,0-.29-.02-.41-.05Z"/><path class="e" d="M31.02,39.33c-.12-.04-.21-.08-.28-.12l.12-.39c.05.03.12.06.2.09s.19.04.32.04c.22,0,.38-.08.48-.23.1-.15.15-.37.15-.65,0-.16-.02-.3-.05-.41s-.08-.2-.14-.26-.12-.11-.2-.14c-.07-.03-.15-.04-.23-.04-.11,0-.21.01-.3.04-.09.03-.16.06-.22.1l-.13-.39s.05-.03.08-.05c.04-.02.08-.04.13-.06.05-.02.12-.04.19-.05.07-.01.15-.02.24-.02.16,0,.31.03.45.09.14.06.26.14.36.25.1.11.18.25.23.41.06.16.08.34.08.55,0,.41-.09.73-.28.96-.18.22-.45.34-.8.34-.16,0-.29-.02-.41-.05Z"/><path class="e" d="M35.1,42.27c-.09.03-.16.06-.22.1l-.13-.39s.05-.03.08-.05c.04-.02.08-.04.14-.06.06-.02.12-.04.2-.05.08-.01.16-.02.26-.02.15,0,.29.03.42.08s.24.14.34.25c.1.11.17.25.23.41.06.16.08.35.08.56s-.02.4-.07.56-.12.3-.2.4c-.09.11-.19.19-.32.24s-.26.08-.42.08c-.18,0-.33-.01-.45-.04-.12-.03-.21-.05-.27-.07v-1.24h.49v.9s.06,0,.1.01c.03,0,.07,0,.1,0,.18,0,.32-.07.41-.21s.14-.36.14-.65c0-.13-.01-.24-.03-.35-.02-.11-.06-.2-.11-.27s-.12-.13-.2-.18-.18-.06-.3-.06c-.09,0-.18.01-.26.04Z"/><path class="e" d="M32.79,44.33v-2.48h.44v1.52c.04-.1.09-.21.15-.34.06-.13.12-.26.2-.4.07-.14.14-.27.22-.41.07-.14.15-.26.22-.38h.4v2.48h-.44v-1.64c-.15.27-.29.55-.43.82s-.25.55-.37.82h-.4Z"/><path class="e" d="M30.8,42.51c.05-.16.12-.29.22-.39.09-.1.21-.18.34-.23.13-.05.28-.07.45-.07.08,0,.18,0,.28.01s.2.02.32.05v2.42c-.1.02-.19.04-.27.05-.08,0-.17.01-.26.01-.17,0-.32-.02-.46-.07s-.26-.12-.36-.22c-.1-.1-.18-.23-.24-.39-.06-.16-.09-.36-.09-.59s.03-.42.08-.57ZM31.9,42.26s-.04,0-.07,0c-.03,0-.05,0-.07,0-.11,0-.2.02-.27.07s-.12.11-.16.19c-.04.08-.07.17-.08.27-.02.1-.02.21-.02.31,0,.12,0,.24.03.34.02.1.05.19.1.27.05.07.11.13.18.18s.17.06.28.06h.04s.03,0,.04,0v-1.66Z"/><rect class="e" x="12.86" y="21.83" width="15.05" height=".25"/><rect class="e" x="12.74" y="21.95" width=".25" height="28.08"/><rect class="e" x="12.86" y="49.9" width="15.05" height=".25"/><rect class="e" x="27.79" y="21.95" width=".25" height="5.38"/><rect class="e" x="27.79" y="44.65" width=".25" height="5.38"/><rect class="e" x="23.73" y="27.45" width=".25" height="17.2"/><polygon class="e" points="23.86 27.57 23.85 27.32 27.91 27.2 27.92 27.45 23.86 27.57"/><rect class="e" x="23.86" y="44.53" width="4.06" height=".25"/><circle class="g" cx="130.73" cy="11.01" r="4.54"/><circle class="g" cx="11.07" cy="60.1" r="4.54"/><line class="g" x1="141.79" y1=".11" x2=".06" y2="70.98"/><path class="e" d="M47.08,62.99h1.32v.41h-.83v1.21c0,.18.04.31.12.38.08.07.18.1.31.1.09,0,.17-.02.25-.06.08-.04.16-.08.22-.12l.19.39c-.08.06-.17.11-.28.16-.11.04-.25.06-.42.06s-.3-.02-.41-.07c-.11-.05-.2-.11-.27-.19-.07-.08-.12-.17-.15-.28-.03-.11-.05-.22-.05-.34v-1.65Z"/><path class="e" d="M45.02,63.65c.05-.16.12-.29.22-.39.09-.1.21-.18.34-.23.13-.05.28-.07.45-.07.08,0,.18,0,.28.01s.2.02.32.05v2.42c-.1.02-.19.04-.27.05-.08,0-.17.01-.26.01-.17,0-.32-.02-.46-.07s-.26-.12-.36-.22c-.1-.1-.18-.23-.24-.39-.06-.16-.09-.36-.09-.59s.03-.42.08-.57ZM46.13,63.4s-.04,0-.07,0c-.03,0-.05,0-.07,0-.11,0-.2.02-.27.07s-.12.11-.16.19c-.04.08-.07.17-.08.27-.02.1-.02.21-.02.31,0,.12,0,.24.03.34.02.1.05.19.1.27.05.07.11.13.18.18s.17.06.28.06h.04s.03,0,.04,0v-1.66Z"/><path class="e" d="M43.58,65.46c-.08-.21-.15-.43-.22-.65-.07-.22-.14-.45-.2-.66-.06-.22-.11-.42-.16-.62-.05-.2-.09-.38-.12-.54h.52c.02.13.05.28.08.45.03.17.07.35.1.53s.08.36.12.53.08.33.13.47c.04-.14.09-.29.13-.47s.08-.35.12-.53.07-.35.11-.52c.03-.17.06-.32.07-.45h.52c-.02.13-.06.3-.11.5-.05.21-.11.42-.17.65-.06.23-.13.46-.2.69s-.14.44-.2.62h-.51Z"/><path class="e" d="M41.16,63.33c.04-.09.1-.16.17-.22.07-.06.15-.1.25-.13s.19-.04.29-.04c.14,0,.28.03.42.08.14.05.26.14.37.25l-.24.34c-.08-.09-.17-.15-.25-.19s-.17-.06-.24-.06c-.09,0-.17.03-.23.08-.06.05-.09.13-.09.23,0,.07.03.14.07.21.05.07.11.14.19.22.08.08.16.15.24.23.09.08.17.17.24.26.08.09.14.2.19.31.05.11.07.23.07.37,0,.02,0,.04,0,.08,0,.04,0,.07-.01.1h-1.62v-.41h1.06s-.01-.08-.04-.13c-.03-.05-.06-.1-.1-.14-.04-.05-.08-.09-.13-.14-.05-.04-.09-.08-.12-.11-.07-.06-.14-.13-.2-.2s-.13-.14-.18-.22c-.05-.08-.1-.15-.13-.23-.03-.08-.05-.16-.05-.25,0-.12.02-.22.06-.31Z"/><path class="e" d="M39.64,62.99c.11.11.21.23.32.36s.21.27.3.41c.1.14.18.27.26.41s.15.25.2.35v.36h-1.03v.58h-.49v-.58h-.27v-.4h.27v-1.49h.44ZM39.69,64.47h.56c-.03-.07-.07-.15-.12-.23-.04-.08-.09-.15-.14-.23-.05-.08-.1-.15-.15-.22s-.1-.13-.15-.2v.87Z"/><path class="e" d="M37.19,63.25c.15-.21.36-.32.64-.32s.49.11.64.32c.15.21.22.54.22.97s-.07.76-.22.98c-.15.21-.36.32-.64.32s-.49-.11-.64-.32c-.15-.21-.22-.54-.22-.98s.07-.76.22-.97ZM37.52,64.87c.07.15.17.22.31.22s.24-.07.31-.22c.07-.15.11-.37.11-.65s-.04-.5-.11-.65c-.07-.15-.17-.22-.31-.22s-.24.07-.31.22c-.07.15-.11.36-.11.65s.04.5.11.65ZM37.67,63.99c.04-.05.09-.08.16-.08.07,0,.12.03.16.08.04.05.06.12.06.19s-.02.13-.06.19c-.04.05-.09.08-.16.08-.06,0-.12-.03-.16-.08-.04-.05-.06-.11-.06-.19s.02-.13.06-.19Z"/><path class="e" d="M35.26,63.1c.14-.12.33-.18.57-.18.15,0,.27.02.38.07.1.04.18.1.24.17s.11.15.13.23c.03.09.04.17.04.25,0,.1-.02.2-.06.29-.04.09-.12.18-.24.26.12.08.22.18.28.29.06.11.09.23.09.35,0,.1-.02.2-.06.28s-.1.15-.17.21-.16.1-.26.13c-.1.03-.22.05-.34.05-.16,0-.29-.02-.4-.06-.11-.04-.2-.1-.27-.16-.07-.07-.12-.14-.15-.22-.03-.08-.05-.16-.05-.24,0-.13.03-.24.09-.34.06-.1.17-.2.32-.29-.12-.07-.21-.17-.26-.28-.06-.11-.08-.22-.08-.34,0-.2.07-.35.21-.47ZM35.55,65.02c.07.06.17.09.29.09.1,0,.19-.03.27-.08.08-.05.11-.13.11-.24,0-.07-.02-.14-.06-.22-.04-.08-.1-.14-.17-.21-.1.04-.18.07-.25.11s-.13.07-.17.1c-.04.03-.08.07-.1.11-.02.04-.03.09-.03.14,0,.08.04.15.11.21ZM35.61,63.4c-.07.05-.1.12-.1.21,0,.07.02.14.05.21.03.07.09.14.18.2.16-.06.28-.13.34-.18.06-.06.1-.13.1-.23s-.03-.16-.1-.21-.15-.07-.23-.07-.17.02-.23.07Z"/><path class="e" d="M34.5,65.05v.41h-1.5v-.41h.49v-2.07h.34c.05.05.11.1.17.16s.14.1.21.14c.08.04.15.09.22.12.08.04.14.07.21.09l-.16.41c-.07-.02-.15-.06-.24-.1-.1-.04-.18-.09-.26-.14v1.38h.52Z"/><path class="e" d="M31.57,64.87s.04.08.07.11c.04.03.09.06.15.08.06.02.14.03.24.03.14,0,.25-.01.34-.04.09-.02.17-.05.22-.08l.1.41s-.07.03-.11.04c-.05.02-.1.03-.17.04-.06.01-.12.02-.19.03-.07,0-.13.01-.2.01-.16,0-.31-.02-.43-.06-.12-.04-.22-.1-.31-.17s-.14-.16-.18-.25c-.04-.1-.06-.2-.06-.32,0-.25.08-.45.24-.58s.41-.22.74-.24c0-.06-.01-.13-.02-.23,0-.09-.01-.18-.02-.27h-.85v-.41h1.26c0,.2.02.41.04.62.02.21.04.43.06.66-.2,0-.37.01-.49.03-.12.02-.22.05-.29.1-.07.04-.11.09-.14.15s-.03.12-.03.19c0,.04,0,.09.02.13Z"/></g><g id="d"><path d="M92.97,61.08v5.67s5.67,0,5.67,0v-5.67s-5.67,0-5.67,0ZM94.4,63.05l.53-.53,2.27,2.27-.53.53-2.27-2.27Z"/><rect x="43.39" y="5.04" width="3.21" height=".75"/><rect x="37.72" y="5.04" width="3.21" height=".75" transform="translate(7.69 29.39) rotate(-45)"/><rect x="32.05" y="5.04" width="3.21" height=".75" transform="translate(6.03 25.39) rotate(-45)"/><rect x="26.38" y="5.04" width="3.21" height=".75" transform="translate(4.37 21.38) rotate(-45)"/><rect x="20.71" y="5.04" width="3.21" height=".75" transform="translate(2.71 17.37) rotate(-45)"/><rect x="43.39" y="10.72" width="3.21" height=".75" transform="translate(5.33 35.07) rotate(-45)"/><rect x="37.72" y="10.72" width="3.21" height=".75" transform="translate(3.67 31.06) rotate(-45)"/><rect x="32.05" y="10.72" width="3.21" height=".75" transform="translate(2.01 27.05) rotate(-45)"/><rect x="26.38" y="10.72" width="3.21" height=".75" transform="translate(.35 23.04) rotate(-45)"/><rect x="20.71" y="10.72" width="3.21" height=".75" transform="translate(-1.31 19.03) rotate(-45)"/><rect x="116.88" y="57.86" width="3.21" height=".75" transform="translate(-6.48 100.84) rotate(-45)"/><rect x="111.21" y="57.86" width="3.21" height=".75" transform="translate(-8.14 96.83) rotate(-45)"/><rect x="105.54" y="57.86" width="3.21" height=".75" transform="translate(-9.8 92.82) rotate(-45)"/><rect x="99.87" y="57.86" width="3.21" height=".75" transform="translate(-11.46 88.81) rotate(-45)"/><rect x="94.2" y="57.86" width="3.21" height=".75" transform="translate(-13.12 84.8) rotate(-45)"/><rect x="116.88" y="63.54" width="3.21" height=".75" transform="translate(-10.5 102.5) rotate(-45)"/><rect x="111.21" y="63.54" width="3.21" height=".75" transform="translate(-12.16 98.49) rotate(-45)"/><rect x="105.54" y="63.54" width="3.21" height=".75" transform="translate(-13.82 94.48) rotate(-45)"/><rect x="99.87" y="63.54" width="3.21" height=".75" transform="translate(-15.48 90.47) rotate(-45)"/><rect x="98.64" y="55.4" width="5.67" height="5.67" transform="translate(202.95 116.47) rotate(-180)"/><rect x="98.64" y="61.08" width="5.67" height="5.67" transform="translate(202.95 127.84) rotate(-180)"/><rect x="19.48" y="8.23" width="5.67" height="5.67" transform="translate(44.64 22.12) rotate(-180)"/></g></svg>