<?xml version="1.0" encoding="UTF-8"?><svg id="b" xmlns="http://www.w3.org/2000/svg" width="141.84" height="71.09" viewBox="0 0 141.84 71.09"><defs><style>.e{fill:#231f20;}.f{fill:none;stroke:#231f20;stroke-miterlimit:10;stroke-width:.25px;}</style></defs><g id="c"><path class="e" d="M56.17,4.77c-.12,0-.22.02-.3.06s-.15.1-.2.18-.09.17-.11.27c-.02.11-.03.22-.03.35,0,.3.05.51.14.65s.23.21.41.21c.03,0,.06,0,.1,0,.04,0,.07,0,.1-.01v-.9h.49v1.24c-.06.02-.15.04-.27.07-.12.03-.27.04-.45.04-.16,0-.29-.03-.42-.08s-.23-.14-.32-.24c-.09-.11-.16-.24-.2-.4s-.07-.35-.07-.56.03-.4.08-.56c.06-.16.13-.3.23-.41s.21-.19.34-.25.27-.08.42-.08c.1,0,.18,0,.26.02.08.01.14.03.2.05.06.02.1.04.14.06.04.02.06.04.08.05l-.13.39c-.06-.04-.13-.07-.22-.1-.08-.03-.17-.04-.26-.04Z"/><path class="e" d="M57.78,4.37c.14,0,.27.02.38.05.11.03.21.08.3.15.08.07.15.15.19.25s.07.22.07.36-.03.28-.09.39-.16.21-.29.27c.04.07.09.15.14.23s.1.17.15.26.09.18.14.28.08.18.11.26h-.52c-.06-.16-.13-.31-.21-.46-.08-.15-.17-.3-.26-.45h-.26v.91h-.49v-2.44s.1-.02.16-.03c.06,0,.12-.02.17-.02s.12,0,.17,0c.05,0,.1,0,.14,0ZM58.21,5.18c0-.13-.04-.23-.12-.29-.08-.06-.19-.09-.32-.09-.02,0-.04,0-.07,0-.03,0-.05,0-.08,0v.74h.11c.17,0,.29-.03.36-.1.08-.07.11-.16.11-.28Z"/><path class="e" d="M59.03,5.63c0-.43.08-.75.24-.97.16-.22.38-.33.66-.33s.51.11.66.33c.15.22.23.54.23.97s-.08.75-.23.97c-.16.22-.37.33-.66.33s-.51-.11-.67-.33c-.15-.22-.23-.54-.23-.97ZM59.53,5.63c0,.12,0,.23.01.34,0,.11.03.2.06.27.03.08.07.14.12.18.05.05.12.07.2.07s.15-.02.2-.07c.05-.04.09-.11.12-.19.03-.08.05-.17.06-.27,0-.1.01-.22.01-.34s0-.23-.01-.34-.03-.2-.06-.27c-.03-.08-.07-.14-.12-.18-.05-.04-.12-.07-.2-.07s-.15.02-.2.07c-.05.05-.09.11-.12.19-.03.08-.05.17-.06.27,0,.1-.01.22-.01.34Z"/><path class="e" d="M61.67,6.87c-.06-.18-.13-.39-.2-.62s-.14-.46-.2-.69c-.06-.23-.12-.45-.17-.65-.05-.21-.09-.37-.11-.5h.52c.02.13.04.28.07.45.03.17.07.34.11.52s.08.36.12.53.09.33.13.47c.04-.14.08-.29.13-.47s.08-.35.12-.53.07-.36.1-.53c.03-.17.06-.32.08-.45h.52c-.03.16-.07.34-.12.54-.05.2-.1.41-.16.62-.06.22-.13.44-.2.66-.07.23-.15.44-.22.65h-.51Z"/><path class="e" d="M63.17,6.87v-2.48h1.5v.41h-1.01v.56h.88v.41h-.88v.7h1.1v.41h-1.59Z"/><path class="e" d="M68.11,6.93c-.35,0-.62-.11-.8-.34-.18-.22-.28-.54-.28-.96,0-.21.03-.39.08-.55.06-.16.13-.29.23-.41.1-.11.22-.19.36-.25.14-.06.29-.09.45-.09.09,0,.17,0,.24.02.07.01.13.03.19.05.05.02.1.04.13.06.04.02.06.04.08.05l-.13.39c-.06-.04-.14-.07-.22-.1-.09-.03-.19-.04-.3-.04-.08,0-.15.01-.23.04-.07.03-.14.07-.2.14s-.1.15-.14.26-.05.25-.05.41c0,.28.05.5.15.65.1.15.26.23.48.23.13,0,.23-.01.32-.04s.15-.06.2-.09l.12.39c-.07.04-.16.08-.28.12-.12.04-.25.05-.41.05Z"/><path class="e" d="M69.03,5.63c0-.43.08-.75.24-.97.16-.22.38-.33.66-.33s.51.11.66.33c.15.22.23.54.23.97s-.08.75-.23.97c-.16.22-.37.33-.66.33s-.51-.11-.67-.33c-.15-.22-.23-.54-.23-.97ZM69.53,5.63c0,.12,0,.23.01.34,0,.11.03.2.06.27.03.08.07.14.12.18.05.05.12.07.2.07s.15-.02.2-.07c.05-.04.09-.11.12-.19.03-.08.05-.17.06-.27,0-.1.01-.22.01-.34s0-.23-.01-.34-.03-.2-.06-.27c-.03-.08-.07-.14-.12-.18-.05-.04-.12-.07-.2-.07s-.15.02-.2.07c-.05.05-.09.11-.12.19-.03.08-.05.17-.06.27,0,.1-.01.22-.01.34Z"/><path class="e" d="M71.57,4.4c.02.06.04.13.07.22s.06.18.09.28c.03.1.06.2.1.31.03.1.06.2.09.29.03-.1.07-.2.1-.31.04-.11.07-.21.1-.3.03-.1.06-.19.09-.27.03-.09.05-.16.07-.21h.41c.02.22.04.43.05.63.02.21.03.41.04.61.01.2.02.4.03.61,0,.2.01.41.02.63h-.45l.02-1.92-.3,1.05h-.36l-.29-1.05.02,1.92h-.45c0-.2.02-.41.03-.63,0-.22.02-.44.03-.65,0-.22.02-.42.04-.63.01-.2.03-.39.05-.56h.41Z"/><path class="e" d="M73.82,4.37c.31,0,.56.06.73.19.17.13.26.34.26.63s-.09.51-.26.64-.42.2-.74.2h-.18v.84h-.49v-2.44s.1-.02.16-.03c.06,0,.12-.01.18-.02.06,0,.12,0,.18,0s.11,0,.16,0ZM73.87,4.8s-.07,0-.12,0c-.05,0-.09,0-.12,0v.8h.2c.16,0,.28-.03.36-.09.08-.06.12-.17.12-.32s-.04-.25-.12-.31c-.08-.06-.18-.09-.31-.09Z"/><path class="e" d="M76.36,6.87l-.12-.57h-.66l-.11.57h-.51c.12-.49.24-.93.36-1.33.12-.4.24-.78.35-1.14h.54c.12.36.23.75.35,1.15.12.41.23.85.34,1.32h-.53ZM75.92,4.88c-.03.09-.05.18-.07.27s-.04.17-.06.25c-.02.08-.04.16-.06.25-.02.08-.03.17-.05.26h.48c-.02-.09-.03-.17-.05-.26-.02-.08-.03-.16-.05-.25-.02-.08-.04-.16-.06-.25-.02-.08-.05-.17-.07-.27Z"/><path class="e" d="M78.82,4.4v.41h-.65v2.07h-.5v-2.07h-.65v-.41h1.8Z"/><path class="e" d="M79.14,6.87v-.41h.54v-1.66h-.54v-.41h1.57v.41h-.54v1.66h.54v.41h-1.57Z"/><path class="e" d="M82.8,6.13c0,.15-.03.27-.08.37s-.12.18-.21.24c-.09.06-.19.1-.31.13-.12.03-.25.04-.38.04-.11,0-.22,0-.34-.02-.12-.01-.23-.03-.35-.05v-2.4c.09-.02.2-.03.31-.04.11-.01.22-.02.33-.02.19,0,.34.02.46.06.12.04.21.09.28.15s.11.13.14.21c.02.08.04.15.04.23,0,.12-.03.22-.09.31s-.13.16-.23.22c.17.06.28.14.34.25.06.1.09.21.09.33ZM81.82,5.38c.12,0,.22-.03.28-.08.06-.05.1-.13.1-.23,0-.06,0-.11-.03-.14-.02-.04-.04-.06-.08-.08-.03-.02-.07-.03-.11-.04-.04,0-.09,0-.13,0-.04,0-.08,0-.12,0-.04,0-.08,0-.11.01v.57h.19ZM81.63,5.79v.67s.07,0,.11.01c.04,0,.08,0,.12,0,.06,0,.11,0,.16-.01.05,0,.1-.03.14-.05s.08-.06.1-.11c.03-.05.04-.11.04-.18,0-.12-.04-.21-.11-.26-.08-.05-.18-.08-.31-.08h-.26Z"/><path class="e" d="M84.76,6.87h-1.56v-2.48h.5v2.07h1.06v.41Z"/><path class="e" d="M85.17,6.87v-2.48h1.5v.41h-1.01v.56h.88v.41h-.88v.7h1.1v.41h-1.59Z"/><path class="e" d="M49.77,8.12c.47,0,.84.1,1.1.29.26.19.39.51.39.95s-.13.76-.39.96c-.26.2-.63.3-1.11.3h-.26v1.25h-.74v-3.67c.07-.02.15-.03.24-.04.09-.01.18-.02.27-.03.09,0,.18-.01.27-.01.09,0,.17,0,.23,0ZM49.85,8.76s-.1,0-.18,0-.14,0-.18.02v1.2h.3c.24,0,.41-.05.53-.14.12-.09.18-.25.18-.48s-.06-.37-.18-.46c-.12-.09-.28-.14-.47-.14Z"/><path class="e" d="M52.71,8.12c.21,0,.4.02.58.07.17.05.32.12.44.22s.22.23.29.38c.07.15.1.33.1.54s-.04.41-.13.59-.23.31-.44.4c.07.1.14.22.22.34s.15.26.22.4c.07.14.14.28.21.41.07.14.12.27.17.39h-.77c-.09-.24-.2-.47-.32-.69-.12-.22-.25-.45-.39-.67h-.38v1.37h-.74v-3.66c.07-.02.15-.03.24-.04s.17-.02.26-.03c.09,0,.17-.01.25-.01s.15,0,.21,0ZM53.36,9.33c0-.2-.06-.34-.18-.43-.12-.09-.28-.14-.47-.14-.03,0-.06,0-.1,0s-.08,0-.12.02v1.12h.16c.25,0,.43-.05.55-.15.11-.1.17-.24.17-.42Z"/><path class="e" d="M54.8,11.87v-3.71h2.25v.61h-1.51v.83h1.31v.61h-1.31v1.04h1.64v.61h-2.38Z"/><path class="e" d="M58.81,11.33c.12,0,.23-.01.31-.04.08-.03.15-.06.2-.11.05-.05.08-.1.1-.16.02-.06.03-.12.03-.18,0-.08-.02-.14-.07-.2-.04-.06-.1-.11-.17-.16s-.14-.09-.23-.13-.17-.07-.25-.11c-.11-.04-.23-.09-.35-.14s-.23-.12-.33-.2c-.1-.08-.18-.18-.24-.3-.06-.12-.1-.26-.1-.44,0-.35.11-.62.34-.82.23-.2.54-.29.93-.29.23,0,.43.03.6.08s.31.11.43.17l-.22.57c-.1-.06-.21-.1-.33-.14s-.26-.06-.42-.06c-.39,0-.59.14-.59.43,0,.07.02.13.06.19.04.05.09.1.15.14.06.04.13.08.21.11.08.03.16.06.23.09.12.04.24.09.36.15.13.05.24.13.35.22.11.09.19.2.26.34.07.13.1.3.1.51,0,.35-.11.62-.34.81-.23.19-.57.29-1.03.29-.31,0-.55-.03-.74-.1-.18-.07-.32-.13-.41-.18l.22-.6c.11.06.24.12.39.18.15.06.33.08.55.08Z"/><path class="e" d="M60.8,11.87v-3.71h2.25v.61h-1.51v.83h1.31v.61h-1.31v1.04h1.64v.61h-2.38Z"/><path class="e" d="M65.55,11.87c-.17-.41-.35-.82-.55-1.23-.2-.41-.41-.82-.64-1.23v2.47h-.67v-3.71h.59c.11.18.22.37.34.57s.22.41.33.61c.11.2.2.4.29.59.09.19.17.36.23.5v-2.29h.67v3.71h-.59Z"/><path class="e" d="M68.2,11.95c-.52,0-.92-.17-1.2-.5-.28-.34-.41-.81-.41-1.43,0-.31.04-.58.13-.82.08-.24.2-.44.35-.61.15-.17.33-.29.53-.38s.43-.13.67-.13c.13,0,.25.01.36.03.11.02.2.05.28.07.08.03.15.06.2.09.05.03.1.06.12.07l-.19.59c-.09-.06-.2-.11-.33-.15s-.28-.06-.45-.06c-.12,0-.23.02-.34.06s-.21.11-.29.21c-.09.1-.16.23-.21.39s-.08.37-.08.61c0,.42.07.75.22.97.15.23.38.34.72.34.19,0,.35-.02.48-.07s.23-.09.3-.13l.19.58c-.1.06-.25.12-.42.18-.18.05-.38.08-.61.08Z"/><path class="e" d="M69.8,11.87v-3.71h2.25v.61h-1.51v.83h1.31v.61h-1.31v1.04h1.64v.61h-2.38Z"/><path class="e" d="M76.81,11.33c.12,0,.23-.01.31-.04.08-.03.15-.06.2-.11.05-.05.08-.1.1-.16.02-.06.03-.12.03-.18,0-.08-.02-.14-.07-.2-.04-.06-.1-.11-.17-.16s-.14-.09-.23-.13-.17-.07-.25-.11c-.11-.04-.23-.09-.35-.14s-.23-.12-.33-.2c-.1-.08-.18-.18-.24-.3-.06-.12-.1-.26-.1-.44,0-.35.11-.62.34-.82.23-.2.54-.29.93-.29.23,0,.43.03.6.08s.31.11.43.17l-.22.57c-.1-.06-.21-.1-.33-.14s-.26-.06-.42-.06c-.39,0-.59.14-.59.43,0,.07.02.13.06.19.04.05.09.1.15.14.06.04.13.08.21.11.08.03.16.06.23.09.12.04.24.09.36.15.13.05.24.13.35.22.11.09.19.2.26.34.07.13.1.3.1.51,0,.35-.11.62-.34.81-.23.19-.57.29-1.03.29-.31,0-.55-.03-.74-.1-.18-.07-.32-.13-.41-.18l.22-.6c.11.06.24.12.39.18.15.06.33.08.55.08Z"/><path class="e" d="M78.8,11.87v-3.71h2.25v.61h-1.51v.83h1.31v.61h-1.31v1.04h1.64v.61h-2.38Z"/><path class="e" d="M83.55,11.87c-.17-.41-.35-.82-.55-1.23-.2-.41-.41-.82-.64-1.23v2.47h-.67v-3.71h.59c.11.18.22.37.34.57s.22.41.33.61c.11.2.2.4.29.59.09.19.17.36.23.5v-2.29h.67v3.71h-.59Z"/><path class="e" d="M85.81,11.33c.12,0,.23-.01.31-.04.08-.03.15-.06.2-.11.05-.05.08-.1.1-.16.02-.06.03-.12.03-.18,0-.08-.02-.14-.07-.2-.04-.06-.1-.11-.17-.16s-.14-.09-.23-.13-.17-.07-.25-.11c-.11-.04-.23-.09-.35-.14s-.23-.12-.33-.2c-.1-.08-.18-.18-.24-.3-.06-.12-.1-.26-.1-.44,0-.35.11-.62.34-.82.23-.2.54-.29.93-.29.23,0,.43.03.6.08s.31.11.43.17l-.22.57c-.1-.06-.21-.1-.33-.14s-.26-.06-.42-.06c-.39,0-.59.14-.59.43,0,.07.02.13.06.19.04.05.09.1.15.14.06.04.13.08.21.11.08.03.16.06.23.09.12.04.24.09.36.15.13.05.24.13.35.22.11.09.19.2.26.34.07.13.1.3.1.51,0,.35-.11.62-.34.81-.23.19-.57.29-1.03.29-.31,0-.55-.03-.74-.1-.18-.07-.32-.13-.41-.18l.22-.6c.11.06.24.12.39.18.15.06.33.08.55.08Z"/><path class="e" d="M87.58,10.01c0-.64.12-1.12.35-1.45.24-.33.56-.49.98-.49s.77.16,1,.49c.23.33.34.81.34,1.45s-.12,1.12-.35,1.45c-.23.33-.56.49-.98.49s-.77-.16-1-.49c-.23-.33-.34-.81-.34-1.45ZM88.33,10.01c0,.18,0,.35.02.51.01.16.04.29.08.41.04.12.1.21.18.28.08.07.18.1.31.1s.22-.03.3-.1.14-.16.18-.28c.04-.12.07-.25.08-.41.01-.16.02-.32.02-.5s0-.35-.02-.51c-.01-.16-.04-.29-.08-.41-.04-.12-.1-.21-.18-.28-.08-.07-.18-.1-.31-.1s-.23.03-.31.1c-.08.07-.14.16-.18.28-.04.12-.07.26-.08.41-.01.16-.02.32-.02.5Z"/><path class="e" d="M91.71,8.12c.21,0,.4.02.58.07.17.05.32.12.44.22s.22.23.29.38c.07.15.1.33.1.54s-.04.41-.13.59-.23.31-.44.4c.07.1.14.22.22.34s.15.26.22.4c.07.14.14.28.21.41.07.14.12.27.17.39h-.77c-.09-.24-.2-.47-.32-.69-.12-.22-.25-.45-.39-.67h-.38v1.37h-.74v-3.66c.07-.02.15-.03.24-.04s.17-.02.26-.03c.09,0,.17-.01.25-.01s.15,0,.21,0ZM92.36,9.33c0-.2-.06-.34-.18-.43-.12-.09-.28-.14-.47-.14-.03,0-.06,0-.1,0s-.08,0-.12.02v1.12h.16c.25,0,.43-.05.55-.15.11-.1.17-.24.17-.42Z"/><polygon points="102.54 69.87 99.29 69.87 99.29 69.37 102.04 69.37 102.04 66.62 102.54 66.62 102.54 69.87"/><path d="M97.19,69.87h-2.1v-.5h2.1v.5ZM92.99,69.87h-.01v-.5.5Z"/><path d="M92.98,69.87h-6.3v-.5h6.3v.5ZM84.58,69.87h-2.1v-.5h2.1v.5ZM80.39,69.87h-6.31v-.5h6.3v.5ZM71.97,69.87h-2.1v-.5h2.1v.5ZM67.78,69.87h-6.31v-.5h6.3v.5ZM59.37,69.87h-2.1v-.5h2.1v.5ZM55.17,69.87h-6.31v-.5h6.3v.5ZM46.76,69.87h-2.1v-.5h2.1v.5ZM42.57,69.87h-.01v-.5.5Z"/><polygon points="42.56 69.87 39.31 69.87 39.31 66.62 39.81 66.62 39.81 69.37 42.56 69.37 42.56 69.87"/><path d="M39.81,64.75h-.5v-1.87h.5v1.87ZM39.31,61.01h0s.5,0,.5,0h-.5Z"/><path d="M39.81,61h-.5v-5.62h.5v5.62ZM39.81,53.5h-.5v-1.87h.5v1.87ZM39.31,49.76v-5.63h.5v5.62h-.5ZM39.81,42.26h-.5v-1.87h.5v1.87ZM39.31,38.52v-5.63h.5v5.62h-.5ZM39.81,31.01h-.5v-1.87h.5v1.87ZM39.31,27.27h0s.5,0,.5,0h-.5Z"/><polygon points="39.81 27.27 39.31 27.27 39.31 24.02 42.56 24.02 42.56 24.52 39.81 24.52 39.81 27.27"/><path d="M48.86,24.52v-.5s0,0,0,0v.5ZM46.76,24.52h-2.1v-.5h2.1v.5Z"/><path d="M99.29,24.52v-.5s0,0,0,0v.5ZM97.19,24.52h-2.1v-.5h2.1v.5ZM92.98,24.52h-6.3v-.5h6.3v.5ZM86.68,24.52v-.5s0,0,0,0v.5ZM84.58,24.52h-2.1v-.5h2.1v.5ZM80.38,24.52h-6.3v-.5h6.3v.5ZM74.07,24.52v-.5s0,0,0,0v.5ZM71.97,24.52h-2.1v-.5h2.1v.5ZM67.77,24.52h-6.3v-.5h6.3v.5ZM61.47,24.52v-.5s0,0,0,0v.5ZM59.37,24.52h-2.1v-.5h2.1v.5ZM55.16,24.52h-6.3v-.5h6.3v.5Z"/><polygon points="102.54 27.27 102.04 27.27 102.04 24.52 99.29 24.52 99.29 24.02 102.54 24.02 102.54 27.27"/><path d="M102.54,32.89h-.5.5s0,0,0,0ZM102.54,31.01h-.5v-1.87h.5v1.87Z"/><path d="M102.54,66.62h-.5.5s0,0,0,0ZM102.54,64.75h-.5v-1.87h.5v1.87ZM102.54,61h-.5v-5.62h.5v5.62ZM102.54,55.38h-.5.5s0,0,0,0ZM102.54,53.5h-.5v-1.87h.5v1.87ZM102.54,49.75h-.5v-5.62h.5v5.62ZM102.54,44.13h-.5.5s0,0,0,0ZM102.54,42.26h-.5v-1.87h.5v1.87ZM102.54,38.51h-.5v-5.62h.5v5.62Z"/><polygon points="137.65 58.66 134.4 58.66 134.4 58.16 137.15 58.16 137.15 55.41 137.65 55.41 137.65 58.66"/><path d="M132.31,58.66h-2.09v-.5h2.09v.5ZM128.14,58.66h-.01v-.5.5Z"/><path d="M128.13,58.66h-6.27v-.5h6.27v.5ZM119.76,58.66h-2.09v-.5h2.09v.5ZM115.59,58.66h-6.28v-.5h6.27v.5ZM107.22,58.66h-2.09v-.5h2.09v.5ZM103.05,58.66h-6.28v-.5h6.27v.5ZM94.67,58.66h-2.09v-.5h2.09v.5ZM90.5,58.66h-6.28v-.5h6.27v.5ZM82.13,58.66h-2.09v-.5h2.09v.5ZM77.96,58.66h-6.28v-.5h6.27v.5ZM69.58,58.66h-2.09v-.5h2.09v.5ZM65.41,58.66h-6.28v-.5h6.27v.5ZM57.04,58.66h-2.09v-.5h2.09v.5ZM52.87,58.66h-6.28v-.5h6.27v.5ZM44.49,58.66h-2.09v-.5h2.09v.5ZM40.32,58.66h-6.28v-.5h6.27v.5ZM31.95,58.66h-2.09v-.5h2.09v.5ZM27.78,58.66h-6.28v-.5h6.27v.5ZM19.4,58.66h-2.09v-.5h2.09v.5ZM15.23,58.66h-.01v-.5.5Z"/><polygon points="15.22 58.66 11.97 58.66 11.97 55.41 12.47 55.41 12.47 58.16 15.22 58.16 15.22 58.66"/><path d="M12.47,53.68h-.5v-1.74h.5v1.74ZM11.97,50.21h0s.5,0,.5,0h-.5Z"/><path d="M12.47,50.2h-.5v-5.22h.5v5.22ZM12.47,43.24h-.5v-1.74h.5v1.74ZM11.97,39.77v-5.23h.5v5.22h-.5ZM12.47,32.81h-.5v-1.74h.5v1.74ZM11.97,29.34v-5.23h.5v5.22h-.5ZM12.47,22.37h-.5v-1.74h.5v1.74ZM11.97,18.9h0s.5,0,.5,0h-.5Z"/><polygon points="12.47 18.89 11.97 18.89 11.97 15.64 15.22 15.64 15.22 16.14 12.47 16.14 12.47 18.89"/><path d="M21.49,16.14v-.5s0,0,0,0v.5ZM19.4,16.14h-2.09v-.5h2.09v.5Z"/><path d="M134.4,16.14v-.5s0,0,0,0v.5ZM132.31,16.14h-2.09v-.5h2.09v.5ZM128.13,16.14h-6.27v-.5h6.27v.5ZM121.86,16.14v-.5s0,0,0,0v.5ZM119.76,16.14h-2.09v-.5h2.09v.5ZM115.58,16.14h-6.27v-.5h6.27v.5ZM109.31,16.14v-.5s0,0,0,0v.5ZM107.22,16.14h-2.09v-.5h2.09v.5ZM103.04,16.14h-6.27v-.5h6.27v.5ZM96.77,16.14v-.5s0,0,0,0v.5ZM94.67,16.14h-2.09v-.5h2.09v.5ZM90.49,16.14h-6.27v-.5h6.27v.5ZM84.22,16.14v-.5s0,0,0,0v.5ZM82.13,16.14h-2.09v-.5h2.09v.5ZM77.95,16.14h-6.27v-.5h6.27v.5ZM71.67,16.14v-.5s0,0,0,0v.5ZM69.58,16.14h-2.09v-.5h2.09v.5ZM65.4,16.14h-6.27v-.5h6.27v.5ZM59.13,16.14v-.5s0,0,0,0v.5ZM57.04,16.14h-2.09v-.5h2.09v.5ZM52.86,16.14h-6.27v-.5h6.27v.5ZM46.59,16.14v-.5s0,0,0,0v.5ZM44.49,16.14h-2.09v-.5h2.09v.5ZM40.31,16.14h-6.27v-.5h6.27v.5ZM34.04,16.14v-.5s0,0,0,0v.5ZM31.95,16.14h-2.09v-.5h2.09v.5ZM27.77,16.14h-6.27v-.5h6.27v.5Z"/><polygon points="137.65 18.89 137.15 18.89 137.15 16.14 134.4 16.14 134.4 15.64 137.65 15.64 137.65 18.89"/><path d="M137.65,24.11h-.5.5s0,0,0,0ZM137.65,22.37h-.5v-1.74h.5v1.74Z"/><path d="M137.65,55.41h-.5.5s0,0,0,0ZM137.65,53.68h-.5v-1.74h.5v1.74ZM137.65,50.2h-.5v-5.22h.5v5.22ZM137.65,44.98h-.5.5s0,0,0,0ZM137.65,43.24h-.5v-1.74h.5v1.74ZM137.65,39.76h-.5v-5.22h.5v5.22ZM137.65,34.55h-.5.5s0,0,0,0ZM137.65,32.81h-.5v-1.74h.5v1.74ZM137.65,29.33h-.5v-5.22h.5v5.22Z"/><path class="e" d="M66.76,21.5h-1.56v-2.48h.5v2.07h1.06v.41Z"/><path class="e" d="M68.81,20.26c0,.23-.03.42-.09.59-.06.16-.14.29-.24.39-.1.1-.22.17-.36.22s-.29.07-.46.07c-.09,0-.17,0-.26-.01-.08,0-.17-.02-.27-.05v-2.42c.11-.02.22-.04.32-.05.1,0,.19-.01.28-.01.16,0,.31.02.45.07.13.05.25.12.34.23.09.1.17.23.22.39.05.16.08.35.08.57ZM67.63,21.1s.03,0,.04,0h.04c.11,0,.21-.02.28-.06.08-.04.14-.1.18-.18.05-.08.08-.16.1-.27.02-.1.03-.21.03-.34,0-.11,0-.21-.02-.31-.02-.1-.04-.19-.08-.27-.04-.08-.09-.14-.16-.19s-.16-.07-.27-.07c-.02,0-.05,0-.07,0-.03,0-.05,0-.07,0v1.66Z"/><path class="e" d="M70.66,19.68c0,.09-.02.17-.05.25-.03.08-.07.16-.13.23-.05.07-.11.15-.18.22-.07.07-.13.14-.2.2-.03.03-.07.07-.12.11-.05.04-.09.09-.13.14-.04.05-.07.09-.1.14-.03.05-.04.09-.04.13h1.06v.41h-1.62s-.01-.06,0-.1c0-.04,0-.07,0-.08,0-.13.02-.26.07-.37.05-.11.11-.22.19-.31.08-.09.16-.18.24-.26s.17-.16.24-.23c.08-.07.14-.15.19-.22s.07-.14.07-.21c0-.1-.03-.18-.09-.23-.06-.05-.14-.08-.23-.08-.08,0-.16.02-.24.06s-.17.1-.25.19l-.24-.34c.11-.11.23-.19.37-.25.14-.05.28-.08.42-.08.1,0,.2.01.29.04s.18.07.25.13c.07.06.13.13.17.22.04.09.06.19.06.31Z"/><path class="e" d="M72.55,19.03v1.49h.27v.4h-.27v.58h-.49v-.58h-1.03v-.36c.05-.1.12-.22.2-.35.08-.13.17-.27.26-.41.1-.14.2-.28.3-.41.11-.13.21-.25.32-.36h.44ZM72.06,19.64c-.05.06-.1.13-.15.2-.05.07-.1.14-.15.22s-.1.15-.14.23c-.05.08-.09.15-.12.23h.56v-.87Z"/><path class="e" d="M74.21,20.78c0-.07-.01-.13-.03-.19s-.07-.11-.14-.15c-.07-.04-.16-.07-.29-.1-.13-.02-.29-.03-.49-.03.03-.22.05-.44.06-.66.02-.21.03-.42.04-.62h1.26v.41h-.85c0,.09-.01.17-.02.27,0,.09-.02.17-.02.23.33.02.58.1.74.24.16.14.24.33.24.58,0,.11-.02.22-.06.32-.04.1-.1.18-.18.25-.08.07-.19.13-.31.17-.12.04-.26.06-.43.06-.06,0-.13,0-.2-.01-.07,0-.13-.02-.19-.03-.06-.01-.12-.03-.17-.04-.05-.02-.09-.03-.11-.04l.1-.41c.06.03.13.06.22.08.09.02.2.04.34.04.1,0,.18-.01.24-.03.06-.02.11-.05.15-.08.04-.03.06-.07.07-.11.01-.04.02-.09.02-.13Z"/><path class="e" d="M76.78,20.26c0,.44-.07.76-.22.98-.15.21-.36.32-.64.32s-.49-.11-.64-.32c-.15-.21-.22-.54-.22-.98s.08-.75.22-.97c.15-.21.36-.32.64-.32s.49.11.64.32.22.54.22.97ZM76.34,20.26c0-.28-.04-.5-.11-.65-.07-.15-.17-.22-.31-.22s-.24.07-.31.22c-.07.15-.11.36-.11.65s.04.5.11.65c.07.15.17.22.31.22s.24-.07.31-.22c.07-.15.11-.37.11-.65ZM76.15,20.22c0,.07-.02.13-.06.19-.04.05-.09.08-.16.08-.07,0-.12-.03-.16-.08-.04-.05-.06-.11-.06-.19s.02-.13.06-.19c.04-.05.09-.08.16-.08.06,0,.12.03.16.08.04.05.06.12.06.19Z"/><path class="e" d="M65.76,29.96h-1.56v-2.48h.5v2.07h1.06v.41Z"/><path class="e" d="M67.81,28.72c0,.23-.03.42-.09.59-.06.16-.14.29-.24.39-.1.1-.22.17-.36.22s-.29.07-.46.07c-.09,0-.17,0-.26-.01-.08,0-.17-.02-.27-.05v-2.42c.11-.02.22-.04.32-.05.1,0,.19-.01.28-.01.16,0,.31.02.45.07.13.05.25.12.34.23.09.1.17.23.22.39.05.16.08.35.08.57ZM66.63,29.56s.03,0,.04,0h.04c.11,0,.21-.02.28-.06.08-.04.14-.1.18-.18.05-.08.08-.16.1-.27.02-.1.03-.21.03-.34,0-.11,0-.21-.02-.31-.02-.1-.04-.19-.08-.27-.04-.08-.09-.14-.16-.19s-.16-.07-.27-.07c-.02,0-.05,0-.07,0-.03,0-.05,0-.07,0v1.66Z"/><path class="e" d="M69.66,28.13c0,.09-.02.17-.05.25-.03.08-.07.16-.13.23-.05.07-.11.15-.18.22-.07.07-.13.14-.2.2-.03.03-.07.07-.12.11-.05.04-.09.09-.13.14-.04.05-.07.09-.1.14-.03.05-.04.09-.04.13h1.06v.41h-1.62s-.01-.06,0-.1c0-.04,0-.07,0-.08,0-.13.02-.26.07-.37.05-.11.11-.22.19-.31.08-.09.16-.18.24-.26s.17-.16.24-.23c.08-.07.14-.15.19-.22s.07-.14.07-.21c0-.1-.03-.18-.09-.23-.06-.05-.14-.08-.23-.08-.08,0-.16.02-.24.06s-.17.1-.25.19l-.24-.34c.11-.11.23-.19.37-.25.14-.05.28-.08.42-.08.1,0,.2.01.29.04s.18.07.25.13c.07.06.13.13.17.22.04.09.06.19.06.31Z"/><path class="e" d="M71.55,27.48v1.49h.27v.4h-.27v.58h-.49v-.58h-1.03v-.36c.05-.1.12-.22.2-.35.08-.13.17-.27.26-.41.1-.14.2-.28.3-.41.11-.13.21-.25.32-.36h.44ZM71.06,28.1c-.05.06-.1.13-.15.2-.05.07-.1.14-.15.22s-.1.15-.14.23c-.05.08-.09.15-.12.23h.56v-.87Z"/><path class="e" d="M72.77,29.55v-1.38c-.08.05-.16.1-.26.14-.1.04-.18.07-.24.1l-.16-.41c.06-.02.13-.05.21-.09.07-.04.15-.08.22-.12.08-.05.15-.09.21-.14.07-.05.12-.1.17-.16h.34v2.07h.49v.41h-1.5v-.41h.52Z"/><path class="e" d="M75.78,28.71c0,.44-.07.76-.22.98-.15.21-.36.32-.64.32s-.49-.11-.64-.32c-.15-.21-.22-.54-.22-.98s.07-.75.22-.97c.15-.21.36-.32.64-.32s.49.11.64.32c.15.21.22.54.22.97ZM75.34,28.71c0-.28-.04-.5-.11-.65-.07-.15-.17-.22-.31-.22s-.24.07-.31.22c-.07.15-.11.36-.11.65s.04.5.11.65c.07.15.17.22.31.22s.24-.07.31-.22c.07-.15.11-.37.11-.65ZM75.15,28.67c0,.07-.02.13-.06.19-.04.05-.09.08-.16.08-.07,0-.12-.03-.16-.08-.04-.05-.06-.11-.06-.19s.02-.13.06-.19c.04-.05.09-.08.16-.08.06,0,.12.03.16.08.04.05.06.12.06.19Z"/><path class="e" d="M77.11,30.01c-.35,0-.62-.11-.8-.34-.18-.22-.28-.54-.28-.96,0-.21.03-.39.08-.55s.13-.29.23-.41c.1-.11.22-.19.36-.25.14-.06.29-.09.45-.09.09,0,.17,0,.24.02.07.01.13.03.19.05s.1.04.13.06c.04.02.06.04.08.05l-.13.39c-.06-.04-.14-.07-.22-.1-.09-.03-.19-.04-.3-.04-.08,0-.15.01-.23.04-.07.03-.14.07-.2.14-.06.07-.1.15-.14.26s-.05.25-.05.41c0,.28.05.5.15.65.1.15.26.23.48.23.13,0,.23-.01.32-.04s.15-.06.2-.09l.12.39c-.07.04-.16.08-.28.12-.12.04-.26.05-.41.05Z"/><circle class="f" cx="130.73" cy="11.01" r="4.54"/><circle class="f" cx="11.07" cy="60.1" r="4.54"/><line class="f" x1="141.79" y1=".11" x2=".06" y2="70.98"/></g><g id="d"><rect x="19.35" y="3.76" width=".75" height="3.21" transform="translate(1.98 15.52) rotate(-45)"/><rect x="25.02" y="3.76" width=".75" height="3.21" transform="translate(3.64 19.53) rotate(-45)"/><rect x="30.69" y="3.76" width=".75" height="3.21" transform="translate(5.3 23.54) rotate(-45)"/><rect x="36.36" y="3.76" width=".75" height="3.21" transform="translate(6.97 27.55) rotate(-45)"/><rect x="42.03" y="3.76" width=".75" height="3.21" transform="translate(8.63 31.56) rotate(-45)"/><rect x="98.73" y="3.76" width=".75" height="3.21" transform="translate(25.23 71.65) rotate(-45)"/><rect x="104.4" y="3.76" width=".75" height="3.21" transform="translate(26.89 75.66) rotate(-45)"/><rect x="115.74" y="3.76" width=".75" height="3.21" transform="translate(30.21 83.67) rotate(-45)"/><rect x="121.4" y="3.76" width=".75" height="3.21" transform="translate(31.87 87.68) rotate(-45)"/><rect x="19.35" y="9.45" width=".75" height="3.21" transform="translate(-2.03 17.19) rotate(-45)"/><rect x="25.02" y="9.45" width=".75" height="3.21" transform="translate(-.37 21.2) rotate(-45)"/><rect x="30.69" y="9.45" width=".75" height="3.21" transform="translate(1.29 25.21) rotate(-45)"/><rect x="36.36" y="9.45" width=".75" height="3.21" transform="translate(2.95 29.21) rotate(-45)"/><rect x="42.03" y="9.45" width=".75" height="3.21" transform="translate(4.61 33.22) rotate(-45)"/><rect x="98.73" y="9.45" width=".75" height="3.21" transform="translate(21.21 73.31) rotate(-45)"/><rect x="104.4" y="9.45" width=".75" height="3.21" transform="translate(22.87 77.32) rotate(-45)"/><rect x="110.07" y="9.45" width=".75" height="3.21" transform="translate(24.53 81.33) rotate(-45)"/><rect x="115.74" y="9.45" width=".75" height="3.21" transform="translate(26.2 85.34) rotate(-45)"/><rect x="121.4" y="9.45" width=".75" height="3.21" transform="translate(27.86 89.35) rotate(-45)"/><path d="M107.61,2.53v5.67h5.67V2.53h-5.67ZM109.57,6.77l-.53-.53,2.27-2.27.53.53-2.27,2.27Z"/></g></svg>