<?xml version="1.0" encoding="UTF-8"?><svg id="b" xmlns="http://www.w3.org/2000/svg" width="41.52" height="5.57" viewBox="0 0 41.52 5.57"><g id="c"><path d="M23.76,2.5s-.07-.07-.12-.09c-.05-.02-.1-.03-.17-.03-.07,0-.12.01-.17.03-.04.02-.08.05-.11.09-.03.04-.05.08-.06.13-.01.05-.02.09-.02.15h.75c0-.05-.02-.1-.03-.15-.02-.05-.04-.09-.07-.13Z"/><path d="M33.12,2.98c0,.17.03.31.08.4.06.09.14.14.26.14.05,0,.11,0,.16-.02.05-.01.1-.03.13-.05v-1.03s-.07,0-.11,0c-.04,0-.08,0-.12,0-.14,0-.24.05-.3.16-.07.11-.1.25-.1.41Z"/><path d="M21.27,2.48v1.02s.07,0,.11.01c.04,0,.07,0,.11,0,.14,0,.24-.05.3-.16s.09-.24.09-.41-.03-.31-.08-.4c-.05-.09-.14-.14-.26-.14-.05,0-.1,0-.15.02-.05.01-.09.03-.13.05Z"/><path d="M41.52,0H0s0,5.57,0,5.57h41.52s0-5.57,0-5.57ZM37.21,3.94c-.1,0-.2,0-.31-.02-.11-.02-.2-.04-.29-.08l.07-.42s.09.04.13.05c.04.01.08.02.11.03.04,0,.07.01.11.01.04,0,.08,0,.13,0,.04,0,.08,0,.12-.01.03,0,.06-.02.09-.05s.04-.06.06-.1.02-.1.02-.17v-.76s-.79,0-.79,0v-.41h.79s0-.55,0-.55l.49.08v.47s.43,0,.43,0v.41h-.43s0,.77,0,.77c0,.16-.02.29-.05.38-.03.1-.08.17-.14.23-.06.05-.14.09-.22.11s-.19.03-.3.03ZM35.27,3.5s.06-.02.09-.05.04-.06.06-.1.02-.1.02-.17v-.76s-.79,0-.79,0v-.41h.79s0-.55,0-.55l.49.08v.47s.43,0,.43,0v.41h-.43s0,.77,0,.77c0,.16-.02.29-.05.38-.03.1-.08.17-.14.23-.06.05-.14.09-.22.11s-.19.03-.3.03c-.1,0-.2,0-.31-.02-.11-.02-.2-.04-.29-.08l.07-.42s.09.04.13.05c.04.01.08.02.11.03.04,0,.07.01.11.01.04,0,.08,0,.13,0,.04,0,.08,0,.12-.01ZM31.91,3.48c.11-.03.2-.07.3-.1l.08.41c-.07.03-.16.06-.28.1-.11.04-.25.06-.42.06s-.29-.01-.4-.04-.2-.07-.27-.12-.12-.11-.15-.18-.04-.14-.04-.22c0-.1.02-.18.06-.25.04-.07.09-.12.15-.17.06-.04.13-.08.21-.11s.15-.06.22-.08c.05-.02.1-.03.14-.05.04-.02.08-.04.12-.05.03-.02.06-.04.08-.06.02-.02.03-.05.03-.08,0-.03-.02-.07-.07-.1-.04-.03-.13-.05-.25-.05s-.23.01-.32.05c-.1.03-.17.05-.21.07l-.08-.42c.08-.03.17-.06.27-.08.11-.02.22-.03.34-.03.14,0,.26.01.36.05.1.03.18.07.25.13s.11.12.14.19c.03.07.05.15.05.23,0,.1-.02.18-.06.25s-.09.12-.15.16c-.06.04-.13.08-.2.11-.08.03-.15.05-.22.07-.05.02-.1.03-.15.05s-.09.03-.12.05c-.04.02-.06.04-.08.06-.02.02-.03.05-.03.09s.03.09.1.11c.06.02.16.03.28.03.11,0,.22-.02.32-.05ZM29.5,3.94c-.09,0-.18-.03-.25-.09s-.11-.15-.11-.27.04-.2.11-.26.15-.09.25-.09c.05,0,.09,0,.14.02.04.02.08.04.11.07s.06.07.08.11c.02.04.03.09.03.15,0,.06-.01.11-.03.15-.02.04-.05.08-.08.11-.03.03-.07.05-.11.07-.04.02-.09.02-.14.02ZM29.5,2.73c-.09,0-.18-.03-.25-.09s-.11-.15-.11-.27.04-.2.11-.26.15-.09.25-.09c.05,0,.09,0,.14.02.04.02.08.04.11.07s.06.07.08.11c.02.04.03.09.03.15,0,.06-.01.11-.03.15-.02.04-.05.08-.08.11-.03.03-.07.05-.11.07-.04.02-.09.02-.14.02ZM40.25,1.21v2.69h-.49v-1.45s-.06-.02-.11-.03-.09-.02-.13-.02c-.11,0-.19.04-.23.12s-.06.2-.06.38v1h-.49v-1.06c0-.13.01-.25.04-.35.02-.11.06-.2.12-.27.06-.08.13-.13.22-.18.09-.04.21-.06.35-.06.04,0,.09,0,.15.02.06.01.1.03.14.04v-.91l.49.08ZM9.29,2.52c-.04.08-.06.2-.06.38v1h-.49v-1.06c0-.13.01-.25.04-.35.02-.11.06-.2.12-.27.06-.08.14-.13.23-.18.1-.04.22-.06.37-.06s.29.01.42.03c.13.02.24.04.33.07v1.82h-.49v-1.48s-.08,0-.11-.01c-.04,0-.07,0-.11,0-.12,0-.2.04-.24.12ZM8.25,3.9h-.5v-.89c-.05.05-.11.11-.17.18-.06.07-.12.15-.18.23-.06.08-.11.16-.17.25s-.09.16-.13.23h-.56c.04-.07.09-.16.15-.26s.13-.19.21-.29c.07-.1.15-.19.23-.28.08-.09.15-.17.22-.23-.05-.06-.11-.12-.18-.19s-.13-.14-.2-.22c-.06-.07-.13-.15-.19-.22-.06-.07-.12-.14-.16-.2h.59c.03.06.07.12.11.18s.09.13.13.19.09.13.14.19c.05.06.1.12.15.18v-1.64l.5.08v2.69ZM5.74,2.48c-.03.05-.04.14-.04.27v.43h-.4v-.38c0-.08,0-.14,0-.2,0-.06.01-.12.02-.17-.02-.01-.05-.02-.07-.02s-.05,0-.08,0c-.02,0-.04,0-.06.01-.02,0-.04.02-.05.05-.01.02-.03.06-.04.1,0,.05-.01.11-.01.18v1.15h-.4v-1.12c0-.13,0-.24.02-.34.01-.1.04-.18.08-.24.04-.06.09-.11.16-.14.07-.03.15-.05.26-.05.07,0,.13.01.19.03s.11.05.16.08c.04-.04.09-.07.14-.09s.12-.03.19-.03c.08,0,.17,0,.27.02s.2.04.31.07v1.81h-.4v-1.48s-.04,0-.07-.01c-.02,0-.04,0-.06,0-.06,0-.1.03-.12.08ZM1.47,3.9c-.01-.21-.05-.43-.11-.64-.06-.21-.12-.42-.2-.61s-.16-.36-.24-.51c-.08-.15-.16-.27-.24-.35v-.37h1.62v.41h-1.04c.07.12.15.26.23.43.08.17.15.34.22.53.07.19.13.38.17.57s.08.37.08.54h-.5ZM2.91,3.92c-.11-.02-.2-.04-.29-.08l.07-.42s.09.04.13.05c.04.01.08.02.11.03.04,0,.07.01.11.01.04,0,.08,0,.13,0,.04,0,.08,0,.12-.01.03,0,.06-.02.09-.05s.04-.06.06-.1.02-.1.02-.17v-.76s-.79,0-.79,0v-.41h.79s0-.55,0-.55l.49.08v.47s.43,0,.43,0v.41h-.43s0,.77,0,.77c0,.16-.02.29-.05.38-.03.1-.08.17-.14.23-.06.05-.14.09-.22.11s-.19.03-.3.03c-.1,0-.2,0-.31-.02ZM11.8,4.56l-1.11-3.46h.5s1.12,3.46,1.12,3.46h-.51ZM23.72,3.41c.1-.07.15-.17.15-.29h-1.22s0-.05,0-.08c0-.03,0-.07,0-.1,0-.31.07-.55.22-.72.14-.16.35-.25.63-.25.11,0,.22.02.33.06.11.04.2.11.28.19.08.08.15.19.2.31.05.13.08.27.08.44s-.02.3-.07.42-.12.22-.21.3c-.09.08-.2.14-.32.18-.13.04-.27.06-.43.06-.12,0-.23,0-.32-.03-.1-.02-.19-.04-.27-.07l.07-.42c.06.02.14.04.23.06.09.02.18.03.28.03.16,0,.29-.04.39-.11ZM21.44,2c.06-.01.13-.02.2-.02.25,0,.44.09.56.27.13.18.19.42.19.73,0,.3-.08.54-.23.71-.15.17-.37.26-.67.26-.12,0-.25,0-.38-.03s-.24-.04-.33-.07V1.12s.49.08.49.08v.86s.1-.05.17-.06ZM13.27,3.45c.05-.04.08-.13.08-.26V1.15h1.01v.41h-.52s0,1.6,0,1.6c0,.26-.05.46-.16.59-.1.13-.27.2-.5.2-.08,0-.16,0-.22-.02s-.12-.02-.17-.04c-.04-.01-.08-.03-.11-.04-.03-.01-.05-.02-.05-.03l.06-.4s.07.03.13.05.15.04.25.04c.08,0,.14-.02.19-.07ZM15.29,2.52c-.04.08-.06.2-.06.38v1h-.49v-1.06c0-.13.01-.25.04-.35.02-.11.06-.2.12-.27.06-.08.14-.13.23-.18.1-.04.22-.06.37-.06s.29.01.42.03c.13.02.24.04.33.07v1.82h-.49v-1.48s-.08,0-.11-.01c-.04,0-.07,0-.11,0-.12,0-.2.04-.24.12ZM17.25,3.85c-.07-.06-.11-.15-.11-.27s.04-.2.11-.26.15-.09.25-.09c.05,0,.09,0,.14.02.04.02.08.04.11.07s.06.07.08.11c.02.04.03.09.03.15,0,.06-.01.11-.03.15-.02.04-.05.08-.08.11-.03.03-.07.05-.11.07-.04.02-.09.02-.14.02-.09,0-.18-.03-.25-.09ZM19.08,3.91c-.13-.02-.24-.05-.33-.07v-1.82h.5v1.48c.07.01.15.02.22.02.12,0,.2-.04.24-.13s.06-.21.06-.39v-.98h.49v1.05c0,.13-.01.25-.03.35-.02.11-.06.2-.12.28-.06.08-.14.14-.23.18-.1.04-.23.06-.38.06s-.29-.01-.42-.04ZM25.8,4.56l-1.11-3.46h.5s1.12,3.46,1.12,3.46h-.51ZM27.8,4.56l-1.11-3.46h.5s1.12,3.46,1.12,3.46h-.51ZM33.76,4.56v-.71c-.13.06-.26.09-.39.09s-.23-.02-.32-.07c-.09-.05-.17-.12-.23-.2-.06-.09-.11-.19-.14-.31s-.05-.25-.05-.4c0-.3.08-.54.23-.72.15-.18.38-.26.67-.26.13,0,.26,0,.39.03s.24.04.33.07v2.48h-.49Z"/></g></svg>