%TF.GenerationSoftware,KiCad,Pcbnew,8.0.1*%
%TF.CreationDate,2024-04-15T16:31:13+02:00*%
%TF.ProjectId,ultimate_motor_board,756c7469-6d61-4746-955f-6d6f746f725f,0.1*%
%TF.SameCoordinates,Original*%
%TF.FileFunction,Other,User*%
%FSLAX46Y46*%
G04 Gerber Fmt 4.6, Leading zero omitted, Abs format (unit mm)*
G04 Created by KiCad (PCBNEW 8.0.1) date 2024-04-15 16:31:13*
%MOMM*%
%LPD*%
G01*
G04 APERTURE LIST*
%ADD10C,0.050000*%
G04 APERTURE END LIST*
D10*
%TO.C,D14*%
X131349682Y-89125000D02*
X133249682Y-89125000D01*
X131349682Y-92825000D02*
X131349682Y-89125000D01*
X133249682Y-89125000D02*
X133249682Y-92825000D01*
X133249682Y-92825000D02*
X131349682Y-92825000D01*
%TO.C,R20*%
X128800000Y-84350000D02*
X130700000Y-84350000D01*
X128800000Y-88050000D02*
X128800000Y-84350000D01*
X130700000Y-84350000D02*
X130700000Y-88050000D01*
X130700000Y-88050000D02*
X128800000Y-88050000D01*
%TO.C,R23*%
X136375000Y-84350000D02*
X138275000Y-84350000D01*
X136375000Y-88050000D02*
X136375000Y-84350000D01*
X138275000Y-84350000D02*
X138275000Y-88050000D01*
X138275000Y-88050000D02*
X136375000Y-88050000D01*
%TO.C,J1*%
X108450000Y-56750000D02*
X108450000Y-50600000D01*
X108450000Y-56750000D02*
X119800000Y-56750000D01*
X119800000Y-50600000D02*
X108450000Y-50600000D01*
X119800000Y-56750000D02*
X119800000Y-50600000D01*
%TO.C,D4*%
X106059062Y-89125000D02*
X107959062Y-89125000D01*
X106059062Y-92825000D02*
X106059062Y-89125000D01*
X107959062Y-89125000D02*
X107959062Y-92825000D01*
X107959062Y-92825000D02*
X106059062Y-92825000D01*
%TO.C,R12*%
X108600000Y-84350000D02*
X110500000Y-84350000D01*
X108600000Y-88050000D02*
X108600000Y-84350000D01*
X110500000Y-84350000D02*
X110500000Y-88050000D01*
X110500000Y-88050000D02*
X108600000Y-88050000D01*
%TO.C,R18*%
X123750000Y-84350000D02*
X125650000Y-84350000D01*
X123750000Y-88050000D02*
X123750000Y-84350000D01*
X125650000Y-84350000D02*
X125650000Y-88050000D01*
X125650000Y-88050000D02*
X123750000Y-88050000D01*
%TO.C,D15*%
X133878744Y-89125000D02*
X135778744Y-89125000D01*
X133878744Y-92825000D02*
X133878744Y-89125000D01*
X135778744Y-89125000D02*
X135778744Y-92825000D01*
X135778744Y-92825000D02*
X133878744Y-92825000D01*
%TO.C,D6*%
X111117186Y-89125000D02*
X113017186Y-89125000D01*
X111117186Y-92825000D02*
X111117186Y-89125000D01*
X113017186Y-89125000D02*
X113017186Y-92825000D01*
X113017186Y-92825000D02*
X111117186Y-92825000D01*
%TO.C,U2*%
X107275000Y-103270000D02*
X116275000Y-103270000D01*
X107275000Y-112770000D02*
X107275000Y-103270000D01*
X107275000Y-112770000D02*
X116275000Y-112770000D01*
X116275000Y-112770000D02*
X116275000Y-103270000D01*
%TO.C,R13*%
X111125000Y-84350000D02*
X113025000Y-84350000D01*
X111125000Y-88050000D02*
X111125000Y-84350000D01*
X113025000Y-84350000D02*
X113025000Y-88050000D01*
X113025000Y-88050000D02*
X111125000Y-88050000D01*
%TO.C,R3*%
X107550000Y-65150000D02*
X111250000Y-65150000D01*
X107550000Y-67050000D02*
X107550000Y-65150000D01*
X111250000Y-65150000D02*
X111250000Y-67050000D01*
X111250000Y-67050000D02*
X107550000Y-67050000D01*
%TO.C,Q1*%
X140200000Y-58650000D02*
X145900000Y-58650000D01*
X140200000Y-65310000D02*
X140200000Y-58650000D01*
X140200000Y-65310000D02*
X145900000Y-65310000D01*
X145900000Y-65310000D02*
X145900000Y-58650000D01*
%TO.C,D2*%
X123650000Y-58850000D02*
X127350000Y-58850000D01*
X123650000Y-60750000D02*
X123650000Y-58850000D01*
X127350000Y-58850000D02*
X127350000Y-60750000D01*
X127350000Y-60750000D02*
X123650000Y-60750000D01*
%TO.C,R21*%
X131325000Y-84350000D02*
X133225000Y-84350000D01*
X131325000Y-88050000D02*
X131325000Y-84350000D01*
X133225000Y-84350000D02*
X133225000Y-88050000D01*
X133225000Y-88050000D02*
X131325000Y-88050000D01*
%TO.C,R19*%
X126275000Y-84350000D02*
X128175000Y-84350000D01*
X126275000Y-88050000D02*
X126275000Y-84350000D01*
X128175000Y-84350000D02*
X128175000Y-88050000D01*
X128175000Y-88050000D02*
X126275000Y-88050000D01*
%TO.C,R22*%
X133850000Y-84350000D02*
X135750000Y-84350000D01*
X133850000Y-88050000D02*
X133850000Y-84350000D01*
X135750000Y-84350000D02*
X135750000Y-88050000D01*
X135750000Y-88050000D02*
X133850000Y-88050000D01*
%TO.C,H1*%
X146950000Y-53500000D02*
G75*
G02*
X140050000Y-53500000I-3450000J0D01*
G01*
X140050000Y-53500000D02*
G75*
G02*
X146950000Y-53500000I3450000J0D01*
G01*
%TO.C,D5*%
X108588124Y-89125000D02*
X110488124Y-89125000D01*
X108588124Y-92825000D02*
X108588124Y-89125000D01*
X110488124Y-89125000D02*
X110488124Y-92825000D01*
X110488124Y-92825000D02*
X108588124Y-92825000D01*
%TO.C,JP5*%
X103550000Y-72450000D02*
X103550000Y-74950000D01*
X103550000Y-72450000D02*
X106850000Y-72450000D01*
X106850000Y-74950000D02*
X103550000Y-74950000D01*
X106850000Y-74950000D02*
X106850000Y-72450000D01*
%TO.C,JP3*%
X103550000Y-67370000D02*
X103550000Y-69870000D01*
X103550000Y-67370000D02*
X106850000Y-67370000D01*
X106850000Y-69870000D02*
X103550000Y-69870000D01*
X106850000Y-69870000D02*
X106850000Y-67370000D01*
%TO.C,R16*%
X118700000Y-84350000D02*
X120600000Y-84350000D01*
X118700000Y-88050000D02*
X118700000Y-84350000D01*
X120600000Y-84350000D02*
X120600000Y-88050000D01*
X120600000Y-88050000D02*
X118700000Y-88050000D01*
%TO.C,D10*%
X121233434Y-89125000D02*
X123133434Y-89125000D01*
X121233434Y-92825000D02*
X121233434Y-89125000D01*
X123133434Y-89125000D02*
X123133434Y-92825000D01*
X123133434Y-92825000D02*
X121233434Y-92825000D01*
%TO.C,D18*%
X141465930Y-89125000D02*
X143365930Y-89125000D01*
X141465930Y-92825000D02*
X141465930Y-89125000D01*
X143365930Y-89125000D02*
X143365930Y-92825000D01*
X143365930Y-92825000D02*
X141465930Y-92825000D01*
%TO.C,R11*%
X106075000Y-84350000D02*
X107975000Y-84350000D01*
X106075000Y-88050000D02*
X106075000Y-84350000D01*
X107975000Y-84350000D02*
X107975000Y-88050000D01*
X107975000Y-88050000D02*
X106075000Y-88050000D01*
%TO.C,R15*%
X116175000Y-84350000D02*
X118075000Y-84350000D01*
X116175000Y-88050000D02*
X116175000Y-84350000D01*
X118075000Y-84350000D02*
X118075000Y-88050000D01*
X118075000Y-88050000D02*
X116175000Y-88050000D01*
%TO.C,D11*%
X123762496Y-89125000D02*
X125662496Y-89125000D01*
X123762496Y-92825000D02*
X123762496Y-89125000D01*
X125662496Y-89125000D02*
X125662496Y-92825000D01*
X125662496Y-92825000D02*
X123762496Y-92825000D01*
%TO.C,D1*%
X118150000Y-58850000D02*
X121850000Y-58850000D01*
X118150000Y-60750000D02*
X118150000Y-58850000D01*
X121850000Y-58850000D02*
X121850000Y-60750000D01*
X121850000Y-60750000D02*
X118150000Y-60750000D01*
%TO.C,C1*%
X138850000Y-69100000D02*
X138850000Y-75050000D01*
X140000000Y-67950000D02*
X138850000Y-69100000D01*
X141350000Y-66800000D02*
X141350000Y-67950000D01*
X141350000Y-67950000D02*
X140000000Y-67950000D01*
X141350000Y-75050000D02*
X138850000Y-75050000D01*
X141350000Y-76200000D02*
X141350000Y-75050000D01*
X143450000Y-66800000D02*
X141350000Y-66800000D01*
X143450000Y-67950000D02*
X143450000Y-66800000D01*
X143450000Y-75050000D02*
X143450000Y-76200000D01*
X143450000Y-76200000D02*
X141350000Y-76200000D01*
X144800000Y-67950000D02*
X143450000Y-67950000D01*
X144800000Y-67950000D02*
X145950000Y-69100000D01*
X145950000Y-69100000D02*
X145950000Y-75050000D01*
X145950000Y-75050000D02*
X143450000Y-75050000D01*
%TO.C,TP5*%
X107400000Y-60600000D02*
G75*
G02*
X104400000Y-60600000I-1500000J0D01*
G01*
X104400000Y-60600000D02*
G75*
G02*
X107400000Y-60600000I1500000J0D01*
G01*
%TO.C,R14*%
X113650000Y-84350000D02*
X115550000Y-84350000D01*
X113650000Y-88050000D02*
X113650000Y-84350000D01*
X115550000Y-84350000D02*
X115550000Y-88050000D01*
X115550000Y-88050000D02*
X113650000Y-88050000D01*
%TO.C,JP2*%
X103550000Y-64830000D02*
X103550000Y-67330000D01*
X103550000Y-64830000D02*
X106850000Y-64830000D01*
X106850000Y-67330000D02*
X103550000Y-67330000D01*
X106850000Y-67330000D02*
X106850000Y-64830000D01*
%TO.C,J2*%
X134700000Y-77700000D02*
X134700000Y-81300000D01*
X134700000Y-81300000D02*
X143350000Y-81300000D01*
X143350000Y-77700000D02*
X134700000Y-77700000D01*
X143350000Y-81300000D02*
X143350000Y-77700000D01*
%TO.C,TP3*%
X132400000Y-63000000D02*
G75*
G02*
X129400000Y-63000000I-1500000J0D01*
G01*
X129400000Y-63000000D02*
G75*
G02*
X132400000Y-63000000I1500000J0D01*
G01*
%TO.C,D7*%
X113646248Y-89125000D02*
X115546248Y-89125000D01*
X113646248Y-92825000D02*
X113646248Y-89125000D01*
X115546248Y-89125000D02*
X115546248Y-92825000D01*
X115546248Y-92825000D02*
X113646248Y-92825000D01*
%TO.C,JP1*%
X103550000Y-62290000D02*
X103550000Y-64790000D01*
X103550000Y-62290000D02*
X106850000Y-62290000D01*
X106850000Y-64790000D02*
X103550000Y-64790000D01*
X106850000Y-64790000D02*
X106850000Y-62290000D01*
%TO.C,R17*%
X121225000Y-84350000D02*
X123125000Y-84350000D01*
X121225000Y-88050000D02*
X121225000Y-84350000D01*
X123125000Y-84350000D02*
X123125000Y-88050000D01*
X123125000Y-88050000D02*
X121225000Y-88050000D01*
%TO.C,U1*%
X119650000Y-70625000D02*
X119650000Y-80825000D01*
X119650000Y-80825000D02*
X127350000Y-80825000D01*
X127350000Y-70625000D02*
X119650000Y-70625000D01*
X127350000Y-80825000D02*
X127350000Y-70625000D01*
%TO.C,D8*%
X116175310Y-89125000D02*
X118075310Y-89125000D01*
X116175310Y-92825000D02*
X116175310Y-89125000D01*
X118075310Y-89125000D02*
X118075310Y-92825000D01*
X118075310Y-92825000D02*
X116175310Y-92825000D01*
%TO.C,TP2*%
X116200000Y-60600000D02*
G75*
G02*
X113200000Y-60600000I-1500000J0D01*
G01*
X113200000Y-60600000D02*
G75*
G02*
X116200000Y-60600000I1500000J0D01*
G01*
%TO.C,D13*%
X128820620Y-89125000D02*
X130720620Y-89125000D01*
X128820620Y-92825000D02*
X128820620Y-89125000D01*
X130720620Y-89125000D02*
X130720620Y-92825000D01*
X130720620Y-92825000D02*
X128820620Y-92825000D01*
%TO.C,R6*%
X107550000Y-70230000D02*
X111250000Y-70230000D01*
X107550000Y-72130000D02*
X107550000Y-70230000D01*
X111250000Y-70230000D02*
X111250000Y-72130000D01*
X111250000Y-72130000D02*
X107550000Y-72130000D01*
%TO.C,J8*%
X102620000Y-95360000D02*
X102620000Y-98960000D01*
X102620000Y-98960000D02*
X144320000Y-98960000D01*
X144320000Y-95360000D02*
X102620000Y-95360000D01*
X144320000Y-98960000D02*
X144320000Y-95360000D01*
%TO.C,R1*%
X107550000Y-62610000D02*
X111250000Y-62610000D01*
X107550000Y-64510000D02*
X107550000Y-62610000D01*
X111250000Y-62610000D02*
X111250000Y-64510000D01*
X111250000Y-64510000D02*
X107550000Y-64510000D01*
%TO.C,JP4*%
X103550000Y-69910000D02*
X103550000Y-72410000D01*
X103550000Y-69910000D02*
X106850000Y-69910000D01*
X106850000Y-72410000D02*
X103550000Y-72410000D01*
X106850000Y-72410000D02*
X106850000Y-69910000D01*
%TO.C,R4*%
X114112500Y-65077500D02*
X117812500Y-65077500D01*
X114112500Y-66977500D02*
X114112500Y-65077500D01*
X117812500Y-65077500D02*
X117812500Y-66977500D01*
X117812500Y-66977500D02*
X114112500Y-66977500D01*
%TO.C,TP1*%
X137700000Y-63000000D02*
G75*
G02*
X134700000Y-63000000I-1500000J0D01*
G01*
X134700000Y-63000000D02*
G75*
G02*
X137700000Y-63000000I1500000J0D01*
G01*
%TO.C,J10*%
X119800000Y-50020000D02*
X119800000Y-56580000D01*
X119800000Y-56580000D02*
X127600000Y-56580000D01*
X127600000Y-50020000D02*
X119800000Y-50020000D01*
X127600000Y-56580000D02*
X127600000Y-50020000D01*
%TO.C,J4*%
X127900000Y-50000000D02*
X127900000Y-60000000D01*
X127900000Y-60000000D02*
X138900000Y-60000000D01*
X138900000Y-50000000D02*
X127900000Y-50000000D01*
X138900000Y-60000000D02*
X138900000Y-50000000D01*
%TO.C,D16*%
X136407806Y-89125000D02*
X138307806Y-89125000D01*
X136407806Y-92825000D02*
X136407806Y-89125000D01*
X138307806Y-89125000D02*
X138307806Y-92825000D01*
X138307806Y-92825000D02*
X136407806Y-92825000D01*
%TO.C,C4*%
X113982500Y-70222500D02*
X117742500Y-70222500D01*
X113982500Y-72182500D02*
X113982500Y-70222500D01*
X117742500Y-70222500D02*
X117742500Y-72182500D01*
X117742500Y-72182500D02*
X113982500Y-72182500D01*
%TO.C,TP4*%
X111800000Y-60600000D02*
G75*
G02*
X108800000Y-60600000I-1500000J0D01*
G01*
X108800000Y-60600000D02*
G75*
G02*
X111800000Y-60600000I1500000J0D01*
G01*
%TO.C,R2*%
X114112500Y-62535000D02*
X117812500Y-62535000D01*
X114112500Y-64435000D02*
X114112500Y-62535000D01*
X117812500Y-62535000D02*
X117812500Y-64435000D01*
X117812500Y-64435000D02*
X114112500Y-64435000D01*
%TO.C,R8*%
X118150000Y-61050000D02*
X121850000Y-61050000D01*
X118150000Y-62950000D02*
X118150000Y-61050000D01*
X121850000Y-61050000D02*
X121850000Y-62950000D01*
X121850000Y-62950000D02*
X118150000Y-62950000D01*
%TO.C,H2*%
X106950000Y-53500000D02*
G75*
G02*
X100050000Y-53500000I-3450000J0D01*
G01*
X100050000Y-53500000D02*
G75*
G02*
X106950000Y-53500000I3450000J0D01*
G01*
%TO.C,R9*%
X123650000Y-61150000D02*
X127350000Y-61150000D01*
X123650000Y-63050000D02*
X123650000Y-61150000D01*
X127350000Y-61150000D02*
X127350000Y-63050000D01*
X127350000Y-63050000D02*
X123650000Y-63050000D01*
%TO.C,R24*%
X138900000Y-84350000D02*
X140800000Y-84350000D01*
X138900000Y-88050000D02*
X138900000Y-84350000D01*
X140800000Y-84350000D02*
X140800000Y-88050000D01*
X140800000Y-88050000D02*
X138900000Y-88050000D01*
%TO.C,R5*%
X107550000Y-67690000D02*
X111250000Y-67690000D01*
X107550000Y-69590000D02*
X107550000Y-67690000D01*
X111250000Y-67690000D02*
X111250000Y-69590000D01*
X111250000Y-69590000D02*
X107550000Y-69590000D01*
%TO.C,U3*%
X131000000Y-103270000D02*
X140000000Y-103270000D01*
X131000000Y-112770000D02*
X131000000Y-103270000D01*
X131000000Y-112770000D02*
X140000000Y-112770000D01*
X140000000Y-112770000D02*
X140000000Y-103270000D01*
%TO.C,R10*%
X103550000Y-84350000D02*
X105450000Y-84350000D01*
X103550000Y-88050000D02*
X103550000Y-84350000D01*
X105450000Y-84350000D02*
X105450000Y-88050000D01*
X105450000Y-88050000D02*
X103550000Y-88050000D01*
%TO.C,D3*%
X103530000Y-89125000D02*
X105430000Y-89125000D01*
X103530000Y-92825000D02*
X103530000Y-89125000D01*
X105430000Y-89125000D02*
X105430000Y-92825000D01*
X105430000Y-92825000D02*
X103530000Y-92825000D01*
%TO.C,J6*%
X125100000Y-115300000D02*
X125100000Y-125300000D01*
X125100000Y-125300000D02*
X146100000Y-125300000D01*
X146100000Y-115300000D02*
X125100000Y-115300000D01*
X146100000Y-125300000D02*
X146100000Y-115300000D01*
%TO.C,D17*%
X138936868Y-89125000D02*
X140836868Y-89125000D01*
X138936868Y-92825000D02*
X138936868Y-89125000D01*
X140836868Y-89125000D02*
X140836868Y-92825000D01*
X140836868Y-92825000D02*
X138936868Y-92825000D01*
%TO.C,J5*%
X101100000Y-115300000D02*
X101100000Y-125300000D01*
X101100000Y-125300000D02*
X122100000Y-125300000D01*
X122100000Y-115300000D02*
X101100000Y-115300000D01*
X122100000Y-125300000D02*
X122100000Y-115300000D01*
%TO.C,H4*%
X106950000Y-108500000D02*
G75*
G02*
X100050000Y-108500000I-3450000J0D01*
G01*
X100050000Y-108500000D02*
G75*
G02*
X106950000Y-108500000I3450000J0D01*
G01*
%TO.C,J3*%
X103425000Y-77700000D02*
X103425000Y-81300000D01*
X103425000Y-81300000D02*
X112075000Y-81300000D01*
X112075000Y-77700000D02*
X103425000Y-77700000D01*
X112075000Y-81300000D02*
X112075000Y-77700000D01*
%TO.C,D9*%
X118704372Y-89125000D02*
X120604372Y-89125000D01*
X118704372Y-92825000D02*
X118704372Y-89125000D01*
X120604372Y-89125000D02*
X120604372Y-92825000D01*
X120604372Y-92825000D02*
X118704372Y-92825000D01*
%TO.C,C2*%
X129950000Y-69200000D02*
X129950000Y-75150000D01*
X131100000Y-68050000D02*
X129950000Y-69200000D01*
X132450000Y-66900000D02*
X132450000Y-68050000D01*
X132450000Y-68050000D02*
X131100000Y-68050000D01*
X132450000Y-75150000D02*
X129950000Y-75150000D01*
X132450000Y-76300000D02*
X132450000Y-75150000D01*
X134550000Y-66900000D02*
X132450000Y-66900000D01*
X134550000Y-68050000D02*
X134550000Y-66900000D01*
X134550000Y-75150000D02*
X134550000Y-76300000D01*
X134550000Y-76300000D02*
X132450000Y-76300000D01*
X135900000Y-68050000D02*
X134550000Y-68050000D01*
X135900000Y-68050000D02*
X137050000Y-69200000D01*
X137050000Y-69200000D02*
X137050000Y-75150000D01*
X137050000Y-75150000D02*
X134550000Y-75150000D01*
%TO.C,J9*%
X102620000Y-97900000D02*
X102620000Y-101500000D01*
X102620000Y-101500000D02*
X144320000Y-101500000D01*
X144320000Y-97900000D02*
X102620000Y-97900000D01*
X144320000Y-101500000D02*
X144320000Y-97900000D01*
%TO.C,C3*%
X113982500Y-72825000D02*
X117742500Y-72825000D01*
X113982500Y-74785000D02*
X113982500Y-72825000D01*
X117742500Y-72825000D02*
X117742500Y-74785000D01*
X117742500Y-74785000D02*
X113982500Y-74785000D01*
%TO.C,C5*%
X113982500Y-67620000D02*
X117742500Y-67620000D01*
X113982500Y-69580000D02*
X113982500Y-67620000D01*
X117742500Y-67620000D02*
X117742500Y-69580000D01*
X117742500Y-69580000D02*
X113982500Y-69580000D01*
%TO.C,J7*%
X102620000Y-92820000D02*
X102620000Y-96420000D01*
X102620000Y-96420000D02*
X144320000Y-96420000D01*
X144320000Y-92820000D02*
X102620000Y-92820000D01*
X144320000Y-96420000D02*
X144320000Y-92820000D01*
%TO.C,D12*%
X126291558Y-89125000D02*
X128191558Y-89125000D01*
X126291558Y-92825000D02*
X126291558Y-89125000D01*
X128191558Y-89125000D02*
X128191558Y-92825000D01*
X128191558Y-92825000D02*
X126291558Y-92825000D01*
%TO.C,R25*%
X141425000Y-84350000D02*
X143325000Y-84350000D01*
X141425000Y-88050000D02*
X141425000Y-84350000D01*
X143325000Y-84350000D02*
X143325000Y-88050000D01*
X143325000Y-88050000D02*
X141425000Y-88050000D01*
%TO.C,R7*%
X107550000Y-72770000D02*
X111250000Y-72770000D01*
X107550000Y-74670000D02*
X107550000Y-72770000D01*
X111250000Y-72770000D02*
X111250000Y-74670000D01*
X111250000Y-74670000D02*
X107550000Y-74670000D01*
%TO.C,H3*%
X146950000Y-108500000D02*
G75*
G02*
X140050000Y-108500000I-3450000J0D01*
G01*
X140050000Y-108500000D02*
G75*
G02*
X146950000Y-108500000I3450000J0D01*
G01*
%TD*%
M02*
