M48
; DRILL file {KiCad 8.0.1} date 2024-04-15T16:31:07+0200
; FORMAT={-:-/ absolute / inch / decimal}
; #@! TF.CreationDate,2024-04-15T16:31:07+02:00
; #@! TF.GenerationSoftware,Kicad,Pcbnew,8.0.1
; #@! TF.FileFunction,Plated,1,2,PTH
FMAT,2
INCH
; #@! TA.AperFunction,Plated,PTH,ViaDrill
T1C0.0157
; #@! TA.AperFunction,Plated,PTH,ComponentDrill
T2C0.0300
; #@! TA.AperFunction,Plated,PTH,ComponentDrill
T3C0.0394
; #@! TA.AperFunction,Plated,PTH,ComponentDrill
T4C0.0512
%
G90
G05
T1
X4.1142Y-3.3071
X4.1181Y-2.9882
X4.2126Y-3.3071
X4.2244Y-2.5512
X4.311Y-3.3071
X4.3799Y-4.0453
X4.4016Y-2.6614
X4.4193Y-3.3071
X4.437Y-2.3937
X4.4449Y-2.7559
X4.4803Y-2.311
X4.4921Y-2.1693
X4.5177Y-3.3071
X4.5787Y-2.3031
X4.6024Y-2.9567
X4.6102Y-2.4016
X4.6161Y-3.3071
X4.6181Y-2.1732
X4.6575Y-2.8465
X4.6575Y-2.9055
X4.6772Y-2.7992
X4.7146Y-3.3071
X4.7362Y-2.2244
X4.813Y-3.3071
X4.815Y-2.5827
X4.8268Y-2.3504
X4.8268Y-2.4409
X4.8583Y-2.9409
X4.8976Y-2.9882
X4.9114Y-3.3071
X4.9134Y-2.2598
X4.9803Y-2.6811
X5.0098Y-3.3071
X5.0591Y-2.9449
X5.1024Y-2.9882
X5.1083Y-3.3071
X5.2067Y-3.3071
X5.2756Y-4.1693
X5.3051Y-3.3071
X5.3051Y-4.0453
X5.4035Y-3.3071
X5.4055Y-4.1693
X5.502Y-3.3071
X5.6004Y-3.3071
T2
X4.374Y-2.0984
X4.4528Y-2.0984
X4.5315Y-2.0984
X4.6102Y-2.0984
T3
X4.111Y-3.7252
X4.111Y-3.8252
X4.111Y-3.9252
X4.1427Y-3.1299
X4.211Y-3.7252
X4.211Y-3.8252
X4.211Y-3.9252
X4.2427Y-3.1299
X4.311Y-3.7252
X4.311Y-3.8252
X4.311Y-3.9252
X4.3427Y-3.1299
X4.411Y-3.7252
X4.411Y-3.8252
X4.411Y-3.9252
X4.511Y-3.7252
X4.511Y-3.8252
X4.511Y-3.9252
X4.611Y-3.7252
X4.611Y-3.8252
X4.611Y-3.9252
X4.711Y-3.7252
X4.711Y-3.8252
X4.711Y-3.9252
X4.811Y-3.7252
X4.811Y-3.8252
X4.811Y-3.9252
X4.911Y-3.7252
X4.911Y-3.8252
X4.911Y-3.9252
X5.011Y-3.7252
X5.011Y-3.8252
X5.011Y-3.9252
X5.111Y-3.7252
X5.111Y-3.8252
X5.111Y-3.9252
X5.211Y-3.7252
X5.211Y-3.8252
X5.211Y-3.9252
X5.311Y-3.7252
X5.311Y-3.8252
X5.311Y-3.9252
X5.374Y-3.1299
X5.411Y-3.7252
X5.411Y-3.8252
X5.411Y-3.9252
X5.474Y-3.1299
X5.511Y-3.7252
X5.511Y-3.8252
X5.511Y-3.9252
X5.574Y-3.1299
X5.611Y-3.7252
X5.611Y-3.8252
X5.611Y-3.9252
T4
X4.0984Y-4.7165
X4.2953Y-4.7165
X4.4921Y-4.7165
X4.689Y-4.7165
X5.0433Y-4.7165
X5.1535Y-2.185
X5.2402Y-4.7165
X5.3504Y-2.185
X5.437Y-4.7165
X5.6339Y-4.7165
M30
