%TF.GenerationSoftware,KiCad,Pcbnew,8.0.1*%
%TF.CreationDate,2024-04-15T16:31:13+02:00*%
%TF.ProjectId,ultimate_motor_board,756c7469-6d61-4746-955f-6d6f746f725f,0.1*%
%TF.SameCoordinates,Original*%
%TF.FileFunction,Soldermask,Top*%
%TF.FilePolarity,Negative*%
%FSLAX46Y46*%
G04 Gerber Fmt 4.6, Leading zero omitted, Abs format (unit mm)*
G04 Created by KiCad (PCBNEW 8.0.1) date 2024-04-15 16:31:13*
%MOMM*%
%LPD*%
G01*
G04 APERTURE LIST*
G04 Aperture macros list*
%AMRoundRect*
0 Rectangle with rounded corners*
0 $1 Rounding radius*
0 $2 $3 $4 $5 $6 $7 $8 $9 X,Y pos of 4 corners*
0 Add a 4 corners polygon primitive as box body*
4,1,4,$2,$3,$4,$5,$6,$7,$8,$9,$2,$3,0*
0 Add four circle primitives for the rounded corners*
1,1,$1+$1,$2,$3*
1,1,$1+$1,$4,$5*
1,1,$1+$1,$6,$7*
1,1,$1+$1,$8,$9*
0 Add four rect primitives between the rounded corners*
20,1,$1+$1,$2,$3,$4,$5,0*
20,1,$1+$1,$4,$5,$6,$7,0*
20,1,$1+$1,$6,$7,$8,$9,0*
20,1,$1+$1,$8,$9,$2,$3,0*%
%AMFreePoly0*
4,1,6,1.000000,0.000000,0.500000,-0.750000,-0.500000,-0.750000,-0.500000,0.750000,0.500000,0.750000,1.000000,0.000000,1.000000,0.000000,$1*%
%AMFreePoly1*
4,1,6,0.500000,-0.750000,-0.650000,-0.750000,-0.150000,0.000000,-0.650000,0.750000,0.500000,0.750000,0.500000,-0.750000,0.500000,-0.750000,$1*%
G04 Aperture macros list end*
%ADD10RoundRect,0.250000X-0.450000X0.325000X-0.450000X-0.325000X0.450000X-0.325000X0.450000X0.325000X0*%
%ADD11RoundRect,0.250000X0.450000X-0.350000X0.450000X0.350000X-0.450000X0.350000X-0.450000X-0.350000X0*%
%ADD12R,1.524000X1.524000*%
%ADD13C,1.524000*%
%ADD14R,0.450000X1.750000*%
%ADD15RoundRect,0.250000X-0.350000X-0.450000X0.350000X-0.450000X0.350000X0.450000X-0.350000X0.450000X0*%
%ADD16R,0.500000X0.650000*%
%ADD17R,4.600000X4.120000*%
%ADD18R,0.500000X0.550000*%
%ADD19RoundRect,0.250000X-0.325000X-0.450000X0.325000X-0.450000X0.325000X0.450000X-0.325000X0.450000X0*%
%ADD20C,3.200000*%
%ADD21FreePoly0,0.000000*%
%ADD22FreePoly1,0.000000*%
%ADD23RoundRect,0.250000X0.325000X0.450000X-0.325000X0.450000X-0.325000X-0.450000X0.325000X-0.450000X0*%
%ADD24RoundRect,0.250000X-0.550000X1.500000X-0.550000X-1.500000X0.550000X-1.500000X0.550000X1.500000X0*%
%ADD25C,2.000000*%
%ADD26R,1.700000X1.700000*%
%ADD27O,1.700000X1.700000*%
%ADD28RoundRect,0.100000X-0.637500X-0.100000X0.637500X-0.100000X0.637500X0.100000X-0.637500X0.100000X0*%
%ADD29RoundRect,0.250000X0.350000X0.450000X-0.350000X0.450000X-0.350000X-0.450000X0.350000X-0.450000X0*%
%ADD30RoundRect,0.150000X0.150000X0.625000X-0.150000X0.625000X-0.150000X-0.625000X0.150000X-0.625000X0*%
%ADD31RoundRect,0.250000X0.350000X0.650000X-0.350000X0.650000X-0.350000X-0.650000X0.350000X-0.650000X0*%
%ADD32R,2.600000X2.600000*%
%ADD33C,2.600000*%
%ADD34RoundRect,0.250000X0.337500X0.475000X-0.337500X0.475000X-0.337500X-0.475000X0.337500X-0.475000X0*%
G04 APERTURE END LIST*
D10*
%TO.C,D14*%
X132299682Y-89950000D03*
X132299682Y-92000000D03*
%TD*%
D11*
%TO.C,R20*%
X129750000Y-87200000D03*
X129750000Y-85200000D03*
%TD*%
%TO.C,R23*%
X137325000Y-87200000D03*
X137325000Y-85200000D03*
%TD*%
D12*
%TO.C,J1*%
X111100000Y-53300000D03*
D13*
X113100000Y-53300000D03*
X115100000Y-53300000D03*
X117100000Y-53300000D03*
%TD*%
D10*
%TO.C,D4*%
X107009062Y-89950000D03*
X107009062Y-92000000D03*
%TD*%
D11*
%TO.C,R12*%
X109550000Y-87200000D03*
X109550000Y-85200000D03*
%TD*%
%TO.C,R18*%
X124700000Y-87200000D03*
X124700000Y-85200000D03*
%TD*%
D10*
%TO.C,D15*%
X134828744Y-89950000D03*
X134828744Y-92000000D03*
%TD*%
%TO.C,D6*%
X112067186Y-89950000D03*
X112067186Y-92000000D03*
%TD*%
D14*
%TO.C,U2*%
X108200000Y-111620000D03*
X108850000Y-111620000D03*
X109500000Y-111620000D03*
X110150000Y-111620000D03*
X110800000Y-111620000D03*
X111450000Y-111620000D03*
X112100000Y-111620000D03*
X112750000Y-111620000D03*
X113400000Y-111620000D03*
X114050000Y-111620000D03*
X114700000Y-111620000D03*
X115350000Y-111620000D03*
X115350000Y-104420000D03*
X114700000Y-104420000D03*
X114050000Y-104420000D03*
X113400000Y-104420000D03*
X112750000Y-104420000D03*
X112100000Y-104420000D03*
X111450000Y-104420000D03*
X110800000Y-104420000D03*
X110150000Y-104420000D03*
X109500000Y-104420000D03*
X108850000Y-104420000D03*
X108200000Y-104420000D03*
%TD*%
D11*
%TO.C,R13*%
X112075000Y-87200000D03*
X112075000Y-85200000D03*
%TD*%
D15*
%TO.C,R3*%
X108400000Y-66100000D03*
X110400000Y-66100000D03*
%TD*%
D16*
%TO.C,Q1*%
X141145000Y-64730000D03*
X142415000Y-64730000D03*
X143685000Y-64730000D03*
X144955000Y-64730000D03*
D17*
X143050000Y-61515000D03*
D18*
X141145000Y-59180000D03*
X142415000Y-59180000D03*
X143685000Y-59180000D03*
X144955000Y-59180000D03*
%TD*%
D19*
%TO.C,D2*%
X124475000Y-59800000D03*
X126525000Y-59800000D03*
%TD*%
D11*
%TO.C,R21*%
X132275000Y-87200000D03*
X132275000Y-85200000D03*
%TD*%
%TO.C,R19*%
X127225000Y-87200000D03*
X127225000Y-85200000D03*
%TD*%
%TO.C,R22*%
X134800000Y-87200000D03*
X134800000Y-85200000D03*
%TD*%
D20*
%TO.C,H1*%
X143500000Y-53500000D03*
%TD*%
D10*
%TO.C,D5*%
X109538124Y-89950000D03*
X109538124Y-92000000D03*
%TD*%
D21*
%TO.C,JP5*%
X104475000Y-73700000D03*
D22*
X105925000Y-73700000D03*
%TD*%
D21*
%TO.C,JP3*%
X104475000Y-68620000D03*
D22*
X105925000Y-68620000D03*
%TD*%
D11*
%TO.C,R16*%
X119650000Y-87200000D03*
X119650000Y-85200000D03*
%TD*%
D10*
%TO.C,D10*%
X122183434Y-89950000D03*
X122183434Y-92000000D03*
%TD*%
%TO.C,D18*%
X142415930Y-89950000D03*
X142415930Y-92000000D03*
%TD*%
D11*
%TO.C,R11*%
X107025000Y-87200000D03*
X107025000Y-85200000D03*
%TD*%
%TO.C,R15*%
X117125000Y-87200000D03*
X117125000Y-85200000D03*
%TD*%
D10*
%TO.C,D11*%
X124712496Y-89950000D03*
X124712496Y-92000000D03*
%TD*%
D23*
%TO.C,D1*%
X121025000Y-59800000D03*
X118975000Y-59800000D03*
%TD*%
D24*
%TO.C,C1*%
X142400000Y-68800000D03*
X142400000Y-74200000D03*
%TD*%
D25*
%TO.C,TP5*%
X105900000Y-60600000D03*
%TD*%
D11*
%TO.C,R14*%
X114600000Y-87200000D03*
X114600000Y-85200000D03*
%TD*%
D21*
%TO.C,JP2*%
X104475000Y-66080000D03*
D22*
X105925000Y-66080000D03*
%TD*%
D26*
%TO.C,J2*%
X136500000Y-79500000D03*
D27*
X139040000Y-79500000D03*
X141580000Y-79500000D03*
%TD*%
D25*
%TO.C,TP3*%
X130900000Y-63000000D03*
%TD*%
D10*
%TO.C,D7*%
X114596248Y-89950000D03*
X114596248Y-92000000D03*
%TD*%
D21*
%TO.C,JP1*%
X104475000Y-63540000D03*
D22*
X105925000Y-63540000D03*
%TD*%
D11*
%TO.C,R17*%
X122175000Y-87200000D03*
X122175000Y-85200000D03*
%TD*%
D28*
%TO.C,U1*%
X120637500Y-71500000D03*
X120637500Y-72150000D03*
X120637500Y-72800000D03*
X120637500Y-73450000D03*
X120637500Y-74100000D03*
X120637500Y-74750000D03*
X120637500Y-75400000D03*
X120637500Y-76050000D03*
X120637500Y-76700000D03*
X120637500Y-77350000D03*
X120637500Y-78000000D03*
X120637500Y-78650000D03*
X120637500Y-79300000D03*
X120637500Y-79950000D03*
X126362500Y-79950000D03*
X126362500Y-79300000D03*
X126362500Y-78650000D03*
X126362500Y-78000000D03*
X126362500Y-77350000D03*
X126362500Y-76700000D03*
X126362500Y-76050000D03*
X126362500Y-75400000D03*
X126362500Y-74750000D03*
X126362500Y-74100000D03*
X126362500Y-73450000D03*
X126362500Y-72800000D03*
X126362500Y-72150000D03*
X126362500Y-71500000D03*
%TD*%
D10*
%TO.C,D8*%
X117125310Y-89950000D03*
X117125310Y-92000000D03*
%TD*%
D25*
%TO.C,TP2*%
X114700000Y-60600000D03*
%TD*%
D10*
%TO.C,D13*%
X129770620Y-89950000D03*
X129770620Y-92000000D03*
%TD*%
D15*
%TO.C,R6*%
X108400000Y-71180000D03*
X110400000Y-71180000D03*
%TD*%
D26*
%TO.C,J8*%
X104420000Y-97160000D03*
D27*
X106960000Y-97160000D03*
X109500000Y-97160000D03*
X112040000Y-97160000D03*
X114580000Y-97160000D03*
X117120000Y-97160000D03*
X119660000Y-97160000D03*
X122200000Y-97160000D03*
X124740000Y-97160000D03*
X127280000Y-97160000D03*
X129820000Y-97160000D03*
X132360000Y-97160000D03*
X134900000Y-97160000D03*
X137440000Y-97160000D03*
X139980000Y-97160000D03*
X142520000Y-97160000D03*
%TD*%
D15*
%TO.C,R1*%
X108400000Y-63560000D03*
X110400000Y-63560000D03*
%TD*%
D21*
%TO.C,JP4*%
X104475000Y-71160000D03*
D22*
X105925000Y-71160000D03*
%TD*%
D29*
%TO.C,R4*%
X116962500Y-66027500D03*
X114962500Y-66027500D03*
%TD*%
D25*
%TO.C,TP1*%
X136200000Y-63000000D03*
%TD*%
D30*
%TO.C,J10*%
X125200000Y-55300000D03*
X124200000Y-55300000D03*
X123200000Y-55300000D03*
X122200000Y-55300000D03*
D31*
X126500000Y-51425000D03*
X120900000Y-51425000D03*
%TD*%
D32*
%TO.C,J4*%
X135900000Y-55500000D03*
D33*
X130900000Y-55500000D03*
%TD*%
D10*
%TO.C,D16*%
X137357806Y-89950000D03*
X137357806Y-92000000D03*
%TD*%
D34*
%TO.C,C4*%
X116900000Y-71202500D03*
X114825000Y-71202500D03*
%TD*%
D25*
%TO.C,TP4*%
X110300000Y-60600000D03*
%TD*%
D29*
%TO.C,R2*%
X116962500Y-63485000D03*
X114962500Y-63485000D03*
%TD*%
%TO.C,R8*%
X121000000Y-62000000D03*
X119000000Y-62000000D03*
%TD*%
D20*
%TO.C,H2*%
X103500000Y-53500000D03*
%TD*%
D15*
%TO.C,R9*%
X124500000Y-62100000D03*
X126500000Y-62100000D03*
%TD*%
D11*
%TO.C,R24*%
X139850000Y-87200000D03*
X139850000Y-85200000D03*
%TD*%
D15*
%TO.C,R5*%
X108400000Y-68640000D03*
X110400000Y-68640000D03*
%TD*%
D14*
%TO.C,U3*%
X131925000Y-111620000D03*
X132575000Y-111620000D03*
X133225000Y-111620000D03*
X133875000Y-111620000D03*
X134525000Y-111620000D03*
X135175000Y-111620000D03*
X135825000Y-111620000D03*
X136475000Y-111620000D03*
X137125000Y-111620000D03*
X137775000Y-111620000D03*
X138425000Y-111620000D03*
X139075000Y-111620000D03*
X139075000Y-104420000D03*
X138425000Y-104420000D03*
X137775000Y-104420000D03*
X137125000Y-104420000D03*
X136475000Y-104420000D03*
X135825000Y-104420000D03*
X135175000Y-104420000D03*
X134525000Y-104420000D03*
X133875000Y-104420000D03*
X133225000Y-104420000D03*
X132575000Y-104420000D03*
X131925000Y-104420000D03*
%TD*%
D11*
%TO.C,R10*%
X104500000Y-87200000D03*
X104500000Y-85200000D03*
%TD*%
D10*
%TO.C,D3*%
X104480000Y-89950000D03*
X104480000Y-92000000D03*
%TD*%
D32*
%TO.C,J6*%
X128100000Y-119800000D03*
D33*
X133100000Y-119800000D03*
X138100000Y-119800000D03*
X143100000Y-119800000D03*
%TD*%
D10*
%TO.C,D17*%
X139886868Y-89950000D03*
X139886868Y-92000000D03*
%TD*%
D32*
%TO.C,J5*%
X104100000Y-119800000D03*
D33*
X109100000Y-119800000D03*
X114100000Y-119800000D03*
X119100000Y-119800000D03*
%TD*%
D20*
%TO.C,H4*%
X103500000Y-108500000D03*
%TD*%
D26*
%TO.C,J3*%
X105225000Y-79500000D03*
D27*
X107765000Y-79500000D03*
X110305000Y-79500000D03*
%TD*%
D10*
%TO.C,D9*%
X119654372Y-89950000D03*
X119654372Y-92000000D03*
%TD*%
D24*
%TO.C,C2*%
X133500000Y-68900000D03*
X133500000Y-74300000D03*
%TD*%
D26*
%TO.C,J9*%
X104420000Y-99700000D03*
D27*
X106960000Y-99700000D03*
X109500000Y-99700000D03*
X112040000Y-99700000D03*
X114580000Y-99700000D03*
X117120000Y-99700000D03*
X119660000Y-99700000D03*
X122200000Y-99700000D03*
X124740000Y-99700000D03*
X127280000Y-99700000D03*
X129820000Y-99700000D03*
X132360000Y-99700000D03*
X134900000Y-99700000D03*
X137440000Y-99700000D03*
X139980000Y-99700000D03*
X142520000Y-99700000D03*
%TD*%
D34*
%TO.C,C3*%
X116900000Y-73805000D03*
X114825000Y-73805000D03*
%TD*%
%TO.C,C5*%
X116900000Y-68600000D03*
X114825000Y-68600000D03*
%TD*%
D26*
%TO.C,J7*%
X104420000Y-94620000D03*
D27*
X106960000Y-94620000D03*
X109500000Y-94620000D03*
X112040000Y-94620000D03*
X114580000Y-94620000D03*
X117120000Y-94620000D03*
X119660000Y-94620000D03*
X122200000Y-94620000D03*
X124740000Y-94620000D03*
X127280000Y-94620000D03*
X129820000Y-94620000D03*
X132360000Y-94620000D03*
X134900000Y-94620000D03*
X137440000Y-94620000D03*
X139980000Y-94620000D03*
X142520000Y-94620000D03*
%TD*%
D10*
%TO.C,D12*%
X127241558Y-89950000D03*
X127241558Y-92000000D03*
%TD*%
D11*
%TO.C,R25*%
X142375000Y-87200000D03*
X142375000Y-85200000D03*
%TD*%
D15*
%TO.C,R7*%
X108400000Y-73720000D03*
X110400000Y-73720000D03*
%TD*%
D20*
%TO.C,H3*%
X143500000Y-108500000D03*
%TD*%
M02*
