M48
;GenerationSoftware,Autodesk,EAGLE,9.6.2*%
;CreationDate,2022-09-29T13:43:38Z*%
FMAT,2
ICI,OFF
METRIC,TZ,000.000
T3C0.350
T2C1.016
T1C2.750
%
G90
M71
T1
X2500Y17500
X17500Y17500
T2
X17780Y8763
X17780Y11303
T3
X11250Y8000
X7750Y15500
X9250Y8000
X11000Y4250
X12491Y9250
X7717Y16737
X7250Y7250
X6750Y14500
X11250Y14250
X12250Y16000
X11500Y12250
X13000Y5750
X14500Y2750
X6250Y16500
X14750Y16250
X6250Y4250
X9750Y4250
X14000Y7750
X10000Y12250
X15250Y13250
M30