<?xml version="1.0" encoding="UTF-8"?>
<svg id="Layer_2" data-name="Layer 2" xmlns="http://www.w3.org/2000/svg" viewBox="0 0 129.92 166.85">
  <defs>
    <style>
      .cls-1 {
        letter-spacing: -.04em;
      }

      .cls-2 {
        letter-spacing: -.02em;
      }

      .cls-3 {
        font-size: 5px;
      }

      .cls-3, .cls-4, .cls-5 {
        fill: #000;
        font-family: Helvetica-Bold, Helvetica;
        font-weight: 700;
      }

      .cls-4 {
        font-size: 3px;
      }

      .cls-5 {
        font-size: 4px;
      }

      .cls-6 {
        letter-spacing: -.05em;
      }

      .cls-7 {
        fill: none;
        stroke: #000;
        stroke-miterlimit: 10;
        stroke-width: .5px;
      }
    </style>
  </defs>
  <g id="Layer_3" data-name="Layer 3">
    <text class="cls-5" transform="translate(51.42 4.02)"><tspan x="0" y="0">VCC</tspan></text>
    <text class="cls-5" transform="translate(66.7 3.44)"><tspan x="0" y="0">V+</tspan></text>
    <text class="cls-3" transform="translate(9.62 4.87)"><tspan x="0" y="0">SC</tspan><tspan class="cls-2" x="6.95" y="0">L</tspan></text>
    <text class="cls-3" transform="translate(22.73 4.96)"><tspan x="0" y="0">SD</tspan><tspan class="cls-1" x="6.95" y="0">A</tspan></text>
    <text class="cls-3" transform="translate(35.11 4.96)"><tspan x="0" y="0">VCC</tspan></text>
    <text class="cls-3" transform="translate(79.77 11.8)"><tspan x="0" y="0">GND</tspan></text>
    <text class="cls-3" transform="translate(97.48 11.8)"><tspan x="0" y="0">V+</tspan></text>
    <text class="cls-4" transform="translate(5.1 49.3) rotate(-90)"><tspan x="0" y="0">A4</tspan></text>
    <text class="cls-5" transform="translate(11.71 75.34) rotate(-90)"><tspan x="0" y="0">2</tspan></text>
    <text class="cls-5" transform="translate(18.9 75.34) rotate(-90)"><tspan x="0" y="0">3</tspan></text>
    <text class="cls-5" transform="translate(26.09 75.34) rotate(-90)"><tspan x="0" y="0">4</tspan></text>
    <text class="cls-5" transform="translate(33.28 75.34) rotate(-90)"><tspan x="0" y="0">5</tspan></text>
    <text class="cls-5" transform="translate(40.47 75.34) rotate(-90)"><tspan x="0" y="0">6</tspan></text>
    <text class="cls-5" transform="translate(47.66 75.34) rotate(-90)"><tspan x="0" y="0">7</tspan></text>
    <text class="cls-5" transform="translate(54.85 75.34) rotate(-90)"><tspan x="0" y="0">8</tspan></text>
    <text class="cls-5" transform="translate(62.04 75.34) rotate(-90)"><tspan x="0" y="0">9</tspan></text>
    <text class="cls-5" transform="translate(69.22 76.45) rotate(-90)"><tspan x="0" y="0">10</tspan></text>
    <text class="cls-5" transform="translate(76.41 76.34) rotate(-90)"><tspan class="cls-6" x="0" y="0">1</tspan><tspan x="2.01" y="0">1</tspan></text>
    <text class="cls-5" transform="translate(83.6 76.45) rotate(-90)"><tspan x="0" y="0">12</tspan></text>
    <text class="cls-5" transform="translate(90.79 76.45) rotate(-90)"><tspan x="0" y="0">13</tspan></text>
    <text class="cls-5" transform="translate(97.98 76.45) rotate(-90)"><tspan x="0" y="0">14</tspan></text>
    <text class="cls-5" transform="translate(105.17 76.45) rotate(-90)"><tspan x="0" y="0">15</tspan></text>
    <text class="cls-5" transform="translate(112.36 75.34) rotate(-90)"><tspan x="0" y="0">0</tspan></text>
    <text class="cls-5" transform="translate(119.54 75.34) rotate(-90)"><tspan x="0" y="0">1</tspan></text>
    <text class="cls-4" transform="translate(5.1 42.41) rotate(-90)"><tspan x="0" y="0">A3</tspan></text>
    <text class="cls-4" transform="translate(5.1 35.16) rotate(-90)"><tspan x="0" y="0">A0</tspan></text>
    <text class="cls-4" transform="translate(5.1 27.7) rotate(-90)"><tspan x="0" y="0">A1</tspan></text>
    <text class="cls-4" transform="translate(5.1 20.5) rotate(-90)"><tspan x="0" y="0">A2</tspan></text>
    <text class="cls-3" transform="translate(6.23 164.32)"><tspan x="0" y="0">M1-</tspan></text>
    <text class="cls-3" transform="translate(18.87 164.32)"><tspan x="0" y="0">M1+</tspan></text>
    <text class="cls-3" transform="translate(34.92 164.35)"><tspan x="0" y="0">M2-</tspan></text>
    <text class="cls-3" transform="translate(48.47 164.45)"><tspan x="0" y="0">M2+</tspan></text>
    <text class="cls-3" transform="translate(74.61 164.45)"><tspan x="0" y="0">M3-</tspan></text>
    <text class="cls-3" transform="translate(88.15 164.12)"><tspan x="0" y="0">M3+</tspan></text>
    <text class="cls-3" transform="translate(101.98 164.11)"><tspan x="0" y="0">M4-</tspan></text>
    <text class="cls-3" transform="translate(116.5 164.45)"><tspan x="0" y="0">M4+</tspan></text>
    <text class="cls-3" transform="translate(.36 58.66)"><tspan x="0" y="0">SE</tspan><tspan class="cls-2" x="6.67" y="0">R</tspan><tspan x="10.19" y="0">VO | MO</tspan><tspan class="cls-2" x="29.65" y="0">T</tspan><tspan x="32.61" y="0">OR</tspan></text>
    <text class="cls-3" transform="translate(89.45 58.64)"><tspan x="0" y="0">SE</tspan><tspan class="cls-2" x="6.67" y="0">R</tspan><tspan x="10.19" y="0">VO | MO</tspan><tspan class="cls-2" x="29.65" y="0">T</tspan><tspan x="32.61" y="0">OR</tspan></text>
    <rect class="cls-7" x="5.79" y="68.9" width="43.48" height="57.05"/>
    <rect class="cls-7" x="50.79" y="68.92" width="42.19" height="57.02"/>
    <line class="cls-7" x1="92.92" y1="68.94" x2="93.01" y2="59.68"/>
    <line class="cls-7" x1="5.78" y1="69.09" x2="5.87" y2="59.83"/>
    <line class="cls-7" x1="84.5" y1="152.52" x2="84.76" y2="125.94"/>
    <line class="cls-7" x1="17.72" y1="152.22" x2="17.98" y2="125.64"/>
  </g>
</svg>