<?xml version="1.0" encoding="UTF-8"?>
<svg id="Layer_2" data-name="Layer 2" xmlns="http://www.w3.org/2000/svg" viewBox="0 0 133.51 212.88">
  <defs>
    <style>
      .cls-1 {
        letter-spacing: -.04em;
      }

      .cls-2 {
        letter-spacing: -.02em;
      }

      .cls-3 {
        font-size: 5px;
      }

      .cls-3, .cls-4, .cls-5 {
        fill: #000;
        font-family: Helvetica-Bold, Helvetica;
        font-weight: 700;
      }

      .cls-4 {
        font-size: 3px;
      }

      .cls-5 {
        font-size: 4px;
      }

      .cls-6 {
        letter-spacing: -.05em;
      }

      .cls-7 {
        stroke-miterlimit: 10;
        stroke-width: .5px;
      }

      .cls-7, .cls-8 {
        fill: none;
        stroke: #000;
      }

      .cls-8 {
        stroke-linecap: round;
        stroke-linejoin: round;
        stroke-width: .28px;
      }
    </style>
  </defs>
  <g id="outline">
    <path class="cls-8" d="M.14.14h133.23v212.6H.14V.14Z"/>
  </g>
  <g id="Layer_3" data-name="Layer 3">
    <text class="cls-5" transform="translate(53.56 24.26)"><tspan x="0" y="0">VCC</tspan></text>
    <text class="cls-5" transform="translate(68.84 23.67)"><tspan x="0" y="0">V+</tspan></text>
    <text class="cls-3" transform="translate(11.76 25.1)"><tspan x="0" y="0">SC</tspan><tspan class="cls-2" x="6.95" y="0">L</tspan></text>
    <text class="cls-3" transform="translate(24.87 25.19)"><tspan x="0" y="0">SD</tspan><tspan class="cls-1" x="6.95" y="0">A</tspan></text>
    <text class="cls-3" transform="translate(37.25 25.19)"><tspan x="0" y="0">VCC</tspan></text>
    <text class="cls-3" transform="translate(81.9 32.03)"><tspan x="0" y="0">GND</tspan></text>
    <text class="cls-3" transform="translate(99.62 32.03)"><tspan x="0" y="0">V+</tspan></text>
    <text class="cls-4" transform="translate(7.24 69.53) rotate(-90)"><tspan x="0" y="0">A4</tspan></text>
    <text class="cls-5" transform="translate(13.85 95.58) rotate(-90)"><tspan x="0" y="0">2</tspan></text>
    <text class="cls-5" transform="translate(21.04 95.58) rotate(-90)"><tspan x="0" y="0">3</tspan></text>
    <text class="cls-5" transform="translate(28.23 95.58) rotate(-90)"><tspan x="0" y="0">4</tspan></text>
    <text class="cls-5" transform="translate(35.42 95.58) rotate(-90)"><tspan x="0" y="0">5</tspan></text>
    <text class="cls-5" transform="translate(42.61 95.58) rotate(-90)"><tspan x="0" y="0">6</tspan></text>
    <text class="cls-5" transform="translate(49.8 95.58) rotate(-90)"><tspan x="0" y="0">7</tspan></text>
    <text class="cls-5" transform="translate(56.98 95.58) rotate(-90)"><tspan x="0" y="0">8</tspan></text>
    <text class="cls-5" transform="translate(64.17 95.58) rotate(-90)"><tspan x="0" y="0">9</tspan></text>
    <text class="cls-5" transform="translate(71.36 96.69) rotate(-90)"><tspan x="0" y="0">10</tspan></text>
    <text class="cls-5" transform="translate(78.55 96.58) rotate(-90)"><tspan class="cls-6" x="0" y="0">1</tspan><tspan x="2.01" y="0">1</tspan></text>
    <text class="cls-5" transform="translate(85.74 96.69) rotate(-90)"><tspan x="0" y="0">12</tspan></text>
    <text class="cls-5" transform="translate(92.93 96.69) rotate(-90)"><tspan x="0" y="0">13</tspan></text>
    <text class="cls-5" transform="translate(100.12 96.69) rotate(-90)"><tspan x="0" y="0">14</tspan></text>
    <text class="cls-5" transform="translate(107.31 96.69) rotate(-90)"><tspan x="0" y="0">15</tspan></text>
    <text class="cls-5" transform="translate(114.49 95.58) rotate(-90)"><tspan x="0" y="0">0</tspan></text>
    <text class="cls-5" transform="translate(121.68 95.58) rotate(-90)"><tspan x="0" y="0">1</tspan></text>
    <text class="cls-4" transform="translate(7.24 62.64) rotate(-90)"><tspan x="0" y="0">A3</tspan></text>
    <text class="cls-4" transform="translate(7.24 55.4) rotate(-90)"><tspan x="0" y="0">A0</tspan></text>
    <text class="cls-4" transform="translate(7.24 47.93) rotate(-90)"><tspan x="0" y="0">A1</tspan></text>
    <text class="cls-4" transform="translate(7.24 40.73) rotate(-90)"><tspan x="0" y="0">A2</tspan></text>
    <text class="cls-3" transform="translate(8.37 184.55)"><tspan x="0" y="0">M1-</tspan></text>
    <text class="cls-3" transform="translate(21 184.55)"><tspan x="0" y="0">M1+</tspan></text>
    <text class="cls-3" transform="translate(37.06 184.59)"><tspan x="0" y="0">M2-</tspan></text>
    <text class="cls-3" transform="translate(50.6 184.68)"><tspan x="0" y="0">M2+</tspan></text>
    <text class="cls-3" transform="translate(76.74 184.68)"><tspan x="0" y="0">M3-</tspan></text>
    <text class="cls-3" transform="translate(90.29 184.36)"><tspan x="0" y="0">M3+</tspan></text>
    <text class="cls-3" transform="translate(104.12 184.35)"><tspan x="0" y="0">M4-</tspan></text>
    <text class="cls-3" transform="translate(118.64 184.68)"><tspan x="0" y="0">M4+</tspan></text>
    <text class="cls-3" transform="translate(2.5 78.9)"><tspan x="0" y="0">SE</tspan><tspan class="cls-2" x="6.67" y="0">R</tspan><tspan x="10.19" y="0">VO | MO</tspan><tspan class="cls-2" x="29.65" y="0">T</tspan><tspan x="32.61" y="0">OR</tspan></text>
    <text class="cls-3" transform="translate(91.58 78.88)"><tspan x="0" y="0">SE</tspan><tspan class="cls-2" x="6.67" y="0">R</tspan><tspan x="10.19" y="0">VO | MO</tspan><tspan class="cls-2" x="29.65" y="0">T</tspan><tspan x="32.61" y="0">OR</tspan></text>
    <rect class="cls-7" x="7.93" y="89.14" width="43.48" height="57.05"/>
    <rect class="cls-7" x="52.92" y="89.15" width="42.19" height="57.02"/>
    <line class="cls-7" x1="95.06" y1="89.18" x2="95.15" y2="79.91"/>
    <line class="cls-7" x1="7.91" y1="89.33" x2="8" y2="80.06"/>
    <line class="cls-7" x1="86.64" y1="172.76" x2="86.9" y2="146.17"/>
    <line class="cls-7" x1="19.85" y1="172.46" x2="20.11" y2="145.87"/>
  </g>
</svg>