%TF.GenerationSoftware,KiCad,Pcbnew,8.0.3*%
%TF.CreationDate,2024-08-07T13:20:04+02:00*%
%TF.ProjectId,motor_board,6d6f746f-725f-4626-9f61-72642e6b6963,0.1*%
%TF.SameCoordinates,Original*%
%TF.FileFunction,Other,User*%
%FSLAX46Y46*%
G04 Gerber Fmt 4.6, Leading zero omitted, Abs format (unit mm)*
G04 Created by KiCad (PCBNEW 8.0.3) date 2024-08-07 13:20:04*
%MOMM*%
%LPD*%
G01*
G04 APERTURE LIST*
%ADD10C,0.050000*%
G04 APERTURE END LIST*
D10*
%TO.C,R24*%
X148067194Y-73250000D02*
X149967194Y-73250000D01*
X148067194Y-76950000D02*
X148067194Y-73250000D01*
X149967194Y-73250000D02*
X149967194Y-76950000D01*
X149967194Y-76950000D02*
X148067194Y-76950000D01*
%TO.C,D14*%
X114883340Y-82150000D02*
X116783340Y-82150000D01*
X114883340Y-85850000D02*
X114883340Y-82150000D01*
X116783340Y-82150000D02*
X116783340Y-85850000D01*
X116783340Y-85850000D02*
X114883340Y-85850000D01*
%TO.C,R25*%
X145511048Y-73250000D02*
X147411048Y-73250000D01*
X145511048Y-76950000D02*
X145511048Y-73250000D01*
X147411048Y-73250000D02*
X147411048Y-76950000D01*
X147411048Y-76950000D02*
X145511048Y-76950000D01*
%TO.C,D4*%
X140350000Y-82150000D02*
X142250000Y-82150000D01*
X140350000Y-85850000D02*
X140350000Y-82150000D01*
X142250000Y-82150000D02*
X142250000Y-85850000D01*
X142250000Y-85850000D02*
X140350000Y-85850000D01*
%TO.C,R22*%
X112281150Y-73250000D02*
X114181150Y-73250000D01*
X112281150Y-76950000D02*
X112281150Y-73250000D01*
X114181150Y-73250000D02*
X114181150Y-76950000D01*
X114181150Y-76950000D02*
X112281150Y-76950000D01*
%TO.C,D15*%
X112336674Y-82150000D02*
X114236674Y-82150000D01*
X112336674Y-85850000D02*
X112336674Y-82150000D01*
X114236674Y-82150000D02*
X114236674Y-85850000D01*
X114236674Y-85850000D02*
X112336674Y-85850000D01*
%TO.C,D6*%
X135256668Y-82150000D02*
X137156668Y-82150000D01*
X135256668Y-85850000D02*
X135256668Y-82150000D01*
X137156668Y-82150000D02*
X137156668Y-85850000D01*
X137156668Y-85850000D02*
X135256668Y-85850000D01*
%TO.C,R3*%
X106050000Y-62030000D02*
X109750000Y-62030000D01*
X106050000Y-63930000D02*
X106050000Y-62030000D01*
X109750000Y-62030000D02*
X109750000Y-63930000D01*
X109750000Y-63930000D02*
X106050000Y-63930000D01*
%TO.C,D2*%
X146430000Y-65650000D02*
X148330000Y-65650000D01*
X146430000Y-69350000D02*
X146430000Y-65650000D01*
X148330000Y-65650000D02*
X148330000Y-69350000D01*
X148330000Y-69350000D02*
X146430000Y-69350000D01*
%TO.C,H1*%
X159750000Y-55000000D02*
G75*
G02*
X154250000Y-55000000I-2750000J0D01*
G01*
X154250000Y-55000000D02*
G75*
G02*
X159750000Y-55000000I2750000J0D01*
G01*
%TO.C,D5*%
X137803334Y-82150000D02*
X139703334Y-82150000D01*
X137803334Y-85850000D02*
X137803334Y-82150000D01*
X139703334Y-82150000D02*
X139703334Y-85850000D01*
X139703334Y-85850000D02*
X137803334Y-85850000D01*
%TO.C,R13*%
X135286464Y-73250000D02*
X137186464Y-73250000D01*
X135286464Y-76950000D02*
X135286464Y-73250000D01*
X137186464Y-73250000D02*
X137186464Y-76950000D01*
X137186464Y-76950000D02*
X135286464Y-76950000D01*
%TO.C,R14*%
X132730318Y-73250000D02*
X134630318Y-73250000D01*
X132730318Y-76950000D02*
X132730318Y-73250000D01*
X134630318Y-73250000D02*
X134630318Y-76950000D01*
X134630318Y-76950000D02*
X132730318Y-76950000D01*
%TO.C,JP5*%
X102050000Y-69330000D02*
X102050000Y-71830000D01*
X102050000Y-69330000D02*
X105350000Y-69330000D01*
X105350000Y-71830000D02*
X102050000Y-71830000D01*
X105350000Y-71830000D02*
X105350000Y-69330000D01*
%TO.C,JP3*%
X102050000Y-64250000D02*
X102050000Y-66750000D01*
X102050000Y-64250000D02*
X105350000Y-64250000D01*
X105350000Y-66750000D02*
X102050000Y-66750000D01*
X105350000Y-66750000D02*
X105350000Y-64250000D01*
%TO.C,D10*%
X125070004Y-82150000D02*
X126970004Y-82150000D01*
X125070004Y-85850000D02*
X125070004Y-82150000D01*
X126970004Y-82150000D02*
X126970004Y-85850000D01*
X126970004Y-85850000D02*
X125070004Y-85850000D01*
%TO.C,D18*%
X145443332Y-82150000D02*
X147343332Y-82150000D01*
X145443332Y-85850000D02*
X145443332Y-82150000D01*
X147343332Y-82150000D02*
X147343332Y-85850000D01*
X147343332Y-85850000D02*
X145443332Y-85850000D01*
%TO.C,D11*%
X122523338Y-82150000D02*
X124423338Y-82150000D01*
X122523338Y-85850000D02*
X122523338Y-82150000D01*
X124423338Y-82150000D02*
X124423338Y-85850000D01*
X124423338Y-85850000D02*
X122523338Y-85850000D01*
%TO.C,JP2*%
X102050000Y-61710000D02*
X102050000Y-64210000D01*
X102050000Y-61710000D02*
X105350000Y-61710000D01*
X105350000Y-64210000D02*
X102050000Y-64210000D01*
X105350000Y-64210000D02*
X105350000Y-61710000D01*
%TO.C,R12*%
X137842610Y-73250000D02*
X139742610Y-73250000D01*
X137842610Y-76950000D02*
X137842610Y-73250000D01*
X139742610Y-73250000D02*
X139742610Y-76950000D01*
X139742610Y-76950000D02*
X137842610Y-76950000D01*
%TO.C,D7*%
X132710002Y-82150000D02*
X134610002Y-82150000D01*
X132710002Y-85850000D02*
X132710002Y-82150000D01*
X134610002Y-82150000D02*
X134610002Y-85850000D01*
X134610002Y-85850000D02*
X132710002Y-85850000D01*
%TO.C,JP1*%
X102050000Y-59170000D02*
X102050000Y-61670000D01*
X102050000Y-59170000D02*
X105350000Y-59170000D01*
X105350000Y-61670000D02*
X102050000Y-61670000D01*
X105350000Y-61670000D02*
X105350000Y-59170000D01*
%TO.C,D8*%
X130163336Y-82150000D02*
X132063336Y-82150000D01*
X130163336Y-85850000D02*
X130163336Y-82150000D01*
X132063336Y-82150000D02*
X132063336Y-85850000D01*
X132063336Y-85850000D02*
X130163336Y-85850000D01*
%TO.C,D13*%
X117430006Y-82150000D02*
X119330006Y-82150000D01*
X117430006Y-85850000D02*
X117430006Y-82150000D01*
X119330006Y-82150000D02*
X119330006Y-85850000D01*
X119330006Y-85850000D02*
X117430006Y-85850000D01*
%TO.C,R21*%
X114837296Y-73250000D02*
X116737296Y-73250000D01*
X114837296Y-76950000D02*
X114837296Y-73250000D01*
X116737296Y-73250000D02*
X116737296Y-76950000D01*
X116737296Y-76950000D02*
X114837296Y-76950000D01*
%TO.C,R6*%
X106050000Y-67110000D02*
X109750000Y-67110000D01*
X106050000Y-69010000D02*
X106050000Y-67110000D01*
X109750000Y-67110000D02*
X109750000Y-69010000D01*
X109750000Y-69010000D02*
X106050000Y-69010000D01*
%TO.C,J8*%
X109005000Y-90440000D02*
X109005000Y-94040000D01*
X109005000Y-94040000D02*
X150705000Y-94040000D01*
X150705000Y-90440000D02*
X109005000Y-90440000D01*
X150705000Y-94040000D02*
X150705000Y-90440000D01*
%TO.C,R19*%
X119949588Y-73250000D02*
X121849588Y-73250000D01*
X119949588Y-76950000D02*
X119949588Y-73250000D01*
X121849588Y-73250000D02*
X121849588Y-76950000D01*
X121849588Y-76950000D02*
X119949588Y-76950000D01*
%TO.C,R1*%
X106050000Y-59490000D02*
X109750000Y-59490000D01*
X106050000Y-61390000D02*
X106050000Y-59490000D01*
X109750000Y-59490000D02*
X109750000Y-61390000D01*
X109750000Y-61390000D02*
X106050000Y-61390000D01*
%TO.C,JP4*%
X102050000Y-66790000D02*
X102050000Y-69290000D01*
X102050000Y-66790000D02*
X105350000Y-66790000D01*
X105350000Y-69290000D02*
X102050000Y-69290000D01*
X105350000Y-69290000D02*
X105350000Y-66790000D01*
%TO.C,R4*%
X114850000Y-68140000D02*
X118550000Y-68140000D01*
X114850000Y-70040000D02*
X114850000Y-68140000D01*
X118550000Y-68140000D02*
X118550000Y-70040000D01*
X118550000Y-70040000D02*
X114850000Y-70040000D01*
%TO.C,R20*%
X117393442Y-73250000D02*
X119293442Y-73250000D01*
X117393442Y-76950000D02*
X117393442Y-73250000D01*
X119293442Y-73250000D02*
X119293442Y-76950000D01*
X119293442Y-76950000D02*
X117393442Y-76950000D01*
%TO.C,D16*%
X109789998Y-82150000D02*
X111689998Y-82150000D01*
X109789998Y-85850000D02*
X109789998Y-82150000D01*
X111689998Y-82150000D02*
X111689998Y-85850000D01*
X111689998Y-85850000D02*
X109789998Y-85850000D01*
%TO.C,C4*%
X114840000Y-61620000D02*
X118600000Y-61620000D01*
X114840000Y-63580000D02*
X114840000Y-61620000D01*
X118600000Y-61620000D02*
X118600000Y-63580000D01*
X118600000Y-63580000D02*
X114840000Y-63580000D01*
%TO.C,R2*%
X114790000Y-66010000D02*
X118490000Y-66010000D01*
X114790000Y-67910000D02*
X114790000Y-66010000D01*
X118490000Y-66010000D02*
X118490000Y-67910000D01*
X118490000Y-67910000D02*
X114790000Y-67910000D01*
%TO.C,R15*%
X130174172Y-73250000D02*
X132074172Y-73250000D01*
X130174172Y-76950000D02*
X130174172Y-73250000D01*
X132074172Y-73250000D02*
X132074172Y-76950000D01*
X132074172Y-76950000D02*
X130174172Y-76950000D01*
%TO.C,H2*%
X105750000Y-55000000D02*
G75*
G02*
X100250000Y-55000000I-2750000J0D01*
G01*
X100250000Y-55000000D02*
G75*
G02*
X105750000Y-55000000I2750000J0D01*
G01*
%TO.C,R9*%
X144330000Y-65650000D02*
X146230000Y-65650000D01*
X144330000Y-69350000D02*
X144330000Y-65650000D01*
X146230000Y-65650000D02*
X146230000Y-69350000D01*
X146230000Y-69350000D02*
X144330000Y-69350000D01*
%TO.C,R16*%
X127618026Y-73250000D02*
X129518026Y-73250000D01*
X127618026Y-76950000D02*
X127618026Y-73250000D01*
X129518026Y-73250000D02*
X129518026Y-76950000D01*
X129518026Y-76950000D02*
X127618026Y-76950000D01*
%TO.C,R5*%
X106050000Y-64570000D02*
X109750000Y-64570000D01*
X106050000Y-66470000D02*
X106050000Y-64570000D01*
X109750000Y-64570000D02*
X109750000Y-66470000D01*
X109750000Y-66470000D02*
X106050000Y-66470000D01*
%TO.C,D3*%
X142896666Y-82150000D02*
X144796666Y-82150000D01*
X142896666Y-85850000D02*
X142896666Y-82150000D01*
X144796666Y-82150000D02*
X144796666Y-85850000D01*
X144796666Y-85850000D02*
X142896666Y-85850000D01*
%TO.C,D17*%
X147989998Y-82150000D02*
X149889998Y-82150000D01*
X147989998Y-85850000D02*
X147989998Y-82150000D01*
X149889998Y-82150000D02*
X149889998Y-85850000D01*
X149889998Y-85850000D02*
X147989998Y-85850000D01*
%TO.C,H4*%
X105750000Y-120000000D02*
G75*
G02*
X100250000Y-120000000I-2750000J0D01*
G01*
X100250000Y-120000000D02*
G75*
G02*
X105750000Y-120000000I2750000J0D01*
G01*
%TO.C,R10*%
X142954902Y-73250000D02*
X144854902Y-73250000D01*
X142954902Y-76950000D02*
X142954902Y-73250000D01*
X144854902Y-73250000D02*
X144854902Y-76950000D01*
X144854902Y-76950000D02*
X142954902Y-76950000D01*
%TO.C,R18*%
X122505734Y-73250000D02*
X124405734Y-73250000D01*
X122505734Y-76950000D02*
X122505734Y-73250000D01*
X124405734Y-73250000D02*
X124405734Y-76950000D01*
X124405734Y-76950000D02*
X122505734Y-76950000D01*
%TO.C,R23*%
X109725000Y-73250000D02*
X111625000Y-73250000D01*
X109725000Y-76950000D02*
X109725000Y-73250000D01*
X111625000Y-73250000D02*
X111625000Y-76950000D01*
X111625000Y-76950000D02*
X109725000Y-76950000D01*
%TO.C,R17*%
X125061880Y-73250000D02*
X126961880Y-73250000D01*
X125061880Y-76950000D02*
X125061880Y-73250000D01*
X126961880Y-73250000D02*
X126961880Y-76950000D01*
X126961880Y-76950000D02*
X125061880Y-76950000D01*
%TO.C,D9*%
X127616670Y-82150000D02*
X129516670Y-82150000D01*
X127616670Y-85850000D02*
X127616670Y-82150000D01*
X129516670Y-82150000D02*
X129516670Y-85850000D01*
X129516670Y-85850000D02*
X127616670Y-85850000D01*
%TO.C,J9*%
X109005000Y-92980000D02*
X109005000Y-96580000D01*
X109005000Y-96580000D02*
X150705000Y-96580000D01*
X150705000Y-92980000D02*
X109005000Y-92980000D01*
X150705000Y-96580000D02*
X150705000Y-92980000D01*
%TO.C,R11*%
X140398756Y-73250000D02*
X142298756Y-73250000D01*
X140398756Y-76950000D02*
X140398756Y-73250000D01*
X142298756Y-73250000D02*
X142298756Y-76950000D01*
X142298756Y-76950000D02*
X140398756Y-76950000D01*
%TO.C,C3*%
X114820000Y-63815000D02*
X118580000Y-63815000D01*
X114820000Y-65775000D02*
X114820000Y-63815000D01*
X118580000Y-63815000D02*
X118580000Y-65775000D01*
X118580000Y-65775000D02*
X114820000Y-65775000D01*
%TO.C,C5*%
X114840000Y-59510000D02*
X118600000Y-59510000D01*
X114840000Y-61470000D02*
X114840000Y-59510000D01*
X118600000Y-59510000D02*
X118600000Y-61470000D01*
X118600000Y-61470000D02*
X114840000Y-61470000D01*
%TO.C,J7*%
X108980000Y-87880000D02*
X108980000Y-91480000D01*
X108980000Y-91480000D02*
X150680000Y-91480000D01*
X150680000Y-87880000D02*
X108980000Y-87880000D01*
X150680000Y-91480000D02*
X150680000Y-87880000D01*
%TO.C,D12*%
X119976672Y-82150000D02*
X121876672Y-82150000D01*
X119976672Y-85850000D02*
X119976672Y-82150000D01*
X121876672Y-82150000D02*
X121876672Y-85850000D01*
X121876672Y-85850000D02*
X119976672Y-85850000D01*
%TO.C,R7*%
X106050000Y-69650000D02*
X109750000Y-69650000D01*
X106050000Y-71550000D02*
X106050000Y-69650000D01*
X109750000Y-69650000D02*
X109750000Y-71550000D01*
X109750000Y-71550000D02*
X106050000Y-71550000D01*
%TO.C,H3*%
X159750000Y-120000000D02*
G75*
G02*
X154250000Y-120000000I-2750000J0D01*
G01*
X154250000Y-120000000D02*
G75*
G02*
X159750000Y-120000000I2750000J0D01*
G01*
%TD*%
M02*
