M48
; DRILL file {KiCad 8.0.3} date 2024-08-07T13:19:57+0200
; FORMAT={-:-/ absolute / inch / decimal}
; #@! TF.CreationDate,2024-08-07T13:19:57+02:00
; #@! TF.GenerationSoftware,Kicad,Pcbnew,8.0.3
; #@! TF.FileFunction,Plated,1,2,PTH
FMAT,2
INCH
; #@! TA.AperFunction,Plated,PTH,ViaDrill
T1C0.0157
; #@! TA.AperFunction,Plated,PTH,ComponentDrill
T2C0.0300
; #@! TA.AperFunction,Plated,PTH,ComponentDrill
T3C0.0394
; #@! TA.AperFunction,Plated,PTH,ComponentDrill
T4C0.0512
%
G90
G05
T1
X4.1547Y-2.5787
X4.1547Y-2.6787
X4.1563Y-2.7787
X4.161Y-2.4787
X4.1626Y-2.3787
X4.2217Y-4.7236
X4.2236Y-3.8752
X4.226Y-4.1634
X4.3598Y-2.85
X4.4189Y-3.8181
X4.4217Y-2.1205
X4.4654Y-2.852
X4.5657Y-2.8528
X4.6327Y-2.322
X4.6657Y-2.8618
X4.7413Y-2.2531
X4.7622Y-2.8535
X4.7909Y-2.5472
X4.7937Y-2.226
X4.815Y-2.5126
X4.8214Y-4.0058
X4.8217Y-2.1157
X4.8445Y-2.478
X4.861Y-3.8228
X4.8618Y-2.8472
X4.8736Y-2.4441
X4.9039Y-2.413
X4.9417Y-2.3102
X4.9606Y-2.8575
X5.0567Y-2.8543
X5.1248Y-2.2531
X5.1571Y-2.8524
X5.1965Y-2.2516
X5.2591Y-2.8563
X5.3638Y-2.8551
X5.3661Y-4.0496
X5.3996Y-3.828
X5.4299Y-4.0488
X5.4654Y-2.8571
X5.5646Y-2.8571
X5.6677Y-2.8551
X5.7669Y-2.8598
X5.7902Y-3.8252
X5.8543Y-2.8575
X5.9134Y-3.4496
X5.9878Y-4.1445
X6.0043Y-3.885
X6.0075Y-4.7071
T2
X5.0012Y-2.1638
X5.0799Y-2.1638
X5.1587Y-2.1638
X5.2374Y-2.1638
T3
X4.3614Y-3.5307
X4.3624Y-3.6315
X4.3624Y-3.7315
X4.4614Y-3.5307
X4.4624Y-3.6315
X4.4624Y-3.7315
X4.5614Y-3.5307
X4.5624Y-3.6315
X4.5624Y-3.7315
X4.6614Y-3.5307
X4.6624Y-3.6315
X4.6624Y-3.7315
X4.7614Y-3.5307
X4.7624Y-3.6315
X4.7624Y-3.7315
X4.8614Y-3.5307
X4.8624Y-3.6315
X4.8624Y-3.7315
X4.9614Y-3.5307
X4.9624Y-3.6315
X4.9624Y-3.7315
X5.0614Y-3.5307
X5.0624Y-3.6315
X5.0624Y-3.7315
X5.1614Y-3.5307
X5.1624Y-3.6315
X5.1624Y-3.7315
X5.2614Y-3.5307
X5.2624Y-3.6315
X5.2624Y-3.7315
X5.3614Y-3.5307
X5.3624Y-3.6315
X5.3624Y-3.7315
X5.4614Y-3.5307
X5.4624Y-3.6315
X5.4624Y-3.7315
X5.5614Y-3.5307
X5.5624Y-3.6315
X5.5624Y-3.7315
X5.6614Y-3.5307
X5.6624Y-3.6315
X5.6624Y-3.7315
X5.7614Y-3.5307
X5.7624Y-3.6315
X5.7624Y-3.7315
X5.8614Y-3.5307
X5.8624Y-3.6315
X5.8624Y-3.7315
T4
X4.3949Y-4.5677
X4.5917Y-4.5677
X4.7886Y-4.5677
X4.9854Y-4.5677
X5.2508Y-4.5677
X5.4476Y-4.5677
X5.6445Y-4.5677
X5.6547Y-2.2567
X5.8413Y-4.5677
X5.8516Y-2.2567
M30
