<?xml version="1.0" encoding="UTF-8"?><svg id="b" xmlns="http://www.w3.org/2000/svg" width="222.25" height="108.96" viewBox="0 0 222.25 108.96"><defs><style>.d{fill:#b78d47;}.e{fill:#221f20;}.f{fill:none;stroke:#000;stroke-miterlimit:10;stroke-width:.5px;}.g{fill:#da3832;}</style></defs><g id="c"><path class="e" d="M26.14.06c.28,0,.54.03.77.1.23.06.43.16.59.3.17.13.29.3.38.51.09.21.13.45.13.72s-.06.55-.18.78-.31.41-.58.54c.09.14.19.29.29.46.1.17.2.34.3.53.1.18.19.37.28.55.09.18.16.36.23.52h-1.03c-.12-.32-.27-.63-.43-.92-.16-.3-.34-.6-.52-.9h-.51v1.82h-.98V.18c.1-.02.2-.04.32-.06s.23-.03.35-.04c.12,0,.23-.01.34-.02.11,0,.2,0,.28,0ZM27.01,1.67c0-.26-.08-.45-.24-.58-.16-.12-.37-.18-.63-.18-.04,0-.08,0-.14,0-.05,0-.11,0-.16.02v1.49h.22c.34,0,.58-.06.73-.2s.22-.32.22-.56Z"/><path class="e" d="M30.93.86c-.23,0-.43.04-.59.13-.16.08-.29.2-.4.36-.1.15-.18.33-.22.54-.05.21-.07.44-.07.7,0,.59.09,1.03.28,1.31.19.28.46.42.82.42.06,0,.12,0,.19,0,.07,0,.13-.01.19-.02v-1.81h.98v2.47c-.12.04-.3.09-.55.14-.25.05-.55.08-.9.08-.31,0-.59-.05-.84-.16s-.46-.27-.64-.49c-.18-.22-.31-.49-.41-.81-.1-.32-.14-.7-.14-1.12s.06-.79.17-1.12c.11-.32.26-.59.46-.81.19-.22.42-.38.68-.49s.54-.16.84-.16c.19,0,.36.01.52.04s.28.06.4.1.2.08.28.12c.07.04.13.07.16.1l-.26.78c-.12-.08-.26-.14-.43-.2s-.35-.09-.53-.09Z"/><path class="e" d="M36.18,3.57c0,.3-.05.55-.15.75-.1.2-.24.36-.41.48s-.38.21-.62.26c-.24.05-.49.08-.76.08-.22,0-.45-.01-.68-.04-.23-.02-.47-.06-.7-.11V.18c.19-.03.39-.06.62-.08.22-.02.45-.04.66-.04.37,0,.68.04.91.12.23.08.42.18.55.3.13.12.22.26.27.42.05.15.07.31.07.46,0,.23-.06.44-.17.62-.11.18-.27.33-.46.43.34.12.56.29.68.5.12.21.18.43.18.66ZM34.23,2.08c.25,0,.44-.05.57-.16s.19-.26.19-.45c0-.12-.02-.21-.06-.28-.04-.07-.09-.13-.15-.17-.06-.04-.14-.07-.22-.08-.09-.01-.17-.02-.26-.02-.07,0-.15,0-.23,0-.08,0-.15.01-.22.02v1.14h.38ZM33.85,2.9v1.34c.07.01.15.02.23.02.08,0,.16,0,.24,0,.11,0,.22,0,.33-.03.11-.02.2-.05.28-.1s.15-.12.2-.22c.05-.09.08-.21.08-.36,0-.24-.08-.41-.23-.52-.15-.1-.36-.16-.61-.16h-.53Z"/><path class="e" d="M38.8,1.86c.02.1.05.23.1.38.04.15.09.31.14.5s.11.38.17.58c.06.21.12.42.18.64,0-.28,0-.57-.02-.89s-.03-.64-.04-.97c-.01-.33-.03-.67-.04-1-.01-.34-.02-.67-.02-.98h.99c-.02.41-.03.82-.05,1.25s-.03.86-.06,1.28c-.02.42-.05.84-.08,1.25-.03.41-.06.8-.1,1.17h-.82c-.12-.34-.23-.7-.35-1.08-.12-.39-.23-.76-.35-1.11-.12.34-.24.7-.37,1.1-.13.4-.25.76-.35,1.1h-.82c-.04-.37-.08-.76-.11-1.17-.03-.41-.06-.83-.08-1.26-.02-.42-.04-.85-.06-1.28-.02-.43-.03-.84-.04-1.24h.91c0,.31-.01.64-.02.98s-.01.67-.02,1c0,.33-.01.66-.02.98s0,.61,0,.89c.05-.17.1-.36.16-.56.06-.2.12-.4.18-.6.06-.2.11-.38.16-.54.05-.17.08-.3.11-.39h.72Z"/><path class="e" d="M48.11,5.06h-3.11V.11h.99v4.14h2.12v.82Z"/><path class="e" d="M48.93,5.06V.11h3v.82h-2.02v1.11h1.75v.82h-1.75v1.39h2.19v.82h-3.18Z"/><path class="e" d="M56.21,2.58c0,.46-.06.85-.17,1.17-.11.32-.27.59-.48.79-.2.2-.44.35-.72.44-.28.09-.59.14-.92.14-.18,0-.35,0-.52-.03-.17-.02-.35-.05-.54-.09V.18c.22-.05.43-.08.63-.1.2-.02.38-.02.55-.02.33,0,.62.05.89.14.27.1.5.25.68.45s.33.47.44.78.16.7.16,1.15ZM53.85,4.26s.06,0,.09,0h.09c.22,0,.41-.04.56-.13.15-.09.27-.2.37-.35s.16-.33.2-.53c.04-.21.06-.43.06-.68,0-.21-.02-.42-.05-.62-.03-.2-.09-.38-.17-.54-.08-.15-.19-.28-.33-.37-.14-.09-.32-.14-.54-.14-.04,0-.09,0-.14,0-.05,0-.1,0-.14.02v3.33Z"/><path class="e" d="M24.07,7.11v4.95h-.98v-2.18h-1.31v2.18h-.98v-4.95h.98v1.95h1.31v-1.95h.98Z"/><path class="e" d="M24.86,12.06v-.82h1.08v-3.32h-1.08v-.82h3.14v.82h-1.07v3.32h1.07v.82h-3.14Z"/><path class="e" d="M30.93,7.86c-.23,0-.43.04-.59.13-.16.08-.29.2-.4.36-.1.15-.18.33-.22.54-.05.21-.07.44-.07.7,0,.59.09,1.03.28,1.31.19.28.46.42.82.42.06,0,.12,0,.19,0,.07,0,.13-.01.19-.02v-1.81h.98v2.47c-.12.04-.3.09-.55.14-.25.05-.55.08-.9.08-.31,0-.59-.05-.84-.16s-.46-.27-.64-.49c-.18-.22-.31-.49-.41-.81-.1-.32-.14-.7-.14-1.12s.06-.79.17-1.12c.11-.32.26-.59.46-.81.19-.22.42-.38.68-.49s.54-.16.84-.16c.19,0,.36.01.52.04s.28.06.4.1.2.08.28.12c.07.04.13.07.16.1l-.26.78c-.12-.08-.26-.14-.43-.2s-.35-.09-.53-.09Z"/><path class="e" d="M36.07,7.11v4.95h-.98v-2.18h-1.31v2.18h-.98v-4.95h.98v1.95h1.31v-1.95h.98Z"/><path class="e" d="M42.22,7.06c.63,0,1.12.13,1.46.39s.52.68.52,1.27-.17,1.02-.52,1.28-.84.4-1.48.4h-.35v1.67h-.98v-4.89c.1-.02.2-.04.32-.06.12-.02.24-.03.36-.04.12,0,.24-.01.36-.02.12,0,.22,0,.31,0ZM42.33,7.91c-.06,0-.14,0-.24,0-.1,0-.19,0-.24.02v1.6h.4c.31,0,.55-.06.71-.19.16-.13.24-.34.24-.64,0-.29-.08-.49-.24-.61-.16-.12-.37-.18-.63-.18Z"/><path class="e" d="M44.65,9.58c0-.85.16-1.5.47-1.93.31-.43.75-.65,1.31-.65s1.02.22,1.33.65c.3.43.46,1.08.46,1.93s-.15,1.5-.46,1.93c-.31.43-.75.65-1.31.65s-1.03-.22-1.33-.65-.46-1.08-.46-1.93ZM45.65,9.58c0,.24,0,.47.03.68.02.21.06.39.11.55.06.15.13.28.24.37.1.09.24.14.41.14s.3-.05.4-.14c.1-.09.18-.21.24-.37.06-.16.09-.34.11-.55s.03-.43.03-.67,0-.46-.03-.68-.06-.39-.11-.55-.13-.28-.24-.37c-.1-.09-.24-.14-.41-.14s-.31.04-.41.14c-.1.09-.18.21-.24.37s-.09.34-.11.55c-.02.21-.03.43-.03.67Z"/><path class="e" d="M50.8,8.86c.02.1.05.23.1.38.04.15.09.31.14.5s.11.38.17.58c.06.21.12.42.18.64,0-.28,0-.57-.02-.89s-.03-.64-.04-.97c-.01-.33-.03-.67-.04-1-.01-.34-.02-.67-.02-.98h.99c-.02.41-.03.82-.05,1.25s-.03.86-.06,1.28c-.02.42-.05.84-.08,1.25-.03.41-.06.8-.1,1.17h-.82c-.12-.34-.23-.7-.35-1.08-.12-.39-.23-.76-.35-1.11-.12.34-.24.7-.37,1.1-.13.4-.25.76-.35,1.1h-.82c-.04-.37-.08-.76-.11-1.17-.03-.41-.06-.83-.08-1.26-.02-.42-.04-.85-.06-1.28-.02-.43-.03-.84-.04-1.24h.91c0,.31-.01.64-.02.98s-.01.67-.02,1c0,.33-.01.66-.02.98s0,.61,0,.89c.05-.17.1-.36.16-.56.06-.2.12-.4.18-.6.06-.2.11-.38.16-.54.05-.17.08-.3.11-.39h.72Z"/><path class="e" d="M52.93,12.06v-4.95h3v.82h-2.02v1.11h1.75v.82h-1.75v1.39h2.19v.82h-3.18Z"/><path class="e" d="M58.14,7.06c.28,0,.54.03.77.1.23.06.43.16.59.3.17.13.29.3.38.51.09.21.13.45.13.72s-.06.55-.18.78-.31.41-.58.54c.09.14.19.29.29.46.1.17.2.34.3.53.1.18.19.37.28.55.09.18.16.36.23.52h-1.03c-.12-.32-.27-.63-.43-.92-.16-.3-.34-.6-.52-.9h-.51v1.82h-.98v-4.88c.1-.02.2-.04.32-.06s.23-.03.35-.04c.12,0,.23-.01.34-.02.11,0,.2,0,.28,0ZM59.01,8.67c0-.26-.08-.45-.24-.58-.16-.12-.37-.18-.63-.18-.04,0-.08,0-.14,0-.05,0-.11,0-.16.02v1.49h.22c.34,0,.58-.06.73-.2s.22-.32.22-.56Z"/><path class="e" d="M48.03,28.06h1.22v1.62h4.98v-1.62h1.22v4.72h-1.22v-1.61h-4.98v1.61h-1.22v-4.72Z"/><path class="e" d="M48.03,37.67c.82-.34,1.65-.7,2.47-1.1.82-.4,1.64-.82,2.47-1.28h-4.93v-1.33h7.43v1.19c-.35.22-.73.45-1.15.67-.41.22-.82.44-1.23.65-.41.21-.8.41-1.19.59-.38.18-.72.33-1.01.46h4.57v1.33h-7.43v-1.19Z"/><path class="e" d="M51.75,64.92c1.28,0,2.25.24,2.9.71.65.47.98,1.13.98,1.97s-.33,1.54-.98,1.99c-.65.46-1.62.68-2.9.68s-2.25-.23-2.9-.7c-.65-.46-.98-1.12-.98-1.97s.33-1.54.98-2c.65-.46,1.62-.69,2.9-.69ZM51.75,66.42c-.36,0-.7.01-1.01.04-.32.03-.59.08-.82.17s-.42.2-.55.35c-.14.15-.2.36-.2.61s.07.45.2.61c.14.16.32.28.56.36.24.08.51.14.82.17.31.03.65.04,1.01.04s.7-.01,1.01-.04c.32-.03.59-.08.82-.17.23-.08.42-.2.55-.35.14-.15.2-.36.2-.61s-.07-.46-.2-.61c-.14-.15-.32-.27-.56-.35s-.51-.14-.82-.17-.65-.04-1.01-.04Z"/><path class="e" d="M47.87,73.58c0-.48.07-.88.2-1.21s.32-.58.57-.77c.25-.19.55-.33.9-.41.35-.08.74-.12,1.18-.12h4.74v1.49h-4.64c-.31,0-.57.02-.79.05-.21.03-.38.09-.51.16s-.22.18-.28.32c-.06.14-.08.31-.08.52s.03.38.08.52c.06.14.15.24.28.32.13.08.3.14.52.17.21.03.47.05.79.05h4.63v1.48h-4.74c-.43,0-.82-.04-1.18-.12-.35-.08-.65-.22-.9-.42s-.44-.46-.57-.79-.2-.74-.2-1.22Z"/><path class="e" d="M55.46,82.3h-1.22v-1.96h-6.2v-1.49h6.2v-1.96h1.22v5.4Z"/><path class="e" d="M24.46,61.74h-1.88v2.09h-1.27v-2.09h-1.88v-1.21h1.88v-2.09h1.27v2.09h1.88v1.21Z"/><path class="e" d="M19.44,73.72l4.61-1.95.42,1.3-3.37,1.31,3.37,1.31-.42,1.3-4.61-1.93v-1.33Z"/><path class="e" d="M23.59,87.89h-3.29v-1.45h3.29v1.45Z"/><path class="e" d="M24.46,20.8h-1.88v2.09h-1.27v-2.09h-1.88v-1.21h1.88v-2.09h1.27v2.09h1.88v1.21Z"/><path class="e" d="M24.4,34.12l-4.61,1.93-.41-1.3,3.36-1.31-3.36-1.31.41-1.3,4.61,1.94v1.33Z"/><path class="e" d="M23.59,46.95h-3.29v-1.45h3.29v1.45Z"/><path class="d" d="M41.42,105.39l-.93-.17s-.05-.03-.06-.05l-.29-.67s0-.05,0-.07l.54-.79s.01-.05,0-.06l-.68-.68s-.05-.02-.06,0l-.81.55s-.05.02-.07,0l-.65-.26s-.04-.03-.05-.05l-.18-.97s-.03-.04-.05-.04h-.96s-.05.02-.05.04l-.18.97s-.03.05-.05.05l-.65.26s-.05,0-.07,0l-.81-.55s-.05-.01-.06,0l-.68.68s-.02.05,0,.06l.54.79s.02.05,0,.07l-.29.67s-.03.04-.06.05l-.93.17s-.04.03-.04.05v.96s.02.05.04.05l.91.17s.05.03.05.05l.28.71s0,.05,0,.07l-.52.75s-.01.05,0,.06l.68.68s.05.02.06,0l.74-.51s.05-.01.07,0l.33.17s.04,0,.05-.02l.67-1.63s0-.05-.02-.06l-.08-.05s-.04-.03-.05-.04c-.29-.19-.49-.52-.49-.89,0-.59.48-1.06,1.06-1.06s1.06.48,1.06,1.06c0,.38-.2.71-.49.89-.02.01-.04.03-.05.04l-.08.05s-.03.04-.02.06l.67,1.63s.03.03.05.02l.33-.17s.05-.01.07,0l.74.51s.05.01.06,0l.68-.68s.02-.05,0-.06l-.52-.75s-.02-.05,0-.07l.28-.71s.03-.04.05-.05l.91-.17s.04-.03.04-.05v-.96s-.02-.05-.04-.05Z"/><path d="M153.44,105.37c0,.15.03.27.08.35.06.08.14.12.26.12.05,0,.1,0,.15-.02s.09-.03.13-.05v-.9s-.07-.01-.1-.02c-.03,0-.06,0-.09,0-.29,0-.43.17-.43.52Z"/><path d="M155.76,104.87c-.12,0-.2.05-.26.14-.05.09-.08.23-.08.4s.03.31.09.41.16.16.3.16c.04,0,.08,0,.11,0,.03,0,.07,0,.11-.01v-1.02s-.08-.04-.13-.05c-.05-.01-.1-.02-.15-.02Z"/><path d="M138.11,104.98s-.07-.07-.11-.09c-.05-.02-.1-.03-.17-.03-.06,0-.12.01-.17.03-.05.02-.08.05-.12.09-.03.04-.05.08-.07.13-.02.05-.03.1-.03.15h.75c0-.05,0-.1-.02-.15-.01-.05-.04-.09-.06-.13Z"/><path d="M127.78,104.87s-.08,0-.12,0c-.04,0-.08,0-.11,0v1.03s.07.04.13.05c.05.01.11.02.16.02.12,0,.2-.05.26-.14.06-.09.08-.23.08-.4s-.03-.31-.1-.41c-.07-.11-.17-.16-.3-.16Z"/><path d="M157.78,104.87s-.08,0-.12,0c-.04,0-.08,0-.11,0v1.03s.07.04.13.05c.05.01.11.02.16.02.12,0,.2-.05.26-.14.06-.09.08-.23.08-.4s-.03-.31-.1-.41c-.07-.11-.17-.16-.3-.16Z"/><path d="M139.76,104.87c-.12,0-.2.05-.26.14-.05.09-.08.23-.08.4s.03.31.09.41.16.16.3.16c.04,0,.08,0,.11,0,.03,0,.07,0,.11-.01v-1.02s-.08-.04-.13-.05c-.05-.01-.1-.02-.15-.02Z"/><path d="M119.79,102.46v5.57h41.52s0-5.57,0-5.57h-41.52ZM122.57,106.37h-.49v-1c0-.18-.02-.3-.06-.38s-.12-.12-.23-.12c-.05,0-.09,0-.13.02s-.08.02-.11.03v1.45h-.49v-2.69l.49-.08v.91s.09-.03.14-.04c.06-.01.11-.02.15-.02.14,0,.25.02.35.06.09.04.17.1.22.18.06.08.1.17.12.27.02.11.04.22.04.35v1.06ZM124.4,106.39c-.11.02-.21.02-.31.02-.12,0-.22,0-.3-.03s-.16-.05-.22-.11c-.06-.05-.11-.13-.14-.23-.03-.1-.05-.22-.05-.38v-.77h-.43v-.41h.43v-.47l.49-.08v.55h.79v.41h-.79v.76c0,.07,0,.12.02.17s.03.08.06.1.05.04.09.05c.04,0,.07.01.12.01.05,0,.09,0,.13,0,.04,0,.08,0,.11-.01.04,0,.07-.02.11-.03.04-.01.08-.03.13-.05l.07.42c-.09.04-.19.06-.29.08ZM126.4,106.39c-.11.02-.21.02-.31.02-.12,0-.22,0-.3-.03s-.16-.05-.22-.11c-.06-.05-.11-.13-.14-.23-.03-.1-.05-.22-.05-.38v-.77h-.43v-.41h.43v-.47l.49-.08v.55h.79v.41h-.79v.76c0,.07,0,.12.02.17s.03.08.06.1.05.04.09.05c.04,0,.07.01.12.01.05,0,.09,0,.13,0,.04,0,.08,0,.11-.01.04,0,.07-.02.11-.03.04-.01.08-.03.13-.05l.07.42c-.09.04-.19.06-.29.08ZM128.64,105.83c-.03.12-.08.23-.14.31-.06.09-.14.15-.23.2-.09.05-.2.07-.32.07s-.25-.03-.39-.09v.71h-.49v-2.48c.09-.03.2-.05.33-.07s.26-.03.39-.03c.29,0,.51.09.67.26.16.18.23.42.23.72,0,.14-.02.28-.05.4ZM130.53,106.07c-.03.07-.08.13-.15.18s-.16.09-.27.12-.24.04-.4.04-.3-.02-.42-.06c-.12-.04-.21-.07-.28-.1l.08-.41c.09.04.19.07.3.1s.21.05.32.05c.12,0,.21,0,.28-.03.06-.02.1-.05.1-.11,0-.04,0-.06-.03-.09-.02-.02-.05-.04-.08-.06-.04-.02-.08-.03-.12-.05s-.1-.03-.15-.05c-.07-.02-.15-.05-.22-.07-.07-.03-.14-.06-.2-.11-.06-.04-.11-.1-.15-.16s-.06-.15-.06-.25c0-.08.02-.16.05-.23.03-.07.08-.13.14-.19s.15-.1.25-.13c.1-.03.22-.05.36-.05.12,0,.24,0,.34.03.11.02.2.05.27.08l-.08.42s-.12-.04-.21-.07c-.1-.03-.2-.05-.32-.05s-.21.01-.25.05c-.04.03-.07.06-.07.1,0,.03,0,.06.03.08.02.02.05.04.08.06.03.02.07.04.12.05.04.02.09.03.14.05.07.02.15.05.22.08s.15.07.21.11c.06.04.11.1.15.17.04.07.06.15.06.25,0,.08-.01.15-.04.22ZM132.06,106.32c-.07.06-.15.09-.25.09-.05,0-.09,0-.14-.02-.04-.02-.08-.04-.11-.07-.03-.03-.06-.07-.08-.11-.02-.04-.03-.09-.03-.15,0-.06.01-.11.03-.15.02-.04.05-.08.08-.11s.07-.05.11-.07c.04-.02.09-.02.14-.02.09,0,.18.03.25.09s.11.15.11.26c0,.12-.04.21-.11.27ZM132.06,105.11c-.07.06-.15.09-.25.09-.05,0-.09,0-.14-.02-.04-.02-.08-.04-.11-.07-.03-.03-.06-.07-.08-.11-.02-.04-.03-.1-.03-.15s.01-.11.03-.15c.02-.04.05-.08.08-.11s.07-.05.11-.07c.04-.02.09-.02.14-.02.09,0,.18.03.25.09s.11.15.11.26c0,.12-.04.21-.11.27ZM133.51,107.03h-.51l1.12-3.46h.5l-1.11,3.46ZM135.51,107.03h-.51l1.12-3.46h.5l-1.11,3.46ZM138.67,105.5s0,.06,0,.08h-1.22c0,.12.05.22.15.29.1.07.23.11.39.11.1,0,.19-.01.28-.03.09-.02.17-.04.23-.06l.07.42c-.08.03-.18.05-.27.07-.1.02-.2.03-.32.03-.16,0-.3-.02-.43-.06-.13-.04-.23-.1-.32-.18-.09-.08-.16-.18-.21-.3s-.07-.26-.07-.42.03-.31.08-.44c.05-.12.12-.23.2-.31.08-.08.18-.15.28-.19.11-.04.22-.06.33-.06.28,0,.49.08.63.25.14.16.22.4.22.72,0,.03,0,.07,0,.1ZM140.53,106.31c-.09.03-.2.05-.33.07s-.26.03-.38.03c-.29,0-.52-.09-.67-.26-.15-.17-.23-.41-.23-.71s.06-.55.19-.73c.13-.18.31-.27.56-.27.07,0,.13,0,.2.02.06.01.12.04.17.06v-.86l.49-.08v2.72ZM142.56,106.3c-.09.02-.2.05-.33.07-.13.02-.27.04-.42.04s-.28-.02-.38-.06c-.1-.04-.18-.1-.23-.18-.06-.08-.1-.17-.12-.28-.02-.11-.03-.22-.03-.35v-1.05h.49v.98c0,.17.02.3.06.39s.12.13.24.13c.07,0,.15,0,.22-.02v-1.48h.5v1.82ZM144.06,106.32c-.07.06-.15.09-.25.09-.05,0-.09,0-.14-.02-.04-.02-.08-.04-.11-.07-.03-.03-.06-.07-.08-.11-.02-.04-.03-.09-.03-.15,0-.06.01-.11.03-.15.02-.04.05-.08.08-.11s.07-.05.11-.07c.04-.02.09-.02.14-.02.09,0,.18.03.25.09s.11.15.11.26c0,.12-.04.21-.11.27ZM146.57,106.37h-.49v-1c0-.18-.02-.3-.06-.38s-.12-.12-.24-.12c-.04,0-.07,0-.11,0-.04,0-.07,0-.11.01v1.48h-.49v-1.82c.09-.02.2-.05.33-.07.13-.02.27-.03.42-.03s.27.02.37.06c.1.04.18.1.23.18.06.08.1.17.12.27.02.11.04.22.04.35v1.06ZM148.62,106.32s-.07.03-.11.04c-.05.01-.1.03-.17.04s-.14.02-.22.02c-.23,0-.39-.07-.5-.2-.1-.13-.16-.33-.16-.59v-1.6h-.52v-.41h1.01v2.04c0,.13.03.21.08.26.05.05.11.07.19.07.1,0,.18-.01.25-.04s.11-.04.13-.05l.06.4s-.03.01-.05.03ZM149.51,107.03h-.51l1.12-3.46h.5l-1.11,3.46ZM152.69,106.37h-.4v-1.15c0-.07,0-.13-.01-.18,0-.04-.02-.08-.04-.1-.01-.02-.03-.04-.05-.05-.02,0-.04-.01-.06-.01-.02,0-.05,0-.08,0s-.05.01-.07.02c0,.05.01.11.02.17,0,.06,0,.13,0,.2v.38h-.4v-.43c0-.13-.01-.22-.04-.27s-.07-.08-.12-.08c-.02,0-.04,0-.06,0-.02,0-.04,0-.07.01v1.48h-.4v-1.81c.1-.03.21-.05.31-.07s.19-.02.27-.02c.07,0,.13,0,.19.03s.1.05.14.09c.05-.03.1-.06.16-.08s.13-.03.19-.03c.1,0,.19.02.26.05.07.03.12.08.16.14.04.06.06.14.08.24.01.1.02.21.02.34v1.12ZM154.56,106.14c0,.31-.07.53-.22.68-.15.15-.39.22-.71.22-.12,0-.23-.01-.34-.04-.11-.02-.21-.05-.31-.08l.09-.42c.08.03.16.06.24.08s.19.04.32.04c.08,0,.16,0,.21-.03.06-.02.1-.05.13-.08.03-.03.05-.08.07-.12.01-.05.02-.1.02-.15v-.08c-.07.03-.13.05-.19.06-.06.01-.12.02-.19.02-.25,0-.43-.08-.56-.23-.13-.15-.19-.37-.19-.64,0-.31.09-.54.26-.69.17-.15.4-.23.7-.23.21,0,.43.03.67.1v1.59ZM156.53,106.31c-.09.03-.2.05-.33.07s-.26.03-.38.03c-.29,0-.52-.09-.67-.26-.15-.17-.23-.41-.23-.71s.06-.55.19-.73c.13-.18.31-.27.56-.27.07,0,.13,0,.2.02.06.01.12.04.17.06v-.86l.49-.08v2.72ZM158.64,105.83c-.03.12-.08.23-.14.31-.06.09-.14.15-.23.2-.09.05-.2.07-.32.07s-.25-.03-.39-.09v.71h-.49v-2.48c.09-.03.2-.05.33-.07s.26-.03.39-.03c.29,0,.51.09.67.26.16.18.23.42.23.72,0,.14-.02.28-.05.4ZM160.22,106.37c-.07-.14-.14-.26-.22-.36-.07-.11-.14-.2-.2-.29-.08.11-.15.21-.22.31-.06.1-.13.21-.2.34h-.5c.04-.07.09-.15.14-.23.05-.08.11-.16.16-.25s.12-.17.18-.25c.06-.08.12-.16.18-.24l-.66-.91h.52l.42.59.38-.59h.5l-.61.9c.06.08.13.16.19.25.06.09.12.17.18.26.06.09.11.17.15.25.05.08.08.15.12.22h-.51Z"/><path class="e" d="M14.48,106.38c0,.12-.02.23-.05.34-.03.11-.08.2-.15.28-.07.08-.16.14-.27.19-.11.05-.25.07-.41.07s-.31-.02-.42-.06c-.11-.04-.21-.09-.28-.16l.19-.39c.07.04.14.08.22.12.08.04.16.06.25.06.13,0,.23-.03.31-.1.08-.07.12-.19.12-.38v-1.21h-.83v-.41h1.32v1.65Z"/><path class="e" d="M16.62,105.97c0,.23-.03.42-.09.59-.06.16-.14.29-.24.39-.1.1-.22.17-.36.22s-.29.07-.46.07c-.09,0-.17,0-.26-.01-.08,0-.17-.02-.27-.05v-2.42c.11-.02.22-.04.32-.05s.19-.01.28-.01c.16,0,.31.02.45.07.13.05.25.12.34.23.09.1.17.23.22.39.05.16.08.35.08.57ZM15.44,106.81s.03,0,.04,0h.04c.11,0,.21-.02.28-.06s.14-.1.18-.18c.05-.08.08-.16.1-.27.02-.1.03-.21.03-.34,0-.11,0-.21-.02-.31-.02-.1-.04-.19-.08-.27-.04-.08-.09-.14-.16-.19s-.16-.07-.27-.07c-.02,0-.04,0-.07,0-.03,0-.05,0-.07,0v1.66Z"/><path class="e" d="M17.47,107.21c-.06-.18-.13-.39-.2-.62s-.14-.46-.2-.69c-.06-.23-.12-.45-.17-.65-.05-.21-.09-.37-.11-.5h.52c.02.13.04.28.07.45.03.17.07.34.11.52s.08.36.12.53.09.33.13.47c.04-.14.08-.29.13-.47s.08-.35.12-.53.07-.36.1-.53c.03-.17.06-.32.08-.45h.52c-.03.16-.07.34-.12.54-.05.2-.1.41-.16.62-.06.22-.13.44-.2.66-.07.23-.15.44-.22.65h-.51Z"/><path class="e" d="M20.46,105.38c0,.09-.02.17-.05.25-.03.08-.08.16-.13.23-.05.07-.11.15-.18.22s-.13.14-.2.2c-.03.03-.07.07-.12.11-.04.04-.09.09-.13.14-.04.05-.07.09-.1.14-.03.05-.04.09-.04.13h1.06v.41h-1.62s-.01-.06-.01-.1c0-.04,0-.07,0-.08,0-.13.03-.26.07-.37.05-.11.11-.22.19-.31.08-.09.16-.18.24-.26.09-.08.17-.16.24-.23.08-.07.14-.15.19-.22.05-.07.07-.14.07-.21,0-.1-.03-.18-.09-.23-.06-.05-.14-.08-.23-.08-.08,0-.16.02-.24.06s-.17.1-.25.19l-.24-.34c.11-.11.23-.19.37-.25.14-.05.28-.08.42-.08.1,0,.2.01.29.04s.18.07.25.13c.07.06.13.13.17.22.04.09.06.19.06.31Z"/><path class="e" d="M22.36,104.73v1.49h.27v.4h-.27v.58h-.49v-.58h-1.03v-.36c.05-.1.12-.22.2-.35s.17-.27.26-.41c.1-.14.2-.28.3-.41s.21-.25.32-.36h.44ZM21.87,105.35c-.05.06-.1.13-.15.2s-.1.14-.15.22c-.05.08-.1.15-.14.23-.05.08-.09.15-.12.23h.56v-.87Z"/><path class="e" d="M24.59,105.96c0,.44-.07.76-.22.98-.15.21-.36.32-.64.32s-.49-.11-.64-.32c-.15-.21-.22-.54-.22-.98s.08-.75.22-.97c.15-.21.36-.32.64-.32s.49.11.64.32c.15.21.22.54.22.97ZM24.14,105.96c0-.28-.04-.5-.11-.65-.07-.15-.17-.22-.31-.22s-.24.07-.31.22c-.07.15-.11.36-.11.65s.04.5.11.65c.07.15.17.22.31.22s.24-.07.31-.22c.07-.15.11-.37.11-.65ZM23.95,105.92c0,.07-.02.13-.06.19-.04.05-.09.08-.16.08-.07,0-.12-.03-.16-.08-.04-.05-.06-.11-.06-.19s.02-.13.06-.19c.04-.05.09-.08.16-.08.06,0,.12.03.16.08.04.05.06.12.06.19Z"/><path class="e" d="M26.51,105.32c0,.11-.03.23-.08.34-.06.11-.14.2-.26.28.15.09.26.18.32.29.06.1.09.22.09.34,0,.08-.01.16-.05.24-.03.08-.08.16-.15.22-.07.07-.16.12-.27.16-.11.04-.24.06-.4.06-.13,0-.24-.01-.34-.05-.1-.03-.19-.07-.26-.13s-.13-.13-.17-.21-.06-.18-.06-.28c0-.12.03-.24.09-.35.06-.11.15-.21.28-.29-.12-.08-.2-.17-.24-.26-.04-.09-.06-.19-.06-.29,0-.08.01-.16.04-.25.03-.09.07-.17.13-.23s.14-.13.24-.17c.1-.05.23-.07.38-.07.24,0,.43.06.57.18.14.12.21.28.21.47ZM26.12,106.56c0-.05,0-.1-.03-.14-.02-.04-.05-.08-.1-.11-.04-.03-.1-.07-.17-.1s-.15-.07-.25-.11c-.07.06-.13.13-.17.21-.04.08-.06.15-.06.22,0,.11.04.19.11.24.08.05.17.08.27.08.12,0,.21-.03.29-.09.07-.06.11-.13.11-.21ZM25.72,105.08c-.09,0-.17.02-.23.07s-.1.12-.1.21.03.17.1.23c.06.06.18.12.34.18.08-.06.14-.13.18-.2.04-.07.05-.14.05-.21,0-.09-.03-.16-.1-.21-.06-.05-.14-.07-.23-.07Z"/><path class="e" d="M28.59,105.96c0,.44-.07.76-.22.98-.15.21-.36.32-.64.32s-.49-.11-.64-.32c-.15-.21-.22-.54-.22-.98s.08-.75.22-.97c.15-.21.36-.32.64-.32s.49.11.64.32c.15.21.22.54.22.97ZM28.14,105.96c0-.28-.04-.5-.11-.65-.07-.15-.17-.22-.31-.22s-.24.07-.31.22c-.07.15-.11.36-.11.65s.04.5.11.65c.07.15.17.22.31.22s.24-.07.31-.22c.07-.15.11-.37.11-.65ZM27.95,105.92c0,.07-.02.13-.06.19-.04.05-.09.08-.16.08-.07,0-.12-.03-.16-.08-.04-.05-.06-.11-.06-.19s.02-.13.06-.19c.04-.05.09-.08.16-.08.06,0,.12.03.16.08.04.05.06.12.06.19Z"/><path class="e" d="M30.01,106.48c0-.07-.01-.13-.03-.19s-.07-.11-.14-.15c-.07-.04-.17-.07-.29-.1-.13-.02-.29-.03-.49-.03.03-.22.05-.44.06-.66.02-.21.03-.42.04-.62h1.26v.41h-.85c0,.09-.01.17-.02.27,0,.09-.01.17-.02.23.33.02.58.1.74.24s.24.33.24.58c0,.11-.02.22-.06.32-.04.1-.1.18-.18.25s-.19.13-.31.17c-.12.04-.27.06-.43.06-.06,0-.13,0-.2-.01-.07,0-.13-.02-.19-.03-.06-.01-.12-.03-.17-.04-.05-.02-.09-.03-.11-.04l.1-.41c.06.03.13.06.22.08.09.02.2.04.34.04.1,0,.18-.01.24-.03.06-.02.11-.05.15-.08.04-.03.06-.07.07-.11.01-.04.02-.09.02-.13Z"/><path class="e" d="M178.57,102.13v-1.38c-.07.05-.16.1-.26.14-.1.04-.18.07-.24.1l-.16-.41c.06-.02.13-.05.21-.09.07-.04.15-.08.22-.12.07-.05.15-.09.21-.14s.12-.1.17-.16h.34v2.07h.49v.41h-1.5v-.41h.52Z"/><path class="e" d="M181.45,100.71c0,.09-.02.17-.05.25-.03.08-.08.16-.13.23-.05.07-.11.15-.18.22s-.13.14-.2.2c-.03.03-.07.07-.12.11-.04.04-.09.09-.13.14-.04.05-.07.09-.1.14-.03.05-.04.09-.04.13h1.06v.41h-1.62s-.01-.06-.01-.1c0-.04,0-.07,0-.08,0-.13.03-.26.07-.37.05-.11.11-.22.19-.31.08-.09.16-.18.24-.26.09-.08.17-.16.24-.23.08-.07.14-.15.19-.22.05-.07.07-.14.07-.21,0-.1-.03-.18-.09-.23-.06-.05-.14-.08-.23-.08-.08,0-.16.02-.24.06s-.17.1-.25.19l-.24-.34c.11-.11.23-.19.37-.25.14-.05.28-.08.42-.08.1,0,.2.01.29.04s.18.07.25.13c.07.06.13.13.17.22.04.09.06.19.06.31Z"/><path class="e" d="M182.46,102.54c-.06-.18-.13-.39-.2-.62s-.14-.46-.2-.69c-.06-.23-.12-.45-.17-.65-.05-.21-.09-.37-.11-.5h.52c.02.13.04.28.07.45.03.17.07.34.11.52s.08.36.12.53.09.33.13.47c.04-.14.08-.29.13-.47s.08-.35.12-.53.07-.36.1-.53c.03-.17.06-.32.08-.45h.52c-.03.16-.07.34-.12.54-.05.2-.1.41-.16.62-.06.22-.13.44-.2.66-.07.23-.15.44-.22.65h-.51Z"/><path class="e" d="M187.35,100.06v1.49h.27v.4h-.27v.58h-.49v-.58h-1.03v-.36c.05-.1.12-.22.2-.35s.17-.27.26-.41c.1-.14.2-.28.3-.41s.21-.25.32-.36h.44ZM186.86,100.67c-.05.06-.1.13-.15.2s-.1.14-.15.22c-.05.08-.1.15-.14.23-.05.08-.09.15-.12.23h.56v-.87Z"/><path class="e" d="M189.08,102.22c0,.12-.04.21-.11.27s-.15.09-.25.09c-.05,0-.09,0-.14-.02-.04-.02-.08-.04-.11-.07-.03-.03-.06-.07-.08-.11-.02-.04-.03-.09-.03-.15,0-.06.01-.11.03-.15.02-.04.05-.08.08-.11s.07-.05.11-.07c.04-.02.09-.02.14-.02.09,0,.18.03.25.09s.11.15.11.26Z"/><path class="e" d="M191.45,100.71c0,.09-.02.17-.05.25-.03.08-.08.16-.13.23-.05.07-.11.15-.18.22s-.13.14-.2.2c-.03.03-.07.07-.12.11-.04.04-.09.09-.13.14-.04.05-.07.09-.1.14-.03.05-.04.09-.04.13h1.06v.41h-1.62s-.01-.06-.01-.1c0-.04,0-.07,0-.08,0-.13.03-.26.07-.37.05-.11.11-.22.19-.31.08-.09.16-.18.24-.26.09-.08.17-.16.24-.23.08-.07.14-.15.19-.22.05-.07.07-.14.07-.21,0-.1-.03-.18-.09-.23-.06-.05-.14-.08-.23-.08-.08,0-.16.02-.24.06s-.17.1-.25.19l-.24-.34c.11-.11.23-.19.37-.25.14-.05.28-.08.42-.08.1,0,.2.01.29.04s.18.07.25.13c.07.06.13.13.17.22.04.09.06.19.06.31Z"/><path class="e" d="M193.15,102.54l-.12-.57h-.66l-.11.57h-.51c.12-.49.24-.93.36-1.33.12-.4.24-.78.35-1.14h.54c.12.36.23.75.35,1.15.12.41.23.85.34,1.32h-.53ZM192.71,100.54c-.03.09-.05.18-.07.27s-.04.17-.06.25c-.02.08-.04.16-.06.25-.02.08-.03.17-.05.26h.48c-.02-.09-.03-.17-.05-.26-.02-.08-.03-.16-.05-.25-.02-.08-.04-.16-.06-.25-.02-.08-.05-.17-.07-.27Z"/><path class="e" d="M171.57,107.59c-.06,0-.13,0-.19-.01-.07,0-.13-.02-.2-.03s-.12-.03-.17-.04-.09-.03-.12-.04l.1-.41c.06.03.14.05.24.08s.21.04.35.04c.17,0,.29-.04.35-.11.07-.07.1-.16.1-.27,0-.13-.05-.22-.16-.27-.1-.05-.24-.08-.4-.08h-.15v-.41h.18c.05,0,.1,0,.15-.02.05-.01.1-.03.14-.05.04-.02.07-.06.1-.1s.04-.09.04-.15c0-.09-.03-.16-.08-.21s-.13-.08-.23-.08-.19.02-.28.05c-.09.03-.17.07-.24.11l-.18-.36c.07-.05.17-.1.29-.15.12-.05.25-.07.4-.07.14,0,.26.02.36.05.1.04.19.08.25.15.07.06.12.14.15.22.03.09.05.18.05.28s-.03.19-.08.28-.13.16-.22.21c.13.05.23.13.3.24.07.1.11.23.11.37,0,.12-.02.22-.06.32s-.09.18-.17.25-.18.12-.3.16c-.12.04-.26.06-.43.06Z"/><path class="e" d="M174,106.81c0-.07-.01-.13-.03-.19s-.07-.11-.14-.15c-.07-.04-.17-.07-.29-.1-.13-.02-.29-.03-.49-.03.03-.22.05-.44.06-.66.02-.21.03-.42.04-.62h1.26v.41h-.85c0,.09-.01.17-.02.27,0,.09-.01.17-.02.23.33.02.58.1.74.24s.24.33.24.58c0,.11-.02.22-.06.32-.04.1-.1.18-.18.25s-.19.13-.31.17c-.12.04-.27.06-.43.06-.06,0-.13,0-.2-.01-.07,0-.13-.02-.19-.03-.06-.01-.12-.03-.17-.04-.05-.02-.09-.03-.11-.04l.1-.41c.06.03.13.06.22.08.09.02.2.04.34.04.1,0,.18-.01.24-.03.06-.02.11-.05.15-.08.04-.03.06-.07.07-.11.01-.04.02-.09.02-.13Z"/><path class="e" d="M176.58,106.29c0,.44-.07.76-.22.98-.15.21-.36.32-.64.32s-.49-.11-.64-.32c-.15-.21-.22-.54-.22-.98s.08-.75.22-.97c.15-.21.36-.32.64-.32s.49.11.64.32c.15.21.22.54.22.97ZM176.13,106.29c0-.28-.04-.5-.11-.65-.07-.15-.17-.22-.31-.22s-.24.07-.31.22c-.07.15-.11.36-.11.65s.04.5.11.65c.07.15.17.22.31.22s.24-.07.31-.22c.07-.15.11-.37.11-.65ZM175.94,106.25c0,.07-.02.13-.06.19-.04.05-.09.08-.16.08-.07,0-.12-.03-.16-.08-.04-.05-.06-.11-.06-.19s.02-.13.06-.19c.04-.05.09-.08.16-.08.06,0,.12.03.16.08.04.05.06.12.06.19Z"/><path class="e" d="M178.09,105.63c.1,0,.19.02.26.05.07.03.12.08.16.14.04.06.06.14.08.24.01.1.02.21.02.34v1.12h-.4v-1.15c0-.07,0-.13-.01-.18,0-.04-.02-.08-.04-.1-.01-.02-.03-.04-.05-.05-.02,0-.04-.01-.06-.01-.02,0-.05,0-.08,0s-.05.01-.07.02c0,.05.01.11.02.17,0,.06,0,.13,0,.2v.38h-.4v-.43c0-.13-.01-.22-.04-.27s-.07-.08-.12-.08c-.02,0-.04,0-.06,0-.02,0-.04,0-.07.01v1.48h-.4v-1.81c.1-.03.21-.05.31-.07s.19-.02.27-.02c.07,0,.13,0,.19.03s.1.05.14.09c.05-.03.1-.06.16-.08s.13-.03.19-.03Z"/><path class="e" d="M180.15,107.54l-.12-.57h-.66l-.11.57h-.51c.12-.49.24-.93.36-1.33.12-.4.24-.78.35-1.14h.54c.12.36.23.75.35,1.15.12.41.23.85.34,1.32h-.53ZM179.71,105.54c-.03.09-.05.18-.07.27s-.04.17-.06.25c-.02.08-.04.16-.06.25-.02.08-.03.17-.05.26h.48c-.02-.09-.03-.17-.05-.26-.02-.08-.03-.16-.05-.25-.02-.08-.04-.16-.06-.25-.02-.08-.05-.17-.07-.27Z"/><path class="e" d="M181.42,108.2h-.51l1.12-3.46h.5l-1.11,3.46Z"/><path class="e" d="M182.89,106.59c0-.14.02-.26.06-.38.04-.12.11-.22.2-.31.09-.09.2-.16.33-.21.13-.05.3-.08.48-.08.11,0,.21,0,.3.02.09.02.18.04.28.08l-.11.4c-.05-.02-.11-.04-.18-.05s-.15-.02-.25-.02c-.12,0-.21.01-.29.04s-.14.07-.19.12c-.05.05-.08.11-.1.18s-.03.14-.03.22c0,.17.05.31.15.41.1.1.26.15.5.15.08,0,.16,0,.24-.02.08,0,.16-.03.23-.05l.07.4c-.07.03-.15.05-.25.07-.1.02-.21.03-.35.03-.19,0-.36-.03-.49-.08-.14-.05-.25-.12-.34-.21s-.15-.19-.19-.31c-.04-.12-.06-.25-.06-.39Z"/><path class="e" d="M186.61,106.59c0,.15-.02.29-.06.41-.04.12-.1.23-.18.31-.08.09-.17.16-.28.2-.11.05-.23.07-.36.07s-.25-.02-.36-.07c-.11-.05-.2-.12-.28-.2-.08-.09-.14-.19-.18-.31-.04-.12-.06-.26-.06-.41s.02-.28.07-.4c.04-.12.11-.23.18-.31.08-.09.17-.15.28-.2.11-.05.23-.07.36-.07s.25.02.36.07c.11.05.2.11.28.2.08.09.14.19.18.31.04.12.06.25.06.4ZM185.33,106.59c0,.17.03.3.09.41.06.1.16.16.29.16s.22-.05.29-.16c.07-.1.1-.24.1-.41s-.03-.3-.09-.41-.16-.15-.29-.15-.22.05-.29.15-.1.24-.1.41Z"/><path class="e" d="M188.59,107.46s-.03.01-.05.03c-.03.01-.07.03-.11.04-.05.01-.1.03-.17.04s-.14.02-.22.02c-.23,0-.39-.07-.5-.2-.1-.13-.16-.33-.16-.59v-1.6h-.52v-.41h1.01v2.04c0,.13.03.21.08.26.05.05.11.07.19.07.1,0,.18-.01.25-.04s.11-.04.13-.05l.06.4Z"/><path class="e" d="M190.61,106.59c0,.15-.02.29-.06.41-.04.12-.1.23-.18.31-.08.09-.17.16-.28.2-.11.05-.23.07-.36.07s-.25-.02-.36-.07c-.11-.05-.2-.12-.28-.2-.08-.09-.14-.19-.18-.31-.04-.12-.06-.26-.06-.41s.02-.28.07-.4c.04-.12.11-.23.18-.31.08-.09.17-.15.28-.2.11-.05.23-.07.36-.07s.25.02.36.07c.11.05.2.11.28.2.08.09.14.19.18.31.04.12.06.25.06.4ZM189.33,106.59c0,.17.03.3.09.41.06.1.16.16.29.16s.22-.05.29-.16c.07-.1.1-.24.1-.41s-.03-.3-.09-.41-.16-.15-.29-.15-.22.05-.29.15-.1.24-.1.41Z"/><path class="e" d="M192.47,106.16s-.07-.02-.11-.02-.09-.01-.13-.02-.09-.01-.13-.01c-.04,0-.08,0-.11,0-.07,0-.14,0-.2.01-.07,0-.13.02-.2.04v1.4h-.5v-1.76c.13-.05.26-.09.4-.12.14-.03.3-.04.48-.04.03,0,.06,0,.11,0,.05,0,.1,0,.16.01.06,0,.11.01.17.02.06,0,.11.02.15.04l-.09.46Z"/><path class="e" d="M193.42,108.2h-.51l1.12-3.46h.5l-1.11,3.46Z"/><path class="e" d="M196.56,107.54h-1.56v-2.48h.5v2.07h1.06v.41Z"/><path class="e" d="M196.97,107.54v-2.48h1.5v.41h-1.01v.56h.88v.41h-.88v.7h1.1v.41h-1.59Z"/><path class="e" d="M200.61,106.29c0,.23-.03.42-.09.59-.06.16-.14.29-.24.39-.1.1-.22.17-.36.22s-.29.07-.46.07c-.09,0-.17,0-.26-.01-.08,0-.17-.02-.27-.05v-2.42c.11-.02.22-.04.32-.05s.19-.01.28-.01c.16,0,.31.02.45.07.13.05.25.12.34.23.09.1.17.23.22.39.05.16.08.35.08.57ZM199.43,107.13s.03,0,.04,0h.04c.11,0,.21-.02.28-.06s.14-.1.18-.18c.05-.08.08-.16.1-.27.02-.1.03-.21.03-.34,0-.11,0-.21-.02-.31-.02-.1-.04-.19-.08-.27-.04-.08-.09-.14-.16-.19s-.16-.07-.27-.07c-.02,0-.04,0-.07,0-.03,0-.05,0-.07,0v1.66Z"/><rect x="198.85" y="2.24" width="3.21" height=".75" transform="translate(56.86 142.51) rotate(-45)"/><rect x="193.18" y="2.24" width="3.21" height=".75" transform="translate(55.2 138.5) rotate(-45)"/><rect x="187.51" y="2.24" width="3.21" height=".75" transform="translate(53.54 134.49) rotate(-45)"/><rect x="194.41" y="12.38" width=".75" height="3.21" transform="translate(47.16 141.83) rotate(-45)"/><rect x="200.07" y="12.38" width=".75" height="3.21" transform="translate(48.82 145.83) rotate(-45)"/><rect x="200.07" y="6.7" width=".75" height="3.21" transform="translate(52.84 144.17) rotate(-45)"/><rect x="193.18" y="7.93" width="3.21" height=".75" transform="translate(51.18 140.16) rotate(-45)"/><rect x="187.51" y="7.93" width="3.21" height=".75" transform="translate(49.52 136.15) rotate(-45)"/><rect x="197.62" y="17.05" width="5.67" height="5.67"/><rect x="52.74" y="103.45" width=".75" height="3.21" transform="translate(-58.73 68.33) rotate(-45)"/><rect x="57.2" y="99.01" width="3.21" height=".75" transform="translate(-53.05 70.69) rotate(-45)"/><rect x="57.2" y="93.34" width="3.21" height=".75" transform="translate(-49.04 69.03) rotate(-45)"/><rect x="51.52" y="99.01" width="3.21" height=".75" transform="translate(-54.72 66.67) rotate(-45)"/><rect x="45.61" y="99.01" width="3.21" height=".75" transform="translate(-56.45 62.5) rotate(-45)"/><rect x="58.43" y="103.45" width=".75" height="3.21" transform="translate(-57.06 72.35) rotate(-45)"/><rect x="62.88" y="104.68" width="3.21" height=".75" transform="translate(-55.4 76.37) rotate(-45)"/><rect x="62.88" y="99.01" width="3.21" height=".75" transform="translate(-51.39 74.71) rotate(-45)"/><rect x="51.52" y="93.34" width="3.21" height=".75" transform="translate(-50.71 65.01) rotate(-45)"/><rect x="44.38" y="102.22" width="5.67" height="5.67" transform="translate(152.27 57.84) rotate(90)"/><circle cx="119.61" cy="24.42" r=".85"/><circle cx="81.31" cy="18.13" r=".85"/><circle cx="198.03" cy="28.27" r=".85"/><circle cx="170.97" cy="83.2" r=".85"/><path class="f" d="M156.21,79.83c-2.1-3.97-6.2-6.67-10.91-6.67s-8.81,2.7-10.91,6.67c-.18.34-.34.69-.49,1.05v10.09c.16.37.33.74.52,1.09,2.11,3.95,6.19,6.63,10.89,6.63s8.78-2.68,10.89-6.63c.13-.24.24-.49.35-.74v-10.8c-.11-.23-.21-.47-.33-.7Z"/><path class="f" d="M206.69,64.89c3.96-2.11,6.66-6.21,6.66-10.93s-2.69-8.83-6.66-10.93c-.34-.18-.69-.34-1.05-.49h-10.07c-.37.16-.74.33-1.09.52-3.94,2.12-6.61,6.21-6.61,10.91s2.67,8.79,6.61,10.91c.24.13.49.24.74.35h10.78c.23-.11.47-.21.69-.33Z"/><path class="f" d="M156.34,15.75c-2.11-4-6.23-6.71-10.96-6.71s-8.84,2.71-10.96,6.71c-.18.34-.34.7-.49,1.06v10.15c.16.38.33.74.52,1.1,2.12,3.97,6.22,6.66,10.93,6.66s8.81-2.69,10.93-6.66c.13-.24.24-.49.35-.74v-10.86c-.11-.24-.21-.47-.33-.7Z"/><circle class="g" cx="4.55" cy="5.56" r="4.55"/><circle class="g" cx="217.7" cy="102.18" r="4.55"/></g></svg>