<?xml version="1.0" encoding="UTF-8"?><svg xmlns="http://www.w3.org/2000/svg" width="47.1mm" height="75.21mm" viewBox="0 0 133.51 213.19"><defs><style>.c{fill:#000;stroke-width:0px;}.d{stroke-miterlimit:10;stroke-width:.5px;}.d,.e{fill:none;stroke:#000;}.e{stroke-linecap:round;stroke-linejoin:round;stroke-width:.28px;}</style></defs><g id="a"><path class="e" d="M.14.14h133.23v212.6H.14V.14Z"/></g><g id="b"><path class="c" d="M53.65,21.38h.64l.62,2.19.63-2.19h.62l-.98,2.88h-.57l-.97-2.88Z"/><path class="c" d="M58.56,24.04c-.21.2-.49.29-.82.29-.41,0-.74-.13-.98-.4-.24-.27-.36-.63-.36-1.1,0-.5.13-.89.4-1.16.23-.24.53-.36.89-.36.48,0,.84.16,1.06.48.12.18.19.36.2.54h-.6c-.04-.14-.09-.24-.15-.31-.11-.12-.27-.19-.49-.19s-.39.09-.52.26-.19.43-.19.75.07.56.2.73.3.24.51.24.37-.07.48-.21c.06-.07.11-.19.15-.33h.6c-.05.31-.19.57-.4.77Z"/><path class="c" d="M61.45,24.04c-.21.2-.49.29-.82.29-.41,0-.74-.13-.98-.4-.24-.27-.36-.63-.36-1.1,0-.5.13-.89.4-1.16.23-.24.53-.36.89-.36.48,0,.84.16,1.06.48.12.18.19.36.2.54h-.6c-.04-.14-.09-.24-.15-.31-.11-.12-.27-.19-.49-.19s-.39.09-.52.26-.19.43-.19.75.07.56.2.73.3.24.51.24.37-.07.48-.21c.06-.07.11-.19.15-.33h.6c-.05.31-.19.57-.4.77Z"/><path class="c" d="M68.93,20.79h.64l.62,2.19.63-2.19h.62l-.98,2.88h-.57l-.97-2.88Z"/><path class="c" d="M72.96,22.87v.8h-.51v-.8h-.8v-.51h.8v-.8h.51v.8h.8v.51h-.8Z"/><path class="c" d="M13.44,24.58c.18,0,.32-.02.43-.06.21-.07.31-.21.31-.42,0-.12-.05-.21-.16-.28-.1-.06-.27-.12-.49-.17l-.38-.09c-.37-.08-.63-.18-.78-.28-.24-.17-.36-.43-.36-.78,0-.32.12-.59.35-.8s.58-.32,1.03-.32c.38,0,.7.1.97.3.27.2.41.49.42.88h-.72c-.01-.22-.11-.37-.28-.46-.12-.06-.26-.09-.44-.09-.19,0-.35.04-.46.12s-.17.19-.17.33c0,.13.06.22.17.29.07.04.23.09.47.15l.62.15c.27.06.48.15.62.26.21.17.32.41.32.73s-.13.6-.38.82c-.25.22-.61.33-1.07.33s-.84-.11-1.11-.32c-.27-.21-.4-.51-.4-.88h.72c.02.16.07.29.13.37.12.15.33.22.63.22Z"/><path class="c" d="M18.01,24.83c-.27.25-.61.37-1.03.37-.52,0-.92-.17-1.22-.5-.3-.33-.44-.79-.44-1.37,0-.63.17-1.11.51-1.45.29-.3.67-.44,1.12-.44.61,0,1.05.2,1.33.6.15.22.24.45.25.67h-.75c-.05-.17-.11-.3-.19-.39-.14-.16-.34-.23-.61-.23s-.49.11-.65.33c-.16.22-.24.53-.24.94s.08.71.25.91c.17.2.38.3.64.3s.46-.09.6-.26c.08-.09.14-.23.19-.42h.74c-.06.39-.23.71-.5.96Z"/><path class="c" d="M19.08,21.5h.75v2.95h1.78v.65h-2.53v-3.6Z"/><path class="c" d="M26.56,24.67c.18,0,.32-.02.43-.06.21-.07.31-.21.31-.42,0-.12-.05-.21-.16-.28-.1-.06-.27-.12-.49-.17l-.38-.09c-.37-.08-.63-.18-.78-.28-.24-.17-.36-.43-.36-.78,0-.32.12-.59.35-.8s.58-.32,1.03-.32c.38,0,.7.1.97.3.27.2.41.49.42.88h-.72c-.01-.22-.11-.37-.28-.46-.12-.06-.26-.09-.44-.09-.19,0-.35.04-.46.12s-.17.19-.17.33c0,.13.06.22.17.29.07.04.23.09.47.15l.62.15c.27.06.48.15.62.26.21.17.32.41.32.73s-.13.6-.38.82c-.25.22-.61.33-1.07.33s-.84-.11-1.11-.32c-.27-.21-.4-.51-.4-.88h.72c.02.16.07.29.13.37.12.15.33.22.63.22Z"/><path class="c" d="M30.14,25.19h-1.55v-3.6h1.55c.22,0,.41.03.56.08.25.08.46.24.61.46.13.18.21.37.26.58s.07.41.07.6c0,.48-.1.88-.29,1.22-.26.45-.66.67-1.21.67ZM30.7,22.51c-.12-.2-.34-.29-.69-.29h-.69v2.35h.69c.35,0,.6-.17.74-.52.08-.19.11-.42.11-.69,0-.37-.06-.65-.17-.84Z"/><path class="c" d="M34.31,24.45h-1.33l-.25.74h-.79l1.28-3.6h.85l1.27,3.6h-.82l-.23-.74ZM34.1,23.83l-.45-1.42-.46,1.42h.91Z"/><path class="c" d="M37.37,21.59h.8l.78,2.73.79-2.73h.78l-1.23,3.6h-.71l-1.22-3.6Z"/><path class="c" d="M43.51,24.92c-.27.25-.61.37-1.03.37-.52,0-.92-.17-1.22-.5-.3-.33-.44-.79-.44-1.37,0-.63.17-1.11.51-1.45.29-.3.67-.44,1.12-.44.61,0,1.05.2,1.33.6.15.22.24.45.25.67h-.75c-.05-.17-.11-.3-.19-.39-.14-.16-.34-.23-.61-.23s-.49.11-.65.33c-.16.22-.24.53-.24.94s.08.71.25.91c.17.2.38.3.64.3s.46-.09.6-.26c.08-.09.14-.23.19-.42h.74c-.06.39-.23.71-.5.96Z"/><path class="c" d="M47.12,24.92c-.27.25-.61.37-1.03.37-.52,0-.92-.17-1.22-.5-.3-.33-.44-.79-.44-1.37,0-.63.17-1.11.51-1.45.29-.3.67-.44,1.12-.44.61,0,1.05.2,1.33.6.15.22.24.45.25.67h-.75c-.05-.17-.11-.3-.19-.39-.14-.16-.34-.23-.61-.23s-.49.11-.65.33c-.16.22-.24.53-.24.94s.08.71.25.91c.17.2.38.3.64.3s.46-.09.6-.26c.08-.09.14-.23.19-.42h.74c-.06.39-.23.71-.5.96Z"/><path class="c" d="M84.49,31.95c-.2.12-.44.18-.73.18-.48,0-.87-.17-1.17-.5-.32-.33-.48-.79-.48-1.36s.16-1.05.48-1.4.74-.53,1.27-.53c.46,0,.82.12,1.1.35.28.23.44.52.48.87h-.74c-.06-.25-.2-.42-.42-.52-.12-.05-.26-.08-.41-.08-.29,0-.53.11-.71.33-.19.22-.28.55-.28.99s.1.76.3.94.43.28.69.28.46-.07.62-.22c.16-.15.26-.34.3-.57h-.83v-.6h1.5v1.93h-.5l-.08-.45c-.15.17-.27.29-.39.36Z"/><path class="c" d="M89.08,32.03h-.75l-1.47-2.56v2.56h-.7v-3.6h.79l1.43,2.51v-2.51h.7v3.6Z"/><path class="c" d="M91.34,32.03h-1.55v-3.6h1.55c.22,0,.41.03.56.08.25.08.46.24.61.46.13.18.21.37.26.58s.07.41.07.6c0,.48-.1.88-.29,1.22-.26.45-.66.67-1.21.67ZM91.89,29.35c-.12-.2-.34-.29-.69-.29h-.69v2.35h.69c.35,0,.6-.17.74-.52.08-.19.11-.42.11-.69,0-.37-.06-.65-.17-.84Z"/><path class="c" d="M99.73,28.44h.8l.78,2.73.79-2.73h.78l-1.23,3.6h-.71l-1.22-3.6Z"/><path class="c" d="M104.77,31.03v1.01h-.64v-1.01h-1v-.64h1v-1h.64v1h1v.64h-1Z"/><path class="c" d="M6.8,68.04v.8l.44.15v.47l-2.16-.77v-.51l2.16-.76v.49l-.44.14ZM6.43,68.16l-.85.27.85.28v-.55Z"/><path class="c" d="M6.46,65.79h.33v.24h.46v.41h-.46v.84h-.36l-1.29-.78v-.47h1.33v-.24ZM6.46,66.98v-.53h-.92l.92.53Z"/><path class="c" d="M11.6,94.19c-.08.07-.12.16-.12.29,0,.17.06.28.19.35.07.04.19.06.35.06v.54c-.24,0-.44-.05-.58-.13-.28-.15-.42-.41-.42-.79,0-.3.08-.54.25-.71s.39-.27.66-.27c.21,0,.4.06.56.19.11.08.23.22.36.4l.16.22c.1.14.17.23.21.29s.1.09.15.13v-1.24h.49v1.94c-.2,0-.39-.05-.56-.13-.19-.08-.39-.27-.6-.56-.18-.26-.31-.42-.39-.5-.12-.12-.26-.17-.41-.17-.12,0-.22.03-.3.1Z"/><path class="c" d="M18.77,94.81c.08.06.19.09.33.09v.52c-.14,0-.27-.03-.4-.07-.11-.05-.21-.12-.31-.21-.07-.07-.12-.16-.15-.26s-.05-.22-.05-.37c0-.27.07-.49.21-.66s.33-.25.56-.25c.17,0,.31.05.42.15.07.06.12.13.15.2,0-.05.04-.12.13-.22.13-.14.31-.21.54-.21.24,0,.45.08.63.25s.27.41.27.74c0,.4-.13.68-.39.84-.14.08-.32.13-.55.14v-.55c.11,0,.21-.02.28-.05.14-.07.21-.19.21-.37,0-.11-.04-.2-.11-.29s-.18-.12-.32-.12c-.19,0-.31.08-.37.23-.04.09-.05.22-.05.41h-.4c0-.18-.02-.31-.05-.38-.05-.12-.17-.19-.33-.19-.11,0-.2.03-.26.09s-.1.15-.1.27c0,.13.04.23.12.29Z"/><path class="c" d="M27.19,93.48h.44v.32h.61v.54h-.61v1.12h-.49l-1.72-1.04v-.62h1.77v-.32ZM27.19,95.06v-.71h-1.22l1.22.71Z"/><path class="c" d="M34.01,94.51c0,.07,0,.13.03.18.03.09.09.15.17.2l-.02.5-1.56-.2v-1.56h.47v1.16l.62.1c-.06-.09-.09-.15-.11-.2-.03-.08-.04-.18-.04-.29,0-.23.08-.44.24-.61s.39-.26.69-.26c.26,0,.5.08.7.25s.31.42.31.75c0,.27-.07.49-.22.66s-.35.27-.62.29v-.55c.12-.02.21-.06.28-.13s.1-.15.1-.27c0-.14-.05-.24-.15-.32s-.22-.11-.37-.11-.27.03-.37.1-.15.17-.15.32Z"/><path class="c" d="M40.77,94.35c0-.25.09-.46.26-.62s.39-.24.65-.24.5.08.7.24.3.4.3.73c0,.36-.15.62-.45.79-.23.13-.53.2-.9.2-.22,0-.39,0-.53-.03-.24-.03-.44-.1-.6-.19-.14-.08-.25-.19-.33-.32s-.12-.29-.12-.47c0-.26.07-.47.2-.63s.31-.24.54-.26v.55s-.1.02-.15.05c-.09.06-.13.15-.13.27,0,.18.1.31.3.39.11.04.28.07.5.09-.08-.07-.14-.15-.18-.24s-.06-.2-.06-.31ZM41.3,94.73c.08.11.22.16.41.16.15,0,.28-.04.37-.12s.14-.19.14-.31-.05-.22-.14-.29-.21-.11-.36-.11c-.17,0-.29.04-.38.12s-.13.18-.13.3c0,.1.03.18.09.25Z"/><path class="c" d="M47.87,93.81c.21.15.43.27.65.37.18.08.39.15.64.21s.46.1.62.1v.58c-.51-.02-1.04-.18-1.58-.5-.34-.2-.58-.38-.71-.51v1.41h-.5v-2.01h.44c.08.08.23.2.44.35Z"/><path class="c" d="M56.81,95.23c-.17.16-.37.24-.61.24-.16,0-.3-.04-.43-.11s-.23-.18-.29-.32c-.09.14-.19.23-.3.27s-.21.06-.3.06c-.21,0-.38-.08-.53-.23s-.22-.37-.22-.66.07-.5.22-.66.32-.23.53-.23c.09,0,.19.02.3.06s.2.13.28.27c.08-.14.18-.24.31-.31s.27-.11.43-.11c.24,0,.44.09.61.26s.25.42.25.74-.08.56-.25.72ZM55.2,94.75c.06-.06.1-.15.1-.26s-.03-.2-.1-.26-.15-.09-.25-.09c-.11,0-.2.03-.26.09s-.09.15-.09.26.03.2.09.26.15.09.26.09c.1,0,.19-.03.25-.1ZM56.16,94.89c.14,0,.25-.04.32-.11s.12-.17.12-.3-.04-.23-.12-.3-.19-.11-.32-.11-.25.04-.33.11-.11.17-.11.3.04.22.11.3.18.11.33.11Z"/><path class="c" d="M64.26,94.54c0,.21-.06.4-.19.57s-.31.27-.55.29v-.55c.08-.01.15-.05.2-.11s.08-.13.08-.23c0-.18-.1-.31-.3-.39-.11-.04-.28-.07-.49-.08.06.05.11.1.15.16.06.1.09.23.09.38,0,.23-.08.43-.23.6s-.38.26-.67.26-.55-.09-.74-.26-.28-.4-.28-.68c0-.43.19-.73.57-.89.22-.09.5-.14.85-.14s.63.04.86.13c.44.17.65.47.65.92ZM61.86,94.73c.08.11.22.16.42.16.17,0,.29-.03.38-.1s.13-.17.13-.32c0-.08-.02-.15-.07-.22-.08-.13-.22-.19-.42-.19-.16,0-.29.04-.38.11s-.14.18-.14.31c0,.1.03.18.08.24Z"/><path class="c" d="M71.36,95.17v.57h-1.95v.67h-.38c0-.18-.02-.3-.04-.37-.02-.11-.07-.2-.15-.27-.05-.05-.12-.08-.2-.11-.05-.01-.09-.02-.11-.02v-.46h2.83Z"/><path class="c" d="M71.43,93.36c0,.36-.13.61-.38.76s-.61.22-1.08.22-.83-.07-1.08-.22-.38-.4-.38-.76.13-.61.38-.76c.25-.14.61-.22,1.08-.22s.83.07,1.08.22.38.4.38.76ZM70.72,93.04c-.17-.05-.42-.08-.75-.08s-.59.03-.76.08-.25.16-.25.33.08.27.25.33.42.08.76.08.57-.03.75-.08.26-.16.26-.33-.09-.27-.26-.33Z"/><path class="c" d="M78.55,95.07v.57h-1.95v.67h-.38c0-.18-.02-.3-.04-.37-.02-.11-.07-.2-.15-.27-.05-.05-.12-.08-.2-.11-.05-.01-.09-.02-.11-.02v-.46h2.83Z"/><path class="c" d="M78.55,93.06v.57h-1.95v.67h-.38c0-.18-.02-.3-.04-.37-.02-.11-.07-.2-.15-.27-.05-.05-.12-.08-.2-.11-.05-.01-.09-.02-.11-.02v-.46h2.83Z"/><path class="c" d="M85.74,95.17v.57h-1.95v.67h-.38c0-.18-.02-.3-.04-.37-.02-.11-.07-.2-.15-.27-.05-.05-.12-.08-.2-.11-.05-.01-.09-.02-.11-.02v-.46h2.83Z"/><path class="c" d="M83.48,93.07c-.08.07-.12.16-.12.29,0,.17.06.28.19.35.07.04.19.06.35.06v.54c-.24,0-.44-.05-.58-.13-.28-.15-.42-.41-.42-.79,0-.3.08-.54.25-.71s.39-.27.66-.27c.21,0,.4.06.56.19.11.08.23.22.36.4l.16.22c.1.14.17.23.21.29s.1.09.15.13v-1.24h.49v1.94c-.2,0-.39-.05-.56-.13-.19-.08-.39-.27-.6-.56-.18-.26-.31-.42-.39-.5-.12-.12-.26-.17-.41-.17-.12,0-.22.03-.3.1Z"/><path class="c" d="M92.93,95.17v.57h-1.95v.67h-.38c0-.18-.02-.3-.04-.37-.02-.11-.07-.2-.15-.27-.05-.05-.12-.08-.2-.11-.05-.01-.09-.02-.11-.02v-.46h2.83Z"/><path class="c" d="M90.66,93.7c.08.06.19.09.33.09v.52c-.14,0-.27-.03-.4-.07-.11-.05-.21-.12-.31-.21-.07-.07-.12-.16-.15-.26s-.05-.22-.05-.37c0-.27.07-.49.21-.66s.33-.25.56-.25c.17,0,.31.05.42.15.07.06.12.13.15.2,0-.05.04-.12.13-.22.13-.14.31-.21.54-.21.24,0,.45.08.63.25s.27.41.27.74c0,.4-.13.68-.39.84-.14.08-.32.13-.55.14v-.55c.11,0,.21-.02.28-.05.14-.07.21-.19.21-.37,0-.11-.04-.2-.11-.29s-.18-.12-.32-.12c-.19,0-.31.08-.37.23-.04.09-.05.22-.05.41h-.4c0-.18-.02-.31-.05-.38-.05-.12-.17-.19-.33-.19-.11,0-.2.03-.26.09s-.1.15-.1.27c0,.13.04.23.12.29Z"/><path class="c" d="M100.12,95.17v.57h-1.95v.67h-.38c0-.18-.02-.3-.04-.37-.02-.11-.07-.2-.15-.27-.05-.05-.12-.08-.2-.11-.05-.01-.09-.02-.11-.02v-.46h2.83Z"/><path class="c" d="M99.07,92.37h.44v.32h.61v.54h-.61v1.12h-.49l-1.72-1.04v-.62h1.77v-.32ZM99.07,93.95v-.71h-1.22l1.22.71Z"/><path class="c" d="M107.31,95.17v.57h-1.95v.67h-.38c0-.18-.02-.3-.04-.37-.02-.11-.07-.2-.15-.27-.05-.05-.12-.08-.2-.11-.05-.01-.09-.02-.11-.02v-.46h2.83Z"/><path class="c" d="M105.9,93.4c0,.07,0,.13.03.18.03.09.09.15.17.2l-.02.5-1.56-.2v-1.56h.47v1.16l.62.1c-.06-.09-.09-.15-.11-.2-.03-.08-.04-.18-.04-.29,0-.23.08-.44.24-.61s.39-.26.69-.26c.26,0,.5.08.7.25s.31.42.31.75c0,.27-.07.49-.22.66s-.35.27-.62.29v-.55c.12-.02.21-.06.28-.13s.1-.15.1-.27c0-.14-.05-.24-.15-.32s-.22-.11-.37-.11-.27.03-.37.1-.15.17-.15.32Z"/><path class="c" d="M114.56,94.48c0,.36-.13.61-.38.76s-.61.22-1.08.22-.83-.07-1.08-.22-.38-.4-.38-.76.13-.61.38-.76c.25-.14.61-.22,1.08-.22s.83.07,1.08.22.38.4.38.76ZM113.85,94.15c-.17-.05-.42-.08-.75-.08s-.59.03-.76.08-.25.16-.25.33.08.27.25.33.42.08.76.08.57-.03.75-.08.26-.16.26-.33-.09-.27-.26-.33Z"/><path class="c" d="M121.68,94.06v.57h-1.95v.67h-.38c0-.18-.02-.3-.04-.37-.02-.11-.07-.2-.15-.27-.05-.05-.12-.08-.2-.11-.05-.01-.09-.02-.11-.02v-.46h2.83Z"/><path class="c" d="M6.8,61.15v.8l.44.15v.47l-2.16-.77v-.51l2.16-.76v.49l-.44.14ZM6.43,61.27l-.85.27.85.28v-.55Z"/><path class="c" d="M5.54,59.9c.06.05.15.07.25.07v.39c-.11,0-.21-.02-.3-.05-.08-.03-.16-.09-.23-.16-.05-.05-.09-.12-.11-.19s-.04-.17-.04-.28c0-.2.05-.37.16-.49.1-.12.25-.19.42-.19.12,0,.23.04.32.11.05.05.09.1.11.15,0-.04.03-.09.1-.16.1-.11.23-.16.4-.16.18,0,.34.06.47.19.14.12.2.31.2.55,0,.3-.1.51-.29.63-.1.06-.24.1-.41.1v-.41c.08,0,.16-.01.21-.04.1-.05.15-.14.15-.28,0-.08-.03-.15-.08-.21s-.14-.09-.24-.09c-.14,0-.23.06-.28.17-.03.06-.04.17-.04.3h-.3c0-.14-.02-.23-.04-.28-.04-.09-.12-.14-.25-.14-.08,0-.15.02-.2.07-.05.05-.08.11-.08.2,0,.1.03.17.09.22Z"/><path class="c" d="M6.8,53.91v.8l.44.15v.47l-2.16-.77v-.51l2.16-.76v.49l-.44.14ZM6.43,54.03l-.85.27.85.28v-.55Z"/><path class="c" d="M7.3,52.41c0,.27-.09.46-.28.57s-.46.16-.81.16-.62-.05-.81-.16-.29-.3-.29-.57.1-.46.29-.57c.19-.11.46-.16.81-.16s.62.05.81.16c.19.11.28.3.28.57ZM6.76,52.16c-.13-.04-.32-.06-.56-.06s-.45.02-.57.06c-.12.04-.18.12-.18.24s.06.21.18.25.31.06.57.06.43-.02.56-.06c.13-.04.19-.12.19-.25s-.06-.21-.19-.24Z"/><path class="c" d="M6.8,46.44v.8l.44.15v.47l-2.16-.77v-.51l2.16-.76v.49l-.44.14ZM6.43,46.56l-.85.27.85.28v-.55Z"/><path class="c" d="M7.24,44.63v.43h-1.46v.5h-.28c0-.13-.01-.22-.03-.28-.02-.08-.06-.15-.11-.21-.04-.04-.09-.06-.15-.08-.04-.01-.07-.02-.08-.02v-.35h2.12Z"/><path class="c" d="M6.8,39.24v.8l.44.15v.47l-2.16-.77v-.51l2.16-.76v.49l-.44.14ZM6.43,39.36l-.85.27.85.28v-.55Z"/><path class="c" d="M5.55,37.52c-.06.05-.09.12-.09.21,0,.13.05.21.14.26.05.03.14.04.26.05v.41c-.18,0-.33-.04-.44-.1-.21-.11-.32-.31-.32-.59,0-.22.06-.4.19-.54.12-.13.29-.2.49-.2.16,0,.3.05.42.14.08.06.17.16.27.3l.12.17c.07.1.13.18.16.21.03.04.07.07.12.1v-.93h.37v1.45c-.15,0-.29-.04-.42-.1-.14-.06-.29-.2-.45-.42-.14-.19-.24-.32-.3-.37-.09-.09-.19-.13-.3-.13-.09,0-.16.02-.22.07Z"/><path class="c" d="M9.43,184.55h-.7v-3.6h1.09l.65,2.83.65-2.83h1.08v3.6h-.7v-2.43c0-.07,0-.17,0-.29s0-.22,0-.29l-.68,3.02h-.73l-.68-3.02c0,.07,0,.17,0,.29s0,.22,0,.29v2.43Z"/><path class="c" d="M14.42,184.55h-.71v-2.44h-.83v-.47c.22,0,.37-.02.46-.04.14-.03.25-.09.34-.19.06-.06.11-.15.14-.25.02-.06.03-.11.03-.14h.58v3.54Z"/><path class="c" d="M15.43,182.83h1.4v.66h-1.4v-.66Z"/><path class="c" d="M22.07,184.55h-.7v-3.6h1.09l.65,2.83.65-2.83h1.08v3.6h-.7v-2.43c0-.07,0-.17,0-.29s0-.22,0-.29l-.68,3.02h-.73l-.68-3.02c0,.07,0,.17,0,.29s0,.22,0,.29v2.43Z"/><path class="c" d="M27.06,184.55h-.71v-2.44h-.83v-.47c.22,0,.37-.02.46-.04.14-.03.25-.09.34-.19.06-.06.11-.15.14-.25.02-.06.03-.11.03-.14h.58v3.54Z"/><path class="c" d="M29.77,183.55v1.01h-.64v-1.01h-1v-.64h1v-1h.64v1h1v.64h-1Z"/><path class="c" d="M38.13,184.59h-.7v-3.6h1.09l.65,2.83.65-2.83h1.08v3.6h-.7v-2.43c0-.07,0-.17,0-.29s0-.22,0-.29l-.68,3.02h-.73l-.68-3.02c0,.07,0,.17,0,.29s0,.22,0,.29v2.43Z"/><path class="c" d="M42.96,181.77c-.08-.1-.2-.15-.36-.15-.21,0-.36.08-.43.24-.04.09-.07.24-.08.43h-.68c.01-.3.07-.54.16-.73.19-.35.52-.53.99-.53.37,0,.67.1.89.31.22.21.33.48.33.82,0,.26-.08.49-.23.7-.1.13-.27.29-.51.45l-.28.2c-.17.12-.29.21-.36.27-.06.05-.12.12-.16.19h1.55v.61h-2.42c0-.25.06-.49.16-.7.1-.24.33-.49.7-.75.32-.23.53-.39.62-.49.15-.16.22-.32.22-.51,0-.15-.04-.27-.12-.37Z"/><path class="c" d="M44.12,182.86h1.4v.66h-1.4v-.66Z"/><path class="c" d="M51.67,184.68h-.7v-3.6h1.09l.65,2.83.65-2.83h1.08v3.6h-.7v-2.43c0-.07,0-.17,0-.29s0-.22,0-.29l-.68,3.02h-.73l-.68-3.02c0,.07,0,.17,0,.29s0,.22,0,.29v2.43Z"/><path class="c" d="M56.51,181.86c-.08-.1-.2-.15-.36-.15-.21,0-.36.08-.43.24-.04.09-.07.24-.08.43h-.68c.01-.3.07-.54.16-.73.19-.35.52-.53.99-.53.37,0,.67.1.89.31.22.21.33.48.33.82,0,.26-.08.5-.23.7-.1.13-.27.29-.51.45l-.28.2c-.17.12-.29.21-.36.27-.06.05-.12.12-.16.19h1.55v.61h-2.42c0-.25.06-.49.16-.7.1-.24.33-.49.7-.75.32-.23.53-.39.62-.49.15-.15.22-.32.22-.51,0-.15-.04-.27-.12-.37Z"/><path class="c" d="M59.37,183.68v1.01h-.64v-1.01h-1v-.64h1v-1h.64v1h1v.64h-1Z"/><path class="c" d="M77.81,184.68h-.7v-3.6h1.09l.65,2.83.65-2.83h1.08v3.6h-.7v-2.43c0-.07,0-.17,0-.29s0-.22,0-.29l-.68,3.02h-.73l-.68-3.02c0,.07,0,.17,0,.29s0,.22,0,.29v2.43Z"/><path class="c" d="M81.87,181.85c-.08.1-.12.24-.11.42h-.65c0-.18.04-.34.09-.5.06-.14.15-.27.27-.38.09-.08.2-.15.32-.19s.28-.07.46-.07c.34,0,.61.09.82.26.21.17.31.41.31.7,0,.21-.06.38-.19.53-.08.09-.16.15-.24.18.06,0,.15.05.27.16.18.16.27.39.27.67s-.1.56-.31.79c-.21.23-.52.34-.92.34-.5,0-.85-.16-1.04-.49-.1-.17-.16-.4-.17-.68h.68c0,.14.02.26.07.35.08.17.24.26.46.26.14,0,.26-.05.36-.14.1-.09.15-.23.15-.4,0-.23-.09-.39-.28-.47-.11-.04-.28-.07-.51-.07v-.5c.23,0,.38-.03.47-.07.15-.07.23-.21.23-.42,0-.13-.04-.25-.12-.33-.08-.08-.19-.13-.33-.13-.16,0-.28.05-.36.16Z"/><path class="c" d="M83.8,182.96h1.4v.66h-1.4v-.66Z"/><path class="c" d="M91.36,184.36h-.7v-3.6h1.09l.65,2.83.65-2.83h1.08v3.6h-.7v-2.43c0-.07,0-.17,0-.29s0-.22,0-.29l-.68,3.02h-.73l-.68-3.02c0,.07,0,.17,0,.29s0,.22,0,.29v2.43Z"/><path class="c" d="M95.41,181.52c-.08.1-.12.24-.11.42h-.65c0-.18.04-.34.09-.5.06-.14.15-.27.27-.38.09-.08.2-.15.32-.19s.28-.07.46-.07c.34,0,.61.09.82.26.21.17.31.41.31.7,0,.21-.06.38-.19.53-.08.09-.16.15-.24.18.06,0,.15.05.27.16.18.17.27.39.27.67,0,.3-.1.56-.31.79-.21.23-.52.34-.92.34-.5,0-.85-.16-1.04-.49-.1-.17-.16-.4-.17-.68h.68c0,.14.02.26.07.35.08.17.24.26.46.26.14,0,.26-.05.36-.14.1-.09.15-.23.15-.4,0-.23-.09-.39-.28-.47-.11-.04-.28-.07-.51-.07v-.5c.23,0,.38-.03.47-.07.15-.07.23-.21.23-.42,0-.14-.04-.25-.12-.33-.08-.08-.19-.13-.33-.13-.16,0-.28.05-.36.16Z"/><path class="c" d="M99.05,183.35v1.01h-.64v-1.01h-1v-.64h1v-1h.64v1h1v.64h-1Z"/><path class="c" d="M105.19,184.35h-.7v-3.6h1.09l.65,2.83.65-2.83h1.08v3.6h-.7v-2.43c0-.07,0-.17,0-.29s0-.22,0-.29l-.68,3.02h-.73l-.68-3.02c0,.07,0,.17,0,.29s0,.22,0,.29v2.43Z"/><path class="c" d="M110.9,183.04v.54h-.4v.76h-.68v-.76h-1.4v-.61l1.3-2.15h.78v2.21h.4ZM108.93,183.04h.89v-1.53l-.89,1.53Z"/><path class="c" d="M111.18,182.62h1.4v.66h-1.4v-.66Z"/><path class="c" d="M119.71,184.68h-.7v-3.6h1.09l.65,2.83.65-2.83h1.08v3.6h-.7v-2.43c0-.07,0-.17,0-.29s0-.22,0-.29l-.68,3.02h-.73l-.68-3.02c0,.07,0,.17,0,.29s0,.22,0,.29v2.43Z"/><path class="c" d="M125.42,183.38v.54h-.4v.76h-.68v-.76h-1.4v-.61l1.3-2.15h.78v2.21h.4ZM123.45,183.38h.89v-1.53l-.89,1.53Z"/><path class="c" d="M127.4,183.68v1.01h-.64v-1.01h-1v-.64h1v-1h.64v1h1v.64h-1Z"/><path class="c" d="M4.19,78.38c.18,0,.32-.02.43-.06.21-.07.31-.21.31-.42,0-.12-.05-.21-.16-.28-.1-.06-.27-.12-.49-.17l-.38-.09c-.37-.08-.63-.18-.78-.28-.24-.17-.36-.43-.36-.78,0-.32.12-.59.35-.8s.58-.32,1.03-.32c.38,0,.7.1.97.3.27.2.41.49.42.88h-.72c-.01-.22-.11-.37-.28-.46-.12-.06-.26-.09-.44-.09-.19,0-.35.04-.46.12s-.17.19-.17.33c0,.13.06.22.17.29.07.04.23.09.47.15l.62.15c.27.06.48.15.62.26.21.17.32.41.32.73s-.13.6-.38.82c-.25.22-.61.33-1.07.33s-.84-.11-1.11-.32c-.27-.21-.4-.51-.4-.88h.72c.02.16.07.29.13.37.12.15.33.22.63.22Z"/><path class="c" d="M8.72,77.33h-1.75v.93h1.99v.65h-2.73v-3.6h2.64v.64h-1.9v.76h1.75v.62Z"/><path class="c" d="M11.08,77.49h-.78v1.41h-.73v-3.6h1.77c.25,0,.45.04.58.09.14.06.25.14.35.25.08.09.14.19.19.3s.07.24.07.38c0,.17-.04.34-.13.5-.09.17-.23.28-.43.35.17.07.28.16.35.28.07.12.1.31.1.56v.24c0,.16,0,.28.02.33.02.09.06.16.14.21v.09h-.83c-.02-.08-.04-.14-.05-.19-.02-.1-.03-.2-.03-.31v-.33c0-.23-.05-.38-.13-.46-.08-.08-.23-.11-.45-.11ZM11.54,76.83c.15-.07.22-.2.22-.41,0-.22-.07-.36-.22-.44-.08-.04-.2-.06-.37-.06h-.87v.97h.85c.17,0,.3-.02.38-.06Z"/><path class="c" d="M12.81,75.3h.8l.78,2.73.79-2.73h.78l-1.23,3.6h-.71l-1.22-3.6Z"/><path class="c" d="M18,79c-.51,0-.91-.14-1.18-.42-.36-.34-.55-.84-.55-1.48s.18-1.15.55-1.48c.27-.28.67-.42,1.18-.42s.91.14,1.18.42c.36.33.54.83.54,1.48s-.18,1.14-.54,1.48c-.27.28-.67.42-1.18.42ZM18.71,78.03c.17-.22.26-.53.26-.94s-.09-.72-.26-.94c-.17-.22-.41-.33-.71-.33s-.54.11-.71.33-.27.53-.27.94.09.72.27.94.42.33.71.33.53-.11.71-.33Z"/><path class="c" d="M21.57,78.9v-3.63h.64v3.63h-.64Z"/><path class="c" d="M25.17,78.9h-.7v-3.6h1.09l.65,2.83.65-2.83h1.08v3.6h-.7v-2.43c0-.07,0-.17,0-.29,0-.13,0-.22,0-.29l-.68,3.02h-.73l-.68-3.02c0,.07,0,.17,0,.29,0,.13,0,.22,0,.29v2.43Z"/><path class="c" d="M30.23,79c-.51,0-.91-.14-1.18-.42-.36-.34-.55-.84-.55-1.48s.18-1.15.55-1.48c.27-.28.67-.42,1.18-.42s.91.14,1.18.42c.36.33.54.83.54,1.48s-.18,1.14-.54,1.48c-.27.28-.67.42-1.18.42ZM30.94,78.03c.17-.22.26-.53.26-.94s-.09-.72-.26-.94c-.17-.22-.41-.33-.71-.33s-.54.11-.71.33-.27.53-.27.94.09.72.27.94.42.33.71.33.53-.11.71-.33Z"/><path class="c" d="M35.15,75.3v.64h-1.08v2.96h-.76v-2.96h-1.08v-.64h2.92Z"/><path class="c" d="M37.09,79c-.51,0-.91-.14-1.18-.42-.36-.34-.55-.84-.55-1.48s.18-1.15.55-1.48c.27-.28.67-.42,1.18-.42s.91.14,1.18.42c.36.33.54.83.54,1.48s-.18,1.14-.54,1.48c-.27.28-.67.42-1.18.42ZM37.8,78.03c.17-.22.26-.53.26-.94s-.09-.72-.26-.94c-.17-.22-.41-.33-.71-.33s-.54.11-.71.33-.27.53-.27.94.09.72.27.94.42.33.71.33.53-.11.71-.33Z"/><path class="c" d="M40.91,77.49h-.78v1.41h-.73v-3.6h1.77c.25,0,.45.04.58.09.14.06.25.14.35.25.08.09.14.19.19.3s.07.24.07.38c0,.17-.04.34-.13.5-.09.17-.23.28-.43.35.17.07.28.16.35.28.07.12.1.31.1.56v.24c0,.16,0,.28.02.33.02.09.06.16.14.21v.09h-.83c-.02-.08-.04-.14-.05-.19-.02-.1-.03-.2-.03-.31v-.33c0-.23-.05-.38-.13-.46-.08-.08-.23-.11-.45-.11ZM41.37,76.83c.15-.07.22-.2.22-.41,0-.22-.07-.36-.22-.44-.08-.04-.2-.06-.37-.06h-.87v.97h.85c.17,0,.3-.02.38-.06Z"/><path class="c" d="M93.27,78.36c.18,0,.32-.02.43-.06.21-.07.31-.21.31-.42,0-.12-.05-.21-.16-.28-.1-.06-.27-.12-.49-.17l-.38-.09c-.37-.08-.63-.18-.78-.28-.24-.17-.36-.43-.36-.78,0-.32.12-.59.35-.8s.58-.32,1.03-.32c.38,0,.7.1.97.3.27.2.41.49.42.88h-.72c-.01-.22-.11-.37-.28-.46-.12-.06-.26-.09-.44-.09-.19,0-.35.04-.46.12s-.17.19-.17.33c0,.13.06.22.17.29.07.04.23.09.47.15l.62.15c.27.06.48.15.62.26.21.17.32.41.32.73s-.13.6-.38.82c-.25.22-.61.33-1.07.33s-.84-.11-1.11-.32c-.27-.21-.4-.51-.4-.88h.72c.02.16.07.29.13.37.12.15.33.22.63.22Z"/><path class="c" d="M97.81,77.31h-1.75v.93h1.99v.65h-2.73v-3.6h2.64v.64h-1.9v.76h1.75v.62Z"/><path class="c" d="M100.16,77.47h-.78v1.41h-.73v-3.6h1.77c.25,0,.45.04.58.09.14.06.25.14.35.25.08.09.14.19.19.3s.07.24.07.38c0,.17-.04.34-.13.5-.09.17-.23.28-.43.35.17.07.28.16.35.28.07.12.1.31.1.56v.24c0,.16,0,.28.02.33.02.09.06.16.14.21v.09h-.83c-.02-.08-.04-.14-.05-.19-.02-.1-.03-.2-.03-.31v-.33c0-.23-.05-.38-.13-.46-.08-.08-.23-.11-.45-.11ZM100.62,76.81c.15-.07.22-.2.22-.41,0-.22-.07-.36-.22-.44-.08-.04-.2-.06-.37-.06h-.87v.97h.85c.17,0,.3-.02.38-.06Z"/><path class="c" d="M101.89,75.28h.8l.78,2.73.79-2.73h.78l-1.23,3.6h-.71l-1.22-3.6Z"/><path class="c" d="M107.08,78.98c-.51,0-.91-.14-1.18-.42-.36-.34-.55-.84-.55-1.48s.18-1.15.55-1.48c.27-.28.67-.42,1.18-.42s.91.14,1.18.42c.36.33.54.83.54,1.48s-.18,1.14-.54,1.48c-.27.28-.67.42-1.18.42ZM107.8,78.01c.17-.22.26-.53.26-.94s-.09-.72-.26-.94c-.17-.22-.41-.33-.71-.33s-.54.11-.71.33-.27.53-.27.94.09.72.27.94.42.33.71.33.53-.11.71-.33Z"/><path class="c" d="M110.65,78.88v-3.63h.64v3.63h-.64Z"/><path class="c" d="M114.25,78.88h-.7v-3.6h1.09l.65,2.83.65-2.83h1.08v3.6h-.7v-2.43c0-.07,0-.17,0-.29,0-.13,0-.22,0-.29l-.68,3.02h-.73l-.68-3.02c0,.07,0,.17,0,.29,0,.13,0,.22,0,.29v2.43Z"/><path class="c" d="M119.32,78.98c-.51,0-.91-.14-1.18-.42-.36-.34-.55-.84-.55-1.48s.18-1.15.55-1.48c.27-.28.67-.42,1.18-.42s.91.14,1.18.42c.36.33.54.83.54,1.48s-.18,1.14-.54,1.48c-.27.28-.67.42-1.18.42ZM120.03,78.01c.17-.22.26-.53.26-.94s-.09-.72-.26-.94c-.17-.22-.41-.33-.71-.33s-.54.11-.71.33-.27.53-.27.94.09.72.27.94.42.33.71.33.53-.11.71-.33Z"/><path class="c" d="M124.23,75.28v.64h-1.08v2.96h-.76v-2.96h-1.08v-.64h2.92Z"/><path class="c" d="M126.17,78.98c-.51,0-.91-.14-1.18-.42-.36-.34-.55-.84-.55-1.48s.18-1.15.55-1.48c.27-.28.67-.42,1.18-.42s.91.14,1.18.42c.36.33.54.83.54,1.48s-.18,1.14-.54,1.48c-.27.28-.67.42-1.18.42ZM126.88,78.01c.17-.22.26-.53.26-.94s-.09-.72-.26-.94c-.17-.22-.41-.33-.71-.33s-.54.11-.71.33-.27.53-.27.94.09.72.27.94.42.33.71.33.53-.11.71-.33Z"/><path class="c" d="M130,77.47h-.78v1.41h-.73v-3.6h1.77c.25,0,.45.04.58.09.14.06.25.14.35.25.08.09.14.19.19.3s.07.24.07.38c0,.17-.04.34-.13.5-.09.17-.23.28-.43.35.17.07.28.16.35.28.07.12.1.31.1.56v.24c0,.16,0,.28.02.33.02.09.06.16.14.21v.09h-.83c-.02-.08-.04-.14-.05-.19-.02-.1-.03-.2-.03-.31v-.33c0-.23-.05-.38-.13-.46-.08-.08-.23-.11-.45-.11ZM130.45,76.81c.15-.07.22-.2.22-.41,0-.22-.07-.36-.22-.44-.08-.04-.2-.06-.37-.06h-.87v.97h.85c.17,0,.3-.02.38-.06Z"/><rect class="d" x="7.93" y="89.14" width="43.48" height="57.05"/><rect class="d" x="52.92" y="89.15" width="42.19" height="57.02"/><line class="d" x1="95.06" y1="89.18" x2="95.15" y2="79.91"/><line class="d" x1="7.91" y1="89.33" x2="8" y2="80.06"/><line class="d" x1="86.64" y1="172.76" x2="86.9" y2="146.17"/><line class="d" x1="19.85" y1="172.46" x2="20.11" y2="145.87"/></g></svg>