<?xml version="1.0" encoding="UTF-8"?><svg id="a" xmlns="http://www.w3.org/2000/svg" width="47.1mm" height="75.21mm" viewBox="0 0 133.51 213.19"><defs><style>.b{fill:#000;stroke-width:0px;}</style></defs><path class="b" d="M100.48,27.18h-1.2v-5.76h1.2v5.76Z"/><path class="b" d="M95.79,23.27c0,.29.12.56.35.81.15.16.48.42,1,.79.59.42.97.82,1.12,1.2.16.34.25.71.26,1.11h-3.88v-.98h2.47c-.07-.12-.16-.22-.26-.31s-.29-.23-.57-.43l-.45-.32c-.38-.27-.64-.51-.81-.72-.25-.33-.38-.7-.38-1.12,0-.55.18-.99.53-1.32s.83-.5,1.43-.5c.76,0,1.29.28,1.58.85.16.3.24.69.26,1.17h-1.08c-.01-.32-.05-.55-.12-.7-.12-.25-.35-.38-.69-.38-.25,0-.44.08-.57.24s-.2.36-.2.6Z"/><path class="b" d="M88.85,25.22h1.19c.08.3.18.52.3.67.22.28.54.41.96.41s.75-.16,1.02-.48.4-.81.4-1.45-.13-1.15-.38-1.5-.6-.53-1.04-.53-.75.12-.97.38c-.12.14-.22.35-.3.62h-1.2c.02-.36.15-.72.4-1.07.45-.64,1.16-.95,2.12-.95.72,0,1.32.24,1.79.71.54.54.81,1.32.81,2.32,0,.93-.24,1.66-.71,2.2-.47.53-1.12.8-1.95.8-.67,0-1.22-.2-1.65-.59-.43-.39-.69-.9-.8-1.53Z"/><path class="b" d="M84.62,25.99c.11-.13.18-.33.21-.59h1.15c0,.6-.21,1.07-.64,1.41s-1.02.51-1.77.51-1.3-.17-1.71-.52-.6-.78-.6-1.31.17-.9.52-1.18c.22-.17.55-.31.98-.42l.99-.24c.38-.09.63-.17.75-.24.18-.1.27-.26.27-.46,0-.22-.09-.4-.28-.52s-.43-.19-.74-.19c-.28,0-.51.05-.7.14-.28.15-.43.39-.45.74h-1.16c.02-.61.25-1.08.67-1.4s.95-.48,1.55-.48c.73,0,1.28.17,1.65.51s.56.77.56,1.29c0,.56-.19.98-.58,1.25-.23.16-.64.31-1.24.44l-.61.14c-.36.08-.62.17-.79.27-.17.1-.25.25-.25.44,0,.33.17.55.5.67.18.06.41.09.69.09.47,0,.81-.12,1-.36Z"/><path class="b" d="M77.96,25.93c.06.12.13.22.21.29.14.13.33.2.56.2.22,0,.4-.05.55-.16.25-.17.39-.47.4-.9h-2.91c0-.37,0-.65.04-.84.05-.33.16-.63.32-.88.19-.29.42-.5.7-.63s.6-.2.96-.2c.6,0,1.08.2,1.46.59s.56.96.56,1.7c0,.79-.21,1.35-.62,1.7s-.89.52-1.43.52c-.66,0-1.17-.21-1.53-.62-.23-.26-.37-.52-.39-.77h1.14ZM79.65,24.63c-.04-.28-.13-.49-.27-.66s-.34-.24-.6-.24c-.24,0-.44.08-.6.23s-.25.38-.27.67h1.73Z"/><path class="b" d="M73.74,23.95c-.05,0-.12,0-.19.02v-1.14s.08,0,.1,0,.03,0,.05,0c.33,0,.6.09.81.26.13.1.28.3.45.58v-.74h1.06v4.26h-1.12v-2.04c0-.34-.04-.59-.13-.76-.15-.29-.45-.44-.9-.44-.03,0-.08,0-.13,0Z"/><path class="b" d="M71.79,27.18h-1.18l-1.54-4.26h1.2l.91,3.14.89-3.14h1.25l-1.53,4.26Z"/><path class="b" d="M66.54,22.79c.73,0,1.28.23,1.64.68s.54.98.54,1.6-.18,1.16-.54,1.6-.9.67-1.64.67-1.28-.22-1.64-.67-.54-.98-.54-1.6.18-1.15.54-1.6.9-.68,1.64-.68ZM65.79,24.07c-.17.23-.26.56-.26.99s.09.76.26.99.42.35.75.35.58-.12.75-.35.26-.56.26-.99-.09-.76-.26-.99-.43-.35-.75-.35-.58.12-.75.35Z"/><path class="b" d="M57.35,25.57v-1.02h1.6v-1.6h1.03v1.6h1.6v1.02h-1.6v1.61h-1.03v-1.61h-1.6Z"/><path class="b" d="M53.26,23.29c0-.11,0-.27,0-.47s0-.36,0-.47l-1.08,4.83h-1.17l-1.09-4.83c0,.11,0,.27,0,.47s0,.36,0,.47v3.89h-1.12v-5.76h1.73l1.04,4.53,1.05-4.53h1.75v5.76h-1.12v-3.89Z"/><path class="b" d="M45.87,22.79c.73,0,1.28.23,1.64.68s.54.98.54,1.6-.18,1.16-.54,1.6-.9.67-1.64.67-1.28-.22-1.64-.67-.54-.98-.54-1.6.18-1.15.54-1.6.9-.68,1.64-.68ZM45.12,24.07c-.17.23-.26.56-.26.99s.09.76.26.99.42.35.75.35.58-.12.75-.35.26-.56.26-.99-.09-.76-.26-.99-.43-.35-.75-.35-.58.12-.75.35Z"/><path class="b" d="M41.06,26.39s.07,0,.11,0c.23,0,.36-.02.41-.06s.07-.15.07-.33v-2.25h-.69v-.79h.69v-1.19h1.1v1.19h.59v.79h-.59v2.62c0,.27-.06.46-.19.59-.19.2-.55.29-1.08.27l-.53-.02v-.83s.07,0,.11,0Z"/><path class="b" d="M38.32,22.79c.73,0,1.28.23,1.64.68s.54.98.54,1.6-.18,1.16-.54,1.6-.9.67-1.64.67-1.28-.22-1.64-.67-.54-.98-.54-1.6.18-1.15.54-1.6.9-.68,1.64-.68ZM37.57,24.07c-.17.23-.26.56-.26.99s.09.76.26.99.42.35.75.35.58-.12.75-.35.26-.56.26-.99-.09-.76-.26-.99-.43-.35-.75-.35-.58.12-.75.35Z"/><path class="b" d="M33.07,23.95c-.05,0-.12,0-.19.02v-1.14s.08,0,.1,0,.03,0,.05,0c.33,0,.6.09.81.26.13.1.28.3.45.58v-.74h1.06v4.26h-1.12v-2.04c0-.34-.04-.59-.13-.76-.15-.29-.45-.44-.9-.44-.03,0-.08,0-.13,0Z"/><path class="b" d="M27.27,21.43v2.03c.12-.2.29-.36.49-.47s.43-.17.69-.17c.56,0,1.01.21,1.34.62s.5.99.5,1.71c0,.63-.17,1.15-.51,1.55s-.76.6-1.26.6c-.3,0-.55-.06-.76-.17s-.38-.3-.54-.55v.59h-1.08v-5.75h1.13ZM28.91,24.16c-.15-.25-.39-.37-.72-.37-.21,0-.4.07-.56.2-.26.22-.39.6-.39,1.12,0,.37.08.68.25.91s.4.35.72.35.55-.12.7-.36c.16-.23.23-.55.23-.94,0-.36-.08-.67-.23-.92Z"/><path class="b" d="M22.85,23.95c-.05,0-.12,0-.19.02v-1.14s.08,0,.1,0,.03,0,.05,0c.33,0,.6.09.81.26.13.1.28.3.45.58v-.74h1.06v4.26h-1.12v-2.04c0-.34-.04-.59-.13-.76-.15-.29-.45-.44-.9-.44-.03,0-.08,0-.13,0Z"/><path class="b" d="M22,21.39v1.03h-1.13v-1.03h1.13ZM22,22.92v4.26h-1.13v-4.26h1.13Z"/><path class="b" d="M18.68,27.18h-1.18l-1.54-4.26h1.2l.91,3.14.89-3.14h1.25l-1.53,4.26Z"/><path class="b" d="M12.83,25.93c.06.12.13.22.21.29.14.13.33.2.56.2.22,0,.4-.05.55-.16.25-.17.39-.47.4-.9h-2.91c0-.37,0-.65.04-.84.05-.33.16-.63.32-.88.19-.29.42-.5.7-.63s.6-.2.96-.2c.6,0,1.08.2,1.46.59s.56.96.56,1.7c0,.79-.21,1.35-.62,1.7s-.89.52-1.43.52c-.66,0-1.17-.21-1.53-.62-.23-.26-.37-.52-.39-.77h1.14ZM14.53,24.63c-.04-.28-.13-.49-.27-.66s-.34-.24-.6-.24c-.24,0-.44.08-.6.23s-.25.38-.27.67h1.73Z"/><path class="b" d="M8.62,23.95c-.05,0-.12,0-.19.02v-1.14s.08,0,.1,0,.03,0,.05,0c.33,0,.6.09.81.26.13.1.28.3.45.58v-.74h1.06v4.26h-1.12v-2.04c0-.34-.04-.59-.13-.76-.15-.29-.45-.44-.9-.44-.03,0-.08,0-.13,0Z"/><path class="b" d="M99.82,38.37h-.71l-1.23-3.6h.78l.79,2.73.78-2.73h.8l-1.22,3.6Z"/><path class="b" d="M94.4,37.15h.74c.05.19.11.32.19.42.14.17.34.26.6.26s.47-.1.64-.3c.17-.2.25-.5.25-.91s-.08-.72-.24-.94c-.16-.22-.37-.33-.65-.33s-.47.08-.61.23c-.08.09-.14.22-.19.39h-.75c.01-.22.09-.45.25-.67.28-.4.72-.6,1.33-.6.45,0,.83.15,1.12.44.34.34.51.82.51,1.45,0,.58-.15,1.04-.44,1.37-.3.33-.7.5-1.22.5-.42,0-.76-.12-1.03-.37-.27-.25-.43-.56-.5-.96Z"/><path class="b" d="M90.78,37.15h.74c.05.19.11.32.19.42.14.17.34.26.6.26s.47-.1.64-.3c.17-.2.25-.5.25-.91s-.08-.72-.24-.94c-.16-.22-.37-.33-.65-.33s-.47.08-.61.23c-.08.09-.14.22-.19.39h-.75c.01-.22.09-.45.25-.67.28-.4.72-.6,1.33-.6.45,0,.83.15,1.12.44.34.34.51.82.51,1.45,0,.58-.15,1.04-.44,1.37-.3.33-.7.5-1.22.5-.42,0-.76-.12-1.03-.37-.27-.25-.43-.56-.5-.96Z"/><path class="b" d="M89.29,36.55v-.73h.74v.73h-.74ZM90.03,37.65v.73h-.74v-.73h.74Z"/><path class="b" d="M86.22,35.38c-.14,0-.25.04-.33.13-.08.08-.12.19-.12.33,0,.21.08.35.23.42.09.04.25.06.47.07v.5c-.23,0-.4.02-.51.07-.19.08-.28.23-.28.47,0,.18.05.31.15.4.1.09.22.14.36.14.22,0,.38-.09.46-.26.05-.09.07-.21.07-.35h.68c-.01.28-.07.51-.17.68-.2.33-.54.49-1.04.49-.41,0-.71-.11-.92-.34-.21-.23-.31-.49-.31-.79s.09-.51.27-.67c.12-.11.21-.16.27-.16-.08-.03-.17-.09-.24-.18-.12-.14-.19-.32-.19-.53,0-.29.1-.53.31-.7.21-.17.48-.26.82-.26.18,0,.34.02.46.07s.23.11.32.19c.12.12.21.25.27.38.05.16.08.32.09.5h-.65c0-.17-.03-.31-.11-.42-.08-.1-.2-.16-.36-.16Z"/><path class="b" d="M84.64,37.31h-1.4v-.66h1.4v.66Z"/><path class="b" d="M81.36,36.8c-.08.12-.13.28-.13.46s.04.34.14.46c.09.12.22.18.39.18.15,0,.26-.04.34-.12.08-.08.13-.2.16-.35h.69c-.02.33-.15.59-.36.77s-.49.27-.83.27c-.42,0-.73-.13-.94-.39s-.31-.55-.31-.88c0-.38.11-.66.33-.86s.47-.3.77-.3c.15,0,.27.02.37.06.06.02.14.07.25.14l-.13-.77h-1.45v-.59h1.95l.25,1.96-.62.03c-.06-.11-.14-.18-.25-.22-.06-.02-.14-.03-.22-.03-.18,0-.31.06-.4.19Z"/><path class="b" d="M78.98,38.37h-.71l-1.23-3.6h.78l.79,2.73.78-2.73h.8l-1.22,3.6Z"/><path class="b" d="M99.82,44.37h-.71l-1.23-3.6h.78l.79,2.73.78-2.73h.8l-1.22,3.6Z"/><path class="b" d="M94.99,43.37v-.64h1v-1h.64v1h1v.64h-1v1.01h-.64v-1.01h-1Z"/><path class="b" d="M93.59,42.55v-.73h.74v.73h-.74ZM94.33,43.65v.73h-.74v-.73h.74Z"/><path class="b" d="M90.52,41.38c-.14,0-.25.04-.33.13-.08.08-.12.19-.12.33,0,.21.08.35.23.42.09.04.25.06.47.07v.5c-.23,0-.4.02-.51.07-.19.08-.28.23-.28.47,0,.18.05.31.15.4.1.09.22.14.36.14.22,0,.38-.09.46-.26.05-.09.07-.21.07-.35h.68c-.01.28-.07.51-.17.68-.2.33-.54.49-1.04.49-.41,0-.71-.11-.92-.34-.21-.23-.31-.49-.31-.79s.09-.51.27-.67c.12-.11.21-.16.27-.16-.08-.03-.17-.09-.24-.18-.12-.14-.19-.32-.19-.53,0-.29.1-.53.31-.7.21-.17.48-.26.82-.26.18,0,.34.02.46.07s.23.11.32.19c.12.12.21.25.27.38.05.16.08.32.09.5h-.65c0-.17-.03-.31-.11-.42-.08-.1-.2-.16-.36-.16Z"/><path class="b" d="M88.94,43.31h-1.4v-.66h1.4v.66Z"/><path class="b" d="M85.5,40.83h.58s0,.08.03.14c.03.11.08.19.14.25.09.09.2.15.34.19.09.02.24.03.46.04v.47h-.83v2.44h-.71v-3.54Z"/><path class="b" d="M82.75,41.93c0,.18.07.35.22.51.09.1.3.26.62.49.37.26.6.51.7.75.1.21.16.44.16.7h-2.42v-.61h1.55c-.04-.07-.1-.14-.16-.19-.06-.06-.18-.15-.36-.27l-.28-.2c-.23-.17-.4-.32-.51-.45-.16-.2-.23-.44-.23-.7,0-.34.11-.62.33-.82.22-.21.52-.31.89-.31.47,0,.8.18.99.53.1.19.15.43.16.73h-.68c0-.2-.03-.34-.08-.43-.08-.16-.22-.24-.43-.24-.15,0-.27.05-.36.15s-.12.22-.12.37Z"/><path class="b" d="M80.5,44.37h-.71l-1.23-3.6h.78l.79,2.73.78-2.73h.8l-1.22,3.6Z"/><path class="b" d="M99.26,46.83h.58s0,.08.03.14c.03.11.08.19.14.25.09.09.2.15.34.19.09.02.24.03.46.04v.47h-.83v2.44h-.71v-3.54Z"/><path class="b" d="M98.06,50.37h-.74v-.73h.74v.73Z"/><path class="b" d="M95.12,47.93c0,.18.07.35.22.51.09.1.3.26.62.49.37.26.6.51.7.75.1.21.16.44.16.7h-2.42v-.61h1.55c-.04-.07-.1-.14-.16-.19-.06-.06-.18-.15-.36-.27l-.28-.2c-.23-.17-.4-.32-.51-.45-.16-.2-.23-.44-.23-.7,0-.34.11-.62.33-.82.22-.21.52-.31.89-.31.47,0,.8.18.99.53.1.19.15.43.16.73h-.68c0-.2-.03-.34-.08-.43-.08-.16-.22-.24-.43-.24-.15,0-.27.05-.36.15s-.12.22-.12.37Z"/><path class="b" d="M91.48,50.37h-.82l1.27-3.6h.85l1.28,3.6h-.79l-.25-.74h-1.33l-.23.74ZM92.83,49.02l-.46-1.42-.45,1.42h.91Z"/><path class="b" d="M87.13,47.87c.21-.15.49-.22.82-.22.39,0,.7.13.92.38s.33.61.33,1.07c0,.41-.1.73-.3.99s-.52.38-.94.38-.75-.15-.97-.46c-.14-.19-.21-.39-.23-.6h.71c.01.14.06.25.12.34s.18.13.35.13c.23,0,.39-.11.47-.33.05-.12.07-.28.07-.47,0-.21-.02-.37-.07-.49-.09-.23-.25-.35-.48-.35-.16,0-.29.05-.36.16-.05.08-.09.17-.1.27h-.71c.04-.38.17-.64.38-.79Z"/><path class="b" d="M85.08,47.63c.46,0,.8.14,1.02.42s.34.61.34,1-.11.72-.34,1c-.22.28-.57.42-1.02.42s-.8-.14-1.02-.42c-.22-.28-.34-.61-.34-1s.11-.72.34-1,.57-.42,1.02-.42ZM84.61,48.43c-.11.14-.16.35-.16.62s.05.47.16.62.27.22.47.22.36-.07.47-.22c.11-.15.17-.35.17-.62s-.05-.47-.17-.62c-.11-.14-.27-.22-.47-.22s-.36.07-.47.22Z"/><path class="b" d="M81.58,48.43c-.04.07-.06.18-.06.32v1.62h-.71v-1.79c0-.33.09-.57.26-.72.18-.14.4-.22.68-.22.22,0,.4.05.54.16.08.06.16.16.25.3v-.39h.67v2.66h-.69v-1.44c0-.16-.02-.3-.07-.41-.09-.2-.25-.3-.49-.3-.19,0-.32.07-.39.21Z"/><path class="b" d="M79.02,49.88s.05,0,.07,0c.14,0,.23-.01.25-.04.03-.03.04-.09.04-.2v-1.41h-.43v-.5h.43v-.74h.69v.74h.37v.5h-.37v1.64c0,.17-.04.29-.12.37-.12.13-.35.18-.67.17h-.33v-.53s.05,0,.07,0Z"/><path class="b" d="M78.49,46.75v.64h-.71v-.64h.71ZM78.49,47.71v2.66h-.71v-2.66h.71Z"/><path class="b" d="M75.47,48.43c-.04.07-.06.18-.06.32v1.62h-.71v-1.79c0-.33.09-.57.26-.72.18-.14.4-.22.68-.22.22,0,.4.05.54.16.08.06.16.16.25.3v-.39h.67v2.66h-.69v-1.44c0-.16-.02-.3-.07-.41-.09-.2-.25-.3-.49-.3-.19,0-.32.07-.39.21Z"/><path class="b" d="M72.86,47.63c.46,0,.8.14,1.02.42s.34.61.34,1-.11.72-.34,1c-.22.28-.57.42-1.02.42s-.8-.14-1.02-.42c-.22-.28-.34-.61-.34-1s.11-.72.34-1,.57-.42,1.02-.42ZM72.4,48.43c-.11.14-.16.35-.16.62s.05.47.16.62.27.22.47.22.36-.07.47-.22c.11-.15.17-.35.17-.62s-.05-.47-.17-.62c-.11-.14-.27-.22-.47-.22s-.36.07-.47.22Z"/><path class="b" d="M69.3,50.37h-.68v-2.66h.71v1.45c0,.17.02.31.07.41.09.19.25.29.49.29.19,0,.31-.07.37-.2.04-.08.05-.19.05-.34v-1.6h.71v1.6c0,.3-.04.53-.11.69-.14.28-.4.42-.8.42-.14,0-.26-.02-.36-.05-.1-.04-.21-.1-.32-.2-.04-.03-.07-.07-.09-.11s-.04-.06-.05-.07v.38Z"/><path class="b" d="M66.93,47.64c.35,0,.62.09.81.27.19.18.29.39.29.63,0,.21-.06.37-.19.48-.12.11-.34.21-.64.28-.42.1-.66.17-.73.21s-.1.1-.1.18.04.14.12.18c.08.04.19.06.33.06.23,0,.39-.05.48-.14.05-.05.08-.14.1-.26h.71c0,.27-.1.5-.3.67-.2.18-.51.27-.93.27s-.71-.08-.91-.25c-.2-.17-.29-.38-.29-.65,0-.2.07-.37.21-.5.14-.13.35-.23.62-.3.42-.09.66-.16.73-.19.07-.04.1-.09.1-.17,0-.06-.03-.12-.1-.17-.06-.05-.17-.07-.32-.07-.18,0-.31.05-.39.14-.04.05-.07.12-.08.21h-.7c.03-.33.15-.56.36-.69.21-.13.48-.2.81-.2Z"/><path class="b" d="M64.45,50.28v-.63h.75v.73h-.42c0,.16.05.29.11.38.07.09.17.16.31.2v.27s-.12-.02-.24-.07c-.12-.05-.22-.12-.3-.21-.08-.09-.13-.19-.16-.31s-.04-.24-.04-.35Z"/><path class="b" d="M61.4,47.38c-.14,0-.25.04-.33.13-.08.08-.12.19-.12.33,0,.21.08.35.23.42.09.04.25.06.47.07v.5c-.23,0-.4.02-.51.07-.19.08-.28.23-.28.47,0,.18.05.31.15.4.1.09.22.14.36.14.22,0,.38-.09.46-.26.05-.09.07-.21.07-.35h.68c-.01.28-.07.51-.17.68-.2.33-.54.49-1.04.49-.41,0-.71-.11-.92-.34-.21-.23-.31-.49-.31-.79s.09-.51.27-.67c.12-.11.21-.16.27-.16-.08-.03-.17-.09-.24-.18-.12-.14-.19-.32-.19-.53,0-.29.1-.53.31-.7.21-.17.48-.26.82-.26.18,0,.34.02.46.07s.23.11.32.19c.12.12.21.25.27.38.05.16.08.32.09.5h-.65c0-.17-.03-.31-.11-.42-.08-.1-.2-.16-.36-.16Z"/><path class="b" d="M57.22,50.37h-.82l1.27-3.6h.85l1.28,3.6h-.79l-.25-.74h-1.33l-.23.74ZM58.57,49.02l-.46-1.42-.45,1.42h.91Z"/><path class="b" d="M53.36,47.66c.21,0,.4.06.55.18.08.07.16.16.24.27v-.39h.67v3.71h-.69v-1.39c-.07.11-.15.2-.22.26-.14.11-.32.16-.53.16-.33,0-.6-.12-.81-.37-.21-.25-.32-.6-.32-1.07,0-.44.11-.78.32-1.01.22-.23.48-.34.79-.34ZM53.11,49.64c.1.15.25.22.44.22.13,0,.25-.04.35-.11.16-.13.25-.34.25-.65,0-.2-.02-.36-.07-.48-.09-.24-.27-.36-.52-.36-.21,0-.36.08-.46.24-.09.16-.14.34-.14.54,0,.25.05.45.15.6Z"/><path class="b" d="M50.17,49.59c.04.08.08.14.13.18.09.08.21.12.35.12.14,0,.25-.03.35-.1.16-.11.24-.29.25-.56h-1.82c0-.23,0-.41.02-.53.03-.21.1-.39.2-.55.12-.18.26-.31.44-.39s.38-.12.6-.12c.37,0,.68.12.91.37.23.25.35.6.35,1.06,0,.49-.13.85-.39,1.06s-.56.33-.9.33c-.41,0-.73-.13-.96-.39-.15-.16-.23-.32-.25-.48h.71ZM51.23,48.78c-.02-.17-.08-.31-.17-.41-.09-.1-.21-.15-.37-.15-.15,0-.27.05-.37.14-.1.1-.16.23-.17.42h1.08Z"/><path class="b" d="M49.05,48.58h-.67c-.02-.1-.05-.18-.1-.24-.07-.08-.18-.12-.35-.12-.15,0-.26.02-.33.06-.08.04-.11.12-.11.23,0,.09.05.16.15.2.06.02.15.04.28.06l.24.03c.27.03.47.09.61.17.25.15.38.38.38.71,0,.25-.08.45-.24.58-.16.14-.36.21-.6.21-.19,0-.36-.04-.51-.13-.13-.07-.24-.16-.33-.27,0,.06-.01.11-.02.16s-.02.1-.04.15h-.76v-.1s.08-.05.1-.08.04-.09.04-.19c0-.12,0-.22,0-.31v-1.22c0-.32.11-.54.34-.65s.48-.17.78-.17c.45,0,.76.12.95.35.12.15.18.34.2.57ZM48.44,49.62c0-.13-.05-.23-.16-.3-.06-.04-.17-.07-.31-.1l-.16-.03c-.08-.01-.14-.03-.18-.05-.04-.02-.09-.04-.13-.07v.26c0,.23.07.39.2.48.13.09.26.13.41.13.09,0,.17-.03.24-.08.07-.05.1-.14.1-.26Z"/><path class="b" d="M44.7,48.74l-.93-1.02h.86l.87,1v-1.94h.68v3.59h-.68v-.84l-.29-.3-.64,1.14h-.84l.97-1.63Z"/><path class="b" d="M98.73,61.53c.09.2.29.3.59.3s.5-.1.6-.3c.06-.11.09-.29.09-.54v-2.21h.76v2.21c0,.38-.06.68-.18.89-.22.39-.65.59-1.27.59s-1.05-.2-1.27-.59c-.12-.21-.18-.51-.18-.89v-2.21h.76v2.21c0,.25.03.43.09.54Z"/><path class="b" d="M96.19,59.64c.35,0,.62.09.81.27.19.18.29.39.29.63,0,.21-.06.37-.19.48-.12.11-.34.21-.64.28-.42.1-.66.17-.73.21s-.1.1-.1.18.04.14.12.18c.08.04.19.06.33.06.23,0,.39-.05.48-.14.05-.05.08-.14.1-.26h.71c0,.27-.1.5-.3.67-.2.18-.51.27-.93.27s-.71-.08-.91-.25c-.2-.17-.29-.38-.29-.65,0-.2.07-.37.21-.5.14-.13.35-.23.62-.3.42-.09.66-.16.73-.19.07-.04.1-.09.1-.17,0-.06-.03-.12-.1-.17-.06-.05-.17-.07-.32-.07-.18,0-.31.05-.39.14-.04.05-.07.12-.08.21h-.7c.03-.33.15-.56.36-.69.21-.13.48-.2.81-.2Z"/><path class="b" d="M92.86,61.59c.04.08.08.14.13.18.09.08.21.12.35.12.14,0,.25-.03.35-.1.16-.11.24-.29.25-.56h-1.82c0-.23,0-.41.02-.53.03-.21.1-.39.2-.55.12-.18.26-.31.44-.39s.38-.12.6-.12c.37,0,.68.12.91.37.23.25.35.6.35,1.06,0,.49-.13.85-.39,1.06s-.56.33-.9.33c-.41,0-.73-.13-.96-.39-.15-.16-.23-.32-.25-.48h.71ZM93.92,60.78c-.02-.17-.08-.31-.17-.41-.09-.1-.21-.15-.37-.15-.15,0-.27.05-.37.14-.1.1-.16.23-.17.42h1.08Z"/><path class="b" d="M89.24,59.64c.35,0,.62.09.81.27.19.18.29.39.29.63,0,.21-.06.37-.19.48-.12.11-.34.21-.64.28-.42.1-.66.17-.73.21s-.1.1-.1.18.04.14.12.18c.08.04.19.06.33.06.23,0,.39-.05.48-.14.05-.05.08-.14.1-.26h.71c0,.27-.1.5-.3.67-.2.18-.51.27-.93.27s-.71-.08-.91-.25c-.2-.17-.29-.38-.29-.65,0-.2.07-.37.21-.5.14-.13.35-.23.62-.3.42-.09.66-.16.73-.19.07-.04.1-.09.1-.17,0-.06-.03-.12-.1-.17-.06-.05-.17-.07-.32-.07-.18,0-.31.05-.39.14-.04.05-.07.12-.08.21h-.7c.03-.33.15-.56.36-.69.21-.13.48-.2.81-.2Z"/><path class="b" d="M85.91,61.59c.04.08.08.14.13.18.09.08.21.12.35.12.14,0,.25-.03.35-.1.16-.11.24-.29.25-.56h-1.82c0-.23,0-.41.02-.53.03-.21.1-.39.2-.55.12-.18.26-.31.44-.39s.38-.12.6-.12c.37,0,.68.12.91.37.23.25.35.6.35,1.06,0,.49-.13.85-.39,1.06s-.56.33-.9.33c-.41,0-.73-.13-.96-.39-.15-.16-.23-.32-.25-.48h.71ZM86.97,60.78c-.02-.17-.08-.31-.17-.41-.09-.1-.21-.15-.37-.15-.15,0-.27.05-.37.14-.1.1-.16.23-.17.42h1.08Z"/><path class="b" d="M84.69,62.37h-.7v-3.6h.7v3.6Z"/><path class="b" d="M81.74,61.59c.04.08.08.14.13.18.09.08.21.12.35.12.14,0,.25-.03.35-.1.16-.11.24-.29.25-.56h-1.82c0-.23,0-.41.02-.53.03-.21.1-.39.2-.55.12-.18.26-.31.44-.39s.38-.12.6-.12c.37,0,.68.12.91.37.23.25.35.6.35,1.06,0,.49-.13.85-.39,1.06s-.56.33-.9.33c-.41,0-.73-.13-.96-.39-.15-.16-.23-.32-.25-.48h.71ZM82.8,60.78c-.02-.17-.08-.31-.17-.41-.09-.1-.21-.15-.37-.15-.15,0-.27.05-.37.14-.1.1-.16.23-.17.42h1.08Z"/><path class="b" d="M78.61,59.87c.21-.15.49-.22.82-.22.39,0,.7.13.92.38s.33.61.33,1.07c0,.41-.1.73-.3.99s-.52.38-.94.38-.75-.15-.97-.46c-.14-.19-.21-.39-.23-.6h.71c.01.14.06.25.12.34s.18.13.35.13c.23,0,.39-.11.47-.33.05-.12.07-.28.07-.47,0-.21-.02-.37-.07-.49-.09-.23-.25-.35-.48-.35-.16,0-.29.05-.36.16-.05.08-.09.17-.1.27h-.71c.04-.38.17-.64.38-.79Z"/><path class="b" d="M76.6,61.88s.05,0,.07,0c.14,0,.23-.01.25-.04.03-.03.04-.09.04-.2v-1.41h-.43v-.5h.43v-.74h.69v.74h.37v.5h-.37v1.64c0,.17-.04.29-.12.37-.12.13-.35.18-.67.17h-.33v-.53s.05,0,.07,0Z"/><path class="b" d="M74.89,59.63c.46,0,.8.14,1.02.42s.34.61.34,1-.11.72-.34,1c-.22.28-.57.42-1.02.42s-.8-.14-1.02-.42c-.22-.28-.34-.61-.34-1s.11-.72.34-1,.57-.42,1.02-.42ZM74.42,60.43c-.11.14-.16.35-.16.62s.05.47.16.62.27.22.47.22.36-.07.47-.22c.11-.15.17-.35.17-.62s-.05-.47-.17-.62c-.11-.14-.27-.22-.47-.22s-.36.07-.47.22Z"/><path class="b" d="M71.61,60.36s-.07,0-.12,0v-.71s.05,0,.06,0c0,0,.02,0,.03,0,.21,0,.38.05.51.16.08.06.17.19.28.36v-.46h.66v2.66h-.7v-1.27c0-.21-.03-.37-.08-.47-.1-.18-.28-.27-.56-.27-.02,0-.05,0-.08,0Z"/><path class="b" d="M68.55,61.88s.05,0,.07,0c.14,0,.23-.01.25-.04.03-.03.04-.09.04-.2v-1.41h-.43v-.5h.43v-.74h.69v.74h.37v.5h-.37v1.64c0,.17-.04.29-.12.37-.12.13-.35.18-.67.17h-.33v-.53s.05,0,.07,0Z"/><path class="b" d="M66.83,59.63c.46,0,.8.14,1.02.42s.34.61.34,1-.11.72-.34,1c-.22.28-.57.42-1.02.42s-.8-.14-1.02-.42c-.22-.28-.34-.61-.34-1s.11-.72.34-1,.57-.42,1.02-.42ZM66.37,60.43c-.11.14-.16.35-.16.62s.05.47.16.62.27.22.47.22.36-.07.47-.22c.11-.15.17-.35.17-.62s-.05-.47-.17-.62c-.11-.14-.27-.22-.47-.22s-.36.07-.47.22Z"/><path class="b" d="M61.88,62.37h-.68v-2.66h.71v1.45c0,.17.02.31.07.41.09.19.25.29.49.29.19,0,.31-.07.37-.2.04-.08.05-.19.05-.34v-1.6h.71v1.6c0,.3-.04.53-.11.69-.14.28-.4.42-.8.42-.14,0-.26-.02-.36-.05-.1-.04-.21-.1-.32-.2-.04-.03-.07-.07-.09-.11s-.04-.06-.05-.07v.38Z"/><path class="b" d="M59.51,59.64c.35,0,.62.09.81.27.19.18.29.39.29.63,0,.21-.06.37-.19.48-.12.11-.34.21-.64.28-.42.1-.66.17-.73.21s-.1.1-.1.18.04.14.12.18c.08.04.19.06.33.06.23,0,.39-.05.48-.14.05-.05.08-.14.1-.26h.71c0,.27-.1.5-.3.67-.2.18-.51.27-.93.27s-.71-.08-.91-.25c-.2-.17-.29-.38-.29-.65,0-.2.07-.37.21-.5.14-.13.35-.23.62-.3.42-.09.66-.16.73-.19.07-.04.1-.09.1-.17,0-.06-.03-.12-.1-.17-.06-.05-.17-.07-.32-.07-.18,0-.31.05-.39.14-.04.05-.07.12-.08.21h-.7c.03-.33.15-.56.36-.69.21-.13.48-.2.81-.2Z"/><path class="b" d="M56.18,61.59c.04.08.08.14.13.18.09.08.21.12.35.12.14,0,.25-.03.35-.1.16-.11.24-.29.25-.56h-1.82c0-.23,0-.41.02-.53.03-.21.1-.39.2-.55.12-.18.26-.31.44-.39s.38-.12.6-.12c.37,0,.68.12.91.37.23.25.35.6.35,1.06,0,.49-.13.85-.39,1.06s-.56.33-.9.33c-.41,0-.73-.13-.96-.39-.15-.16-.23-.32-.25-.48h.71ZM57.24,60.78c-.02-.17-.08-.31-.17-.41-.09-.1-.21-.15-.37-.15-.15,0-.27.05-.37.14-.1.1-.16.23-.17.42h1.08Z"/><path class="b" d="M53.68,60.58h-.67c-.02-.1-.05-.18-.1-.24-.07-.08-.18-.12-.35-.12-.15,0-.26.02-.33.06-.08.04-.11.12-.11.23,0,.09.05.16.15.2.06.02.15.04.28.06l.24.03c.27.03.47.09.61.17.25.15.38.38.38.71,0,.25-.08.45-.24.58-.16.14-.36.21-.6.21-.19,0-.36-.04-.51-.13-.13-.07-.24-.16-.33-.27,0,.06-.01.11-.02.16s-.02.1-.04.15h-.76v-.1s.08-.05.1-.08.04-.09.04-.19c0-.12,0-.22,0-.31v-1.22c0-.32.11-.54.34-.65s.48-.17.78-.17c.45,0,.76.12.95.35.12.15.18.34.2.57ZM53.06,61.62c0-.13-.05-.23-.16-.3-.06-.04-.17-.07-.31-.1l-.16-.03c-.08-.01-.14-.03-.18-.05-.04-.02-.09-.04-.13-.07v.26c0,.23.07.39.2.48.13.09.26.13.41.13.09,0,.17-.03.24-.08.07-.05.1-.14.1-.26Z"/><path class="b" d="M49.78,59.64c.35,0,.62.09.81.27.19.18.29.39.29.63,0,.21-.06.37-.19.48-.12.11-.34.21-.64.28-.42.1-.66.17-.73.21s-.1.1-.1.18.04.14.12.18c.08.04.19.06.33.06.23,0,.39-.05.48-.14.05-.05.08-.14.1-.26h.71c0,.27-.1.5-.3.67-.2.18-.51.27-.93.27s-.71-.08-.91-.25c-.2-.17-.29-.38-.29-.65,0-.2.07-.37.21-.5.14-.13.35-.23.62-.3.42-.09.66-.16.73-.19.07-.04.1-.09.1-.17,0-.06-.03-.12-.1-.17-.06-.05-.17-.07-.32-.07-.18,0-.31.05-.39.14-.04.05-.07.12-.08.21h-.7c.03-.33.15-.56.36-.69.21-.13.48-.2.81-.2Z"/><path class="b" d="M45.61,59.64c.35,0,.62.09.81.27.19.18.29.39.29.63,0,.21-.06.37-.19.48-.12.11-.34.21-.64.28-.42.1-.66.17-.73.21s-.1.1-.1.18.04.14.12.18c.08.04.19.06.33.06.23,0,.39-.05.48-.14.05-.05.08-.14.1-.26h.71c0,.27-.1.5-.3.67-.2.18-.51.27-.93.27s-.71-.08-.91-.25c-.2-.17-.29-.38-.29-.65,0-.2.07-.37.21-.5.14-.13.35-.23.62-.3.42-.09.66-.16.73-.19.07-.04.1-.09.1-.17,0-.06-.03-.12-.1-.17-.06-.05-.17-.07-.32-.07-.18,0-.31.05-.39.14-.04.05-.07.12-.08.21h-.7c.03-.33.15-.56.36-.69.21-.13.48-.2.81-.2Z"/><path class="b" d="M42.28,61.59c.04.08.08.14.13.18.09.08.21.12.35.12.14,0,.25-.03.35-.1.16-.11.24-.29.25-.56h-1.82c0-.23,0-.41.02-.53.03-.21.1-.39.2-.55.12-.18.26-.31.44-.39s.38-.12.6-.12c.37,0,.68.12.91.37.23.25.35.6.35,1.06,0,.49-.13.85-.39,1.06s-.56.33-.9.33c-.41,0-.73-.13-.96-.39-.15-.16-.23-.32-.25-.48h.71ZM43.34,60.78c-.02-.17-.08-.31-.17-.41-.09-.1-.21-.15-.37-.15-.15,0-.27.05-.37.14-.1.1-.16.23-.17.42h1.08Z"/><path class="b" d="M39.65,60.36s-.07,0-.12,0v-.71s.05,0,.06,0c0,0,.02,0,.03,0,.21,0,.38.05.51.16.08.06.17.19.28.36v-.46h.66v2.66h-.7v-1.27c0-.21-.03-.37-.08-.47-.1-.18-.28-.27-.56-.27-.02,0-.05,0-.08,0Z"/><path class="b" d="M38.43,62.37h-.73l-.96-2.66h.75l.57,1.96.55-1.96h.78l-.95,2.66Z"/><path class="b" d="M35.15,59.63c.46,0,.8.14,1.02.42s.34.61.34,1-.11.72-.34,1c-.22.28-.57.42-1.02.42s-.8-.14-1.02-.42c-.22-.28-.34-.61-.34-1s.11-.72.34-1,.57-.42,1.02-.42ZM34.68,60.43c-.11.14-.16.35-.16.62s.05.47.16.62.27.22.47.22.36-.07.47-.22c.11-.15.17-.35.17-.62s-.05-.47-.17-.62c-.11-.14-.27-.22-.47-.22s-.36.07-.47.22Z"/><path class="b" d="M30.18,58.78v1.27c.08-.13.18-.22.31-.29.13-.07.27-.11.43-.11.35,0,.63.13.84.39.21.26.31.62.31,1.07,0,.39-.11.72-.32.97-.21.25-.47.38-.78.38-.19,0-.35-.04-.47-.11s-.24-.19-.34-.34v.37h-.68v-3.59h.71ZM31.21,60.49c-.09-.15-.24-.23-.45-.23-.13,0-.25.04-.35.13-.16.14-.25.37-.25.7,0,.23.05.42.15.57s.25.22.45.22.34-.07.44-.22c.1-.15.15-.34.15-.59,0-.23-.05-.42-.14-.57Z"/><path class="b" d="M27.43,60.36s-.07,0-.12,0v-.71s.05,0,.06,0c0,0,.02,0,.03,0,.21,0,.38.05.51.16.08.06.17.19.28.36v-.46h.66v2.66h-.7v-1.27c0-.21-.03-.37-.08-.47-.1-.18-.28-.27-.56-.27-.02,0-.05,0-.08,0Z"/><path class="b" d="M26.89,58.75v.64h-.71v-.64h.71ZM26.89,59.71v2.66h-.71v-2.66h.71Z"/><path class="b" d="M24.82,62.37h-.73l-.96-2.66h.75l.57,1.96.55-1.96h.78l-.95,2.66Z"/><path class="b" d="M21.16,61.59c.04.08.08.14.13.18.09.08.21.12.35.12.14,0,.25-.03.35-.1.16-.11.24-.29.25-.56h-1.82c0-.23,0-.41.02-.53.03-.21.1-.39.2-.55.12-.18.26-.31.44-.39s.38-.12.6-.12c.37,0,.68.12.91.37.23.25.35.6.35,1.06,0,.49-.13.85-.39,1.06s-.56.33-.9.33c-.41,0-.73-.13-.96-.39-.15-.16-.23-.32-.25-.48h.71ZM22.22,60.78c-.02-.17-.08-.31-.17-.41-.09-.1-.21-.15-.37-.15-.15,0-.27.05-.37.14-.1.1-.16.23-.17.42h1.08Z"/><path class="b" d="M18.53,60.36s-.07,0-.12,0v-.71s.05,0,.06,0c0,0,.02,0,.03,0,.21,0,.38.05.51.16.08.06.17.19.28.36v-.46h.66v2.66h-.7v-1.27c0-.21-.03-.37-.08-.47-.1-.18-.28-.27-.56-.27-.02,0-.05,0-.08,0Z"/><path class="b" d="M15.42,59.63c.46,0,.8.14,1.02.42s.34.61.34,1-.11.72-.34,1c-.22.28-.57.42-1.02.42s-.8-.14-1.02-.42c-.22-.28-.34-.61-.34-1s.11-.72.34-1,.57-.42,1.02-.42ZM14.95,60.43c-.11.14-.16.35-.16.62s.05.47.16.62.27.22.47.22.36-.07.47-.22c.11-.15.17-.35.17-.62s-.05-.47-.17-.62c-.11-.14-.27-.22-.47-.22s-.36.07-.47.22Z"/><path class="b" d="M12.14,60.36s-.07,0-.12,0v-.71s.05,0,.06,0c0,0,.02,0,.03,0,.21,0,.38.05.51.16.08.06.17.19.28.36v-.46h.66v2.66h-.7v-1.27c0-.21-.03-.37-.08-.47-.1-.18-.28-.27-.56-.27-.02,0-.05,0-.08,0Z"/><path class="b" d="M99.28,66.79v1.58h-.7v-1.58c0-.12-.02-.22-.06-.31-.07-.16-.21-.24-.4-.24-.17,0-.28.06-.34.19-.03.06-.05.15-.05.25v1.69h-.71v-1.68c0-.17,0-.3.02-.39.03-.14.08-.25.15-.34.09-.11.2-.19.31-.24s.23-.07.35-.07c.18,0,.34.04.48.11.14.07.25.19.34.34.05-.13.13-.24.23-.32.13-.09.29-.13.49-.13.21,0,.39.05.52.16.08.06.16.16.24.3v-.39h.68v2.66h-.71v-1.6c0-.15-.02-.25-.06-.33-.07-.13-.2-.19-.4-.19-.17,0-.29.06-.34.19-.03.07-.05.19-.05.34Z"/><path class="b" d="M95.18,65.63c.46,0,.8.14,1.02.42s.34.61.34,1-.11.72-.34,1c-.22.28-.57.42-1.02.42s-.8-.14-1.02-.42c-.22-.28-.34-.61-.34-1s.11-.72.34-1,.57-.42,1.02-.42ZM94.72,66.43c-.11.14-.16.35-.16.62s.05.47.16.62.27.22.47.22.36-.07.47-.22c.11-.15.17-.35.17-.62s-.05-.47-.17-.62c-.11-.14-.27-.22-.47-.22s-.36.07-.47.22Z"/><path class="b" d="M92.17,67.88s.05,0,.07,0c.14,0,.23-.01.25-.04.03-.03.04-.09.04-.2v-1.41h-.43v-.5h.43v-.74h.69v.74h.37v.5h-.37v1.64c0,.17-.04.29-.12.37-.12.13-.35.18-.67.17h-.33v-.53s.05,0,.07,0Z"/><path class="b" d="M90.46,65.63c.46,0,.8.14,1.02.42s.34.61.34,1-.11.72-.34,1c-.22.28-.57.42-1.02.42s-.8-.14-1.02-.42c-.22-.28-.34-.61-.34-1s.11-.72.34-1,.57-.42,1.02-.42ZM90,66.43c-.11.14-.16.35-.16.62s.05.47.16.62.27.22.47.22.36-.07.47-.22c.11-.15.17-.35.17-.62s-.05-.47-.17-.62c-.11-.14-.27-.22-.47-.22s-.36.07-.47.22Z"/><path class="b" d="M87.18,66.36s-.07,0-.12,0v-.71s.05,0,.06,0c0,0,.02,0,.03,0,.21,0,.38.05.51.16.08.06.17.19.28.36v-.46h.66v2.66h-.7v-1.27c0-.21-.03-.37-.08-.47-.1-.18-.28-.27-.56-.27-.02,0-.05,0-.08,0Z"/><path class="b" d="M83.55,64.78v1.27c.08-.13.18-.22.31-.29.13-.07.27-.11.43-.11.35,0,.63.13.84.39.21.26.31.62.31,1.07,0,.39-.11.72-.32.97-.21.25-.47.38-.78.38-.19,0-.35-.04-.47-.11s-.24-.19-.34-.34v.37h-.68v-3.59h.71ZM84.58,66.49c-.09-.15-.24-.23-.45-.23-.13,0-.25.04-.35.13-.16.14-.25.37-.25.7,0,.23.05.42.15.57s.25.22.45.22.34-.07.44-.22c.1-.15.15-.34.15-.59,0-.23-.05-.42-.14-.57Z"/><path class="b" d="M80.79,66.36s-.07,0-.12,0v-.71s.05,0,.06,0c0,0,.02,0,.03,0,.21,0,.38.05.51.16.08.06.17.19.28.36v-.46h.66v2.66h-.7v-1.27c0-.21-.03-.37-.08-.47-.1-.18-.28-.27-.56-.27-.02,0-.05,0-.08,0Z"/><path class="b" d="M80.26,64.75v.64h-.71v-.64h.71ZM80.26,65.71v2.66h-.71v-2.66h.71Z"/><path class="b" d="M78.19,68.37h-.73l-.96-2.66h.75l.57,1.96.55-1.96h.78l-.95,2.66Z"/><path class="b" d="M74.53,67.59c.04.08.08.14.13.18.09.08.21.12.35.12.14,0,.25-.03.35-.1.16-.11.24-.29.25-.56h-1.82c0-.23,0-.41.02-.53.03-.21.1-.39.2-.55.12-.18.26-.31.44-.39s.38-.12.6-.12c.37,0,.68.12.91.37.23.25.35.6.35,1.06,0,.49-.13.85-.39,1.06s-.56.33-.9.33c-.41,0-.73-.13-.96-.39-.15-.16-.23-.32-.25-.48h.71ZM75.59,66.78c-.02-.17-.08-.31-.17-.41-.09-.1-.21-.15-.37-.15-.15,0-.27.05-.37.14-.1.1-.16.23-.17.42h1.08Z"/><path class="b" d="M71.9,66.36s-.07,0-.12,0v-.71s.05,0,.06,0c0,0,.02,0,.03,0,.21,0,.38.05.51.16.08.06.17.19.28.36v-.46h.66v2.66h-.7v-1.27c0-.21-.03-.37-.08-.47-.1-.18-.28-.27-.56-.27-.02,0-.05,0-.08,0Z"/><path class="b" d="M100.09,79.63c.07-.08.11-.2.13-.37h.72c0,.37-.13.67-.4.88-.27.21-.64.32-1.11.32s-.81-.11-1.07-.33c-.25-.22-.38-.49-.38-.82s.11-.57.32-.73c.14-.11.34-.2.62-.26l.62-.15c.24-.06.4-.11.47-.15.11-.06.17-.16.17-.29,0-.14-.06-.25-.17-.33s-.27-.12-.46-.12c-.17,0-.32.03-.44.09-.18.09-.27.25-.28.46h-.72c.01-.38.15-.67.42-.88.27-.2.59-.3.97-.3.45,0,.8.11,1.03.32s.35.48.35.8c0,.35-.12.61-.36.78-.14.1-.4.19-.78.28l-.38.09c-.22.05-.39.1-.49.17-.1.06-.16.16-.16.28,0,.2.1.34.31.42.11.04.25.06.43.06.3,0,.51-.07.63-.22Z"/><path class="b" d="M95.92,79.59c.04.08.08.14.13.18.09.08.21.12.35.12.14,0,.25-.03.35-.1.16-.11.24-.29.25-.56h-1.82c0-.23,0-.41.02-.53.03-.21.1-.39.2-.55.12-.18.26-.31.44-.39s.38-.12.6-.12c.37,0,.68.12.91.37.23.25.35.6.35,1.06,0,.49-.13.85-.39,1.06s-.56.33-.9.33c-.41,0-.73-.13-.96-.39-.15-.16-.23-.32-.25-.48h.71ZM96.98,78.78c-.02-.17-.08-.31-.17-.41-.09-.1-.21-.15-.37-.15-.15,0-.27.05-.37.14-.1.1-.16.23-.17.42h1.08Z"/><path class="b" d="M94.69,80.37h-.7v-3.6h.7v3.6Z"/><path class="b" d="M91.75,79.59c.04.08.08.14.13.18.09.08.21.12.35.12.14,0,.25-.03.35-.1.16-.11.24-.29.25-.56h-1.82c0-.23,0-.41.02-.53.03-.21.1-.39.2-.55.12-.18.26-.31.44-.39s.38-.12.6-.12c.37,0,.68.12.91.37.23.25.35.6.35,1.06,0,.49-.13.85-.39,1.06s-.56.33-.9.33c-.41,0-.73-.13-.96-.39-.15-.16-.23-.32-.25-.48h.71ZM92.81,78.78c-.02-.17-.08-.31-.17-.41-.09-.1-.21-.15-.37-.15-.15,0-.27.05-.37.14-.1.1-.16.23-.17.42h1.08Z"/><path class="b" d="M88.61,77.87c.21-.15.49-.22.82-.22.39,0,.7.13.92.38s.33.61.33,1.07c0,.41-.1.73-.3.99s-.52.38-.94.38-.75-.15-.97-.46c-.14-.19-.21-.39-.23-.6h.71c.01.14.06.25.12.34s.18.13.35.13c.23,0,.39-.11.47-.33.05-.12.07-.28.07-.47,0-.21-.02-.37-.07-.49-.09-.23-.25-.35-.48-.35-.16,0-.29.05-.36.16-.05.08-.09.17-.1.27h-.71c.04-.38.17-.64.38-.79Z"/><path class="b" d="M86.61,79.88s.05,0,.07,0c.14,0,.23-.01.25-.04.03-.03.04-.09.04-.2v-1.41h-.43v-.5h.43v-.74h.69v.74h.37v.5h-.37v1.64c0,.17-.04.29-.12.37-.12.13-.35.18-.67.17h-.33v-.53s.05,0,.07,0Z"/><path class="b" d="M84.9,77.63c.46,0,.8.14,1.02.42s.34.61.34,1-.11.72-.34,1c-.22.28-.57.42-1.02.42s-.8-.14-1.02-.42c-.22-.28-.34-.61-.34-1s.11-.72.34-1,.57-.42,1.02-.42ZM84.43,78.43c-.11.14-.16.35-.16.62s.05.47.16.62.27.22.47.22.36-.07.47-.22c.11-.15.17-.35.17-.62s-.05-.47-.17-.62c-.11-.14-.27-.22-.47-.22s-.36.07-.47.22Z"/><path class="b" d="M81.62,78.36s-.07,0-.12,0v-.71s.05,0,.06,0c0,0,.02,0,.03,0,.21,0,.38.05.51.16.08.06.17.19.28.36v-.46h.66v2.66h-.7v-1.27c0-.21-.03-.37-.08-.47-.1-.18-.28-.27-.56-.27-.02,0-.05,0-.08,0Z"/><path class="b" d="M78.14,76.83h.58s0,.08.03.14c.03.11.08.19.14.25.09.09.2.15.34.19.09.02.24.03.46.04v.47h-.83v2.44h-.71v-3.54Z"/><path class="b" d="M75.94,78.55v-.73h.74v.73h-.74ZM76.68,79.65v.73h-.74v-.73h.74Z"/><path class="b" d="M72.43,77.66c.21,0,.4.06.55.18.08.07.16.16.24.27v-.39h.67v3.71h-.69v-1.39c-.07.11-.15.2-.22.26-.14.11-.32.16-.53.16-.33,0-.6-.12-.81-.37-.21-.25-.32-.6-.32-1.07,0-.44.11-.78.32-1.01.22-.23.48-.34.79-.34ZM72.19,79.64c.1.15.25.22.44.22.13,0,.25-.04.35-.11.16-.13.25-.34.25-.65,0-.2-.02-.36-.07-.48-.09-.24-.27-.36-.52-.36-.21,0-.36.08-.46.24-.09.16-.14.34-.14.54,0,.25.05.45.15.6Z"/><path class="b" d="M68.08,80.37l-.77-2.66h.73l.42,1.92.41-1.92h.71l.38,1.91.42-1.91h.75l-.75,2.66h-.72l-.42-1.94-.42,1.94h-.72Z"/><path class="b" d="M65.38,78.79v1.58h-.7v-1.58c0-.12-.02-.22-.06-.31-.07-.16-.21-.24-.4-.24-.17,0-.28.06-.34.19-.03.06-.05.15-.05.25v1.69h-.71v-1.68c0-.17,0-.3.02-.39.03-.14.08-.25.15-.34.09-.11.2-.19.31-.24s.23-.07.35-.07c.18,0,.34.04.48.11.14.07.25.19.34.34.05-.13.13-.24.23-.32.13-.09.29-.13.49-.13.21,0,.39.05.52.16.08.06.16.16.24.3v-.39h.68v2.66h-.71v-1.6c0-.15-.02-.25-.06-.33-.07-.13-.2-.19-.4-.19-.17,0-.29.06-.34.19-.03.07-.05.19-.05.34Z"/><path class="b" d="M59.55,77.93c0,.18.07.35.22.51.09.1.3.26.62.49.37.26.6.51.7.75.1.21.16.44.16.7h-2.42v-.61h1.55c-.04-.07-.1-.14-.16-.19-.06-.06-.18-.15-.36-.27l-.28-.2c-.23-.17-.4-.32-.51-.45-.16-.2-.23-.44-.23-.7,0-.34.11-.62.33-.82.22-.21.52-.31.89-.31.47,0,.8.18.99.53.1.19.15.43.16.73h-.68c0-.2-.03-.34-.08-.43-.08-.16-.22-.24-.43-.24-.15,0-.27.05-.36.15s-.12.22-.12.37Z"/><path class="b" d="M57.13,79.31h-1.4v-.66h1.4v.66Z"/><path class="b" d="M52.43,77.66c.21,0,.4.06.55.18.08.07.16.16.24.27v-.39h.67v3.71h-.69v-1.39c-.07.11-.15.2-.22.26-.14.11-.32.16-.53.16-.33,0-.6-.12-.81-.37-.21-.25-.32-.6-.32-1.07,0-.44.11-.78.32-1.01.22-.23.48-.34.79-.34ZM52.18,79.64c.1.15.25.22.44.22.13,0,.25-.04.35-.11.16-.13.25-.34.25-.65,0-.2-.02-.36-.07-.48-.09-.24-.27-.36-.52-.36-.21,0-.36.08-.46.24-.09.16-.14.34-.14.54,0,.25.05.45.15.6Z"/><path class="b" d="M48.08,80.37l-.77-2.66h.73l.42,1.92.41-1.92h.71l.38,1.91.42-1.91h.75l-.75,2.66h-.72l-.42-1.94-.42,1.94h-.72Z"/><path class="b" d="M45.38,78.79v1.58h-.7v-1.58c0-.12-.02-.22-.06-.31-.07-.16-.21-.24-.4-.24-.17,0-.28.06-.34.19-.03.06-.05.15-.05.25v1.69h-.71v-1.68c0-.17,0-.3.02-.39.03-.14.08-.25.15-.34.09-.11.2-.19.31-.24s.23-.07.35-.07c.18,0,.34.04.48.11.14.07.25.19.34.34.05-.13.13-.24.23-.32.13-.09.29-.13.49-.13.21,0,.39.05.52.16.08.06.16.16.24.3v-.39h.68v2.66h-.71v-1.6c0-.15-.02-.25-.06-.33-.07-.13-.2-.19-.4-.19-.17,0-.29.06-.34.19-.03.07-.05.19-.05.34Z"/><path class="b" d="M38.78,77.43v-.54h2.5v.62s-1.76,0-1.76,0c.17.17.39.46.64.89.4.69.6,1.35.62,1.98h-.72c0-.2-.04-.46-.12-.78s-.17-.59-.27-.81c-.13-.28-.28-.55-.47-.82-.19-.26-.33-.44-.43-.55Z"/><path class="b" d="M100.09,85.63c.07-.08.11-.2.13-.37h.72c0,.37-.13.67-.4.88-.27.21-.64.32-1.11.32s-.81-.11-1.07-.33c-.25-.22-.38-.49-.38-.82s.11-.57.32-.73c.14-.11.34-.2.62-.26l.62-.15c.24-.06.4-.11.47-.15.11-.06.17-.16.17-.29,0-.14-.06-.25-.17-.33s-.27-.12-.46-.12c-.17,0-.32.03-.44.09-.18.09-.27.25-.28.46h-.72c.01-.38.15-.67.42-.88.27-.2.59-.3.97-.3.45,0,.8.11,1.03.32s.35.48.35.8c0,.35-.12.61-.36.78-.14.1-.4.19-.78.28l-.38.09c-.22.05-.39.1-.49.17-.1.06-.16.16-.16.28,0,.2.1.34.31.42.11.04.25.06.43.06.3,0,.51-.07.63-.22Z"/><path class="b" d="M95.92,85.59c.04.08.08.14.13.18.09.08.21.12.35.12.14,0,.25-.03.35-.1.16-.11.24-.29.25-.56h-1.82c0-.23,0-.41.02-.53.03-.21.1-.39.2-.55.12-.18.26-.31.44-.39s.38-.12.6-.12c.37,0,.68.12.91.37.23.25.35.6.35,1.06,0,.49-.13.85-.39,1.06s-.56.33-.9.33c-.41,0-.73-.13-.96-.39-.15-.16-.23-.32-.25-.48h.71ZM96.98,84.78c-.02-.17-.08-.31-.17-.41-.09-.1-.21-.15-.37-.15-.15,0-.27.05-.37.14-.1.1-.16.23-.17.42h1.08Z"/><path class="b" d="M94.69,86.37h-.7v-3.6h.7v3.6Z"/><path class="b" d="M91.75,85.59c.04.08.08.14.13.18.09.08.21.12.35.12.14,0,.25-.03.35-.1.16-.11.24-.29.25-.56h-1.82c0-.23,0-.41.02-.53.03-.21.1-.39.2-.55.12-.18.26-.31.44-.39s.38-.12.6-.12c.37,0,.68.12.91.37.23.25.35.6.35,1.06,0,.49-.13.85-.39,1.06s-.56.33-.9.33c-.41,0-.73-.13-.96-.39-.15-.16-.23-.32-.25-.48h.71ZM92.81,84.78c-.02-.17-.08-.31-.17-.41-.09-.1-.21-.15-.37-.15-.15,0-.27.05-.37.14-.1.1-.16.23-.17.42h1.08Z"/><path class="b" d="M88.61,83.87c.21-.15.49-.22.82-.22.39,0,.7.13.92.38s.33.61.33,1.07c0,.41-.1.73-.3.99s-.52.38-.94.38-.75-.15-.97-.46c-.14-.19-.21-.39-.23-.6h.71c.01.14.06.25.12.34s.18.13.35.13c.23,0,.39-.11.47-.33.05-.12.07-.28.07-.47,0-.21-.02-.37-.07-.49-.09-.23-.25-.35-.48-.35-.16,0-.29.05-.36.16-.05.08-.09.17-.1.27h-.71c.04-.38.17-.64.38-.79Z"/><path class="b" d="M86.61,85.88s.05,0,.07,0c.14,0,.23-.01.25-.04.03-.03.04-.09.04-.2v-1.41h-.43v-.5h.43v-.74h.69v.74h.37v.5h-.37v1.64c0,.17-.04.29-.12.37-.12.13-.35.18-.67.17h-.33v-.53s.05,0,.07,0Z"/><path class="b" d="M84.9,83.63c.46,0,.8.14,1.02.42s.34.61.34,1-.11.72-.34,1c-.22.28-.57.42-1.02.42s-.8-.14-1.02-.42c-.22-.28-.34-.61-.34-1s.11-.72.34-1,.57-.42,1.02-.42ZM84.43,84.43c-.11.14-.16.35-.16.62s.05.47.16.62.27.22.47.22.36-.07.47-.22c.11-.15.17-.35.17-.62s-.05-.47-.17-.62c-.11-.14-.27-.22-.47-.22s-.36.07-.47.22Z"/><path class="b" d="M81.62,84.36s-.07,0-.12,0v-.71s.05,0,.06,0c0,0,.02,0,.03,0,.21,0,.38.05.51.16.08.06.17.19.28.36v-.46h.66v2.66h-.7v-1.27c0-.21-.03-.37-.08-.47-.1-.18-.28-.27-.56-.27-.02,0-.05,0-.08,0Z"/><path class="b" d="M78.16,83.93c0,.18.07.35.22.51.09.1.3.26.62.49.37.26.6.51.7.75.1.21.16.44.16.7h-2.42v-.61h1.55c-.04-.07-.1-.14-.16-.19-.06-.06-.18-.15-.36-.27l-.28-.2c-.23-.17-.4-.32-.51-.45-.16-.2-.23-.44-.23-.7,0-.34.11-.62.33-.82.22-.21.52-.31.89-.31.47,0,.8.18.99.53.1.19.15.43.16.73h-.68c0-.2-.03-.34-.08-.43-.08-.16-.22-.24-.43-.24-.15,0-.27.05-.36.15s-.12.22-.12.37Z"/><path class="b" d="M75.94,84.55v-.73h.74v.73h-.74ZM76.68,85.65v.73h-.74v-.73h.74Z"/><path class="b" d="M72.43,83.66c.21,0,.4.06.55.18.08.07.16.16.24.27v-.39h.67v3.71h-.69v-1.39c-.07.11-.15.2-.22.26-.14.11-.32.16-.53.16-.33,0-.6-.12-.81-.37-.21-.25-.32-.6-.32-1.07,0-.44.11-.78.32-1.01.22-.23.48-.34.79-.34ZM72.19,85.64c.1.15.25.22.44.22.13,0,.25-.04.35-.11.16-.13.25-.34.25-.65,0-.2-.02-.36-.07-.48-.09-.24-.27-.36-.52-.36-.21,0-.36.08-.46.24-.09.16-.14.34-.14.54,0,.25.05.45.15.6Z"/><path class="b" d="M68.08,86.37l-.77-2.66h.73l.42,1.92.41-1.92h.71l.38,1.91.42-1.91h.75l-.75,2.66h-.72l-.42-1.94-.42,1.94h-.72Z"/><path class="b" d="M65.38,84.79v1.58h-.7v-1.58c0-.12-.02-.22-.06-.31-.07-.16-.21-.24-.4-.24-.17,0-.28.06-.34.19-.03.06-.05.15-.05.25v1.69h-.71v-1.68c0-.17,0-.3.02-.39.03-.14.08-.25.15-.34.09-.11.2-.19.31-.24s.23-.07.35-.07c.18,0,.34.04.48.11.14.07.25.19.34.34.05-.13.13-.24.23-.32.13-.09.29-.13.49-.13.21,0,.39.05.52.16.08.06.16.16.24.3v-.39h.68v2.66h-.71v-1.6c0-.15-.02-.25-.06-.33-.07-.13-.2-.19-.4-.19-.17,0-.29.06-.34.19-.03.07-.05.19-.05.34Z"/><path class="b" d="M60.08,86.47c-.4,0-.7-.1-.92-.31-.22-.21-.33-.46-.33-.76,0-.2.04-.38.13-.54s.22-.29.39-.39c-.17-.1-.28-.21-.33-.35-.05-.13-.08-.26-.08-.37,0-.26.1-.48.29-.66.19-.18.47-.27.82-.27s.63.09.82.27c.19.18.29.4.29.66,0,.12-.03.24-.08.37-.05.13-.16.26-.33.37.17.08.31.2.4.36.09.16.14.34.14.54,0,.3-.1.55-.31.76-.2.21-.5.31-.9.31ZM60.42,84.94c-.09-.09-.22-.14-.37-.14s-.28.05-.37.14c-.09.09-.14.23-.14.41s.04.31.14.41c.09.1.21.14.37.14s.28-.05.37-.14c.09-.1.14-.23.14-.41s-.05-.32-.14-.41ZM60.5,83.83c0-.14-.04-.25-.12-.33s-.19-.12-.33-.12-.25.04-.33.12c-.08.08-.12.19-.12.33,0,.13.04.23.12.31.08.08.19.12.33.12s.25-.04.33-.12c.08-.08.12-.19.12-.31Z"/><path class="b" d="M57.13,85.31h-1.4v-.66h1.4v.66Z"/><path class="b" d="M52.43,83.66c.21,0,.4.06.55.18.08.07.16.16.24.27v-.39h.67v3.71h-.69v-1.39c-.07.11-.15.2-.22.26-.14.11-.32.16-.53.16-.33,0-.6-.12-.81-.37-.21-.25-.32-.6-.32-1.07,0-.44.11-.78.32-1.01.22-.23.48-.34.79-.34ZM52.18,85.64c.1.15.25.22.44.22.13,0,.25-.04.35-.11.16-.13.25-.34.25-.65,0-.2-.02-.36-.07-.48-.09-.24-.27-.36-.52-.36-.21,0-.36.08-.46.24-.09.16-.14.34-.14.54,0,.25.05.45.15.6Z"/><path class="b" d="M48.08,86.37l-.77-2.66h.73l.42,1.92.41-1.92h.71l.38,1.91.42-1.91h.75l-.75,2.66h-.72l-.42-1.94-.42,1.94h-.72Z"/><path class="b" d="M45.38,84.79v1.58h-.7v-1.58c0-.12-.02-.22-.06-.31-.07-.16-.21-.24-.4-.24-.17,0-.28.06-.34.19-.03.06-.05.15-.05.25v1.69h-.71v-1.68c0-.17,0-.3.02-.39.03-.14.08-.25.15-.34.09-.11.2-.19.31-.24s.23-.07.35-.07c.18,0,.34.04.48.11.14.07.25.19.34.34.05-.13.13-.24.23-.32.13-.09.29-.13.49-.13.21,0,.39.05.52.16.08.06.16.16.24.3v-.39h.68v2.66h-.71v-1.6c0-.15-.02-.25-.06-.33-.07-.13-.2-.19-.4-.19-.17,0-.29.06-.34.19-.03.07-.05.19-.05.34Z"/><path class="b" d="M39.52,82.83h.58s0,.08.03.14c.03.11.08.19.14.25.09.09.2.15.34.19.09.02.24.03.46.04v.47h-.83v2.44h-.71v-3.54Z"/><path class="b" d="M37.31,83.38c-.14,0-.25.04-.33.13-.08.08-.12.19-.12.33,0,.21.08.35.23.42.09.04.25.06.47.07v.5c-.23,0-.4.02-.51.07-.19.08-.28.23-.28.47,0,.18.05.31.15.4.1.09.22.14.36.14.22,0,.38-.09.46-.26.05-.09.07-.21.07-.35h.68c-.01.28-.07.51-.17.68-.2.33-.54.49-1.04.49-.41,0-.71-.11-.92-.34-.21-.23-.31-.49-.31-.79s.09-.51.27-.67c.12-.11.21-.16.27-.16-.08-.03-.17-.09-.24-.18-.12-.14-.19-.32-.19-.53,0-.29.1-.53.31-.7.21-.17.48-.26.82-.26.18,0,.34.02.46.07s.23.11.32.19c.12.12.21.25.27.38.05.16.08.32.09.5h-.65c0-.17-.03-.31-.11-.42-.08-.1-.2-.16-.36-.16Z"/><path class="b" d="M98.32,90.82c-.21-.18-.32-.48-.32-.9,0-.39.11-.68.32-.86s.5-.28.86-.28h1.57v3.6h-.75v-1.29h-.76c-.4,0-.71-.09-.92-.26ZM99.3,90.46h.7v-1.06h-.7c-.18,0-.32.04-.41.12-.1.08-.15.21-.15.4s.05.32.15.41c.1.09.24.13.42.13Z"/><path class="b" d="M97.48,88.75v.64h-.71v-.64h.71ZM97.48,89.71v2.66h-.71v-2.66h.71Z"/><path class="b" d="M94.46,90.43c-.04.07-.06.18-.06.32v1.62h-.71v-1.79c0-.33.09-.57.26-.72.18-.14.4-.22.68-.22.22,0,.4.05.54.16.08.06.16.16.25.3v-.39h.67v2.66h-.69v-1.44c0-.16-.02-.3-.07-.41-.09-.2-.25-.3-.49-.3-.19,0-.32.07-.39.21Z"/><path class="b" d="M89.66,91.99c-.18-.32-.27-.77-.27-1.35s.09-1.04.27-1.35c.18-.32.5-.48.95-.48s.77.16.95.48c.18.32.27.77.27,1.35s-.09,1.03-.27,1.35c-.18.32-.5.47-.95.47s-.77-.16-.95-.47ZM90.6,91.9c.21,0,.34-.11.41-.32.07-.22.1-.53.1-.93s-.03-.74-.1-.95-.2-.31-.41-.31-.34.1-.41.31c-.06.21-.1.52-.1.95s.03.72.1.93c.06.22.2.32.41.32Z"/><path class="b" d="M88.16,92.28v-.63h.75v.73h-.42c0,.16.05.29.11.38.07.09.17.16.31.2v.27s-.12-.02-.24-.07c-.12-.05-.22-.12-.3-.21-.08-.09-.13-.19-.16-.31s-.04-.24-.04-.35Z"/><path class="b" d="M85.92,88.83h.58s0,.08.03.14c.03.11.08.19.14.25.09.09.2.15.34.19.09.02.24.03.46.04v.47h-.83v2.44h-.71v-3.54Z"/><path class="b" d="M83.99,92.28v-.63h.75v.73h-.42c0,.16.05.29.11.38.07.09.17.16.31.2v.27s-.12-.02-.24-.07c-.12-.05-.22-.12-.3-.21-.08-.09-.13-.19-.16-.31s-.04-.24-.04-.35Z"/><path class="b" d="M81.75,88.83h.58s0,.08.03.14c.03.11.08.19.14.25.09.09.2.15.34.19.09.02.24.03.46.04v.47h-.83v2.44h-.71v-3.54Z"/><path class="b" d="M78.65,91.07v-2.21h.78l1.3,2.15v.61h-1.4v.76h-.68v-.76h-.4v-.54h.4ZM79.33,89.54v1.53h.89l-.89-1.53Z"/><path class="b" d="M77.04,92.28v-.63h.75v.73h-.42c0,.16.05.29.11.38.07.09.17.16.31.2v.27s-.12-.02-.24-.07c-.12-.05-.22-.12-.3-.21-.08-.09-.13-.19-.16-.31s-.04-.24-.04-.35Z"/><path class="b" d="M74.8,88.83h.58s0,.08.03.14c.03.11.08.19.14.25.09.09.2.15.34.19.09.02.24.03.46.04v.47h-.83v2.44h-.71v-3.54Z"/><path class="b" d="M72.18,90.8c-.08.12-.13.28-.13.46s.04.34.14.46c.09.12.22.18.39.18.15,0,.26-.04.34-.12.08-.08.13-.2.16-.35h.69c-.02.33-.15.59-.36.77s-.49.27-.83.27c-.42,0-.73-.13-.94-.39s-.31-.55-.31-.88c0-.38.11-.66.33-.86s.47-.3.77-.3c.15,0,.27.02.37.06.06.02.14.07.25.14l-.13-.77h-1.45v-.59h1.95l.25,1.96-.62.03c-.06-.11-.14-.18-.25-.22-.06-.02-.14-.03-.22-.03-.18,0-.31.06-.4.19Z"/><path class="b" d="M69.51,90.58h-.67c-.02-.1-.05-.18-.1-.24-.07-.08-.18-.12-.35-.12-.15,0-.26.02-.33.06-.08.04-.11.12-.11.23,0,.09.05.16.15.2.06.02.15.04.28.06l.24.03c.27.03.47.09.61.17.25.15.38.38.38.71,0,.25-.08.45-.24.58-.16.14-.36.21-.6.21-.19,0-.36-.04-.51-.13-.13-.07-.24-.16-.33-.27,0,.06-.01.11-.02.16s-.02.1-.04.15h-.76v-.1s.08-.05.1-.08.04-.09.04-.19c0-.12,0-.22,0-.31v-1.22c0-.32.11-.54.34-.65s.48-.17.78-.17c.45,0,.76.12.95.35.12.15.18.34.2.57ZM68.9,91.62c0-.13-.05-.23-.16-.3-.06-.04-.17-.07-.31-.1l-.16-.03c-.08-.01-.14-.03-.18-.05-.04-.02-.09-.04-.13-.07v.26c0,.23.07.39.2.48.13.09.26.13.41.13.09,0,.17-.03.24-.08.07-.05.1-.14.1-.26Z"/><path class="b" d="M66.62,92.37h-.7v-3.6h.7v3.6Z"/><path class="b" d="M62.51,92.37l-.77-2.66h.73l.42,1.92.41-1.92h.71l.38,1.91.42-1.91h.75l-.75,2.66h-.72l-.42-1.94-.42,1.94h-.72Z"/><path class="b" d="M61.45,90.58h-.67c-.02-.1-.05-.18-.1-.24-.07-.08-.18-.12-.35-.12-.15,0-.26.02-.33.06-.08.04-.11.12-.11.23,0,.09.05.16.15.2.06.02.15.04.28.06l.24.03c.27.03.47.09.61.17.25.15.38.38.38.71,0,.25-.08.45-.24.58-.16.14-.36.21-.6.21-.19,0-.36-.04-.51-.13-.13-.07-.24-.16-.33-.27,0,.06-.01.11-.02.16s-.02.1-.04.15h-.76v-.1s.08-.05.1-.08.04-.09.04-.19c0-.12,0-.22,0-.31v-1.22c0-.32.11-.54.34-.65s.48-.17.78-.17c.45,0,.76.12.95.35.12.15.18.34.2.57ZM60.84,91.62c0-.13-.05-.23-.16-.3-.06-.04-.17-.07-.31-.1l-.16-.03c-.08-.01-.14-.03-.18-.05-.04-.02-.09-.04-.13-.07v.26c0,.23.07.39.2.48.13.09.26.13.41.13.09,0,.17-.03.24-.08.07-.05.1-.14.1-.26Z"/><path class="b" d="M58.07,89.71h.77l-.98,2.78s0,.07.04.16c.04.09.07.15.11.17.04.03.09.05.16.06s.13.01.2,0h.09s0,.55,0,.55c-.07,0-.13,0-.17,0-.04,0-.09,0-.15,0-.31,0-.51-.06-.62-.18-.1-.12-.24-.43-.42-.94l-.91-2.62h.74l.55,1.96.58-1.96Z"/><path class="b" d="M54.77,89.64c.35,0,.62.09.81.27.19.18.29.39.29.63,0,.21-.06.37-.19.48-.12.11-.34.21-.64.28-.42.1-.66.17-.73.21s-.1.1-.1.18.04.14.12.18c.08.04.19.06.33.06.23,0,.39-.05.48-.14.05-.05.08-.14.1-.26h.71c0,.27-.1.5-.3.67-.2.18-.51.27-.93.27s-.71-.08-.91-.25c-.2-.17-.29-.38-.29-.65,0-.2.07-.37.21-.5.14-.13.35-.23.62-.3.42-.09.66-.16.73-.19.07-.04.1-.09.1-.17,0-.06-.03-.12-.1-.17-.06-.05-.17-.07-.32-.07-.18,0-.31.05-.39.14-.04.05-.07.12-.08.21h-.7c.03-.33.15-.56.36-.69.21-.13.48-.2.81-.2Z"/><path class="b" d="M50.6,89.64c.35,0,.62.09.81.27.19.18.29.39.29.63,0,.21-.06.37-.19.48-.12.11-.34.21-.64.28-.42.1-.66.17-.73.21s-.1.1-.1.18.04.14.12.18c.08.04.19.06.33.06.23,0,.39-.05.48-.14.05-.05.08-.14.1-.26h.71c0,.27-.1.5-.3.67-.2.18-.51.27-.93.27s-.71-.08-.91-.25c-.2-.17-.29-.38-.29-.65,0-.2.07-.37.21-.5.14-.13.35-.23.62-.3.42-.09.66-.16.73-.19.07-.04.1-.09.1-.17,0-.06-.03-.12-.1-.17-.06-.05-.17-.07-.32-.07-.18,0-.31.05-.39.14-.04.05-.07.12-.08.21h-.7c.03-.33.15-.56.36-.69.21-.13.48-.2.81-.2Z"/><path class="b" d="M47.28,91.59c.04.08.08.14.13.18.09.08.21.12.35.12.14,0,.25-.03.35-.1.16-.11.24-.29.25-.56h-1.82c0-.23,0-.41.02-.53.03-.21.1-.39.2-.55.12-.18.26-.31.44-.39s.38-.12.6-.12c.37,0,.68.12.91.37.23.25.35.6.35,1.06,0,.49-.13.85-.39,1.06s-.56.33-.9.33c-.41,0-.73-.13-.96-.39-.15-.16-.23-.32-.25-.48h.71ZM48.34,90.78c-.02-.17-.08-.31-.17-.41-.09-.1-.21-.15-.37-.15-.15,0-.27.05-.37.14-.1.1-.16.23-.17.42h1.08Z"/><path class="b" d="M44.64,90.36s-.07,0-.12,0v-.71s.05,0,.06,0c0,0,.02,0,.03,0,.21,0,.38.05.51.16.08.06.17.19.28.36v-.46h.66v2.66h-.7v-1.27c0-.21-.03-.37-.08-.47-.1-.18-.28-.27-.56-.27-.02,0-.05,0-.08,0Z"/><path class="b" d="M43.42,92.37h-.73l-.96-2.66h.75l.57,1.96.55-1.96h.78l-.95,2.66Z"/><path class="b" d="M40.14,89.63c.46,0,.8.14,1.02.42s.34.61.34,1-.11.72-.34,1c-.22.28-.57.42-1.02.42s-.8-.14-1.02-.42c-.22-.28-.34-.61-.34-1s.11-.72.34-1,.57-.42,1.02-.42ZM39.67,90.43c-.11.14-.16.35-.16.62s.05.47.16.62.27.22.47.22.36-.07.47-.22c.11-.15.17-.35.17-.62s-.05-.47-.17-.62c-.11-.14-.27-.22-.47-.22s-.36.07-.47.22Z"/><path class="b" d="M100.09,151.63c.07-.08.11-.2.13-.37h.72c0,.37-.13.67-.4.88-.27.21-.64.32-1.11.32s-.81-.11-1.07-.33c-.25-.22-.38-.49-.38-.82s.11-.57.32-.73c.14-.11.34-.2.62-.26l.62-.15c.24-.06.4-.11.47-.15.11-.06.17-.16.17-.29,0-.14-.06-.25-.17-.33s-.27-.12-.46-.12c-.17,0-.32.03-.44.09-.18.09-.27.25-.28.46h-.72c.01-.38.15-.67.42-.88.27-.2.59-.3.97-.3.45,0,.8.11,1.03.32s.35.48.35.8c0,.35-.12.61-.36.78-.14.1-.4.19-.78.28l-.38.09c-.22.05-.39.1-.49.17-.1.06-.16.16-.16.28,0,.2.1.34.31.42.11.04.25.06.43.06.3,0,.51-.07.63-.22Z"/><path class="b" d="M96.34,151.88s.05,0,.07,0c.14,0,.23-.01.25-.04.03-.03.04-.09.04-.2v-1.41h-.43v-.5h.43v-.74h.69v.74h.37v.5h-.37v1.64c0,.17-.04.29-.12.37-.12.13-.35.18-.67.17h-.33v-.53s.05,0,.07,0Z"/><path class="b" d="M94.12,152.37h-.68v-2.66h.71v1.45c0,.17.02.31.07.41.09.19.25.29.49.29.19,0,.31-.07.37-.2.04-.08.05-.19.05-.34v-1.6h.71v1.6c0,.3-.04.53-.11.69-.14.28-.4.42-.8.42-.14,0-.26-.02-.36-.05-.1-.04-.21-.1-.32-.2-.04-.03-.07-.07-.09-.11s-.04-.06-.05-.07v.38Z"/><path class="b" d="M91.05,148.78v1.27c.08-.13.18-.22.31-.29.13-.07.27-.11.43-.11.35,0,.63.13.84.39.21.26.31.62.31,1.07,0,.39-.11.72-.32.97-.21.25-.47.38-.78.38-.19,0-.35-.04-.47-.11s-.24-.19-.34-.34v.37h-.68v-3.59h.71ZM92.08,150.49c-.09-.15-.24-.23-.45-.23-.13,0-.25.04-.35.13-.16.14-.25.37-.25.7,0,.23.05.42.15.57s.25.22.45.22.34-.07.44-.22c.1-.15.15-.34.15-.59,0-.23-.05-.42-.14-.57Z"/><path class="b" d="M89.71,148.75v.64h-.71v-.64h.71ZM89.71,149.71v2.66h-.71v-2.66h.71Z"/><path class="b" d="M87.13,149.63c.46,0,.8.14,1.02.42s.34.61.34,1-.11.72-.34,1c-.22.28-.57.42-1.02.42s-.8-.14-1.02-.42c-.22-.28-.34-.61-.34-1s.11-.72.34-1,.57-.42,1.02-.42ZM86.66,150.43c-.11.14-.16.35-.16.62s.05.47.16.62.27.22.47.22.36-.07.47-.22c.11-.15.17-.35.17-.62s-.05-.47-.17-.62c-.11-.14-.27-.22-.47-.22s-.36.07-.47.22Z"/><path class="b" d="M83.83,152.37h-2.53v-.65h1.78v-2.95h.75v3.6Z"/><path class="b" d="M80.92,150.58h-.67c-.02-.1-.05-.18-.1-.24-.07-.08-.18-.12-.35-.12-.15,0-.26.02-.33.06-.08.04-.11.12-.11.23,0,.09.05.16.15.2.06.02.15.04.28.06l.24.03c.27.03.47.09.61.17.25.15.38.38.38.71,0,.25-.08.45-.24.58-.16.14-.36.21-.6.21-.19,0-.36-.04-.51-.13-.13-.07-.24-.16-.33-.27,0,.06-.01.11-.02.16s-.02.1-.04.15h-.76v-.1s.08-.05.1-.08.04-.09.04-.19c0-.12,0-.22,0-.31v-1.22c0-.32.11-.54.34-.65s.48-.17.78-.17c.45,0,.76.12.95.35.12.15.18.34.2.57ZM80.31,151.62c0-.13-.05-.23-.16-.3-.06-.04-.17-.07-.31-.1l-.16-.03c-.08-.01-.14-.03-.18-.05-.04-.02-.09-.04-.13-.07v.26c0,.23.07.39.2.48.13.09.26.13.41.13.09,0,.17-.03.24-.08.07-.05.1-.14.1-.26Z"/><path class="b" d="M75.78,152.04c-.2-.27-.29-.61-.29-1.03s.1-.72.3-.98c.2-.25.47-.38.82-.38.19,0,.35.04.48.12.11.06.2.16.29.28v-1.28h.69v3.59h-.68v-.33c-.09.13-.18.22-.26.27-.13.09-.31.13-.53.13-.35,0-.62-.14-.82-.41ZM76.37,151.65c.1.15.24.22.42.22.21,0,.36-.07.46-.22s.15-.34.15-.57c0-.19-.02-.35-.07-.47-.09-.23-.27-.34-.52-.34s-.42.12-.51.35c-.05.12-.07.28-.07.47,0,.24.05.43.15.57Z"/><path class="b" d="M101.07,154.78v.64h-1.08v2.96h-.76v-2.96h-1.08v-.64h2.92Z"/><path class="b" d="M95.67,157.53c.09.2.29.3.59.3s.5-.1.6-.3c.06-.11.09-.29.09-.54v-2.21h.76v2.21c0,.38-.06.68-.18.89-.22.39-.65.59-1.27.59s-1.05-.2-1.27-.59c-.12-.21-.18-.51-.18-.89v-2.21h.76v2.21c0,.25.03.43.09.54Z"/><path class="b" d="M89.96,157.7c-.19-.33-.29-.74-.29-1.22,0-.19.02-.39.07-.6s.13-.4.26-.58c.16-.22.36-.37.61-.46.15-.05.33-.07.56-.08h1.55v3.6h-1.55c-.54,0-.95-.22-1.21-.67ZM90.43,156.54c0,.27.04.49.11.69.14.35.39.53.74.53h.69v-2.35h-.69c-.34,0-.57.1-.69.29-.11.2-.17.48-.17.84Z"/><path class="b" d="M87.59,157.59c.04.08.08.14.13.18.09.08.21.12.35.12.14,0,.25-.03.35-.1.16-.11.24-.29.25-.56h-1.82c0-.23,0-.41.02-.53.03-.21.1-.39.2-.55.12-.18.26-.31.44-.39s.38-.12.6-.12c.37,0,.68.12.91.37.23.25.35.6.35,1.06,0,.49-.13.85-.39,1.06-.26.22-.56.33-.9.33-.41,0-.73-.13-.96-.39-.15-.16-.23-.32-.25-.48h.71ZM88.65,156.78c-.02-.17-.08-.31-.17-.41-.09-.1-.21-.15-.37-.15-.15,0-.27.05-.37.14-.1.1-.16.23-.17.42h1.08Z"/><path class="b" d="M86.36,158.38h-.7v-3.6h.7v3.6Z"/><path class="b" d="M83.89,154.74s.08,0,.12,0c.39,0,.63.08.73.24.1.11.14.3.14.59v.17h.38v.49h-.39v2.15h-.69v-2.15h-.46v-.49h.46v-.22c0-.05-.02-.1-.05-.14-.03-.04-.1-.06-.19-.06-.09,0-.16,0-.2.01v-.57c.06,0,.11,0,.15-.01Z"/><path class="b" d="M82.17,157.88s.05,0,.07,0c.14,0,.23-.01.25-.04.03-.03.04-.09.04-.2v-1.41h-.43v-.5h.43v-.74h.69v.74h.37v.5h-.37v1.64c0,.17-.04.29-.12.37-.12.13-.35.18-.67.17h-.33v-.53s.05,0,.07,0Z"/><path class="b" d="M98,164.06c-.36-.34-.54-.84-.54-1.48s.18-1.15.54-1.48c.27-.28.67-.42,1.18-.42s.91.14,1.18.42c.36.33.55.83.55,1.48s-.18,1.14-.55,1.48c-.27.28-.67.42-1.18.42s-.91-.14-1.18-.42ZM99.18,163.84c.3,0,.54-.11.71-.33s.27-.53.27-.94-.09-.72-.27-.94-.42-.33-.71-.33-.53.11-.71.33c-.18.22-.26.53-.26.94s.09.72.26.94c.18.22.41.33.71.33Z"/><path class="b" d="M95.5,161.66c.21,0,.4.06.55.18.08.07.16.16.24.27v-.39h.67v3.71h-.69v-1.39c-.07.11-.15.2-.22.26-.14.11-.32.16-.53.16-.33,0-.6-.12-.81-.37-.21-.25-.32-.6-.32-1.07,0-.44.11-.78.32-1.01.22-.23.48-.34.79-.34ZM95.25,163.64c.1.15.25.22.44.22.13,0,.25-.04.35-.11.16-.12.25-.34.25-.65,0-.2-.02-.36-.07-.48-.09-.24-.27-.36-.52-.36-.21,0-.36.08-.46.24-.09.16-.14.34-.14.54,0,.25.05.45.15.6Z"/><path class="b" d="M92.31,163.59c.04.08.08.14.13.18.09.08.21.12.35.12.14,0,.25-.03.35-.1.16-.11.24-.29.25-.56h-1.82c0-.23,0-.41.02-.53.03-.21.1-.39.2-.55.12-.18.26-.31.44-.39s.38-.12.6-.12c.37,0,.68.12.91.37.23.25.35.6.35,1.06,0,.49-.13.85-.39,1.06-.26.22-.56.33-.9.33-.41,0-.73-.13-.96-.39-.15-.16-.23-.32-.25-.48h.71ZM93.37,162.78c-.02-.17-.08-.31-.17-.41-.09-.1-.21-.15-.37-.15-.15,0-.27.05-.37.14-.1.1-.16.23-.17.42h1.08Z"/><path class="b" d="M89.46,162.43c-.04.08-.06.18-.06.32v1.62h-.71v-1.79c0-.33.09-.57.26-.72.18-.14.4-.22.68-.22.22,0,.4.05.54.16.08.06.16.16.25.29v-.39h.67v2.66h-.69v-1.44c0-.17-.02-.3-.07-.41-.09-.2-.25-.3-.49-.3-.19,0-.32.07-.39.21Z"/><path class="b" d="M85.92,163.63c.07-.08.11-.2.13-.37h.72c0,.38-.13.67-.4.88s-.64.32-1.11.32-.81-.11-1.07-.33c-.25-.22-.38-.49-.38-.82s.11-.57.32-.73c.14-.11.34-.2.62-.26l.62-.15c.24-.06.4-.11.47-.15.11-.06.17-.16.17-.29,0-.14-.06-.25-.17-.33s-.27-.12-.46-.12c-.17,0-.32.03-.44.09-.18.09-.27.25-.28.46h-.72c.01-.38.15-.67.42-.88.27-.2.59-.3.97-.3.45,0,.8.11,1.03.32.23.21.35.48.35.8,0,.35-.12.61-.36.78-.14.1-.4.19-.78.28l-.38.09c-.22.05-.39.1-.49.17-.1.07-.16.16-.16.28,0,.2.1.34.31.42.11.04.25.06.43.06.3,0,.51-.07.63-.22Z"/><path class="b" d="M82.12,161.63c.46,0,.8.14,1.02.42.22.28.34.61.34,1s-.11.72-.34,1c-.22.28-.57.42-1.02.42s-.8-.14-1.02-.42c-.22-.28-.34-.61-.34-1s.11-.72.34-1c.22-.28.57-.42,1.02-.42ZM81.66,162.43c-.11.14-.16.35-.16.62s.05.47.16.62c.11.14.27.22.47.22s.36-.07.47-.22c.11-.15.17-.35.17-.62s-.05-.47-.17-.62c-.11-.14-.27-.22-.47-.22s-.36.07-.47.22Z"/><path class="b" d="M78.56,164.38h-.68v-2.66h.71v1.45c0,.17.02.31.07.41.09.19.25.29.49.29.19,0,.31-.07.37-.2.04-.08.05-.19.05-.34v-1.6h.71v1.6c0,.3-.04.54-.11.69-.14.28-.4.42-.8.42-.14,0-.26-.02-.36-.05-.1-.04-.21-.1-.32-.2-.04-.03-.07-.07-.09-.11-.03-.04-.04-.07-.05-.07v.38Z"/><path class="b" d="M75.79,162.36s-.07,0-.12,0v-.71s.05,0,.06,0c0,0,.02,0,.03,0,.21,0,.38.05.51.16.08.07.17.19.28.36v-.46h.66v2.66h-.7v-1.27c0-.21-.03-.37-.08-.47-.1-.18-.28-.27-.56-.27-.02,0-.05,0-.08,0Z"/><path class="b" d="M73.34,161.88c.21-.15.49-.22.82-.22.39,0,.7.13.92.38s.33.61.33,1.07c0,.41-.1.74-.3.99s-.52.38-.94.38-.75-.15-.97-.46c-.14-.19-.21-.39-.23-.6h.71c.01.14.06.25.12.34s.18.13.35.13c.23,0,.39-.11.47-.33.05-.12.07-.28.07-.47,0-.21-.02-.37-.07-.49-.09-.23-.25-.35-.48-.35-.16,0-.29.05-.36.16-.05.08-.09.17-.1.27h-.71c.04-.38.17-.64.38-.79Z"/><path class="b" d="M70.92,163.59c.04.08.08.14.13.18.09.08.21.12.35.12.14,0,.25-.03.35-.1.16-.11.24-.29.25-.56h-1.82c0-.23,0-.41.02-.53.03-.21.1-.39.2-.55.12-.18.26-.31.44-.39s.38-.12.6-.12c.37,0,.68.12.91.37.23.25.35.6.35,1.06,0,.49-.13.85-.39,1.06-.26.22-.56.33-.9.33-.41,0-.73-.13-.96-.39-.15-.16-.23-.32-.25-.48h.71ZM71.98,162.78c-.02-.17-.08-.31-.17-.41-.09-.1-.21-.15-.37-.15-.15,0-.27.05-.37.14-.1.1-.16.23-.17.42h1.08Z"/><path class="b" d="M65.37,164.38v-3.6h.75v1.37h1.41v-1.37h.74v3.6h-.74v-1.61h-1.41v1.61h-.75Z"/><path class="b" d="M64.8,162.58h-.67c-.02-.1-.05-.18-.1-.24-.07-.08-.18-.12-.35-.12-.15,0-.26.02-.33.06-.08.04-.11.12-.11.23,0,.09.05.16.15.2.06.02.15.04.28.06l.24.03c.27.03.47.09.61.17.25.15.38.38.38.71,0,.25-.08.45-.24.58-.16.14-.36.21-.6.21-.19,0-.36-.04-.51-.13-.13-.07-.24-.16-.33-.27,0,.06-.01.11-.02.16,0,.05-.02.1-.04.15h-.76v-.1s.08-.05.1-.08c.02-.03.04-.09.04-.19,0-.12,0-.22,0-.31v-1.22c0-.32.11-.54.34-.65.23-.12.48-.17.78-.17.45,0,.76.12.95.35.12.15.18.34.2.57ZM64.19,163.62c0-.13-.05-.23-.16-.29-.06-.04-.17-.07-.31-.1l-.16-.03c-.08-.01-.14-.03-.18-.05-.04-.02-.09-.04-.13-.07v.26c0,.23.07.39.2.48.13.09.26.13.41.13.09,0,.17-.03.24-.08.07-.05.1-.14.1-.26Z"/><path class="b" d="M60.5,162.36s-.07,0-.12,0v-.71s.05,0,.06,0c0,0,.02,0,.03,0,.21,0,.38.05.51.16.08.07.17.19.28.36v-.46h.66v2.66h-.7v-1.27c0-.21-.03-.37-.08-.47-.1-.18-.28-.27-.56-.27-.02,0-.05,0-.08,0Z"/><path class="b" d="M58.26,160.78v1.27c.08-.13.18-.22.31-.29.13-.07.27-.11.43-.11.35,0,.63.13.84.39.21.26.31.62.31,1.07,0,.39-.11.72-.32.97-.21.25-.47.38-.78.38-.19,0-.35-.04-.47-.11-.13-.07-.24-.19-.34-.34v.37h-.68v-3.59h.71ZM59.29,162.49c-.09-.15-.24-.23-.45-.23-.13,0-.25.04-.35.13-.16.14-.25.37-.25.7,0,.23.05.42.15.57s.25.22.45.22.34-.07.44-.22c.1-.15.15-.34.15-.59,0-.23-.05-.42-.14-.57Z"/><path class="b" d="M54.19,164.38l-.77-2.66h.73l.42,1.92.41-1.92h.71l.38,1.91.42-1.91h.75l-.75,2.66h-.72l-.42-1.94-.42,1.94h-.72Z"/><path class="b" d="M53.13,162.58h-.67c-.02-.1-.05-.18-.1-.24-.07-.08-.18-.12-.35-.12-.15,0-.26.02-.33.06-.08.04-.11.12-.11.23,0,.09.05.16.15.2.06.02.15.04.28.06l.24.03c.27.03.47.09.61.17.25.15.38.38.38.71,0,.25-.08.45-.24.58-.16.14-.36.21-.6.21-.19,0-.36-.04-.51-.13-.13-.07-.24-.16-.33-.27,0,.06-.01.11-.02.16,0,.05-.02.1-.04.15h-.76v-.1s.08-.05.1-.08c.02-.03.04-.09.04-.19,0-.12,0-.22,0-.31v-1.22c0-.32.11-.54.34-.65.23-.12.48-.17.78-.17.45,0,.76.12.95.35.12.15.18.34.2.57ZM52.52,163.62c0-.13-.05-.23-.16-.29-.06-.04-.17-.07-.31-.1l-.16-.03c-.08-.01-.14-.03-.18-.05-.04-.02-.09-.04-.13-.07v.26c0,.23.07.39.2.48.13.09.26.13.41.13.09,0,.17-.03.24-.08.07-.05.1-.14.1-.26Z"/><path class="b" d="M48.83,162.36s-.07,0-.12,0v-.71s.05,0,.06,0c0,0,.02,0,.03,0,.21,0,.38.05.51.16.08.07.17.19.28.36v-.46h.66v2.66h-.7v-1.27c0-.21-.03-.37-.08-.47-.1-.18-.28-.27-.56-.27-.02,0-.05,0-.08,0Z"/><path class="b" d="M46.74,163.59c.04.08.08.14.13.18.09.08.21.12.35.12.14,0,.25-.03.35-.1.16-.11.24-.29.25-.56h-1.82c0-.23,0-.41.02-.53.03-.21.1-.39.2-.55.12-.18.26-.31.44-.39s.38-.12.6-.12c.37,0,.68.12.91.37.23.25.35.6.35,1.06,0,.49-.13.85-.39,1.06-.26.22-.56.33-.9.33-.41,0-.73-.13-.96-.39-.15-.16-.23-.32-.25-.48h.71ZM47.8,162.78c-.02-.17-.08-.31-.17-.41-.09-.1-.21-.15-.37-.15-.15,0-.27.05-.37.14-.1.1-.16.23-.17.42h1.08Z"/><path class="b" d="M99.53,169.66c.06.12.17.19.35.19s.3-.06.35-.17c.05-.11.09-.31.09-.59v-.08h.71v.08c0,.42-.08.76-.24,1-.16.24-.47.37-.94.37s-.79-.15-.97-.45c-.11-.18-.16-.42-.16-.73v-2.5h.75v2.52c0,.17.02.3.05.37Z"/><path class="b" d="M95.23,169.7c-.19-.33-.29-.74-.29-1.22,0-.19.02-.39.07-.6.05-.21.13-.4.26-.58.16-.22.36-.37.61-.46.15-.05.33-.08.56-.08h1.55v3.6h-1.55c-.54,0-.95-.22-1.21-.67ZM95.71,168.54c0,.26.04.49.11.69.14.35.39.53.74.53h.69v-2.35h-.69c-.34,0-.57.1-.69.29-.11.2-.17.48-.17.84Z"/><path class="b" d="M93.43,170.38h-.71l-1.23-3.6h.78l.79,2.73.78-2.73h.8l-1.22,3.6Z"/><path class="b" d="M89.56,167.93c0,.18.07.35.22.51.09.1.3.26.62.49.37.26.6.51.7.75.1.21.16.44.16.7h-2.42v-.61h1.55c-.04-.07-.1-.14-.16-.19-.06-.06-.18-.15-.36-.27l-.28-.2c-.23-.17-.4-.32-.51-.45-.16-.2-.23-.44-.23-.7,0-.34.11-.62.33-.82.22-.21.52-.31.89-.31.47,0,.8.18.99.53.1.19.15.43.16.73h-.68c0-.2-.03-.34-.08-.43-.08-.16-.22-.24-.43-.24-.15,0-.27.05-.36.15-.08.1-.12.22-.12.37Z"/><path class="b" d="M86.43,169.07v-2.21h.78l1.3,2.15v.61h-1.4v.76h-.68v-.76h-.4v-.54h.4ZM87.11,167.54v1.53h.89l-.89-1.53Z"/><path class="b" d="M83.54,169.99c-.18-.32-.27-.77-.27-1.35s.09-1.04.27-1.35c.18-.32.5-.48.95-.48s.77.16.95.48c.18.32.27.77.27,1.35s-.09,1.03-.27,1.35c-.18.32-.5.47-.95.47s-.77-.16-.95-.47ZM84.48,169.9c.21,0,.34-.11.41-.32.07-.22.1-.53.1-.93s-.03-.74-.1-.95-.2-.31-.41-.31-.34.1-.41.31c-.06.21-.1.52-.1.95s.03.72.1.93c.06.22.2.33.41.33Z"/><path class="b" d="M80.87,169.07v-2.21h.78l1.3,2.15v.61h-1.4v.76h-.68v-.76h-.4v-.54h.4ZM81.55,167.54v1.53h.89l-.89-1.53Z"/><path class="b" d="M78.41,166.84h.58s0,.08.03.14c.03.11.08.19.14.25.09.09.2.15.34.19.09.02.24.03.46.04v.47h-.83v2.44h-.71v-3.54Z"/><path class="b" d="M75.79,168.8c-.08.12-.13.28-.13.46s.04.34.14.46c.09.12.22.18.39.18.15,0,.26-.04.34-.12.08-.08.13-.2.16-.35h.69c-.02.33-.15.59-.36.77s-.49.27-.83.27c-.42,0-.73-.13-.94-.39-.21-.26-.31-.55-.31-.88,0-.38.11-.66.33-.86.22-.2.47-.29.77-.29.15,0,.27.02.37.06.06.02.14.07.25.14l-.13-.77h-1.45v-.59h1.95l.25,1.96-.62.03c-.06-.11-.14-.18-.25-.22-.06-.02-.14-.03-.22-.03-.18,0-.31.06-.4.19Z"/><path class="b" d="M99.53,175.66c.06.12.17.19.35.19s.3-.06.35-.17c.05-.11.09-.31.09-.59v-.08h.71v.08c0,.42-.08.76-.24,1s-.47.37-.94.37-.79-.15-.97-.45c-.11-.18-.16-.42-.16-.73v-2.5h.75v2.52c0,.17.02.3.05.37Z"/><path class="b" d="M97.99,176.37h-2.53v-.65h1.78v-2.95h.75v3.6Z"/><path class="b" d="M91.9,175.15h.74c.05.19.11.33.19.42.14.17.34.26.6.26s.47-.1.64-.3c.17-.2.25-.5.25-.91s-.08-.72-.24-.94c-.16-.22-.37-.33-.65-.33s-.47.08-.61.23c-.08.09-.14.22-.19.39h-.75c.01-.22.09-.45.25-.67.28-.4.72-.6,1.33-.6.45,0,.83.15,1.12.44.34.34.51.82.51,1.45,0,.58-.15,1.04-.44,1.37-.3.33-.7.5-1.22.5-.42,0-.76-.12-1.03-.37-.27-.25-.43-.56-.5-.96Z"/><path class="b" d="M90.09,175.66c.06.12.17.19.35.19s.3-.06.35-.17c.05-.11.09-.31.09-.59v-.08h.71v.08c0,.42-.08.76-.24,1s-.47.37-.94.37-.79-.15-.97-.45c-.11-.18-.16-.42-.16-.73v-2.5h.75v2.52c0,.17.02.3.05.37Z"/><path class="b" d="M88.54,176.37h-2.53v-.65h1.78v-2.95h.75v3.6Z"/><path class="b" d="M82.45,175.15h.74c.05.19.11.33.19.42.14.17.34.26.6.26s.47-.1.64-.3c.17-.2.25-.5.25-.91s-.08-.72-.24-.94c-.16-.22-.37-.33-.65-.33s-.47.08-.61.23c-.08.09-.14.22-.19.39h-.75c.01-.22.09-.45.25-.67.28-.4.72-.6,1.33-.6.45,0,.83.15,1.12.44.34.34.51.82.51,1.45,0,.58-.15,1.04-.44,1.37-.3.33-.7.5-1.22.5-.42,0-.76-.12-1.03-.37-.27-.25-.43-.56-.5-.96Z"/><path class="b" d="M80.64,175.66c.06.12.17.19.35.19s.3-.06.35-.17c.05-.11.09-.31.09-.59v-.08h.71v.08c0,.42-.08.76-.24,1s-.47.37-.94.37-.79-.15-.97-.45c-.11-.18-.16-.42-.16-.73v-2.5h.75v2.52c0,.17.02.3.05.37Z"/><path class="b" d="M79.1,176.37h-2.53v-.65h1.78v-2.95h.75v3.6Z"/><path class="b" d="M73,175.15h.74c.05.19.11.33.19.42.14.17.34.26.6.26s.47-.1.64-.3c.17-.2.25-.5.25-.91s-.08-.72-.24-.94c-.16-.22-.37-.33-.65-.33s-.47.08-.61.23c-.08.09-.14.22-.19.39h-.75c.01-.22.09-.45.25-.67.28-.4.72-.6,1.33-.6.45,0,.83.15,1.12.44.34.34.51.82.51,1.45,0,.58-.15,1.04-.44,1.37-.3.33-.7.5-1.22.5-.42,0-.76-.12-1.03-.37-.27-.25-.43-.56-.5-.96Z"/></svg>