<?xml version="1.0" encoding="UTF-8"?><svg id="b" xmlns="http://www.w3.org/2000/svg" width="168.07" height="181.7" viewBox="0 0 168.07 181.7"><defs><style>.d{fill:#fff;}</style></defs><g id="c"><path class="d" d="M69.77,6.59c0,.08,0,.15.03.21.02.05.04.1.07.13.03.03.07.05.1.07.04.01.08.02.12.02.05,0,.1-.01.14-.04.04-.03.08-.07.11-.11s.06-.1.08-.15.05-.11.07-.17c.03-.07.06-.15.09-.23s.08-.15.13-.22c.05-.07.12-.12.2-.16.08-.04.18-.06.29-.06.23,0,.41.08.54.23.13.15.2.36.2.62,0,.15-.02.28-.05.4s-.07.21-.12.29l-.38-.14c.04-.07.07-.14.1-.22.03-.08.04-.18.04-.28,0-.26-.09-.39-.28-.39-.05,0-.09.01-.13.04-.04.03-.07.06-.1.1-.03.04-.05.09-.07.14-.02.05-.04.1-.06.15-.03.08-.06.16-.1.24-.04.08-.08.16-.14.23-.06.07-.13.13-.22.17s-.2.07-.34.07c-.23,0-.41-.08-.54-.23-.13-.15-.19-.38-.19-.69,0-.21.02-.37.07-.49s.08-.21.12-.28l.4.14c-.04.07-.08.16-.12.26-.04.1-.06.22-.06.37Z"/><path class="d" d="M69.36,8.85c0-.35.11-.62.34-.8.22-.18.54-.28.96-.28.21,0,.39.03.55.08.16.06.3.13.41.23.11.1.19.22.25.36.06.14.09.29.09.45,0,.09,0,.17-.02.24-.01.07-.03.13-.05.19-.02.05-.04.1-.06.13s-.04.06-.05.08l-.39-.13c.04-.06.07-.14.1-.22s.04-.19.04-.3c0-.08-.01-.15-.04-.23s-.07-.14-.14-.2c-.07-.06-.15-.1-.26-.14s-.25-.05-.41-.05c-.28,0-.5.05-.65.15-.15.1-.23.26-.23.48,0,.13.01.23.04.32s.06.15.09.2l-.39.12c-.04-.07-.08-.16-.12-.28-.04-.12-.05-.26-.05-.41Z"/><path class="d" d="M69.41,11.5v-1.56h2.48v.5h-2.07v1.06h-.41Z"/><path class="d" d="M74.91,6.64c0,.08,0,.15.03.21.02.05.04.1.07.13.03.03.07.05.1.07.04.01.08.02.12.02.05,0,.1-.01.14-.04.04-.03.08-.07.11-.11s.06-.1.08-.15.05-.11.07-.17c.03-.07.06-.15.09-.23s.08-.15.13-.22c.05-.07.12-.12.2-.16.08-.04.18-.06.29-.06.23,0,.41.08.54.23.13.15.2.36.2.62,0,.15-.02.28-.05.4s-.07.21-.12.29l-.38-.14c.04-.07.07-.14.1-.22.03-.08.04-.18.04-.28,0-.26-.09-.39-.28-.39-.05,0-.09.01-.13.04-.04.03-.07.06-.1.1-.03.04-.05.09-.07.14-.02.05-.04.1-.06.15-.03.08-.06.16-.1.24-.04.08-.08.16-.14.23-.06.07-.13.13-.22.17s-.2.07-.34.07c-.23,0-.41-.08-.54-.23-.13-.15-.19-.38-.19-.69,0-.21.02-.37.07-.49s.08-.21.12-.28l.4.14c-.04.07-.08.16-.12.26-.04.1-.06.22-.06.37Z"/><path class="d" d="M75.79,9.6c-.23,0-.42-.03-.59-.09-.16-.06-.29-.14-.39-.24s-.18-.22-.22-.36c-.05-.14-.07-.29-.07-.46,0-.09,0-.17.01-.26s.02-.17.05-.27h2.42c.02.11.04.22.05.32,0,.1.01.19.01.28,0,.16-.02.31-.07.45-.05.13-.12.25-.23.34-.1.09-.23.17-.39.22-.16.05-.35.08-.57.08ZM74.95,8.42s0,.03,0,.04v.04c0,.11.02.21.06.28.04.08.1.14.18.18.07.05.16.08.27.1s.22.03.34.03c.11,0,.21,0,.31-.02.1-.02.19-.04.27-.08.08-.04.14-.09.19-.16.05-.07.07-.16.07-.27,0-.02,0-.05,0-.07,0-.03,0-.05-.01-.07h-1.66Z"/><path class="d" d="M74.55,11.15l.57-.12v-.66l-.57-.11v-.51c.49.12.93.24,1.33.36s.78.24,1.14.35v.54c-.36.12-.75.23-1.15.35-.41.12-.85.23-1.32.34v-.53ZM76.55,10.71c-.09-.03-.18-.05-.27-.07-.08-.02-.17-.04-.25-.06s-.16-.04-.25-.06c-.08-.02-.17-.03-.26-.05v.48c.09-.02.17-.03.26-.05.08-.02.16-.03.25-.05s.16-.04.25-.06c.08-.02.17-.05.27-.07Z"/><path class="d" d="M79.7,6.36c.18-.06.39-.13.62-.2.23-.07.46-.14.69-.2.23-.06.45-.12.65-.17s.37-.09.5-.11v.52c-.13.02-.28.04-.45.07-.17.03-.34.07-.52.11-.18.04-.36.08-.53.12-.17.04-.33.09-.47.13.14.04.29.09.47.13.17.04.35.08.53.12.18.04.36.07.53.1.17.03.32.06.45.08v.52c-.16-.03-.34-.07-.54-.12s-.41-.1-.62-.16c-.22-.06-.44-.13-.66-.2-.22-.07-.44-.15-.65-.22v-.51Z"/><path class="d" d="M79.64,8.8c0-.35.11-.62.34-.8.22-.18.54-.28.96-.28.21,0,.39.03.55.08.16.06.29.13.41.23.11.1.19.22.25.36.06.14.09.29.09.45,0,.09,0,.17-.02.24-.01.07-.03.13-.05.19-.02.05-.04.1-.06.13s-.04.06-.05.08l-.39-.13c.04-.06.07-.14.1-.22.03-.09.04-.19.04-.3,0-.08-.01-.15-.04-.23-.03-.07-.07-.14-.14-.2-.07-.06-.15-.1-.26-.14s-.25-.05-.41-.05c-.28,0-.5.05-.65.15-.15.1-.23.26-.23.48,0,.13.01.23.04.32s.06.15.09.2l-.39.12c-.04-.07-.08-.16-.12-.28-.04-.12-.05-.26-.05-.41Z"/><path class="d" d="M79.64,10.8c0-.35.11-.62.34-.8.22-.18.54-.28.96-.28.21,0,.39.03.55.08.16.06.29.13.41.23.11.1.19.22.25.36.06.14.09.29.09.45,0,.09,0,.17-.02.24-.01.07-.03.13-.05.19-.02.05-.04.1-.06.13s-.04.06-.05.08l-.39-.13c.04-.06.07-.14.1-.22.03-.09.04-.19.04-.3,0-.08-.01-.15-.04-.23-.03-.07-.07-.14-.14-.2-.07-.06-.15-.1-.26-.14s-.25-.05-.41-.05c-.28,0-.5.05-.65.15-.15.1-.23.26-.23.48,0,.13.01.23.04.32s.06.15.09.2l-.39.12c-.04-.07-.08-.16-.12-.28-.04-.12-.05-.26-.05-.41Z"/><path class="d" d="M86.94,7.01c0-.12-.02-.22-.06-.3-.04-.08-.1-.15-.18-.2-.08-.05-.17-.09-.27-.11-.11-.02-.22-.03-.35-.03-.3,0-.51.05-.65.14s-.21.23-.21.41c0,.03,0,.06,0,.1s0,.07.01.1h.9v.49h-1.24c-.02-.06-.05-.15-.07-.27-.03-.12-.04-.27-.04-.45,0-.15.03-.29.08-.42.05-.12.14-.23.24-.32.11-.09.24-.16.4-.2.16-.05.35-.07.56-.07s.4.03.56.08c.16.06.3.13.41.23.11.1.19.21.25.34.05.13.08.27.08.42,0,.1,0,.18-.02.26s-.03.14-.05.2c-.02.06-.04.1-.06.14s-.04.06-.05.08l-.39-.13c.04-.06.07-.13.1-.22.03-.09.04-.17.04-.26Z"/><path class="d" d="M84.84,9.18c.27-.11.55-.23.82-.37.27-.13.55-.27.82-.43h-1.64v-.44h2.48v.4c-.12.07-.25.15-.38.22-.14.07-.27.15-.41.22-.14.07-.27.14-.4.2-.13.06-.24.11-.34.15h1.52v.44h-2.48v-.4Z"/><path class="d" d="M86.08,11.65c-.23,0-.42-.03-.59-.09-.16-.06-.29-.14-.39-.24-.1-.1-.18-.22-.22-.36-.05-.14-.07-.29-.07-.46,0-.09,0-.17.01-.26,0-.08.02-.17.04-.27h2.42c.02.11.04.22.05.32,0,.1.01.19.01.28,0,.16-.02.31-.07.45-.05.13-.12.25-.23.34-.1.09-.23.17-.39.22-.16.05-.35.08-.57.08ZM85.24,10.47s0,.03,0,.04v.04c0,.11.02.21.06.28.04.08.1.14.18.18.07.05.16.08.27.1.1.02.21.03.34.03.11,0,.21,0,.31-.02.1-.02.19-.04.27-.08.08-.04.14-.09.19-.16s.07-.16.07-.27c0-.02,0-.05,0-.07,0-.03,0-.05,0-.07h-1.66Z"/><path class="d" d="M50.06,11.12v-.82h1.08v-3.32h-1.08v-.82h3.14v.82h-1.07v3.32h1.07v.82h-3.14Z"/><path class="d" d="M55.84,6.93c0,.21-.06.38-.18.52-.12.14-.26.27-.4.4-.09.07-.17.14-.25.22-.08.08-.15.16-.21.23h1.12v.65h-2.06v-.2c0-.23.06-.45.19-.63.12-.19.31-.38.55-.58.13-.11.24-.21.32-.29.08-.08.12-.16.12-.25,0-.07-.02-.13-.06-.18-.04-.04-.1-.06-.18-.06-.14,0-.27.03-.38.08s-.22.11-.3.18l-.37-.55c.12-.11.28-.2.47-.29s.39-.13.61-.13c.37,0,.64.08.8.24s.24.37.24.64Z"/><path class="d" d="M58.39,11.22c-.7,0-1.23-.22-1.6-.67-.37-.45-.55-1.09-.55-1.91,0-.41.06-.78.17-1.1.11-.32.27-.59.47-.81.2-.22.44-.39.71-.5s.57-.17.9-.17c.18,0,.33.01.48.04s.27.06.37.1c.11.04.2.08.27.12.07.04.13.07.16.1l-.26.78c-.12-.08-.27-.15-.44-.2s-.37-.08-.6-.08c-.15,0-.31.03-.45.08-.15.06-.28.15-.39.28-.11.13-.21.31-.28.52-.07.22-.11.49-.11.82,0,.57.1,1,.29,1.3.19.3.51.45.96.45.26,0,.47-.03.64-.09s.3-.12.4-.18l.25.78c-.14.09-.33.16-.56.24-.24.07-.51.11-.82.11Z"/><path class="d" d="M110.82,21.77c-.13-.37-.26-.78-.41-1.25-.14-.46-.28-.93-.41-1.39-.13-.46-.24-.9-.34-1.31-.1-.41-.18-.75-.22-1.01h1.04c.03.26.08.55.14.89.06.34.13.69.21,1.05.08.36.16.71.25,1.06.09.35.17.66.26.94.08-.27.17-.58.26-.93s.17-.7.24-1.06c.07-.36.14-.71.21-1.05.06-.34.12-.64.16-.9h1.03c-.06.32-.14.68-.24,1.07-.09.39-.2.81-.32,1.24-.12.44-.25.88-.4,1.33-.14.45-.29.89-.45,1.31h-1.02Z"/><path class="d" d="M115.7,21.88c-.7,0-1.23-.22-1.6-.67-.37-.45-.55-1.09-.55-1.91,0-.41.06-.78.17-1.1.11-.32.27-.59.47-.81.2-.22.44-.39.71-.5.28-.11.58-.17.9-.17.18,0,.33.01.48.04.14.03.27.06.37.1s.2.08.27.12c.07.04.13.07.16.1l-.26.78c-.12-.08-.27-.15-.44-.2-.17-.06-.37-.08-.6-.08-.16,0-.31.03-.45.08-.15.06-.28.15-.39.28-.11.13-.21.31-.28.52-.07.22-.11.49-.11.82,0,.57.1,1,.29,1.3s.51.45.96.45c.26,0,.47-.03.64-.09s.3-.12.4-.18l.25.78c-.14.09-.33.16-.56.24-.24.07-.51.11-.82.11Z"/><path class="d" d="M119.7,21.88c-.7,0-1.23-.22-1.6-.67-.37-.45-.55-1.09-.55-1.91,0-.41.06-.78.17-1.1.11-.32.27-.59.47-.81.2-.22.44-.39.71-.5.28-.11.58-.17.9-.17.18,0,.33.01.48.04.14.03.27.06.37.1s.2.08.27.12c.07.04.13.07.16.1l-.26.78c-.12-.08-.27-.15-.44-.2-.17-.06-.37-.08-.6-.08-.16,0-.31.03-.45.08-.15.06-.28.15-.39.28-.11.13-.21.31-.28.52-.07.22-.11.49-.11.82,0,.57.1,1,.29,1.3s.51.45.96.45c.26,0,.47-.03.64-.09s.3-.12.4-.18l.25.78c-.14.09-.33.16-.56.24-.24.07-.51.11-.82.11Z"/><path class="d" d="M129.69,17.31c-.24,0-.43.04-.59.13-.16.09-.29.2-.4.36-.1.15-.18.33-.22.54-.05.21-.07.44-.07.7,0,.59.09,1.03.28,1.31.19.28.46.42.82.42.06,0,.12,0,.19,0s.13-.01.19-.02v-1.81h.98v2.47c-.12.04-.3.09-.55.14s-.55.08-.9.08c-.31,0-.59-.05-.84-.16s-.46-.27-.64-.49c-.18-.22-.31-.49-.41-.81-.1-.32-.14-.7-.14-1.12s.06-.79.17-1.12c.11-.32.26-.59.46-.81.19-.22.42-.38.68-.49.26-.11.54-.16.84-.16.19,0,.36.01.52.04.15.03.28.06.4.1.11.04.2.08.28.12.07.04.13.07.16.1l-.26.78c-.12-.07-.26-.14-.43-.2-.17-.06-.35-.09-.53-.09Z"/><path class="d" d="M134.03,21.52c-.22-.55-.47-1.1-.73-1.64-.26-.55-.55-1.09-.85-1.64v3.29h-.89v-4.95h.79c.15.23.3.49.45.76.15.27.29.55.44.82.14.27.27.54.39.79.12.26.22.48.31.67v-3.05h.89v4.95h-.79Z"/><path class="d" d="M138.98,19.04c0,.46-.06.85-.17,1.17-.11.32-.27.59-.48.79s-.44.35-.72.44c-.28.09-.59.14-.92.14-.18,0-.35,0-.52-.03-.17-.02-.35-.05-.54-.09v-4.83c.22-.05.43-.08.63-.1s.38-.02.55-.02c.33,0,.62.05.89.14.27.1.5.25.68.45.19.21.33.47.44.78.1.32.16.7.16,1.15ZM136.61,20.72s.06,0,.09,0h.09c.22,0,.41-.04.56-.13.15-.09.28-.2.37-.35.09-.15.16-.33.2-.53.04-.21.06-.43.06-.68,0-.21-.02-.42-.05-.62-.03-.2-.09-.38-.17-.54-.08-.15-.19-.28-.33-.37-.14-.09-.32-.14-.54-.14-.04,0-.09,0-.14,0-.05,0-.1,0-.14.02v3.33Z"/><path class="d" d="M125.03,68.49c.17,0,.3-.02.41-.05s.2-.08.26-.14c.06-.06.11-.13.13-.21.02-.08.04-.16.04-.24,0-.1-.03-.19-.09-.27s-.13-.15-.22-.21c-.09-.06-.19-.12-.3-.17-.11-.05-.22-.1-.34-.14-.15-.05-.3-.11-.46-.18s-.31-.16-.44-.26c-.13-.11-.24-.24-.32-.4-.09-.16-.13-.35-.13-.59,0-.46.15-.83.45-1.09.3-.26.72-.39,1.24-.39.3,0,.57.03.8.1.23.07.42.15.57.23l-.29.76c-.13-.07-.28-.14-.44-.19-.16-.05-.35-.08-.56-.08-.52,0-.78.19-.78.57,0,.1.03.18.08.25.05.07.12.14.2.19s.18.11.28.15c.1.04.21.08.31.12.16.06.32.12.48.2.17.07.32.17.46.29s.26.27.35.45.14.4.14.68c0,.46-.15.82-.45,1.08-.3.25-.76.38-1.37.38-.41,0-.74-.04-.98-.13-.25-.09-.43-.17-.55-.24l.29-.8c.14.08.32.17.52.24s.44.11.73.11Z"/><path class="d" d="M127.68,69.21v-4.95h3v.82h-2.02v1.11h1.75v.82h-1.75v1.39h2.19v.82h-3.18Z"/><path class="d" d="M132.89,64.21c.28,0,.54.03.77.1s.43.16.59.3c.17.13.29.3.38.51.09.21.13.45.13.72s-.06.55-.18.78c-.12.23-.31.41-.58.54.09.14.19.29.29.46s.2.34.3.53c.1.18.19.37.28.55s.16.36.23.52h-1.03c-.12-.32-.26-.63-.43-.92-.16-.3-.34-.6-.52-.9h-.51v1.82h-.98v-4.88c.1-.02.2-.04.32-.06.12-.02.23-.03.35-.04.12,0,.23-.01.34-.02.11,0,.2,0,.28,0ZM133.76,65.82c0-.26-.08-.45-.24-.58-.16-.12-.37-.18-.63-.18-.04,0-.08,0-.14,0-.05,0-.11,0-.16.02v1.49h.22c.34,0,.58-.06.73-.2s.22-.32.22-.56Z"/><path class="d" d="M136.66,69.21c-.13-.37-.26-.78-.41-1.25-.14-.46-.28-.93-.41-1.39-.13-.46-.24-.9-.34-1.31s-.18-.75-.22-1.01h1.04c.03.26.08.55.14.89.06.34.13.69.21,1.05.08.36.16.71.25,1.06.09.35.17.66.26.94.09-.27.17-.58.26-.93.08-.35.17-.7.24-1.06.08-.36.14-.71.21-1.05.06-.34.12-.64.16-.9h1.03c-.06.32-.14.68-.24,1.07-.09.39-.2.81-.32,1.24-.12.44-.25.88-.4,1.33-.14.45-.29.89-.45,1.31h-1.02Z"/><path class="d" d="M139.39,66.73c0-.85.16-1.5.47-1.93.31-.43.75-.65,1.31-.65s1.02.22,1.33.65c.3.44.46,1.08.46,1.93s-.15,1.5-.46,1.93-.75.65-1.31.65-1.03-.22-1.33-.65-.46-1.08-.46-1.93ZM140.39,66.73c0,.24,0,.47.03.68.02.21.06.39.11.55.06.15.13.28.24.37.1.09.24.14.41.14s.3-.05.4-.14c.1-.09.18-.21.24-.37.06-.16.09-.34.11-.55s.03-.43.03-.67,0-.47-.03-.68c-.02-.21-.06-.39-.11-.55-.06-.15-.13-.28-.24-.37-.1-.09-.24-.14-.41-.14s-.31.05-.41.14c-.1.09-.18.21-.24.37-.06.16-.09.34-.11.55s-.03.43-.03.67Z"/><path class="d" d="M132.32,87.49c0,.07-.01.14-.04.2-.03.06-.06.12-.09.18-.04.06-.07.12-.09.17-.03.05-.04.11-.04.16,0,.02,0,.04,0,.06,0,.02.02.04.03.06.02.02.04.04.08.05.04.02.08.03.14.05l-.1.36c-.07,0-.14-.03-.21-.06s-.14-.06-.2-.11-.11-.1-.15-.17c-.04-.07-.06-.15-.06-.24,0-.07.01-.14.04-.2.03-.06.06-.12.09-.18.04-.06.07-.11.09-.17.03-.05.04-.11.04-.16,0-.02,0-.04,0-.06,0-.02-.02-.04-.04-.06-.02-.02-.05-.04-.08-.05-.04-.02-.08-.03-.14-.05l.1-.36c.07.01.14.03.21.06s.14.06.2.11c.06.05.11.1.16.17.04.07.06.15.06.24Z"/><path class="d" d="M132.59,86.01h-1.38c.05.07.1.16.14.26.04.1.07.18.1.24l-.41.16c-.02-.06-.05-.13-.09-.21s-.08-.15-.12-.22-.09-.15-.14-.21c-.05-.07-.1-.12-.16-.17v-.34h2.07v-.49h.41v1.5h-.41v-.52Z"/><path class="d" d="M132.27,83.58c-.07,0-.13.01-.19.03-.06.02-.11.07-.15.14-.04.07-.07.16-.1.29-.02.13-.03.29-.03.49-.22-.03-.44-.05-.66-.06s-.42-.03-.62-.04v-1.26h.41v.85c.08,0,.17.01.27.02.09,0,.17.02.23.02.02-.33.1-.58.24-.74s.33-.24.58-.24c.12,0,.22.02.32.06s.18.1.25.18.13.19.17.31.06.27.06.43c0,.06,0,.13-.01.2,0,.07-.02.13-.03.19-.01.06-.03.12-.04.17-.02.05-.03.09-.04.11l-.41-.1c.03-.06.06-.13.08-.22.02-.09.04-.2.04-.34,0-.1,0-.18-.03-.24s-.05-.11-.08-.15-.07-.06-.11-.07c-.04-.01-.09-.02-.13-.02Z"/><path class="d" d="M125.09,87.49c0,.07-.01.14-.04.2-.03.06-.06.12-.09.18-.03.06-.07.12-.09.17-.03.05-.04.11-.04.16,0,.02,0,.04,0,.06,0,.02.02.04.03.06s.04.04.08.05c.03.02.08.03.14.05l-.1.36c-.07,0-.14-.03-.21-.06s-.14-.06-.2-.11-.11-.1-.15-.17c-.04-.07-.06-.15-.06-.24,0-.07.01-.14.04-.2.03-.06.06-.12.09-.18.03-.06.07-.11.09-.17.03-.05.04-.11.04-.16,0-.02,0-.04,0-.06,0-.02-.02-.04-.04-.06s-.04-.04-.08-.05-.08-.03-.14-.05l.1-.36c.07.01.14.03.21.06s.14.06.2.11c.06.05.12.1.16.17.04.07.06.15.06.24Z"/><path class="d" d="M125.37,86.01h-1.38c.05.07.1.16.14.26.04.1.07.18.1.24l-.41.16c-.02-.06-.05-.13-.09-.21-.04-.07-.08-.15-.12-.22-.05-.07-.09-.15-.14-.21-.05-.07-.1-.12-.16-.17v-.34h2.07v-.49h.41v1.5h-.41v-.52Z"/><path class="d" d="M123.3,83.23h1.49v-.27h.4v.27h.58v.49h-.58v1.03h-.36c-.1-.05-.22-.12-.35-.2-.13-.08-.27-.17-.41-.26-.14-.1-.28-.2-.41-.3-.13-.11-.25-.21-.36-.32v-.44ZM123.91,83.73c.06.05.13.1.2.15.07.05.14.1.22.15s.15.1.23.14c.08.05.15.09.23.12v-.56h-.87Z"/><path class="d" d="M31.12,86.49c0,.07-.01.14-.04.2-.03.06-.06.12-.09.18s-.07.12-.09.17-.04.11-.04.16c0,.02,0,.04,0,.06,0,.02.02.04.03.06.02.02.04.04.08.05s.08.03.14.05l-.1.36c-.07-.01-.14-.03-.21-.06-.07-.03-.14-.06-.2-.11s-.11-.1-.15-.17c-.04-.07-.06-.15-.06-.24,0-.07.01-.14.04-.2.03-.06.06-.12.09-.18.03-.06.07-.11.09-.17.03-.05.04-.11.04-.16,0-.02,0-.04,0-.06s-.02-.04-.04-.06c-.02-.02-.05-.04-.08-.05-.03-.02-.08-.03-.14-.05l.1-.36c.07.01.14.03.21.06s.14.06.2.11c.06.05.11.1.16.17.04.07.06.15.06.24Z"/><path class="d" d="M31.39,85.01h-1.38c.05.07.1.16.14.26.04.1.07.18.1.24l-.41.16c-.02-.06-.05-.13-.09-.21-.04-.07-.08-.15-.12-.22-.05-.07-.09-.15-.14-.21-.05-.07-.1-.12-.16-.17v-.34h2.07v-.49h.41v1.5h-.41v-.52Z"/><path class="d" d="M23.89,86.49c0,.07-.01.14-.04.2-.03.06-.06.12-.09.18s-.07.12-.09.17-.04.11-.04.16c0,.02,0,.04,0,.06,0,.02.02.04.03.06.02.02.04.04.08.05s.08.03.14.05l-.1.36c-.07-.01-.14-.03-.21-.06-.07-.03-.14-.06-.2-.11s-.11-.1-.15-.17c-.04-.07-.06-.15-.06-.24,0-.07.01-.14.04-.2.03-.06.06-.12.09-.18.03-.06.07-.11.09-.17.03-.05.04-.11.04-.16,0-.02,0-.04,0-.06s-.02-.04-.04-.06c-.02-.02-.05-.04-.08-.05-.03-.02-.08-.03-.14-.05l.1-.36c.07.01.14.03.21.06s.14.06.2.11c.06.05.11.1.16.17.04.07.06.15.06.24Z"/><path class="d" d="M23.33,84.01c.44,0,.76.07.98.22.21.15.32.36.32.64s-.11.49-.32.64c-.21.15-.54.22-.98.22s-.75-.07-.97-.22c-.21-.15-.32-.36-.32-.64s.11-.49.32-.64c.21-.15.54-.22.97-.22ZM23.33,84.45c-.28,0-.5.04-.65.11s-.22.17-.22.31.07.24.22.31c.15.07.36.11.65.11s.5-.04.65-.11c.15-.07.22-.17.22-.31s-.07-.24-.22-.31c-.15-.07-.36-.11-.65-.11ZM23.29,84.64c.07,0,.13.02.19.06.05.04.08.09.08.16,0,.07-.03.12-.08.16-.05.04-.11.06-.19.06s-.13-.02-.19-.06c-.05-.04-.08-.09-.08-.16,0-.06.03-.12.08-.16.05-.04.12-.06.19-.06Z"/><path class="d" d="M142.13,91.01c.63,0,1.12.13,1.46.39.35.26.52.68.52,1.27s-.17,1.02-.52,1.28c-.35.26-.84.4-1.48.4h-.35v1.67h-.98v-4.89c.1-.02.2-.04.32-.06.12-.02.24-.03.36-.04.12,0,.24-.01.36-.02.12,0,.22,0,.31,0ZM142.25,91.86c-.06,0-.14,0-.24,0-.1,0-.19,0-.24.02v1.6h.4c.32,0,.55-.06.71-.19.16-.12.24-.34.24-.64,0-.29-.08-.49-.24-.61-.16-.12-.37-.18-.63-.18Z"/><path class="d" d="M146.71,92.81c.02.1.05.23.1.38.04.15.09.32.14.5.05.18.11.38.17.58s.12.42.18.64c0-.28,0-.58-.02-.89-.01-.32-.03-.64-.04-.97s-.03-.67-.04-1c-.01-.34-.02-.67-.02-.98h.99c-.02.41-.03.82-.05,1.25-.02.43-.03.86-.06,1.28s-.05.84-.08,1.25c-.03.41-.06.8-.1,1.17h-.82c-.12-.34-.23-.7-.35-1.08-.12-.39-.24-.76-.35-1.11-.12.34-.24.7-.37,1.1s-.25.76-.35,1.1h-.82c-.04-.37-.08-.76-.11-1.17-.03-.41-.06-.83-.08-1.26-.02-.42-.04-.85-.06-1.28-.02-.43-.03-.84-.04-1.24h.91c0,.32-.01.64-.02.98,0,.34-.01.67-.02,1,0,.33-.01.66-.02.98,0,.32,0,.62,0,.89.05-.17.1-.36.16-.56.06-.2.12-.4.18-.6s.11-.38.16-.54c.05-.17.08-.3.11-.39h.72Z"/><path class="d" d="M149.63,91.06c.04.11.08.26.14.43s.12.37.18.57c.06.2.13.41.19.62.06.21.12.4.18.58.06-.2.13-.4.2-.61.07-.21.14-.41.2-.61.06-.2.12-.38.18-.55.05-.17.1-.31.14-.42h.82c.04.43.07.85.11,1.26.03.41.06.82.09,1.22s.04.81.06,1.22c.02.41.03.83.04,1.25h-.9l.05-3.85-.61,2.1h-.72l-.58-2.1.04,3.85h-.9c.02-.41.03-.83.05-1.26s.04-.87.06-1.3c.02-.43.05-.85.08-1.26.03-.41.06-.78.1-1.13h.82Z"/><path class="d" d="M141.83,103.21c-.13-.37-.26-.78-.41-1.25-.14-.46-.28-.93-.41-1.39s-.24-.9-.34-1.31c-.1-.41-.18-.75-.22-1.01h1.04c.03.26.08.55.14.89.06.34.13.69.21,1.05s.16.71.25,1.06c.09.35.17.66.26.94.08-.27.17-.58.26-.93.08-.35.17-.7.24-1.06.07-.36.14-.71.21-1.05.06-.34.12-.64.16-.9h1.03c-.06.32-.14.68-.24,1.07-.09.39-.2.81-.32,1.24s-.25.88-.4,1.33c-.14.45-.29.89-.45,1.31h-1.02Z"/><path class="d" d="M146.71,103.32c-.7,0-1.23-.22-1.6-.67-.37-.45-.55-1.09-.55-1.91,0-.41.06-.78.17-1.1.11-.32.27-.59.47-.81s.44-.39.71-.5c.28-.12.58-.17.9-.17.18,0,.33.01.48.04.14.03.27.06.37.1s.2.08.27.12c.07.04.13.08.16.1l-.26.78c-.12-.08-.27-.15-.44-.2-.17-.06-.37-.08-.6-.08-.16,0-.31.03-.45.08-.15.06-.28.15-.39.28-.11.13-.21.31-.28.52-.07.22-.11.49-.11.82,0,.57.1,1,.29,1.3.19.3.51.45.96.45.26,0,.47-.03.64-.09s.3-.12.4-.18l.25.78c-.14.09-.33.16-.56.24s-.51.11-.82.11Z"/><path class="d" d="M150.71,103.32c-.7,0-1.23-.22-1.6-.67-.37-.45-.55-1.09-.55-1.91,0-.41.06-.78.17-1.1.11-.32.27-.59.47-.81s.44-.39.71-.5c.28-.12.58-.17.9-.17.18,0,.33.01.48.04.14.03.27.06.37.1s.2.08.27.12c.07.04.13.08.16.1l-.26.78c-.12-.08-.27-.15-.44-.2-.17-.06-.37-.08-.6-.08-.16,0-.31.03-.45.08-.15.06-.28.15-.39.28-.11.13-.21.31-.28.52-.07.22-.11.49-.11.82,0,.57.1,1,.29,1.3.19.3.51.45.96.45.26,0,.47-.03.64-.09s.3-.12.4-.18l.25.78c-.14.09-.33.16-.56.24s-.51.11-.82.11Z"/><path class="d" d="M142.84,106.36c-.23,0-.43.04-.59.13-.16.09-.29.2-.4.36-.1.15-.18.33-.22.54s-.07.44-.07.7c0,.59.09,1.03.28,1.31s.46.42.82.42c.06,0,.12,0,.19,0,.07,0,.13-.01.19-.02v-1.81h.98v2.47c-.12.04-.3.09-.55.14-.25.05-.55.08-.9.08-.31,0-.59-.05-.84-.16s-.46-.27-.64-.49c-.18-.22-.31-.49-.41-.81-.1-.32-.14-.7-.14-1.12s.06-.79.17-1.12c.11-.32.26-.59.46-.81.19-.22.42-.38.68-.49.26-.11.54-.16.84-.16.19,0,.36.01.52.04.15.03.28.06.4.1.11.04.2.08.28.12.07.04.13.08.16.1l-.26.78c-.12-.07-.26-.14-.43-.2-.17-.06-.35-.09-.53-.09Z"/><path class="d" d="M147.18,110.57c-.22-.55-.47-1.1-.73-1.64s-.55-1.09-.85-1.64v3.29h-.89v-4.95h.79c.15.24.3.49.45.76s.29.55.44.82c.14.27.27.54.39.79.12.26.22.48.31.67v-3.05h.89v4.95h-.79Z"/><path class="d" d="M152.13,108.09c0,.46-.06.85-.17,1.17-.12.32-.27.58-.48.79-.2.2-.44.35-.72.44-.28.09-.59.14-.92.14-.18,0-.35,0-.52-.03s-.35-.05-.54-.09v-4.83c.22-.05.43-.08.63-.1.2-.02.38-.02.55-.02.33,0,.62.05.89.14.27.1.5.25.68.45.19.21.33.47.44.78.1.32.16.7.16,1.15ZM149.76,109.77s.06,0,.09,0h.09c.22,0,.41-.04.56-.13.15-.08.27-.2.37-.35.09-.15.16-.33.2-.53s.06-.43.06-.68c0-.21-.02-.42-.05-.62-.03-.2-.09-.38-.17-.54s-.19-.28-.33-.37-.32-.14-.54-.14c-.04,0-.09,0-.14,0-.05,0-.1,0-.14.02v3.33Z"/><path class="d" d="M14.57,68.49c.17,0,.3-.02.41-.05s.2-.08.26-.14c.06-.06.11-.13.13-.21.02-.08.04-.16.04-.24,0-.1-.03-.19-.09-.27s-.13-.15-.22-.21c-.09-.06-.19-.12-.3-.17-.11-.05-.22-.1-.34-.14-.15-.05-.3-.11-.46-.18-.16-.07-.31-.16-.44-.26-.13-.11-.24-.24-.32-.4s-.13-.35-.13-.59c0-.46.15-.83.45-1.09.3-.26.72-.39,1.24-.39.3,0,.57.03.8.1.23.07.42.15.57.23l-.29.76c-.13-.07-.28-.14-.44-.19-.16-.05-.35-.08-.56-.08-.52,0-.78.19-.78.57,0,.1.03.18.08.25.05.07.12.14.2.19.08.06.18.11.28.15.1.04.21.08.31.12.15.06.32.12.48.2.17.07.32.17.46.29.14.12.26.27.35.45s.14.4.14.68c0,.46-.15.82-.45,1.08s-.76.38-1.37.38c-.41,0-.74-.04-.98-.13-.25-.09-.43-.17-.55-.24l.29-.8c.14.08.32.17.52.24s.44.11.73.11Z"/><path class="d" d="M17.21,69.21v-4.95h3v.82h-2.02v1.11h1.75v.82h-1.75v1.39h2.19v.82h-3.18Z"/><path class="d" d="M22.42,64.2c.28,0,.54.03.77.1s.43.16.59.3c.17.13.29.3.38.51.09.21.13.45.13.72s-.06.55-.18.78c-.12.23-.31.41-.58.54.09.14.19.29.29.46.1.17.2.34.3.53.1.18.19.37.28.55s.16.36.23.52h-1.03c-.12-.32-.27-.63-.43-.92-.16-.3-.34-.6-.52-.9h-.51v1.82h-.98v-4.88c.1-.02.2-.04.32-.06s.23-.03.35-.04c.12,0,.23-.01.34-.02.11,0,.2,0,.28,0ZM23.29,65.82c0-.26-.08-.45-.24-.58-.16-.12-.37-.18-.63-.18-.04,0-.08,0-.14,0-.05,0-.11,0-.16.02v1.49h.22c.34,0,.58-.06.73-.2s.22-.32.22-.56Z"/><path class="d" d="M26.2,69.21c-.13-.37-.26-.78-.41-1.25s-.28-.93-.41-1.39c-.13-.46-.24-.9-.34-1.31-.1-.41-.18-.75-.22-1.01h1.04c.03.26.08.55.14.89.06.34.13.69.21,1.05.08.36.16.71.25,1.06.09.35.17.66.26.94.09-.27.17-.58.26-.93.08-.35.17-.7.24-1.06s.14-.71.21-1.05.12-.64.16-.9h1.03c-.06.32-.14.68-.24,1.07s-.2.81-.32,1.24c-.12.44-.25.88-.4,1.33s-.29.89-.45,1.31h-1.02Z"/><path class="d" d="M28.93,66.73c0-.85.16-1.5.47-1.93.31-.43.75-.65,1.31-.65s1.02.22,1.33.65c.3.44.46,1.08.46,1.93s-.15,1.5-.46,1.93c-.31.43-.75.65-1.31.65s-1.03-.22-1.33-.65-.46-1.08-.46-1.93ZM29.93,66.73c0,.24,0,.47.03.68.02.21.06.39.11.55s.13.28.24.37c.1.09.24.14.41.14s.3-.05.4-.14c.1-.09.18-.21.24-.37.06-.16.09-.34.11-.55s.03-.43.03-.67,0-.47-.03-.68c-.02-.21-.06-.39-.11-.55-.06-.15-.13-.28-.24-.37-.1-.09-.24-.14-.41-.14s-.31.05-.41.14c-.1.09-.18.21-.24.37-.06.16-.09.34-.11.55-.02.21-.03.43-.03.67Z"/><path class="d" d="M5.04,5.06l-.23-1.14h-1.32l-.22,1.14h-1.02c.23-.98.47-1.87.71-2.67.24-.8.47-1.56.7-2.28h1.07c.23.73.47,1.5.7,2.31.23.81.46,1.69.68,2.64h-1.06ZM4.16,1.07c-.05.19-.1.36-.15.53-.05.17-.09.33-.13.5s-.08.33-.11.49c-.03.17-.07.34-.1.51h.97c-.03-.18-.06-.35-.1-.51-.03-.17-.07-.33-.11-.49s-.08-.33-.13-.5c-.05-.17-.09-.35-.15-.53Z"/><path class="d" d="M9.95,2.58c0,.46-.06.85-.17,1.17s-.27.59-.48.79c-.2.2-.44.35-.72.44-.28.09-.59.14-.92.14-.18,0-.35,0-.52-.03-.17-.02-.35-.05-.54-.09V.18c.22-.05.43-.08.63-.1s.38-.02.55-.02c.33,0,.62.05.89.14.27.1.5.25.68.45.19.21.33.47.44.78s.16.7.16,1.15ZM7.58,4.26s.06,0,.09,0h.09c.22,0,.41-.04.56-.13.15-.09.27-.2.37-.35s.16-.33.2-.53c.04-.21.06-.43.06-.68,0-.21-.02-.42-.05-.62-.03-.2-.09-.38-.17-.54-.08-.15-.19-.28-.33-.37-.14-.09-.32-.14-.54-.14-.04,0-.09,0-.14,0-.05,0-.1,0-.14.02v3.33Z"/><path class="d" d="M13.95,2.58c0,.46-.06.85-.17,1.17s-.27.59-.48.79c-.2.2-.44.35-.72.44-.28.09-.59.14-.92.14-.18,0-.35,0-.52-.03-.17-.02-.35-.05-.54-.09V.18c.22-.05.43-.08.63-.1s.38-.02.55-.02c.33,0,.62.05.89.14.27.1.5.25.68.45.19.21.33.47.44.78s.16.7.16,1.15ZM11.58,4.26s.06,0,.09,0h.09c.22,0,.41-.04.56-.13.15-.09.27-.2.37-.35s.16-.33.2-.53c.04-.21.06-.43.06-.68,0-.21-.02-.42-.05-.62-.03-.2-.09-.38-.17-.54-.08-.15-.19-.28-.33-.37-.14-.09-.32-.14-.54-.14-.04,0-.09,0-.14,0-.05,0-.1,0-.14.02v3.33Z"/><path class="d" d="M15.88.06c.28,0,.54.03.77.1s.43.16.59.3c.17.13.29.3.38.51.09.21.13.45.13.72s-.06.55-.18.78c-.12.23-.31.41-.58.54.09.14.19.29.29.46.1.17.2.34.3.53.1.18.19.37.28.55s.16.36.23.52h-1.03c-.12-.32-.27-.63-.43-.92-.16-.3-.34-.6-.52-.9h-.51v1.82h-.98V.18c.1-.02.2-.04.32-.06s.23-.03.35-.04c.12,0,.23-.01.34-.02.11,0,.2,0,.28,0ZM16.75,1.67c0-.26-.08-.45-.24-.58-.16-.12-.37-.18-.63-.18-.04,0-.08,0-.14,0-.05,0-.11,0-.16.02v1.49h.22c.34,0,.58-.06.73-.2s.22-.32.22-.56Z"/><path class="d" d="M18.67,5.06V.11h3v.82h-2.02v1.11h1.75v.82h-1.75v1.39h2.19v.82h-3.18Z"/><path class="d" d="M24.02,4.34c.17,0,.3-.02.41-.05s.2-.08.26-.14c.06-.06.11-.13.13-.21.02-.08.04-.16.04-.24,0-.1-.03-.19-.09-.27s-.13-.15-.22-.21c-.09-.06-.19-.12-.3-.17-.11-.05-.22-.1-.34-.14-.15-.05-.3-.11-.46-.18-.16-.07-.31-.16-.44-.26-.13-.11-.24-.24-.32-.4s-.13-.35-.13-.59c0-.46.15-.83.45-1.09.3-.26.72-.39,1.24-.39.3,0,.57.03.8.1.23.07.42.15.57.23l-.29.76c-.13-.07-.28-.14-.44-.19-.16-.05-.35-.08-.56-.08-.52,0-.78.19-.78.57,0,.1.03.18.08.25.05.07.12.14.2.19.08.06.18.11.28.15.1.04.21.08.31.12.15.06.32.12.48.2.17.07.32.17.46.29.14.12.26.27.35.45s.14.4.14.68c0,.46-.15.82-.45,1.08s-.76.38-1.37.38c-.41,0-.74-.04-.98-.13-.25-.09-.43-.17-.55-.24l.29-.8c.14.08.32.17.52.24s.44.11.73.11Z"/><path class="d" d="M28.02,4.34c.17,0,.3-.02.41-.05s.2-.08.26-.14c.06-.06.11-.13.13-.21.02-.08.04-.16.04-.24,0-.1-.03-.19-.09-.27s-.13-.15-.22-.21c-.09-.06-.19-.12-.3-.17-.11-.05-.22-.1-.34-.14-.15-.05-.3-.11-.46-.18-.16-.07-.31-.16-.44-.26-.13-.11-.24-.24-.32-.4s-.13-.35-.13-.59c0-.46.15-.83.45-1.09.3-.26.72-.39,1.24-.39.3,0,.57.03.8.1.23.07.42.15.57.23l-.29.76c-.13-.07-.28-.14-.44-.19-.16-.05-.35-.08-.56-.08-.52,0-.78.19-.78.57,0,.1.03.18.08.25.05.07.12.14.2.19.08.06.18.11.28.15.1.04.21.08.31.12.15.06.32.12.48.2.17.07.32.17.46.29.14.12.26.27.35.45s.14.4.14.68c0,.46-.15.82-.45,1.08s-.76.38-1.37.38c-.41,0-.74-.04-.98-.13-.25-.09-.43-.17-.55-.24l.29-.8c.14.08.32.17.52.24s.44.11.73.11Z"/><path class="d" d="M4.82,91.11c.63,0,1.12.13,1.46.39.35.26.52.68.52,1.27s-.17,1.02-.52,1.28c-.35.26-.84.4-1.48.4h-.35v1.67h-.98v-4.89c.1-.02.2-.04.32-.06.12-.02.24-.03.36-.04.12,0,.24-.01.36-.02.12,0,.22,0,.31,0ZM4.93,91.96c-.06,0-.14,0-.24,0s-.19,0-.24.02v1.6h.4c.31,0,.55-.06.71-.19.16-.12.24-.34.24-.64,0-.29-.08-.49-.24-.61-.16-.12-.37-.18-.63-.18Z"/><path class="d" d="M9.39,92.91c.02.1.05.23.1.38.04.15.09.32.14.5.05.18.11.38.17.58.06.21.12.42.18.64,0-.28,0-.58-.02-.89s-.03-.64-.04-.97c-.01-.33-.03-.67-.04-1s-.02-.67-.02-.98h.99c-.02.41-.03.82-.05,1.25-.02.43-.03.86-.06,1.28s-.05.84-.08,1.25c-.03.41-.06.8-.1,1.17h-.82c-.12-.34-.23-.7-.35-1.08-.12-.39-.23-.76-.35-1.11-.12.34-.24.7-.37,1.1s-.25.76-.35,1.1h-.82c-.04-.37-.08-.76-.11-1.17-.03-.41-.06-.83-.08-1.26-.02-.42-.04-.85-.06-1.28-.02-.43-.03-.84-.04-1.24h.91c0,.32-.01.64-.02.98s-.01.67-.02,1-.01.66-.02.98,0,.62,0,.89c.05-.17.1-.36.16-.56.06-.2.12-.4.18-.6.06-.2.11-.38.16-.54.05-.17.08-.3.11-.39h.72Z"/><path class="d" d="M12.31,91.16c.04.11.08.26.14.43.06.18.12.37.18.57.06.2.13.41.19.62s.13.4.18.58c.06-.2.13-.4.2-.61.07-.21.14-.41.2-.61.06-.2.12-.38.18-.55.05-.17.1-.31.14-.42h.82c.04.43.07.85.11,1.26.03.41.06.82.09,1.22.02.4.04.81.06,1.22s.03.83.04,1.25h-.9l.05-3.85-.61,2.1h-.72l-.58-2.1.04,3.85h-.9c.02-.41.03-.83.05-1.26s.04-.87.06-1.3c.02-.43.05-.85.08-1.26.03-.41.06-.78.1-1.13h.82Z"/><path class="d" d="M4.51,103.31c-.13-.37-.26-.78-.41-1.25s-.28-.93-.41-1.39c-.13-.46-.24-.9-.34-1.31-.1-.41-.18-.75-.22-1.01h1.04c.03.26.08.55.14.89.06.34.13.69.21,1.05.08.36.16.71.25,1.06s.17.66.26.94c.09-.27.17-.58.26-.93.08-.35.17-.7.24-1.06.07-.36.14-.71.21-1.05.06-.34.12-.64.16-.9h1.03c-.06.32-.14.68-.24,1.07s-.2.81-.32,1.24c-.12.44-.25.88-.4,1.33-.14.45-.29.89-.45,1.31h-1.02Z"/><path class="d" d="M9.39,103.42c-.7,0-1.23-.22-1.6-.67s-.55-1.08-.55-1.91c0-.41.06-.78.17-1.1.11-.32.27-.59.47-.81.2-.22.44-.39.71-.5.27-.11.57-.17.9-.17.18,0,.33.01.48.04s.27.06.37.1c.11.04.2.08.27.12.07.04.13.07.16.1l-.26.78c-.12-.08-.27-.15-.44-.2-.17-.06-.37-.08-.6-.08-.15,0-.31.03-.45.08-.15.06-.28.15-.39.28-.11.13-.21.31-.28.52-.07.22-.11.49-.11.82,0,.57.1,1,.29,1.3.19.3.51.45.96.45.26,0,.47-.03.64-.09s.3-.12.4-.18l.25.78c-.14.08-.33.16-.56.24-.24.07-.51.11-.82.11Z"/><path class="d" d="M13.39,103.42c-.7,0-1.23-.22-1.6-.67s-.55-1.08-.55-1.91c0-.41.06-.78.17-1.1.11-.32.27-.59.47-.81.2-.22.44-.39.71-.5.27-.11.57-.17.9-.17.18,0,.33.01.48.04s.27.06.37.1c.11.04.2.08.27.12.07.04.13.07.16.1l-.26.78c-.12-.08-.27-.15-.44-.2-.17-.06-.37-.08-.6-.08-.15,0-.31.03-.45.08-.15.06-.28.15-.39.28-.11.13-.21.31-.28.52-.07.22-.11.49-.11.82,0,.57.1,1,.29,1.3.19.3.51.45.96.45.26,0,.47-.03.64-.09s.3-.12.4-.18l.25.78c-.14.08-.33.16-.56.24-.24.07-.51.11-.82.11Z"/><path class="d" d="M5.52,106.46c-.23,0-.43.04-.59.13-.16.09-.29.2-.4.36s-.18.33-.22.54c-.05.21-.07.44-.07.7,0,.59.09,1.03.28,1.31.19.28.46.42.82.42.06,0,.12,0,.19,0,.07,0,.13-.01.19-.02v-1.81h.98v2.47c-.12.04-.3.09-.55.14-.25.05-.55.08-.9.08-.31,0-.59-.05-.84-.16s-.46-.27-.64-.49c-.18-.22-.31-.49-.41-.81-.1-.32-.14-.7-.14-1.12s.06-.79.17-1.12c.11-.32.26-.59.46-.81.19-.22.42-.38.68-.49s.54-.16.84-.16c.19,0,.36.01.52.04s.28.06.4.1.2.08.28.12c.07.04.13.08.16.1l-.26.78c-.12-.07-.26-.14-.43-.2-.17-.06-.35-.09-.53-.09Z"/><path class="d" d="M9.87,110.67c-.22-.55-.47-1.1-.73-1.64-.26-.55-.55-1.09-.85-1.64v3.29h-.89v-4.95h.79c.15.24.3.49.45.76s.29.55.44.82c.14.27.27.54.39.79.12.26.22.48.31.67v-3.05h.89v4.95h-.79Z"/><path class="d" d="M14.81,108.19c0,.46-.06.85-.17,1.17-.11.32-.27.58-.48.79-.2.2-.44.35-.72.44-.28.09-.59.14-.92.14-.18,0-.35,0-.52-.03s-.35-.05-.54-.09v-4.83c.22-.05.43-.08.63-.1.2-.02.38-.02.55-.02.33,0,.62.05.89.14.27.1.5.25.68.45.19.21.33.47.44.78s.16.7.16,1.15ZM12.44,109.87s.06,0,.09,0h.09c.22,0,.41-.04.56-.13.15-.08.27-.2.37-.35s.16-.33.2-.53.06-.43.06-.68c0-.21-.02-.42-.05-.62-.03-.2-.09-.38-.17-.54s-.19-.28-.33-.37c-.14-.09-.32-.14-.54-.14-.04,0-.09,0-.14,0s-.1,0-.14.02v3.33Z"/><rect class="d" x="106.5" y="35.97" width="5.67" height="5.67"/><rect class="d" x="95.16" y="30.3" width="5.67" height="5.67"/><path class="d" d="M103.65,21.27h0l.89-.89.54.54-.89.89h0l-.52.52h0l-.89.89-.54-.54.89-.89h0l.52-.52Z"/><path class="d" d="M97.98,21.27h0l.89-.89.54.54-.89.89h0l-.52.52h0l-.89.89-.54-.54.89-.89h0l.52-.52Z"/><path class="d" d="M92.31,21.27h0l.89-.89.54.54-.89.89h0l-.52.52h0l-.89.89-.54-.54.89-.89h0l.52-.52Z"/><path class="d" d="M86.64,21.27h0l.89-.89.54.54-.89.89h0l-.52.52h0l-.89.89-.54-.54.89-.89h0l.52-.52Z"/><path class="d" d="M104.03,27.08h1.26v.77h-3.24s0-.77,0-.77h1.26s.73,0,.73,0Z"/><path class="d" d="M97.98,26.94h0l.89-.89.54.54-.89.89h0l-.52.52h0l-.89.89-.54-.54.89-.89h0l.52-.52Z"/><path class="d" d="M91.8,27.48h0l-.89-.89.54-.54.89.89h0l.52.52h0l.89.89-.54.54-.89-.89h0l-.52-.52Z"/><path class="d" d="M86.64,26.94h0l.89-.89.54.54-.89.89h0l-.52.52h0l-.89.89-.54-.54.89-.89h0l.52-.52Z"/><path class="d" d="M103.65,32.61h0l.89-.89.54.54-.89.89h0l-.52.52h0l-.89.89-.54-.54.89-.89h0l.52-.52Z"/><path class="d" d="M92.31,32.61h0l.89-.89.54.54-.89.89h0l-.52.52h0l-.89.89-.54-.54.89-.89h0l.52-.52Z"/><path class="d" d="M86.64,32.61h0l.89-.89.54.54-.89.89h0l-.52.52h0l-.89.89-.54-.54.89-.89h0l.52-.52Z"/><path class="d" d="M97.47,38.82h0l-.89-.89.54-.54.89.89h0l.52.52h0l.89.89-.54.54-.89-.89h0l-.52-.52Z"/><path class="d" d="M92.31,38.28h0l.89-.89.54.54-.89.89h0l-.52.52h0l-.89.89-.54-.54.89-.89h0l.52-.52Z"/><path class="d" d="M86.64,38.28h0l.89-.89.54.54-.89.89h0l-.52.52h0l-.89.89-.54-.54.89-.89h0l.52-.52Z"/><path class="d" d="M100.83,35.97v5.67h5.67v-5.67h-5.67ZM104.19,38.82l-.52.52-.89.89-.54-.54.89-.89.52-.52.89-.89.54.54-.89.89Z"/><path class="d" d="M1.19,83.77h0l-.89-.89.54-.54.89.89h0l.52.52h0l.89.89-.54.54-.89-.89h0l-.52-.52Z"/><path class="d" d="M1.19,78.1h0l-.89-.89.54-.54.89.89h0l.52.52h0l.89.89-.54.54-.89-.89h0l-.52-.52Z"/><path class="d" d="M1.19,72.43h0l-.89-.89.54-.54.89.89h0l.52.52h0l.89.89-.54.54-.89-.89h0l-.52-.52Z"/><path class="d" d="M1.19,66.76h0l-.89-.89.54-.54.89.89h0l.52.52h0l.89.89-.54.54-.89-.89h0l-.52-.52Z"/><path class="d" d="M1.19,61.09h0l-.89-.89.54-.54.89.89h0l.52.52h0l.89.89-.54.54-.89-.89h0l-.52-.52Z"/><path class="d" d="M1.19,55.42h0l-.89-.89.54-.54.89.89h0l.52.52h0l.89.89-.54.54-.89-.89h0l-.52-.52Z"/><path class="d" d="M1.19,49.75h0l-.89-.89.54-.54.89.89h0l.52.52h0l.89.89-.54.54-.89-.89h0l-.52-.52Z"/><path class="d" d="M6.86,83.77h0l-.89-.89.54-.54.89.89h0l.52.52h0l.89.89-.54.54-.89-.89h0l-.52-.52Z"/><path class="d" d="M6.86,78.1h0l-.89-.89.54-.54.89.89h0l.52.52h0l.89.89-.54.54-.89-.89h0l-.52-.52Z"/><path class="d" d="M6.86,66.76h0l-.89-.89.54-.54.89.89h0l.52.52h0l.89.89-.54.54-.89-.89h0l-.52-.52Z"/><path class="d" d="M6.86,61.09h0l-.89-.89.54-.54.89.89h0l.52.52h0l.89.89-.54.54-.89-.89h0l-.52-.52Z"/><path class="d" d="M6.86,55.42h0l-.89-.89.54-.54.89.89h0l.52.52h0l.89.89-.54.54-.89-.89h0l-.52-.52Z"/><path class="d" d="M6.86,49.75h0l-.89-.89.54-.54.89.89h0l.52.52h0l.89.89-.54.54-.89-.89h0l-.52-.52Z"/><path class="d" d="M12.53,83.77h0l-.89-.89.54-.54.89.89h0l.52.52h0l.89.89-.54.54-.89-.89h0l-.52-.52Z"/><path class="d" d="M12.53,78.1h0l-.89-.89.54-.54.89.89h0l.52.52h0l.89.89-.54.54-.89-.89h0l-.52-.52Z"/><path class="d" d="M12.53,49.75h0l-.89-.89.54-.54.89.89h0l.52.52h0l.89.89-.54.54-.89-.89h0l-.52-.52Z"/><path class="d" d="M18.2,83.77h0l-.89-.89.54-.54.89.89h0l.52.52h0l.89.89-.54.54-.89-.89h0l-.52-.52Z"/><path class="d" d="M18.2,78.1h0l-.89-.89.54-.54.89.89h0l.52.52h0l.89.89-.54.54-.89-.89h0l-.52-.52Z"/><rect class="d" x="145.92" y="52.9" width="5.67" height="5.67" transform="translate(93.02 204.49) rotate(-90)"/><path class="d" d="M153.88,67.09h0l-.89-.89.54-.54.89.89h0l.52.52h0l.89.89-.54.54-.89-.89h0l-.52-.52Z"/><path class="d" d="M153.88,72.76h0l-.89-.89.54-.54.89.89h0l.52.52h0l.89.89-.54.54-.89-.89h0l-.52-.52Z"/><path class="d" d="M153.88,78.43h0l-.89-.89.54-.54.89.89h0l.52.52h0l.89.89-.54.54-.89-.89h0l-.52-.52Z"/><path class="d" d="M153.88,84.1h0l-.89-.89.54-.54.89.89h0l.52.52h0l.89.89-.54.54-.89-.89h0l-.52-.52Z"/><path class="d" d="M148.2,67.09h0l-.89-.89.54-.54.89.89h0l.52.52h0l.89.89-.54.54-.89-.89h0l-.52-.52Z"/><path class="d" d="M148.2,72.76h0l-.89-.89.54-.54.89.89h0l.52.52h0l.89.89-.54.54-.89-.89h0l-.52-.52Z"/><path class="d" d="M148.2,84.1h0l-.89-.89.54-.54.89.89h0l.52.52h0l.89.89-.54.54-.89-.89h0l-.52-.52Z"/><path class="d" d="M142.52,78.43h0l-.89-.89.54-.54.89.89h0l.52.52h0l.89.89-.54.54-.89-.89h0l-.52-.52Z"/><path class="d" d="M142.52,84.1h0l-.89-.89.54-.54.89.89h0l.52.52h0l.89.89-.54.54-.89-.89h0l-.52-.52Z"/><path class="d" d="M148.2,61.42h0l-.89-.89.54-.54.89.89h0l.52.52h0l.89.89-.54.54-.89-.89h0l-.52-.52Z"/><path class="d" d="M142.52,55.75h0l-.89-.89.54-.54.89.89h0l.52.52h0l.89.89-.54.54-.89-.89h0l-.52-.52Z"/><path class="d" d="M136.84,78.43h0l-.89-.89.54-.54.89.89h0l.52.52h0l.89.89-.54.54-.89-.89h0l-.52-.52Z"/><path class="d" d="M136.84,84.1h0l-.89-.89.54-.54.89.89h0l.52.52h0l.89.89-.54.54-.89-.89h0l-.52-.52Z"/><path class="d" d="M153.9,55.75h0l-.89-.89.54-.54.89.89h0l.52.52h0l.89.89-.54.54-.89-.89h0l-.52-.52Z"/><path class="d" d="M154.72,32.38h0l.89-.89.54.54-.89.89h0l-.52.52h0l-.89.89-.54-.54.89-.89h0l.52-.52Z"/><path class="d" d="M154.72,43.41h0l.89-.89.54.54-.89.89h0l-.52.52h0l-.89.89-.54-.54.89-.89h0l.52-.52Z"/><path class="d" d="M154.72,38.04h0l.89-.89.54.54-.89.89h0l-.52.52h0l-.89.89-.54-.54.89-.89h0l.52-.52Z"/><path class="d" d="M154.72,49.38h0l.89-.89.54.54-.89.89h0l-.52.52h0l-.89.89-.54-.54.89-.89h0l.52-.52Z"/><path class="d" d="M149.05,32.38h0l.89-.89.54.54-.89.89h0l-.52.52h0l-.89.89-.54-.54.89-.89h0l.52-.52Z"/><path class="d" d="M149.05,49.38h0l.89-.89.54.54-.89.89h0l-.52.52h0l-.89.89-.54-.54.89-.89h0l.52-.52Z"/><path class="d" d="M143.38,32.38h0l.89-.89.54.54-.89.89h0l-.52.52h0l-.89.89-.54-.54.89-.89h0l.52-.52Z"/><path class="d" d="M143.75,49.53h1.26v.77h-1.99s-1.26,0-1.26,0v-.77s1.26,0,1.26,0h.73Z"/><path class="d" d="M137.71,32.38h0l.89-.89.54.54-.89.89h0l-.52.52h0l-.89.89-.54-.54.89-.89h0l.52-.52Z"/><path class="d" d="M149.05,38.04h0l.89-.89.54.54-.89.89h0l-.52.52h0l-.89.89-.54-.54.89-.89h0l.52-.52Z"/><path class="d" d="M143.92,38.56h0l.89.89-.54.54-.89-.89h0l-.52-.52h0l-.89-.89.54-.54.89.89h0l.52.52Z"/><path class="d" d="M137.71,38.04h0l.89-.89.54.54-.89.89h0l-.52.52h0l-.89.89-.54-.54.89-.89h0l.52-.52Z"/><path class="d" d="M143.38,43.7h0l.89-.89.54.54-.89.89h0l-.52.52h0l-.89.89-.54-.54.89-.89h0l.52-.52Z"/><path class="d" d="M100.52,66.38c.15-.13.22-.32.22-.56,0-.26-.08-.45-.24-.58-.16-.12-.37-.18-.63-.18-.04,0-.08,0-.14,0-.05,0-.11,0-.16.02v1.49h.22c.34,0,.58-.06.73-.2Z"/><path class="d" d="M120.77,116.85v-57.66h-42.7l.2,122.51h60v-64.85h-17.49ZM119.09,139.71l-.89-.89-.52-.52-.89-.89.54-.54.89.89.52.52.89.89-.54.54ZM119.63,143.08l-.89.89-.52.52-.89.89-.54-.54.89-.89.52-.52.89-.89.54.54ZM117.83,134.24v-3.24s.77,0,.77,0v1.26s0,.73,0,.73v1.26h-.77ZM119.09,128.37l-.89-.89-.52-.52-.89-.89.54-.54.89.89.52.52.89.89-.54.54ZM119.09,122.7l-.89-.89-.52-.52-.89-.89.54-.54.89.89.52.52.89.89-.54.54ZM117.26,110.4c-1.33,0-2.41-1.08-2.41-2.41s1.08-2.41,2.41-2.41,2.41,1.08,2.41,2.41-1.08,2.41-2.41,2.41ZM117.26,103.2c-1.33,0-2.41-1.08-2.41-2.41s1.08-2.41,2.41-2.41,2.41,1.08,2.41,2.41-1.08,2.41-2.41,2.41ZM117.27,96c-1.33,0-2.41-1.08-2.41-2.41s1.08-2.41,2.41-2.41,2.41,1.08,2.41,2.41-1.08,2.41-2.41,2.41ZM116.75,86.01c.05.07.1.16.14.26.04.1.07.18.1.24l-.41.16c-.02-.06-.05-.13-.09-.21-.04-.07-.08-.15-.12-.22-.05-.07-.09-.15-.14-.21-.05-.07-.1-.12-.16-.17v-.34h2.07v-.49h.41v1.5h-.41v-.52h-1.38ZM117.6,88.26s.02.04.03.06.04.04.08.05c.03.02.08.03.14.05l-.1.36c-.07,0-.14-.03-.21-.06s-.14-.06-.2-.11-.11-.1-.15-.17c-.04-.07-.06-.15-.06-.24,0-.07.01-.14.04-.2.03-.06.06-.12.09-.18.03-.06.07-.11.09-.17.03-.05.04-.11.04-.16,0-.02,0-.04,0-.06,0-.02-.02-.04-.04-.06s-.04-.04-.08-.05-.08-.03-.14-.05l.1-.36c.07.01.14.03.21.06s.14.06.2.11c.06.05.12.1.16.17.04.07.06.15.06.24,0,.07-.01.14-.04.2-.03.06-.06.12-.09.18-.03.06-.07.12-.09.17-.03.05-.04.11-.04.16,0,.02,0,.04,0,.06ZM118.5,84.58c-.02.05-.03.09-.04.12l-.41-.1c.03-.06.05-.14.08-.24.03-.1.04-.21.04-.35,0-.17-.04-.29-.11-.35-.07-.07-.16-.1-.27-.1-.13,0-.22.05-.27.16-.05.1-.08.24-.08.4v.15h-.41v-.18c0-.05,0-.1-.02-.15s-.03-.1-.05-.14c-.02-.04-.06-.07-.1-.1s-.09-.04-.15-.04c-.09,0-.16.03-.21.08s-.08.13-.08.23.02.19.05.28c.03.09.07.17.11.24l-.36.18c-.05-.07-.1-.17-.15-.29-.05-.12-.07-.25-.07-.4,0-.14.02-.26.05-.36.04-.1.08-.19.15-.25.06-.07.14-.12.22-.15.08-.03.18-.05.28-.05s.19.03.28.08c.09.06.16.13.21.22.05-.13.13-.23.24-.3.1-.07.23-.11.37-.11.12,0,.22.02.32.06.1.04.18.09.25.17.07.08.12.18.16.3.04.12.06.26.06.43,0,.06,0,.13-.01.19,0,.07-.02.13-.03.2-.01.06-.03.12-.04.17ZM118.59,81.97h-2.55l-.27-.05-.23-.15-.15-.23-.05-.27v-1.84l.05-.27.15-.23.23-.15.27-.05h2.55l.27.05.23.15.15.23.05.27v1.84l-.05.27-.15.23-.23.15-.27.05ZM118.86,72.95l.23.15.15.23.05.27v1.84l-.05.27-.15.23-.23.15-.27.05h-2.55l-.27-.05-.23-.15-.15-.23-.05-.27v-1.84l.05-.27.15-.23.23-.15.27-.05h2.55l.27.05ZM115.24,64.31c.28-.11.56-.16.84-.16.2,0,.4.03.58.09s.35.15.5.26c.14.12.26.27.34.44.08.18.13.39.13.62,0,.17-.03.33-.1.49-.06.16-.15.31-.26.46s-.23.29-.36.43c-.13.14-.27.27-.41.4-.07.06-.15.14-.24.23-.09.09-.18.18-.26.27s-.15.19-.2.28c-.06.1-.08.18-.08.26h2.13v.82h-3.23c-.02-.05-.02-.12-.02-.2,0-.08,0-.14,0-.17,0-.27.05-.51.15-.74.1-.22.22-.43.38-.62.15-.19.31-.37.49-.53.17-.16.34-.32.49-.47.15-.15.28-.29.38-.43s.15-.28.15-.42c0-.2-.06-.36-.18-.47s-.28-.16-.46-.16c-.15,0-.32.04-.49.11-.17.07-.34.2-.5.38l-.49-.69c.21-.22.46-.39.74-.5ZM108.17,79.15l.15-.23.23-.15.27-.05h2.55l.27.05.23.15.15.23.05.27v1.84l-.05.27-.15.23-.23.15-.27.05h-2.55l-.27-.05-.23-.15-.15-.23-.05-.27v-1.84l.05-.27ZM108.11,75.45v-1.84l.05-.27.15-.23.23-.15.27-.05h2.55l.27.05.23.15.15.23.05.27v1.84l-.05.27-.15.23-.23.15-.27.05h-2.55l-.27-.05-.23-.15-.15-.23-.05-.27ZM109.52,86.01c.05.07.1.16.14.26.04.1.07.18.1.24l-.41.16c-.02-.06-.05-.13-.09-.21s-.08-.15-.12-.22-.09-.15-.14-.21c-.05-.07-.1-.12-.16-.17v-.34h2.07v-.49h.41v1.5h-.41v-.52h-1.38ZM110.37,88.26s.02.04.03.06c.02.02.04.04.08.05.04.02.08.03.14.05l-.1.36c-.07,0-.14-.03-.21-.06s-.14-.06-.2-.11-.11-.1-.15-.17c-.04-.07-.06-.15-.06-.24,0-.07.01-.14.04-.2.03-.06.06-.12.09-.18.04-.06.07-.11.09-.17.03-.05.04-.11.04-.16,0-.02,0-.04,0-.06,0-.02-.02-.04-.04-.06-.02-.02-.05-.04-.08-.05-.04-.02-.08-.03-.14-.05l.1-.36c.07.01.14.03.21.06s.14.06.2.11c.06.05.11.1.16.17.04.07.06.15.06.24,0,.07-.01.14-.04.2-.03.06-.06.12-.09.18-.04.06-.07.12-.09.17-.03.05-.04.11-.04.16,0,.02,0,.04,0,.06ZM111.22,84.64s-.07,0-.08,0c-.13,0-.26-.02-.37-.07s-.21-.11-.31-.19c-.09-.08-.18-.16-.26-.24-.08-.09-.16-.17-.23-.24-.08-.08-.15-.14-.22-.19s-.14-.07-.21-.07c-.1,0-.18.03-.23.09-.05.06-.08.14-.08.23,0,.08.02.16.06.24s.1.17.19.25l-.34.24c-.11-.11-.19-.23-.25-.37-.05-.14-.08-.28-.08-.42,0-.1.02-.2.04-.29s.07-.18.13-.25.13-.13.22-.17c.09-.04.19-.06.31-.06.09,0,.17.02.25.05.08.03.16.07.23.13.07.05.15.11.22.18.07.07.14.13.2.2.03.03.07.07.11.12.04.05.09.09.14.13.05.04.09.07.14.1.05.03.09.04.13.04v-1.06h.41v1.62s-.06.01-.1,0ZM110.07,91.18c1.33,0,2.41,1.08,2.41,2.41s-1.08,2.41-2.41,2.41-2.41-1.08-2.41-2.41,1.08-2.41,2.41-2.41ZM110.06,98.38c1.33,0,2.41,1.08,2.41,2.41s-1.08,2.41-2.41,2.41-2.41-1.08-2.41-2.41,1.08-2.41,2.41-2.41ZM112.56,120.75l.52.52.89.89-.54.54-.89-.89-.52-.52-.89-.89.54-.54.89.89ZM110.48,66.71h1.26v-1.39h.85v1.39h1.26v.81h-1.26v1.39h-.85v-1.39h-1.26v-.81ZM103.97,124.98v-4.96h1.28v4.96h-1.28ZM105.25,140.43v4.96h-1.28v-4.96h1.28ZM102.86,110.4c-1.33,0-2.41-1.08-2.41-2.41s1.08-2.41,2.41-2.41,2.41,1.08,2.41,2.41-1.08,2.41-2.41,2.41ZM102.13,124.98v-4.96h1.28v4.96h-1.28ZM103.41,140.43v4.96h-1.28v-4.96h1.28ZM100.29,124.98v-4.96h1.28v4.96h-1.28ZM101.57,140.43v4.96h-1.28v-4.96h1.28ZM102.86,103.2c-1.33,0-2.41-1.08-2.41-2.41s1.08-2.41,2.41-2.41,2.41,1.08,2.41,2.41-1.08,2.41-2.41,2.41ZM102.87,96c-1.33,0-2.41-1.08-2.41-2.41s1.08-2.41,2.41-2.41,2.41,1.08,2.41,2.41-1.08,2.41-2.41,2.41ZM102.29,86.01c.05.07.1.16.14.26.04.1.07.18.1.24l-.41.16c-.02-.06-.05-.13-.09-.21-.04-.07-.08-.15-.12-.22-.05-.07-.09-.15-.14-.21-.05-.07-.1-.12-.16-.17v-.34h2.07v-.49h.41v1.5h-.41v-.52h-1.38ZM103.14,88.26s.02.04.03.06.04.04.08.05c.03.02.08.03.14.05l-.1.36c-.07,0-.14-.03-.21-.06s-.14-.06-.2-.11-.11-.1-.15-.17c-.04-.07-.06-.15-.06-.24,0-.07.01-.14.04-.2.03-.06.06-.12.09-.18.03-.06.07-.11.09-.17.03-.05.04-.11.04-.16,0-.02,0-.04,0-.06,0-.02-.02-.04-.04-.06s-.04-.04-.08-.05-.08-.03-.14-.05l.1-.36c.07.01.14.03.21.06s.14.06.2.11c.06.05.12.1.16.17.04.07.06.15.06.24,0,.07-.01.14-.04.2-.03.06-.06.12-.09.18-.03.06-.07.12-.09.17-.03.05-.04.11-.04.16,0,.02,0,.04,0,.06ZM103.68,84.53v-.52h-1.38c.05.07.1.16.14.26.04.1.07.18.1.24l-.41.16c-.02-.06-.05-.13-.09-.21-.04-.07-.08-.15-.12-.22-.05-.07-.09-.15-.14-.21-.05-.07-.1-.12-.16-.17v-.34h2.07v-.49h.41v1.5h-.41ZM101.6,81.97l-.27-.05-.23-.15-.15-.23-.05-.27v-1.84l.05-.27.15-.23.23-.15.27-.05h2.55l.27.05.23.15.15.23.05.27v1.84l-.05.27-.15.23-.23.15-.27.05h-2.55ZM104.43,72.95l.23.15.15.23.05.27v1.84l-.05.27-.15.23-.23.15-.27.05h-2.55l-.27-.05-.23-.15-.15-.23-.05-.27v-1.84l.05-.27.15-.23.23-.15.27-.05h2.55l.27.05ZM98.59,64.33c.1-.02.2-.04.32-.06.12-.02.23-.03.35-.04.12,0,.23-.01.34-.02.11,0,.2,0,.28,0,.28,0,.54.03.77.1s.43.16.59.3c.17.13.29.3.38.51.09.21.13.45.13.72s-.06.55-.18.78c-.12.23-.31.41-.58.54.09.14.19.29.29.46s.2.34.3.53c.1.18.19.37.28.55s.16.36.23.52h-1.03c-.12-.32-.26-.63-.43-.92-.16-.3-.34-.6-.52-.9h-.51v1.82h-.98v-4.88ZM98.45,120.02h1.28v4.96h-1.28v-4.96ZM98.45,140.43h1.28v4.96h-1.28v-4.96ZM96.6,124.98v-4.96h1.28v4.96h-1.28ZM97.88,140.43v4.96h-1.28v-4.96h1.28ZM95.66,110.4c-1.33,0-2.41-1.08-2.41-2.41s1.08-2.41,2.41-2.41,2.41,1.08,2.41,2.41-1.08,2.41-2.41,2.41ZM96.04,120.02v4.96h-1.28v-4.96h1.28ZM92.92,124.98v-4.96h1.28v4.96h-1.28ZM94.2,140.43v4.96h-1.28v-4.96h1.28ZM95.66,103.2c-1.33,0-2.41-1.08-2.41-2.41s1.08-2.41,2.41-2.41,2.41,1.08,2.41,2.41-1.08,2.41-2.41,2.41ZM95.67,96c-1.33,0-2.41-1.08-2.41-2.41s1.08-2.41,2.41-2.41,2.41,1.08,2.41,2.41-1.08,2.41-2.41,2.41ZM95.06,86.01c.05.07.1.16.14.26.04.1.07.18.1.24l-.41.16c-.02-.06-.05-.13-.09-.21s-.08-.15-.12-.22-.09-.15-.14-.21c-.05-.07-.1-.12-.16-.17v-.34h2.07v-.49h.41v1.5h-.41v-.52h-1.38ZM95.91,88.26s.02.04.03.06c.02.02.04.04.08.05.04.02.08.03.14.05l-.1.36c-.07,0-.14-.03-.21-.06s-.14-.06-.2-.11-.11-.1-.15-.17c-.04-.07-.06-.15-.06-.24,0-.07.01-.14.04-.2.03-.06.06-.12.09-.18.04-.06.07-.11.09-.17.03-.05.04-.11.04-.16,0-.02,0-.04,0-.06,0-.02-.02-.04-.04-.06-.02-.02-.05-.04-.08-.05-.04-.02-.08-.03-.14-.05l.1-.36c.07.01.14.03.21.06s.14.06.2.11c.06.05.11.1.16.17.04.07.06.15.06.24,0,.07-.01.14-.04.2-.03.06-.06.12-.09.18-.04.06-.07.12-.09.17-.03.05-.04.11-.04.16,0,.02,0,.04,0,.06ZM96.59,84.51c-.21.15-.54.22-.98.22s-.75-.07-.97-.22c-.21-.15-.32-.36-.32-.64s.11-.49.32-.64c.21-.15.54-.22.97-.22s.76.07.98.22c.21.15.32.36.32.64s-.11.49-.32.64ZM94.38,81.97l-.27-.05-.23-.15-.15-.23-.05-.27v-1.84l.05-.27.15-.23.23-.15.27-.05h2.55l.27.05.23.15.15.23.05.27v1.84l-.05.27-.15.23-.23.15-.27.05h-2.55ZM94.85,64.8c.31-.43.75-.65,1.31-.65s1.02.22,1.33.65c.3.44.46,1.08.46,1.93s-.15,1.5-.46,1.93-.75.65-1.31.65-1.03-.22-1.33-.65-.46-1.08-.46-1.93.16-1.5.47-1.93ZM94.38,72.9h2.55l.27.05.23.15.15.23.05.27v1.84l-.05.27-.15.23-.23.15-.27.05h-2.55l-.27-.05-.23-.15-.15-.23-.05-.27v-1.84l.05-.27.15-.23.23-.15.27-.05ZM90.36,64.26h3.6v.82h-1.3v4.14h-.99v-4.14h-1.3v-.82ZM91.08,124.98v-4.96h1.28v4.96h-1.28ZM92.35,140.43v4.96h-1.28v-4.96h1.28ZM90.22,73.11l.15.23.05.27v1.84l-.05.27-.15.23-.23.15-.27.05h-2.55l-.27-.05-.23-.15-.15-.23-.05-.27v-1.84l.05-.27.15-.23.23-.15.27-.05h2.55l.27.05.23.15ZM88.68,87.26s.02.04.03.06c.02.02.04.04.08.05.04.02.08.03.14.05l-.1.36c-.07-.01-.14-.03-.21-.06-.07-.03-.14-.06-.2-.11s-.11-.1-.15-.17c-.04-.07-.06-.15-.06-.24,0-.07.01-.14.04-.2.03-.06.06-.12.09-.18.04-.06.07-.11.09-.17.03-.05.04-.11.04-.16,0-.02,0-.04,0-.06,0-.02-.02-.04-.04-.06-.02-.02-.05-.04-.08-.05-.04-.02-.08-.03-.14-.05l.1-.36c.07.01.14.03.21.06s.14.06.2.11c.06.05.11.1.16.17.04.07.06.15.06.24,0,.07-.01.14-.04.2-.03.06-.06.12-.09.18-.04.06-.07.12-.09.17-.03.05-.04.11-.04.16,0,.02,0,.04,0,.06ZM88.65,84.54c.04.11.07.21.07.3,0,.15-.02.28-.06.39s-.1.2-.17.26-.16.12-.25.15c-.09.03-.2.05-.31.05-.1,0-.19-.02-.29-.05-.1-.03-.19-.08-.27-.15s-.15-.15-.2-.25-.08-.21-.08-.35c0-.28.09-.49.28-.64s.45-.22.78-.22c.24,0,.45.03.64.1s.34.17.47.3c.13.13.22.29.29.47s.1.39.1.61l-.42.02c0-.23-.05-.43-.14-.61-.09-.18-.23-.31-.42-.38ZM87.17,81.97l-.27-.05-.23-.15-.15-.23-.05-.27v-1.84l.05-.27.15-.23.23-.15.27-.05h2.55l.27.05.23.15.15.23.05.27v1.84l-.05.27-.15.23-.23.15-.27.05h-2.55ZM86.85,64.8c.31-.43.75-.65,1.31-.65s1.02.22,1.33.65c.3.44.46,1.08.46,1.93s-.15,1.5-.46,1.93-.75.65-1.31.65-1.03-.22-1.33-.65-.46-1.08-.46-1.93.16-1.5.47-1.93ZM88.47,91.18c1.33,0,2.41,1.08,2.41,2.41s-1.08,2.41-2.41,2.41-2.41-1.08-2.41-2.41,1.08-2.41,2.41-2.41ZM88.46,98.38c1.33,0,2.41,1.08,2.41,2.41s-1.08,2.41-2.41,2.41-2.41-1.08-2.41-2.41,1.08-2.41,2.41-2.41ZM88.46,105.58c1.33,0,2.41,1.08,2.41,2.41s-1.08,2.41-2.41,2.41-2.41-1.08-2.41-2.41,1.08-2.41,2.41-2.41ZM89.23,124.98v-4.96h1.28v4.96h-1.28ZM90.51,140.43v4.96h-1.28v-4.96h1.28ZM87.39,124.98v-4.96h1.28v4.96h-1.28ZM88.67,140.43v4.96h-1.28v-4.96h1.28ZM85.55,124.98v-4.96h1.28v4.96h-1.28ZM86.83,140.43v4.96h-1.28v-4.96h1.28ZM82.39,67.95c.02-.44.04-.87.06-1.3.02-.43.05-.85.08-1.26.03-.41.06-.78.1-1.13h.82c.04.11.08.26.14.43.06.18.12.37.18.57.06.2.13.41.19.62.06.21.13.4.18.58.06-.2.13-.4.2-.61.07-.21.14-.41.2-.61.06-.19.12-.38.18-.55.05-.17.1-.31.14-.42h.82c.04.43.07.85.11,1.26.04.41.06.82.09,1.22.02.4.04.81.06,1.22.02.41.03.83.04,1.25h-.9l.05-3.85-.61,2.1h-.72l-.58-2.1.04,3.85h-.9c.02-.41.03-.83.05-1.26ZM84.98,120.02v4.96h-1.28v-4.96h1.28ZM79.24,73.61l.05-.27.15-.23.23-.15.27-.05h2.55l.27.05.23.15.15.23.05.27v1.84l-.05.27-.15.23-.23.15-.27.05h-2.55l-.27-.05-.23-.15-.15-.23-.05-.27v-1.84ZM79.24,79.42l.05-.27.15-.23.23-.15.27-.05h2.55l.27.05.23.15.15.23.05.27v1.84l-.05.27-.15.23-.23.15-.27.05h-2.55l-.27-.05-.23-.15-.15-.23-.05-.27v-1.84ZM81.45,87.26s.02.04.03.06.04.04.08.05c.03.02.08.03.14.05l-.1.36c-.07-.01-.14-.03-.21-.06-.07-.03-.14-.06-.2-.11s-.11-.1-.15-.17c-.04-.07-.06-.15-.06-.24,0-.07.01-.14.04-.2.03-.06.06-.12.09-.18.03-.06.07-.11.09-.17.03-.05.04-.11.04-.16,0-.02,0-.04,0-.06,0-.02-.02-.04-.04-.06s-.04-.04-.08-.05-.08-.03-.14-.05l.1-.36c.07.01.14.03.21.06s.14.06.2.11c.06.05.12.1.16.17.04.07.06.15.06.24,0,.07-.01.14-.04.2-.03.06-.06.12-.09.18-.03.06-.07.12-.09.17-.03.05-.04.11-.04.16,0,.02,0,.04,0,.06ZM81.43,85.63c-.11-.06-.21-.15-.29-.28-.08.12-.17.2-.26.24-.09.04-.19.06-.29.06-.08,0-.16-.01-.25-.04-.09-.03-.16-.07-.23-.13-.07-.06-.13-.14-.17-.24-.05-.1-.07-.23-.07-.38,0-.24.06-.43.18-.57.12-.14.27-.21.47-.21.12,0,.23.03.34.08.11.06.2.14.28.26.09-.15.18-.26.29-.32.1-.06.22-.09.34-.09.08,0,.16.02.24.05.08.03.16.08.22.15.07.07.12.16.16.27.04.11.06.24.06.4,0,.12-.02.24-.05.34s-.08.19-.13.26c-.06.07-.13.13-.21.17s-.18.06-.28.06c-.12,0-.24-.03-.35-.09ZM81.26,110.4c-1.33,0-2.41-1.08-2.41-2.41s1.08-2.41,2.41-2.41,2.41,1.08,2.41,2.41-1.08,2.41-2.41,2.41ZM81.26,103.2c-1.33,0-2.41-1.08-2.41-2.41s1.08-2.41,2.41-2.41,2.41,1.08,2.41,2.41-1.08,2.41-2.41,2.41ZM81.27,96c-1.33,0-2.41-1.08-2.41-2.41s1.08-2.41,2.41-2.41,2.41,1.08,2.41,2.41-1.08,2.41-2.41,2.41ZM83.71,140.43h1.28v4.96h-1.28v-4.96ZM91.3,171.88h-7.37v-7.37h7.37v7.37ZM93.56,154.72l.06-4.81-.76,2.62h-.9l-.73-2.62.05,4.81h-1.13c.02-.51.04-1.03.07-1.58s.05-1.09.08-1.63c.03-.54.06-1.06.09-1.57.04-.51.08-.98.12-1.41h1.02c.05.14.11.32.18.54.07.22.14.46.22.71.08.25.16.51.24.77.08.26.16.5.23.72.08-.25.16-.5.25-.76.09-.26.17-.52.25-.76.08-.24.15-.47.22-.68.07-.21.13-.39.18-.53h1.02c.05.54.09,1.07.14,1.58.04.51.08,1.02.11,1.53.03.5.06,1.01.08,1.52.02.51.04,1.03.05,1.57h-1.13ZM94.76,140.43h1.28v4.96h-1.28v-4.96ZM96.41,150.6c-.24.1-.44.18-.61.25l-.4-1.02c.16-.06.33-.14.52-.23.19-.09.37-.2.56-.31s.36-.23.53-.36c.17-.13.31-.26.43-.39h.84v5.17h1.23v1.02h-3.76v-1.02h1.3v-3.46c-.19.13-.4.25-.64.36ZM101.79,171.88c-2.04,0-3.68-1.65-3.68-3.69s1.65-3.69,3.68-3.69,3.69,1.65,3.69,3.69-1.65,3.69-3.69,3.69ZM107.35,65.91c-.19.08-.35.15-.49.2l-.32-.82c.13-.05.27-.11.42-.18s.3-.16.45-.25c.15-.09.29-.19.42-.29.13-.1.25-.21.34-.31h.67v4.14h.98v.82h-3.01v-.82h1.04v-2.77c-.15.11-.32.2-.51.28ZM107.65,107.99c0-1.33,1.08-2.41,2.41-2.41s2.41,1.08,2.41,2.41-1.08,2.41-2.41,2.41-2.41-1.08-2.41-2.41ZM109.71,124.12h5.67v5.67h-5.67v-5.67ZM113.42,134.04l-.89-.89-.52-.52-.89-.89.54-.54.89.89.52.52.89.89-.54.54ZM113.96,139.17l-.54.54-.89-.89-.52-.52-.89-.89.54-.54.89.89.52.52.89.89ZM111.13,143.09l.54-.54.89.89.52.52.89.89-.54.54-.89-.89-.52-.52-.89-.89ZM115.97,171.88c-2.04,0-3.69-1.65-3.69-3.69s1.65-3.69,3.69-3.69,3.68,1.65,3.68,3.69-1.65,3.69-3.68,3.69ZM121.98,154.72l.06-4.81-.76,2.62h-.9l-.73-2.62.05,4.81h-1.13c.02-.51.04-1.03.07-1.58.02-.55.05-1.09.08-1.63.03-.54.06-1.06.09-1.57.04-.51.08-.98.12-1.41h1.02c.05.14.11.32.18.54.07.22.14.46.22.71.08.25.16.51.24.77s.16.5.23.72c.08-.25.16-.5.25-.76s.17-.52.25-.76.15-.47.22-.69c.07-.21.13-.39.18-.53h1.02c.05.54.09,1.07.14,1.58.04.51.08,1.02.11,1.52.03.5.06,1.01.08,1.52.02.51.04,1.03.05,1.56h-1.13ZM123.89,154.47c0-.1,0-.17,0-.21,0-.33.06-.64.19-.92.12-.28.28-.54.47-.77.19-.24.39-.46.61-.66.22-.2.42-.4.61-.58.19-.19.35-.37.47-.54.12-.17.19-.35.19-.53,0-.25-.08-.45-.23-.58s-.35-.21-.58-.21c-.19,0-.4.05-.61.14-.21.09-.42.25-.63.47l-.61-.86c.27-.28.58-.49.92-.62.35-.13.7-.2,1.04-.2.25,0,.5.04.73.11s.44.18.62.33c.18.15.32.33.43.55.11.22.16.48.16.78,0,.21-.04.42-.12.62-.08.2-.19.39-.32.57-.13.19-.28.37-.45.54-.17.17-.34.34-.51.5-.09.08-.19.18-.3.29-.11.11-.22.22-.32.34-.1.12-.18.24-.25.36-.07.12-.1.23-.1.33h2.66v1.02h-4.04c-.02-.07-.03-.15-.03-.25ZM130.14,171.88c-2.04,0-3.69-1.65-3.69-3.69s1.65-3.69,3.69-3.69,3.69,1.65,3.69,3.69-1.65,3.69-3.69,3.69ZM133.82,132.71l-.05.27-.15.23-.23.15-.27.05h-8.5l-.27-.05-.23-.15-.15-.23-.05-.27v-3.12l.05-.27.15-.23.23-.15.27-.05h8.5l.27.05.23.15.15.23.05.27v3.12Z"/><path class="d" d="M87.51,67.96c.06.15.13.28.24.37.1.09.24.14.41.14s.3-.05.4-.14c.1-.09.18-.21.24-.37.06-.16.09-.34.11-.55s.03-.43.03-.67,0-.47-.03-.68c-.02-.21-.06-.39-.11-.55-.06-.15-.13-.28-.24-.37-.1-.09-.24-.14-.41-.14s-.31.05-.41.14c-.1.09-.18.21-.24.37-.06.16-.09.34-.11.55s-.03.43-.03.67,0,.47.03.68c.02.21.06.39.11.55Z"/><path class="d" d="M82.04,84.87c0-.12-.03-.22-.09-.29-.06-.07-.13-.11-.21-.11-.05,0-.1.01-.14.03s-.08.05-.11.1c-.03.04-.07.1-.1.17s-.07.15-.11.25c.06.07.13.13.21.17s.15.06.22.06c.11,0,.19-.04.24-.11.05-.08.08-.17.08-.27Z"/><polygon class="d" points="112.56 126.42 111.67 125.54 111.13 126.08 112.02 126.97 112.53 127.48 113.42 128.37 113.96 127.83 113.08 126.94 112.56 126.42"/><path class="d" d="M80.55,84.55c-.09,0-.16.03-.21.1-.05.06-.07.14-.07.23s.02.17.07.23c.05.07.12.1.21.1s.17-.03.23-.1.12-.18.18-.34c-.06-.08-.13-.14-.2-.18-.07-.03-.15-.05-.21-.05Z"/><path class="d" d="M95.51,67.96c.06.15.13.28.24.37.1.09.24.14.41.14s.3-.05.4-.14c.1-.09.18-.21.24-.37.06-.16.09-.34.11-.55s.03-.43.03-.67,0-.47-.03-.68c-.02-.21-.06-.39-.11-.55-.06-.15-.13-.28-.24-.37-.1-.09-.24-.14-.41-.14s-.31.05-.41.14c-.1.09-.18.21-.24.37-.06.16-.09.34-.11.55s-.03.43-.03.67,0,.47.03.68c.02.21.06.39.11.55Z"/><path class="d" d="M96.26,83.56c-.15-.07-.36-.11-.65-.11s-.5.04-.65.11c-.15.07-.22.17-.22.31s.07.24.22.31c.15.07.36.11.65.11s.5-.04.65-.11c.15-.07.22-.17.22-.31s-.07-.24-.22-.31ZM95.76,84.03c-.05.04-.11.06-.19.06s-.13-.02-.19-.06-.08-.09-.08-.16c0-.06.03-.12.08-.16.05-.04.12-.06.19-.06s.13.02.19.06c.05.04.08.09.08.16,0,.07-.03.12-.08.16Z"/><path class="d" d="M88.25,84.54s-.05,0-.08,0c-.03,0-.06,0-.09,0-.07,0-.13,0-.2.02-.07.01-.13.03-.19.06s-.1.06-.14.11c-.04.05-.05.1-.05.17,0,.06.01.11.03.15.02.04.05.07.09.1.04.02.08.04.13.06.05.01.1.02.16.02.13,0,.22-.03.29-.09.07-.06.1-.15.1-.29,0-.05,0-.1-.02-.16s-.03-.1-.04-.13Z"/><path class="d" d="M34.56,59.19v57.66h-17.49v64.85h60l.2-122.51h-42.7ZM75.55,72.95l.23.15.15.23.05.27v1.84l-.05.27-.15.23-.23.15-.27.05h-2.55l-.27-.05-.23-.15-.15-.23-.05-.27v-1.84l.05-.27.15-.23.23-.15.27-.05h2.55l.27.05ZM74.22,87.26s.02.04.03.06c.02.02.04.04.08.05s.08.03.14.05l-.1.36c-.07-.01-.14-.03-.21-.06-.07-.03-.14-.06-.2-.11s-.11-.1-.15-.17c-.04-.07-.06-.15-.06-.24,0-.07.01-.14.04-.2.03-.06.06-.12.09-.18.03-.06.07-.11.09-.17.03-.05.04-.11.04-.16,0-.02,0-.04,0-.06s-.02-.04-.04-.06c-.02-.02-.05-.04-.08-.05-.03-.02-.08-.03-.14-.05l.1-.36c.07.01.14.03.21.06s.14.06.2.11c.06.05.11.1.16.17.04.07.06.15.06.24,0,.07-.01.14-.04.2-.03.06-.06.12-.09.18s-.07.12-.09.17-.04.11-.04.16c0,.02,0,.04,0,.06ZM74.06,85.08c-.19-.07-.36-.14-.53-.22-.17-.08-.31-.16-.43-.23v1.04h-.41v-1.62h.37c.08.07.2.15.35.24.15.09.32.17.51.24s.39.14.61.2c.21.06.43.09.64.11v.5c-.17,0-.35-.04-.54-.08-.19-.05-.38-.11-.57-.17ZM72.73,81.97l-.27-.05-.23-.15-.15-.23-.05-.27v-1.84l.05-.27.15-.23.23-.15.27-.05h2.55l.27.05.23.15.15.23.05.27v1.84l-.05.27-.15.23-.23.15-.27.05h-2.55ZM70.66,67.32c.1-.21.23-.44.39-.71.16-.26.34-.53.53-.81.19-.28.39-.55.61-.82.21-.27.43-.51.64-.72h.88v2.98h.54v.81h-.54v1.17h-.98v-1.17h-2.06v-.72ZM66.77,66.71h1.26v-1.39h.85v1.39h1.26v.81h-1.26v1.39h-.85v-1.39h-1.26v-.81ZM66.84,125.55v-4.96h1.28v4.96h-1.28ZM68.12,141v4.96h-1.28v-4.96h1.28ZM66.86,110.4c-1.33,0-2.41-1.08-2.41-2.41s1.08-2.41,2.41-2.41,2.41,1.08,2.41,2.41-1.08,2.41-2.41,2.41ZM65,125.55v-4.96h1.28v4.96h-1.28ZM66.27,141v4.96h-1.28v-4.96h1.28ZM66.86,103.2c-1.33,0-2.41-1.08-2.41-2.41s1.08-2.41,2.41-2.41,2.41,1.08,2.41,2.41-1.08,2.41-2.41,2.41ZM66.87,96c-1.33,0-2.41-1.08-2.41-2.41s1.08-2.41,2.41-2.41,2.41,1.08,2.41,2.41-1.08,2.41-2.41,2.41ZM64.85,79.15l.15-.23.23-.15.27-.05h2.55l.27.05.23.15.15.23.05.27v1.84l-.05.27-.15.23-.23.15-.27.05h-2.55l-.27-.05-.23-.15-.15-.23-.05-.27v-1.84l.05-.27ZM64.8,75.45v-1.84l.05-.27.15-.23.23-.15.27-.05h2.55l.27.05.23.15.15.23.05.27v1.84l-.05.27-.15.23-.23.15-.27.05h-2.55l-.27-.05-.23-.15-.15-.23-.05-.27ZM67,87.26s.02.04.03.06c.02.02.04.04.08.05s.08.03.14.05l-.1.36c-.07-.01-.14-.03-.21-.06-.07-.03-.14-.06-.2-.11s-.11-.1-.15-.17c-.04-.07-.06-.15-.06-.24,0-.07.01-.14.04-.2.03-.06.06-.12.09-.18.03-.06.07-.11.09-.17.03-.05.04-.11.04-.16,0-.02,0-.04,0-.06s-.02-.04-.04-.06c-.02-.02-.05-.04-.08-.05-.03-.02-.08-.03-.14-.05l.1-.36c.07.01.14.03.21.06s.14.06.2.11c.06.05.11.1.16.17.04.07.06.15.06.24,0,.07-.01.14-.04.2-.03.06-.06.12-.09.18s-.07.12-.09.17-.04.11-.04.16c0,.02,0,.04,0,.06ZM66.93,85.68c-.24,0-.45-.04-.64-.11s-.34-.17-.46-.3c-.13-.13-.22-.29-.28-.47s-.1-.39-.1-.61l.42-.03c0,.11.01.21.03.31.02.1.05.19.09.28.04.08.1.16.17.22.07.06.16.11.26.14-.02-.05-.04-.1-.05-.15-.01-.05-.02-.09-.02-.13,0-.14.02-.27.06-.37s.1-.18.17-.25c.07-.06.16-.11.25-.14.1-.03.2-.04.3-.04.1,0,.19.02.29.05s.19.08.27.14.15.15.2.24c.05.1.08.22.08.35,0,.28-.09.49-.26.63-.17.15-.44.22-.81.22ZM64.74,67.18c-.21-.1-.47-.16-.79-.16h-.3v-.82h.37c.1,0,.2-.01.3-.03.1-.02.19-.06.27-.1s.15-.11.2-.19.08-.18.08-.3c0-.18-.05-.32-.16-.43s-.26-.16-.45-.16-.37.03-.56.09c-.18.06-.34.14-.48.23l-.35-.72c.14-.1.33-.19.57-.29s.51-.15.8-.15c.28,0,.52.03.72.1.21.07.37.17.51.29s.23.27.3.44c.06.17.1.35.1.55s-.06.39-.17.57-.26.32-.45.42c.26.11.45.26.6.47.14.21.21.46.21.74,0,.23-.04.44-.11.63-.07.19-.19.36-.34.5-.15.14-.35.25-.59.33-.24.08-.53.12-.86.12-.12,0-.25,0-.39-.03-.14-.02-.27-.04-.39-.07-.12-.03-.24-.06-.35-.09-.11-.03-.19-.06-.25-.09l.19-.82c.12.05.28.11.48.17.19.06.43.09.7.09.34,0,.57-.07.71-.22.14-.14.2-.32.2-.54,0-.26-.1-.44-.31-.55ZM63.16,125.55v-4.96h1.28v4.96h-1.28ZM64.43,141v4.96h-1.28v-4.96h1.28ZM59.47,125.55v-4.96h1.28v4.96h-1.28ZM60.75,141v4.96h-1.28v-4.96h1.28ZM59.66,110.4c-1.33,0-2.41-1.08-2.41-2.41s1.08-2.41,2.41-2.41,2.41,1.08,2.41,2.41-1.08,2.41-2.41,2.41ZM57.63,125.55v-4.96h1.28v4.96h-1.28ZM58.9,141v4.96h-1.28v-4.96h1.28ZM57.25,100.79c0-1.33,1.08-2.41,2.41-2.41s2.41,1.08,2.41,2.41-1.08,2.41-2.41,2.41-2.41-1.08-2.41-2.41ZM61.31,141h1.28v4.96h-1.28v-4.96ZM61.31,125.55v-4.96h1.28v4.96h-1.28ZM59.67,96c-1.33,0-2.41-1.08-2.41-2.41s1.08-2.41,2.41-2.41,2.41,1.08,2.41,2.41-1.08,2.41-2.41,2.41ZM60.31,84.82c-.02-.06-.05-.11-.08-.15s-.07-.06-.11-.07c-.04-.01-.09-.02-.13-.02-.07,0-.13.01-.19.03s-.11.07-.15.14c-.04.07-.07.16-.1.29-.02.13-.03.29-.03.49-.22-.03-.44-.05-.66-.06s-.42-.03-.62-.04v-1.26h.41v.85c.09,0,.17.01.27.02.09,0,.17.02.23.02.02-.33.1-.58.24-.74s.33-.24.58-.24c.11,0,.22.02.32.06.1.04.18.1.25.18.07.08.13.19.17.31s.06.27.06.43c0,.06,0,.13-.01.2,0,.07-.02.13-.03.19-.01.06-.03.12-.04.17-.02.05-.03.09-.04.11l-.41-.1c.03-.06.06-.13.08-.22.02-.09.04-.2.04-.34,0-.1-.01-.18-.03-.24ZM59.77,87.26s.02.04.03.06c.02.02.04.04.08.05s.08.03.14.05l-.1.36c-.07-.01-.14-.03-.21-.06-.07-.03-.14-.06-.2-.11s-.11-.1-.15-.17c-.04-.07-.06-.15-.06-.24,0-.07.01-.14.04-.2.03-.06.06-.12.09-.18.03-.06.07-.11.09-.17.03-.05.04-.11.04-.16,0-.02,0-.04,0-.06s-.02-.04-.04-.06c-.02-.02-.05-.04-.08-.05-.03-.02-.08-.03-.14-.05l.1-.36c.07.01.14.03.21.06s.14.06.2.11c.06.05.11.1.16.17.04.07.06.15.06.24,0,.07-.01.14-.04.2-.03.06-.06.12-.09.18s-.07.12-.09.17-.04.11-.04.16c0,.02,0,.04,0,.06ZM58.29,81.97l-.27-.05-.23-.15-.15-.23-.05-.27v-1.84l.05-.27.15-.23.23-.15.27-.05h2.55l.27.05.23.15.15.23.05.27v1.84l-.05.27-.15.23-.23.15-.27.05h-2.55ZM61.11,72.95l.23.15.15.23.05.27v1.84l-.05.27-.15.23-.23.15-.27.05h-2.55l-.27-.05-.23-.15-.15-.23-.05-.27v-1.84l.05-.27.15-.23.23-.15.27-.05h2.55l.27.05ZM54.88,64.33c.1-.02.2-.04.32-.06s.23-.03.35-.04c.12,0,.23-.01.34-.02.11,0,.2,0,.28,0,.28,0,.54.03.77.1s.43.16.59.3c.17.13.29.3.38.51.09.21.13.45.13.72s-.06.55-.18.78c-.12.23-.31.41-.58.54.09.14.19.29.29.46.1.17.2.34.3.53.1.18.19.37.28.55s.16.36.23.52h-1.03c-.12-.32-.27-.63-.43-.92-.16-.3-.34-.6-.52-.9h-.51v1.82h-.98v-4.88ZM55.79,125.55v-4.96h1.28v4.96h-1.28ZM57.06,141v4.96h-1.28v-4.96h1.28ZM53.94,125.55v-4.96h1.28v4.96h-1.28ZM55.22,141v4.96h-1.28v-4.96h1.28ZM52.47,96c-1.33,0-2.41-1.08-2.41-2.41s1.08-2.41,2.41-2.41,2.41,1.08,2.41,2.41-1.08,2.41-2.41,2.41ZM54.86,100.79c0,1.33-1.08,2.41-2.41,2.41s-2.41-1.08-2.41-2.41,1.08-2.41,2.41-2.41,2.41,1.08,2.41,2.41ZM53.49,84.23v.49h-.58v1.03h-.36c-.1-.05-.22-.12-.35-.2-.13-.08-.27-.17-.41-.26-.14-.1-.28-.2-.41-.3-.13-.11-.26-.21-.36-.32v-.44h1.49v-.27h.4v.27h.58ZM52.54,87.26s.02.04.03.06c.02.02.04.04.08.05s.08.03.14.05l-.1.36c-.07-.01-.14-.03-.21-.06-.07-.03-.14-.06-.2-.11s-.11-.1-.15-.17c-.04-.07-.06-.15-.06-.24,0-.07.01-.14.04-.2.03-.06.06-.12.09-.18.03-.06.07-.11.09-.17.03-.05.04-.11.04-.16,0-.02,0-.04,0-.06s-.02-.04-.04-.06c-.02-.02-.05-.04-.08-.05-.03-.02-.08-.03-.14-.05l.1-.36c.07.01.14.03.21.06s.14.06.2.11c.06.05.11.1.16.17.04.07.06.15.06.24,0,.07-.01.14-.04.2-.03.06-.06.12-.09.18s-.07.12-.09.17-.04.11-.04.16c0,.02,0,.04,0,.06ZM51.14,64.8c.31-.43.75-.65,1.31-.65s1.02.22,1.33.65c.3.44.46,1.08.46,1.93s-.15,1.5-.46,1.93c-.31.43-.75.65-1.31.65s-1.03-.22-1.33-.65-.46-1.08-.46-1.93.16-1.5.47-1.93ZM50.36,73.61l.05-.27.15-.23.23-.15.27-.05h2.55l.27.05.23.15.15.23.05.27v1.84l-.05.27-.15.23-.23.15-.27.05h-2.55l-.27-.05-.23-.15-.15-.23-.05-.27v-1.84ZM50.36,79.42l.05-.27.15-.23.23-.15.27-.05h2.55l.27.05.23.15.15.23.05.27v1.84l-.05.27-.15.23-.23.15-.27.05h-2.55l-.27-.05-.23-.15-.15-.23-.05-.27v-1.84ZM45.27,96c-1.33,0-2.41-1.08-2.41-2.41s1.08-2.41,2.41-2.41,2.41,1.08,2.41,2.41-1.08,2.41-2.41,2.41ZM47.66,100.79c0,1.33-1.08,2.41-2.41,2.41s-2.41-1.08-2.41-2.41,1.08-2.41,2.41-2.41,2.41,1.08,2.41,2.41ZM45.78,84.66c-.07-.07-.16-.1-.27-.1-.13,0-.22.05-.27.16-.05.1-.08.24-.08.4v.15h-.41v-.18c0-.05,0-.1-.02-.15s-.03-.1-.05-.14c-.02-.04-.06-.07-.1-.1s-.09-.04-.15-.04c-.09,0-.16.03-.21.08-.05.05-.08.13-.08.23s.02.19.05.28c.03.09.07.17.11.24l-.36.18c-.05-.07-.1-.17-.15-.29s-.07-.25-.07-.4c0-.14.02-.26.05-.36.03-.1.08-.19.15-.25.06-.07.14-.12.22-.15.08-.03.18-.05.28-.05s.19.03.28.08c.09.06.16.13.21.22.05-.13.13-.23.24-.3.1-.07.23-.11.37-.11.11,0,.22.02.32.06.1.04.18.09.25.17.07.08.13.18.16.3.04.12.06.26.06.43,0,.06,0,.13-.01.19,0,.07-.02.13-.03.2s-.03.12-.04.17-.03.09-.04.12l-.41-.1c.03-.06.05-.14.08-.24.03-.1.04-.21.04-.35,0-.17-.04-.29-.11-.35ZM45.31,87.26s.02.04.03.06c.02.02.04.04.08.05s.08.03.14.05l-.1.36c-.07-.01-.14-.03-.21-.06-.07-.03-.14-.06-.2-.11s-.11-.1-.15-.17c-.04-.07-.06-.15-.06-.24,0-.07.01-.14.04-.2.03-.06.06-.12.09-.18.03-.06.07-.11.09-.17.03-.05.04-.11.04-.16,0-.02,0-.04,0-.06s-.02-.04-.04-.06c-.02-.02-.05-.04-.08-.05-.03-.02-.08-.03-.14-.05l.1-.36c.07.01.14.03.21.06s.14.06.2.11c.06.05.11.1.16.17.04.07.06.15.06.24,0,.07-.01.14-.04.2-.03.06-.06.12-.09.18s-.07.12-.09.17-.04.11-.04.16c0,.02,0,.04,0,.06ZM43.85,81.97l-.27-.05-.23-.15-.15-.23-.05-.27v-1.84l.05-.27.15-.23.23-.15.27-.05h2.55l.27.05.23.15.15.23.05.27v1.84l-.05.27-.15.23-.23.15-.27.05h-2.55ZM47.11,75.45l-.05.27-.15.23-.23.15-.27.05h-2.55l-.27-.05-.23-.15-.15-.23-.05-.27v-1.84l.05-.27.15-.23.23-.15.27-.05h2.55l.27.05.23.15.15.23.05.27v1.84ZM43.14,64.8c.31-.43.75-.65,1.31-.65s1.02.22,1.33.65c.3.44.46,1.08.46,1.93s-.15,1.5-.46,1.93c-.31.43-.75.65-1.31.65s-1.03-.22-1.33-.65-.46-1.08-.46-1.93.16-1.5.47-1.93ZM42.23,138.29l-.52.52-.89.89-.54-.54.89-.89.52-.52.89-.89.54.54-.89.89ZM43.12,144.82l-.54.54-.89-.89-.52-.52-.89-.89.54-.54.89.89.52.52.89.89ZM42.58,134.02l-.89-.89-.52-.52-.89-.89.54-.54.89.89.52.52.89.89-.54.54ZM42.58,128.35l-.89-.89-.52-.52-.89-.89.54-.54.89.89.52.52.89.89-.54.54ZM38.68,67.95c.02-.44.04-.87.06-1.3.02-.43.05-.85.08-1.26.03-.41.06-.78.1-1.13h.82c.04.11.08.26.14.43.06.18.12.37.18.57.06.2.13.41.19.62s.13.4.18.58c.06-.2.13-.4.2-.61.07-.21.14-.41.2-.61.06-.19.12-.38.18-.55.05-.17.1-.31.14-.42h.82c.04.43.07.85.11,1.26s.06.82.09,1.22c.02.4.04.81.06,1.22.02.41.03.83.04,1.25h-.9l.05-3.85-.61,2.1h-.72l-.58-2.1.04,3.85h-.9c.02-.41.03-.83.05-1.26ZM35.92,73.61l.05-.27.15-.23.23-.15.27-.05h2.55l.27.05.23.15.15.23.05.27v1.84l-.05.27-.15.23-.23.15-.27.05h-2.55l-.27-.05-.23-.15-.15-.23-.05-.27v-1.84ZM35.92,79.42l.05-.27.15-.23.23-.15.27-.05h2.55l.27.05.23.15.15.23.05.27v1.84l-.05.27-.15.23-.23.15-.27.05h-2.55l-.27-.05-.23-.15-.15-.23-.05-.27v-1.84ZM38.08,87.26s.02.04.03.06c.02.02.04.04.08.05s.08.03.14.05l-.1.36c-.07-.01-.14-.03-.21-.06-.07-.03-.14-.06-.2-.11s-.11-.1-.15-.17c-.04-.07-.06-.15-.06-.24,0-.07.01-.14.04-.2.03-.06.06-.12.09-.18.03-.06.07-.11.09-.17.03-.05.04-.11.04-.16,0-.02,0-.04,0-.06s-.02-.04-.04-.06c-.02-.02-.05-.04-.08-.05-.03-.02-.08-.03-.14-.05l.1-.36c.07.01.14.03.21.06s.14.06.2.11c.06.05.11.1.16.17.04.07.06.15.06.24,0,.07-.01.14-.04.2-.03.06-.06.12-.09.18s-.07.12-.09.17-.04.11-.04.16c0,.02,0,.04,0,.06ZM38.17,85.38c-.09-.08-.18-.16-.26-.24s-.16-.17-.23-.24c-.07-.08-.15-.14-.22-.19s-.14-.07-.21-.07c-.1,0-.18.03-.23.09-.05.06-.08.14-.08.23,0,.08.02.16.06.24.04.09.1.17.19.25l-.34.24c-.11-.11-.19-.23-.25-.37-.05-.14-.08-.28-.08-.42,0-.1.02-.2.04-.29s.07-.18.13-.25.13-.13.22-.17c.09-.04.19-.06.31-.06.09,0,.17.02.25.05s.16.07.23.13.15.11.22.18c.07.07.14.13.2.2.03.03.07.07.11.12.04.05.09.09.14.13.05.04.09.07.14.1.05.03.09.04.13.04v-1.06h.41v1.62s-.06.01-.1,0c-.04,0-.07,0-.08,0-.13,0-.26-.02-.37-.07-.11-.05-.22-.11-.31-.19ZM38.07,91.18c1.33,0,2.41,1.08,2.41,2.41s-1.08,2.41-2.41,2.41-2.41-1.08-2.41-2.41,1.08-2.41,2.41-2.41ZM38.06,98.38c1.33,0,2.41,1.08,2.41,2.41s-1.08,2.41-2.41,2.41-2.41-1.08-2.41-2.41,1.08-2.41,2.41-2.41ZM38.06,105.58c1.33,0,2.41,1.08,2.41,2.41s-1.08,2.41-2.41,2.41-2.41-1.08-2.41-2.41,1.08-2.41,2.41-2.41ZM35.16,119.85l.89.89.52.52.89.89-.54.54-.89-.89-.52-.52-.89-.89.54-.54ZM35.16,125.52l.89.89.52.52.89.89-.54.54-.89-.89-.52-.52-.89-.89.54-.54ZM35.16,131.19l.89.89.52.52.89.89-.54.54-.89-.89-.52-.52-.89-.89.54-.54ZM35.16,136.86l.89.89.52.52.89.89-.54.54-.89-.89-.52-.52-.89-.89.54-.54ZM35.16,142.53l.89.89.52.52.89.89-.54.54-.89-.89-.52-.52-.89-.89.54-.54ZM22.39,129.65l.05-.27.15-.23.23-.15.27-.05h8.5l.27.05.23.15.15.23.05.27v3.12l-.05.27-.15.23-.23.15-.27.05h-8.5l-.27-.05-.23-.15-.15-.23-.05-.27v-3.12ZM29.68,171.88h-7.37v-7.37h7.37v7.37ZM32.37,154.72l.06-4.81-.76,2.62h-.9l-.73-2.62.05,4.81h-1.13c.02-.51.04-1.03.06-1.58.02-.55.05-1.09.08-1.63.03-.54.06-1.06.09-1.57.04-.51.08-.98.12-1.41h1.02c.05.14.1.32.18.54.07.22.15.46.22.71.08.25.16.51.24.77s.16.5.23.72c.08-.25.16-.5.25-.76.09-.26.17-.52.25-.76s.15-.47.22-.69c.07-.21.13-.39.18-.53h1.02c.05.54.09,1.07.14,1.58.04.51.08,1.02.11,1.52.03.5.06,1.01.08,1.52.02.51.04,1.03.05,1.56h-1.13ZM35.37,154.82c-.17-.02-.33-.05-.49-.09-.16-.03-.3-.07-.43-.11-.13-.04-.24-.08-.31-.11l.24-1.03c.15.07.35.14.6.21.24.07.53.11.88.11.42,0,.71-.09.88-.27.17-.18.25-.4.25-.67,0-.33-.13-.56-.39-.69-.26-.13-.59-.2-.99-.2h-.38v-1.02h.46c.13,0,.25-.01.38-.04.13-.03.24-.07.34-.13.1-.06.18-.14.24-.24.06-.1.1-.23.1-.38,0-.23-.07-.41-.21-.54s-.32-.19-.56-.19-.46.04-.69.11c-.23.08-.43.17-.6.29l-.44-.9c.18-.12.42-.24.71-.37.3-.12.63-.19,1.01-.19.35,0,.65.04.9.13.26.09.47.21.63.37.17.16.29.34.37.56.08.21.12.44.12.69s-.07.48-.21.71-.33.4-.56.52c.32.13.57.33.75.59.18.26.26.57.26.93,0,.29-.05.55-.14.79-.09.24-.24.45-.43.62s-.44.31-.74.41c-.3.1-.66.14-1.07.14-.15,0-.31-.01-.48-.03ZM40.17,171.88c-2.04,0-3.69-1.65-3.69-3.69s1.65-3.69,3.69-3.69,3.69,1.65,3.69,3.69-1.65,3.69-3.69,3.69ZM42.85,107.99c0-1.33,1.08-2.41,2.41-2.41s2.41,1.08,2.41,2.41-1.08,2.41-2.41,2.41-2.41-1.08-2.41-2.41ZM47.85,145.96h-1.28v-4.96h1.28v4.96ZM47.85,125.55h-1.28v-4.96h1.28v4.96ZM46.65,65.08v-.82h3.6v.82h-1.3v4.14h-.99v-4.14h-1.3ZM49.69,145.96h-1.28v-4.96h1.28v4.96ZM49.69,125.55h-1.28v-4.96h1.28v4.96ZM52.46,105.58c1.33,0,2.41,1.08,2.41,2.41s-1.08,2.41-2.41,2.41-2.41-1.08-2.41-2.41,1.08-2.41,2.41-2.41ZM52.1,125.55v-4.96h1.28v4.96h-1.28ZM53.38,141v4.96h-1.28v-4.96h1.28ZM51.53,120.59v4.96h-1.28v-4.96h1.28ZM50.26,141h1.28v4.96h-1.28v-4.96ZM54.34,171.88c-2.04,0-3.69-1.65-3.69-3.69s1.65-3.69,3.69-3.69,3.68,1.65,3.68,3.69-1.65,3.69-3.68,3.69ZM60.25,154.72l.06-4.81-.76,2.62h-.9l-.73-2.62.05,4.81h-1.13c.02-.51.04-1.03.06-1.58s.05-1.09.08-1.63c.03-.54.06-1.06.09-1.57s.08-.98.12-1.41h1.02c.05.14.1.32.18.54.07.22.15.46.22.71.08.25.16.51.24.77.08.26.16.5.23.72.08-.25.16-.5.25-.76.09-.26.17-.52.25-.76.08-.24.15-.47.22-.68.07-.21.13-.39.18-.53h1.02c.05.54.09,1.07.14,1.58.04.51.08,1.02.11,1.53.03.5.06,1.01.08,1.52s.04,1.03.05,1.57h-1.13ZM61.88,153.26v-.9c.13-.26.29-.55.49-.88.2-.33.42-.67.66-1.01.24-.35.49-.69.76-1.03.27-.34.53-.64.8-.91h1.1v3.72h.67v1.01h-.67v1.46h-1.23v-1.46h-2.58ZM68.51,171.88c-2.04,0-3.69-1.65-3.69-3.69s1.65-3.69,3.69-3.69,3.69,1.65,3.69,3.69-1.65,3.69-3.69,3.69ZM74.06,110.4c-1.33,0-2.41-1.08-2.41-2.41s1.08-2.41,2.41-2.41,2.41,1.08,2.41,2.41-1.08,2.41-2.41,2.41ZM74.06,103.2c-1.33,0-2.41-1.08-2.41-2.41s1.08-2.41,2.41-2.41,2.41,1.08,2.41,2.41-1.08,2.41-2.41,2.41ZM74.07,96c-1.33,0-2.41-1.08-2.41-2.41s1.08-2.41,2.41-2.41,2.41,1.08,2.41,2.41-1.08,2.41-2.41,2.41Z"/><path class="d" d="M64.46,150.07c-.12.15-.24.32-.37.49s-.25.35-.38.54-.24.38-.35.58-.21.38-.3.57h1.4v-2.18Z"/><path class="d" d="M67.43,84.6s-.08-.04-.13-.06c-.05-.01-.09-.02-.14-.02-.12,0-.22.03-.29.08-.07.06-.1.15-.1.29,0,.05,0,.1.02.16.01.05.03.1.04.13.02,0,.05,0,.07,0s.05,0,.08,0c.08,0,.15,0,.22-.02.07-.01.13-.03.19-.06.06-.03.1-.06.13-.11.03-.05.05-.1.05-.17,0-.06-.01-.1-.04-.14-.03-.04-.06-.07-.1-.1Z"/><path class="d" d="M56.81,66.38c.15-.13.22-.32.22-.56,0-.26-.08-.45-.24-.58-.16-.12-.37-.18-.63-.18-.04,0-.08,0-.14,0-.05,0-.11,0-.16.02v1.49h.22c.34,0,.58-.06.73-.2Z"/><path class="d" d="M51.8,67.96c.06.15.13.28.24.37.1.09.24.14.41.14s.3-.05.4-.14c.1-.09.18-.21.24-.37.06-.16.09-.34.11-.55s.03-.43.03-.67,0-.47-.03-.68c-.02-.21-.06-.39-.11-.55-.06-.15-.13-.28-.24-.37-.1-.09-.24-.14-.41-.14s-.31.05-.41.14c-.1.09-.18.21-.24.37-.06.16-.09.34-.11.55-.02.21-.03.43-.03.67s0,.47.03.68c.02.21.06.39.11.55Z"/><path class="d" d="M51.82,84.87c.07.05.14.1.22.15.08.05.15.1.23.14.08.05.15.09.23.12v-.56h-.87c.06.05.13.1.2.15Z"/><path class="d" d="M72.73,65.49c-.1.12-.19.25-.3.39-.1.14-.2.28-.3.44s-.19.31-.28.46c-.09.15-.17.31-.24.46h1.12v-1.74Z"/><path class="d" d="M43.8,67.96c.06.15.13.28.24.37.1.09.24.14.41.14s.3-.05.4-.14c.1-.09.18-.21.24-.37.06-.16.09-.34.11-.55s.03-.43.03-.67,0-.47-.03-.68c-.02-.21-.06-.39-.11-.55-.06-.15-.13-.28-.24-.37-.1-.09-.24-.14-.41-.14s-.31.05-.41.14c-.1.09-.18.21-.24.37-.06.16-.09.34-.11.55-.02.21-.03.43-.03.67s0,.47.03.68c.02.21.06.39.11.55Z"/><path class="d" d="M166.64,54.76h0l.89-.89.54.54-.89.89h0l-.52.52h0l-.89.89-.54-.54.89-.89h0l.52-.52Z"/><path class="d" d="M13.53,44.32h0l.89.89-.54.54-.89-.89h0l-.52-.52h0l-.89-.89.54-.54.89.89h0l.52.52Z"/><path class="d" d="M7.86,44.32h0l.89.89-.54.54-.89-.89h0l-.52-.52h0l-.89-.89.54-.54.89.89h0l.52.52Z"/><path class="d" d="M2.19,44.32h0l.89.89-.54.54-.89-.89h0l-.52-.52h0l-.89-.89.54-.54.89.89h0l.52.52Z"/><path class="d" d="M149.59,44.31h0l.89.89-.54.54-.89-.89h0l-.52-.52h0l-.89-.89.54-.54.89.89h0l.52.52Z"/><path class="d" d="M80.98,21.27h0l.89-.89.54.54-.89.89h0l-.52.52h0l-.89.89-.54-.54.89-.89h0l.52-.52Z"/><path class="d" d="M80.98,26.94h0l.89-.89.54.54-.89.89h0l-.52.52h0l-.89.89-.54-.54.89-.89h0l.52-.52Z"/><path class="d" d="M80.98,32.61h0l.89-.89.54.54-.89.89h0l-.52.52h0l-.89.89-.54-.54.89-.89h0l.52-.52Z"/><path class="d" d="M7.62,160.96h0l.89.89-.54.54-.89-.89h0l-.52-.52h0l-.89-.89.54-.54.89.89h0l.52.52Z"/><path class="d" d="M7.62,166.62h0l.89.89-.54.54-.89-.89h0l-.52-.52h0l-.89-.89.54-.54.89.89h0l.52.52Z"/><path class="d" d="M7.62,155.29h0l.89.89-.54.54-.89-.89h0l-.52-.52h0l-.89-.89.54-.54.89.89h0l.52.52Z"/><path class="d" d="M7.62,143.95h0l.89.89-.54.54-.89-.89h0l-.52-.52h0l-.89-.89.54-.54.89.89h0l.52.52Z"/><path class="d" d="M1.4,154.77h0l.89-.89.54.54-.89.89h0l-.52.52h0l-.89.89-.54-.54.89-.89h0l.52-.52Z"/><path class="d" d="M1.95,149.62h0l.89.89-.54.54-.89-.89h0l-.52-.52h0l-.89-.89.54-.54.89.89h0l.52.52Z"/><path class="d" d="M1.95,143.95h0l.89.89-.54.54-.89-.89h0l-.52-.52h0l-.89-.89.54-.54.89.89h0l.52.52Z"/><path class="d" d="M1.8,138.66h0v1.26h-.77v-1.26h0v-.73h0v-1.26s.77,0,.77,0v1.26h0v.73Z"/><path class="d" d="M1.95,132.61h0l.89.89-.54.54-.89-.89h0l-.52-.52h0l-.89-.89.54-.54.89.89h0l.52.52Z"/><path class="d" d="M1.95,126.94h0l.89.89-.54.54-.89-.89h0l-.52-.52h0l-.89-.89.54-.54.89.89h0l.52.52Z"/><path class="d" d="M1.95,121.27h0l.89.89-.54.54-.89-.89h0l-.52-.52h0l-.89-.89.54-.54.89.89h0l.52.52Z"/><path class="d" d="M1.95,160.96h0l.89.89-.54.54-.89-.89h0l-.52-.52h0l-.89-.89.54-.54.89.89h0l.52.52Z"/><path class="d" d="M1.95,166.62h0l.89.89-.54.54-.89-.89h0l-.52-.52h0l-.89-.89.54-.54.89.89h0l.52.52Z"/><path class="d" d="M13.28,166.62h0l.89.89-.54.54-.89-.89h0l-.52-.52h0l-.89-.89.54-.54.89.89h0l.52.52Z"/><path class="d" d="M13.28,155.29h0l.89.89-.54.54-.89-.89h0l-.52-.52h0l-.89-.89.54-.54.89.89h0l.52.52Z"/><path class="d" d="M13.28,160.96h0l.89.89-.54.54-.89-.89h0l-.52-.52h0l-.89-.89.54-.54.89.89h0l.52.52Z"/><path class="d" d="M13.28,149.62h0l.89.89-.54.54-.89-.89h0l-.52-.52h0l-.89-.89.54-.54.89.89h0l.52.52Z"/><path class="d" d="M13.28,143.95h0l.89.89-.54.54-.89-.89h0l-.52-.52h0l-.89-.89.54-.54.89.89h0l.52.52Z"/><path class="d" d="M147.98,143.97h0l-.89-.89.54-.54.89.89h0l.52.52h0l.89.89-.54.54-.89-.89h0l-.52-.52Z"/><path class="d" d="M147.98,149.64h0l-.89-.89.54-.54.89.89h0l.52.52h0l.89.89-.54.54-.89-.89h0l-.52-.52Z"/><path class="d" d="M147.98,155.31h0l-.89-.89.54-.54.89.89h0l.52.52h0l.89.89-.54.54-.89-.89h0l-.52-.52Z"/><path class="d" d="M148.89,161.33h0v1.26h-.77v-1.26h0v-.73h0v-1.26s.77,0,.77,0v1.26h0v.73Z"/><path class="d" d="M147.98,166.65h0l-.89-.89.54-.54.89.89h0l.52.52h0l.89.89-.54.54-.89-.89h0l-.52-.52Z"/><path class="d" d="M154.19,133.15h0l-.89.89-.54-.54.89-.89h0l.52-.52h0l.89-.89.54.54-.89.89h0l-.52.52Z"/><path class="d" d="M153.65,138.3h0l-.89-.89.54-.54.89.89h0l.52.52h0l.89.89-.54.54-.89-.89h0l-.52-.52Z"/><path class="d" d="M153.65,143.97h0l-.89-.89.54-.54.89.89h0l.52.52h0l.89.89-.54.54-.89-.89h0l-.52-.52Z"/><path class="d" d="M153.79,149.27h0v-1.26h.77v1.26h0v.73h0v1.26s-.77,0-.77,0v-1.26h0v-.73Z"/><path class="d" d="M153.65,155.31h0l-.89-.89.54-.54.89.89h0l.52.52h0l.89.89-.54.54-.89-.89h0l-.52-.52Z"/><path class="d" d="M153.65,160.98h0l-.89-.89.54-.54.89.89h0l.52.52h0l.89.89-.54.54-.89-.89h0l-.52-.52Z"/><path class="d" d="M153.65,166.65h0l-.89-.89.54-.54.89.89h0l.52.52h0l.89.89-.54.54-.89-.89h0l-.52-.52Z"/><path class="d" d="M153.65,126.97h0l-.89-.89.54-.54.89.89h0l.52.52h0l.89.89-.54.54-.89-.89h0l-.52-.52Z"/><path class="d" d="M153.65,121.3h0l-.89-.89.54-.54.89.89h0l.52.52h0l.89.89-.54.54-.89-.89h0l-.52-.52Z"/><path class="d" d="M142.31,149.64h0l-.89-.89.54-.54.89.89h0l.52.52h0l.89.89-.54.54-.89-.89h0l-.52-.52Z"/><path class="d" d="M142.31,143.97h0l-.89-.89.54-.54.89.89h0l.52.52h0l.89.89-.54.54-.89-.89h0l-.52-.52Z"/><path class="d" d="M142.31,155.31h0l-.89-.89.54-.54.89.89h0l.52.52h0l.89.89-.54.54-.89-.89h0l-.52-.52Z"/><path class="d" d="M142.31,166.65h0l-.89-.89.54-.54.89.89h0l.52.52h0l.89.89-.54.54-.89-.89h0l-.52-.52Z"/><path class="d" d="M142.31,160.98h0l-.89-.89.54-.54.89.89h0l.52.52h0l.89.89-.54.54-.89-.89h0l-.52-.52Z"/></g></svg>