<?xml version="1.0" standalone="no"?>
 <!DOCTYPE svg PUBLIC "-//W3C//DTD SVG 1.1//EN" 
 "http://www.w3.org/Graphics/SVG/1.1/DTD/svg11.dtd"> 
<svg
  xmlns:svg="http://www.w3.org/2000/svg"
  xmlns="http://www.w3.org/2000/svg"
  xmlns:xlink="http://www.w3.org/1999/xlink"
  version="1.1"
  width="297.0022mm" height="210.0072mm" viewBox="0.0000 0.0000 297.0022 210.0072">
<title>SVG Image created as ultimate_motor_board-B_Cu.svg date 2024/04/11 11:13:31 </title>
  <desc>Image generated by PCBNEW </desc>
<g style="fill:#000000; fill-opacity:1.0000;stroke:#000000; stroke-opacity:1.0000;
stroke-linecap:round; stroke-linejoin:round;"
 transform="translate(0 0) scale(1 1)">
</g>
<g style="fill:#008400; fill-opacity:1.0000; stroke:none;">
<circle cx="116.8000" cy="53.1000" r="0.7620" /> 
</g>
<g style="fill:#008400; fill-opacity:1.0000; stroke:none;">
<circle cx="114.8000" cy="53.1000" r="0.7620" /> 
</g>
<g style="fill:#008400; fill-opacity:1.0000; stroke:none;">
<circle cx="112.8000" cy="53.1000" r="0.7620" /> 
<path style="fill:#008400; fill-opacity:1.0000; stroke:none;fill-rule:evenodd;"
d="M 111.5620,53.8620
110.0380,53.8620
110.0380,52.3380
111.5620,52.3380
Z" /> 
</g>
<g style="fill:#008400; fill-opacity:1.0000; stroke:none;">
<circle cx="129.0000" cy="109.5000" r="0.8500" /> 
<circle cx="129.0000" cy="106.9600" r="0.8500" /> 
<path style="fill:#008400; fill-opacity:1.0000; stroke:none;fill-rule:evenodd;"
d="M 128.1500,105.2700
128.1500,103.5700
129.8500,103.5700
129.8500,105.2700
Z" /> 
<circle cx="142.5200" cy="97.1600" r="0.8500" /> 
<circle cx="139.9800" cy="97.1600" r="0.8500" /> 
<circle cx="137.4400" cy="97.1600" r="0.8500" /> 
<circle cx="134.9000" cy="97.1600" r="0.8500" /> 
<circle cx="132.3600" cy="97.1600" r="0.8500" /> 
<circle cx="129.8200" cy="97.1600" r="0.8500" /> 
<circle cx="127.2800" cy="97.1600" r="0.8500" /> 
<circle cx="124.7400" cy="97.1600" r="0.8500" /> 
<circle cx="122.2000" cy="97.1600" r="0.8500" /> 
<circle cx="119.6600" cy="97.1600" r="0.8500" /> 
<circle cx="117.1200" cy="97.1600" r="0.8500" /> 
<circle cx="114.5800" cy="97.1600" r="0.8500" /> 
<circle cx="112.0400" cy="97.1600" r="0.8500" /> 
<circle cx="109.5000" cy="97.1600" r="0.8500" /> 
<circle cx="106.9600" cy="97.1600" r="0.8500" /> 
<path style="fill:#008400; fill-opacity:1.0000; stroke:none;fill-rule:evenodd;"
d="M 105.2700,98.0100
103.5700,98.0100
103.5700,96.3100
105.2700,96.3100
Z" /> 
<circle cx="130.8125" cy="55.1000" r="1.3000" /> 
<path style="fill:#008400; fill-opacity:1.0000; stroke:none;fill-rule:evenodd;"
d="M 137.1125,53.8000
137.1125,56.4000
134.5125,56.4000
134.5125,53.8000
Z" /> 
</g>
<g style="fill:#008400; fill-opacity:1.0000; stroke:none;">
<circle cx="143.1000" cy="119.8000" r="1.3000" /> 
</g>
<g style="fill:#008400; fill-opacity:1.0000; stroke:none;">
<circle cx="138.1000" cy="119.8000" r="1.3000" /> 
</g>
<g style="fill:#008400; fill-opacity:1.0000; stroke:none;">
<circle cx="133.1000" cy="119.8000" r="1.3000" /> 
<path style="fill:#008400; fill-opacity:1.0000; stroke:none;fill-rule:evenodd;"
d="M 126.8000,121.1000
126.8000,118.5000
129.4000,118.5000
129.4000,121.1000
Z" /> 
</g>
<g style="fill:#008400; fill-opacity:1.0000; stroke:none;">
<circle cx="119.1000" cy="119.8000" r="1.3000" /> 
</g>
<g style="fill:#008400; fill-opacity:1.0000; stroke:none;">
<circle cx="114.1000" cy="119.8000" r="1.3000" /> 
</g>
<g style="fill:#008400; fill-opacity:1.0000; stroke:none;">
<circle cx="109.1000" cy="119.8000" r="1.3000" /> 
<path style="fill:#008400; fill-opacity:1.0000; stroke:none;fill-rule:evenodd;"
d="M 102.8000,121.1000
102.8000,118.5000
105.4000,118.5000
105.4000,121.1000
Z" /> 
</g>
<g style="fill:#008400; fill-opacity:1.0000; stroke:none;">
<circle cx="118.5000" cy="109.5000" r="0.8500" /> 
<circle cx="118.5000" cy="106.9600" r="0.8500" /> 
<path style="fill:#008400; fill-opacity:1.0000; stroke:none;fill-rule:evenodd;"
d="M 117.6500,105.2700
117.6500,103.5700
119.3500,103.5700
119.3500,105.2700
Z" /> 
<circle cx="142.5200" cy="99.7000" r="0.8500" /> 
<circle cx="139.9800" cy="99.7000" r="0.8500" /> 
<circle cx="137.4400" cy="99.7000" r="0.8500" /> 
<circle cx="134.9000" cy="99.7000" r="0.8500" /> 
<circle cx="132.3600" cy="99.7000" r="0.8500" /> 
<circle cx="129.8200" cy="99.7000" r="0.8500" /> 
<circle cx="127.2800" cy="99.7000" r="0.8500" /> 
<circle cx="124.7400" cy="99.7000" r="0.8500" /> 
<circle cx="122.2000" cy="99.7000" r="0.8500" /> 
<circle cx="119.6600" cy="99.7000" r="0.8500" /> 
<circle cx="117.1200" cy="99.7000" r="0.8500" /> 
<circle cx="114.5800" cy="99.7000" r="0.8500" /> 
<circle cx="112.0400" cy="99.7000" r="0.8500" /> 
<circle cx="109.5000" cy="99.7000" r="0.8500" /> 
<circle cx="106.9600" cy="99.7000" r="0.8500" /> 
<path style="fill:#008400; fill-opacity:1.0000; stroke:none;fill-rule:evenodd;"
d="M 105.2700,100.5500
103.5700,100.5500
103.5700,98.8500
105.2700,98.8500
Z" /> 
<circle cx="142.5200" cy="94.6200" r="0.8500" /> 
<circle cx="139.9800" cy="94.6200" r="0.8500" /> 
<circle cx="137.4400" cy="94.6200" r="0.8500" /> 
<circle cx="134.9000" cy="94.6200" r="0.8500" /> 
<circle cx="132.3600" cy="94.6200" r="0.8500" /> 
<circle cx="129.8200" cy="94.6200" r="0.8500" /> 
<circle cx="127.2800" cy="94.6200" r="0.8500" /> 
<circle cx="124.7400" cy="94.6200" r="0.8500" /> 
<circle cx="122.2000" cy="94.6200" r="0.8500" /> 
<circle cx="119.6600" cy="94.6200" r="0.8500" /> 
<circle cx="117.1200" cy="94.6200" r="0.8500" /> 
<circle cx="114.5800" cy="94.6200" r="0.8500" /> 
<circle cx="112.0400" cy="94.6200" r="0.8500" /> 
<circle cx="109.5000" cy="94.6200" r="0.8500" /> 
<circle cx="106.9600" cy="94.6200" r="0.8500" /> 
<path style="fill:#008400; fill-opacity:1.0000; stroke:none;fill-rule:evenodd;"
d="M 105.2700,95.4700
103.5700,95.4700
103.5700,93.7700
105.2700,93.7700
Z" /> 
</g>
<g style="fill:#FFFFFF; fill-opacity:1.0000; stroke:none;">
<circle cx="116.8000" cy="53.1000" r="0.3810" /> 
</g>
<g style="fill:#FFFFFF; fill-opacity:1.0000; stroke:none;">
<circle cx="114.8000" cy="53.1000" r="0.3810" /> 
</g>
<g style="fill:#FFFFFF; fill-opacity:1.0000; stroke:none;">
<circle cx="112.8000" cy="53.1000" r="0.3810" /> 
</g>
<g style="fill:#FFFFFF; fill-opacity:1.0000; stroke:none;">
<circle cx="110.8000" cy="53.1000" r="0.3810" /> 
</g>
<g style="fill:#FFFFFF; fill-opacity:1.0000; stroke:none;">
<circle cx="143.5000" cy="53.5000" r="1.6000" /> 
</g>
<g style="fill:#FFFFFF; fill-opacity:1.0000; stroke:none;">
<circle cx="129.0000" cy="109.5000" r="0.5000" /> 
</g>
<g style="fill:#FFFFFF; fill-opacity:1.0000; stroke:none;">
<circle cx="129.0000" cy="106.9600" r="0.5000" /> 
</g>
<g style="fill:#FFFFFF; fill-opacity:1.0000; stroke:none;">
<circle cx="129.0000" cy="104.4200" r="0.5000" /> 
</g>
<g style="fill:#FFFFFF; fill-opacity:1.0000; stroke:none;">
<circle cx="142.5200" cy="97.1600" r="0.5000" /> 
</g>
<g style="fill:#FFFFFF; fill-opacity:1.0000; stroke:none;">
<circle cx="139.9800" cy="97.1600" r="0.5000" /> 
</g>
<g style="fill:#FFFFFF; fill-opacity:1.0000; stroke:none;">
<circle cx="137.4400" cy="97.1600" r="0.5000" /> 
</g>
<g style="fill:#FFFFFF; fill-opacity:1.0000; stroke:none;">
<circle cx="134.9000" cy="97.1600" r="0.5000" /> 
</g>
<g style="fill:#FFFFFF; fill-opacity:1.0000; stroke:none;">
<circle cx="132.3600" cy="97.1600" r="0.5000" /> 
</g>
<g style="fill:#FFFFFF; fill-opacity:1.0000; stroke:none;">
<circle cx="129.8200" cy="97.1600" r="0.5000" /> 
</g>
<g style="fill:#FFFFFF; fill-opacity:1.0000; stroke:none;">
<circle cx="127.2800" cy="97.1600" r="0.5000" /> 
</g>
<g style="fill:#FFFFFF; fill-opacity:1.0000; stroke:none;">
<circle cx="124.7400" cy="97.1600" r="0.5000" /> 
</g>
<g style="fill:#FFFFFF; fill-opacity:1.0000; stroke:none;">
<circle cx="122.2000" cy="97.1600" r="0.5000" /> 
</g>
<g style="fill:#FFFFFF; fill-opacity:1.0000; stroke:none;">
<circle cx="119.6600" cy="97.1600" r="0.5000" /> 
</g>
<g style="fill:#FFFFFF; fill-opacity:1.0000; stroke:none;">
<circle cx="117.1200" cy="97.1600" r="0.5000" /> 
</g>
<g style="fill:#FFFFFF; fill-opacity:1.0000; stroke:none;">
<circle cx="114.5800" cy="97.1600" r="0.5000" /> 
</g>
<g style="fill:#FFFFFF; fill-opacity:1.0000; stroke:none;">
<circle cx="112.0400" cy="97.1600" r="0.5000" /> 
</g>
<g style="fill:#FFFFFF; fill-opacity:1.0000; stroke:none;">
<circle cx="109.5000" cy="97.1600" r="0.5000" /> 
</g>
<g style="fill:#FFFFFF; fill-opacity:1.0000; stroke:none;">
<circle cx="106.9600" cy="97.1600" r="0.5000" /> 
</g>
<g style="fill:#FFFFFF; fill-opacity:1.0000; stroke:none;">
<circle cx="104.4200" cy="97.1600" r="0.5000" /> 
</g>
<g style="fill:#FFFFFF; fill-opacity:1.0000; stroke:none;">
<circle cx="130.8125" cy="55.1000" r="0.6500" /> 
</g>
<g style="fill:#FFFFFF; fill-opacity:1.0000; stroke:none;">
<circle cx="135.8125" cy="55.1000" r="0.6500" /> 
</g>
<g style="fill:#FFFFFF; fill-opacity:1.0000; stroke:none;">
<circle cx="103.5000" cy="53.5000" r="1.6000" /> 
</g>
<g style="fill:#FFFFFF; fill-opacity:1.0000; stroke:none;">
<circle cx="143.1000" cy="119.8000" r="0.6500" /> 
</g>
<g style="fill:#FFFFFF; fill-opacity:1.0000; stroke:none;">
<circle cx="138.1000" cy="119.8000" r="0.6500" /> 
</g>
<g style="fill:#FFFFFF; fill-opacity:1.0000; stroke:none;">
<circle cx="133.1000" cy="119.8000" r="0.6500" /> 
</g>
<g style="fill:#FFFFFF; fill-opacity:1.0000; stroke:none;">
<circle cx="128.1000" cy="119.8000" r="0.6500" /> 
</g>
<g style="fill:#FFFFFF; fill-opacity:1.0000; stroke:none;">
<circle cx="119.1000" cy="119.8000" r="0.6500" /> 
</g>
<g style="fill:#FFFFFF; fill-opacity:1.0000; stroke:none;">
<circle cx="114.1000" cy="119.8000" r="0.6500" /> 
</g>
<g style="fill:#FFFFFF; fill-opacity:1.0000; stroke:none;">
<circle cx="109.1000" cy="119.8000" r="0.6500" /> 
</g>
<g style="fill:#FFFFFF; fill-opacity:1.0000; stroke:none;">
<circle cx="104.1000" cy="119.8000" r="0.6500" /> 
</g>
<g style="fill:#FFFFFF; fill-opacity:1.0000; stroke:none;">
<circle cx="103.5000" cy="108.5000" r="1.6000" /> 
</g>
<g style="fill:#FFFFFF; fill-opacity:1.0000; stroke:none;">
<circle cx="118.5000" cy="109.5000" r="0.5000" /> 
</g>
<g style="fill:#FFFFFF; fill-opacity:1.0000; stroke:none;">
<circle cx="118.5000" cy="106.9600" r="0.5000" /> 
</g>
<g style="fill:#FFFFFF; fill-opacity:1.0000; stroke:none;">
<circle cx="118.5000" cy="104.4200" r="0.5000" /> 
</g>
<g style="fill:#FFFFFF; fill-opacity:1.0000; stroke:none;">
<circle cx="142.5200" cy="99.7000" r="0.5000" /> 
</g>
<g style="fill:#FFFFFF; fill-opacity:1.0000; stroke:none;">
<circle cx="139.9800" cy="99.7000" r="0.5000" /> 
</g>
<g style="fill:#FFFFFF; fill-opacity:1.0000; stroke:none;">
<circle cx="137.4400" cy="99.7000" r="0.5000" /> 
</g>
<g style="fill:#FFFFFF; fill-opacity:1.0000; stroke:none;">
<circle cx="134.9000" cy="99.7000" r="0.5000" /> 
</g>
<g style="fill:#FFFFFF; fill-opacity:1.0000; stroke:none;">
<circle cx="132.3600" cy="99.7000" r="0.5000" /> 
</g>
<g style="fill:#FFFFFF; fill-opacity:1.0000; stroke:none;">
<circle cx="129.8200" cy="99.7000" r="0.5000" /> 
</g>
<g style="fill:#FFFFFF; fill-opacity:1.0000; stroke:none;">
<circle cx="127.2800" cy="99.7000" r="0.5000" /> 
</g>
<g style="fill:#FFFFFF; fill-opacity:1.0000; stroke:none;">
<circle cx="124.7400" cy="99.7000" r="0.5000" /> 
</g>
<g style="fill:#FFFFFF; fill-opacity:1.0000; stroke:none;">
<circle cx="122.2000" cy="99.7000" r="0.5000" /> 
</g>
<g style="fill:#FFFFFF; fill-opacity:1.0000; stroke:none;">
<circle cx="119.6600" cy="99.7000" r="0.5000" /> 
</g>
<g style="fill:#FFFFFF; fill-opacity:1.0000; stroke:none;">
<circle cx="117.1200" cy="99.7000" r="0.5000" /> 
</g>
<g style="fill:#FFFFFF; fill-opacity:1.0000; stroke:none;">
<circle cx="114.5800" cy="99.7000" r="0.5000" /> 
</g>
<g style="fill:#FFFFFF; fill-opacity:1.0000; stroke:none;">
<circle cx="112.0400" cy="99.7000" r="0.5000" /> 
</g>
<g style="fill:#FFFFFF; fill-opacity:1.0000; stroke:none;">
<circle cx="109.5000" cy="99.7000" r="0.5000" /> 
</g>
<g style="fill:#FFFFFF; fill-opacity:1.0000; stroke:none;">
<circle cx="106.9600" cy="99.7000" r="0.5000" /> 
</g>
<g style="fill:#FFFFFF; fill-opacity:1.0000; stroke:none;">
<circle cx="104.4200" cy="99.7000" r="0.5000" /> 
</g>
<g style="fill:#FFFFFF; fill-opacity:1.0000; stroke:none;">
<circle cx="142.5200" cy="94.6200" r="0.5000" /> 
</g>
<g style="fill:#FFFFFF; fill-opacity:1.0000; stroke:none;">
<circle cx="139.9800" cy="94.6200" r="0.5000" /> 
</g>
<g style="fill:#FFFFFF; fill-opacity:1.0000; stroke:none;">
<circle cx="137.4400" cy="94.6200" r="0.5000" /> 
</g>
<g style="fill:#FFFFFF; fill-opacity:1.0000; stroke:none;">
<circle cx="134.9000" cy="94.6200" r="0.5000" /> 
</g>
<g style="fill:#FFFFFF; fill-opacity:1.0000; stroke:none;">
<circle cx="132.3600" cy="94.6200" r="0.5000" /> 
</g>
<g style="fill:#FFFFFF; fill-opacity:1.0000; stroke:none;">
<circle cx="129.8200" cy="94.6200" r="0.5000" /> 
</g>
<g style="fill:#FFFFFF; fill-opacity:1.0000; stroke:none;">
<circle cx="127.2800" cy="94.6200" r="0.5000" /> 
</g>
<g style="fill:#FFFFFF; fill-opacity:1.0000; stroke:none;">
<circle cx="124.7400" cy="94.6200" r="0.5000" /> 
</g>
<g style="fill:#FFFFFF; fill-opacity:1.0000; stroke:none;">
<circle cx="122.2000" cy="94.6200" r="0.5000" /> 
</g>
<g style="fill:#FFFFFF; fill-opacity:1.0000; stroke:none;">
<circle cx="119.6600" cy="94.6200" r="0.5000" /> 
</g>
<g style="fill:#FFFFFF; fill-opacity:1.0000; stroke:none;">
<circle cx="117.1200" cy="94.6200" r="0.5000" /> 
</g>
<g style="fill:#FFFFFF; fill-opacity:1.0000; stroke:none;">
<circle cx="114.5800" cy="94.6200" r="0.5000" /> 
</g>
<g style="fill:#FFFFFF; fill-opacity:1.0000; stroke:none;">
<circle cx="112.0400" cy="94.6200" r="0.5000" /> 
</g>
<g style="fill:#FFFFFF; fill-opacity:1.0000; stroke:none;">
<circle cx="109.5000" cy="94.6200" r="0.5000" /> 
</g>
<g style="fill:#FFFFFF; fill-opacity:1.0000; stroke:none;">
<circle cx="106.9600" cy="94.6200" r="0.5000" /> 
</g>
<g style="fill:#FFFFFF; fill-opacity:1.0000; stroke:none;">
<circle cx="104.4200" cy="94.6200" r="0.5000" /> 
</g>
<g style="fill:#FFFFFF; fill-opacity:1.0000; stroke:none;">
<circle cx="143.5000" cy="108.5000" r="1.6000" /> 
<path style="fill:none; 
stroke:#C2C200; stroke-width:0.1000; stroke-opacity:1; 
stroke-linecap:round; stroke-linejoin:round;fill:none"
d="M 100.0000,50.0000
147.0000,50.0000
147.0000,125.0000
100.0000,125.0000
Z" /> 
</g> 
</svg>
