<?xml version="1.0" standalone="no"?>
 <!DOCTYPE svg PUBLIC "-//W3C//DTD SVG 1.1//EN" 
 "http://www.w3.org/Graphics/SVG/1.1/DTD/svg11.dtd"> 
<svg
  xmlns:svg="http://www.w3.org/2000/svg"
  xmlns="http://www.w3.org/2000/svg"
  xmlns:xlink="http://www.w3.org/1999/xlink"
  version="1.1"
  width="297.0022mm" height="210.0072mm" viewBox="0.0000 0.0000 297.0022 210.0072">
<title>SVG Image created as ultimate_motor_board-F_Silkscreen.svg date 2024/04/15 14:58:39 </title>
  <desc>Image generated by PCBNEW </desc>
<g style="fill:#000000; fill-opacity:1.0000;stroke:#000000; stroke-opacity:1.0000;
stroke-linecap:round; stroke-linejoin:round;"
 transform="translate(0 0) scale(1 1)">
</g>
<g style="fill:none; 
stroke:#000000; stroke-width:0.2000; stroke-opacity:1; 
stroke-linecap:round; stroke-linejoin:round;">
<text x="132.1000" y="115.1000"
textLength="2.7609" font-size="1.3333" lengthAdjust="spacingAndGlyphs"
text-anchor="start" opacity="0">M3+</text>
<g class="stroked-text"><desc>M3+</desc>
<path style="fill:#000000; fill-opacity:1.0000; stroke:none;fill-rule:evenodd;"
d="M 132.4009,114.9300
132.2038,114.9300
132.2038,113.9139
132.5115,113.9139
132.6955,114.7129
132.8782,113.9139
133.1827,113.9139
133.1827,114.9300
132.9854,114.9300
132.9854,114.2427
132.9857,114.1937
132.9861,114.1599
132.9867,114.1100
132.9868,114.0773
132.7951,114.9300
132.5897,114.9300
132.3994,114.0773
132.3998,114.1289
132.4002,114.1599
132.4007,114.2098
132.4009,114.2427
Z" /> 
<path style="fill:#000000; fill-opacity:1.0000; stroke:none;fill-rule:evenodd;"
d="M 133.5349,114.1299
133.5126,114.1740
133.5036,114.2251
133.5032,114.2473
133.3205,114.2473
133.3247,114.1972
133.3336,114.1488
133.3459,114.1064
133.3700,114.0611
133.4002,114.0220
133.4214,114.0004
133.4635,113.9701
133.5094,113.9490
133.5127,113.9479
133.5637,113.9354
133.6146,113.9302
133.6426,113.9296
133.6943,113.9322
133.7496,113.9418
133.7996,113.9584
133.8443,113.9821
133.8730,114.0033
133.9113,114.0433
133.9387,114.0895
133.9552,114.1421
133.9606,114.1932
133.9606,114.2009
133.9555,114.2532
133.9402,114.3001
133.9116,114.3454
133.9084,114.3492
133.8704,114.3839
133.8397,114.4005
133.8850,114.4206
133.9167,114.4471
133.9495,114.4855
133.9729,114.5303
133.9870,114.5815
133.9916,114.6316
133.9917,114.6391
133.9875,114.6936
133.9749,114.7452
133.9539,114.7938
133.9245,114.8395
133.9040,114.8643
133.8617,114.9021
133.8190,114.9271
133.7704,114.9453
133.7159,114.9566
133.6660,114.9609
133.6448,114.9613
133.5939,114.9591
133.5360,114.9506
133.4843,114.9354
133.4390,114.9136
133.3930,114.8787
133.3560,114.8343
133.3508,114.8260
133.3295,114.7811
133.3143,114.7291
133.3058,114.6767
133.3027,114.6337
133.4949,114.6337
133.4991,114.6853
133.5142,114.7327
133.5456,114.7738
133.5909,114.7979
133.6441,114.8049
133.6949,114.7960
133.7393,114.7691
133.7447,114.7642
133.7741,114.7216
133.7867,114.6699
133.7877,114.6469
133.7814,114.5952
133.7596,114.5502
133.7221,114.5184
133.7079,114.5114
133.6583,114.4983
133.6052,114.4932
133.5650,114.4923
133.5650,114.3516
133.6141,114.3496
133.6655,114.3430
133.6983,114.3331
133.7381,114.3029
133.7595,114.2559
133.7635,114.2153
133.7562,114.1663
133.7301,114.1220
133.6871,114.0938
133.6365,114.0859
133.5863,114.0932
133.5436,114.1196
Z" /> 
<path style="fill:#000000; fill-opacity:1.0000; stroke:none;fill-rule:evenodd;"
d="M 134.5566,114.6486
134.5566,114.9300
134.3759,114.9300
134.3759,114.6486
134.0942,114.6486
134.0942,114.4767
134.3759,114.4767
134.3759,114.1951
134.5566,114.1951
134.5566,114.4767
134.8382,114.4767
134.8382,114.6486
Z" /> 
</g></g>
<g style="fill:none; 
stroke:#000000; stroke-width:0.2000; stroke-opacity:1; 
stroke-linecap:round; stroke-linejoin:round;">
<text x="113.1000" y="115.1000"
textLength="2.4102" font-size="1.3333" lengthAdjust="spacingAndGlyphs"
text-anchor="start" opacity="0">M2-</text>
<g class="stroked-text"><desc>M2-</desc>
<path style="fill:#000000; fill-opacity:1.0000; stroke:none;fill-rule:evenodd;"
d="M 113.4009,114.9300
113.2038,114.9300
113.2038,113.9139
113.5115,113.9139
113.6955,114.7129
113.8782,113.9139
114.1827,113.9139
114.1827,114.9300
113.9854,114.9300
113.9854,114.2427
113.9857,114.1937
113.9861,114.1599
113.9867,114.1100
113.9868,114.0773
113.7951,114.9300
113.5897,114.9300
113.3994,114.0773
113.3998,114.1289
113.4002,114.1599
113.4007,114.2098
113.4009,114.2427
Z" /> 
<path style="fill:#000000; fill-opacity:1.0000; stroke:none;fill-rule:evenodd;"
d="M 114.7547,114.1430
114.7152,114.1132
114.6663,114.1019
114.6544,114.1015
114.6041,114.1080
114.5585,114.1330
114.5327,114.1682
114.5180,114.2179
114.5118,114.2701
114.5107,114.2903
114.3205,114.2903
114.3243,114.2371
114.3317,114.1884
114.3443,114.1384
114.3639,114.0894
114.3664,114.0844
114.3939,114.0398
114.4273,114.0028
114.4666,113.9733
114.5119,113.9514
114.5631,113.9370
114.6203,113.9302
114.6448,113.9296
114.7017,113.9327
114.7541,113.9419
114.8019,113.9573
114.8520,113.9831
114.8959,114.0173
114.9324,114.0582
114.9599,114.1047
114.9784,114.1565
114.9872,114.2053
114.9895,114.2490
114.9853,114.3028
114.9730,114.3535
114.9524,114.4010
114.9235,114.4454
114.8911,114.4824
114.8525,114.5179
114.8109,114.5511
114.7814,114.5727
114.7032,114.6281
114.6618,114.6580
114.6214,114.6884
114.6023,114.7038
114.5679,114.7412
114.5569,114.7581
114.9917,114.7581
114.9917,114.9300
114.3095,114.9300
114.3134,114.8780
114.3223,114.8283
114.3363,114.7809
114.3554,114.7358
114.3792,114.6921
114.4140,114.6472
114.4524,114.6079
114.4905,114.5745
114.5342,114.5405
114.5532,114.5268
114.5933,114.4980
114.6351,114.4671
114.6754,114.4358
114.7138,114.4033
114.7286,114.3890
114.7608,114.3474
114.7825,114.2988
114.7897,114.2473
114.7830,114.1965
114.7610,114.1510
Z" /> 
<path style="fill:#000000; fill-opacity:1.0000; stroke:none;fill-rule:evenodd;"
d="M 115.0764,114.4454
115.4709,114.4454
115.4709,114.6330
115.0764,114.6330
Z" /> 
</g></g>
<g style="fill:none; 
stroke:#000000; stroke-width:0.2000; stroke-opacity:1; 
stroke-linecap:round; stroke-linejoin:round;">
<text x="137.1000" y="115.1000"
textLength="2.4102" font-size="1.3333" lengthAdjust="spacingAndGlyphs"
text-anchor="start" opacity="0">M4-</text>
<g class="stroked-text"><desc>M4-</desc>
<path style="fill:#000000; fill-opacity:1.0000; stroke:none;fill-rule:evenodd;"
d="M 137.4009,114.9300
137.2038,114.9300
137.2038,113.9139
137.5115,113.9139
137.6955,114.7129
137.8782,113.9139
138.1827,113.9139
138.1827,114.9300
137.9854,114.9300
137.9854,114.2427
137.9857,114.1937
137.9861,114.1599
137.9867,114.1100
137.9868,114.0773
137.7951,114.9300
137.5897,114.9300
137.3994,114.0773
137.3998,114.1289
137.4002,114.1599
137.4007,114.2098
137.4009,114.2427
Z" /> 
<path style="fill:#000000; fill-opacity:1.0000; stroke:none;fill-rule:evenodd;"
d="M 138.8886,114.5548
139.0012,114.5548
139.0012,114.7112
138.8886,114.7112
138.8886,114.9300
138.6969,114.9300
138.6969,114.7112
138.3027,114.7112
138.3027,114.5548
138.4475,114.5548
138.6969,114.5548
138.6969,114.1250
138.4475,114.5548
138.3027,114.5548
138.3027,114.5370
138.6688,113.9325
138.8886,113.9325
Z" /> 
<path style="fill:#000000; fill-opacity:1.0000; stroke:none;fill-rule:evenodd;"
d="M 139.0764,114.4454
139.4709,114.4454
139.4709,114.6330
139.0764,114.6330
Z" /> 
</g></g>
<g style="fill:none; 
stroke:#000000; stroke-width:0.2000; stroke-opacity:1; 
stroke-linecap:round; stroke-linejoin:round;">
<text x="127.1000" y="115.1000"
textLength="2.4102" font-size="1.3333" lengthAdjust="spacingAndGlyphs"
text-anchor="start" opacity="0">M3-</text>
<g class="stroked-text"><desc>M3-</desc>
<path style="fill:#000000; fill-opacity:1.0000; stroke:none;fill-rule:evenodd;"
d="M 127.4009,114.9300
127.2038,114.9300
127.2038,113.9139
127.5115,113.9139
127.6955,114.7129
127.8782,113.9139
128.1827,113.9139
128.1827,114.9300
127.9854,114.9300
127.9854,114.2427
127.9857,114.1937
127.9861,114.1599
127.9867,114.1100
127.9868,114.0773
127.7951,114.9300
127.5897,114.9300
127.3994,114.0773
127.3998,114.1289
127.4002,114.1599
127.4007,114.2098
127.4009,114.2427
Z" /> 
<path style="fill:#000000; fill-opacity:1.0000; stroke:none;fill-rule:evenodd;"
d="M 128.5349,114.1299
128.5126,114.1740
128.5036,114.2251
128.5032,114.2473
128.3205,114.2473
128.3247,114.1972
128.3336,114.1488
128.3459,114.1064
128.3700,114.0611
128.4002,114.0220
128.4214,114.0004
128.4635,113.9701
128.5094,113.9490
128.5127,113.9479
128.5637,113.9354
128.6146,113.9302
128.6426,113.9296
128.6943,113.9322
128.7496,113.9418
128.7996,113.9584
128.8443,113.9821
128.8730,114.0033
128.9113,114.0433
128.9387,114.0895
128.9552,114.1421
128.9606,114.1932
128.9606,114.2009
128.9555,114.2532
128.9402,114.3001
128.9116,114.3454
128.9084,114.3492
128.8704,114.3839
128.8397,114.4005
128.8850,114.4206
128.9167,114.4471
128.9495,114.4855
128.9729,114.5303
128.9870,114.5815
128.9916,114.6316
128.9917,114.6391
128.9875,114.6936
128.9749,114.7452
128.9539,114.7938
128.9245,114.8395
128.9040,114.8643
128.8617,114.9021
128.8190,114.9271
128.7704,114.9453
128.7159,114.9566
128.6660,114.9609
128.6448,114.9613
128.5939,114.9591
128.5360,114.9506
128.4843,114.9354
128.4390,114.9136
128.3930,114.8787
128.3560,114.8343
128.3508,114.8260
128.3295,114.7811
128.3143,114.7291
128.3058,114.6767
128.3027,114.6337
128.4949,114.6337
128.4991,114.6853
128.5142,114.7327
128.5456,114.7738
128.5909,114.7979
128.6441,114.8049
128.6949,114.7960
128.7393,114.7691
128.7447,114.7642
128.7741,114.7216
128.7867,114.6699
128.7877,114.6469
128.7814,114.5952
128.7596,114.5502
128.7221,114.5184
128.7079,114.5114
128.6583,114.4983
128.6052,114.4932
128.5650,114.4923
128.5650,114.3516
128.6141,114.3496
128.6655,114.3430
128.6983,114.3331
128.7381,114.3029
128.7595,114.2559
128.7635,114.2153
128.7562,114.1663
128.7301,114.1220
128.6871,114.0938
128.6365,114.0859
128.5863,114.0932
128.5436,114.1196
Z" /> 
<path style="fill:#000000; fill-opacity:1.0000; stroke:none;fill-rule:evenodd;"
d="M 129.0764,114.4454
129.4709,114.4454
129.4709,114.6330
129.0764,114.6330
Z" /> 
</g></g>
<g style="fill:none; 
stroke:#000000; stroke-width:0.2000; stroke-opacity:1; 
stroke-linecap:round; stroke-linejoin:round;">
<text x="142.1000" y="115.1000"
textLength="2.7609" font-size="1.3333" lengthAdjust="spacingAndGlyphs"
text-anchor="start" opacity="0">M4+</text>
<g class="stroked-text"><desc>M4+</desc>
<path style="fill:#000000; fill-opacity:1.0000; stroke:none;fill-rule:evenodd;"
d="M 142.4009,114.9300
142.2038,114.9300
142.2038,113.9139
142.5115,113.9139
142.6955,114.7129
142.8782,113.9139
143.1827,113.9139
143.1827,114.9300
142.9854,114.9300
142.9854,114.2427
142.9857,114.1937
142.9861,114.1599
142.9867,114.1100
142.9868,114.0773
142.7951,114.9300
142.5897,114.9300
142.3994,114.0773
142.3998,114.1289
142.4002,114.1599
142.4007,114.2098
142.4009,114.2427
Z" /> 
<path style="fill:#000000; fill-opacity:1.0000; stroke:none;fill-rule:evenodd;"
d="M 143.8886,114.5548
144.0012,114.5548
144.0012,114.7112
143.8886,114.7112
143.8886,114.9300
143.6969,114.9300
143.6969,114.7112
143.3027,114.7112
143.3027,114.5548
143.4475,114.5548
143.6969,114.5548
143.6969,114.1250
143.4475,114.5548
143.3027,114.5548
143.3027,114.5370
143.6688,113.9325
143.8886,113.9325
Z" /> 
<path style="fill:#000000; fill-opacity:1.0000; stroke:none;fill-rule:evenodd;"
d="M 144.5566,114.6486
144.5566,114.9300
144.3759,114.9300
144.3759,114.6486
144.0942,114.6486
144.0942,114.4767
144.3759,114.4767
144.3759,114.1951
144.5566,114.1951
144.5566,114.4767
144.8382,114.4767
144.8382,114.6486
Z" /> 
</g></g>
<g style="fill:none; 
stroke:#000000; stroke-width:0.2000; stroke-opacity:1; 
stroke-linecap:round; stroke-linejoin:round;">
<text x="118.1000" y="115.1000"
textLength="2.7609" font-size="1.3333" lengthAdjust="spacingAndGlyphs"
text-anchor="start" opacity="0">M2+</text>
<g class="stroked-text"><desc>M2+</desc>
<path style="fill:#000000; fill-opacity:1.0000; stroke:none;fill-rule:evenodd;"
d="M 118.4009,114.9300
118.2038,114.9300
118.2038,113.9139
118.5115,113.9139
118.6955,114.7129
118.8782,113.9139
119.1827,113.9139
119.1827,114.9300
118.9854,114.9300
118.9854,114.2427
118.9857,114.1937
118.9861,114.1599
118.9867,114.1100
118.9868,114.0773
118.7951,114.9300
118.5897,114.9300
118.3994,114.0773
118.3998,114.1289
118.4002,114.1599
118.4007,114.2098
118.4009,114.2427
Z" /> 
<path style="fill:#000000; fill-opacity:1.0000; stroke:none;fill-rule:evenodd;"
d="M 119.7547,114.1430
119.7152,114.1132
119.6663,114.1019
119.6544,114.1015
119.6041,114.1080
119.5585,114.1330
119.5327,114.1682
119.5180,114.2179
119.5118,114.2701
119.5107,114.2903
119.3205,114.2903
119.3243,114.2371
119.3317,114.1884
119.3443,114.1384
119.3639,114.0894
119.3664,114.0844
119.3939,114.0398
119.4273,114.0028
119.4666,113.9733
119.5119,113.9514
119.5631,113.9370
119.6203,113.9302
119.6448,113.9296
119.7017,113.9327
119.7541,113.9419
119.8019,113.9573
119.8520,113.9831
119.8959,114.0173
119.9324,114.0582
119.9599,114.1047
119.9784,114.1565
119.9872,114.2053
119.9895,114.2490
119.9853,114.3028
119.9730,114.3535
119.9524,114.4010
119.9235,114.4454
119.8911,114.4824
119.8525,114.5179
119.8109,114.5511
119.7814,114.5727
119.7032,114.6281
119.6618,114.6580
119.6214,114.6884
119.6023,114.7038
119.5679,114.7412
119.5569,114.7581
119.9917,114.7581
119.9917,114.9300
119.3095,114.9300
119.3134,114.8780
119.3223,114.8283
119.3363,114.7809
119.3554,114.7358
119.3792,114.6921
119.4140,114.6472
119.4524,114.6079
119.4905,114.5745
119.5342,114.5405
119.5532,114.5268
119.5933,114.4980
119.6351,114.4671
119.6754,114.4358
119.7138,114.4033
119.7286,114.3890
119.7608,114.3474
119.7825,114.2988
119.7897,114.2473
119.7830,114.1965
119.7610,114.1510
Z" /> 
<path style="fill:#000000; fill-opacity:1.0000; stroke:none;fill-rule:evenodd;"
d="M 120.5566,114.6486
120.5566,114.9300
120.3759,114.9300
120.3759,114.6486
120.0942,114.6486
120.0942,114.4767
120.3759,114.4767
120.3759,114.1951
120.5566,114.1951
120.5566,114.4767
120.8382,114.4767
120.8382,114.6486
Z" /> 
</g></g>
<g style="fill:none; 
stroke:#000000; stroke-width:0.2000; stroke-opacity:1; 
stroke-linecap:round; stroke-linejoin:round;">
<text x="108.1000" y="115.1000"
textLength="2.7609" font-size="1.3333" lengthAdjust="spacingAndGlyphs"
text-anchor="start" opacity="0">M1+</text>
<g class="stroked-text"><desc>M1+</desc>
<path style="fill:#000000; fill-opacity:1.0000; stroke:none;fill-rule:evenodd;"
d="M 108.4009,114.9300
108.2038,114.9300
108.2038,113.9139
108.5115,113.9139
108.6955,114.7129
108.8782,113.9139
109.1827,113.9139
109.1827,114.9300
108.9854,114.9300
108.9854,114.2427
108.9857,114.1937
108.9861,114.1599
108.9867,114.1100
108.9868,114.0773
108.7951,114.9300
108.5897,114.9300
108.3994,114.0773
108.3998,114.1289
108.4002,114.1599
108.4007,114.2098
108.4009,114.2427
Z" /> 
<path style="fill:#000000; fill-opacity:1.0000; stroke:none;fill-rule:evenodd;"
d="M 109.7980,114.9300
109.5972,114.9300
109.5972,114.2422
109.3630,114.2422
109.3630,114.1015
109.4155,114.0985
109.4643,114.0939
109.4929,114.0891
109.5404,114.0727
109.5820,114.0439
109.5891,114.0368
109.6170,113.9941
109.6275,113.9655
109.6351,113.9257
109.7980,113.9257
Z" /> 
<path style="fill:#000000; fill-opacity:1.0000; stroke:none;fill-rule:evenodd;"
d="M 110.5566,114.6486
110.5566,114.9300
110.3759,114.9300
110.3759,114.6486
110.0942,114.6486
110.0942,114.4767
110.3759,114.4767
110.3759,114.1951
110.5566,114.1951
110.5566,114.4767
110.8382,114.4767
110.8382,114.6486
Z" /> 
</g></g>
<g style="fill:none; 
stroke:#000000; stroke-width:0.2000; stroke-opacity:1; 
stroke-linecap:round; stroke-linejoin:round;">
<text x="103.1000" y="115.1000"
textLength="2.4102" font-size="1.3333" lengthAdjust="spacingAndGlyphs"
text-anchor="start" opacity="0">M1-</text>
<g class="stroked-text"><desc>M1-</desc>
<path style="fill:#000000; fill-opacity:1.0000; stroke:none;fill-rule:evenodd;"
d="M 103.4009,114.9300
103.2038,114.9300
103.2038,113.9139
103.5115,113.9139
103.6955,114.7129
103.8782,113.9139
104.1827,113.9139
104.1827,114.9300
103.9854,114.9300
103.9854,114.2427
103.9857,114.1937
103.9861,114.1599
103.9867,114.1100
103.9868,114.0773
103.7951,114.9300
103.5897,114.9300
103.3994,114.0773
103.3998,114.1289
103.4002,114.1599
103.4007,114.2098
103.4009,114.2427
Z" /> 
<path style="fill:#000000; fill-opacity:1.0000; stroke:none;fill-rule:evenodd;"
d="M 104.7980,114.9300
104.5972,114.9300
104.5972,114.2422
104.3630,114.2422
104.3630,114.1015
104.4155,114.0985
104.4643,114.0939
104.4929,114.0891
104.5404,114.0727
104.5820,114.0439
104.5891,114.0368
104.6170,113.9941
104.6275,113.9655
104.6351,113.9257
104.7980,113.9257
Z" /> 
<path style="fill:#000000; fill-opacity:1.0000; stroke:none;fill-rule:evenodd;"
d="M 105.0764,114.4454
105.4709,114.4454
105.4709,114.6330
105.0764,114.6330
Z" /> 
</g></g>
<g style="fill:none; 
stroke:#000000; stroke-width:0.1200; stroke-opacity:1; 
stroke-linecap:round; stroke-linejoin:round;">
<circle cx="105.9000" cy="60.6000" r="1.2000" /> 
<circle cx="110.3000" cy="60.6000" r="1.2000" /> 
<circle cx="130.9000" cy="63.0000" r="1.2000" /> 
<circle cx="114.7000" cy="60.6000" r="1.2000" /> 
<circle cx="136.2000" cy="63.0000" r="1.2000" /> 
<path d="M126.8100 55.0850
L125.7600 55.0850
" />
<path d="M126.8100 52.5850
L126.8100 55.0850
" />
<path d="M125.7600 55.0850
L125.7600 56.0750
" />
<path d="M125.6400 50.6150
L121.7600 50.6150
" />
<path d="M120.5900 55.0850
L121.6400 55.0850
" />
<path d="M120.5900 52.5850
L120.5900 55.0850
" />
<path d="M131.3397 89.1150
L131.3397 91.9750
" />
<path d="M133.2597 89.1150
L131.3397 89.1150
" />
<path d="M133.2597 91.9750
L133.2597 89.1150
" />
<path d="M130.4850 86.4271
L130.4850 85.9729
" />
<path d="M129.0150 86.4271
L129.0150 85.9729
" />
<path d="M138.0600 86.4271
L138.0600 85.9729
" />
<path d="M136.5900 86.4271
L136.5900 85.9729
" />
<path d="M108.1000 50.3000
L111.1000 50.3000
" />
<path d="M108.1000 53.3000
L108.1000 50.3000
" />
<path d="M108.6000 50.7500
L119.6500 50.7500
" />
<path d="M108.6000 56.6000
L108.6000 50.7500
" />
<path d="M108.6000 56.6000
L111.2500 56.6000
" />
<path d="M111.5000 56.6000
L112.1000 56.6000
" />
<path d="M112.3500 56.6000
L115.8500 56.6000
" />
<path d="M116.1000 56.6000
L116.7000 56.6000
" />
<path d="M117.0000 56.6000
L119.6500 56.6000
" />
<path d="M119.6500 56.6000
L119.6500 50.7500
" />
<path d="M106.0491 89.1150
L106.0491 91.9750
" />
<path d="M107.9691 89.1150
L106.0491 89.1150
" />
<path d="M107.9691 91.9750
L107.9691 89.1150
" />
<path d="M110.2850 86.4271
L110.2850 85.9729
" />
<path d="M108.8150 86.4271
L108.8150 85.9729
" />
<path d="M125.4350 86.4271
L125.4350 85.9729
" />
<path d="M123.9650 86.4271
L123.9650 85.9729
" />
<path d="M133.8687 89.1150
L133.8687 91.9750
" />
<path d="M135.7887 89.1150
L133.8687 89.1150
" />
<path d="M135.7887 91.9750
L135.7887 89.1150
" />
<path d="M111.1072 89.1150
L111.1072 91.9750
" />
<path d="M113.0272 89.1150
L111.1072 89.1150
" />
<path d="M113.0272 91.9750
L113.0272 89.1150
" />
</g>
<g style="fill:none; 
stroke:#000000; stroke-width:0.1500; stroke-opacity:1; 
stroke-linecap:round; stroke-linejoin:round;">
<path d="M107.4500 105.1450
L107.7500 105.1450
" />
<path d="M107.4500 110.8950
L107.4500 105.1450
" />
<path d="M107.4500 110.8950
L107.6750 110.8950
" />
<path d="M107.6750 110.8950
L107.6750 112.4950
" />
<path d="M116.1000 105.1450
L115.8000 105.1450
" />
<path d="M116.1000 110.8950
L115.8000 110.8950
" />
<path d="M116.1000 110.8950
L116.1000 105.1450
" />
</g>
<g style="fill:none; 
stroke:#000000; stroke-width:0.1200; stroke-opacity:1; 
stroke-linecap:round; stroke-linejoin:round;">
<path d="M112.8100 86.4271
L112.8100 85.9729
" />
<path d="M111.3400 86.4271
L111.3400 85.9729
" />
<path d="M109.1729 66.8350
L109.6271 66.8350
" />
<path d="M109.1729 65.3650
L109.6271 65.3650
" />
<path d="M140.3400 63.7550
L140.3400 59.2050
" />
<path d="M145.7600 64.7550
L145.7600 59.2050
" />
<path d="M126.5000 58.8400
L123.6400 58.8400
" />
<path d="M123.6400 58.8400
L123.6400 60.7600
" />
<path d="M123.6400 60.7600
L126.5000 60.7600
" />
<path d="M133.0100 86.4271
L133.0100 85.9729
" />
<path d="M131.5400 86.4271
L131.5400 85.9729
" />
<path d="M127.9600 86.4271
L127.9600 85.9729
" />
<path d="M126.4900 86.4271
L126.4900 85.9729
" />
<path d="M135.5350 86.4271
L135.5350 85.9729
" />
<path d="M134.0650 86.4271
L134.0650 85.9729
" />
<path d="M108.5781 89.1150
L108.5781 91.9750
" />
<path d="M110.4981 89.1150
L108.5781 89.1150
" />
<path d="M110.4981 91.9750
L110.4981 89.1150
" />
<path d="M106.6000 74.7000
L103.8000 74.7000
" />
<path d="M106.6000 72.7000
L106.6000 74.7000
" />
<path d="M103.8000 74.7000
L103.8000 72.7000
" />
<path d="M103.8000 72.7000
L106.6000 72.7000
" />
<path d="M106.6000 69.6200
L103.8000 69.6200
" />
<path d="M106.6000 67.6200
L106.6000 69.6200
" />
<path d="M103.8000 69.6200
L103.8000 67.6200
" />
<path d="M103.8000 67.6200
L106.6000 67.6200
" />
<path d="M120.3850 86.4271
L120.3850 85.9729
" />
<path d="M118.9150 86.4271
L118.9150 85.9729
" />
<path d="M121.2234 89.1150
L121.2234 91.9750
" />
<path d="M123.1434 89.1150
L121.2234 89.1150
" />
<path d="M123.1434 91.9750
L123.1434 89.1150
" />
<path d="M141.4559 89.1150
L141.4559 91.9750
" />
<path d="M143.3759 89.1150
L141.4559 89.1150
" />
<path d="M143.3759 91.9750
L143.3759 89.1150
" />
<path d="M107.7600 86.4271
L107.7600 85.9729
" />
<path d="M106.2900 86.4271
L106.2900 85.9729
" />
<path d="M117.8600 86.4271
L117.8600 85.9729
" />
<path d="M116.3900 86.4271
L116.3900 85.9729
" />
<path d="M123.7525 89.1150
L123.7525 91.9750
" />
<path d="M125.6725 89.1150
L123.7525 89.1150
" />
<path d="M125.6725 91.9750
L125.6725 89.1150
" />
<path d="M119.0000 60.7600
L121.8600 60.7600
" />
<path d="M121.8600 60.7600
L121.8600 58.8400
" />
<path d="M121.8600 58.8400
L119.0000 58.8400
" />
<path d="M138.9900 69.1544
L138.9900 74.9100
" />
<path d="M138.9900 74.9100
L141.3400 74.9100
" />
<path d="M140.0544 68.0900
L138.9900 69.1544
" />
<path d="M140.0544 68.0900
L141.3400 68.0900
" />
<path d="M144.2475 67.0625
L144.2475 67.8500
" />
<path d="M144.6412 67.4562
L143.8537 67.4562
" />
<path d="M144.7456 68.0900
L143.4600 68.0900
" />
<path d="M144.7456 68.0900
L145.8100 69.1544
" />
<path d="M145.8100 69.1544
L145.8100 74.9100
" />
<path d="M145.8100 74.9100
L143.4600 74.9100
" />
<path d="M115.3350 86.4271
L115.3350 85.9729
" />
<path d="M113.8650 86.4271
L113.8650 85.9729
" />
<path d="M106.6000 67.0800
L103.8000 67.0800
" />
<path d="M106.6000 65.0800
L106.6000 67.0800
" />
<path d="M103.8000 67.0800
L103.8000 65.0800
" />
<path d="M103.8000 65.0800
L106.6000 65.0800
" />
<path d="M135.1700 80.8300
L135.1700 79.5000
" />
<path d="M136.5000 80.8300
L135.1700 80.8300
" />
<path d="M137.7700 80.8300
L142.9100 80.8300
" />
<path d="M137.7700 80.8300
L137.7700 78.1700
" />
<path d="M142.9100 80.8300
L142.9100 78.1700
" />
<path d="M137.7700 78.1700
L142.9100 78.1700
" />
<path d="M113.6362 89.1150
L113.6362 91.9750
" />
<path d="M115.5562 89.1150
L113.6362 89.1150
" />
<path d="M115.5562 91.9750
L115.5562 89.1150
" />
<path d="M103.8000 62.5400
L106.6000 62.5400
" />
<path d="M103.8000 64.5400
L103.8000 62.5400
" />
<path d="M106.6000 62.5400
L106.6000 64.5400
" />
<path d="M106.6000 64.5400
L103.8000 64.5400
" />
<path d="M122.9100 86.4271
L122.9100 85.9729
" />
<path d="M121.4400 86.4271
L121.4400 85.9729
" />
<path d="M121.1900 70.7650
L121.1900 71.0400
" />
<path d="M121.1900 71.0400
L119.9000 71.0400
" />
<path d="M121.1900 80.6850
L121.1900 80.4100
" />
<path d="M123.5000 70.7650
L121.1900 70.7650
" />
<path d="M123.5000 70.7650
L125.8100 70.7650
" />
<path d="M123.5000 80.6850
L121.1900 80.6850
" />
<path d="M123.5000 80.6850
L125.8100 80.6850
" />
<path d="M125.8100 70.7650
L125.8100 71.0400
" />
<path d="M125.8100 80.6850
L125.8100 80.4100
" />
<path d="M116.1653 89.1150
L116.1653 91.9750
" />
<path d="M118.0853 89.1150
L116.1653 89.1150
" />
<path d="M118.0853 91.9750
L118.0853 89.1150
" />
<path d="M128.8106 89.1150
L128.8106 91.9750
" />
<path d="M130.7306 89.1150
L128.8106 89.1150
" />
<path d="M130.7306 91.9750
L130.7306 89.1150
" />
<path d="M109.1729 71.9150
L109.6271 71.9150
" />
<path d="M109.1729 70.4450
L109.6271 70.4450
" />
<path d="M103.0900 98.4900
L103.0900 97.1600
" />
<path d="M104.4200 98.4900
L103.0900 98.4900
" />
<path d="M105.6900 95.8300
L143.8500 95.8300
" />
<path d="M105.6900 98.4900
L105.6900 95.8300
" />
<path d="M105.6900 98.4900
L143.8500 98.4900
" />
<path d="M143.8500 98.4900
L143.8500 95.8300
" />
<path d="M109.1729 64.2950
L109.6271 64.2950
" />
<path d="M109.1729 62.8250
L109.6271 62.8250
" />
<path d="M106.6000 72.1600
L103.8000 72.1600
" />
<path d="M106.6000 70.1600
L106.6000 72.1600
" />
<path d="M103.8000 72.1600
L103.8000 70.1600
" />
<path d="M103.8000 70.1600
L106.6000 70.1600
" />
<path d="M116.1896 66.7625
L115.7354 66.7625
" />
<path d="M116.1896 65.2925
L115.7354 65.2925
" />
<path d="M128.3400 59.5600
L128.3400 50.4400
" />
<path d="M129.2460 56.8880
L129.6410 56.4920
" />
<path d="M129.5120 57.1540
L129.8920 56.7740
" />
<path d="M131.9070 54.2260
L132.2870 53.8460
" />
<path d="M132.1580 54.5080
L132.5530 54.1120
" />
<path d="M134.2460 56.8880
L134.3530 56.7810
" />
<path d="M134.5120 57.1540
L134.6190 57.0470
" />
<path d="M137.1820 53.9530
L137.2880 53.8460
" />
<path d="M137.4480 54.2190
L137.5540 54.1120
" />
<path d="M138.4600 50.4400
L128.3400 50.4400
" />
<path d="M138.4600 50.9000
L128.3400 50.9000
" />
<path d="M138.4600 52.0000
L128.3400 52.0000
" />
<path d="M138.4600 59.5600
L128.3400 59.5600
" />
<path d="M138.4600 59.5600
L138.4600 50.4400
" />
<path d="M138.7000 50.2000
L138.3000 50.2000
" />
<path d="M138.7000 50.8400
L138.7000 50.2000
" />
<circle cx="130.9000" cy="55.5000" r="2.1800" /> 
<circle cx="135.9000" cy="55.5000" r="2.1800" /> 
<path d="M136.3978 89.1150
L136.3978 91.9750
" />
<path d="M138.3178 89.1150
L136.3978 89.1150
" />
<path d="M138.3178 91.9750
L138.3178 89.1150
" />
<path d="M116.1238 71.9375
L115.6012 71.9375
" />
<path d="M116.1238 70.4675
L115.6012 70.4675
" />
<path d="M116.1896 62.7500
L115.7354 62.7500
" />
<path d="M116.1896 64.2200
L115.7354 64.2200
" />
<path d="M120.2271 61.2650
L119.7729 61.2650
" />
<path d="M120.2271 62.7350
L119.7729 62.7350
" />
<path d="M125.2729 62.8350
L125.7271 62.8350
" />
<path d="M125.2729 61.3650
L125.7271 61.3650
" />
<path d="M140.5850 86.4271
L140.5850 85.9729
" />
<path d="M139.1150 86.4271
L139.1150 85.9729
" />
<path d="M109.1729 69.3750
L109.6271 69.3750
" />
<path d="M109.1729 67.9050
L109.6271 67.9050
" />
</g>
<g style="fill:none; 
stroke:#000000; stroke-width:0.1500; stroke-opacity:1; 
stroke-linecap:round; stroke-linejoin:round;">
<path d="M131.1750 105.1450
L131.4750 105.1450
" />
<path d="M131.1750 110.8950
L131.1750 105.1450
" />
<path d="M131.1750 110.8950
L131.4000 110.8950
" />
<path d="M131.4000 110.8950
L131.4000 112.4950
" />
<path d="M139.8250 105.1450
L139.5250 105.1450
" />
<path d="M139.8250 110.8950
L139.5250 110.8950
" />
<path d="M139.8250 110.8950
L139.8250 105.1450
" />
</g>
<g style="fill:none; 
stroke:#000000; stroke-width:0.1200; stroke-opacity:1; 
stroke-linecap:round; stroke-linejoin:round;">
<path d="M105.2350 86.4271
L105.2350 85.9729
" />
<path d="M103.7650 86.4271
L103.7650 85.9729
" />
<path d="M105.4400 91.9750
L105.4400 89.1150
" />
<path d="M105.4400 89.1150
L103.5200 89.1150
" />
<path d="M103.5200 89.1150
L103.5200 91.9750
" />
<path d="M125.3000 124.4600
L125.3000 125.1000
" />
<path d="M125.3000 125.1000
L125.7000 125.1000
" />
<path d="M125.5400 115.7400
L125.5400 124.8600
" />
<path d="M125.5400 115.7400
L145.6610 115.7400
" />
<path d="M125.5400 123.3000
L145.6610 123.3000
" />
<path d="M125.5400 124.4000
L145.6610 124.4000
" />
<path d="M125.5400 124.8600
L145.6610 124.8600
" />
<path d="M126.5520 121.0810
L126.4460 121.1880
" />
<path d="M126.8180 121.3470
L126.7120 121.4540
" />
<path d="M129.4880 118.1460
L129.3810 118.2530
" />
<path d="M129.7540 118.4120
L129.6470 118.5190
" />
<path d="M131.8420 120.7920
L131.4470 121.1880
" />
<path d="M132.0930 121.0740
L131.7130 121.4540
" />
<path d="M134.4880 118.1460
L134.1080 118.5260
" />
<path d="M134.7540 118.4120
L134.3590 118.8080
" />
<path d="M136.8420 120.7920
L136.4470 121.1880
" />
<path d="M137.0930 121.0740
L136.7130 121.4540
" />
<path d="M139.4880 118.1460
L139.1080 118.5260
" />
<path d="M139.7540 118.4120
L139.3590 118.8080
" />
<path d="M141.8420 120.7920
L141.4470 121.1880
" />
<path d="M142.0930 121.0740
L141.7130 121.4540
" />
<path d="M144.4880 118.1460
L144.1080 118.5260
" />
<path d="M144.7540 118.4120
L144.3590 118.8080
" />
<path d="M145.6610 115.7400
L145.6610 124.8600
" />
<circle cx="128.1000" cy="119.8000" r="2.1800" /> 
<circle cx="133.1000" cy="119.8000" r="2.1800" /> 
<circle cx="138.1000" cy="119.8000" r="2.1800" /> 
<circle cx="143.1000" cy="119.8000" r="2.1800" /> 
<path d="M138.9269 89.1150
L138.9269 91.9750
" />
<path d="M140.8469 89.1150
L138.9269 89.1150
" />
<path d="M140.8469 91.9750
L140.8469 89.1150
" />
<path d="M101.3000 124.4600
L101.3000 125.1000
" />
<path d="M101.3000 125.1000
L101.7000 125.1000
" />
<path d="M101.5400 115.7400
L101.5400 124.8600
" />
<path d="M101.5400 115.7400
L121.6610 115.7400
" />
<path d="M101.5400 123.3000
L121.6610 123.3000
" />
<path d="M101.5400 124.4000
L121.6610 124.4000
" />
<path d="M101.5400 124.8600
L121.6610 124.8600
" />
<path d="M102.5520 121.0810
L102.4460 121.1880
" />
<path d="M102.8180 121.3470
L102.7120 121.4540
" />
<path d="M105.4880 118.1460
L105.3810 118.2530
" />
<path d="M105.7540 118.4120
L105.6470 118.5190
" />
<path d="M107.8420 120.7920
L107.4470 121.1880
" />
<path d="M108.0930 121.0740
L107.7130 121.4540
" />
<path d="M110.4880 118.1460
L110.1080 118.5260
" />
<path d="M110.7540 118.4120
L110.3590 118.8080
" />
<path d="M112.8420 120.7920
L112.4470 121.1880
" />
<path d="M113.0930 121.0740
L112.7130 121.4540
" />
<path d="M115.4880 118.1460
L115.1080 118.5260
" />
<path d="M115.7540 118.4120
L115.3590 118.8080
" />
<path d="M117.8420 120.7920
L117.4470 121.1880
" />
<path d="M118.0930 121.0740
L117.7130 121.4540
" />
<path d="M120.4880 118.1460
L120.1080 118.5260
" />
<path d="M120.7540 118.4120
L120.3590 118.8080
" />
<path d="M121.6610 115.7400
L121.6610 124.8600
" />
<circle cx="104.1000" cy="119.8000" r="2.1800" /> 
<circle cx="109.1000" cy="119.8000" r="2.1800" /> 
<circle cx="114.1000" cy="119.8000" r="2.1800" /> 
<circle cx="119.1000" cy="119.8000" r="2.1800" /> 
<path d="M103.8950 80.8300
L103.8950 79.5000
" />
<path d="M105.2250 80.8300
L103.8950 80.8300
" />
<path d="M106.4950 80.8300
L111.6350 80.8300
" />
<path d="M106.4950 80.8300
L106.4950 78.1700
" />
<path d="M111.6350 80.8300
L111.6350 78.1700
" />
<path d="M106.4950 78.1700
L111.6350 78.1700
" />
<path d="M118.6944 89.1150
L118.6944 91.9750
" />
<path d="M120.6144 89.1150
L118.6944 89.1150
" />
<path d="M120.6144 91.9750
L120.6144 89.1150
" />
<path d="M130.0900 69.2544
L130.0900 75.0100
" />
<path d="M130.0900 75.0100
L132.4400 75.0100
" />
<path d="M131.1544 68.1900
L130.0900 69.2544
" />
<path d="M131.1544 68.1900
L132.4400 68.1900
" />
<path d="M135.3475 67.1625
L135.3475 67.9500
" />
<path d="M135.7413 67.5562
L134.9537 67.5562
" />
<path d="M135.8456 68.1900
L134.5600 68.1900
" />
<path d="M135.8456 68.1900
L136.9100 69.2544
" />
<path d="M136.9100 69.2544
L136.9100 75.0100
" />
<path d="M136.9100 75.0100
L134.5600 75.0100
" />
<path d="M143.8500 101.0300
L143.8500 98.3700
" />
<path d="M105.6900 101.0300
L143.8500 101.0300
" />
<path d="M105.6900 101.0300
L105.6900 98.3700
" />
<path d="M105.6900 98.3700
L143.8500 98.3700
" />
<path d="M104.4200 101.0300
L103.0900 101.0300
" />
<path d="M103.0900 101.0300
L103.0900 99.7000
" />
<path d="M116.1238 74.5400
L115.6012 74.5400
" />
<path d="M116.1238 73.0700
L115.6012 73.0700
" />
<path d="M116.1238 69.3350
L115.6012 69.3350
" />
<path d="M116.1238 67.8650
L115.6012 67.8650
" />
<path d="M103.0900 95.9500
L103.0900 94.6200
" />
<path d="M104.4200 95.9500
L103.0900 95.9500
" />
<path d="M105.6900 93.2900
L143.8500 93.2900
" />
<path d="M105.6900 95.9500
L105.6900 93.2900
" />
<path d="M105.6900 95.9500
L143.8500 95.9500
" />
<path d="M143.8500 95.9500
L143.8500 93.2900
" />
<path d="M126.2816 89.1150
L126.2816 91.9750
" />
<path d="M128.2016 89.1150
L126.2816 89.1150
" />
<path d="M128.2016 91.9750
L128.2016 89.1150
" />
<path d="M143.1100 86.4271
L143.1100 85.9729
" />
<path d="M141.6400 86.4271
L141.6400 85.9729
" />
<path d="M109.1729 74.4550
L109.6271 74.4550
" />
<path d="M109.1729 72.9850
L109.6271 72.9850
" />
</g> 
</svg>
