<?xml version="1.0" standalone="no"?>
 <!DOCTYPE svg PUBLIC "-//W3C//DTD SVG 1.1//EN" 
 "http://www.w3.org/Graphics/SVG/1.1/DTD/svg11.dtd"> 
<svg
  xmlns:svg="http://www.w3.org/2000/svg"
  xmlns="http://www.w3.org/2000/svg"
  xmlns:xlink="http://www.w3.org/1999/xlink"
  version="1.1"
  width="297.0022mm" height="210.0072mm" viewBox="0.0000 0.0000 297.0022 210.0072">
<title>SVG Image created as ultimate_motor_board-User_Comments.svg date 2024/04/11 11:13:31 </title>
  <desc>Image generated by PCBNEW </desc>
<g style="fill:#000000; fill-opacity:1.0000;stroke:#000000; stroke-opacity:1.0000;
stroke-linecap:round; stroke-linejoin:round;"
 transform="translate(0 0) scale(1 1)">
</g>
<g style="fill:none; 
stroke:#000084; stroke-width:0.1500; stroke-opacity:1; 
stroke-linecap:round; stroke-linejoin:round;">
<g transform="rotate(-90.000000 161.4500 81.0000)">
<text x="161.4500" y="81.5000"
textLength="9.8690" font-size="1.3333" lengthAdjust="spacingAndGlyphs"
text-anchor="middle" opacity="0">55.0000 mm</text>
</g>
<g class="stroked-text"><desc>55.0000 mm</desc>
<path d="M160.9048 85.0952
L160.9048 85.5714
" />
<path d="M160.9048 85.5714
L161.3810 85.6190
" />
<path d="M161.3810 85.6190
L161.3334 85.5714
" />
<path d="M161.3334 85.5714
L161.2858 85.4762
" />
<path d="M161.2858 85.4762
L161.2858 85.2381
" />
<path d="M161.2858 85.2381
L161.3334 85.1429
" />
<path d="M161.3334 85.1429
L161.3810 85.0952
" />
<path d="M161.3810 85.0952
L161.4762 85.0476
" />
<path d="M161.4762 85.0476
L161.7143 85.0476
" />
<path d="M161.7143 85.0476
L161.8096 85.0952
" />
<path d="M161.8096 85.0952
L161.8572 85.1429
" />
<path d="M161.8572 85.1429
L161.9048 85.2381
" />
<path d="M161.9048 85.2381
L161.9048 85.4762
" />
<path d="M161.9048 85.4762
L161.8572 85.5714
" />
<path d="M161.8572 85.5714
L161.8096 85.6190
" />
<path d="M160.9048 84.1429
L160.9048 84.6190
" />
<path d="M160.9048 84.6190
L161.3810 84.6667
" />
<path d="M161.3810 84.6667
L161.3334 84.6190
" />
<path d="M161.3334 84.6190
L161.2858 84.5238
" />
<path d="M161.2858 84.5238
L161.2858 84.2857
" />
<path d="M161.2858 84.2857
L161.3334 84.1905
" />
<path d="M161.3334 84.1905
L161.3810 84.1429
" />
<path d="M161.3810 84.1429
L161.4762 84.0952
" />
<path d="M161.4762 84.0952
L161.7143 84.0952
" />
<path d="M161.7143 84.0952
L161.8096 84.1429
" />
<path d="M161.8096 84.1429
L161.8572 84.1905
" />
<path d="M161.8572 84.1905
L161.9048 84.2857
" />
<path d="M161.9048 84.2857
L161.9048 84.5238
" />
<path d="M161.9048 84.5238
L161.8572 84.6190
" />
<path d="M161.8572 84.6190
L161.8096 84.6667
" />
<path d="M161.8096 83.6667
L161.8572 83.6190
" />
<path d="M161.8572 83.6190
L161.9048 83.6667
" />
<path d="M161.9048 83.6667
L161.8572 83.7143
" />
<path d="M161.8572 83.7143
L161.8096 83.6667
" />
<path d="M161.8096 83.6667
L161.9048 83.6667
" />
<path d="M160.9048 83.0000
L160.9048 82.9048
" />
<path d="M160.9048 82.9048
L160.9524 82.8095
" />
<path d="M160.9524 82.8095
L161.0001 82.7619
" />
<path d="M161.0001 82.7619
L161.0953 82.7143
" />
<path d="M161.0953 82.7143
L161.2858 82.6667
" />
<path d="M161.2858 82.6667
L161.5239 82.6667
" />
<path d="M161.5239 82.6667
L161.7143 82.7143
" />
<path d="M161.7143 82.7143
L161.8096 82.7619
" />
<path d="M161.8096 82.7619
L161.8572 82.8095
" />
<path d="M161.8572 82.8095
L161.9048 82.9048
" />
<path d="M161.9048 82.9048
L161.9048 83.0000
" />
<path d="M161.9048 83.0000
L161.8572 83.0952
" />
<path d="M161.8572 83.0952
L161.8096 83.1429
" />
<path d="M161.8096 83.1429
L161.7143 83.1905
" />
<path d="M161.7143 83.1905
L161.5239 83.2381
" />
<path d="M161.5239 83.2381
L161.2858 83.2381
" />
<path d="M161.2858 83.2381
L161.0953 83.1905
" />
<path d="M161.0953 83.1905
L161.0001 83.1429
" />
<path d="M161.0001 83.1429
L160.9524 83.0952
" />
<path d="M160.9524 83.0952
L160.9048 83.0000
" />
<path d="M160.9048 82.0476
L160.9048 81.9524
" />
<path d="M160.9048 81.9524
L160.9524 81.8571
" />
<path d="M160.9524 81.8571
L161.0001 81.8095
" />
<path d="M161.0001 81.8095
L161.0953 81.7619
" />
<path d="M161.0953 81.7619
L161.2858 81.7143
" />
<path d="M161.2858 81.7143
L161.5239 81.7143
" />
<path d="M161.5239 81.7143
L161.7143 81.7619
" />
<path d="M161.7143 81.7619
L161.8096 81.8095
" />
<path d="M161.8096 81.8095
L161.8572 81.8571
" />
<path d="M161.8572 81.8571
L161.9048 81.9524
" />
<path d="M161.9048 81.9524
L161.9048 82.0476
" />
<path d="M161.9048 82.0476
L161.8572 82.1429
" />
<path d="M161.8572 82.1429
L161.8096 82.1905
" />
<path d="M161.8096 82.1905
L161.7143 82.2381
" />
<path d="M161.7143 82.2381
L161.5239 82.2857
" />
<path d="M161.5239 82.2857
L161.2858 82.2857
" />
<path d="M161.2858 82.2857
L161.0953 82.2381
" />
<path d="M161.0953 82.2381
L161.0001 82.1905
" />
<path d="M161.0001 82.1905
L160.9524 82.1429
" />
<path d="M160.9524 82.1429
L160.9048 82.0476
" />
<path d="M160.9048 81.0952
L160.9048 81.0000
" />
<path d="M160.9048 81.0000
L160.9524 80.9048
" />
<path d="M160.9524 80.9048
L161.0001 80.8571
" />
<path d="M161.0001 80.8571
L161.0953 80.8095
" />
<path d="M161.0953 80.8095
L161.2858 80.7619
" />
<path d="M161.2858 80.7619
L161.5239 80.7619
" />
<path d="M161.5239 80.7619
L161.7143 80.8095
" />
<path d="M161.7143 80.8095
L161.8096 80.8571
" />
<path d="M161.8096 80.8571
L161.8572 80.9048
" />
<path d="M161.8572 80.9048
L161.9048 81.0000
" />
<path d="M161.9048 81.0000
L161.9048 81.0952
" />
<path d="M161.9048 81.0952
L161.8572 81.1905
" />
<path d="M161.8572 81.1905
L161.8096 81.2381
" />
<path d="M161.8096 81.2381
L161.7143 81.2857
" />
<path d="M161.7143 81.2857
L161.5239 81.3333
" />
<path d="M161.5239 81.3333
L161.2858 81.3333
" />
<path d="M161.2858 81.3333
L161.0953 81.2857
" />
<path d="M161.0953 81.2857
L161.0001 81.2381
" />
<path d="M161.0001 81.2381
L160.9524 81.1905
" />
<path d="M160.9524 81.1905
L160.9048 81.0952
" />
<path d="M160.9048 80.1429
L160.9048 80.0476
" />
<path d="M160.9048 80.0476
L160.9524 79.9524
" />
<path d="M160.9524 79.9524
L161.0001 79.9048
" />
<path d="M161.0001 79.9048
L161.0953 79.8571
" />
<path d="M161.0953 79.8571
L161.2858 79.8095
" />
<path d="M161.2858 79.8095
L161.5239 79.8095
" />
<path d="M161.5239 79.8095
L161.7143 79.8571
" />
<path d="M161.7143 79.8571
L161.8096 79.9048
" />
<path d="M161.8096 79.9048
L161.8572 79.9524
" />
<path d="M161.8572 79.9524
L161.9048 80.0476
" />
<path d="M161.9048 80.0476
L161.9048 80.1429
" />
<path d="M161.9048 80.1429
L161.8572 80.2381
" />
<path d="M161.8572 80.2381
L161.8096 80.2857
" />
<path d="M161.8096 80.2857
L161.7143 80.3333
" />
<path d="M161.7143 80.3333
L161.5239 80.3810
" />
<path d="M161.5239 80.3810
L161.2858 80.3810
" />
<path d="M161.2858 80.3810
L161.0953 80.3333
" />
<path d="M161.0953 80.3333
L161.0001 80.2857
" />
<path d="M161.0001 80.2857
L160.9524 80.2381
" />
<path d="M160.9524 80.2381
L160.9048 80.1429
" />
<path d="M161.9048 78.6190
L161.2382 78.6190
" />
<path d="M161.3334 78.6190
L161.2858 78.5714
" />
<path d="M161.2858 78.5714
L161.2382 78.4762
" />
<path d="M161.2382 78.4762
L161.2382 78.3333
" />
<path d="M161.2382 78.3333
L161.2858 78.2381
" />
<path d="M161.2858 78.2381
L161.3810 78.1905
" />
<path d="M161.3810 78.1905
L161.9048 78.1905
" />
<path d="M161.3810 78.1905
L161.2858 78.1429
" />
<path d="M161.2858 78.1429
L161.2382 78.0476
" />
<path d="M161.2382 78.0476
L161.2382 77.9048
" />
<path d="M161.2382 77.9048
L161.2858 77.8095
" />
<path d="M161.2858 77.8095
L161.3810 77.7619
" />
<path d="M161.3810 77.7619
L161.9048 77.7619
" />
<path d="M161.9048 77.2857
L161.2382 77.2857
" />
<path d="M161.3334 77.2857
L161.2858 77.2381
" />
<path d="M161.2858 77.2381
L161.2382 77.1429
" />
<path d="M161.2382 77.1429
L161.2382 77.0000
" />
<path d="M161.2382 77.0000
L161.2858 76.9048
" />
<path d="M161.2858 76.9048
L161.3810 76.8571
" />
<path d="M161.3810 76.8571
L161.9048 76.8571
" />
<path d="M161.3810 76.8571
L161.2858 76.8095
" />
<path d="M161.2858 76.8095
L161.2382 76.7143
" />
<path d="M161.2382 76.7143
L161.2382 76.5714
" />
<path d="M161.2382 76.5714
L161.2858 76.4762
" />
<path d="M161.2858 76.4762
L161.3810 76.4286
" />
<path d="M161.3810 76.4286
L161.9048 76.4286
" />
</g><path d="M144.0000 108.5000
L163.1864 108.5000
" />
<path d="M144.0000 53.5000
L163.1864 53.5000
" />
<path d="M162.6000 108.5000
L162.6000 53.5000
" />
<path d="M162.6000 108.5000
L162.6000 53.5000
" />
<path d="M162.6000 108.5000
L162.0136 107.3735
" />
<path d="M162.6000 108.5000
L163.1864 107.3735
" />
<path d="M162.6000 53.5000
L163.1864 54.6265
" />
<path d="M162.6000 53.5000
L162.0136 54.6265
" />
<text x="123.5000" y="31.8500"
textLength="9.8690" font-size="1.3333" lengthAdjust="spacingAndGlyphs"
text-anchor="middle" opacity="0">40.0000 mm</text>
<g class="stroked-text"><desc>40.0000 mm</desc>
<path d="M119.3571 31.1382
L119.3571 31.8048
" />
<path d="M119.1190 30.7572
L118.8810 31.4715
" />
<path d="M118.8810 31.4715
L119.5000 31.4715
" />
<path d="M120.0714 30.8048
L120.1667 30.8048
" />
<path d="M120.1667 30.8048
L120.2619 30.8524
" />
<path d="M120.2619 30.8524
L120.3095 30.9001
" />
<path d="M120.3095 30.9001
L120.3571 30.9953
" />
<path d="M120.3571 30.9953
L120.4048 31.1858
" />
<path d="M120.4048 31.1858
L120.4048 31.4239
" />
<path d="M120.4048 31.4239
L120.3571 31.6143
" />
<path d="M120.3571 31.6143
L120.3095 31.7096
" />
<path d="M120.3095 31.7096
L120.2619 31.7572
" />
<path d="M120.2619 31.7572
L120.1667 31.8048
" />
<path d="M120.1667 31.8048
L120.0714 31.8048
" />
<path d="M120.0714 31.8048
L119.9762 31.7572
" />
<path d="M119.9762 31.7572
L119.9286 31.7096
" />
<path d="M119.9286 31.7096
L119.8810 31.6143
" />
<path d="M119.8810 31.6143
L119.8333 31.4239
" />
<path d="M119.8333 31.4239
L119.8333 31.1858
" />
<path d="M119.8333 31.1858
L119.8810 30.9953
" />
<path d="M119.8810 30.9953
L119.9286 30.9001
" />
<path d="M119.9286 30.9001
L119.9762 30.8524
" />
<path d="M119.9762 30.8524
L120.0714 30.8048
" />
<path d="M120.8333 31.7096
L120.8810 31.7572
" />
<path d="M120.8810 31.7572
L120.8333 31.8048
" />
<path d="M120.8333 31.8048
L120.7857 31.7572
" />
<path d="M120.7857 31.7572
L120.8333 31.7096
" />
<path d="M120.8333 31.7096
L120.8333 31.8048
" />
<path d="M121.5000 30.8048
L121.5952 30.8048
" />
<path d="M121.5952 30.8048
L121.6905 30.8524
" />
<path d="M121.6905 30.8524
L121.7381 30.9001
" />
<path d="M121.7381 30.9001
L121.7857 30.9953
" />
<path d="M121.7857 30.9953
L121.8333 31.1858
" />
<path d="M121.8333 31.1858
L121.8333 31.4239
" />
<path d="M121.8333 31.4239
L121.7857 31.6143
" />
<path d="M121.7857 31.6143
L121.7381 31.7096
" />
<path d="M121.7381 31.7096
L121.6905 31.7572
" />
<path d="M121.6905 31.7572
L121.5952 31.8048
" />
<path d="M121.5952 31.8048
L121.5000 31.8048
" />
<path d="M121.5000 31.8048
L121.4048 31.7572
" />
<path d="M121.4048 31.7572
L121.3571 31.7096
" />
<path d="M121.3571 31.7096
L121.3095 31.6143
" />
<path d="M121.3095 31.6143
L121.2619 31.4239
" />
<path d="M121.2619 31.4239
L121.2619 31.1858
" />
<path d="M121.2619 31.1858
L121.3095 30.9953
" />
<path d="M121.3095 30.9953
L121.3571 30.9001
" />
<path d="M121.3571 30.9001
L121.4048 30.8524
" />
<path d="M121.4048 30.8524
L121.5000 30.8048
" />
<path d="M122.4524 30.8048
L122.5476 30.8048
" />
<path d="M122.5476 30.8048
L122.6429 30.8524
" />
<path d="M122.6429 30.8524
L122.6905 30.9001
" />
<path d="M122.6905 30.9001
L122.7381 30.9953
" />
<path d="M122.7381 30.9953
L122.7857 31.1858
" />
<path d="M122.7857 31.1858
L122.7857 31.4239
" />
<path d="M122.7857 31.4239
L122.7381 31.6143
" />
<path d="M122.7381 31.6143
L122.6905 31.7096
" />
<path d="M122.6905 31.7096
L122.6429 31.7572
" />
<path d="M122.6429 31.7572
L122.5476 31.8048
" />
<path d="M122.5476 31.8048
L122.4524 31.8048
" />
<path d="M122.4524 31.8048
L122.3571 31.7572
" />
<path d="M122.3571 31.7572
L122.3095 31.7096
" />
<path d="M122.3095 31.7096
L122.2619 31.6143
" />
<path d="M122.2619 31.6143
L122.2143 31.4239
" />
<path d="M122.2143 31.4239
L122.2143 31.1858
" />
<path d="M122.2143 31.1858
L122.2619 30.9953
" />
<path d="M122.2619 30.9953
L122.3095 30.9001
" />
<path d="M122.3095 30.9001
L122.3571 30.8524
" />
<path d="M122.3571 30.8524
L122.4524 30.8048
" />
<path d="M123.4048 30.8048
L123.5000 30.8048
" />
<path d="M123.5000 30.8048
L123.5952 30.8524
" />
<path d="M123.5952 30.8524
L123.6429 30.9001
" />
<path d="M123.6429 30.9001
L123.6905 30.9953
" />
<path d="M123.6905 30.9953
L123.7381 31.1858
" />
<path d="M123.7381 31.1858
L123.7381 31.4239
" />
<path d="M123.7381 31.4239
L123.6905 31.6143
" />
<path d="M123.6905 31.6143
L123.6429 31.7096
" />
<path d="M123.6429 31.7096
L123.5952 31.7572
" />
<path d="M123.5952 31.7572
L123.5000 31.8048
" />
<path d="M123.5000 31.8048
L123.4048 31.8048
" />
<path d="M123.4048 31.8048
L123.3095 31.7572
" />
<path d="M123.3095 31.7572
L123.2619 31.7096
" />
<path d="M123.2619 31.7096
L123.2143 31.6143
" />
<path d="M123.2143 31.6143
L123.1667 31.4239
" />
<path d="M123.1667 31.4239
L123.1667 31.1858
" />
<path d="M123.1667 31.1858
L123.2143 30.9953
" />
<path d="M123.2143 30.9953
L123.2619 30.9001
" />
<path d="M123.2619 30.9001
L123.3095 30.8524
" />
<path d="M123.3095 30.8524
L123.4048 30.8048
" />
<path d="M124.3571 30.8048
L124.4524 30.8048
" />
<path d="M124.4524 30.8048
L124.5476 30.8524
" />
<path d="M124.5476 30.8524
L124.5952 30.9001
" />
<path d="M124.5952 30.9001
L124.6429 30.9953
" />
<path d="M124.6429 30.9953
L124.6905 31.1858
" />
<path d="M124.6905 31.1858
L124.6905 31.4239
" />
<path d="M124.6905 31.4239
L124.6429 31.6143
" />
<path d="M124.6429 31.6143
L124.5952 31.7096
" />
<path d="M124.5952 31.7096
L124.5476 31.7572
" />
<path d="M124.5476 31.7572
L124.4524 31.8048
" />
<path d="M124.4524 31.8048
L124.3571 31.8048
" />
<path d="M124.3571 31.8048
L124.2619 31.7572
" />
<path d="M124.2619 31.7572
L124.2143 31.7096
" />
<path d="M124.2143 31.7096
L124.1667 31.6143
" />
<path d="M124.1667 31.6143
L124.1190 31.4239
" />
<path d="M124.1190 31.4239
L124.1190 31.1858
" />
<path d="M124.1190 31.1858
L124.1667 30.9953
" />
<path d="M124.1667 30.9953
L124.2143 30.9001
" />
<path d="M124.2143 30.9001
L124.2619 30.8524
" />
<path d="M124.2619 30.8524
L124.3571 30.8048
" />
<path d="M125.8810 31.8048
L125.8810 31.1382
" />
<path d="M125.8810 31.2334
L125.9286 31.1858
" />
<path d="M125.9286 31.1858
L126.0238 31.1382
" />
<path d="M126.0238 31.1382
L126.1667 31.1382
" />
<path d="M126.1667 31.1382
L126.2619 31.1858
" />
<path d="M126.2619 31.1858
L126.3095 31.2810
" />
<path d="M126.3095 31.2810
L126.3095 31.8048
" />
<path d="M126.3095 31.2810
L126.3571 31.1858
" />
<path d="M126.3571 31.1858
L126.4524 31.1382
" />
<path d="M126.4524 31.1382
L126.5952 31.1382
" />
<path d="M126.5952 31.1382
L126.6905 31.1858
" />
<path d="M126.6905 31.1858
L126.7381 31.2810
" />
<path d="M126.7381 31.2810
L126.7381 31.8048
" />
<path d="M127.2143 31.8048
L127.2143 31.1382
" />
<path d="M127.2143 31.2334
L127.2619 31.1858
" />
<path d="M127.2619 31.1858
L127.3571 31.1382
" />
<path d="M127.3571 31.1382
L127.5000 31.1382
" />
<path d="M127.5000 31.1382
L127.5952 31.1858
" />
<path d="M127.5952 31.1858
L127.6429 31.2810
" />
<path d="M127.6429 31.2810
L127.6429 31.8048
" />
<path d="M127.6429 31.2810
L127.6905 31.1858
" />
<path d="M127.6905 31.1858
L127.7857 31.1382
" />
<path d="M127.7857 31.1382
L127.9286 31.1382
" />
<path d="M127.9286 31.1382
L128.0238 31.1858
" />
<path d="M128.0238 31.1858
L128.0714 31.2810
" />
<path d="M128.0714 31.2810
L128.0714 31.8048
" />
</g><path d="M103.5000 53.0000
L103.5000 31.9136
" />
<path d="M143.5000 53.0000
L143.5000 31.9136
" />
<path d="M103.5000 32.5000
L143.5000 32.5000
" />
<path d="M103.5000 32.5000
L143.5000 32.5000
" />
<path d="M103.5000 32.5000
L104.6265 31.9136
" />
<path d="M103.5000 32.5000
L104.6265 33.0864
" />
<path d="M143.5000 32.5000
L142.3735 33.0864
" />
<path d="M143.5000 32.5000
L142.3735 31.9136
" />
<text x="123.5000" y="27.6500"
textLength="9.8690" font-size="1.3333" lengthAdjust="spacingAndGlyphs"
text-anchor="middle" opacity="0">47.0000 mm</text>
<g class="stroked-text"><desc>47.0000 mm</desc>
<path d="M119.3571 26.9382
L119.3571 27.6048
" />
<path d="M119.1190 26.5572
L118.8810 27.2715
" />
<path d="M118.8810 27.2715
L119.5000 27.2715
" />
<path d="M119.7857 26.6048
L120.4524 26.6048
" />
<path d="M120.4524 26.6048
L120.0238 27.6048
" />
<path d="M120.8333 27.5096
L120.8810 27.5572
" />
<path d="M120.8810 27.5572
L120.8333 27.6048
" />
<path d="M120.8333 27.6048
L120.7857 27.5572
" />
<path d="M120.7857 27.5572
L120.8333 27.5096
" />
<path d="M120.8333 27.5096
L120.8333 27.6048
" />
<path d="M121.5000 26.6048
L121.5952 26.6048
" />
<path d="M121.5952 26.6048
L121.6905 26.6524
" />
<path d="M121.6905 26.6524
L121.7381 26.7001
" />
<path d="M121.7381 26.7001
L121.7857 26.7953
" />
<path d="M121.7857 26.7953
L121.8333 26.9858
" />
<path d="M121.8333 26.9858
L121.8333 27.2239
" />
<path d="M121.8333 27.2239
L121.7857 27.4143
" />
<path d="M121.7857 27.4143
L121.7381 27.5096
" />
<path d="M121.7381 27.5096
L121.6905 27.5572
" />
<path d="M121.6905 27.5572
L121.5952 27.6048
" />
<path d="M121.5952 27.6048
L121.5000 27.6048
" />
<path d="M121.5000 27.6048
L121.4048 27.5572
" />
<path d="M121.4048 27.5572
L121.3571 27.5096
" />
<path d="M121.3571 27.5096
L121.3095 27.4143
" />
<path d="M121.3095 27.4143
L121.2619 27.2239
" />
<path d="M121.2619 27.2239
L121.2619 26.9858
" />
<path d="M121.2619 26.9858
L121.3095 26.7953
" />
<path d="M121.3095 26.7953
L121.3571 26.7001
" />
<path d="M121.3571 26.7001
L121.4048 26.6524
" />
<path d="M121.4048 26.6524
L121.5000 26.6048
" />
<path d="M122.4524 26.6048
L122.5476 26.6048
" />
<path d="M122.5476 26.6048
L122.6429 26.6524
" />
<path d="M122.6429 26.6524
L122.6905 26.7001
" />
<path d="M122.6905 26.7001
L122.7381 26.7953
" />
<path d="M122.7381 26.7953
L122.7857 26.9858
" />
<path d="M122.7857 26.9858
L122.7857 27.2239
" />
<path d="M122.7857 27.2239
L122.7381 27.4143
" />
<path d="M122.7381 27.4143
L122.6905 27.5096
" />
<path d="M122.6905 27.5096
L122.6429 27.5572
" />
<path d="M122.6429 27.5572
L122.5476 27.6048
" />
<path d="M122.5476 27.6048
L122.4524 27.6048
" />
<path d="M122.4524 27.6048
L122.3571 27.5572
" />
<path d="M122.3571 27.5572
L122.3095 27.5096
" />
<path d="M122.3095 27.5096
L122.2619 27.4143
" />
<path d="M122.2619 27.4143
L122.2143 27.2239
" />
<path d="M122.2143 27.2239
L122.2143 26.9858
" />
<path d="M122.2143 26.9858
L122.2619 26.7953
" />
<path d="M122.2619 26.7953
L122.3095 26.7001
" />
<path d="M122.3095 26.7001
L122.3571 26.6524
" />
<path d="M122.3571 26.6524
L122.4524 26.6048
" />
<path d="M123.4048 26.6048
L123.5000 26.6048
" />
<path d="M123.5000 26.6048
L123.5952 26.6524
" />
<path d="M123.5952 26.6524
L123.6429 26.7001
" />
<path d="M123.6429 26.7001
L123.6905 26.7953
" />
<path d="M123.6905 26.7953
L123.7381 26.9858
" />
<path d="M123.7381 26.9858
L123.7381 27.2239
" />
<path d="M123.7381 27.2239
L123.6905 27.4143
" />
<path d="M123.6905 27.4143
L123.6429 27.5096
" />
<path d="M123.6429 27.5096
L123.5952 27.5572
" />
<path d="M123.5952 27.5572
L123.5000 27.6048
" />
<path d="M123.5000 27.6048
L123.4048 27.6048
" />
<path d="M123.4048 27.6048
L123.3095 27.5572
" />
<path d="M123.3095 27.5572
L123.2619 27.5096
" />
<path d="M123.2619 27.5096
L123.2143 27.4143
" />
<path d="M123.2143 27.4143
L123.1667 27.2239
" />
<path d="M123.1667 27.2239
L123.1667 26.9858
" />
<path d="M123.1667 26.9858
L123.2143 26.7953
" />
<path d="M123.2143 26.7953
L123.2619 26.7001
" />
<path d="M123.2619 26.7001
L123.3095 26.6524
" />
<path d="M123.3095 26.6524
L123.4048 26.6048
" />
<path d="M124.3571 26.6048
L124.4524 26.6048
" />
<path d="M124.4524 26.6048
L124.5476 26.6524
" />
<path d="M124.5476 26.6524
L124.5952 26.7001
" />
<path d="M124.5952 26.7001
L124.6429 26.7953
" />
<path d="M124.6429 26.7953
L124.6905 26.9858
" />
<path d="M124.6905 26.9858
L124.6905 27.2239
" />
<path d="M124.6905 27.2239
L124.6429 27.4143
" />
<path d="M124.6429 27.4143
L124.5952 27.5096
" />
<path d="M124.5952 27.5096
L124.5476 27.5572
" />
<path d="M124.5476 27.5572
L124.4524 27.6048
" />
<path d="M124.4524 27.6048
L124.3571 27.6048
" />
<path d="M124.3571 27.6048
L124.2619 27.5572
" />
<path d="M124.2619 27.5572
L124.2143 27.5096
" />
<path d="M124.2143 27.5096
L124.1667 27.4143
" />
<path d="M124.1667 27.4143
L124.1190 27.2239
" />
<path d="M124.1190 27.2239
L124.1190 26.9858
" />
<path d="M124.1190 26.9858
L124.1667 26.7953
" />
<path d="M124.1667 26.7953
L124.2143 26.7001
" />
<path d="M124.2143 26.7001
L124.2619 26.6524
" />
<path d="M124.2619 26.6524
L124.3571 26.6048
" />
<path d="M125.8810 27.6048
L125.8810 26.9382
" />
<path d="M125.8810 27.0334
L125.9286 26.9858
" />
<path d="M125.9286 26.9858
L126.0238 26.9382
" />
<path d="M126.0238 26.9382
L126.1667 26.9382
" />
<path d="M126.1667 26.9382
L126.2619 26.9858
" />
<path d="M126.2619 26.9858
L126.3095 27.0810
" />
<path d="M126.3095 27.0810
L126.3095 27.6048
" />
<path d="M126.3095 27.0810
L126.3571 26.9858
" />
<path d="M126.3571 26.9858
L126.4524 26.9382
" />
<path d="M126.4524 26.9382
L126.5952 26.9382
" />
<path d="M126.5952 26.9382
L126.6905 26.9858
" />
<path d="M126.6905 26.9858
L126.7381 27.0810
" />
<path d="M126.7381 27.0810
L126.7381 27.6048
" />
<path d="M127.2143 27.6048
L127.2143 26.9382
" />
<path d="M127.2143 27.0334
L127.2619 26.9858
" />
<path d="M127.2619 26.9858
L127.3571 26.9382
" />
<path d="M127.3571 26.9382
L127.5000 26.9382
" />
<path d="M127.5000 26.9382
L127.5952 26.9858
" />
<path d="M127.5952 26.9858
L127.6429 27.0810
" />
<path d="M127.6429 27.0810
L127.6429 27.6048
" />
<path d="M127.6429 27.0810
L127.6905 26.9858
" />
<path d="M127.6905 26.9858
L127.7857 26.9382
" />
<path d="M127.7857 26.9382
L127.9286 26.9382
" />
<path d="M127.9286 26.9382
L128.0238 26.9858
" />
<path d="M128.0238 26.9858
L128.0714 27.0810
" />
<path d="M128.0714 27.0810
L128.0714 27.6048
" />
</g><path d="M100.0000 49.5000
L100.0000 27.7136
" />
<path d="M147.0000 49.5000
L147.0000 27.7136
" />
<path d="M100.0000 28.3000
L147.0000 28.3000
" />
<path d="M100.0000 28.3000
L147.0000 28.3000
" />
<path d="M100.0000 28.3000
L101.1265 27.7136
" />
<path d="M100.0000 28.3000
L101.1265 28.8864
" />
<path d="M147.0000 28.3000
L145.8735 28.8864
" />
<path d="M147.0000 28.3000
L145.8735 27.7136
" />
<g transform="rotate(-90.000000 67.3500 87.5000)">
<text x="67.3500" y="88.0000"
textLength="9.8690" font-size="1.3333" lengthAdjust="spacingAndGlyphs"
text-anchor="middle" opacity="0">75.0000 mm</text>
</g>
<g class="stroked-text"><desc>75.0000 mm</desc>
<path d="M66.8048 92.1667
L66.8048 91.5000
" />
<path d="M66.8048 91.5000
L67.8048 91.9286
" />
<path d="M66.8048 90.6429
L66.8048 91.1190
" />
<path d="M66.8048 91.1190
L67.2810 91.1667
" />
<path d="M67.2810 91.1667
L67.2334 91.1190
" />
<path d="M67.2334 91.1190
L67.1858 91.0238
" />
<path d="M67.1858 91.0238
L67.1858 90.7857
" />
<path d="M67.1858 90.7857
L67.2334 90.6905
" />
<path d="M67.2334 90.6905
L67.2810 90.6429
" />
<path d="M67.2810 90.6429
L67.3762 90.5952
" />
<path d="M67.3762 90.5952
L67.6143 90.5952
" />
<path d="M67.6143 90.5952
L67.7096 90.6429
" />
<path d="M67.7096 90.6429
L67.7572 90.6905
" />
<path d="M67.7572 90.6905
L67.8048 90.7857
" />
<path d="M67.8048 90.7857
L67.8048 91.0238
" />
<path d="M67.8048 91.0238
L67.7572 91.1190
" />
<path d="M67.7572 91.1190
L67.7096 91.1667
" />
<path d="M67.7096 90.1667
L67.7572 90.1190
" />
<path d="M67.7572 90.1190
L67.8048 90.1667
" />
<path d="M67.8048 90.1667
L67.7572 90.2143
" />
<path d="M67.7572 90.2143
L67.7096 90.1667
" />
<path d="M67.7096 90.1667
L67.8048 90.1667
" />
<path d="M66.8048 89.5000
L66.8048 89.4048
" />
<path d="M66.8048 89.4048
L66.8524 89.3095
" />
<path d="M66.8524 89.3095
L66.9001 89.2619
" />
<path d="M66.9001 89.2619
L66.9953 89.2143
" />
<path d="M66.9953 89.2143
L67.1858 89.1667
" />
<path d="M67.1858 89.1667
L67.4239 89.1667
" />
<path d="M67.4239 89.1667
L67.6143 89.2143
" />
<path d="M67.6143 89.2143
L67.7096 89.2619
" />
<path d="M67.7096 89.2619
L67.7572 89.3095
" />
<path d="M67.7572 89.3095
L67.8048 89.4048
" />
<path d="M67.8048 89.4048
L67.8048 89.5000
" />
<path d="M67.8048 89.5000
L67.7572 89.5952
" />
<path d="M67.7572 89.5952
L67.7096 89.6429
" />
<path d="M67.7096 89.6429
L67.6143 89.6905
" />
<path d="M67.6143 89.6905
L67.4239 89.7381
" />
<path d="M67.4239 89.7381
L67.1858 89.7381
" />
<path d="M67.1858 89.7381
L66.9953 89.6905
" />
<path d="M66.9953 89.6905
L66.9001 89.6429
" />
<path d="M66.9001 89.6429
L66.8524 89.5952
" />
<path d="M66.8524 89.5952
L66.8048 89.5000
" />
<path d="M66.8048 88.5476
L66.8048 88.4524
" />
<path d="M66.8048 88.4524
L66.8524 88.3571
" />
<path d="M66.8524 88.3571
L66.9001 88.3095
" />
<path d="M66.9001 88.3095
L66.9953 88.2619
" />
<path d="M66.9953 88.2619
L67.1858 88.2143
" />
<path d="M67.1858 88.2143
L67.4239 88.2143
" />
<path d="M67.4239 88.2143
L67.6143 88.2619
" />
<path d="M67.6143 88.2619
L67.7096 88.3095
" />
<path d="M67.7096 88.3095
L67.7572 88.3571
" />
<path d="M67.7572 88.3571
L67.8048 88.4524
" />
<path d="M67.8048 88.4524
L67.8048 88.5476
" />
<path d="M67.8048 88.5476
L67.7572 88.6429
" />
<path d="M67.7572 88.6429
L67.7096 88.6905
" />
<path d="M67.7096 88.6905
L67.6143 88.7381
" />
<path d="M67.6143 88.7381
L67.4239 88.7857
" />
<path d="M67.4239 88.7857
L67.1858 88.7857
" />
<path d="M67.1858 88.7857
L66.9953 88.7381
" />
<path d="M66.9953 88.7381
L66.9001 88.6905
" />
<path d="M66.9001 88.6905
L66.8524 88.6429
" />
<path d="M66.8524 88.6429
L66.8048 88.5476
" />
<path d="M66.8048 87.5952
L66.8048 87.5000
" />
<path d="M66.8048 87.5000
L66.8524 87.4048
" />
<path d="M66.8524 87.4048
L66.9001 87.3571
" />
<path d="M66.9001 87.3571
L66.9953 87.3095
" />
<path d="M66.9953 87.3095
L67.1858 87.2619
" />
<path d="M67.1858 87.2619
L67.4239 87.2619
" />
<path d="M67.4239 87.2619
L67.6143 87.3095
" />
<path d="M67.6143 87.3095
L67.7096 87.3571
" />
<path d="M67.7096 87.3571
L67.7572 87.4048
" />
<path d="M67.7572 87.4048
L67.8048 87.5000
" />
<path d="M67.8048 87.5000
L67.8048 87.5952
" />
<path d="M67.8048 87.5952
L67.7572 87.6905
" />
<path d="M67.7572 87.6905
L67.7096 87.7381
" />
<path d="M67.7096 87.7381
L67.6143 87.7857
" />
<path d="M67.6143 87.7857
L67.4239 87.8333
" />
<path d="M67.4239 87.8333
L67.1858 87.8333
" />
<path d="M67.1858 87.8333
L66.9953 87.7857
" />
<path d="M66.9953 87.7857
L66.9001 87.7381
" />
<path d="M66.9001 87.7381
L66.8524 87.6905
" />
<path d="M66.8524 87.6905
L66.8048 87.5952
" />
<path d="M66.8048 86.6429
L66.8048 86.5476
" />
<path d="M66.8048 86.5476
L66.8524 86.4524
" />
<path d="M66.8524 86.4524
L66.9001 86.4048
" />
<path d="M66.9001 86.4048
L66.9953 86.3571
" />
<path d="M66.9953 86.3571
L67.1858 86.3095
" />
<path d="M67.1858 86.3095
L67.4239 86.3095
" />
<path d="M67.4239 86.3095
L67.6143 86.3571
" />
<path d="M67.6143 86.3571
L67.7096 86.4048
" />
<path d="M67.7096 86.4048
L67.7572 86.4524
" />
<path d="M67.7572 86.4524
L67.8048 86.5476
" />
<path d="M67.8048 86.5476
L67.8048 86.6429
" />
<path d="M67.8048 86.6429
L67.7572 86.7381
" />
<path d="M67.7572 86.7381
L67.7096 86.7857
" />
<path d="M67.7096 86.7857
L67.6143 86.8333
" />
<path d="M67.6143 86.8333
L67.4239 86.8810
" />
<path d="M67.4239 86.8810
L67.1858 86.8810
" />
<path d="M67.1858 86.8810
L66.9953 86.8333
" />
<path d="M66.9953 86.8333
L66.9001 86.7857
" />
<path d="M66.9001 86.7857
L66.8524 86.7381
" />
<path d="M66.8524 86.7381
L66.8048 86.6429
" />
<path d="M67.8048 85.1190
L67.1382 85.1190
" />
<path d="M67.2334 85.1190
L67.1858 85.0714
" />
<path d="M67.1858 85.0714
L67.1382 84.9762
" />
<path d="M67.1382 84.9762
L67.1382 84.8333
" />
<path d="M67.1382 84.8333
L67.1858 84.7381
" />
<path d="M67.1858 84.7381
L67.2810 84.6905
" />
<path d="M67.2810 84.6905
L67.8048 84.6905
" />
<path d="M67.2810 84.6905
L67.1858 84.6429
" />
<path d="M67.1858 84.6429
L67.1382 84.5476
" />
<path d="M67.1382 84.5476
L67.1382 84.4048
" />
<path d="M67.1382 84.4048
L67.1858 84.3095
" />
<path d="M67.1858 84.3095
L67.2810 84.2619
" />
<path d="M67.2810 84.2619
L67.8048 84.2619
" />
<path d="M67.8048 83.7857
L67.1382 83.7857
" />
<path d="M67.2334 83.7857
L67.1858 83.7381
" />
<path d="M67.1858 83.7381
L67.1382 83.6429
" />
<path d="M67.1382 83.6429
L67.1382 83.5000
" />
<path d="M67.1382 83.5000
L67.1858 83.4048
" />
<path d="M67.1858 83.4048
L67.2810 83.3571
" />
<path d="M67.2810 83.3571
L67.8048 83.3571
" />
<path d="M67.2810 83.3571
L67.1858 83.3095
" />
<path d="M67.1858 83.3095
L67.1382 83.2143
" />
<path d="M67.1382 83.2143
L67.1382 83.0714
" />
<path d="M67.1382 83.0714
L67.1858 82.9762
" />
<path d="M67.1858 82.9762
L67.2810 82.9286
" />
<path d="M67.2810 82.9286
L67.8048 82.9286
" />
</g><path d="M99.5000 50.0000
L67.9136 50.0000
" />
<path d="M99.5000 125.0000
L67.9136 125.0000
" />
<path d="M68.5000 50.0000
L68.5000 125.0000
" />
<path d="M68.5000 50.0000
L68.5000 125.0000
" />
<path d="M68.5000 50.0000
L69.0864 51.1265
" />
<path d="M68.5000 50.0000
L67.9136 51.1265
" />
<path d="M68.5000 125.0000
L67.9136 123.8735
" />
<path d="M68.5000 125.0000
L69.0864 123.8735
" />
<path d="M158.5000 85.0000
L88.5000 85.0000
" />
<path d="M123.5000 145.0000
L123.5000 35.0000
" />
<text x="48.5000" y="53.3901"
textLength="4.5833" font-size="1.3333" lengthAdjust="spacingAndGlyphs"
text-anchor="start" opacity="0">TODO:</text>
<g class="stroked-text"><desc>TODO:</desc>
<path d="M48.6939 52.2599
L49.2653 52.2599
" />
<path d="M48.9796 53.2599
L48.9796 52.2599
" />
<path d="M49.7892 52.2599
L49.9796 52.2599
" />
<path d="M49.9796 52.2599
L50.0749 52.3075
" />
<path d="M50.0749 52.3075
L50.1701 52.4027
" />
<path d="M50.1701 52.4027
L50.2177 52.5932
" />
<path d="M50.2177 52.5932
L50.2177 52.9265
" />
<path d="M50.2177 52.9265
L50.1701 53.1170
" />
<path d="M50.1701 53.1170
L50.0749 53.2123
" />
<path d="M50.0749 53.2123
L49.9796 53.2599
" />
<path d="M49.9796 53.2599
L49.7892 53.2599
" />
<path d="M49.7892 53.2599
L49.6939 53.2123
" />
<path d="M49.6939 53.2123
L49.5987 53.1170
" />
<path d="M49.5987 53.1170
L49.5511 52.9265
" />
<path d="M49.5511 52.9265
L49.5511 52.5932
" />
<path d="M49.5511 52.5932
L49.5987 52.4027
" />
<path d="M49.5987 52.4027
L49.6939 52.3075
" />
<path d="M49.6939 52.3075
L49.7892 52.2599
" />
<path d="M50.6463 53.2599
L50.6463 52.2599
" />
<path d="M50.6463 52.2599
L50.8844 52.2599
" />
<path d="M50.8844 52.2599
L51.0273 52.3075
" />
<path d="M51.0273 52.3075
L51.1225 52.4027
" />
<path d="M51.1225 52.4027
L51.1701 52.4980
" />
<path d="M51.1701 52.4980
L51.2177 52.6884
" />
<path d="M51.2177 52.6884
L51.2177 52.8313
" />
<path d="M51.2177 52.8313
L51.1701 53.0218
" />
<path d="M51.1701 53.0218
L51.1225 53.1170
" />
<path d="M51.1225 53.1170
L51.0273 53.2123
" />
<path d="M51.0273 53.2123
L50.8844 53.2599
" />
<path d="M50.8844 53.2599
L50.6463 53.2599
" />
<path d="M51.8368 52.2599
L52.0273 52.2599
" />
<path d="M52.0273 52.2599
L52.1225 52.3075
" />
<path d="M52.1225 52.3075
L52.2177 52.4027
" />
<path d="M52.2177 52.4027
L52.2653 52.5932
" />
<path d="M52.2653 52.5932
L52.2653 52.9265
" />
<path d="M52.2653 52.9265
L52.2177 53.1170
" />
<path d="M52.2177 53.1170
L52.1225 53.2123
" />
<path d="M52.1225 53.2123
L52.0273 53.2599
" />
<path d="M52.0273 53.2599
L51.8368 53.2599
" />
<path d="M51.8368 53.2599
L51.7415 53.2123
" />
<path d="M51.7415 53.2123
L51.6463 53.1170
" />
<path d="M51.6463 53.1170
L51.5987 52.9265
" />
<path d="M51.5987 52.9265
L51.5987 52.5932
" />
<path d="M51.5987 52.5932
L51.6463 52.4027
" />
<path d="M51.6463 52.4027
L51.7415 52.3075
" />
<path d="M51.7415 52.3075
L51.8368 52.2599
" />
<path d="M52.6939 53.1646
L52.7415 53.2123
" />
<path d="M52.7415 53.2123
L52.6939 53.2599
" />
<path d="M52.6939 53.2599
L52.6463 53.2123
" />
<path d="M52.6463 53.2123
L52.6939 53.1646
" />
<path d="M52.6939 53.1646
L52.6939 53.2599
" />
<path d="M52.6939 52.6408
L52.7415 52.6884
" />
<path d="M52.7415 52.6884
L52.6939 52.7361
" />
<path d="M52.6939 52.7361
L52.6463 52.6884
" />
<path d="M52.6463 52.6884
L52.6939 52.6408
" />
<path d="M52.6939 52.6408
L52.6939 52.7361
" />
</g><text x="48.5000" y="55.0000"
textLength="18.3452" font-size="1.3333" lengthAdjust="spacingAndGlyphs"
text-anchor="start" opacity="0">make board fillet (last)</text>
<g class="stroked-text"><desc>make board fillet (last)</desc>
<path d="M48.8368 54.8698
L48.8368 54.2032
" />
<path d="M48.8368 54.2984
L48.8844 54.2508
" />
<path d="M48.8844 54.2508
L48.9796 54.2032
" />
<path d="M48.9796 54.2032
L49.1225 54.2032
" />
<path d="M49.1225 54.2032
L49.2177 54.2508
" />
<path d="M49.2177 54.2508
L49.2653 54.3460
" />
<path d="M49.2653 54.3460
L49.2653 54.8698
" />
<path d="M49.2653 54.3460
L49.3130 54.2508
" />
<path d="M49.3130 54.2508
L49.4082 54.2032
" />
<path d="M49.4082 54.2032
L49.5511 54.2032
" />
<path d="M49.5511 54.2032
L49.6463 54.2508
" />
<path d="M49.6463 54.2508
L49.6939 54.3460
" />
<path d="M49.6939 54.3460
L49.6939 54.8698
" />
<path d="M50.5987 54.8698
L50.5987 54.3460
" />
<path d="M50.5987 54.3460
L50.5511 54.2508
" />
<path d="M50.5511 54.2508
L50.4558 54.2032
" />
<path d="M50.4558 54.2032
L50.2653 54.2032
" />
<path d="M50.2653 54.2032
L50.1701 54.2508
" />
<path d="M50.5987 54.8222
L50.5034 54.8698
" />
<path d="M50.5034 54.8698
L50.2653 54.8698
" />
<path d="M50.2653 54.8698
L50.1701 54.8222
" />
<path d="M50.1701 54.8222
L50.1225 54.7270
" />
<path d="M50.1225 54.7270
L50.1225 54.6317
" />
<path d="M50.1225 54.6317
L50.1701 54.5365
" />
<path d="M50.1701 54.5365
L50.2653 54.4889
" />
<path d="M50.2653 54.4889
L50.5034 54.4889
" />
<path d="M50.5034 54.4889
L50.5987 54.4412
" />
<path d="M51.0749 54.8698
L51.0749 53.8698
" />
<path d="M51.1701 54.4889
L51.4558 54.8698
" />
<path d="M51.4558 54.2032
L51.0749 54.5841
" />
<path d="M52.2653 54.8222
L52.1701 54.8698
" />
<path d="M52.1701 54.8698
L51.9796 54.8698
" />
<path d="M51.9796 54.8698
L51.8844 54.8222
" />
<path d="M51.8844 54.8222
L51.8368 54.7270
" />
<path d="M51.8368 54.7270
L51.8368 54.3460
" />
<path d="M51.8368 54.3460
L51.8844 54.2508
" />
<path d="M51.8844 54.2508
L51.9796 54.2032
" />
<path d="M51.9796 54.2032
L52.1701 54.2032
" />
<path d="M52.1701 54.2032
L52.2653 54.2508
" />
<path d="M52.2653 54.2508
L52.3130 54.3460
" />
<path d="M52.3130 54.3460
L52.3130 54.4412
" />
<path d="M52.3130 54.4412
L51.8368 54.5365
" />
<path d="M53.5034 54.8698
L53.5034 53.8698
" />
<path d="M53.5034 54.2508
L53.5987 54.2032
" />
<path d="M53.5987 54.2032
L53.7892 54.2032
" />
<path d="M53.7892 54.2032
L53.8844 54.2508
" />
<path d="M53.8844 54.2508
L53.9320 54.2984
" />
<path d="M53.9320 54.2984
L53.9796 54.3936
" />
<path d="M53.9796 54.3936
L53.9796 54.6793
" />
<path d="M53.9796 54.6793
L53.9320 54.7746
" />
<path d="M53.9320 54.7746
L53.8844 54.8222
" />
<path d="M53.8844 54.8222
L53.7892 54.8698
" />
<path d="M53.7892 54.8698
L53.5987 54.8698
" />
<path d="M53.5987 54.8698
L53.5034 54.8222
" />
<path d="M54.5511 54.8698
L54.4558 54.8222
" />
<path d="M54.4558 54.8222
L54.4082 54.7746
" />
<path d="M54.4082 54.7746
L54.3606 54.6793
" />
<path d="M54.3606 54.6793
L54.3606 54.3936
" />
<path d="M54.3606 54.3936
L54.4082 54.2984
" />
<path d="M54.4082 54.2984
L54.4558 54.2508
" />
<path d="M54.4558 54.2508
L54.5511 54.2032
" />
<path d="M54.5511 54.2032
L54.6939 54.2032
" />
<path d="M54.6939 54.2032
L54.7892 54.2508
" />
<path d="M54.7892 54.2508
L54.8368 54.2984
" />
<path d="M54.8368 54.2984
L54.8844 54.3936
" />
<path d="M54.8844 54.3936
L54.8844 54.6793
" />
<path d="M54.8844 54.6793
L54.8368 54.7746
" />
<path d="M54.8368 54.7746
L54.7892 54.8222
" />
<path d="M54.7892 54.8222
L54.6939 54.8698
" />
<path d="M54.6939 54.8698
L54.5511 54.8698
" />
<path d="M55.7415 54.8698
L55.7415 54.3460
" />
<path d="M55.7415 54.3460
L55.6939 54.2508
" />
<path d="M55.6939 54.2508
L55.5987 54.2032
" />
<path d="M55.5987 54.2032
L55.4082 54.2032
" />
<path d="M55.4082 54.2032
L55.3130 54.2508
" />
<path d="M55.7415 54.8222
L55.6463 54.8698
" />
<path d="M55.6463 54.8698
L55.4082 54.8698
" />
<path d="M55.4082 54.8698
L55.3130 54.8222
" />
<path d="M55.3130 54.8222
L55.2654 54.7270
" />
<path d="M55.2654 54.7270
L55.2654 54.6317
" />
<path d="M55.2654 54.6317
L55.3130 54.5365
" />
<path d="M55.3130 54.5365
L55.4082 54.4889
" />
<path d="M55.4082 54.4889
L55.6463 54.4889
" />
<path d="M55.6463 54.4889
L55.7415 54.4412
" />
<path d="M56.2177 54.8698
L56.2177 54.2032
" />
<path d="M56.2177 54.3936
L56.2654 54.2984
" />
<path d="M56.2654 54.2984
L56.3130 54.2508
" />
<path d="M56.3130 54.2508
L56.4082 54.2032
" />
<path d="M56.4082 54.2032
L56.5034 54.2032
" />
<path d="M57.2654 54.8698
L57.2654 53.8698
" />
<path d="M57.2654 54.8222
L57.1701 54.8698
" />
<path d="M57.1701 54.8698
L56.9796 54.8698
" />
<path d="M56.9796 54.8698
L56.8844 54.8222
" />
<path d="M56.8844 54.8222
L56.8368 54.7746
" />
<path d="M56.8368 54.7746
L56.7892 54.6793
" />
<path d="M56.7892 54.6793
L56.7892 54.3936
" />
<path d="M56.7892 54.3936
L56.8368 54.2984
" />
<path d="M56.8368 54.2984
L56.8844 54.2508
" />
<path d="M56.8844 54.2508
L56.9796 54.2032
" />
<path d="M56.9796 54.2032
L57.1701 54.2032
" />
<path d="M57.1701 54.2032
L57.2654 54.2508
" />
<path d="M58.3606 54.2032
L58.7415 54.2032
" />
<path d="M58.5034 54.8698
L58.5034 54.0127
" />
<path d="M58.5034 54.0127
L58.5511 53.9174
" />
<path d="M58.5511 53.9174
L58.6463 53.8698
" />
<path d="M58.6463 53.8698
L58.7415 53.8698
" />
<path d="M59.0749 54.8698
L59.0749 54.2032
" />
<path d="M59.0749 53.8698
L59.0273 53.9174
" />
<path d="M59.0273 53.9174
L59.0749 53.9651
" />
<path d="M59.0749 53.9651
L59.1225 53.9174
" />
<path d="M59.1225 53.9174
L59.0749 53.8698
" />
<path d="M59.0749 53.8698
L59.0749 53.9651
" />
<path d="M59.6939 54.8698
L59.5987 54.8222
" />
<path d="M59.5987 54.8222
L59.5511 54.7270
" />
<path d="M59.5511 54.7270
L59.5511 53.8698
" />
<path d="M60.2177 54.8698
L60.1225 54.8222
" />
<path d="M60.1225 54.8222
L60.0749 54.7270
" />
<path d="M60.0749 54.7270
L60.0749 53.8698
" />
<path d="M60.9796 54.8222
L60.8844 54.8698
" />
<path d="M60.8844 54.8698
L60.6939 54.8698
" />
<path d="M60.6939 54.8698
L60.5987 54.8222
" />
<path d="M60.5987 54.8222
L60.5511 54.7270
" />
<path d="M60.5511 54.7270
L60.5511 54.3460
" />
<path d="M60.5511 54.3460
L60.5987 54.2508
" />
<path d="M60.5987 54.2508
L60.6939 54.2032
" />
<path d="M60.6939 54.2032
L60.8844 54.2032
" />
<path d="M60.8844 54.2032
L60.9796 54.2508
" />
<path d="M60.9796 54.2508
L61.0273 54.3460
" />
<path d="M61.0273 54.3460
L61.0273 54.4412
" />
<path d="M61.0273 54.4412
L60.5511 54.5365
" />
<path d="M61.3130 54.2032
L61.6939 54.2032
" />
<path d="M61.4558 53.8698
L61.4558 54.7270
" />
<path d="M61.4558 54.7270
L61.5034 54.8222
" />
<path d="M61.5034 54.8222
L61.5987 54.8698
" />
<path d="M61.5987 54.8698
L61.6939 54.8698
" />
<path d="M63.0749 55.2508
L63.0273 55.2032
" />
<path d="M63.0273 55.2032
L62.9320 55.0603
" />
<path d="M62.9320 55.0603
L62.8844 54.9651
" />
<path d="M62.8844 54.9651
L62.8368 54.8222
" />
<path d="M62.8368 54.8222
L62.7892 54.5841
" />
<path d="M62.7892 54.5841
L62.7892 54.3936
" />
<path d="M62.7892 54.3936
L62.8368 54.1555
" />
<path d="M62.8368 54.1555
L62.8844 54.0127
" />
<path d="M62.8844 54.0127
L62.9320 53.9174
" />
<path d="M62.9320 53.9174
L63.0273 53.7746
" />
<path d="M63.0273 53.7746
L63.0749 53.7270
" />
<path d="M63.5987 54.8698
L63.5034 54.8222
" />
<path d="M63.5034 54.8222
L63.4558 54.7270
" />
<path d="M63.4558 54.7270
L63.4558 53.8698
" />
<path d="M64.4082 54.8698
L64.4082 54.3460
" />
<path d="M64.4082 54.3460
L64.3606 54.2508
" />
<path d="M64.3606 54.2508
L64.2654 54.2032
" />
<path d="M64.2654 54.2032
L64.0749 54.2032
" />
<path d="M64.0749 54.2032
L63.9796 54.2508
" />
<path d="M64.4082 54.8222
L64.3130 54.8698
" />
<path d="M64.3130 54.8698
L64.0749 54.8698
" />
<path d="M64.0749 54.8698
L63.9796 54.8222
" />
<path d="M63.9796 54.8222
L63.9320 54.7270
" />
<path d="M63.9320 54.7270
L63.9320 54.6317
" />
<path d="M63.9320 54.6317
L63.9796 54.5365
" />
<path d="M63.9796 54.5365
L64.0749 54.4889
" />
<path d="M64.0749 54.4889
L64.3130 54.4889
" />
<path d="M64.3130 54.4889
L64.4082 54.4412
" />
<path d="M64.8368 54.8222
L64.9320 54.8698
" />
<path d="M64.9320 54.8698
L65.1225 54.8698
" />
<path d="M65.1225 54.8698
L65.2177 54.8222
" />
<path d="M65.2177 54.8222
L65.2654 54.7270
" />
<path d="M65.2654 54.7270
L65.2654 54.6793
" />
<path d="M65.2654 54.6793
L65.2177 54.5841
" />
<path d="M65.2177 54.5841
L65.1225 54.5365
" />
<path d="M65.1225 54.5365
L64.9796 54.5365
" />
<path d="M64.9796 54.5365
L64.8844 54.4889
" />
<path d="M64.8844 54.4889
L64.8368 54.3936
" />
<path d="M64.8368 54.3936
L64.8368 54.3460
" />
<path d="M64.8368 54.3460
L64.8844 54.2508
" />
<path d="M64.8844 54.2508
L64.9796 54.2032
" />
<path d="M64.9796 54.2032
L65.1225 54.2032
" />
<path d="M65.1225 54.2032
L65.2177 54.2508
" />
<path d="M65.5511 54.2032
L65.9320 54.2032
" />
<path d="M65.6939 53.8698
L65.6939 54.7270
" />
<path d="M65.6939 54.7270
L65.7415 54.8222
" />
<path d="M65.7415 54.8222
L65.8368 54.8698
" />
<path d="M65.8368 54.8698
L65.9320 54.8698
" />
<path d="M66.1701 55.2508
L66.2177 55.2032
" />
<path d="M66.2177 55.2032
L66.3130 55.0603
" />
<path d="M66.3130 55.0603
L66.3606 54.9651
" />
<path d="M66.3606 54.9651
L66.4082 54.8222
" />
<path d="M66.4082 54.8222
L66.4558 54.5841
" />
<path d="M66.4558 54.5841
L66.4558 54.3936
" />
<path d="M66.4558 54.3936
L66.4082 54.1555
" />
<path d="M66.4082 54.1555
L66.3606 54.0127
" />
<path d="M66.3606 54.0127
L66.3130 53.9174
" />
<path d="M66.3130 53.9174
L66.2177 53.7746
" />
<path d="M66.2177 53.7746
L66.1701 53.7270
" />
</g><circle cx="143.5000" cy="53.5000" r="3.2000" /> 
<circle cx="103.5000" cy="53.5000" r="3.2000" /> 
<circle cx="103.5000" cy="108.5000" r="3.2000" /> 
<circle cx="143.5000" cy="108.5000" r="3.2000" /> 
<path style="fill:none; 
stroke:#C2C200; stroke-width:0.1000; stroke-opacity:1; 
stroke-linecap:round; stroke-linejoin:round;fill:none"
d="M 100.0000,50.0000
147.0000,50.0000
147.0000,125.0000
100.0000,125.0000
Z" /> 
</g> 
</svg>
